%TF.GenerationSoftware,KiCad,Pcbnew,9.0.0*%
%TF.CreationDate,2025-03-27T11:20:22+01:00*%
%TF.ProjectId,Cabletester_CB_Diamler_1,4361626c-6574-4657-9374-65725f43425f,rev?*%
%TF.SameCoordinates,PX2255100PY29020c0*%
%TF.FileFunction,Plated,1,2,PTH,Drill*%
%TF.FilePolarity,Positive*%
%FSLAX46Y46*%
G04 Gerber Fmt 4.6, Leading zero omitted, Abs format (unit mm)*
G04 Created by KiCad (PCBNEW 9.0.0) date 2025-03-27 11:20:22*
%MOMM*%
%LPD*%
G01*
G04 APERTURE LIST*
%TA.AperFunction,ViaDrill*%
%ADD10C,0.300000*%
%TD*%
%TA.AperFunction,ComponentDrill*%
%ADD11C,0.800000*%
%TD*%
%TA.AperFunction,ComponentDrill*%
%ADD12C,1.000000*%
%TD*%
%TA.AperFunction,ComponentDrill*%
%ADD13C,1.200000*%
%TD*%
%TA.AperFunction,ComponentDrill*%
%ADD14C,3.200000*%
%TD*%
G04 APERTURE END LIST*
D10*
X6000000Y-9000000D03*
X6000000Y-11000000D03*
X6000000Y-13000000D03*
X6000000Y-15000000D03*
X6000000Y-17000000D03*
X6000000Y-19000000D03*
X6000000Y-21000000D03*
X6000000Y-23000000D03*
X6000000Y-104000000D03*
X6000000Y-105000000D03*
X6000000Y-109000000D03*
X6000000Y-110000000D03*
X6000000Y-114000000D03*
X6000000Y-115000000D03*
X7000000Y-103000000D03*
X7000000Y-106000000D03*
X7000000Y-108000000D03*
X7000000Y-111000000D03*
X7000000Y-113000000D03*
X7000000Y-116000000D03*
X8000000Y-9000000D03*
X8000000Y-11000000D03*
X8000000Y-13000000D03*
X8000000Y-15000000D03*
X8000000Y-17000000D03*
X8000000Y-19000000D03*
X8000000Y-21000000D03*
X8000000Y-23000000D03*
X8000000Y-103000000D03*
X8000000Y-106000000D03*
X8000000Y-108000000D03*
X8000000Y-111000000D03*
X8000000Y-113000000D03*
X8000000Y-116000000D03*
X9000000Y-104000000D03*
X9000000Y-105000000D03*
X9000000Y-109000000D03*
X9000000Y-110000000D03*
X9000000Y-114000000D03*
X9000000Y-115000000D03*
X10000000Y-9000000D03*
X10000000Y-11000000D03*
X10000000Y-13000000D03*
X10000000Y-15000000D03*
X10000000Y-17000000D03*
X10000000Y-19000000D03*
X10000000Y-21000000D03*
X10000000Y-23000000D03*
X10000000Y-106000000D03*
X10000000Y-107000000D03*
X10000000Y-111000000D03*
X10000000Y-112000000D03*
X11000000Y-105000000D03*
X11000000Y-108000000D03*
X11000000Y-110000000D03*
X11000000Y-113000000D03*
X12000000Y-9000000D03*
X12000000Y-11000000D03*
X12000000Y-13000000D03*
X12000000Y-15000000D03*
X12000000Y-17000000D03*
X12000000Y-19000000D03*
X12000000Y-21000000D03*
X12000000Y-23000000D03*
X12000000Y-105000000D03*
X12000000Y-108000000D03*
X12000000Y-110000000D03*
X12000000Y-113000000D03*
X13000000Y-106000000D03*
X13000000Y-107000000D03*
X13000000Y-111000000D03*
X13000000Y-112000000D03*
X14000000Y-9000000D03*
X14000000Y-11000000D03*
X14000000Y-13000000D03*
X14000000Y-15000000D03*
X14000000Y-17000000D03*
X14000000Y-19000000D03*
X14000000Y-21000000D03*
X14000000Y-23000000D03*
X14100000Y-108600000D03*
X14100000Y-109600000D03*
X15100000Y-107600000D03*
X15100000Y-110600000D03*
X16000000Y-9000000D03*
X16000000Y-11000000D03*
X16000000Y-13000000D03*
X16000000Y-15000000D03*
X16000000Y-17000000D03*
X16000000Y-19000000D03*
X16000000Y-21000000D03*
X16000000Y-23000000D03*
X16100000Y-107600000D03*
X16100000Y-110600000D03*
X17100000Y-108600000D03*
X17100000Y-109600000D03*
X18000000Y-9000000D03*
X18000000Y-11000000D03*
X18000000Y-13000000D03*
X18000000Y-15000000D03*
X18000000Y-17000000D03*
X18000000Y-19000000D03*
X18000000Y-21000000D03*
X18000000Y-23000000D03*
X20000000Y-9000000D03*
X20000000Y-11000000D03*
X20000000Y-13000000D03*
X20000000Y-15000000D03*
X20000000Y-17000000D03*
X20000000Y-19000000D03*
X20000000Y-21000000D03*
X20000000Y-23000000D03*
X20155000Y-81895000D03*
X20190000Y-107900000D03*
X22000000Y-9000000D03*
X22000000Y-11000000D03*
X22000000Y-13000000D03*
X22000000Y-15000000D03*
X22000000Y-17000000D03*
X22000000Y-19000000D03*
X22000000Y-21000000D03*
X22000000Y-23000000D03*
X24000000Y-9000000D03*
X24000000Y-11000000D03*
X24000000Y-13000000D03*
X24000000Y-15000000D03*
X24000000Y-17000000D03*
X24000000Y-19000000D03*
X24000000Y-21000000D03*
X24000000Y-23000000D03*
X24645000Y-72695000D03*
X26000000Y-9000000D03*
X26000000Y-11000000D03*
X26000000Y-13000000D03*
X26000000Y-15000000D03*
X27190000Y-71310000D03*
X28000000Y-9000000D03*
X28000000Y-11000000D03*
X28000000Y-13000000D03*
X28000000Y-15000000D03*
X28000000Y-33000000D03*
X28000000Y-35000000D03*
X30000000Y-9000000D03*
X30000000Y-11000000D03*
X30000000Y-13000000D03*
X30000000Y-15000000D03*
X30000000Y-33000000D03*
X30000000Y-35000000D03*
X30520000Y-69925000D03*
X32000000Y-9000000D03*
X32000000Y-11000000D03*
X32000000Y-13000000D03*
X32000000Y-15000000D03*
X32000000Y-33000000D03*
X32000000Y-35000000D03*
X34000000Y-9000000D03*
X34000000Y-11000000D03*
X34000000Y-13000000D03*
X34000000Y-15000000D03*
X34000000Y-33000000D03*
X34000000Y-35000000D03*
X36000000Y-9000000D03*
X36000000Y-11000000D03*
X36000000Y-13000000D03*
X36000000Y-15000000D03*
X36000000Y-33000000D03*
X36000000Y-35000000D03*
X36560000Y-68540000D03*
X38000000Y-9000000D03*
X38000000Y-11000000D03*
X38000000Y-13000000D03*
X38000000Y-15000000D03*
X38000000Y-33000000D03*
X38000000Y-35000000D03*
X40000000Y-9000000D03*
X40000000Y-11000000D03*
X40000000Y-13000000D03*
X40000000Y-15000000D03*
X40000000Y-33000000D03*
X40000000Y-35000000D03*
X42000000Y-33000000D03*
X42000000Y-35000000D03*
X42430000Y-67155000D03*
X44000000Y-33000000D03*
X44000000Y-35000000D03*
X44970000Y-65770000D03*
X46000000Y-33000000D03*
X46000000Y-35000000D03*
X48000000Y-33000000D03*
X48000000Y-35000000D03*
X50000000Y-33000000D03*
X50000000Y-35000000D03*
X50000000Y-92000000D03*
X50000000Y-94000000D03*
X50000000Y-96000000D03*
X50000000Y-98000000D03*
X50000000Y-100000000D03*
X50000000Y-102000000D03*
X50000000Y-104000000D03*
X50000000Y-106000000D03*
X50000000Y-112000000D03*
X50000000Y-114000000D03*
X50000000Y-116000000D03*
X50000000Y-118000000D03*
X52000000Y-92000000D03*
X52000000Y-94000000D03*
X52000000Y-96000000D03*
X52000000Y-98000000D03*
X52000000Y-100000000D03*
X52000000Y-102000000D03*
X52000000Y-104000000D03*
X52000000Y-106000000D03*
X52000000Y-112000000D03*
X52000000Y-114000000D03*
X52000000Y-116000000D03*
X52000000Y-118000000D03*
X54000000Y-33000000D03*
X54000000Y-35000000D03*
X54000000Y-37000000D03*
X54000000Y-39000000D03*
X54000000Y-41000000D03*
X54000000Y-43000000D03*
X54000000Y-45000000D03*
X54000000Y-47000000D03*
X54000000Y-49000000D03*
X54000000Y-51000000D03*
X54000000Y-53000000D03*
X54000000Y-55000000D03*
X54000000Y-57000000D03*
X54000000Y-59000000D03*
X54000000Y-61000000D03*
X54000000Y-63000000D03*
X54000000Y-65000000D03*
X54000000Y-67000000D03*
X54000000Y-69000000D03*
X54000000Y-71000000D03*
X54000000Y-112000000D03*
X54000000Y-114000000D03*
X54000000Y-116000000D03*
X54000000Y-118000000D03*
X54038232Y-91994501D03*
X54038232Y-93994501D03*
X54038232Y-95994501D03*
X54038232Y-97994501D03*
X54038232Y-99994501D03*
X54038232Y-101994501D03*
X54038232Y-103994501D03*
X54038232Y-105994501D03*
X56000000Y-33000000D03*
X56000000Y-35000000D03*
X56000000Y-37000000D03*
X56000000Y-39000000D03*
X56000000Y-41000000D03*
X56000000Y-43000000D03*
X56000000Y-45000000D03*
X56000000Y-47000000D03*
X56000000Y-49000000D03*
X56000000Y-51000000D03*
X56000000Y-53000000D03*
X56000000Y-55000000D03*
X56000000Y-57000000D03*
X56000000Y-59000000D03*
X56000000Y-61000000D03*
X56000000Y-63000000D03*
X56000000Y-65000000D03*
X56000000Y-67000000D03*
X56000000Y-69000000D03*
X56000000Y-71000000D03*
X56000000Y-112000000D03*
X56000000Y-114000000D03*
X56000000Y-116000000D03*
X56000000Y-118000000D03*
X56038232Y-91994501D03*
X56038232Y-93994501D03*
X56038232Y-95994501D03*
X56038232Y-97994501D03*
X56038232Y-99994501D03*
X56038232Y-101994501D03*
X56038232Y-103994501D03*
X56038232Y-105994501D03*
X58000000Y-33000000D03*
X58000000Y-35000000D03*
X58000000Y-37000000D03*
X58000000Y-39000000D03*
X58000000Y-41000000D03*
X58000000Y-43000000D03*
X58000000Y-45000000D03*
X58000000Y-47000000D03*
X58000000Y-49000000D03*
X58000000Y-51000000D03*
X58000000Y-53000000D03*
X58000000Y-55000000D03*
X58000000Y-57000000D03*
X58000000Y-59000000D03*
X58000000Y-61000000D03*
X58000000Y-63000000D03*
X58000000Y-65000000D03*
X58000000Y-67000000D03*
X58000000Y-69000000D03*
X58000000Y-71000000D03*
X58000000Y-92000000D03*
X58000000Y-94000000D03*
X58000000Y-96000000D03*
X58000000Y-98000000D03*
X58000000Y-100000000D03*
X58000000Y-102000000D03*
X58000000Y-104000000D03*
X58000000Y-106000000D03*
X58000000Y-112000000D03*
X58000000Y-114000000D03*
X58000000Y-116000000D03*
X58000000Y-118000000D03*
X60000000Y-33000000D03*
X60000000Y-35000000D03*
X60000000Y-37000000D03*
X60000000Y-39000000D03*
X60000000Y-41000000D03*
X60000000Y-43000000D03*
X60000000Y-45000000D03*
X60000000Y-47000000D03*
X60000000Y-49000000D03*
X60000000Y-51000000D03*
X60000000Y-53000000D03*
X60000000Y-55000000D03*
X60000000Y-57000000D03*
X60000000Y-59000000D03*
X60000000Y-61000000D03*
X60000000Y-63000000D03*
X60000000Y-65000000D03*
X60000000Y-67000000D03*
X60000000Y-69000000D03*
X60000000Y-71000000D03*
X60000000Y-92000000D03*
X60000000Y-94000000D03*
X60000000Y-96000000D03*
X60000000Y-98000000D03*
X60000000Y-100000000D03*
X60000000Y-102000000D03*
X60000000Y-104000000D03*
X60000000Y-106000000D03*
X60000000Y-112000000D03*
X60000000Y-114000000D03*
X60000000Y-116000000D03*
X60000000Y-118000000D03*
X62000000Y-92000000D03*
X62000000Y-94000000D03*
X62000000Y-96000000D03*
X62000000Y-98000000D03*
X62000000Y-100000000D03*
X62000000Y-102000000D03*
X62000000Y-104000000D03*
X62000000Y-106000000D03*
X62000000Y-112000000D03*
X62000000Y-114000000D03*
X62000000Y-116000000D03*
X62000000Y-118000000D03*
X63000000Y-33000000D03*
X63000000Y-35000000D03*
X64000000Y-92000000D03*
X64000000Y-94000000D03*
X64000000Y-96000000D03*
X64000000Y-98000000D03*
X64000000Y-100000000D03*
X64000000Y-102000000D03*
X64000000Y-104000000D03*
X64000000Y-106000000D03*
X64000000Y-112000000D03*
X64000000Y-114000000D03*
X64000000Y-116000000D03*
X64000000Y-118000000D03*
X65000000Y-33000000D03*
X65000000Y-35000000D03*
X65000000Y-73000000D03*
X65000000Y-75000000D03*
X65000000Y-77000000D03*
X65000000Y-79000000D03*
X67000000Y-33000000D03*
X67000000Y-35000000D03*
X67000000Y-73000000D03*
X67000000Y-75000000D03*
X67000000Y-77000000D03*
X67000000Y-79000000D03*
X69000000Y-9000000D03*
X69000000Y-11000000D03*
X69000000Y-13000000D03*
X69000000Y-15000000D03*
X69000000Y-33000000D03*
X69000000Y-35000000D03*
X69000000Y-73000000D03*
X69000000Y-75000000D03*
X69000000Y-77000000D03*
X69000000Y-79000000D03*
X71000000Y-9000000D03*
X71000000Y-11000000D03*
X71000000Y-13000000D03*
X71000000Y-15000000D03*
X71000000Y-33000000D03*
X71000000Y-35000000D03*
X71000000Y-73000000D03*
X71000000Y-75000000D03*
X71000000Y-77000000D03*
X71000000Y-79000000D03*
X73000000Y-9000000D03*
X73000000Y-11000000D03*
X73000000Y-13000000D03*
X73000000Y-15000000D03*
X73000000Y-33000000D03*
X73000000Y-35000000D03*
X73000000Y-73000000D03*
X73000000Y-75000000D03*
X73000000Y-77000000D03*
X73000000Y-79000000D03*
X75000000Y-9000000D03*
X75000000Y-11000000D03*
X75000000Y-13000000D03*
X75000000Y-15000000D03*
X75000000Y-33000000D03*
X75000000Y-35000000D03*
X75000000Y-73000000D03*
X75000000Y-75000000D03*
X75000000Y-77000000D03*
X75000000Y-79000000D03*
X77000000Y-9000000D03*
X77000000Y-11000000D03*
X77000000Y-13000000D03*
X77000000Y-15000000D03*
X77000000Y-33000000D03*
X77000000Y-35000000D03*
X77000000Y-73000000D03*
X77000000Y-75000000D03*
X77000000Y-77000000D03*
X77000000Y-79000000D03*
X79000000Y-9000000D03*
X79000000Y-11000000D03*
X79000000Y-13000000D03*
X79000000Y-15000000D03*
X79000000Y-33000000D03*
X79000000Y-35000000D03*
X79000000Y-73000000D03*
X79000000Y-75000000D03*
X79000000Y-77000000D03*
X79000000Y-79000000D03*
X81000000Y-9000000D03*
X81000000Y-11000000D03*
X81000000Y-13000000D03*
X81000000Y-15000000D03*
X81000000Y-33000000D03*
X81000000Y-35000000D03*
X83000000Y-9000000D03*
X83000000Y-11000000D03*
X83000000Y-13000000D03*
X83000000Y-15000000D03*
X83000000Y-33000000D03*
X83000000Y-35000000D03*
X85000000Y-9000000D03*
X85000000Y-11000000D03*
X85000000Y-13000000D03*
X85000000Y-15000000D03*
X85000000Y-33000000D03*
X85000000Y-35000000D03*
X87000000Y-9000000D03*
X87000000Y-11000000D03*
X87000000Y-13000000D03*
X87000000Y-15000000D03*
X89000000Y-9000000D03*
X89000000Y-11000000D03*
X89000000Y-13000000D03*
X89000000Y-15000000D03*
X89000000Y-18000000D03*
X89000000Y-20000000D03*
X89000000Y-22000000D03*
X89000000Y-24000000D03*
X91000000Y-9000000D03*
X91000000Y-11000000D03*
X91000000Y-13000000D03*
X91000000Y-15000000D03*
X91000000Y-18000000D03*
X91000000Y-20000000D03*
X91000000Y-22000000D03*
X91000000Y-24000000D03*
X93000000Y-9000000D03*
X93000000Y-11000000D03*
X93000000Y-13000000D03*
X93000000Y-15000000D03*
X93000000Y-18000000D03*
X93000000Y-20000000D03*
X93000000Y-22000000D03*
X93000000Y-24000000D03*
X94000000Y-114000000D03*
X94000000Y-116000000D03*
X95000000Y-9000000D03*
X95000000Y-11000000D03*
X95000000Y-13000000D03*
X95000000Y-15000000D03*
X95000000Y-18000000D03*
X95000000Y-20000000D03*
X95000000Y-22000000D03*
X95000000Y-24000000D03*
X96000000Y-114000000D03*
X96000000Y-116000000D03*
X97000000Y-9000000D03*
X97000000Y-11000000D03*
X97000000Y-13000000D03*
X97000000Y-15000000D03*
X97000000Y-18000000D03*
X97000000Y-20000000D03*
X97000000Y-22000000D03*
X97000000Y-24000000D03*
X98000000Y-114000000D03*
X98000000Y-116000000D03*
X99000000Y-9000000D03*
X99000000Y-11000000D03*
X99000000Y-13000000D03*
X99000000Y-15000000D03*
X99000000Y-18000000D03*
X99000000Y-20000000D03*
X99000000Y-22000000D03*
X99000000Y-24000000D03*
X100000000Y-114000000D03*
X100000000Y-116000000D03*
X101000000Y-9000000D03*
X101000000Y-11000000D03*
X101000000Y-13000000D03*
X101000000Y-15000000D03*
X101000000Y-18000000D03*
X101000000Y-20000000D03*
X101000000Y-22000000D03*
X101000000Y-24000000D03*
X102000000Y-114000000D03*
X102000000Y-116000000D03*
X103000000Y-9000000D03*
X103000000Y-11000000D03*
X103000000Y-13000000D03*
X103000000Y-15000000D03*
X103000000Y-18000000D03*
X103000000Y-20000000D03*
X103000000Y-22000000D03*
X103000000Y-24000000D03*
X104000000Y-114000000D03*
X104000000Y-116000000D03*
X105000000Y-9000000D03*
X105000000Y-11000000D03*
X105000000Y-13000000D03*
X105000000Y-15000000D03*
X105000000Y-18000000D03*
X105000000Y-20000000D03*
X105000000Y-22000000D03*
X105000000Y-24000000D03*
X106000000Y-114000000D03*
X106000000Y-116000000D03*
X107000000Y-9000000D03*
X107000000Y-11000000D03*
X107000000Y-13000000D03*
X107000000Y-15000000D03*
X107000000Y-18000000D03*
X107000000Y-20000000D03*
X107000000Y-22000000D03*
X107000000Y-24000000D03*
X107274000Y-44995000D03*
X107274000Y-99480000D03*
X108000000Y-114000000D03*
X108000000Y-116000000D03*
D11*
%TO.C,J2*%
X24650000Y-102000000D03*
X27190000Y-102000000D03*
%TO.C,J4*%
X39660000Y-46540000D03*
X39660000Y-49080000D03*
X39660000Y-51620000D03*
X39660000Y-54160000D03*
X39660000Y-56700000D03*
X39660000Y-59240000D03*
X39660000Y-61780000D03*
X42200000Y-46540000D03*
X42200000Y-49080000D03*
X42200000Y-51620000D03*
X42200000Y-54160000D03*
X42200000Y-56700000D03*
X42200000Y-59240000D03*
X42200000Y-61780000D03*
%TO.C,J2*%
X42430000Y-102000000D03*
X44970000Y-102000000D03*
%TO.C,J3*%
X54200000Y-80490000D03*
X54200000Y-83030000D03*
X54200000Y-85570000D03*
X54200000Y-88110000D03*
X56740000Y-80490000D03*
X56740000Y-83030000D03*
X56740000Y-85570000D03*
X56740000Y-88110000D03*
%TO.C,J1*%
X68870000Y-102000000D03*
X71410000Y-102000000D03*
%TO.C,J5*%
X72240000Y-46540000D03*
X72240000Y-49080000D03*
X72240000Y-51620000D03*
X72240000Y-54160000D03*
X72240000Y-56700000D03*
X72240000Y-59240000D03*
X72240000Y-61780000D03*
X74780000Y-46540000D03*
X74780000Y-49080000D03*
X74780000Y-51620000D03*
X74780000Y-54160000D03*
X74780000Y-56700000D03*
X74780000Y-59240000D03*
X74780000Y-61780000D03*
%TO.C,J1*%
X86650000Y-102000000D03*
X89190000Y-102000000D03*
D12*
%TO.C,J12*%
X12490000Y-39455000D03*
X12490000Y-42225000D03*
X12490000Y-44995000D03*
X12490000Y-47765000D03*
X12490000Y-50535000D03*
X12490000Y-53305000D03*
X12490000Y-56075000D03*
X12490000Y-58845000D03*
X12490000Y-61615000D03*
X12490000Y-64385000D03*
X12490000Y-67155000D03*
X12490000Y-69925000D03*
X12490000Y-72695000D03*
X12490000Y-75465000D03*
X12490000Y-78235000D03*
X12490000Y-81005000D03*
X12490000Y-83775000D03*
X12490000Y-86545000D03*
X15330000Y-38070000D03*
X15330000Y-40840000D03*
X15330000Y-43610000D03*
X15330000Y-46380000D03*
X15330000Y-49150000D03*
X15330000Y-51920000D03*
X15330000Y-54690000D03*
X15330000Y-57460000D03*
X15330000Y-60230000D03*
X15330000Y-63000000D03*
X15330000Y-65770000D03*
X15330000Y-68540000D03*
X15330000Y-71310000D03*
X15330000Y-74080000D03*
X15330000Y-76850000D03*
X15330000Y-79620000D03*
X15330000Y-82390000D03*
X15330000Y-85160000D03*
X15330000Y-87930000D03*
%TO.C,J11*%
X98930000Y-38070000D03*
X98930000Y-40840000D03*
X98930000Y-43610000D03*
X98930000Y-46380000D03*
X98930000Y-49150000D03*
X98930000Y-51920000D03*
X98930000Y-54690000D03*
X98930000Y-57460000D03*
X98930000Y-60230000D03*
X98930000Y-63000000D03*
X98930000Y-65770000D03*
X98930000Y-68540000D03*
X98930000Y-71310000D03*
X98930000Y-74080000D03*
X98930000Y-76850000D03*
X98930000Y-79620000D03*
X98930000Y-82390000D03*
X98930000Y-85160000D03*
X98930000Y-87930000D03*
X101770000Y-39455000D03*
X101770000Y-42225000D03*
X101770000Y-44995000D03*
X101770000Y-47765000D03*
X101770000Y-50535000D03*
X101770000Y-53305000D03*
X101770000Y-56075000D03*
X101770000Y-58845000D03*
X101770000Y-61615000D03*
X101770000Y-64385000D03*
X101770000Y-67155000D03*
X101770000Y-69925000D03*
X101770000Y-72695000D03*
X101770000Y-75465000D03*
X101770000Y-78235000D03*
X101770000Y-81005000D03*
X101770000Y-83775000D03*
X101770000Y-86545000D03*
D13*
%TO.C,J2*%
X30520000Y-99460000D03*
X33060000Y-99460000D03*
X36560000Y-99460000D03*
X39100000Y-99460000D03*
%TO.C,J1*%
X74740000Y-99460000D03*
X77280000Y-99460000D03*
X80780000Y-99460000D03*
X83320000Y-99460000D03*
D14*
%TO.C,J12*%
X13910000Y-31250000D03*
X13910000Y-94750000D03*
%TO.C,J11*%
X100350000Y-31250000D03*
X100350000Y-94750000D03*
M02*
