G04 #@! TF.GenerationSoftware,KiCad,Pcbnew,9.0.0*
G04 #@! TF.CreationDate,2025-03-27T11:20:33+01:00*
G04 #@! TF.ProjectId,Cabletester_CB_Diamler_1,4361626c-6574-4657-9374-65725f43425f,rev?*
G04 #@! TF.SameCoordinates,PX2255100PY29020c0*
G04 #@! TF.FileFunction,Soldermask,Top*
G04 #@! TF.FilePolarity,Negative*
%FSLAX46Y46*%
G04 Gerber Fmt 4.6, Leading zero omitted, Abs format (unit mm)*
G04 Created by KiCad (PCBNEW 9.0.0) date 2025-03-27 11:20:33*
%MOMM*%
%LPD*%
G01*
G04 APERTURE LIST*
G04 Aperture macros list*
%AMRoundRect*
0 Rectangle with rounded corners*
0 $1 Rounding radius*
0 $2 $3 $4 $5 $6 $7 $8 $9 X,Y pos of 4 corners*
0 Add a 4 corners polygon primitive as box body*
4,1,4,$2,$3,$4,$5,$6,$7,$8,$9,$2,$3,0*
0 Add four circle primitives for the rounded corners*
1,1,$1+$1,$2,$3*
1,1,$1+$1,$4,$5*
1,1,$1+$1,$6,$7*
1,1,$1+$1,$8,$9*
0 Add four rect primitives between the rounded corners*
20,1,$1+$1,$2,$3,$4,$5,0*
20,1,$1+$1,$4,$5,$6,$7,0*
20,1,$1+$1,$6,$7,$8,$9,0*
20,1,$1+$1,$8,$9,$2,$3,0*%
G04 Aperture macros list end*
%ADD10C,0.000000*%
%ADD11R,1.300000X1.300000*%
%ADD12C,1.300000*%
%ADD13C,1.500000*%
%ADD14R,1.500000X1.500000*%
%ADD15C,2.600000*%
%ADD16R,1.300000X1.400000*%
%ADD17C,1.400000*%
%ADD18C,2.000000*%
%ADD19RoundRect,0.050800X-0.584200X-0.800100X0.584200X-0.800100X0.584200X0.800100X-0.584200X0.800100X0*%
%ADD20C,4.000000*%
%ADD21R,1.600000X1.600000*%
%ADD22C,1.600000*%
G04 #@! TA.AperFunction,Profile*
%ADD23C,0.050000*%
G04 #@! TD*
G04 APERTURE END LIST*
D10*
G04 #@! TO.C,Logo3*
G36*
X59458563Y-10606473D02*
G01*
X59458563Y-10923973D01*
X58180625Y-11439911D01*
X58180625Y-11043036D01*
X58926750Y-10765223D01*
X58180625Y-10479473D01*
X58180625Y-10090536D01*
X59458563Y-10606473D01*
G37*
G36*
X62070000Y-12376536D02*
G01*
X62017829Y-12377576D01*
X61968518Y-12380768D01*
X61922137Y-12386215D01*
X61878756Y-12394023D01*
X61838445Y-12404296D01*
X61801273Y-12417138D01*
X61783886Y-12424555D01*
X61767310Y-12432655D01*
X61751554Y-12441448D01*
X61736626Y-12450950D01*
X61722535Y-12461172D01*
X61709290Y-12472129D01*
X61696900Y-12483832D01*
X61685373Y-12496296D01*
X61674718Y-12509533D01*
X61664944Y-12523556D01*
X61656060Y-12538378D01*
X61648073Y-12554013D01*
X61640994Y-12570474D01*
X61634830Y-12587773D01*
X61629591Y-12605924D01*
X61625284Y-12624939D01*
X61621920Y-12644833D01*
X61619505Y-12665617D01*
X61618051Y-12687305D01*
X61617564Y-12709911D01*
X61617564Y-13479848D01*
X61196875Y-13479848D01*
X61196875Y-11979661D01*
X61617564Y-11979661D01*
X61617564Y-12257473D01*
X61634592Y-12221474D01*
X61652957Y-12187881D01*
X61662652Y-12171983D01*
X61672694Y-12156683D01*
X61683088Y-12141979D01*
X61693838Y-12127869D01*
X61704949Y-12114352D01*
X61716424Y-12101427D01*
X61728268Y-12089091D01*
X61740486Y-12077345D01*
X61753082Y-12066185D01*
X61766060Y-12055612D01*
X61779425Y-12045622D01*
X61793180Y-12036215D01*
X61807331Y-12027390D01*
X61821882Y-12019145D01*
X61836837Y-12011478D01*
X61852200Y-12004388D01*
X61867976Y-11997874D01*
X61884169Y-11991933D01*
X61900783Y-11986566D01*
X61917824Y-11981769D01*
X61935294Y-11977542D01*
X61953199Y-11973884D01*
X61971543Y-11970792D01*
X61990331Y-11968266D01*
X62009566Y-11966304D01*
X62029253Y-11964904D01*
X62070000Y-11963786D01*
X62070000Y-12376536D01*
G37*
G36*
X59029938Y-11979661D02*
G01*
X59315688Y-11979661D01*
X59315688Y-12289223D01*
X59029938Y-12289223D01*
X59029938Y-12995661D01*
X59030498Y-13015846D01*
X59032186Y-13034728D01*
X59033456Y-13043681D01*
X59035013Y-13052308D01*
X59036858Y-13060610D01*
X59038991Y-13068586D01*
X59041416Y-13076237D01*
X59044133Y-13083562D01*
X59047143Y-13090562D01*
X59050448Y-13097236D01*
X59054050Y-13103584D01*
X59057950Y-13109607D01*
X59062149Y-13115304D01*
X59066649Y-13120676D01*
X59071451Y-13125722D01*
X59076557Y-13130443D01*
X59081968Y-13134838D01*
X59087686Y-13138908D01*
X59093712Y-13142652D01*
X59100048Y-13146070D01*
X59106694Y-13149163D01*
X59113653Y-13151930D01*
X59120927Y-13154372D01*
X59128515Y-13156488D01*
X59136420Y-13158278D01*
X59144644Y-13159743D01*
X59153187Y-13160883D01*
X59162052Y-13161697D01*
X59171239Y-13162185D01*
X59180750Y-13162348D01*
X59203493Y-13161976D01*
X59214115Y-13161511D01*
X59224283Y-13160860D01*
X59234032Y-13160023D01*
X59243398Y-13158999D01*
X59252415Y-13157790D01*
X59261118Y-13156395D01*
X59269542Y-13154814D01*
X59277722Y-13153046D01*
X59285692Y-13151093D01*
X59293488Y-13148954D01*
X59301145Y-13146628D01*
X59308697Y-13144117D01*
X59323626Y-13138536D01*
X59323626Y-13463973D01*
X59314237Y-13466946D01*
X59303953Y-13469895D01*
X59280838Y-13475631D01*
X59254560Y-13480995D01*
X59240323Y-13483480D01*
X59225399Y-13485801D01*
X59209825Y-13487937D01*
X59193634Y-13489863D01*
X59176862Y-13491557D01*
X59159543Y-13492995D01*
X59141712Y-13494154D01*
X59123405Y-13495010D01*
X59104656Y-13495541D01*
X59085501Y-13495723D01*
X59026522Y-13493956D01*
X58998556Y-13491747D01*
X58971601Y-13488654D01*
X58945651Y-13484677D01*
X58920703Y-13479817D01*
X58896751Y-13474073D01*
X58873793Y-13467446D01*
X58851822Y-13459935D01*
X58830836Y-13451540D01*
X58810829Y-13442261D01*
X58791798Y-13432099D01*
X58773737Y-13421053D01*
X58756643Y-13409124D01*
X58740511Y-13396311D01*
X58725337Y-13382614D01*
X58711116Y-13368033D01*
X58697844Y-13352569D01*
X58685517Y-13336221D01*
X58674130Y-13318990D01*
X58663680Y-13300874D01*
X58654161Y-13281876D01*
X58645569Y-13261993D01*
X58637900Y-13241227D01*
X58631150Y-13219577D01*
X58625314Y-13197044D01*
X58620387Y-13173626D01*
X58616367Y-13149326D01*
X58613247Y-13124141D01*
X58611024Y-13098073D01*
X58609251Y-13043286D01*
X58609251Y-12289223D01*
X58434626Y-12289223D01*
X58434626Y-11979661D01*
X58609251Y-11979661D01*
X58609251Y-11701848D01*
X59029938Y-11527223D01*
X59029938Y-11979661D01*
G37*
G36*
X59990375Y-12932161D02*
G01*
X59991212Y-12963791D01*
X59993724Y-12993211D01*
X59997910Y-13020446D01*
X60000630Y-13033251D01*
X60003770Y-13045518D01*
X60007328Y-13057251D01*
X60011304Y-13068451D01*
X60015699Y-13079122D01*
X60020513Y-13089268D01*
X60025745Y-13098889D01*
X60031396Y-13107991D01*
X60037465Y-13116575D01*
X60043953Y-13124645D01*
X60050860Y-13132203D01*
X60058185Y-13139253D01*
X60065929Y-13145797D01*
X60074091Y-13151837D01*
X60082672Y-13157378D01*
X60091671Y-13162422D01*
X60101089Y-13166972D01*
X60110926Y-13171030D01*
X60121181Y-13174600D01*
X60131855Y-13177685D01*
X60142947Y-13180287D01*
X60154458Y-13182409D01*
X60166388Y-13184055D01*
X60178736Y-13185227D01*
X60204688Y-13186161D01*
X60218009Y-13185882D01*
X60231174Y-13185047D01*
X60244165Y-13183656D01*
X60256963Y-13181711D01*
X60269553Y-13179215D01*
X60281915Y-13176167D01*
X60294034Y-13172570D01*
X60305891Y-13168425D01*
X60317468Y-13163734D01*
X60328750Y-13158498D01*
X60339717Y-13152718D01*
X60350353Y-13146396D01*
X60360640Y-13139533D01*
X60370561Y-13132131D01*
X60380098Y-13124191D01*
X60389234Y-13115716D01*
X60397952Y-13106705D01*
X60406233Y-13097160D01*
X60414061Y-13087084D01*
X60421418Y-13076478D01*
X60428287Y-13065342D01*
X60434650Y-13053679D01*
X60440490Y-13041489D01*
X60445789Y-13028775D01*
X60450530Y-13015538D01*
X60454695Y-13001779D01*
X60458268Y-12987499D01*
X60461230Y-12972701D01*
X60463564Y-12957385D01*
X60465253Y-12941554D01*
X60466279Y-12925208D01*
X60466625Y-12908348D01*
X60466625Y-11979661D01*
X60887313Y-11979661D01*
X60887313Y-13471911D01*
X60474562Y-13471911D01*
X60474562Y-13249661D01*
X60460329Y-13276058D01*
X60444409Y-13301595D01*
X60426792Y-13326156D01*
X60417343Y-13338034D01*
X60407466Y-13349624D01*
X60397158Y-13360911D01*
X60386418Y-13371882D01*
X60375246Y-13382521D01*
X60363639Y-13392815D01*
X60351596Y-13402748D01*
X60339115Y-13412306D01*
X60326196Y-13421474D01*
X60312836Y-13430239D01*
X60299034Y-13438585D01*
X60284789Y-13446498D01*
X60270099Y-13453963D01*
X60254963Y-13460966D01*
X60239380Y-13467492D01*
X60223347Y-13473527D01*
X60206864Y-13479056D01*
X60189928Y-13484065D01*
X60172540Y-13488539D01*
X60154696Y-13492464D01*
X60136396Y-13495825D01*
X60117638Y-13498607D01*
X60098421Y-13500796D01*
X60078743Y-13502378D01*
X60058603Y-13503338D01*
X60038000Y-13503661D01*
X60012912Y-13503172D01*
X59988266Y-13501704D01*
X59964086Y-13499253D01*
X59940393Y-13495816D01*
X59917213Y-13491392D01*
X59894567Y-13485976D01*
X59872479Y-13479566D01*
X59850972Y-13472159D01*
X59830071Y-13463752D01*
X59809797Y-13454342D01*
X59790174Y-13443927D01*
X59771225Y-13432502D01*
X59752975Y-13420067D01*
X59735445Y-13406616D01*
X59718659Y-13392149D01*
X59702641Y-13376661D01*
X59687413Y-13360150D01*
X59672999Y-13342613D01*
X59659422Y-13324046D01*
X59646706Y-13304448D01*
X59634873Y-13283815D01*
X59623948Y-13262145D01*
X59613952Y-13239433D01*
X59604910Y-13215678D01*
X59596845Y-13190877D01*
X59589779Y-13165027D01*
X59583737Y-13138124D01*
X59578741Y-13110166D01*
X59574815Y-13081149D01*
X59571982Y-13051072D01*
X59570265Y-13019931D01*
X59569688Y-12987723D01*
X59569688Y-11979661D01*
X59990375Y-11979661D01*
X59990375Y-12932161D01*
G37*
G36*
X57832605Y-11948400D02*
G01*
X57857118Y-11949870D01*
X57881085Y-11952325D01*
X57904487Y-11955771D01*
X57927309Y-11960210D01*
X57949531Y-11965648D01*
X57971137Y-11972089D01*
X57992110Y-11979537D01*
X58012431Y-11987996D01*
X58032084Y-11997472D01*
X58051051Y-12007967D01*
X58069314Y-12019488D01*
X58086857Y-12032037D01*
X58103661Y-12045620D01*
X58119709Y-12060240D01*
X58134985Y-12075903D01*
X58149469Y-12092612D01*
X58163146Y-12110372D01*
X58175997Y-12129187D01*
X58188005Y-12149061D01*
X58199152Y-12170000D01*
X58209422Y-12192006D01*
X58218796Y-12215086D01*
X58227258Y-12239242D01*
X58234789Y-12264479D01*
X58241373Y-12290803D01*
X58246992Y-12318216D01*
X58251628Y-12346724D01*
X58255265Y-12376330D01*
X58257884Y-12407040D01*
X58259468Y-12438857D01*
X58260000Y-12471786D01*
X58260000Y-13471911D01*
X57839312Y-13471911D01*
X57839312Y-12535286D01*
X57838473Y-12503656D01*
X57835948Y-12474235D01*
X57831726Y-12447000D01*
X57828974Y-12434196D01*
X57825794Y-12421928D01*
X57822183Y-12410196D01*
X57818141Y-12398996D01*
X57813666Y-12388324D01*
X57808756Y-12378179D01*
X57803410Y-12368557D01*
X57797627Y-12359455D01*
X57791405Y-12350871D01*
X57784742Y-12342801D01*
X57777638Y-12335243D01*
X57770090Y-12328194D01*
X57762097Y-12321650D01*
X57753659Y-12315609D01*
X57744772Y-12310068D01*
X57735437Y-12305025D01*
X57725651Y-12300475D01*
X57715413Y-12296417D01*
X57704721Y-12292847D01*
X57693575Y-12289762D01*
X57681972Y-12287160D01*
X57669912Y-12285037D01*
X57657392Y-12283392D01*
X57644411Y-12282220D01*
X57617062Y-12281286D01*
X57590575Y-12282313D01*
X57577585Y-12283601D01*
X57564786Y-12285410D01*
X57552197Y-12287741D01*
X57539834Y-12290599D01*
X57527716Y-12293986D01*
X57515859Y-12297905D01*
X57504281Y-12302359D01*
X57493000Y-12307350D01*
X57482032Y-12312882D01*
X57471396Y-12318958D01*
X57461109Y-12325580D01*
X57451188Y-12332752D01*
X57441651Y-12340475D01*
X57432515Y-12348755D01*
X57423797Y-12357592D01*
X57415516Y-12366990D01*
X57407688Y-12376952D01*
X57400331Y-12387481D01*
X57393462Y-12398579D01*
X57387099Y-12410251D01*
X57381259Y-12422498D01*
X57375960Y-12435323D01*
X57371219Y-12448729D01*
X57367054Y-12462720D01*
X57363481Y-12477298D01*
X57360519Y-12492467D01*
X57358185Y-12508228D01*
X57356496Y-12524585D01*
X57355470Y-12541541D01*
X57355124Y-12559098D01*
X57355124Y-13471911D01*
X56934437Y-13471911D01*
X56934437Y-11979661D01*
X57355125Y-11979661D01*
X57355125Y-12201911D01*
X57369450Y-12175513D01*
X57377310Y-12162630D01*
X57385635Y-12149976D01*
X57394425Y-12137566D01*
X57403681Y-12125415D01*
X57413401Y-12113538D01*
X57423587Y-12101948D01*
X57434237Y-12090660D01*
X57445353Y-12079690D01*
X57456933Y-12069050D01*
X57468979Y-12058757D01*
X57481490Y-12048824D01*
X57494466Y-12039266D01*
X57507907Y-12030097D01*
X57521813Y-12021333D01*
X57536184Y-12012987D01*
X57551021Y-12005074D01*
X57566322Y-11997609D01*
X57582089Y-11990606D01*
X57598320Y-11984080D01*
X57615017Y-11978045D01*
X57632179Y-11972515D01*
X57649805Y-11967506D01*
X57667897Y-11963032D01*
X57686454Y-11959108D01*
X57705476Y-11955747D01*
X57724963Y-11952965D01*
X57744916Y-11950775D01*
X57765333Y-11949194D01*
X57786215Y-11948234D01*
X57807563Y-11947911D01*
X57832605Y-11948400D01*
G37*
G36*
X56066958Y-11942413D02*
G01*
X56134254Y-11949818D01*
X56167096Y-11955422D01*
X56199341Y-11962315D01*
X56230943Y-11970513D01*
X56261858Y-11980033D01*
X56292041Y-11990890D01*
X56321446Y-12003099D01*
X56350028Y-12016678D01*
X56377743Y-12031642D01*
X56404545Y-12048007D01*
X56430389Y-12065789D01*
X56455230Y-12085004D01*
X56479023Y-12105669D01*
X56501724Y-12127798D01*
X56523286Y-12151408D01*
X56543665Y-12176515D01*
X56562817Y-12203135D01*
X56580695Y-12231285D01*
X56597254Y-12260979D01*
X56612451Y-12292234D01*
X56626239Y-12325066D01*
X56638574Y-12359491D01*
X56649410Y-12395525D01*
X56658703Y-12433184D01*
X56666407Y-12472483D01*
X56672478Y-12513440D01*
X56676870Y-12556069D01*
X56679538Y-12600387D01*
X56680437Y-12646411D01*
X56680437Y-12828973D01*
X55704125Y-12828973D01*
X55708299Y-12877637D01*
X55714822Y-12922487D01*
X55723624Y-12963616D01*
X55728858Y-12982814D01*
X55734635Y-13001118D01*
X55740947Y-13018537D01*
X55747785Y-13035084D01*
X55755141Y-13050772D01*
X55763005Y-13065610D01*
X55771370Y-13079611D01*
X55780225Y-13092786D01*
X55789563Y-13105148D01*
X55799375Y-13116707D01*
X55809652Y-13127476D01*
X55820385Y-13137466D01*
X55831566Y-13146688D01*
X55843186Y-13155155D01*
X55855237Y-13162877D01*
X55867708Y-13169867D01*
X55880593Y-13176136D01*
X55893881Y-13181696D01*
X55907565Y-13186558D01*
X55921635Y-13190734D01*
X55950901Y-13197075D01*
X55981608Y-13200811D01*
X56013688Y-13202036D01*
X56028362Y-13201782D01*
X56042620Y-13201030D01*
X56056466Y-13199792D01*
X56069901Y-13198082D01*
X56082930Y-13195913D01*
X56095555Y-13193298D01*
X56107779Y-13190249D01*
X56119604Y-13186781D01*
X56131034Y-13182905D01*
X56142071Y-13178636D01*
X56152720Y-13173986D01*
X56162981Y-13168968D01*
X56182356Y-13157881D01*
X56200219Y-13145481D01*
X56216594Y-13131871D01*
X56231504Y-13117157D01*
X56244972Y-13101443D01*
X56257022Y-13084833D01*
X56267676Y-13067433D01*
X56276959Y-13049347D01*
X56284892Y-13030680D01*
X56291501Y-13011535D01*
X56680438Y-13011535D01*
X56675417Y-13037390D01*
X56669286Y-13062844D01*
X56662053Y-13087872D01*
X56653727Y-13112444D01*
X56644313Y-13136534D01*
X56633819Y-13160114D01*
X56622252Y-13183156D01*
X56609620Y-13205632D01*
X56595931Y-13227516D01*
X56581190Y-13248779D01*
X56565406Y-13269394D01*
X56548585Y-13289333D01*
X56530736Y-13308568D01*
X56511865Y-13327073D01*
X56491979Y-13344818D01*
X56471086Y-13361778D01*
X56449193Y-13377924D01*
X56426308Y-13393228D01*
X56402437Y-13407663D01*
X56377588Y-13421201D01*
X56351768Y-13433815D01*
X56324984Y-13445476D01*
X56297245Y-13456159D01*
X56268556Y-13465834D01*
X56238925Y-13474474D01*
X56208360Y-13482052D01*
X56176867Y-13488539D01*
X56144455Y-13493910D01*
X56111130Y-13498134D01*
X56076899Y-13501186D01*
X56041770Y-13503038D01*
X56005750Y-13503661D01*
X55965967Y-13502917D01*
X55927003Y-13500686D01*
X55888888Y-13496970D01*
X55851651Y-13491770D01*
X55815321Y-13485088D01*
X55779927Y-13476924D01*
X55745498Y-13467281D01*
X55712063Y-13456160D01*
X55679651Y-13443562D01*
X55648291Y-13429489D01*
X55618013Y-13413942D01*
X55588845Y-13396923D01*
X55560817Y-13378433D01*
X55533957Y-13358474D01*
X55508295Y-13337047D01*
X55483859Y-13314153D01*
X55460680Y-13289794D01*
X55438785Y-13263972D01*
X55418204Y-13236688D01*
X55398965Y-13207942D01*
X55381099Y-13177738D01*
X55364634Y-13146076D01*
X55349599Y-13112958D01*
X55336024Y-13078384D01*
X55323936Y-13042358D01*
X55313366Y-13004879D01*
X55304342Y-12965950D01*
X55296894Y-12925572D01*
X55291051Y-12883746D01*
X55286841Y-12840475D01*
X55284293Y-12795758D01*
X55283438Y-12749598D01*
X55283438Y-12717848D01*
X55284338Y-12671620D01*
X55287013Y-12626705D01*
X55291423Y-12583112D01*
X55296040Y-12551161D01*
X55712063Y-12551161D01*
X56267688Y-12551161D01*
X56265091Y-12510969D01*
X56260308Y-12473708D01*
X56257112Y-12456162D01*
X56253386Y-12439330D01*
X56249137Y-12423208D01*
X56244371Y-12407790D01*
X56239093Y-12393069D01*
X56233310Y-12379040D01*
X56227026Y-12365696D01*
X56220249Y-12353033D01*
X56212983Y-12341045D01*
X56205234Y-12329725D01*
X56197009Y-12319068D01*
X56188313Y-12309067D01*
X56179151Y-12299718D01*
X56169531Y-12291014D01*
X56159457Y-12282950D01*
X56148935Y-12275519D01*
X56137972Y-12268716D01*
X56126572Y-12262535D01*
X56114743Y-12256971D01*
X56102489Y-12252016D01*
X56089816Y-12247667D01*
X56076731Y-12243916D01*
X56063238Y-12240758D01*
X56049345Y-12238188D01*
X56020377Y-12234785D01*
X55989876Y-12233661D01*
X55966175Y-12235919D01*
X55942778Y-12239816D01*
X55919798Y-12245503D01*
X55908502Y-12249066D01*
X55897354Y-12253133D01*
X55886369Y-12257723D01*
X55875561Y-12262855D01*
X55864944Y-12268548D01*
X55854535Y-12274821D01*
X55844346Y-12281693D01*
X55834393Y-12289183D01*
X55824689Y-12297309D01*
X55815250Y-12306091D01*
X55806090Y-12315547D01*
X55797224Y-12325696D01*
X55788666Y-12336557D01*
X55780431Y-12348150D01*
X55772532Y-12360492D01*
X55764986Y-12373604D01*
X55757806Y-12387503D01*
X55751006Y-12402209D01*
X55744602Y-12417740D01*
X55738608Y-12434116D01*
X55733038Y-12451355D01*
X55727907Y-12469476D01*
X55723229Y-12488498D01*
X55719020Y-12508441D01*
X55715293Y-12529322D01*
X55712063Y-12551161D01*
X55296040Y-12551161D01*
X55297530Y-12540851D01*
X55305293Y-12499934D01*
X55314674Y-12460370D01*
X55325634Y-12422169D01*
X55338132Y-12385341D01*
X55352130Y-12349898D01*
X55367590Y-12315848D01*
X55384470Y-12283202D01*
X55402733Y-12251970D01*
X55422338Y-12222162D01*
X55443248Y-12193789D01*
X55465421Y-12166861D01*
X55488820Y-12141387D01*
X55513405Y-12117379D01*
X55539137Y-12094846D01*
X55565976Y-12073798D01*
X55593884Y-12054245D01*
X55622820Y-12036199D01*
X55652746Y-12019668D01*
X55683623Y-12004663D01*
X55715411Y-11991195D01*
X55748071Y-11979273D01*
X55781564Y-11968908D01*
X55815851Y-11960109D01*
X55850891Y-11952887D01*
X55886647Y-11947253D01*
X55923079Y-11943215D01*
X55960147Y-11940786D01*
X55997813Y-11939973D01*
X56066958Y-11942413D01*
G37*
G36*
X62980519Y-11942413D02*
G01*
X63047816Y-11949818D01*
X63080658Y-11955422D01*
X63112903Y-11962315D01*
X63144505Y-11970513D01*
X63175420Y-11980033D01*
X63205603Y-11990890D01*
X63235008Y-12003099D01*
X63263590Y-12016678D01*
X63291305Y-12031642D01*
X63318107Y-12048007D01*
X63343951Y-12065789D01*
X63368792Y-12085004D01*
X63392585Y-12105669D01*
X63415286Y-12127798D01*
X63436848Y-12151408D01*
X63457228Y-12176515D01*
X63476379Y-12203135D01*
X63494257Y-12231285D01*
X63510817Y-12260979D01*
X63526013Y-12292234D01*
X63539801Y-12325066D01*
X63552136Y-12359491D01*
X63562972Y-12395525D01*
X63572265Y-12433184D01*
X63579969Y-12472483D01*
X63586040Y-12513440D01*
X63590432Y-12556069D01*
X63593100Y-12600387D01*
X63594000Y-12646411D01*
X63594000Y-12828973D01*
X62625626Y-12828973D01*
X62629800Y-12877637D01*
X62636322Y-12922487D01*
X62645124Y-12963616D01*
X62650358Y-12982814D01*
X62656135Y-13001118D01*
X62662447Y-13018537D01*
X62669285Y-13035084D01*
X62676641Y-13050772D01*
X62684505Y-13065610D01*
X62692870Y-13079611D01*
X62701725Y-13092786D01*
X62711063Y-13105148D01*
X62720875Y-13116707D01*
X62731152Y-13127476D01*
X62741885Y-13137466D01*
X62753066Y-13146688D01*
X62764686Y-13155155D01*
X62776737Y-13162877D01*
X62789208Y-13169867D01*
X62802093Y-13176136D01*
X62815381Y-13181696D01*
X62829065Y-13186558D01*
X62843135Y-13190734D01*
X62872401Y-13197075D01*
X62903108Y-13200811D01*
X62935187Y-13202036D01*
X62949861Y-13201782D01*
X62964120Y-13201030D01*
X62977965Y-13199792D01*
X62991401Y-13198082D01*
X63004430Y-13195913D01*
X63017054Y-13193298D01*
X63029278Y-13190249D01*
X63041103Y-13186781D01*
X63052533Y-13182905D01*
X63063571Y-13178636D01*
X63074219Y-13173986D01*
X63084481Y-13168968D01*
X63103855Y-13157881D01*
X63121719Y-13145481D01*
X63138094Y-13131871D01*
X63153004Y-13117157D01*
X63166472Y-13101443D01*
X63178521Y-13084833D01*
X63189176Y-13067433D01*
X63198458Y-13049347D01*
X63206391Y-13030680D01*
X63212999Y-13011535D01*
X63601937Y-13011535D01*
X63595496Y-13037390D01*
X63588080Y-13062844D01*
X63579689Y-13087872D01*
X63570327Y-13112444D01*
X63559993Y-13136534D01*
X63548691Y-13160114D01*
X63536420Y-13183156D01*
X63523182Y-13205632D01*
X63508980Y-13227516D01*
X63493814Y-13248779D01*
X63477686Y-13269394D01*
X63460597Y-13289333D01*
X63442549Y-13308568D01*
X63423543Y-13327073D01*
X63403581Y-13344818D01*
X63382664Y-13361778D01*
X63360793Y-13377924D01*
X63337971Y-13393228D01*
X63314198Y-13407663D01*
X63289476Y-13421201D01*
X63263806Y-13433815D01*
X63237190Y-13445476D01*
X63209630Y-13456159D01*
X63181126Y-13465834D01*
X63151681Y-13474474D01*
X63121295Y-13482052D01*
X63089970Y-13488539D01*
X63057708Y-13493910D01*
X63024509Y-13498134D01*
X62990376Y-13501186D01*
X62955311Y-13503038D01*
X62919313Y-13503661D01*
X62879530Y-13502917D01*
X62840566Y-13500686D01*
X62802451Y-13496970D01*
X62765214Y-13491770D01*
X62728884Y-13485088D01*
X62693490Y-13476924D01*
X62659061Y-13467281D01*
X62625626Y-13456160D01*
X62593214Y-13443562D01*
X62561854Y-13429489D01*
X62531576Y-13413942D01*
X62502408Y-13396923D01*
X62474380Y-13378433D01*
X62447520Y-13358474D01*
X62421858Y-13337047D01*
X62397422Y-13314153D01*
X62374242Y-13289794D01*
X62352347Y-13263972D01*
X62331766Y-13236688D01*
X62312528Y-13207942D01*
X62294662Y-13177738D01*
X62278197Y-13146076D01*
X62263162Y-13112958D01*
X62249586Y-13078384D01*
X62237498Y-13042358D01*
X62226928Y-13004879D01*
X62217905Y-12965950D01*
X62210456Y-12925572D01*
X62204613Y-12883746D01*
X62200403Y-12840475D01*
X62197855Y-12795758D01*
X62197000Y-12749598D01*
X62197000Y-12717848D01*
X62197900Y-12671620D01*
X62200575Y-12626705D01*
X62204986Y-12583112D01*
X62209602Y-12551161D01*
X62617687Y-12551161D01*
X63181250Y-12551161D01*
X63178653Y-12510969D01*
X63173871Y-12473708D01*
X63170674Y-12456162D01*
X63166949Y-12439330D01*
X63162700Y-12423208D01*
X63157934Y-12407790D01*
X63152656Y-12393069D01*
X63146872Y-12379040D01*
X63140589Y-12365696D01*
X63133811Y-12353033D01*
X63126545Y-12341045D01*
X63118797Y-12329725D01*
X63110571Y-12319068D01*
X63101875Y-12309067D01*
X63092714Y-12299718D01*
X63083094Y-12291014D01*
X63073020Y-12282950D01*
X63062498Y-12275519D01*
X63051534Y-12268716D01*
X63040135Y-12262535D01*
X63028305Y-12256971D01*
X63016051Y-12252016D01*
X63003379Y-12247667D01*
X62990293Y-12243916D01*
X62976801Y-12240758D01*
X62962907Y-12238188D01*
X62933940Y-12234785D01*
X62903438Y-12233661D01*
X62879736Y-12235919D01*
X62856324Y-12239816D01*
X62833308Y-12245503D01*
X62821981Y-12249066D01*
X62810792Y-12253133D01*
X62799754Y-12257723D01*
X62788880Y-12262855D01*
X62778184Y-12268548D01*
X62767678Y-12274821D01*
X62757376Y-12281693D01*
X62747290Y-12289183D01*
X62737434Y-12297309D01*
X62727820Y-12306091D01*
X62718462Y-12315547D01*
X62709374Y-12325696D01*
X62700567Y-12336557D01*
X62692055Y-12348150D01*
X62683851Y-12360492D01*
X62675969Y-12373604D01*
X62668420Y-12387503D01*
X62661219Y-12402209D01*
X62654379Y-12417740D01*
X62647912Y-12434116D01*
X62641832Y-12451355D01*
X62636151Y-12469476D01*
X62630883Y-12488498D01*
X62626041Y-12508441D01*
X62621638Y-12529322D01*
X62617687Y-12551161D01*
X62209602Y-12551161D01*
X62211092Y-12540851D01*
X62218855Y-12499934D01*
X62228236Y-12460370D01*
X62239196Y-12422169D01*
X62251694Y-12385341D01*
X62265692Y-12349898D01*
X62281151Y-12315848D01*
X62298032Y-12283202D01*
X62316295Y-12251970D01*
X62335900Y-12222162D01*
X62356809Y-12193789D01*
X62378983Y-12166861D01*
X62402382Y-12141387D01*
X62426967Y-12117379D01*
X62452699Y-12094846D01*
X62479538Y-12073798D01*
X62507445Y-12054245D01*
X62536382Y-12036199D01*
X62566308Y-12019668D01*
X62597185Y-12004663D01*
X62628973Y-11991195D01*
X62661633Y-11979273D01*
X62695126Y-11968908D01*
X62729412Y-11960109D01*
X62764453Y-11952887D01*
X62800209Y-11947253D01*
X62836640Y-11943215D01*
X62873709Y-11940786D01*
X62911374Y-11939973D01*
X62980519Y-11942413D01*
G37*
G36*
X52949520Y-11942030D02*
G01*
X53010972Y-11948237D01*
X53070400Y-11958653D01*
X53127538Y-11973336D01*
X53155165Y-11982296D01*
X53182118Y-11992344D01*
X53208366Y-12003489D01*
X53233873Y-12015736D01*
X53258607Y-12029094D01*
X53282535Y-12043570D01*
X53305622Y-12059171D01*
X53327836Y-12075903D01*
X53349143Y-12093776D01*
X53369510Y-12112795D01*
X53388903Y-12132967D01*
X53407289Y-12154302D01*
X53424634Y-12176804D01*
X53440905Y-12200483D01*
X53456068Y-12225345D01*
X53470091Y-12251397D01*
X53482939Y-12278646D01*
X53494580Y-12307101D01*
X53504979Y-12336767D01*
X53514104Y-12367653D01*
X53521921Y-12399766D01*
X53528396Y-12433112D01*
X53533496Y-12467700D01*
X53537188Y-12503536D01*
X53140313Y-12503536D01*
X53135195Y-12477317D01*
X53128763Y-12452283D01*
X53121006Y-12428506D01*
X53111911Y-12406054D01*
X53101468Y-12384997D01*
X53095737Y-12375013D01*
X53089665Y-12365405D01*
X53083249Y-12356180D01*
X53076489Y-12347348D01*
X53069383Y-12338917D01*
X53061930Y-12330896D01*
X53054128Y-12323293D01*
X53045976Y-12316117D01*
X53037471Y-12309378D01*
X53028614Y-12303083D01*
X53019402Y-12297242D01*
X53009834Y-12291863D01*
X52999909Y-12286955D01*
X52989624Y-12282526D01*
X52978979Y-12278586D01*
X52967973Y-12275143D01*
X52956602Y-12272206D01*
X52944867Y-12269783D01*
X52932766Y-12267883D01*
X52920297Y-12266516D01*
X52907459Y-12265689D01*
X52894250Y-12265411D01*
X52878021Y-12265830D01*
X52862086Y-12267087D01*
X52846458Y-12269185D01*
X52831153Y-12272124D01*
X52816186Y-12275906D01*
X52801570Y-12280532D01*
X52787320Y-12286005D01*
X52773451Y-12292324D01*
X52759978Y-12299493D01*
X52746914Y-12307511D01*
X52734275Y-12316382D01*
X52722075Y-12326105D01*
X52710328Y-12336683D01*
X52699049Y-12348117D01*
X52688253Y-12360409D01*
X52677953Y-12373560D01*
X52668166Y-12387571D01*
X52658904Y-12402443D01*
X52650183Y-12418180D01*
X52642018Y-12434781D01*
X52634422Y-12452248D01*
X52627410Y-12470583D01*
X52620997Y-12489787D01*
X52615198Y-12509861D01*
X52610026Y-12530808D01*
X52605497Y-12552628D01*
X52601624Y-12575323D01*
X52598423Y-12598895D01*
X52595909Y-12623344D01*
X52594094Y-12648673D01*
X52592995Y-12674882D01*
X52592625Y-12701974D01*
X52592625Y-12749598D01*
X52593920Y-12804208D01*
X52597772Y-12854956D01*
X52604136Y-12901891D01*
X52612965Y-12945059D01*
X52624213Y-12984506D01*
X52630729Y-13002849D01*
X52637832Y-13020279D01*
X52645516Y-13036803D01*
X52653777Y-13052425D01*
X52662607Y-13067152D01*
X52672000Y-13080989D01*
X52681952Y-13093943D01*
X52692456Y-13106018D01*
X52703507Y-13117222D01*
X52715098Y-13127560D01*
X52727225Y-13137037D01*
X52739880Y-13145659D01*
X52753058Y-13153433D01*
X52766754Y-13160364D01*
X52780962Y-13166458D01*
X52795675Y-13171720D01*
X52810888Y-13176157D01*
X52826595Y-13179774D01*
X52859469Y-13184572D01*
X52894250Y-13186161D01*
X52907527Y-13185860D01*
X52920565Y-13184961D01*
X52933355Y-13183473D01*
X52945891Y-13181401D01*
X52958165Y-13178755D01*
X52970170Y-13175539D01*
X52981899Y-13171763D01*
X52993345Y-13167433D01*
X53004500Y-13162557D01*
X53015357Y-13157141D01*
X53025909Y-13151194D01*
X53036149Y-13144722D01*
X53046068Y-13137732D01*
X53055661Y-13130232D01*
X53064919Y-13122229D01*
X53073836Y-13113731D01*
X53082404Y-13104745D01*
X53090616Y-13095277D01*
X53098465Y-13085335D01*
X53105943Y-13074927D01*
X53113043Y-13064060D01*
X53119758Y-13052741D01*
X53126080Y-13040977D01*
X53132003Y-13028775D01*
X53137519Y-13016143D01*
X53142621Y-13003089D01*
X53147301Y-12989618D01*
X53151552Y-12975740D01*
X53155368Y-12961460D01*
X53158740Y-12946786D01*
X53161661Y-12931725D01*
X53164125Y-12916286D01*
X53545125Y-12916286D01*
X53542289Y-12948698D01*
X53538250Y-12980437D01*
X53533013Y-13011478D01*
X53526584Y-13041797D01*
X53518969Y-13071373D01*
X53510174Y-13100182D01*
X53500205Y-13128199D01*
X53489067Y-13155403D01*
X53476766Y-13181770D01*
X53463309Y-13207276D01*
X53448700Y-13231898D01*
X53432946Y-13255614D01*
X53416053Y-13278399D01*
X53398026Y-13300231D01*
X53378871Y-13321087D01*
X53358594Y-13340942D01*
X53337201Y-13359774D01*
X53314698Y-13377560D01*
X53291090Y-13394276D01*
X53266383Y-13409899D01*
X53240583Y-13424406D01*
X53213696Y-13437773D01*
X53185728Y-13449978D01*
X53156684Y-13460997D01*
X53126571Y-13470806D01*
X53095393Y-13479383D01*
X53063158Y-13486705D01*
X53029870Y-13492747D01*
X52995536Y-13497487D01*
X52960161Y-13500901D01*
X52923752Y-13502967D01*
X52886313Y-13503661D01*
X52847949Y-13502917D01*
X52810271Y-13500684D01*
X52773314Y-13496964D01*
X52737113Y-13491755D01*
X52701702Y-13485057D01*
X52667117Y-13476872D01*
X52633392Y-13467198D01*
X52600563Y-13456036D01*
X52568664Y-13443385D01*
X52537730Y-13429247D01*
X52507795Y-13413620D01*
X52478896Y-13396505D01*
X52451066Y-13377901D01*
X52424341Y-13357809D01*
X52398756Y-13336229D01*
X52374344Y-13313161D01*
X52351142Y-13288604D01*
X52329184Y-13262559D01*
X52308505Y-13235026D01*
X52289140Y-13206005D01*
X52271124Y-13175495D01*
X52254491Y-13143497D01*
X52239277Y-13110010D01*
X52225516Y-13075036D01*
X52213244Y-13038573D01*
X52202494Y-13000622D01*
X52193303Y-12961182D01*
X52185705Y-12920255D01*
X52179734Y-12877839D01*
X52175426Y-12833934D01*
X52172816Y-12788542D01*
X52171938Y-12741661D01*
X52171938Y-12717849D01*
X52172861Y-12670922D01*
X52175601Y-12625397D01*
X52180113Y-12581278D01*
X52186356Y-12538573D01*
X52194284Y-12497285D01*
X52203855Y-12457423D01*
X52215024Y-12418990D01*
X52227748Y-12381993D01*
X52241985Y-12346438D01*
X52257688Y-12312331D01*
X52274817Y-12279677D01*
X52293326Y-12248482D01*
X52313172Y-12218752D01*
X52334312Y-12190493D01*
X52356701Y-12163711D01*
X52380297Y-12138411D01*
X52405056Y-12114600D01*
X52430934Y-12092282D01*
X52457887Y-12071465D01*
X52485872Y-12052153D01*
X52514846Y-12034353D01*
X52544764Y-12018070D01*
X52575583Y-12003310D01*
X52607260Y-11990079D01*
X52639751Y-11978383D01*
X52673012Y-11968228D01*
X52707000Y-11959619D01*
X52741671Y-11952562D01*
X52776981Y-11947063D01*
X52812887Y-11943128D01*
X52849346Y-11940763D01*
X52886313Y-11939974D01*
X52949520Y-11942030D01*
G37*
G36*
X54505270Y-11942030D02*
G01*
X54566722Y-11948237D01*
X54626150Y-11958653D01*
X54683288Y-11973336D01*
X54710915Y-11982296D01*
X54737868Y-11992344D01*
X54764116Y-12003489D01*
X54789623Y-12015736D01*
X54814357Y-12029094D01*
X54838285Y-12043570D01*
X54861372Y-12059171D01*
X54883586Y-12075903D01*
X54904893Y-12093776D01*
X54925260Y-12112795D01*
X54944653Y-12132967D01*
X54963039Y-12154302D01*
X54980384Y-12176804D01*
X54996655Y-12200483D01*
X55011818Y-12225345D01*
X55025841Y-12251397D01*
X55038689Y-12278646D01*
X55050330Y-12307101D01*
X55060729Y-12336767D01*
X55069854Y-12367653D01*
X55077671Y-12399766D01*
X55084146Y-12433112D01*
X55089246Y-12467700D01*
X55092938Y-12503536D01*
X54696063Y-12503536D01*
X54690945Y-12477317D01*
X54684513Y-12452283D01*
X54676756Y-12428506D01*
X54667662Y-12406054D01*
X54657218Y-12384997D01*
X54651487Y-12375013D01*
X54645415Y-12365405D01*
X54638999Y-12356180D01*
X54632239Y-12347348D01*
X54625133Y-12338917D01*
X54617680Y-12330896D01*
X54609878Y-12323293D01*
X54601726Y-12316117D01*
X54593222Y-12309378D01*
X54584364Y-12303083D01*
X54575153Y-12297242D01*
X54565585Y-12291863D01*
X54555659Y-12286955D01*
X54545375Y-12282526D01*
X54534730Y-12278586D01*
X54523723Y-12275143D01*
X54512353Y-12272206D01*
X54500618Y-12269783D01*
X54488516Y-12267883D01*
X54476047Y-12266516D01*
X54463209Y-12265689D01*
X54450001Y-12265411D01*
X54433771Y-12265830D01*
X54417836Y-12267087D01*
X54402208Y-12269185D01*
X54386904Y-12272124D01*
X54371936Y-12275906D01*
X54357320Y-12280532D01*
X54343071Y-12286005D01*
X54329202Y-12292324D01*
X54315728Y-12299493D01*
X54302665Y-12307511D01*
X54290025Y-12316382D01*
X54277825Y-12326105D01*
X54266078Y-12336683D01*
X54254799Y-12348117D01*
X54244003Y-12360409D01*
X54233704Y-12373560D01*
X54223916Y-12387571D01*
X54214654Y-12402443D01*
X54205934Y-12418180D01*
X54197768Y-12434781D01*
X54190172Y-12452248D01*
X54183160Y-12470583D01*
X54176747Y-12489787D01*
X54170948Y-12509861D01*
X54165776Y-12530808D01*
X54161247Y-12552628D01*
X54157374Y-12575323D01*
X54154174Y-12598895D01*
X54151659Y-12623344D01*
X54149844Y-12648673D01*
X54148745Y-12674882D01*
X54148376Y-12701974D01*
X54148376Y-12749598D01*
X54149670Y-12804208D01*
X54153522Y-12854956D01*
X54159886Y-12901891D01*
X54168715Y-12945059D01*
X54179963Y-12984506D01*
X54186479Y-13002849D01*
X54193582Y-13020279D01*
X54201267Y-13036803D01*
X54209527Y-13052425D01*
X54218357Y-13067152D01*
X54227751Y-13080989D01*
X54237703Y-13093943D01*
X54248207Y-13106018D01*
X54259257Y-13117222D01*
X54270849Y-13127560D01*
X54282975Y-13137037D01*
X54295630Y-13145659D01*
X54308809Y-13153433D01*
X54322505Y-13160364D01*
X54336712Y-13166458D01*
X54351425Y-13171720D01*
X54366638Y-13176157D01*
X54382346Y-13179774D01*
X54415220Y-13184572D01*
X54450001Y-13186161D01*
X54463278Y-13185860D01*
X54476315Y-13184961D01*
X54489105Y-13183473D01*
X54501641Y-13181401D01*
X54513915Y-13178755D01*
X54525920Y-13175539D01*
X54537649Y-13171763D01*
X54549095Y-13167433D01*
X54560250Y-13162557D01*
X54571107Y-13157141D01*
X54581659Y-13151194D01*
X54591899Y-13144722D01*
X54601818Y-13137732D01*
X54611411Y-13130232D01*
X54620670Y-13122229D01*
X54629586Y-13113731D01*
X54638154Y-13104745D01*
X54646366Y-13095277D01*
X54654215Y-13085335D01*
X54661693Y-13074927D01*
X54668793Y-13064060D01*
X54675508Y-13052741D01*
X54681831Y-13040977D01*
X54687753Y-13028775D01*
X54693269Y-13016143D01*
X54698371Y-13003089D01*
X54703051Y-12989618D01*
X54707303Y-12975740D01*
X54711118Y-12961460D01*
X54714490Y-12946786D01*
X54717412Y-12931725D01*
X54719876Y-12916286D01*
X55100876Y-12916286D01*
X55098039Y-12948698D01*
X55094000Y-12980437D01*
X55088763Y-13011478D01*
X55082334Y-13041797D01*
X55074719Y-13071373D01*
X55065924Y-13100182D01*
X55055955Y-13128199D01*
X55044817Y-13155403D01*
X55032516Y-13181770D01*
X55019059Y-13207276D01*
X55004450Y-13231898D01*
X54988696Y-13255614D01*
X54971803Y-13278399D01*
X54953776Y-13300231D01*
X54934621Y-13321087D01*
X54914344Y-13340942D01*
X54892951Y-13359774D01*
X54870447Y-13377560D01*
X54846839Y-13394276D01*
X54822132Y-13409899D01*
X54796333Y-13424406D01*
X54769446Y-13437773D01*
X54741478Y-13449978D01*
X54712434Y-13460997D01*
X54682320Y-13470806D01*
X54651143Y-13479383D01*
X54618907Y-13486705D01*
X54585620Y-13492747D01*
X54551286Y-13497487D01*
X54515911Y-13500901D01*
X54479501Y-13502967D01*
X54442063Y-13503661D01*
X54403699Y-13502917D01*
X54366021Y-13500684D01*
X54329064Y-13496964D01*
X54292863Y-13491755D01*
X54257452Y-13485057D01*
X54222867Y-13476872D01*
X54189142Y-13467198D01*
X54156313Y-13456036D01*
X54124414Y-13443385D01*
X54093479Y-13429247D01*
X54063545Y-13413620D01*
X54034646Y-13396505D01*
X54006816Y-13377901D01*
X53980091Y-13357809D01*
X53954505Y-13336229D01*
X53930094Y-13313161D01*
X53906892Y-13288604D01*
X53884934Y-13262559D01*
X53864255Y-13235026D01*
X53844890Y-13206005D01*
X53826874Y-13175495D01*
X53810241Y-13143497D01*
X53795027Y-13110010D01*
X53781266Y-13075036D01*
X53768993Y-13038573D01*
X53758244Y-13000622D01*
X53749053Y-12961182D01*
X53741454Y-12920255D01*
X53735484Y-12877839D01*
X53731176Y-12833934D01*
X53728566Y-12788542D01*
X53727688Y-12741661D01*
X53727688Y-12717849D01*
X53728611Y-12670922D01*
X53731350Y-12625397D01*
X53735863Y-12581278D01*
X53742106Y-12538573D01*
X53750034Y-12497285D01*
X53759604Y-12457423D01*
X53770774Y-12418990D01*
X53783498Y-12381993D01*
X53797734Y-12346438D01*
X53813438Y-12312331D01*
X53830567Y-12279677D01*
X53849076Y-12248482D01*
X53868922Y-12218752D01*
X53890062Y-12190493D01*
X53912451Y-12163711D01*
X53936047Y-12138411D01*
X53960806Y-12114600D01*
X53986684Y-12092282D01*
X54013637Y-12071465D01*
X54041622Y-12052153D01*
X54070596Y-12034353D01*
X54100514Y-12018070D01*
X54131333Y-12003310D01*
X54163010Y-11990079D01*
X54195501Y-11978383D01*
X54228762Y-11968228D01*
X54262750Y-11959619D01*
X54297420Y-11952562D01*
X54332731Y-11947063D01*
X54368637Y-11943128D01*
X54405095Y-11940763D01*
X54442063Y-11939974D01*
X54505270Y-11942030D01*
G37*
G36*
X51388441Y-11949695D02*
G01*
X51451780Y-11955120D01*
X51512399Y-11964288D01*
X51570052Y-11977304D01*
X51624497Y-11994274D01*
X51650439Y-12004274D01*
X51675488Y-12015302D01*
X51699612Y-12027370D01*
X51722781Y-12040492D01*
X51744965Y-12054681D01*
X51766133Y-12069950D01*
X51786255Y-12086311D01*
X51805299Y-12103779D01*
X51823237Y-12122366D01*
X51840036Y-12142085D01*
X51855666Y-12162949D01*
X51870098Y-12184972D01*
X51883300Y-12208166D01*
X51895242Y-12232544D01*
X51905893Y-12258121D01*
X51915223Y-12284908D01*
X51923201Y-12312918D01*
X51929798Y-12342166D01*
X51934981Y-12372663D01*
X51938722Y-12404424D01*
X51940988Y-12437460D01*
X51941750Y-12471786D01*
X51941750Y-13471911D01*
X51536938Y-13471911D01*
X51536938Y-13297286D01*
X51521402Y-13317916D01*
X51504552Y-13338058D01*
X51486377Y-13357596D01*
X51466865Y-13376413D01*
X51446004Y-13394392D01*
X51423782Y-13411418D01*
X51400189Y-13427375D01*
X51387874Y-13434915D01*
X51375211Y-13442145D01*
X51362200Y-13449049D01*
X51348839Y-13455613D01*
X51335126Y-13461823D01*
X51321060Y-13467663D01*
X51306639Y-13473120D01*
X51291862Y-13478178D01*
X51276727Y-13482823D01*
X51261234Y-13487042D01*
X51245380Y-13490818D01*
X51229164Y-13494138D01*
X51212585Y-13496987D01*
X51195641Y-13499351D01*
X51178331Y-13501215D01*
X51160653Y-13502564D01*
X51142606Y-13503384D01*
X51124188Y-13503661D01*
X51074187Y-13502072D01*
X51025558Y-13497274D01*
X50978557Y-13489220D01*
X50933440Y-13477864D01*
X50890462Y-13463159D01*
X50869855Y-13454537D01*
X50849879Y-13445060D01*
X50830566Y-13434722D01*
X50811947Y-13423518D01*
X50794056Y-13411443D01*
X50776922Y-13398489D01*
X50760580Y-13384652D01*
X50745060Y-13369925D01*
X50730395Y-13354303D01*
X50716616Y-13337779D01*
X50703756Y-13320349D01*
X50691846Y-13302006D01*
X50680919Y-13282745D01*
X50671006Y-13262559D01*
X50662140Y-13241443D01*
X50654352Y-13219391D01*
X50647675Y-13196398D01*
X50642140Y-13172456D01*
X50637779Y-13147561D01*
X50634625Y-13121707D01*
X50632709Y-13094888D01*
X50632063Y-13067098D01*
X50632063Y-13051223D01*
X50632281Y-13043286D01*
X50632718Y-13027411D01*
X51044813Y-13027411D01*
X51044813Y-13043286D01*
X51045000Y-13052866D01*
X51045561Y-13062252D01*
X51046500Y-13071438D01*
X51047821Y-13080416D01*
X51049524Y-13089178D01*
X51051615Y-13097719D01*
X51054095Y-13106030D01*
X51056967Y-13114104D01*
X51060235Y-13121933D01*
X51063901Y-13129512D01*
X51067968Y-13136831D01*
X51072439Y-13143885D01*
X51077317Y-13150665D01*
X51082605Y-13157165D01*
X51088306Y-13163377D01*
X51094422Y-13169294D01*
X51100957Y-13174909D01*
X51107914Y-13180214D01*
X51115295Y-13185202D01*
X51123103Y-13189866D01*
X51131341Y-13194199D01*
X51140013Y-13198193D01*
X51149120Y-13201842D01*
X51158667Y-13205137D01*
X51168655Y-13208072D01*
X51179088Y-13210638D01*
X51189968Y-13212830D01*
X51201300Y-13214640D01*
X51213084Y-13216060D01*
X51225325Y-13217084D01*
X51238026Y-13217703D01*
X51251188Y-13217911D01*
X51277764Y-13215586D01*
X51303805Y-13211586D01*
X51329148Y-13205912D01*
X51353631Y-13198563D01*
X51377091Y-13189541D01*
X51399365Y-13178844D01*
X51410006Y-13172867D01*
X51420290Y-13166472D01*
X51430196Y-13159659D01*
X51439704Y-13152427D01*
X51448793Y-13144776D01*
X51457443Y-13136707D01*
X51465634Y-13128219D01*
X51473345Y-13119312D01*
X51480556Y-13109987D01*
X51487247Y-13100244D01*
X51493397Y-13090082D01*
X51498987Y-13079501D01*
X51503995Y-13068501D01*
X51508401Y-13057084D01*
X51512185Y-13045247D01*
X51515327Y-13032992D01*
X51517806Y-13020318D01*
X51519602Y-13007226D01*
X51520694Y-12993715D01*
X51521063Y-12979786D01*
X51521063Y-12836911D01*
X51354376Y-12836911D01*
X51316889Y-12837568D01*
X51281822Y-12839562D01*
X51249173Y-12842928D01*
X51218942Y-12847701D01*
X51191130Y-12853916D01*
X51165736Y-12861607D01*
X51142761Y-12870810D01*
X51132180Y-12875989D01*
X51122204Y-12881560D01*
X51112832Y-12887525D01*
X51104065Y-12893890D01*
X51095903Y-12900659D01*
X51088345Y-12907837D01*
X51081392Y-12915427D01*
X51075044Y-12923435D01*
X51069300Y-12931864D01*
X51064161Y-12940719D01*
X51059626Y-12950004D01*
X51055696Y-12959723D01*
X51052371Y-12969882D01*
X51049650Y-12980484D01*
X51047534Y-12991533D01*
X51046022Y-13003035D01*
X51045115Y-13014993D01*
X51044813Y-13027411D01*
X50632718Y-13027411D01*
X50632986Y-13017687D01*
X50635724Y-12985526D01*
X50640232Y-12954719D01*
X50646465Y-12925246D01*
X50654379Y-12897088D01*
X50663927Y-12870223D01*
X50675066Y-12844631D01*
X50687750Y-12820292D01*
X50701933Y-12797185D01*
X50717571Y-12775290D01*
X50734619Y-12754588D01*
X50753032Y-12735057D01*
X50772765Y-12716676D01*
X50793772Y-12699427D01*
X50816009Y-12683288D01*
X50839430Y-12668239D01*
X50863991Y-12654260D01*
X50889646Y-12641330D01*
X50916351Y-12629429D01*
X50944059Y-12618536D01*
X50972727Y-12608632D01*
X51002310Y-12599696D01*
X51032761Y-12591708D01*
X51064037Y-12584647D01*
X51096091Y-12578493D01*
X51128880Y-12573225D01*
X51196478Y-12565268D01*
X51266472Y-12560614D01*
X51338500Y-12559098D01*
X51521063Y-12559098D01*
X51521063Y-12487661D01*
X51520311Y-12460133D01*
X51518024Y-12434129D01*
X51514156Y-12409683D01*
X51511615Y-12398055D01*
X51508661Y-12386830D01*
X51505288Y-12376011D01*
X51501490Y-12365604D01*
X51497263Y-12355613D01*
X51492600Y-12346042D01*
X51487494Y-12336895D01*
X51481941Y-12328176D01*
X51475935Y-12319891D01*
X51469469Y-12312044D01*
X51462538Y-12304638D01*
X51455137Y-12297678D01*
X51447258Y-12291169D01*
X51438897Y-12285115D01*
X51430048Y-12279520D01*
X51420705Y-12274389D01*
X51410861Y-12269726D01*
X51400512Y-12265535D01*
X51389651Y-12261821D01*
X51378273Y-12258588D01*
X51366372Y-12255840D01*
X51353941Y-12253582D01*
X51340976Y-12251818D01*
X51327470Y-12250553D01*
X51313418Y-12249791D01*
X51298813Y-12249536D01*
X51285627Y-12249767D01*
X51272859Y-12250454D01*
X51260506Y-12251589D01*
X51248568Y-12253163D01*
X51237042Y-12255168D01*
X51225928Y-12257593D01*
X51215223Y-12260432D01*
X51204927Y-12263674D01*
X51195038Y-12267312D01*
X51185554Y-12271337D01*
X51176475Y-12275739D01*
X51167798Y-12280511D01*
X51159522Y-12285643D01*
X51151646Y-12291126D01*
X51144168Y-12296953D01*
X51137086Y-12303114D01*
X51130400Y-12309600D01*
X51124108Y-12316404D01*
X51118209Y-12323515D01*
X51112700Y-12330926D01*
X51107581Y-12338628D01*
X51102850Y-12346611D01*
X51098506Y-12354868D01*
X51094546Y-12363389D01*
X51090971Y-12372166D01*
X51087777Y-12381191D01*
X51082532Y-12399945D01*
X51078797Y-12419584D01*
X51076563Y-12440036D01*
X50679688Y-12440036D01*
X50683335Y-12409293D01*
X50688304Y-12379570D01*
X50694569Y-12350865D01*
X50702105Y-12323175D01*
X50710885Y-12296496D01*
X50720883Y-12270825D01*
X50732073Y-12246160D01*
X50744428Y-12222499D01*
X50757923Y-12199837D01*
X50772531Y-12178172D01*
X50788226Y-12157501D01*
X50804983Y-12137822D01*
X50822774Y-12119130D01*
X50841573Y-12101425D01*
X50861356Y-12084701D01*
X50882094Y-12068958D01*
X50903763Y-12054191D01*
X50926336Y-12040397D01*
X50949786Y-12027575D01*
X50974089Y-12015720D01*
X50999216Y-12004831D01*
X51025144Y-11994904D01*
X51051844Y-11985936D01*
X51079291Y-11977924D01*
X51107460Y-11970866D01*
X51136323Y-11964758D01*
X51165854Y-11959598D01*
X51196029Y-11955383D01*
X51226819Y-11952110D01*
X51258199Y-11949775D01*
X51322625Y-11947911D01*
X51388441Y-11949695D01*
G37*
G04 #@! TD*
D11*
G04 #@! TO.C,J3*
X54200000Y-80490000D03*
D12*
X54200000Y-83030000D03*
X54200000Y-85570000D03*
X54200000Y-88110000D03*
X56740000Y-80490000D03*
X56740000Y-83030000D03*
X56740000Y-85570000D03*
X56740000Y-88110000D03*
G04 #@! TD*
D13*
G04 #@! TO.C,J4*
X33930000Y-44160000D03*
X47930000Y-64160000D03*
D14*
X39660000Y-46540000D03*
D13*
X39660000Y-49080000D03*
X39660000Y-51620000D03*
X39660000Y-54160000D03*
X39660000Y-56700000D03*
X39660000Y-59240000D03*
X39660000Y-61780000D03*
X42200000Y-46540000D03*
X42200000Y-49080000D03*
X42200000Y-51620000D03*
X42200000Y-54160000D03*
X42200000Y-56700000D03*
X42200000Y-59240000D03*
X42200000Y-61780000D03*
G04 #@! TD*
D15*
G04 #@! TO.C,J1*
X73030000Y-111000000D03*
X85030000Y-111000000D03*
D16*
X68870000Y-102000000D03*
D17*
X71410000Y-102000000D03*
X86650000Y-102000000D03*
X89190000Y-102000000D03*
D18*
X74740000Y-99460000D03*
X77280000Y-99460000D03*
X80780000Y-99460000D03*
X83320000Y-99460000D03*
G04 #@! TD*
D15*
G04 #@! TO.C,J2*
X28810000Y-111000000D03*
X40810000Y-111000000D03*
D16*
X24650000Y-102000000D03*
D17*
X27190000Y-102000000D03*
X42430000Y-102000000D03*
X44970000Y-102000000D03*
D18*
X30520000Y-99460000D03*
X33060000Y-99460000D03*
X36560000Y-99460000D03*
X39100000Y-99460000D03*
G04 #@! TD*
D19*
G04 #@! TO.C,SJ1*
X105750000Y-102930000D03*
X107274000Y-102930000D03*
G04 #@! TD*
D13*
G04 #@! TO.C,J5*
X66510000Y-44160000D03*
X80510000Y-64160000D03*
D14*
X72240000Y-46540000D03*
D13*
X72240000Y-49080000D03*
X72240000Y-51620000D03*
X72240000Y-54160000D03*
X72240000Y-56700000D03*
X72240000Y-59240000D03*
X72240000Y-61780000D03*
X74780000Y-46540000D03*
X74780000Y-49080000D03*
X74780000Y-51620000D03*
X74780000Y-54160000D03*
X74780000Y-56700000D03*
X74780000Y-59240000D03*
X74780000Y-61780000D03*
G04 #@! TD*
D20*
G04 #@! TO.C,J11*
X100350000Y-31250000D03*
X100350000Y-94750000D03*
D21*
X98930000Y-87930000D03*
D22*
X98930000Y-85160000D03*
X98930000Y-82390000D03*
X98930000Y-79620000D03*
X98930000Y-76850000D03*
X98930000Y-74080000D03*
X98930000Y-71310000D03*
X98930000Y-68540000D03*
X98930000Y-65770000D03*
X98930000Y-63000000D03*
X98930000Y-60230000D03*
X98930000Y-57460000D03*
X98930000Y-54690000D03*
X98930000Y-51920000D03*
X98930000Y-49150000D03*
X98930000Y-46380000D03*
X98930000Y-43610000D03*
X98930000Y-40840000D03*
X98930000Y-38070000D03*
X101770000Y-86545000D03*
X101770000Y-83775000D03*
X101770000Y-81005000D03*
X101770000Y-78235000D03*
X101770000Y-75465000D03*
X101770000Y-72695000D03*
X101770000Y-69925000D03*
X101770000Y-67155000D03*
X101770000Y-64385000D03*
X101770000Y-61615000D03*
X101770000Y-58845000D03*
X101770000Y-56075000D03*
X101770000Y-53305000D03*
X101770000Y-50535000D03*
X101770000Y-47765000D03*
X101770000Y-44995000D03*
X101770000Y-42225000D03*
X101770000Y-39455000D03*
G04 #@! TD*
D20*
G04 #@! TO.C,J12*
X13910000Y-94750000D03*
X13910000Y-31250000D03*
D21*
X15330000Y-38070000D03*
D22*
X15330000Y-40840000D03*
X15330000Y-43610000D03*
X15330000Y-46380000D03*
X15330000Y-49150000D03*
X15330000Y-51920000D03*
X15330000Y-54690000D03*
X15330000Y-57460000D03*
X15330000Y-60230000D03*
X15330000Y-63000000D03*
X15330000Y-65770000D03*
X15330000Y-68540000D03*
X15330000Y-71310000D03*
X15330000Y-74080000D03*
X15330000Y-76850000D03*
X15330000Y-79620000D03*
X15330000Y-82390000D03*
X15330000Y-85160000D03*
X15330000Y-87930000D03*
X12490000Y-39455000D03*
X12490000Y-42225000D03*
X12490000Y-44995000D03*
X12490000Y-47765000D03*
X12490000Y-50535000D03*
X12490000Y-53305000D03*
X12490000Y-56075000D03*
X12490000Y-58845000D03*
X12490000Y-61615000D03*
X12490000Y-64385000D03*
X12490000Y-67155000D03*
X12490000Y-69925000D03*
X12490000Y-72695000D03*
X12490000Y-75465000D03*
X12490000Y-78235000D03*
X12490000Y-81005000D03*
X12490000Y-83775000D03*
X12490000Y-86545000D03*
G04 #@! TD*
D23*
X111720000Y-117500000D02*
G75*
G02*
X107720000Y-121500000I-4000000J0D01*
G01*
X111720000Y-117500000D02*
X111720000Y-8500000D01*
X107720000Y-4500000D02*
G75*
G02*
X111720000Y-8500000I0J-4000000D01*
G01*
X2720000Y-8500000D02*
X2720000Y-117500000D01*
X107720000Y-4500000D02*
X6720000Y-4500000D01*
X2720000Y-8500000D02*
G75*
G02*
X6720000Y-4500000I4000000J0D01*
G01*
X6720000Y-121500000D02*
G75*
G02*
X2720000Y-117500000I0J4000000D01*
G01*
X6720000Y-121500000D02*
X107720000Y-121500000D01*
M02*
