%TF.GenerationSoftware,KiCad,Pcbnew,9.0.0*%
%TF.CreationDate,2025-03-27T11:20:22+01:00*%
%TF.ProjectId,Cabletester_CB_Diamler_1,4361626c-6574-4657-9374-65725f43425f,rev?*%
%TF.SameCoordinates,PX2255100PY29020c0*%
%TF.FileFunction,Drillmap*%
%TF.FilePolarity,Positive*%
%FSLAX45Y45*%
G04 Gerber Fmt 4.5, Leading zero omitted, Abs format (unit mm)*
G04 Created by KiCad (PCBNEW 9.0.0) date 2025-03-27 11:20:22*
%MOMM*%
%LPD*%
G01*
G04 APERTURE LIST*
%ADD10C,0.050000*%
%ADD11C,0.200000*%
%ADD12C,0.260000*%
G04 APERTURE END LIST*
D10*
X11172000Y-11750000D02*
G75*
G02*
X10772000Y-12150000I-400000J0D01*
G01*
X11172000Y-11750000D02*
X11172000Y-850000D01*
X10772000Y-450000D02*
G75*
G02*
X11172000Y-850000I0J-400000D01*
G01*
X272000Y-850000D02*
X272000Y-11750000D01*
X10772000Y-450000D02*
X672000Y-450000D01*
X272000Y-850000D02*
G75*
G02*
X672000Y-450000I400000J0D01*
G01*
X672000Y-12150000D02*
G75*
G02*
X272000Y-11750000I0J400000D01*
G01*
X672000Y-12150000D02*
X10772000Y-12150000D01*
D11*
X3293000Y-4316000D02*
X3493000Y-4516000D01*
X3493000Y-4316000D02*
X3293000Y-4516000D01*
X4693000Y-6316000D02*
X4893000Y-6516000D01*
X4893000Y-6316000D02*
X4693000Y-6516000D01*
X6551000Y-4316000D02*
X6751000Y-4516000D01*
X6751000Y-4316000D02*
X6551000Y-4516000D01*
X7951000Y-6316000D02*
X8151000Y-6516000D01*
X8151000Y-6316000D02*
X7951000Y-6516000D01*
D12*
X3011000Y-11100000D02*
G75*
G02*
X2751000Y-11100000I-130000J0D01*
G01*
X2751000Y-11100000D02*
G75*
G02*
X3011000Y-11100000I130000J0D01*
G01*
X4211000Y-11100000D02*
G75*
G02*
X3951000Y-11100000I-130000J0D01*
G01*
X3951000Y-11100000D02*
G75*
G02*
X4211000Y-11100000I130000J0D01*
G01*
X7433000Y-11100000D02*
G75*
G02*
X7173000Y-11100000I-130000J0D01*
G01*
X7173000Y-11100000D02*
G75*
G02*
X7433000Y-11100000I130000J0D01*
G01*
X8633000Y-11100000D02*
G75*
G02*
X8373000Y-11100000I-130000J0D01*
G01*
X8373000Y-11100000D02*
G75*
G02*
X8633000Y-11100000I130000J0D01*
G01*
D11*
X530277Y-12463984D02*
X530277Y-12263984D01*
X530277Y-12263984D02*
X577896Y-12263984D01*
X577896Y-12263984D02*
X606467Y-12273508D01*
X606467Y-12273508D02*
X625515Y-12292555D01*
X625515Y-12292555D02*
X635039Y-12311603D01*
X635039Y-12311603D02*
X644563Y-12349698D01*
X644563Y-12349698D02*
X644563Y-12378269D01*
X644563Y-12378269D02*
X635039Y-12416365D01*
X635039Y-12416365D02*
X625515Y-12435412D01*
X625515Y-12435412D02*
X606467Y-12454460D01*
X606467Y-12454460D02*
X577896Y-12463984D01*
X577896Y-12463984D02*
X530277Y-12463984D01*
X730277Y-12463984D02*
X730277Y-12330650D01*
X730277Y-12368746D02*
X739801Y-12349698D01*
X739801Y-12349698D02*
X749324Y-12340174D01*
X749324Y-12340174D02*
X768372Y-12330650D01*
X768372Y-12330650D02*
X787420Y-12330650D01*
X854086Y-12463984D02*
X854086Y-12330650D01*
X854086Y-12263984D02*
X844562Y-12273508D01*
X844562Y-12273508D02*
X854086Y-12283031D01*
X854086Y-12283031D02*
X863610Y-12273508D01*
X863610Y-12273508D02*
X854086Y-12263984D01*
X854086Y-12263984D02*
X854086Y-12283031D01*
X977896Y-12463984D02*
X958848Y-12454460D01*
X958848Y-12454460D02*
X949324Y-12435412D01*
X949324Y-12435412D02*
X949324Y-12263984D01*
X1082658Y-12463984D02*
X1063610Y-12454460D01*
X1063610Y-12454460D02*
X1054086Y-12435412D01*
X1054086Y-12435412D02*
X1054086Y-12263984D01*
X1311229Y-12463984D02*
X1311229Y-12263984D01*
X1311229Y-12263984D02*
X1377896Y-12406841D01*
X1377896Y-12406841D02*
X1444562Y-12263984D01*
X1444562Y-12263984D02*
X1444562Y-12463984D01*
X1625515Y-12463984D02*
X1625515Y-12359222D01*
X1625515Y-12359222D02*
X1615991Y-12340174D01*
X1615991Y-12340174D02*
X1596943Y-12330650D01*
X1596943Y-12330650D02*
X1558848Y-12330650D01*
X1558848Y-12330650D02*
X1539801Y-12340174D01*
X1625515Y-12454460D02*
X1606467Y-12463984D01*
X1606467Y-12463984D02*
X1558848Y-12463984D01*
X1558848Y-12463984D02*
X1539801Y-12454460D01*
X1539801Y-12454460D02*
X1530277Y-12435412D01*
X1530277Y-12435412D02*
X1530277Y-12416365D01*
X1530277Y-12416365D02*
X1539801Y-12397317D01*
X1539801Y-12397317D02*
X1558848Y-12387793D01*
X1558848Y-12387793D02*
X1606467Y-12387793D01*
X1606467Y-12387793D02*
X1625515Y-12378269D01*
X1720753Y-12330650D02*
X1720753Y-12530650D01*
X1720753Y-12340174D02*
X1739801Y-12330650D01*
X1739801Y-12330650D02*
X1777896Y-12330650D01*
X1777896Y-12330650D02*
X1796943Y-12340174D01*
X1796943Y-12340174D02*
X1806467Y-12349698D01*
X1806467Y-12349698D02*
X1815991Y-12368746D01*
X1815991Y-12368746D02*
X1815991Y-12425888D01*
X1815991Y-12425888D02*
X1806467Y-12444936D01*
X1806467Y-12444936D02*
X1796943Y-12454460D01*
X1796943Y-12454460D02*
X1777896Y-12463984D01*
X1777896Y-12463984D02*
X1739801Y-12463984D01*
X1739801Y-12463984D02*
X1720753Y-12454460D01*
X1901705Y-12444936D02*
X1911229Y-12454460D01*
X1911229Y-12454460D02*
X1901705Y-12463984D01*
X1901705Y-12463984D02*
X1892182Y-12454460D01*
X1892182Y-12454460D02*
X1901705Y-12444936D01*
X1901705Y-12444936D02*
X1901705Y-12463984D01*
X1901705Y-12340174D02*
X1911229Y-12349698D01*
X1911229Y-12349698D02*
X1901705Y-12359222D01*
X1901705Y-12359222D02*
X1892182Y-12349698D01*
X1892182Y-12349698D02*
X1901705Y-12340174D01*
X1901705Y-12340174D02*
X1901705Y-12359222D01*
X69500Y-12692500D02*
X269500Y-12892500D01*
X269500Y-12692500D02*
X69500Y-12892500D01*
X520753Y-12703031D02*
X530277Y-12693508D01*
X530277Y-12693508D02*
X549324Y-12683984D01*
X549324Y-12683984D02*
X596944Y-12683984D01*
X596944Y-12683984D02*
X615991Y-12693508D01*
X615991Y-12693508D02*
X625515Y-12703031D01*
X625515Y-12703031D02*
X635039Y-12722079D01*
X635039Y-12722079D02*
X635039Y-12741127D01*
X635039Y-12741127D02*
X625515Y-12769698D01*
X625515Y-12769698D02*
X511229Y-12883984D01*
X511229Y-12883984D02*
X635039Y-12883984D01*
X720753Y-12864936D02*
X730277Y-12874460D01*
X730277Y-12874460D02*
X720753Y-12883984D01*
X720753Y-12883984D02*
X711229Y-12874460D01*
X711229Y-12874460D02*
X720753Y-12864936D01*
X720753Y-12864936D02*
X720753Y-12883984D01*
X854086Y-12683984D02*
X873134Y-12683984D01*
X873134Y-12683984D02*
X892182Y-12693508D01*
X892182Y-12693508D02*
X901705Y-12703031D01*
X901705Y-12703031D02*
X911229Y-12722079D01*
X911229Y-12722079D02*
X920753Y-12760174D01*
X920753Y-12760174D02*
X920753Y-12807793D01*
X920753Y-12807793D02*
X911229Y-12845888D01*
X911229Y-12845888D02*
X901705Y-12864936D01*
X901705Y-12864936D02*
X892182Y-12874460D01*
X892182Y-12874460D02*
X873134Y-12883984D01*
X873134Y-12883984D02*
X854086Y-12883984D01*
X854086Y-12883984D02*
X835039Y-12874460D01*
X835039Y-12874460D02*
X825515Y-12864936D01*
X825515Y-12864936D02*
X815991Y-12845888D01*
X815991Y-12845888D02*
X806467Y-12807793D01*
X806467Y-12807793D02*
X806467Y-12760174D01*
X806467Y-12760174D02*
X815991Y-12722079D01*
X815991Y-12722079D02*
X825515Y-12703031D01*
X825515Y-12703031D02*
X835039Y-12693508D01*
X835039Y-12693508D02*
X854086Y-12683984D01*
X1044562Y-12683984D02*
X1063610Y-12683984D01*
X1063610Y-12683984D02*
X1082658Y-12693508D01*
X1082658Y-12693508D02*
X1092182Y-12703031D01*
X1092182Y-12703031D02*
X1101705Y-12722079D01*
X1101705Y-12722079D02*
X1111229Y-12760174D01*
X1111229Y-12760174D02*
X1111229Y-12807793D01*
X1111229Y-12807793D02*
X1101705Y-12845888D01*
X1101705Y-12845888D02*
X1092182Y-12864936D01*
X1092182Y-12864936D02*
X1082658Y-12874460D01*
X1082658Y-12874460D02*
X1063610Y-12883984D01*
X1063610Y-12883984D02*
X1044562Y-12883984D01*
X1044562Y-12883984D02*
X1025515Y-12874460D01*
X1025515Y-12874460D02*
X1015991Y-12864936D01*
X1015991Y-12864936D02*
X1006467Y-12845888D01*
X1006467Y-12845888D02*
X996943Y-12807793D01*
X996943Y-12807793D02*
X996943Y-12760174D01*
X996943Y-12760174D02*
X1006467Y-12722079D01*
X1006467Y-12722079D02*
X1015991Y-12703031D01*
X1015991Y-12703031D02*
X1025515Y-12693508D01*
X1025515Y-12693508D02*
X1044562Y-12683984D01*
X1235039Y-12683984D02*
X1254086Y-12683984D01*
X1254086Y-12683984D02*
X1273134Y-12693508D01*
X1273134Y-12693508D02*
X1282658Y-12703031D01*
X1282658Y-12703031D02*
X1292182Y-12722079D01*
X1292182Y-12722079D02*
X1301705Y-12760174D01*
X1301705Y-12760174D02*
X1301705Y-12807793D01*
X1301705Y-12807793D02*
X1292182Y-12845888D01*
X1292182Y-12845888D02*
X1282658Y-12864936D01*
X1282658Y-12864936D02*
X1273134Y-12874460D01*
X1273134Y-12874460D02*
X1254086Y-12883984D01*
X1254086Y-12883984D02*
X1235039Y-12883984D01*
X1235039Y-12883984D02*
X1215991Y-12874460D01*
X1215991Y-12874460D02*
X1206467Y-12864936D01*
X1206467Y-12864936D02*
X1196944Y-12845888D01*
X1196944Y-12845888D02*
X1187420Y-12807793D01*
X1187420Y-12807793D02*
X1187420Y-12760174D01*
X1187420Y-12760174D02*
X1196944Y-12722079D01*
X1196944Y-12722079D02*
X1206467Y-12703031D01*
X1206467Y-12703031D02*
X1215991Y-12693508D01*
X1215991Y-12693508D02*
X1235039Y-12683984D01*
X1387420Y-12883984D02*
X1387420Y-12750650D01*
X1387420Y-12769698D02*
X1396944Y-12760174D01*
X1396944Y-12760174D02*
X1415991Y-12750650D01*
X1415991Y-12750650D02*
X1444563Y-12750650D01*
X1444563Y-12750650D02*
X1463610Y-12760174D01*
X1463610Y-12760174D02*
X1473134Y-12779222D01*
X1473134Y-12779222D02*
X1473134Y-12883984D01*
X1473134Y-12779222D02*
X1482658Y-12760174D01*
X1482658Y-12760174D02*
X1501705Y-12750650D01*
X1501705Y-12750650D02*
X1530277Y-12750650D01*
X1530277Y-12750650D02*
X1549324Y-12760174D01*
X1549324Y-12760174D02*
X1558848Y-12779222D01*
X1558848Y-12779222D02*
X1558848Y-12883984D01*
X1654086Y-12883984D02*
X1654086Y-12750650D01*
X1654086Y-12769698D02*
X1663610Y-12760174D01*
X1663610Y-12760174D02*
X1682658Y-12750650D01*
X1682658Y-12750650D02*
X1711229Y-12750650D01*
X1711229Y-12750650D02*
X1730277Y-12760174D01*
X1730277Y-12760174D02*
X1739801Y-12779222D01*
X1739801Y-12779222D02*
X1739801Y-12883984D01*
X1739801Y-12779222D02*
X1749324Y-12760174D01*
X1749324Y-12760174D02*
X1768372Y-12750650D01*
X1768372Y-12750650D02*
X1796943Y-12750650D01*
X1796943Y-12750650D02*
X1815991Y-12760174D01*
X1815991Y-12760174D02*
X1825515Y-12779222D01*
X1825515Y-12779222D02*
X1825515Y-12883984D01*
X2215991Y-12674460D02*
X2044563Y-12931603D01*
X2473134Y-12683984D02*
X2492182Y-12683984D01*
X2492182Y-12683984D02*
X2511229Y-12693508D01*
X2511229Y-12693508D02*
X2520753Y-12703031D01*
X2520753Y-12703031D02*
X2530277Y-12722079D01*
X2530277Y-12722079D02*
X2539801Y-12760174D01*
X2539801Y-12760174D02*
X2539801Y-12807793D01*
X2539801Y-12807793D02*
X2530277Y-12845888D01*
X2530277Y-12845888D02*
X2520753Y-12864936D01*
X2520753Y-12864936D02*
X2511229Y-12874460D01*
X2511229Y-12874460D02*
X2492182Y-12883984D01*
X2492182Y-12883984D02*
X2473134Y-12883984D01*
X2473134Y-12883984D02*
X2454087Y-12874460D01*
X2454087Y-12874460D02*
X2444563Y-12864936D01*
X2444563Y-12864936D02*
X2435039Y-12845888D01*
X2435039Y-12845888D02*
X2425515Y-12807793D01*
X2425515Y-12807793D02*
X2425515Y-12760174D01*
X2425515Y-12760174D02*
X2435039Y-12722079D01*
X2435039Y-12722079D02*
X2444563Y-12703031D01*
X2444563Y-12703031D02*
X2454087Y-12693508D01*
X2454087Y-12693508D02*
X2473134Y-12683984D01*
X2625515Y-12864936D02*
X2635039Y-12874460D01*
X2635039Y-12874460D02*
X2625515Y-12883984D01*
X2625515Y-12883984D02*
X2615991Y-12874460D01*
X2615991Y-12874460D02*
X2625515Y-12864936D01*
X2625515Y-12864936D02*
X2625515Y-12883984D01*
X2758848Y-12683984D02*
X2777896Y-12683984D01*
X2777896Y-12683984D02*
X2796944Y-12693508D01*
X2796944Y-12693508D02*
X2806467Y-12703031D01*
X2806467Y-12703031D02*
X2815991Y-12722079D01*
X2815991Y-12722079D02*
X2825515Y-12760174D01*
X2825515Y-12760174D02*
X2825515Y-12807793D01*
X2825515Y-12807793D02*
X2815991Y-12845888D01*
X2815991Y-12845888D02*
X2806467Y-12864936D01*
X2806467Y-12864936D02*
X2796944Y-12874460D01*
X2796944Y-12874460D02*
X2777896Y-12883984D01*
X2777896Y-12883984D02*
X2758848Y-12883984D01*
X2758848Y-12883984D02*
X2739801Y-12874460D01*
X2739801Y-12874460D02*
X2730277Y-12864936D01*
X2730277Y-12864936D02*
X2720753Y-12845888D01*
X2720753Y-12845888D02*
X2711229Y-12807793D01*
X2711229Y-12807793D02*
X2711229Y-12760174D01*
X2711229Y-12760174D02*
X2720753Y-12722079D01*
X2720753Y-12722079D02*
X2730277Y-12703031D01*
X2730277Y-12703031D02*
X2739801Y-12693508D01*
X2739801Y-12693508D02*
X2758848Y-12683984D01*
X2892182Y-12683984D02*
X3025515Y-12683984D01*
X3025515Y-12683984D02*
X2939801Y-12883984D01*
X3130277Y-12769698D02*
X3111229Y-12760174D01*
X3111229Y-12760174D02*
X3101706Y-12750650D01*
X3101706Y-12750650D02*
X3092182Y-12731603D01*
X3092182Y-12731603D02*
X3092182Y-12722079D01*
X3092182Y-12722079D02*
X3101706Y-12703031D01*
X3101706Y-12703031D02*
X3111229Y-12693508D01*
X3111229Y-12693508D02*
X3130277Y-12683984D01*
X3130277Y-12683984D02*
X3168372Y-12683984D01*
X3168372Y-12683984D02*
X3187420Y-12693508D01*
X3187420Y-12693508D02*
X3196944Y-12703031D01*
X3196944Y-12703031D02*
X3206467Y-12722079D01*
X3206467Y-12722079D02*
X3206467Y-12731603D01*
X3206467Y-12731603D02*
X3196944Y-12750650D01*
X3196944Y-12750650D02*
X3187420Y-12760174D01*
X3187420Y-12760174D02*
X3168372Y-12769698D01*
X3168372Y-12769698D02*
X3130277Y-12769698D01*
X3130277Y-12769698D02*
X3111229Y-12779222D01*
X3111229Y-12779222D02*
X3101706Y-12788746D01*
X3101706Y-12788746D02*
X3092182Y-12807793D01*
X3092182Y-12807793D02*
X3092182Y-12845888D01*
X3092182Y-12845888D02*
X3101706Y-12864936D01*
X3101706Y-12864936D02*
X3111229Y-12874460D01*
X3111229Y-12874460D02*
X3130277Y-12883984D01*
X3130277Y-12883984D02*
X3168372Y-12883984D01*
X3168372Y-12883984D02*
X3187420Y-12874460D01*
X3187420Y-12874460D02*
X3196944Y-12864936D01*
X3196944Y-12864936D02*
X3206467Y-12845888D01*
X3206467Y-12845888D02*
X3206467Y-12807793D01*
X3206467Y-12807793D02*
X3196944Y-12788746D01*
X3196944Y-12788746D02*
X3187420Y-12779222D01*
X3187420Y-12779222D02*
X3168372Y-12769698D01*
X3273134Y-12683984D02*
X3406467Y-12683984D01*
X3406467Y-12683984D02*
X3320753Y-12883984D01*
X3473134Y-12683984D02*
X3473134Y-12722079D01*
X3549325Y-12683984D02*
X3549325Y-12722079D01*
X3844563Y-12960174D02*
X3835039Y-12950650D01*
X3835039Y-12950650D02*
X3815991Y-12922079D01*
X3815991Y-12922079D02*
X3806468Y-12903031D01*
X3806468Y-12903031D02*
X3796944Y-12874460D01*
X3796944Y-12874460D02*
X3787420Y-12826841D01*
X3787420Y-12826841D02*
X3787420Y-12788746D01*
X3787420Y-12788746D02*
X3796944Y-12741127D01*
X3796944Y-12741127D02*
X3806468Y-12712555D01*
X3806468Y-12712555D02*
X3815991Y-12693508D01*
X3815991Y-12693508D02*
X3835039Y-12664936D01*
X3835039Y-12664936D02*
X3844563Y-12655412D01*
X4006468Y-12750650D02*
X4006468Y-12883984D01*
X3958848Y-12674460D02*
X3911229Y-12817317D01*
X3911229Y-12817317D02*
X4035039Y-12817317D01*
X4263611Y-12883984D02*
X4263611Y-12683984D01*
X4349325Y-12883984D02*
X4349325Y-12779222D01*
X4349325Y-12779222D02*
X4339801Y-12760174D01*
X4339801Y-12760174D02*
X4320753Y-12750650D01*
X4320753Y-12750650D02*
X4292182Y-12750650D01*
X4292182Y-12750650D02*
X4273134Y-12760174D01*
X4273134Y-12760174D02*
X4263611Y-12769698D01*
X4473134Y-12883984D02*
X4454087Y-12874460D01*
X4454087Y-12874460D02*
X4444563Y-12864936D01*
X4444563Y-12864936D02*
X4435039Y-12845888D01*
X4435039Y-12845888D02*
X4435039Y-12788746D01*
X4435039Y-12788746D02*
X4444563Y-12769698D01*
X4444563Y-12769698D02*
X4454087Y-12760174D01*
X4454087Y-12760174D02*
X4473134Y-12750650D01*
X4473134Y-12750650D02*
X4501706Y-12750650D01*
X4501706Y-12750650D02*
X4520753Y-12760174D01*
X4520753Y-12760174D02*
X4530277Y-12769698D01*
X4530277Y-12769698D02*
X4539801Y-12788746D01*
X4539801Y-12788746D02*
X4539801Y-12845888D01*
X4539801Y-12845888D02*
X4530277Y-12864936D01*
X4530277Y-12864936D02*
X4520753Y-12874460D01*
X4520753Y-12874460D02*
X4501706Y-12883984D01*
X4501706Y-12883984D02*
X4473134Y-12883984D01*
X4654087Y-12883984D02*
X4635039Y-12874460D01*
X4635039Y-12874460D02*
X4625515Y-12855412D01*
X4625515Y-12855412D02*
X4625515Y-12683984D01*
X4806468Y-12874460D02*
X4787420Y-12883984D01*
X4787420Y-12883984D02*
X4749325Y-12883984D01*
X4749325Y-12883984D02*
X4730277Y-12874460D01*
X4730277Y-12874460D02*
X4720753Y-12855412D01*
X4720753Y-12855412D02*
X4720753Y-12779222D01*
X4720753Y-12779222D02*
X4730277Y-12760174D01*
X4730277Y-12760174D02*
X4749325Y-12750650D01*
X4749325Y-12750650D02*
X4787420Y-12750650D01*
X4787420Y-12750650D02*
X4806468Y-12760174D01*
X4806468Y-12760174D02*
X4815992Y-12779222D01*
X4815992Y-12779222D02*
X4815992Y-12798269D01*
X4815992Y-12798269D02*
X4720753Y-12817317D01*
X4892182Y-12874460D02*
X4911230Y-12883984D01*
X4911230Y-12883984D02*
X4949325Y-12883984D01*
X4949325Y-12883984D02*
X4968373Y-12874460D01*
X4968373Y-12874460D02*
X4977896Y-12855412D01*
X4977896Y-12855412D02*
X4977896Y-12845888D01*
X4977896Y-12845888D02*
X4968373Y-12826841D01*
X4968373Y-12826841D02*
X4949325Y-12817317D01*
X4949325Y-12817317D02*
X4920753Y-12817317D01*
X4920753Y-12817317D02*
X4901706Y-12807793D01*
X4901706Y-12807793D02*
X4892182Y-12788746D01*
X4892182Y-12788746D02*
X4892182Y-12779222D01*
X4892182Y-12779222D02*
X4901706Y-12760174D01*
X4901706Y-12760174D02*
X4920753Y-12750650D01*
X4920753Y-12750650D02*
X4949325Y-12750650D01*
X4949325Y-12750650D02*
X4968373Y-12760174D01*
X5044563Y-12960174D02*
X5054087Y-12950650D01*
X5054087Y-12950650D02*
X5073134Y-12922079D01*
X5073134Y-12922079D02*
X5082658Y-12903031D01*
X5082658Y-12903031D02*
X5092182Y-12874460D01*
X5092182Y-12874460D02*
X5101706Y-12826841D01*
X5101706Y-12826841D02*
X5101706Y-12788746D01*
X5101706Y-12788746D02*
X5092182Y-12741127D01*
X5092182Y-12741127D02*
X5082658Y-12712555D01*
X5082658Y-12712555D02*
X5073134Y-12693508D01*
X5073134Y-12693508D02*
X5054087Y-12664936D01*
X5054087Y-12664936D02*
X5044563Y-12655412D01*
X5406468Y-12960174D02*
X5396944Y-12950650D01*
X5396944Y-12950650D02*
X5377896Y-12922079D01*
X5377896Y-12922079D02*
X5368373Y-12903031D01*
X5368373Y-12903031D02*
X5358849Y-12874460D01*
X5358849Y-12874460D02*
X5349325Y-12826841D01*
X5349325Y-12826841D02*
X5349325Y-12788746D01*
X5349325Y-12788746D02*
X5358849Y-12741127D01*
X5358849Y-12741127D02*
X5368373Y-12712555D01*
X5368373Y-12712555D02*
X5377896Y-12693508D01*
X5377896Y-12693508D02*
X5396944Y-12664936D01*
X5396944Y-12664936D02*
X5406468Y-12655412D01*
X5482658Y-12750650D02*
X5482658Y-12883984D01*
X5482658Y-12769698D02*
X5492182Y-12760174D01*
X5492182Y-12760174D02*
X5511230Y-12750650D01*
X5511230Y-12750650D02*
X5539801Y-12750650D01*
X5539801Y-12750650D02*
X5558849Y-12760174D01*
X5558849Y-12760174D02*
X5568373Y-12779222D01*
X5568373Y-12779222D02*
X5568373Y-12883984D01*
X5692182Y-12883984D02*
X5673134Y-12874460D01*
X5673134Y-12874460D02*
X5663611Y-12864936D01*
X5663611Y-12864936D02*
X5654087Y-12845888D01*
X5654087Y-12845888D02*
X5654087Y-12788746D01*
X5654087Y-12788746D02*
X5663611Y-12769698D01*
X5663611Y-12769698D02*
X5673134Y-12760174D01*
X5673134Y-12760174D02*
X5692182Y-12750650D01*
X5692182Y-12750650D02*
X5720753Y-12750650D01*
X5720753Y-12750650D02*
X5739801Y-12760174D01*
X5739801Y-12760174D02*
X5749325Y-12769698D01*
X5749325Y-12769698D02*
X5758849Y-12788746D01*
X5758849Y-12788746D02*
X5758849Y-12845888D01*
X5758849Y-12845888D02*
X5749325Y-12864936D01*
X5749325Y-12864936D02*
X5739801Y-12874460D01*
X5739801Y-12874460D02*
X5720753Y-12883984D01*
X5720753Y-12883984D02*
X5692182Y-12883984D01*
X5815992Y-12750650D02*
X5892182Y-12750650D01*
X5844563Y-12683984D02*
X5844563Y-12855412D01*
X5844563Y-12855412D02*
X5854087Y-12874460D01*
X5854087Y-12874460D02*
X5873134Y-12883984D01*
X5873134Y-12883984D02*
X5892182Y-12883984D01*
X6111230Y-12750650D02*
X6111230Y-12950650D01*
X6111230Y-12760174D02*
X6130277Y-12750650D01*
X6130277Y-12750650D02*
X6168373Y-12750650D01*
X6168373Y-12750650D02*
X6187420Y-12760174D01*
X6187420Y-12760174D02*
X6196944Y-12769698D01*
X6196944Y-12769698D02*
X6206468Y-12788746D01*
X6206468Y-12788746D02*
X6206468Y-12845888D01*
X6206468Y-12845888D02*
X6196944Y-12864936D01*
X6196944Y-12864936D02*
X6187420Y-12874460D01*
X6187420Y-12874460D02*
X6168373Y-12883984D01*
X6168373Y-12883984D02*
X6130277Y-12883984D01*
X6130277Y-12883984D02*
X6111230Y-12874460D01*
X6320753Y-12883984D02*
X6301706Y-12874460D01*
X6301706Y-12874460D02*
X6292182Y-12855412D01*
X6292182Y-12855412D02*
X6292182Y-12683984D01*
X6482658Y-12883984D02*
X6482658Y-12779222D01*
X6482658Y-12779222D02*
X6473134Y-12760174D01*
X6473134Y-12760174D02*
X6454087Y-12750650D01*
X6454087Y-12750650D02*
X6415992Y-12750650D01*
X6415992Y-12750650D02*
X6396944Y-12760174D01*
X6482658Y-12874460D02*
X6463611Y-12883984D01*
X6463611Y-12883984D02*
X6415992Y-12883984D01*
X6415992Y-12883984D02*
X6396944Y-12874460D01*
X6396944Y-12874460D02*
X6387420Y-12855412D01*
X6387420Y-12855412D02*
X6387420Y-12836365D01*
X6387420Y-12836365D02*
X6396944Y-12817317D01*
X6396944Y-12817317D02*
X6415992Y-12807793D01*
X6415992Y-12807793D02*
X6463611Y-12807793D01*
X6463611Y-12807793D02*
X6482658Y-12798269D01*
X6549325Y-12750650D02*
X6625515Y-12750650D01*
X6577896Y-12683984D02*
X6577896Y-12855412D01*
X6577896Y-12855412D02*
X6587420Y-12874460D01*
X6587420Y-12874460D02*
X6606468Y-12883984D01*
X6606468Y-12883984D02*
X6625515Y-12883984D01*
X6768373Y-12874460D02*
X6749325Y-12883984D01*
X6749325Y-12883984D02*
X6711230Y-12883984D01*
X6711230Y-12883984D02*
X6692182Y-12874460D01*
X6692182Y-12874460D02*
X6682658Y-12855412D01*
X6682658Y-12855412D02*
X6682658Y-12779222D01*
X6682658Y-12779222D02*
X6692182Y-12760174D01*
X6692182Y-12760174D02*
X6711230Y-12750650D01*
X6711230Y-12750650D02*
X6749325Y-12750650D01*
X6749325Y-12750650D02*
X6768373Y-12760174D01*
X6768373Y-12760174D02*
X6777896Y-12779222D01*
X6777896Y-12779222D02*
X6777896Y-12798269D01*
X6777896Y-12798269D02*
X6682658Y-12817317D01*
X6949325Y-12883984D02*
X6949325Y-12683984D01*
X6949325Y-12874460D02*
X6930277Y-12883984D01*
X6930277Y-12883984D02*
X6892182Y-12883984D01*
X6892182Y-12883984D02*
X6873134Y-12874460D01*
X6873134Y-12874460D02*
X6863611Y-12864936D01*
X6863611Y-12864936D02*
X6854087Y-12845888D01*
X6854087Y-12845888D02*
X6854087Y-12788746D01*
X6854087Y-12788746D02*
X6863611Y-12769698D01*
X6863611Y-12769698D02*
X6873134Y-12760174D01*
X6873134Y-12760174D02*
X6892182Y-12750650D01*
X6892182Y-12750650D02*
X6930277Y-12750650D01*
X6930277Y-12750650D02*
X6949325Y-12760174D01*
X7025515Y-12960174D02*
X7035039Y-12950650D01*
X7035039Y-12950650D02*
X7054087Y-12922079D01*
X7054087Y-12922079D02*
X7063611Y-12903031D01*
X7063611Y-12903031D02*
X7073134Y-12874460D01*
X7073134Y-12874460D02*
X7082658Y-12826841D01*
X7082658Y-12826841D02*
X7082658Y-12788746D01*
X7082658Y-12788746D02*
X7073134Y-12741127D01*
X7073134Y-12741127D02*
X7063611Y-12712555D01*
X7063611Y-12712555D02*
X7054087Y-12693508D01*
X7054087Y-12693508D02*
X7035039Y-12664936D01*
X7035039Y-12664936D02*
X7025515Y-12655412D01*
X269500Y-13112500D02*
G75*
G02*
X69500Y-13112500I-100000J0D01*
G01*
X69500Y-13112500D02*
G75*
G02*
X269500Y-13112500I100000J0D01*
G01*
X520753Y-13023031D02*
X530277Y-13013508D01*
X530277Y-13013508D02*
X549324Y-13003984D01*
X549324Y-13003984D02*
X596944Y-13003984D01*
X596944Y-13003984D02*
X615991Y-13013508D01*
X615991Y-13013508D02*
X625515Y-13023031D01*
X625515Y-13023031D02*
X635039Y-13042079D01*
X635039Y-13042079D02*
X635039Y-13061127D01*
X635039Y-13061127D02*
X625515Y-13089698D01*
X625515Y-13089698D02*
X511229Y-13203984D01*
X511229Y-13203984D02*
X635039Y-13203984D01*
X720753Y-13184936D02*
X730277Y-13194460D01*
X730277Y-13194460D02*
X720753Y-13203984D01*
X720753Y-13203984D02*
X711229Y-13194460D01*
X711229Y-13194460D02*
X720753Y-13184936D01*
X720753Y-13184936D02*
X720753Y-13203984D01*
X901705Y-13003984D02*
X863610Y-13003984D01*
X863610Y-13003984D02*
X844562Y-13013508D01*
X844562Y-13013508D02*
X835039Y-13023031D01*
X835039Y-13023031D02*
X815991Y-13051603D01*
X815991Y-13051603D02*
X806467Y-13089698D01*
X806467Y-13089698D02*
X806467Y-13165888D01*
X806467Y-13165888D02*
X815991Y-13184936D01*
X815991Y-13184936D02*
X825515Y-13194460D01*
X825515Y-13194460D02*
X844562Y-13203984D01*
X844562Y-13203984D02*
X882658Y-13203984D01*
X882658Y-13203984D02*
X901705Y-13194460D01*
X901705Y-13194460D02*
X911229Y-13184936D01*
X911229Y-13184936D02*
X920753Y-13165888D01*
X920753Y-13165888D02*
X920753Y-13118269D01*
X920753Y-13118269D02*
X911229Y-13099222D01*
X911229Y-13099222D02*
X901705Y-13089698D01*
X901705Y-13089698D02*
X882658Y-13080174D01*
X882658Y-13080174D02*
X844562Y-13080174D01*
X844562Y-13080174D02*
X825515Y-13089698D01*
X825515Y-13089698D02*
X815991Y-13099222D01*
X815991Y-13099222D02*
X806467Y-13118269D01*
X1044562Y-13003984D02*
X1063610Y-13003984D01*
X1063610Y-13003984D02*
X1082658Y-13013508D01*
X1082658Y-13013508D02*
X1092182Y-13023031D01*
X1092182Y-13023031D02*
X1101705Y-13042079D01*
X1101705Y-13042079D02*
X1111229Y-13080174D01*
X1111229Y-13080174D02*
X1111229Y-13127793D01*
X1111229Y-13127793D02*
X1101705Y-13165888D01*
X1101705Y-13165888D02*
X1092182Y-13184936D01*
X1092182Y-13184936D02*
X1082658Y-13194460D01*
X1082658Y-13194460D02*
X1063610Y-13203984D01*
X1063610Y-13203984D02*
X1044562Y-13203984D01*
X1044562Y-13203984D02*
X1025515Y-13194460D01*
X1025515Y-13194460D02*
X1015991Y-13184936D01*
X1015991Y-13184936D02*
X1006467Y-13165888D01*
X1006467Y-13165888D02*
X996943Y-13127793D01*
X996943Y-13127793D02*
X996943Y-13080174D01*
X996943Y-13080174D02*
X1006467Y-13042079D01*
X1006467Y-13042079D02*
X1015991Y-13023031D01*
X1015991Y-13023031D02*
X1025515Y-13013508D01*
X1025515Y-13013508D02*
X1044562Y-13003984D01*
X1235039Y-13003984D02*
X1254086Y-13003984D01*
X1254086Y-13003984D02*
X1273134Y-13013508D01*
X1273134Y-13013508D02*
X1282658Y-13023031D01*
X1282658Y-13023031D02*
X1292182Y-13042079D01*
X1292182Y-13042079D02*
X1301705Y-13080174D01*
X1301705Y-13080174D02*
X1301705Y-13127793D01*
X1301705Y-13127793D02*
X1292182Y-13165888D01*
X1292182Y-13165888D02*
X1282658Y-13184936D01*
X1282658Y-13184936D02*
X1273134Y-13194460D01*
X1273134Y-13194460D02*
X1254086Y-13203984D01*
X1254086Y-13203984D02*
X1235039Y-13203984D01*
X1235039Y-13203984D02*
X1215991Y-13194460D01*
X1215991Y-13194460D02*
X1206467Y-13184936D01*
X1206467Y-13184936D02*
X1196944Y-13165888D01*
X1196944Y-13165888D02*
X1187420Y-13127793D01*
X1187420Y-13127793D02*
X1187420Y-13080174D01*
X1187420Y-13080174D02*
X1196944Y-13042079D01*
X1196944Y-13042079D02*
X1206467Y-13023031D01*
X1206467Y-13023031D02*
X1215991Y-13013508D01*
X1215991Y-13013508D02*
X1235039Y-13003984D01*
X1387420Y-13203984D02*
X1387420Y-13070650D01*
X1387420Y-13089698D02*
X1396944Y-13080174D01*
X1396944Y-13080174D02*
X1415991Y-13070650D01*
X1415991Y-13070650D02*
X1444563Y-13070650D01*
X1444563Y-13070650D02*
X1463610Y-13080174D01*
X1463610Y-13080174D02*
X1473134Y-13099222D01*
X1473134Y-13099222D02*
X1473134Y-13203984D01*
X1473134Y-13099222D02*
X1482658Y-13080174D01*
X1482658Y-13080174D02*
X1501705Y-13070650D01*
X1501705Y-13070650D02*
X1530277Y-13070650D01*
X1530277Y-13070650D02*
X1549324Y-13080174D01*
X1549324Y-13080174D02*
X1558848Y-13099222D01*
X1558848Y-13099222D02*
X1558848Y-13203984D01*
X1654086Y-13203984D02*
X1654086Y-13070650D01*
X1654086Y-13089698D02*
X1663610Y-13080174D01*
X1663610Y-13080174D02*
X1682658Y-13070650D01*
X1682658Y-13070650D02*
X1711229Y-13070650D01*
X1711229Y-13070650D02*
X1730277Y-13080174D01*
X1730277Y-13080174D02*
X1739801Y-13099222D01*
X1739801Y-13099222D02*
X1739801Y-13203984D01*
X1739801Y-13099222D02*
X1749324Y-13080174D01*
X1749324Y-13080174D02*
X1768372Y-13070650D01*
X1768372Y-13070650D02*
X1796943Y-13070650D01*
X1796943Y-13070650D02*
X1815991Y-13080174D01*
X1815991Y-13080174D02*
X1825515Y-13099222D01*
X1825515Y-13099222D02*
X1825515Y-13203984D01*
X2215991Y-12994460D02*
X2044563Y-13251603D01*
X2473134Y-13003984D02*
X2492182Y-13003984D01*
X2492182Y-13003984D02*
X2511229Y-13013508D01*
X2511229Y-13013508D02*
X2520753Y-13023031D01*
X2520753Y-13023031D02*
X2530277Y-13042079D01*
X2530277Y-13042079D02*
X2539801Y-13080174D01*
X2539801Y-13080174D02*
X2539801Y-13127793D01*
X2539801Y-13127793D02*
X2530277Y-13165888D01*
X2530277Y-13165888D02*
X2520753Y-13184936D01*
X2520753Y-13184936D02*
X2511229Y-13194460D01*
X2511229Y-13194460D02*
X2492182Y-13203984D01*
X2492182Y-13203984D02*
X2473134Y-13203984D01*
X2473134Y-13203984D02*
X2454087Y-13194460D01*
X2454087Y-13194460D02*
X2444563Y-13184936D01*
X2444563Y-13184936D02*
X2435039Y-13165888D01*
X2435039Y-13165888D02*
X2425515Y-13127793D01*
X2425515Y-13127793D02*
X2425515Y-13080174D01*
X2425515Y-13080174D02*
X2435039Y-13042079D01*
X2435039Y-13042079D02*
X2444563Y-13023031D01*
X2444563Y-13023031D02*
X2454087Y-13013508D01*
X2454087Y-13013508D02*
X2473134Y-13003984D01*
X2625515Y-13184936D02*
X2635039Y-13194460D01*
X2635039Y-13194460D02*
X2625515Y-13203984D01*
X2625515Y-13203984D02*
X2615991Y-13194460D01*
X2615991Y-13194460D02*
X2625515Y-13184936D01*
X2625515Y-13184936D02*
X2625515Y-13203984D01*
X2825515Y-13203984D02*
X2711229Y-13203984D01*
X2768372Y-13203984D02*
X2768372Y-13003984D01*
X2768372Y-13003984D02*
X2749325Y-13032555D01*
X2749325Y-13032555D02*
X2730277Y-13051603D01*
X2730277Y-13051603D02*
X2711229Y-13061127D01*
X2949325Y-13003984D02*
X2968372Y-13003984D01*
X2968372Y-13003984D02*
X2987420Y-13013508D01*
X2987420Y-13013508D02*
X2996944Y-13023031D01*
X2996944Y-13023031D02*
X3006467Y-13042079D01*
X3006467Y-13042079D02*
X3015991Y-13080174D01*
X3015991Y-13080174D02*
X3015991Y-13127793D01*
X3015991Y-13127793D02*
X3006467Y-13165888D01*
X3006467Y-13165888D02*
X2996944Y-13184936D01*
X2996944Y-13184936D02*
X2987420Y-13194460D01*
X2987420Y-13194460D02*
X2968372Y-13203984D01*
X2968372Y-13203984D02*
X2949325Y-13203984D01*
X2949325Y-13203984D02*
X2930277Y-13194460D01*
X2930277Y-13194460D02*
X2920753Y-13184936D01*
X2920753Y-13184936D02*
X2911229Y-13165888D01*
X2911229Y-13165888D02*
X2901706Y-13127793D01*
X2901706Y-13127793D02*
X2901706Y-13080174D01*
X2901706Y-13080174D02*
X2911229Y-13042079D01*
X2911229Y-13042079D02*
X2920753Y-13023031D01*
X2920753Y-13023031D02*
X2930277Y-13013508D01*
X2930277Y-13013508D02*
X2949325Y-13003984D01*
X3092182Y-13023031D02*
X3101706Y-13013508D01*
X3101706Y-13013508D02*
X3120753Y-13003984D01*
X3120753Y-13003984D02*
X3168372Y-13003984D01*
X3168372Y-13003984D02*
X3187420Y-13013508D01*
X3187420Y-13013508D02*
X3196944Y-13023031D01*
X3196944Y-13023031D02*
X3206467Y-13042079D01*
X3206467Y-13042079D02*
X3206467Y-13061127D01*
X3206467Y-13061127D02*
X3196944Y-13089698D01*
X3196944Y-13089698D02*
X3082658Y-13203984D01*
X3082658Y-13203984D02*
X3206467Y-13203984D01*
X3377896Y-13070650D02*
X3377896Y-13203984D01*
X3330277Y-12994460D02*
X3282658Y-13137317D01*
X3282658Y-13137317D02*
X3406467Y-13137317D01*
X3473134Y-13003984D02*
X3473134Y-13042079D01*
X3549325Y-13003984D02*
X3549325Y-13042079D01*
X3844563Y-13280174D02*
X3835039Y-13270650D01*
X3835039Y-13270650D02*
X3815991Y-13242079D01*
X3815991Y-13242079D02*
X3806468Y-13223031D01*
X3806468Y-13223031D02*
X3796944Y-13194460D01*
X3796944Y-13194460D02*
X3787420Y-13146841D01*
X3787420Y-13146841D02*
X3787420Y-13108746D01*
X3787420Y-13108746D02*
X3796944Y-13061127D01*
X3796944Y-13061127D02*
X3806468Y-13032555D01*
X3806468Y-13032555D02*
X3815991Y-13013508D01*
X3815991Y-13013508D02*
X3835039Y-12984936D01*
X3835039Y-12984936D02*
X3844563Y-12975412D01*
X4006468Y-13070650D02*
X4006468Y-13203984D01*
X3958848Y-12994460D02*
X3911229Y-13137317D01*
X3911229Y-13137317D02*
X4035039Y-13137317D01*
X4263611Y-13203984D02*
X4263611Y-13003984D01*
X4349325Y-13203984D02*
X4349325Y-13099222D01*
X4349325Y-13099222D02*
X4339801Y-13080174D01*
X4339801Y-13080174D02*
X4320753Y-13070650D01*
X4320753Y-13070650D02*
X4292182Y-13070650D01*
X4292182Y-13070650D02*
X4273134Y-13080174D01*
X4273134Y-13080174D02*
X4263611Y-13089698D01*
X4473134Y-13203984D02*
X4454087Y-13194460D01*
X4454087Y-13194460D02*
X4444563Y-13184936D01*
X4444563Y-13184936D02*
X4435039Y-13165888D01*
X4435039Y-13165888D02*
X4435039Y-13108746D01*
X4435039Y-13108746D02*
X4444563Y-13089698D01*
X4444563Y-13089698D02*
X4454087Y-13080174D01*
X4454087Y-13080174D02*
X4473134Y-13070650D01*
X4473134Y-13070650D02*
X4501706Y-13070650D01*
X4501706Y-13070650D02*
X4520753Y-13080174D01*
X4520753Y-13080174D02*
X4530277Y-13089698D01*
X4530277Y-13089698D02*
X4539801Y-13108746D01*
X4539801Y-13108746D02*
X4539801Y-13165888D01*
X4539801Y-13165888D02*
X4530277Y-13184936D01*
X4530277Y-13184936D02*
X4520753Y-13194460D01*
X4520753Y-13194460D02*
X4501706Y-13203984D01*
X4501706Y-13203984D02*
X4473134Y-13203984D01*
X4654087Y-13203984D02*
X4635039Y-13194460D01*
X4635039Y-13194460D02*
X4625515Y-13175412D01*
X4625515Y-13175412D02*
X4625515Y-13003984D01*
X4806468Y-13194460D02*
X4787420Y-13203984D01*
X4787420Y-13203984D02*
X4749325Y-13203984D01*
X4749325Y-13203984D02*
X4730277Y-13194460D01*
X4730277Y-13194460D02*
X4720753Y-13175412D01*
X4720753Y-13175412D02*
X4720753Y-13099222D01*
X4720753Y-13099222D02*
X4730277Y-13080174D01*
X4730277Y-13080174D02*
X4749325Y-13070650D01*
X4749325Y-13070650D02*
X4787420Y-13070650D01*
X4787420Y-13070650D02*
X4806468Y-13080174D01*
X4806468Y-13080174D02*
X4815992Y-13099222D01*
X4815992Y-13099222D02*
X4815992Y-13118269D01*
X4815992Y-13118269D02*
X4720753Y-13137317D01*
X4892182Y-13194460D02*
X4911230Y-13203984D01*
X4911230Y-13203984D02*
X4949325Y-13203984D01*
X4949325Y-13203984D02*
X4968373Y-13194460D01*
X4968373Y-13194460D02*
X4977896Y-13175412D01*
X4977896Y-13175412D02*
X4977896Y-13165888D01*
X4977896Y-13165888D02*
X4968373Y-13146841D01*
X4968373Y-13146841D02*
X4949325Y-13137317D01*
X4949325Y-13137317D02*
X4920753Y-13137317D01*
X4920753Y-13137317D02*
X4901706Y-13127793D01*
X4901706Y-13127793D02*
X4892182Y-13108746D01*
X4892182Y-13108746D02*
X4892182Y-13099222D01*
X4892182Y-13099222D02*
X4901706Y-13080174D01*
X4901706Y-13080174D02*
X4920753Y-13070650D01*
X4920753Y-13070650D02*
X4949325Y-13070650D01*
X4949325Y-13070650D02*
X4968373Y-13080174D01*
X5044563Y-13280174D02*
X5054087Y-13270650D01*
X5054087Y-13270650D02*
X5073134Y-13242079D01*
X5073134Y-13242079D02*
X5082658Y-13223031D01*
X5082658Y-13223031D02*
X5092182Y-13194460D01*
X5092182Y-13194460D02*
X5101706Y-13146841D01*
X5101706Y-13146841D02*
X5101706Y-13108746D01*
X5101706Y-13108746D02*
X5092182Y-13061127D01*
X5092182Y-13061127D02*
X5082658Y-13032555D01*
X5082658Y-13032555D02*
X5073134Y-13013508D01*
X5073134Y-13013508D02*
X5054087Y-12984936D01*
X5054087Y-12984936D02*
X5044563Y-12975412D01*
X5406468Y-13280174D02*
X5396944Y-13270650D01*
X5396944Y-13270650D02*
X5377896Y-13242079D01*
X5377896Y-13242079D02*
X5368373Y-13223031D01*
X5368373Y-13223031D02*
X5358849Y-13194460D01*
X5358849Y-13194460D02*
X5349325Y-13146841D01*
X5349325Y-13146841D02*
X5349325Y-13108746D01*
X5349325Y-13108746D02*
X5358849Y-13061127D01*
X5358849Y-13061127D02*
X5368373Y-13032555D01*
X5368373Y-13032555D02*
X5377896Y-13013508D01*
X5377896Y-13013508D02*
X5396944Y-12984936D01*
X5396944Y-12984936D02*
X5406468Y-12975412D01*
X5482658Y-13070650D02*
X5482658Y-13203984D01*
X5482658Y-13089698D02*
X5492182Y-13080174D01*
X5492182Y-13080174D02*
X5511230Y-13070650D01*
X5511230Y-13070650D02*
X5539801Y-13070650D01*
X5539801Y-13070650D02*
X5558849Y-13080174D01*
X5558849Y-13080174D02*
X5568373Y-13099222D01*
X5568373Y-13099222D02*
X5568373Y-13203984D01*
X5692182Y-13203984D02*
X5673134Y-13194460D01*
X5673134Y-13194460D02*
X5663611Y-13184936D01*
X5663611Y-13184936D02*
X5654087Y-13165888D01*
X5654087Y-13165888D02*
X5654087Y-13108746D01*
X5654087Y-13108746D02*
X5663611Y-13089698D01*
X5663611Y-13089698D02*
X5673134Y-13080174D01*
X5673134Y-13080174D02*
X5692182Y-13070650D01*
X5692182Y-13070650D02*
X5720753Y-13070650D01*
X5720753Y-13070650D02*
X5739801Y-13080174D01*
X5739801Y-13080174D02*
X5749325Y-13089698D01*
X5749325Y-13089698D02*
X5758849Y-13108746D01*
X5758849Y-13108746D02*
X5758849Y-13165888D01*
X5758849Y-13165888D02*
X5749325Y-13184936D01*
X5749325Y-13184936D02*
X5739801Y-13194460D01*
X5739801Y-13194460D02*
X5720753Y-13203984D01*
X5720753Y-13203984D02*
X5692182Y-13203984D01*
X5815992Y-13070650D02*
X5892182Y-13070650D01*
X5844563Y-13003984D02*
X5844563Y-13175412D01*
X5844563Y-13175412D02*
X5854087Y-13194460D01*
X5854087Y-13194460D02*
X5873134Y-13203984D01*
X5873134Y-13203984D02*
X5892182Y-13203984D01*
X6111230Y-13070650D02*
X6111230Y-13270650D01*
X6111230Y-13080174D02*
X6130277Y-13070650D01*
X6130277Y-13070650D02*
X6168373Y-13070650D01*
X6168373Y-13070650D02*
X6187420Y-13080174D01*
X6187420Y-13080174D02*
X6196944Y-13089698D01*
X6196944Y-13089698D02*
X6206468Y-13108746D01*
X6206468Y-13108746D02*
X6206468Y-13165888D01*
X6206468Y-13165888D02*
X6196944Y-13184936D01*
X6196944Y-13184936D02*
X6187420Y-13194460D01*
X6187420Y-13194460D02*
X6168373Y-13203984D01*
X6168373Y-13203984D02*
X6130277Y-13203984D01*
X6130277Y-13203984D02*
X6111230Y-13194460D01*
X6320753Y-13203984D02*
X6301706Y-13194460D01*
X6301706Y-13194460D02*
X6292182Y-13175412D01*
X6292182Y-13175412D02*
X6292182Y-13003984D01*
X6482658Y-13203984D02*
X6482658Y-13099222D01*
X6482658Y-13099222D02*
X6473134Y-13080174D01*
X6473134Y-13080174D02*
X6454087Y-13070650D01*
X6454087Y-13070650D02*
X6415992Y-13070650D01*
X6415992Y-13070650D02*
X6396944Y-13080174D01*
X6482658Y-13194460D02*
X6463611Y-13203984D01*
X6463611Y-13203984D02*
X6415992Y-13203984D01*
X6415992Y-13203984D02*
X6396944Y-13194460D01*
X6396944Y-13194460D02*
X6387420Y-13175412D01*
X6387420Y-13175412D02*
X6387420Y-13156365D01*
X6387420Y-13156365D02*
X6396944Y-13137317D01*
X6396944Y-13137317D02*
X6415992Y-13127793D01*
X6415992Y-13127793D02*
X6463611Y-13127793D01*
X6463611Y-13127793D02*
X6482658Y-13118269D01*
X6549325Y-13070650D02*
X6625515Y-13070650D01*
X6577896Y-13003984D02*
X6577896Y-13175412D01*
X6577896Y-13175412D02*
X6587420Y-13194460D01*
X6587420Y-13194460D02*
X6606468Y-13203984D01*
X6606468Y-13203984D02*
X6625515Y-13203984D01*
X6768373Y-13194460D02*
X6749325Y-13203984D01*
X6749325Y-13203984D02*
X6711230Y-13203984D01*
X6711230Y-13203984D02*
X6692182Y-13194460D01*
X6692182Y-13194460D02*
X6682658Y-13175412D01*
X6682658Y-13175412D02*
X6682658Y-13099222D01*
X6682658Y-13099222D02*
X6692182Y-13080174D01*
X6692182Y-13080174D02*
X6711230Y-13070650D01*
X6711230Y-13070650D02*
X6749325Y-13070650D01*
X6749325Y-13070650D02*
X6768373Y-13080174D01*
X6768373Y-13080174D02*
X6777896Y-13099222D01*
X6777896Y-13099222D02*
X6777896Y-13118269D01*
X6777896Y-13118269D02*
X6682658Y-13137317D01*
X6949325Y-13203984D02*
X6949325Y-13003984D01*
X6949325Y-13194460D02*
X6930277Y-13203984D01*
X6930277Y-13203984D02*
X6892182Y-13203984D01*
X6892182Y-13203984D02*
X6873134Y-13194460D01*
X6873134Y-13194460D02*
X6863611Y-13184936D01*
X6863611Y-13184936D02*
X6854087Y-13165888D01*
X6854087Y-13165888D02*
X6854087Y-13108746D01*
X6854087Y-13108746D02*
X6863611Y-13089698D01*
X6863611Y-13089698D02*
X6873134Y-13080174D01*
X6873134Y-13080174D02*
X6892182Y-13070650D01*
X6892182Y-13070650D02*
X6930277Y-13070650D01*
X6930277Y-13070650D02*
X6949325Y-13080174D01*
X7025515Y-13280174D02*
X7035039Y-13270650D01*
X7035039Y-13270650D02*
X7054087Y-13242079D01*
X7054087Y-13242079D02*
X7063611Y-13223031D01*
X7063611Y-13223031D02*
X7073134Y-13194460D01*
X7073134Y-13194460D02*
X7082658Y-13146841D01*
X7082658Y-13146841D02*
X7082658Y-13108746D01*
X7082658Y-13108746D02*
X7073134Y-13061127D01*
X7073134Y-13061127D02*
X7063611Y-13032555D01*
X7063611Y-13032555D02*
X7054087Y-13013508D01*
X7054087Y-13013508D02*
X7035039Y-12984936D01*
X7035039Y-12984936D02*
X7025515Y-12975412D01*
M02*
