M48
; DRILL file {KiCad 8.0.8} date 2025-02-12T13:37:28+0100
; FORMAT={-:-/ absolute / metric / decimal}
; #@! TF.CreationDate,2025-02-12T13:37:28+01:00
; #@! TF.GenerationSoftware,Kicad,Pcbnew,8.0.8
; #@! TF.FileFunction,Plated,1,2,PTH
FMAT,2
METRIC
; #@! TA.AperFunction,Plated,PTH,ViaDrill
T1C0.300
; #@! TA.AperFunction,Plated,PTH,ComponentDrill
T2C1.000
; #@! TA.AperFunction,Plated,PTH,ComponentDrill
T3C1.100
; #@! TA.AperFunction,Plated,PTH,ComponentDrill
T4C1.300
; #@! TA.AperFunction,Plated,PTH,ComponentDrill
T5C3.200
%
G90
G05
T1
X83.87Y-58.22
X84.525Y-59.125
X85.112Y-59.887
X85.72Y-60.72
X86.3Y-61.425
X86.876Y-62.251
X87.412Y-62.987
X87.45Y-140.7
X87.996Y-140.037
X88.03Y-63.83
X88.525Y-139.438
X88.625Y-64.625
X89.03Y-138.817
X89.567Y-138.2
X90.103Y-137.6
X90.628Y-136.996
X91.175Y-136.4
X91.725Y-135.8
X92.252Y-135.198
X93.069Y-98.439
X93.12Y-121.86
X94.434Y-95.714
X94.44Y-121.29
X95.81Y-120.55
X95.854Y-92.954
X97.229Y-90.179
X97.34Y-119.95
X98.619Y-87.359
X98.74Y-119.35
X100.01Y-84.609
X100.12Y-118.73
X101.32Y-118.13
X101.386Y-48.1
X101.399Y-81.839
X102.719Y-79.159
X102.72Y-48.7
X102.81Y-117.53
X104.156Y-49.3
X104.159Y-76.299
X104.19Y-116.93
X105.539Y-73.579
X105.54Y-116.33
X105.541Y-49.9
X106.92Y-115.73
X106.926Y-50.5
X106.926Y-71.82
X108.311Y-51.1
X108.311Y-71.22
X108.45Y-115.13
X109.696Y-51.7
X109.696Y-70.62
X109.83Y-114.53
X111.081Y-52.325
X111.081Y-70.02
X111.09Y-113.93
X112.46Y-113.32
X112.466Y-52.925
X112.466Y-69.42
X113.851Y-53.525
X113.851Y-68.82
X113.96Y-112.71
X115.236Y-54.125
X115.236Y-68.22
X115.236Y-112.11
X116.62Y-111.51
X116.621Y-54.725
X116.621Y-67.62
X118.006Y-67.02
X118.006Y-110.91
X119.391Y-66.44
X119.391Y-110.31
X120.776Y-65.84
X120.91Y-109.71
X122.161Y-65.24
X122.161Y-109.11
X123.546Y-64.63
X123.546Y-108.51
X124.931Y-64.03
X124.931Y-107.91
X126.316Y-63.43
X126.316Y-107.31
X127.701Y-62.83
X127.721Y-106.231
X129.084Y-103.428
X129.086Y-62.24
X130.471Y-61.64
X130.471Y-100.62
X131.856Y-61.04
X131.856Y-97.89
X133.241Y-60.44
X133.241Y-94.78
X134.624Y-92.368
X134.626Y-59.84
X136.011Y-59.24
X136.011Y-89.626
X137.394Y-86.868
X137.396Y-58.65
X138.776Y-84.286
X138.781Y-58.05
X140.165Y-81.358
X140.167Y-57.45
X141.551Y-56.845
X141.551Y-78.5
X142.929Y-75.833
X142.936Y-56.245
X146.5Y-54.725
X147.123Y-54.127
X147.65Y-53.525
X148.55Y-52.925
X149.475Y-52.325
X150.425Y-51.7
X151.35Y-51.1
X152.35Y-50.5
X153.225Y-49.9
X154.225Y-49.3
X155.125Y-48.7
X156.05Y-48.1
T2
X73.37Y-64.605
X73.37Y-67.375
X73.37Y-70.145
X73.37Y-72.915
X73.37Y-75.685
X73.37Y-78.455
X73.37Y-81.225
X73.37Y-83.995
X73.37Y-86.765
X73.37Y-89.535
X73.37Y-92.305
X73.37Y-95.075
X73.37Y-97.845
X73.37Y-100.615
X73.37Y-103.385
X73.37Y-106.155
X73.37Y-108.925
X73.37Y-111.695
X76.21Y-63.22
X76.21Y-65.99
X76.21Y-68.76
X76.21Y-71.53
X76.21Y-74.3
X76.21Y-77.07
X76.21Y-79.84
X76.21Y-82.61
X76.21Y-85.38
X76.21Y-88.15
X76.21Y-90.92
X76.21Y-93.69
X76.21Y-96.46
X76.21Y-99.23
X76.21Y-102.0
X76.21Y-104.77
X76.21Y-107.54
X76.21Y-110.31
X76.21Y-113.08
X93.076Y-46.255
X93.076Y-129.855
X94.461Y-43.415
X94.461Y-132.695
X95.846Y-46.255
X95.846Y-129.855
X97.231Y-43.415
X97.231Y-132.695
X98.616Y-46.255
X98.616Y-129.855
X100.001Y-43.415
X100.001Y-132.695
X101.386Y-46.255
X101.386Y-129.855
X102.771Y-43.415
X102.771Y-132.695
X104.156Y-46.255
X104.156Y-129.855
X105.541Y-43.415
X105.541Y-132.695
X106.926Y-46.255
X106.926Y-129.855
X108.311Y-43.415
X108.311Y-132.695
X109.696Y-46.255
X109.696Y-129.855
X111.081Y-43.415
X111.081Y-132.695
X112.466Y-46.255
X112.466Y-129.855
X113.851Y-43.415
X113.851Y-132.695
X115.236Y-46.255
X115.236Y-129.855
X116.621Y-43.415
X116.621Y-132.695
X118.006Y-46.255
X118.006Y-129.855
X119.391Y-43.415
X119.391Y-132.695
X120.776Y-46.255
X120.776Y-129.855
X122.161Y-43.415
X122.161Y-132.695
X123.546Y-46.255
X123.546Y-129.855
X124.931Y-43.415
X124.931Y-132.695
X126.316Y-46.255
X126.316Y-129.855
X127.701Y-43.415
X127.701Y-132.695
X129.086Y-46.255
X129.086Y-129.855
X130.471Y-43.415
X130.471Y-132.695
X131.856Y-46.255
X131.856Y-129.855
X133.241Y-43.415
X133.241Y-132.695
X134.626Y-46.255
X134.626Y-129.855
X136.011Y-43.415
X136.011Y-132.695
X137.396Y-46.255
X137.396Y-129.855
X138.781Y-43.415
X138.781Y-132.695
X140.166Y-46.255
X140.166Y-129.855
X141.551Y-43.415
X141.551Y-132.695
X142.936Y-46.255
X142.936Y-129.855
X159.81Y-63.22
X159.81Y-65.99
X159.81Y-68.76
X159.81Y-71.53
X159.81Y-74.3
X159.81Y-77.07
X159.81Y-79.84
X159.81Y-82.61
X159.81Y-85.38
X159.81Y-88.15
X159.81Y-90.92
X159.81Y-93.69
X159.81Y-96.46
X159.81Y-99.23
X159.81Y-102.0
X159.81Y-104.77
X159.81Y-107.54
X159.81Y-110.31
X159.81Y-113.08
X162.65Y-64.605
X162.65Y-67.375
X162.65Y-70.145
X162.65Y-72.915
X162.65Y-75.685
X162.65Y-78.455
X162.65Y-81.225
X162.65Y-83.995
X162.65Y-86.765
X162.65Y-89.535
X162.65Y-92.305
X162.65Y-95.075
X162.65Y-97.845
X162.65Y-100.615
X162.65Y-103.385
X162.65Y-106.155
X162.65Y-108.925
X162.65Y-111.695
T3
X78.696Y-156.159
X78.696Y-158.699
X81.236Y-156.159
X81.236Y-158.699
X83.776Y-156.159
X83.776Y-158.699
X86.316Y-158.699
X86.326Y-156.159
X88.856Y-156.159
X88.856Y-158.699
X91.396Y-156.159
X91.396Y-158.699
X93.936Y-156.159
X93.936Y-158.699
X96.476Y-156.159
X96.476Y-158.699
X99.016Y-156.159
X99.016Y-158.699
X101.556Y-156.159
X101.556Y-158.699
X104.096Y-156.159
X104.096Y-158.699
X106.636Y-156.159
X106.636Y-158.699
X109.176Y-156.159
X109.176Y-158.699
X111.716Y-158.699
X111.726Y-156.159
X114.256Y-156.159
X114.256Y-158.699
X116.796Y-156.159
X116.796Y-158.699
X119.336Y-156.159
X119.336Y-158.699
X121.876Y-156.159
X121.876Y-158.699
X124.416Y-156.159
X124.416Y-158.699
X126.956Y-156.159
X126.956Y-158.699
X129.496Y-156.159
X129.496Y-158.699
X132.036Y-156.159
X132.036Y-158.699
X134.576Y-156.159
X134.576Y-158.699
X137.116Y-158.699
X137.126Y-156.159
X139.656Y-156.159
X139.656Y-158.699
X142.196Y-156.159
X142.196Y-158.699
X144.736Y-156.159
X144.736Y-158.699
X147.276Y-156.159
X147.276Y-158.699
X149.816Y-156.159
X149.816Y-158.699
X152.356Y-156.159
X152.356Y-158.699
X154.896Y-156.159
X154.896Y-158.699
X157.436Y-156.159
X157.436Y-158.699
T4
X166.875Y-138.155
X166.875Y-140.695
T5
X74.79Y-56.4
X74.79Y-119.9
X86.256Y-44.835
X86.256Y-131.275
X149.756Y-44.835
X149.756Y-131.275
X161.23Y-56.4
X161.23Y-119.9
M30
