%TF.GenerationSoftware,KiCad,Pcbnew,8.0.8*%
%TF.CreationDate,2025-02-12T13:37:33+01:00*%
%TF.ProjectId,Cabletester_Base_Board_v1,4361626c-6574-4657-9374-65725f426173,v1*%
%TF.SameCoordinates,Original*%
%TF.FileFunction,Legend,Top*%
%TF.FilePolarity,Positive*%
%FSLAX46Y46*%
G04 Gerber Fmt 4.6, Leading zero omitted, Abs format (unit mm)*
G04 Created by KiCad (PCBNEW 8.0.8) date 2025-02-12 13:37:33*
%MOMM*%
%LPD*%
G01*
G04 APERTURE LIST*
%ADD10C,0.100000*%
%ADD11C,0.250000*%
%ADD12C,0.300000*%
%ADD13C,0.150000*%
%ADD14C,0.120000*%
%ADD15C,0.254000*%
G04 APERTURE END LIST*
D10*
X106210000Y-90650000D02*
X128230000Y-90650000D01*
X128230000Y-95390000D01*
X106210000Y-95390000D01*
X106210000Y-90650000D01*
G36*
X106210000Y-90650000D02*
G01*
X128230000Y-90650000D01*
X128230000Y-95390000D01*
X106210000Y-95390000D01*
X106210000Y-90650000D01*
G37*
D11*
X104980000Y-86450000D02*
X129100000Y-86450000D01*
X129100000Y-96110000D01*
X104980000Y-96110000D01*
X104980000Y-86450000D01*
D12*
X106783082Y-89052257D02*
X107497368Y-89052257D01*
X106640225Y-89480828D02*
X107140225Y-87980828D01*
X107140225Y-87980828D02*
X107640225Y-89480828D01*
X108783082Y-89409400D02*
X108640224Y-89480828D01*
X108640224Y-89480828D02*
X108354510Y-89480828D01*
X108354510Y-89480828D02*
X108211653Y-89409400D01*
X108211653Y-89409400D02*
X108140224Y-89337971D01*
X108140224Y-89337971D02*
X108068796Y-89195114D01*
X108068796Y-89195114D02*
X108068796Y-88766542D01*
X108068796Y-88766542D02*
X108140224Y-88623685D01*
X108140224Y-88623685D02*
X108211653Y-88552257D01*
X108211653Y-88552257D02*
X108354510Y-88480828D01*
X108354510Y-88480828D02*
X108640224Y-88480828D01*
X108640224Y-88480828D02*
X108783082Y-88552257D01*
X110068796Y-89409400D02*
X109925938Y-89480828D01*
X109925938Y-89480828D02*
X109640224Y-89480828D01*
X109640224Y-89480828D02*
X109497367Y-89409400D01*
X109497367Y-89409400D02*
X109425938Y-89337971D01*
X109425938Y-89337971D02*
X109354510Y-89195114D01*
X109354510Y-89195114D02*
X109354510Y-88766542D01*
X109354510Y-88766542D02*
X109425938Y-88623685D01*
X109425938Y-88623685D02*
X109497367Y-88552257D01*
X109497367Y-88552257D02*
X109640224Y-88480828D01*
X109640224Y-88480828D02*
X109925938Y-88480828D01*
X109925938Y-88480828D02*
X110068796Y-88552257D01*
X111283081Y-89409400D02*
X111140224Y-89480828D01*
X111140224Y-89480828D02*
X110854510Y-89480828D01*
X110854510Y-89480828D02*
X110711652Y-89409400D01*
X110711652Y-89409400D02*
X110640224Y-89266542D01*
X110640224Y-89266542D02*
X110640224Y-88695114D01*
X110640224Y-88695114D02*
X110711652Y-88552257D01*
X110711652Y-88552257D02*
X110854510Y-88480828D01*
X110854510Y-88480828D02*
X111140224Y-88480828D01*
X111140224Y-88480828D02*
X111283081Y-88552257D01*
X111283081Y-88552257D02*
X111354510Y-88695114D01*
X111354510Y-88695114D02*
X111354510Y-88837971D01*
X111354510Y-88837971D02*
X110640224Y-88980828D01*
X111997366Y-88480828D02*
X111997366Y-89480828D01*
X111997366Y-88623685D02*
X112068795Y-88552257D01*
X112068795Y-88552257D02*
X112211652Y-88480828D01*
X112211652Y-88480828D02*
X112425938Y-88480828D01*
X112425938Y-88480828D02*
X112568795Y-88552257D01*
X112568795Y-88552257D02*
X112640224Y-88695114D01*
X112640224Y-88695114D02*
X112640224Y-89480828D01*
X113140224Y-88480828D02*
X113711652Y-88480828D01*
X113354509Y-87980828D02*
X113354509Y-89266542D01*
X113354509Y-89266542D02*
X113425938Y-89409400D01*
X113425938Y-89409400D02*
X113568795Y-89480828D01*
X113568795Y-89480828D02*
X113711652Y-89480828D01*
X114854510Y-88480828D02*
X114854510Y-89480828D01*
X114211652Y-88480828D02*
X114211652Y-89266542D01*
X114211652Y-89266542D02*
X114283081Y-89409400D01*
X114283081Y-89409400D02*
X114425938Y-89480828D01*
X114425938Y-89480828D02*
X114640224Y-89480828D01*
X114640224Y-89480828D02*
X114783081Y-89409400D01*
X114783081Y-89409400D02*
X114854510Y-89337971D01*
X115568795Y-89480828D02*
X115568795Y-88480828D01*
X115568795Y-88766542D02*
X115640224Y-88623685D01*
X115640224Y-88623685D02*
X115711653Y-88552257D01*
X115711653Y-88552257D02*
X115854510Y-88480828D01*
X115854510Y-88480828D02*
X115997367Y-88480828D01*
X117068795Y-89409400D02*
X116925938Y-89480828D01*
X116925938Y-89480828D02*
X116640224Y-89480828D01*
X116640224Y-89480828D02*
X116497366Y-89409400D01*
X116497366Y-89409400D02*
X116425938Y-89266542D01*
X116425938Y-89266542D02*
X116425938Y-88695114D01*
X116425938Y-88695114D02*
X116497366Y-88552257D01*
X116497366Y-88552257D02*
X116640224Y-88480828D01*
X116640224Y-88480828D02*
X116925938Y-88480828D01*
X116925938Y-88480828D02*
X117068795Y-88552257D01*
X117068795Y-88552257D02*
X117140224Y-88695114D01*
X117140224Y-88695114D02*
X117140224Y-88837971D01*
X117140224Y-88837971D02*
X116425938Y-88980828D01*
X117425938Y-89623685D02*
X118568795Y-89623685D01*
X119783080Y-89337971D02*
X119711652Y-89409400D01*
X119711652Y-89409400D02*
X119497366Y-89480828D01*
X119497366Y-89480828D02*
X119354509Y-89480828D01*
X119354509Y-89480828D02*
X119140223Y-89409400D01*
X119140223Y-89409400D02*
X118997366Y-89266542D01*
X118997366Y-89266542D02*
X118925937Y-89123685D01*
X118925937Y-89123685D02*
X118854509Y-88837971D01*
X118854509Y-88837971D02*
X118854509Y-88623685D01*
X118854509Y-88623685D02*
X118925937Y-88337971D01*
X118925937Y-88337971D02*
X118997366Y-88195114D01*
X118997366Y-88195114D02*
X119140223Y-88052257D01*
X119140223Y-88052257D02*
X119354509Y-87980828D01*
X119354509Y-87980828D02*
X119497366Y-87980828D01*
X119497366Y-87980828D02*
X119711652Y-88052257D01*
X119711652Y-88052257D02*
X119783080Y-88123685D01*
X120925937Y-88695114D02*
X121140223Y-88766542D01*
X121140223Y-88766542D02*
X121211652Y-88837971D01*
X121211652Y-88837971D02*
X121283080Y-88980828D01*
X121283080Y-88980828D02*
X121283080Y-89195114D01*
X121283080Y-89195114D02*
X121211652Y-89337971D01*
X121211652Y-89337971D02*
X121140223Y-89409400D01*
X121140223Y-89409400D02*
X120997366Y-89480828D01*
X120997366Y-89480828D02*
X120425937Y-89480828D01*
X120425937Y-89480828D02*
X120425937Y-87980828D01*
X120425937Y-87980828D02*
X120925937Y-87980828D01*
X120925937Y-87980828D02*
X121068795Y-88052257D01*
X121068795Y-88052257D02*
X121140223Y-88123685D01*
X121140223Y-88123685D02*
X121211652Y-88266542D01*
X121211652Y-88266542D02*
X121211652Y-88409400D01*
X121211652Y-88409400D02*
X121140223Y-88552257D01*
X121140223Y-88552257D02*
X121068795Y-88623685D01*
X121068795Y-88623685D02*
X120925937Y-88695114D01*
X120925937Y-88695114D02*
X120425937Y-88695114D01*
X121568795Y-89623685D02*
X122711652Y-89623685D01*
X123568794Y-88695114D02*
X123783080Y-88766542D01*
X123783080Y-88766542D02*
X123854509Y-88837971D01*
X123854509Y-88837971D02*
X123925937Y-88980828D01*
X123925937Y-88980828D02*
X123925937Y-89195114D01*
X123925937Y-89195114D02*
X123854509Y-89337971D01*
X123854509Y-89337971D02*
X123783080Y-89409400D01*
X123783080Y-89409400D02*
X123640223Y-89480828D01*
X123640223Y-89480828D02*
X123068794Y-89480828D01*
X123068794Y-89480828D02*
X123068794Y-87980828D01*
X123068794Y-87980828D02*
X123568794Y-87980828D01*
X123568794Y-87980828D02*
X123711652Y-88052257D01*
X123711652Y-88052257D02*
X123783080Y-88123685D01*
X123783080Y-88123685D02*
X123854509Y-88266542D01*
X123854509Y-88266542D02*
X123854509Y-88409400D01*
X123854509Y-88409400D02*
X123783080Y-88552257D01*
X123783080Y-88552257D02*
X123711652Y-88623685D01*
X123711652Y-88623685D02*
X123568794Y-88695114D01*
X123568794Y-88695114D02*
X123068794Y-88695114D01*
X125211652Y-89480828D02*
X125211652Y-88695114D01*
X125211652Y-88695114D02*
X125140223Y-88552257D01*
X125140223Y-88552257D02*
X124997366Y-88480828D01*
X124997366Y-88480828D02*
X124711652Y-88480828D01*
X124711652Y-88480828D02*
X124568794Y-88552257D01*
X125211652Y-89409400D02*
X125068794Y-89480828D01*
X125068794Y-89480828D02*
X124711652Y-89480828D01*
X124711652Y-89480828D02*
X124568794Y-89409400D01*
X124568794Y-89409400D02*
X124497366Y-89266542D01*
X124497366Y-89266542D02*
X124497366Y-89123685D01*
X124497366Y-89123685D02*
X124568794Y-88980828D01*
X124568794Y-88980828D02*
X124711652Y-88909400D01*
X124711652Y-88909400D02*
X125068794Y-88909400D01*
X125068794Y-88909400D02*
X125211652Y-88837971D01*
X125854509Y-89409400D02*
X125997366Y-89480828D01*
X125997366Y-89480828D02*
X126283080Y-89480828D01*
X126283080Y-89480828D02*
X126425937Y-89409400D01*
X126425937Y-89409400D02*
X126497366Y-89266542D01*
X126497366Y-89266542D02*
X126497366Y-89195114D01*
X126497366Y-89195114D02*
X126425937Y-89052257D01*
X126425937Y-89052257D02*
X126283080Y-88980828D01*
X126283080Y-88980828D02*
X126068795Y-88980828D01*
X126068795Y-88980828D02*
X125925937Y-88909400D01*
X125925937Y-88909400D02*
X125854509Y-88766542D01*
X125854509Y-88766542D02*
X125854509Y-88695114D01*
X125854509Y-88695114D02*
X125925937Y-88552257D01*
X125925937Y-88552257D02*
X126068795Y-88480828D01*
X126068795Y-88480828D02*
X126283080Y-88480828D01*
X126283080Y-88480828D02*
X126425937Y-88552257D01*
X127711652Y-89409400D02*
X127568795Y-89480828D01*
X127568795Y-89480828D02*
X127283081Y-89480828D01*
X127283081Y-89480828D02*
X127140223Y-89409400D01*
X127140223Y-89409400D02*
X127068795Y-89266542D01*
X127068795Y-89266542D02*
X127068795Y-88695114D01*
X127068795Y-88695114D02*
X127140223Y-88552257D01*
X127140223Y-88552257D02*
X127283081Y-88480828D01*
X127283081Y-88480828D02*
X127568795Y-88480828D01*
X127568795Y-88480828D02*
X127711652Y-88552257D01*
X127711652Y-88552257D02*
X127783081Y-88695114D01*
X127783081Y-88695114D02*
X127783081Y-88837971D01*
X127783081Y-88837971D02*
X127068795Y-88980828D01*
D13*
X170907695Y-139958366D02*
X171479123Y-139958366D01*
X171479123Y-139958366D02*
X171593409Y-139996461D01*
X171593409Y-139996461D02*
X171669600Y-140072652D01*
X171669600Y-140072652D02*
X171707695Y-140186937D01*
X171707695Y-140186937D02*
X171707695Y-140263128D01*
X170907695Y-139234556D02*
X170907695Y-139386937D01*
X170907695Y-139386937D02*
X170945790Y-139463128D01*
X170945790Y-139463128D02*
X170983885Y-139501223D01*
X170983885Y-139501223D02*
X171098171Y-139577413D01*
X171098171Y-139577413D02*
X171250552Y-139615509D01*
X171250552Y-139615509D02*
X171555314Y-139615509D01*
X171555314Y-139615509D02*
X171631504Y-139577413D01*
X171631504Y-139577413D02*
X171669600Y-139539318D01*
X171669600Y-139539318D02*
X171707695Y-139463128D01*
X171707695Y-139463128D02*
X171707695Y-139310747D01*
X171707695Y-139310747D02*
X171669600Y-139234556D01*
X171669600Y-139234556D02*
X171631504Y-139196461D01*
X171631504Y-139196461D02*
X171555314Y-139158366D01*
X171555314Y-139158366D02*
X171364838Y-139158366D01*
X171364838Y-139158366D02*
X171288647Y-139196461D01*
X171288647Y-139196461D02*
X171250552Y-139234556D01*
X171250552Y-139234556D02*
X171212457Y-139310747D01*
X171212457Y-139310747D02*
X171212457Y-139463128D01*
X171212457Y-139463128D02*
X171250552Y-139539318D01*
X171250552Y-139539318D02*
X171288647Y-139577413D01*
X171288647Y-139577413D02*
X171364838Y-139615509D01*
X153375150Y-88483828D02*
X154089435Y-88483828D01*
X154089435Y-88483828D02*
X154232292Y-88531447D01*
X154232292Y-88531447D02*
X154327531Y-88626685D01*
X154327531Y-88626685D02*
X154375150Y-88769542D01*
X154375150Y-88769542D02*
X154375150Y-88864780D01*
X153708483Y-87579066D02*
X154375150Y-87579066D01*
X153327531Y-87817161D02*
X154041816Y-88055256D01*
X154041816Y-88055256D02*
X154041816Y-87436209D01*
X160621200Y-140122286D02*
X160659295Y-140008000D01*
X160659295Y-140008000D02*
X160659295Y-139817524D01*
X160659295Y-139817524D02*
X160621200Y-139741333D01*
X160621200Y-139741333D02*
X160583104Y-139703238D01*
X160583104Y-139703238D02*
X160506914Y-139665143D01*
X160506914Y-139665143D02*
X160430723Y-139665143D01*
X160430723Y-139665143D02*
X160354533Y-139703238D01*
X160354533Y-139703238D02*
X160316438Y-139741333D01*
X160316438Y-139741333D02*
X160278342Y-139817524D01*
X160278342Y-139817524D02*
X160240247Y-139969905D01*
X160240247Y-139969905D02*
X160202152Y-140046095D01*
X160202152Y-140046095D02*
X160164057Y-140084190D01*
X160164057Y-140084190D02*
X160087866Y-140122286D01*
X160087866Y-140122286D02*
X160011676Y-140122286D01*
X160011676Y-140122286D02*
X159935485Y-140084190D01*
X159935485Y-140084190D02*
X159897390Y-140046095D01*
X159897390Y-140046095D02*
X159859295Y-139969905D01*
X159859295Y-139969905D02*
X159859295Y-139779428D01*
X159859295Y-139779428D02*
X159897390Y-139665143D01*
X159859295Y-139093714D02*
X160430723Y-139093714D01*
X160430723Y-139093714D02*
X160545009Y-139131809D01*
X160545009Y-139131809D02*
X160621200Y-139208000D01*
X160621200Y-139208000D02*
X160659295Y-139322285D01*
X160659295Y-139322285D02*
X160659295Y-139398476D01*
X160659295Y-138293714D02*
X160659295Y-138750857D01*
X160659295Y-138522285D02*
X159859295Y-138522285D01*
X159859295Y-138522285D02*
X159973580Y-138598476D01*
X159973580Y-138598476D02*
X160049771Y-138674666D01*
X160049771Y-138674666D02*
X160087866Y-138750857D01*
X117672940Y-123419819D02*
X117672940Y-124134104D01*
X117672940Y-124134104D02*
X117625321Y-124276961D01*
X117625321Y-124276961D02*
X117530083Y-124372200D01*
X117530083Y-124372200D02*
X117387226Y-124419819D01*
X117387226Y-124419819D02*
X117291988Y-124419819D01*
X118101512Y-123515057D02*
X118149131Y-123467438D01*
X118149131Y-123467438D02*
X118244369Y-123419819D01*
X118244369Y-123419819D02*
X118482464Y-123419819D01*
X118482464Y-123419819D02*
X118577702Y-123467438D01*
X118577702Y-123467438D02*
X118625321Y-123515057D01*
X118625321Y-123515057D02*
X118672940Y-123610295D01*
X118672940Y-123610295D02*
X118672940Y-123705533D01*
X118672940Y-123705533D02*
X118625321Y-123848390D01*
X118625321Y-123848390D02*
X118053893Y-124419819D01*
X118053893Y-124419819D02*
X118672940Y-124419819D01*
X81555150Y-88483828D02*
X82269435Y-88483828D01*
X82269435Y-88483828D02*
X82412292Y-88531447D01*
X82412292Y-88531447D02*
X82507531Y-88626685D01*
X82507531Y-88626685D02*
X82555150Y-88769542D01*
X82555150Y-88769542D02*
X82555150Y-88864780D01*
X81555150Y-88102875D02*
X81555150Y-87483828D01*
X81555150Y-87483828D02*
X81936102Y-87817161D01*
X81936102Y-87817161D02*
X81936102Y-87674304D01*
X81936102Y-87674304D02*
X81983721Y-87579066D01*
X81983721Y-87579066D02*
X82031340Y-87531447D01*
X82031340Y-87531447D02*
X82126578Y-87483828D01*
X82126578Y-87483828D02*
X82364673Y-87483828D01*
X82364673Y-87483828D02*
X82459911Y-87531447D01*
X82459911Y-87531447D02*
X82507531Y-87579066D01*
X82507531Y-87579066D02*
X82555150Y-87674304D01*
X82555150Y-87674304D02*
X82555150Y-87960018D01*
X82555150Y-87960018D02*
X82507531Y-88055256D01*
X82507531Y-88055256D02*
X82459911Y-88102875D01*
X117612940Y-52889819D02*
X117612940Y-53604104D01*
X117612940Y-53604104D02*
X117565321Y-53746961D01*
X117565321Y-53746961D02*
X117470083Y-53842200D01*
X117470083Y-53842200D02*
X117327226Y-53889819D01*
X117327226Y-53889819D02*
X117231988Y-53889819D01*
X118612940Y-53889819D02*
X118041512Y-53889819D01*
X118327226Y-53889819D02*
X118327226Y-52889819D01*
X118327226Y-52889819D02*
X118231988Y-53032676D01*
X118231988Y-53032676D02*
X118136750Y-53127914D01*
X118136750Y-53127914D02*
X118041512Y-53175533D01*
D10*
%TO.C,J6*%
X166592300Y-139425000D02*
X169157700Y-139425000D01*
X169157700Y-139425000D02*
X168637000Y-139234500D01*
X169157700Y-139425000D02*
X168637000Y-139615500D01*
X170125000Y-136685000D02*
X163625000Y-136685000D01*
X163625000Y-142165000D01*
X170125000Y-142165000D01*
X170125000Y-136685000D01*
D14*
%TO.C,J4*%
X154025993Y-112830495D02*
X154459006Y-113080495D01*
X154025993Y-113330495D02*
X154025993Y-112830495D01*
X154459006Y-113080495D02*
X154025993Y-113330495D01*
X154920331Y-121850495D02*
X154920331Y-54450495D01*
X155980331Y-53390495D02*
X166480331Y-53390495D01*
X157020331Y-113632184D02*
X157020331Y-62668806D01*
X158968587Y-61034025D02*
X164068587Y-61933293D01*
X158968587Y-115266965D02*
X164068587Y-114367697D01*
X165440331Y-112732916D02*
X165440331Y-63568074D01*
X166480331Y-122910495D02*
X155980331Y-122910495D01*
X167540331Y-54450495D02*
X167540331Y-121850495D01*
X154920331Y-54450495D02*
G75*
G02*
X155980331Y-53390495I1060000J0D01*
G01*
X155980331Y-122910495D02*
G75*
G02*
X154920331Y-121850495I1J1060001D01*
G01*
X157020331Y-62668806D02*
G75*
G02*
X158968589Y-61034014I1660000J11D01*
G01*
X158968587Y-115266965D02*
G75*
G02*
X157020331Y-113632184I-288257J1634780D01*
G01*
X164068587Y-61933293D02*
G75*
G02*
X165440352Y-63568074I-288256J-1634802D01*
G01*
X165440331Y-112732916D02*
G75*
G02*
X164068587Y-114367697I-1660003J2D01*
G01*
X166480331Y-53390495D02*
G75*
G02*
X167540331Y-54450495I0J-1060000D01*
G01*
X167540331Y-121850495D02*
G75*
G02*
X166480331Y-122910495I-1060001J1D01*
G01*
D15*
%TO.C,SJ1*%
X161059000Y-140859000D02*
X161059000Y-138065000D01*
X162837000Y-137811000D02*
X161313000Y-137811000D01*
X162837000Y-141113000D02*
X161313000Y-141113000D01*
X163091000Y-138065000D02*
X163091000Y-140859000D01*
X161059000Y-138065000D02*
G75*
G02*
X161313000Y-137811000I254000J0D01*
G01*
X161313000Y-141113000D02*
G75*
G02*
X161059000Y-140859000I0J254000D01*
G01*
X162837000Y-137811000D02*
G75*
G02*
X163091000Y-138065000I0J-254000D01*
G01*
X163091000Y-140859000D02*
G75*
G02*
X162837000Y-141113000I-254000J0D01*
G01*
D14*
%TO.C,J2*%
X83246274Y-136525000D02*
X83246274Y-126025000D01*
X84306274Y-124965000D02*
X151706274Y-124965000D01*
X90889804Y-129013256D02*
X91789072Y-134113256D01*
X92524585Y-127065000D02*
X143487963Y-127065000D01*
X92826274Y-124070662D02*
X93326274Y-124070662D01*
X93076274Y-124503675D02*
X92826274Y-124070662D01*
X93326274Y-124070662D02*
X93076274Y-124503675D01*
X93423853Y-135485000D02*
X142588695Y-135485000D01*
X145122744Y-129013256D02*
X144223476Y-134113256D01*
X151706274Y-137585000D02*
X84306274Y-137585000D01*
X152766274Y-126025000D02*
X152766274Y-136525000D01*
X83246274Y-126025000D02*
G75*
G02*
X84306274Y-124965000I1060001J-1D01*
G01*
X84306274Y-137585000D02*
G75*
G02*
X83246274Y-136525000I1J1060001D01*
G01*
X90889804Y-129013256D02*
G75*
G02*
X92524585Y-127065000I1634780J288257D01*
G01*
X93423853Y-135485000D02*
G75*
G02*
X91789072Y-134113256I2J1660003D01*
G01*
X143487963Y-127065000D02*
G75*
G02*
X145122755Y-129013258I11J-1660000D01*
G01*
X144223476Y-134113256D02*
G75*
G02*
X142588695Y-135485021I-1634802J288256D01*
G01*
X151706274Y-124965000D02*
G75*
G02*
X152766274Y-126025000I0J-1060000D01*
G01*
X152766274Y-136525000D02*
G75*
G02*
X151706274Y-137585000I-1060000J0D01*
G01*
%TO.C,J3*%
X68480331Y-121850495D02*
X68480331Y-54450495D01*
X69540331Y-53390495D02*
X80040331Y-53390495D01*
X70580331Y-63568074D02*
X70580331Y-112732916D01*
X77052075Y-61034025D02*
X71952075Y-61933293D01*
X77052075Y-115266965D02*
X71952075Y-114367697D01*
X79000331Y-62668806D02*
X79000331Y-113632184D01*
X80040331Y-122910495D02*
X69540331Y-122910495D01*
X81100331Y-54450495D02*
X81100331Y-121850495D01*
X81561656Y-63220495D02*
X81994669Y-62970495D01*
X81994669Y-62970495D02*
X81994669Y-63470495D01*
X81994669Y-63470495D02*
X81561656Y-63220495D01*
X68480331Y-54450495D02*
G75*
G02*
X69540331Y-53390495I1060001J-1D01*
G01*
X69540331Y-122910495D02*
G75*
G02*
X68480331Y-121850495I0J1060000D01*
G01*
X70580331Y-63568074D02*
G75*
G02*
X71952075Y-61933293I1660003J-2D01*
G01*
X71952075Y-114367697D02*
G75*
G02*
X70580310Y-112732916I288256J1634802D01*
G01*
X77052075Y-61034025D02*
G75*
G02*
X79000331Y-62668806I288257J-1634780D01*
G01*
X79000331Y-113632184D02*
G75*
G02*
X77052073Y-115266976I-1660000J-11D01*
G01*
X80040331Y-53390495D02*
G75*
G02*
X81100331Y-54450495I-1J-1060001D01*
G01*
X81100331Y-121850495D02*
G75*
G02*
X80040331Y-122910495I-1060000J0D01*
G01*
%TO.C,J1*%
X83246274Y-50085000D02*
X83246274Y-39585000D01*
X84306274Y-38525000D02*
X151706274Y-38525000D01*
X90889804Y-47096744D02*
X91789072Y-41996744D01*
X142588695Y-40625000D02*
X93423853Y-40625000D01*
X142686274Y-52039338D02*
X142936274Y-51606325D01*
X142936274Y-51606325D02*
X143186274Y-52039338D01*
X143186274Y-52039338D02*
X142686274Y-52039338D01*
X143487963Y-49045000D02*
X92524585Y-49045000D01*
X145122744Y-47096744D02*
X144223476Y-41996744D01*
X151706274Y-51145000D02*
X84306274Y-51145000D01*
X152766274Y-39585000D02*
X152766274Y-50085000D01*
X83246274Y-39585000D02*
G75*
G02*
X84306274Y-38525000I1060000J0D01*
G01*
X84306274Y-51145000D02*
G75*
G02*
X83246274Y-50085000I0J1060000D01*
G01*
X91789072Y-41996744D02*
G75*
G02*
X93423853Y-40624979I1634802J-288256D01*
G01*
X92524585Y-49045000D02*
G75*
G02*
X90889793Y-47096742I-11J1660000D01*
G01*
X142588695Y-40625000D02*
G75*
G02*
X144223476Y-41996744I-2J-1660003D01*
G01*
X145122744Y-47096744D02*
G75*
G02*
X143487963Y-49045000I-1634780J-288257D01*
G01*
X151706274Y-38525000D02*
G75*
G02*
X152766274Y-39585000I-1J-1060001D01*
G01*
X152766274Y-50085000D02*
G75*
G02*
X151706274Y-51145000I-1060001J1D01*
G01*
%TD*%
M02*
