%TF.GenerationSoftware,KiCad,Pcbnew,8.0.8*%
%TF.CreationDate,2025-02-12T13:37:33+01:00*%
%TF.ProjectId,Cabletester_Base_Board_v1,4361626c-6574-4657-9374-65725f426173,v1*%
%TF.SameCoordinates,Original*%
%TF.FileFunction,Soldermask,Top*%
%TF.FilePolarity,Negative*%
%FSLAX46Y46*%
G04 Gerber Fmt 4.6, Leading zero omitted, Abs format (unit mm)*
G04 Created by KiCad (PCBNEW 8.0.8) date 2025-02-12 13:37:33*
%MOMM*%
%LPD*%
G01*
G04 APERTURE LIST*
G04 Aperture macros list*
%AMRoundRect*
0 Rectangle with rounded corners*
0 $1 Rounding radius*
0 $2 $3 $4 $5 $6 $7 $8 $9 X,Y pos of 4 corners*
0 Add a 4 corners polygon primitive as box body*
4,1,4,$2,$3,$4,$5,$6,$7,$8,$9,$2,$3,0*
0 Add four circle primitives for the rounded corners*
1,1,$1+$1,$2,$3*
1,1,$1+$1,$4,$5*
1,1,$1+$1,$6,$7*
1,1,$1+$1,$8,$9*
0 Add four rect primitives between the rounded corners*
20,1,$1+$1,$2,$3,$4,$5,0*
20,1,$1+$1,$4,$5,$6,$7,0*
20,1,$1+$1,$6,$7,$8,$9,0*
20,1,$1+$1,$8,$9,$2,$3,0*%
G04 Aperture macros list end*
%ADD10C,0.000000*%
%ADD11R,3.600000X1.900000*%
%ADD12O,3.600000X1.900000*%
%ADD13C,4.000000*%
%ADD14R,1.600000X1.600000*%
%ADD15C,1.600000*%
%ADD16RoundRect,0.050800X0.800100X-0.584200X0.800100X0.584200X-0.800100X0.584200X-0.800100X-0.584200X0*%
%ADD17R,1.700000X2.300000*%
%ADD18O,1.700000X2.300000*%
%ADD19O,1.800000X2.300000*%
G04 APERTURE END LIST*
D10*
%TO.C,Logo2*%
G36*
X115035504Y-30923320D02*
G01*
X115098843Y-30928745D01*
X115159462Y-30937913D01*
X115217115Y-30950929D01*
X115271560Y-30967899D01*
X115297502Y-30977899D01*
X115322551Y-30988927D01*
X115346675Y-31000995D01*
X115369844Y-31014117D01*
X115392028Y-31028306D01*
X115413196Y-31043575D01*
X115433318Y-31059936D01*
X115452362Y-31077404D01*
X115470300Y-31095991D01*
X115487099Y-31115710D01*
X115502729Y-31136574D01*
X115517161Y-31158597D01*
X115530363Y-31181791D01*
X115542305Y-31206169D01*
X115552956Y-31231746D01*
X115562286Y-31258533D01*
X115570264Y-31286543D01*
X115576861Y-31315791D01*
X115582044Y-31346288D01*
X115585785Y-31378049D01*
X115588051Y-31411085D01*
X115588813Y-31445411D01*
X115588813Y-32445536D01*
X115184001Y-32445536D01*
X115184001Y-32270911D01*
X115168465Y-32291541D01*
X115151615Y-32311683D01*
X115133440Y-32331221D01*
X115113928Y-32350038D01*
X115093067Y-32368017D01*
X115070845Y-32385043D01*
X115047252Y-32401000D01*
X115034937Y-32408540D01*
X115022274Y-32415770D01*
X115009263Y-32422674D01*
X114995902Y-32429238D01*
X114982189Y-32435448D01*
X114968123Y-32441288D01*
X114953702Y-32446745D01*
X114938925Y-32451803D01*
X114923790Y-32456448D01*
X114908297Y-32460667D01*
X114892443Y-32464443D01*
X114876227Y-32467763D01*
X114859648Y-32470612D01*
X114842704Y-32472976D01*
X114825394Y-32474840D01*
X114807716Y-32476189D01*
X114789669Y-32477009D01*
X114771251Y-32477286D01*
X114721250Y-32475697D01*
X114672621Y-32470899D01*
X114625620Y-32462845D01*
X114580503Y-32451489D01*
X114537525Y-32436784D01*
X114516918Y-32428162D01*
X114496942Y-32418685D01*
X114477629Y-32408347D01*
X114459010Y-32397143D01*
X114441119Y-32385068D01*
X114423985Y-32372114D01*
X114407643Y-32358277D01*
X114392123Y-32343550D01*
X114377458Y-32327928D01*
X114363679Y-32311404D01*
X114350819Y-32293974D01*
X114338909Y-32275631D01*
X114327982Y-32256370D01*
X114318069Y-32236184D01*
X114309203Y-32215068D01*
X114301415Y-32193016D01*
X114294738Y-32170023D01*
X114289203Y-32146081D01*
X114284842Y-32121186D01*
X114281688Y-32095332D01*
X114279772Y-32068513D01*
X114279126Y-32040723D01*
X114279126Y-32024848D01*
X114279344Y-32016911D01*
X114279781Y-32001036D01*
X114691876Y-32001036D01*
X114691876Y-32016911D01*
X114692063Y-32026491D01*
X114692624Y-32035877D01*
X114693563Y-32045063D01*
X114694884Y-32054041D01*
X114696587Y-32062803D01*
X114698678Y-32071344D01*
X114701158Y-32079655D01*
X114704030Y-32087729D01*
X114707298Y-32095558D01*
X114710964Y-32103137D01*
X114715031Y-32110456D01*
X114719502Y-32117510D01*
X114724380Y-32124290D01*
X114729668Y-32130790D01*
X114735369Y-32137002D01*
X114741485Y-32142919D01*
X114748020Y-32148534D01*
X114754977Y-32153839D01*
X114762358Y-32158827D01*
X114770166Y-32163491D01*
X114778404Y-32167824D01*
X114787076Y-32171818D01*
X114796183Y-32175467D01*
X114805730Y-32178762D01*
X114815718Y-32181697D01*
X114826151Y-32184263D01*
X114837031Y-32186455D01*
X114848363Y-32188265D01*
X114860147Y-32189685D01*
X114872388Y-32190709D01*
X114885089Y-32191328D01*
X114898251Y-32191536D01*
X114924827Y-32189211D01*
X114950868Y-32185211D01*
X114976211Y-32179537D01*
X115000694Y-32172188D01*
X115024154Y-32163166D01*
X115046428Y-32152469D01*
X115057069Y-32146492D01*
X115067353Y-32140097D01*
X115077259Y-32133284D01*
X115086767Y-32126052D01*
X115095856Y-32118401D01*
X115104506Y-32110332D01*
X115112697Y-32101844D01*
X115120408Y-32092937D01*
X115127619Y-32083612D01*
X115134310Y-32073869D01*
X115140460Y-32063707D01*
X115146050Y-32053126D01*
X115151058Y-32042126D01*
X115155464Y-32030709D01*
X115159248Y-32018872D01*
X115162390Y-32006617D01*
X115164869Y-31993943D01*
X115166665Y-31980851D01*
X115167757Y-31967340D01*
X115168126Y-31953411D01*
X115168126Y-31810536D01*
X115001439Y-31810536D01*
X114963952Y-31811193D01*
X114928885Y-31813187D01*
X114896236Y-31816553D01*
X114866005Y-31821326D01*
X114838193Y-31827541D01*
X114812799Y-31835232D01*
X114789824Y-31844435D01*
X114779243Y-31849614D01*
X114769267Y-31855185D01*
X114759895Y-31861150D01*
X114751128Y-31867515D01*
X114742966Y-31874284D01*
X114735408Y-31881462D01*
X114728455Y-31889052D01*
X114722107Y-31897060D01*
X114716363Y-31905489D01*
X114711224Y-31914344D01*
X114706689Y-31923629D01*
X114702759Y-31933348D01*
X114699434Y-31943507D01*
X114696713Y-31954109D01*
X114694597Y-31965158D01*
X114693085Y-31976660D01*
X114692178Y-31988618D01*
X114691876Y-32001036D01*
X114279781Y-32001036D01*
X114280049Y-31991312D01*
X114282787Y-31959151D01*
X114287295Y-31928344D01*
X114293528Y-31898871D01*
X114301442Y-31870713D01*
X114310990Y-31843848D01*
X114322129Y-31818256D01*
X114334813Y-31793917D01*
X114348996Y-31770810D01*
X114364634Y-31748915D01*
X114381682Y-31728213D01*
X114400095Y-31708682D01*
X114419828Y-31690301D01*
X114440835Y-31673052D01*
X114463072Y-31656913D01*
X114486493Y-31641864D01*
X114511054Y-31627885D01*
X114536709Y-31614955D01*
X114563414Y-31603054D01*
X114591122Y-31592161D01*
X114619790Y-31582257D01*
X114649373Y-31573321D01*
X114679824Y-31565333D01*
X114711100Y-31558272D01*
X114743154Y-31552118D01*
X114775943Y-31546850D01*
X114843541Y-31538893D01*
X114913535Y-31534239D01*
X114985563Y-31532723D01*
X115168126Y-31532723D01*
X115168126Y-31461286D01*
X115167374Y-31433758D01*
X115165087Y-31407754D01*
X115161219Y-31383308D01*
X115158678Y-31371680D01*
X115155724Y-31360455D01*
X115152351Y-31349636D01*
X115148553Y-31339229D01*
X115144326Y-31329238D01*
X115139663Y-31319667D01*
X115134557Y-31310520D01*
X115129004Y-31301801D01*
X115122998Y-31293516D01*
X115116532Y-31285669D01*
X115109601Y-31278263D01*
X115102200Y-31271303D01*
X115094321Y-31264794D01*
X115085960Y-31258740D01*
X115077111Y-31253145D01*
X115067768Y-31248014D01*
X115057924Y-31243351D01*
X115047575Y-31239160D01*
X115036714Y-31235446D01*
X115025336Y-31232213D01*
X115013435Y-31229465D01*
X115001004Y-31227207D01*
X114988039Y-31225443D01*
X114974533Y-31224178D01*
X114960481Y-31223416D01*
X114945876Y-31223161D01*
X114932690Y-31223392D01*
X114919922Y-31224079D01*
X114907569Y-31225214D01*
X114895631Y-31226788D01*
X114884105Y-31228793D01*
X114872991Y-31231218D01*
X114862286Y-31234057D01*
X114851990Y-31237299D01*
X114842101Y-31240937D01*
X114832617Y-31244962D01*
X114823538Y-31249364D01*
X114814861Y-31254136D01*
X114806585Y-31259268D01*
X114798709Y-31264751D01*
X114791231Y-31270578D01*
X114784149Y-31276739D01*
X114777463Y-31283225D01*
X114771171Y-31290029D01*
X114765272Y-31297140D01*
X114759763Y-31304551D01*
X114754644Y-31312253D01*
X114749913Y-31320236D01*
X114745569Y-31328493D01*
X114741609Y-31337014D01*
X114738034Y-31345791D01*
X114734840Y-31354816D01*
X114729595Y-31373570D01*
X114725860Y-31393209D01*
X114723626Y-31413661D01*
X114326751Y-31413661D01*
X114330398Y-31382918D01*
X114335367Y-31353195D01*
X114341632Y-31324490D01*
X114349168Y-31296800D01*
X114357948Y-31270121D01*
X114367946Y-31244450D01*
X114379136Y-31219785D01*
X114391491Y-31196124D01*
X114404986Y-31173462D01*
X114419594Y-31151797D01*
X114435289Y-31131126D01*
X114452046Y-31111447D01*
X114469837Y-31092755D01*
X114488636Y-31075050D01*
X114508419Y-31058326D01*
X114529157Y-31042583D01*
X114550826Y-31027816D01*
X114573399Y-31014022D01*
X114596849Y-31001200D01*
X114621152Y-30989345D01*
X114646279Y-30978456D01*
X114672207Y-30968529D01*
X114698907Y-30959561D01*
X114726354Y-30951549D01*
X114754523Y-30944491D01*
X114783386Y-30938383D01*
X114812917Y-30933223D01*
X114843092Y-30929008D01*
X114873882Y-30925735D01*
X114905262Y-30923400D01*
X114969688Y-30921536D01*
X115035504Y-30923320D01*
G37*
G36*
X118152333Y-30915655D02*
G01*
X118213785Y-30921862D01*
X118273213Y-30932278D01*
X118330351Y-30946961D01*
X118357978Y-30955921D01*
X118384931Y-30965969D01*
X118411179Y-30977114D01*
X118436686Y-30989361D01*
X118461420Y-31002719D01*
X118485348Y-31017195D01*
X118508435Y-31032796D01*
X118530649Y-31049528D01*
X118551956Y-31067401D01*
X118572323Y-31086420D01*
X118591716Y-31106592D01*
X118610102Y-31127927D01*
X118627447Y-31150429D01*
X118643718Y-31174108D01*
X118658881Y-31198970D01*
X118672904Y-31225022D01*
X118685752Y-31252271D01*
X118697393Y-31280726D01*
X118707792Y-31310392D01*
X118716917Y-31341278D01*
X118724734Y-31373391D01*
X118731209Y-31406737D01*
X118736309Y-31441325D01*
X118740001Y-31477161D01*
X118343126Y-31477161D01*
X118338008Y-31450942D01*
X118331576Y-31425908D01*
X118323819Y-31402131D01*
X118314725Y-31379679D01*
X118304281Y-31358622D01*
X118298550Y-31348638D01*
X118292478Y-31339030D01*
X118286062Y-31329805D01*
X118279302Y-31320973D01*
X118272196Y-31312542D01*
X118264743Y-31304521D01*
X118256941Y-31296918D01*
X118248789Y-31289742D01*
X118240285Y-31283003D01*
X118231427Y-31276708D01*
X118222216Y-31270867D01*
X118212648Y-31265488D01*
X118202722Y-31260580D01*
X118192438Y-31256151D01*
X118181793Y-31252211D01*
X118170786Y-31248768D01*
X118159416Y-31245831D01*
X118147681Y-31243408D01*
X118135579Y-31241508D01*
X118123110Y-31240141D01*
X118110272Y-31239314D01*
X118097064Y-31239036D01*
X118080834Y-31239455D01*
X118064899Y-31240712D01*
X118049271Y-31242810D01*
X118033967Y-31245749D01*
X118018999Y-31249531D01*
X118004383Y-31254157D01*
X117990134Y-31259630D01*
X117976265Y-31265949D01*
X117962791Y-31273118D01*
X117949728Y-31281136D01*
X117937088Y-31290007D01*
X117924888Y-31299730D01*
X117913141Y-31310308D01*
X117901862Y-31321742D01*
X117891066Y-31334034D01*
X117880767Y-31347185D01*
X117870979Y-31361196D01*
X117861717Y-31376068D01*
X117852997Y-31391805D01*
X117844831Y-31408406D01*
X117837235Y-31425873D01*
X117830223Y-31444208D01*
X117823810Y-31463412D01*
X117818011Y-31483486D01*
X117812839Y-31504433D01*
X117808310Y-31526253D01*
X117804437Y-31548948D01*
X117801237Y-31572520D01*
X117798722Y-31596969D01*
X117796907Y-31622298D01*
X117795808Y-31648507D01*
X117795439Y-31675599D01*
X117795439Y-31723223D01*
X117796733Y-31777833D01*
X117800585Y-31828581D01*
X117806949Y-31875516D01*
X117815778Y-31918684D01*
X117827026Y-31958131D01*
X117833542Y-31976474D01*
X117840645Y-31993904D01*
X117848330Y-32010428D01*
X117856590Y-32026050D01*
X117865420Y-32040777D01*
X117874814Y-32054614D01*
X117884766Y-32067568D01*
X117895270Y-32079643D01*
X117906320Y-32090847D01*
X117917912Y-32101185D01*
X117930038Y-32110662D01*
X117942693Y-32119284D01*
X117955872Y-32127058D01*
X117969568Y-32133989D01*
X117983775Y-32140083D01*
X117998488Y-32145345D01*
X118013701Y-32149782D01*
X118029409Y-32153399D01*
X118062283Y-32158197D01*
X118097064Y-32159786D01*
X118110341Y-32159485D01*
X118123378Y-32158586D01*
X118136168Y-32157098D01*
X118148704Y-32155026D01*
X118160978Y-32152380D01*
X118172983Y-32149164D01*
X118184712Y-32145388D01*
X118196158Y-32141058D01*
X118207313Y-32136182D01*
X118218170Y-32130766D01*
X118228722Y-32124819D01*
X118238962Y-32118347D01*
X118248881Y-32111357D01*
X118258474Y-32103857D01*
X118267733Y-32095854D01*
X118276649Y-32087356D01*
X118285217Y-32078370D01*
X118293429Y-32068902D01*
X118301278Y-32058960D01*
X118308756Y-32048552D01*
X118315856Y-32037685D01*
X118322571Y-32026366D01*
X118328894Y-32014602D01*
X118334816Y-32002400D01*
X118340332Y-31989768D01*
X118345434Y-31976714D01*
X118350114Y-31963243D01*
X118354366Y-31949365D01*
X118358181Y-31935085D01*
X118361553Y-31920411D01*
X118364475Y-31905350D01*
X118366939Y-31889911D01*
X118747939Y-31889911D01*
X118745102Y-31922323D01*
X118741063Y-31954062D01*
X118735826Y-31985103D01*
X118729397Y-32015422D01*
X118721782Y-32044998D01*
X118712987Y-32073807D01*
X118703018Y-32101824D01*
X118691880Y-32129028D01*
X118679579Y-32155395D01*
X118666122Y-32180901D01*
X118651513Y-32205523D01*
X118635759Y-32229239D01*
X118618866Y-32252024D01*
X118600839Y-32273856D01*
X118581684Y-32294712D01*
X118561407Y-32314567D01*
X118540014Y-32333399D01*
X118517510Y-32351185D01*
X118493902Y-32367901D01*
X118469195Y-32383524D01*
X118443396Y-32398031D01*
X118416509Y-32411398D01*
X118388541Y-32423603D01*
X118359497Y-32434622D01*
X118329383Y-32444431D01*
X118298206Y-32453008D01*
X118265970Y-32460330D01*
X118232683Y-32466372D01*
X118198349Y-32471112D01*
X118162974Y-32474526D01*
X118126564Y-32476592D01*
X118089126Y-32477286D01*
X118050762Y-32476542D01*
X118013084Y-32474309D01*
X117976127Y-32470589D01*
X117939926Y-32465380D01*
X117904515Y-32458682D01*
X117869930Y-32450497D01*
X117836205Y-32440823D01*
X117803376Y-32429661D01*
X117771477Y-32417010D01*
X117740542Y-32402872D01*
X117710608Y-32387245D01*
X117681709Y-32370130D01*
X117653879Y-32351526D01*
X117627154Y-32331434D01*
X117601568Y-32309854D01*
X117577157Y-32286786D01*
X117553955Y-32262229D01*
X117531997Y-32236184D01*
X117511318Y-32208651D01*
X117491953Y-32179630D01*
X117473937Y-32149120D01*
X117457304Y-32117122D01*
X117442090Y-32083635D01*
X117428329Y-32048661D01*
X117416056Y-32012198D01*
X117405307Y-31974247D01*
X117396116Y-31934807D01*
X117388517Y-31893880D01*
X117382547Y-31851464D01*
X117378239Y-31807559D01*
X117375629Y-31762167D01*
X117374751Y-31715286D01*
X117374751Y-31691474D01*
X117375674Y-31644547D01*
X117378413Y-31599022D01*
X117382926Y-31554903D01*
X117389169Y-31512198D01*
X117397097Y-31470910D01*
X117406667Y-31431048D01*
X117417837Y-31392615D01*
X117430561Y-31355618D01*
X117444797Y-31320063D01*
X117460501Y-31285956D01*
X117477630Y-31253302D01*
X117496139Y-31222107D01*
X117515985Y-31192377D01*
X117537125Y-31164118D01*
X117559514Y-31137336D01*
X117583110Y-31112036D01*
X117607869Y-31088225D01*
X117633747Y-31065907D01*
X117660700Y-31045090D01*
X117688685Y-31025778D01*
X117717659Y-31007978D01*
X117747577Y-30991695D01*
X117778396Y-30976935D01*
X117810073Y-30963704D01*
X117842564Y-30952008D01*
X117875825Y-30941853D01*
X117909813Y-30933244D01*
X117944483Y-30926187D01*
X117979794Y-30920688D01*
X118015700Y-30916753D01*
X118052158Y-30914388D01*
X118089126Y-30913599D01*
X118152333Y-30915655D01*
G37*
G36*
X116596583Y-30915655D02*
G01*
X116658035Y-30921862D01*
X116717463Y-30932278D01*
X116774601Y-30946961D01*
X116802228Y-30955921D01*
X116829181Y-30965969D01*
X116855429Y-30977114D01*
X116880936Y-30989361D01*
X116905670Y-31002719D01*
X116929598Y-31017195D01*
X116952685Y-31032796D01*
X116974899Y-31049528D01*
X116996206Y-31067401D01*
X117016573Y-31086420D01*
X117035966Y-31106592D01*
X117054352Y-31127927D01*
X117071697Y-31150429D01*
X117087968Y-31174108D01*
X117103131Y-31198970D01*
X117117154Y-31225022D01*
X117130002Y-31252271D01*
X117141643Y-31280726D01*
X117152042Y-31310392D01*
X117161167Y-31341278D01*
X117168984Y-31373391D01*
X117175459Y-31406737D01*
X117180559Y-31441325D01*
X117184251Y-31477161D01*
X116787376Y-31477161D01*
X116782258Y-31450942D01*
X116775826Y-31425908D01*
X116768069Y-31402131D01*
X116758974Y-31379679D01*
X116748531Y-31358622D01*
X116742800Y-31348638D01*
X116736728Y-31339030D01*
X116730312Y-31329805D01*
X116723552Y-31320973D01*
X116716446Y-31312542D01*
X116708993Y-31304521D01*
X116701191Y-31296918D01*
X116693039Y-31289742D01*
X116684534Y-31283003D01*
X116675677Y-31276708D01*
X116666465Y-31270867D01*
X116656897Y-31265488D01*
X116646972Y-31260580D01*
X116636687Y-31256151D01*
X116626042Y-31252211D01*
X116615036Y-31248768D01*
X116603665Y-31245831D01*
X116591930Y-31243408D01*
X116579829Y-31241508D01*
X116567360Y-31240141D01*
X116554522Y-31239314D01*
X116541313Y-31239036D01*
X116525084Y-31239455D01*
X116509149Y-31240712D01*
X116493521Y-31242810D01*
X116478216Y-31245749D01*
X116463249Y-31249531D01*
X116448633Y-31254157D01*
X116434383Y-31259630D01*
X116420514Y-31265949D01*
X116407041Y-31273118D01*
X116393977Y-31281136D01*
X116381338Y-31290007D01*
X116369138Y-31299730D01*
X116357391Y-31310308D01*
X116346112Y-31321742D01*
X116335316Y-31334034D01*
X116325016Y-31347185D01*
X116315229Y-31361196D01*
X116305967Y-31376068D01*
X116297246Y-31391805D01*
X116289081Y-31408406D01*
X116281485Y-31425873D01*
X116274473Y-31444208D01*
X116268060Y-31463412D01*
X116262261Y-31483486D01*
X116257089Y-31504433D01*
X116252560Y-31526253D01*
X116248687Y-31548948D01*
X116245486Y-31572520D01*
X116242972Y-31596969D01*
X116241157Y-31622298D01*
X116240058Y-31648507D01*
X116239688Y-31675599D01*
X116239688Y-31723223D01*
X116240983Y-31777833D01*
X116244835Y-31828581D01*
X116251199Y-31875516D01*
X116260028Y-31918684D01*
X116271276Y-31958131D01*
X116277792Y-31976474D01*
X116284895Y-31993904D01*
X116292579Y-32010428D01*
X116300840Y-32026050D01*
X116309670Y-32040777D01*
X116319063Y-32054614D01*
X116329015Y-32067568D01*
X116339519Y-32079643D01*
X116350570Y-32090847D01*
X116362161Y-32101185D01*
X116374288Y-32110662D01*
X116386943Y-32119284D01*
X116400121Y-32127058D01*
X116413817Y-32133989D01*
X116428025Y-32140083D01*
X116442738Y-32145345D01*
X116457951Y-32149782D01*
X116473658Y-32153399D01*
X116506532Y-32158197D01*
X116541313Y-32159786D01*
X116554590Y-32159485D01*
X116567628Y-32158586D01*
X116580418Y-32157098D01*
X116592954Y-32155026D01*
X116605228Y-32152380D01*
X116617233Y-32149164D01*
X116628962Y-32145388D01*
X116640408Y-32141058D01*
X116651563Y-32136182D01*
X116662420Y-32130766D01*
X116672972Y-32124819D01*
X116683212Y-32118347D01*
X116693131Y-32111357D01*
X116702724Y-32103857D01*
X116711982Y-32095854D01*
X116720899Y-32087356D01*
X116729467Y-32078370D01*
X116737679Y-32068902D01*
X116745528Y-32058960D01*
X116753006Y-32048552D01*
X116760106Y-32037685D01*
X116766821Y-32026366D01*
X116773143Y-32014602D01*
X116779066Y-32002400D01*
X116784582Y-31989768D01*
X116789684Y-31976714D01*
X116794364Y-31963243D01*
X116798615Y-31949365D01*
X116802431Y-31935085D01*
X116805803Y-31920411D01*
X116808724Y-31905350D01*
X116811188Y-31889911D01*
X117192188Y-31889911D01*
X117189352Y-31922323D01*
X117185313Y-31954062D01*
X117180076Y-31985103D01*
X117173647Y-32015422D01*
X117166032Y-32044998D01*
X117157237Y-32073807D01*
X117147268Y-32101824D01*
X117136130Y-32129028D01*
X117123829Y-32155395D01*
X117110372Y-32180901D01*
X117095763Y-32205523D01*
X117080009Y-32229239D01*
X117063116Y-32252024D01*
X117045089Y-32273856D01*
X117025934Y-32294712D01*
X117005657Y-32314567D01*
X116984264Y-32333399D01*
X116961761Y-32351185D01*
X116938153Y-32367901D01*
X116913446Y-32383524D01*
X116887646Y-32398031D01*
X116860759Y-32411398D01*
X116832791Y-32423603D01*
X116803747Y-32434622D01*
X116773634Y-32444431D01*
X116742456Y-32453008D01*
X116710221Y-32460330D01*
X116676933Y-32466372D01*
X116642599Y-32471112D01*
X116607224Y-32474526D01*
X116570815Y-32476592D01*
X116533376Y-32477286D01*
X116495012Y-32476542D01*
X116457334Y-32474309D01*
X116420377Y-32470589D01*
X116384176Y-32465380D01*
X116348765Y-32458682D01*
X116314180Y-32450497D01*
X116280455Y-32440823D01*
X116247626Y-32429661D01*
X116215727Y-32417010D01*
X116184793Y-32402872D01*
X116154858Y-32387245D01*
X116125959Y-32370130D01*
X116098129Y-32351526D01*
X116071404Y-32331434D01*
X116045819Y-32309854D01*
X116021407Y-32286786D01*
X115998205Y-32262229D01*
X115976247Y-32236184D01*
X115955568Y-32208651D01*
X115936203Y-32179630D01*
X115918187Y-32149120D01*
X115901554Y-32117122D01*
X115886340Y-32083635D01*
X115872579Y-32048661D01*
X115860307Y-32012198D01*
X115849557Y-31974247D01*
X115840366Y-31934807D01*
X115832768Y-31893880D01*
X115826797Y-31851464D01*
X115822489Y-31807559D01*
X115819879Y-31762167D01*
X115819001Y-31715286D01*
X115819001Y-31691474D01*
X115819924Y-31644547D01*
X115822664Y-31599022D01*
X115827176Y-31554903D01*
X115833419Y-31512198D01*
X115841347Y-31470910D01*
X115850918Y-31431048D01*
X115862087Y-31392615D01*
X115874811Y-31355618D01*
X115889048Y-31320063D01*
X115904751Y-31285956D01*
X115921880Y-31253302D01*
X115940389Y-31222107D01*
X115960235Y-31192377D01*
X115981375Y-31164118D01*
X116003764Y-31137336D01*
X116027360Y-31112036D01*
X116052119Y-31088225D01*
X116077997Y-31065907D01*
X116104950Y-31045090D01*
X116132935Y-31025778D01*
X116161909Y-31007978D01*
X116191827Y-30991695D01*
X116222646Y-30976935D01*
X116254323Y-30963704D01*
X116286814Y-30952008D01*
X116320075Y-30941853D01*
X116354063Y-30933244D01*
X116388734Y-30926187D01*
X116424044Y-30920688D01*
X116459950Y-30916753D01*
X116496409Y-30914388D01*
X116533376Y-30913599D01*
X116596583Y-30915655D01*
G37*
G36*
X126627582Y-30916038D02*
G01*
X126694879Y-30923443D01*
X126727721Y-30929047D01*
X126759966Y-30935940D01*
X126791568Y-30944138D01*
X126822483Y-30953658D01*
X126852666Y-30964515D01*
X126882071Y-30976724D01*
X126910653Y-30990303D01*
X126938368Y-31005267D01*
X126965170Y-31021632D01*
X126991014Y-31039414D01*
X127015855Y-31058629D01*
X127039648Y-31079294D01*
X127062349Y-31101423D01*
X127083911Y-31125033D01*
X127104291Y-31150140D01*
X127123442Y-31176760D01*
X127141320Y-31204910D01*
X127157880Y-31234604D01*
X127173076Y-31265859D01*
X127186864Y-31298691D01*
X127199199Y-31333116D01*
X127210035Y-31369150D01*
X127219328Y-31406809D01*
X127227032Y-31446108D01*
X127233103Y-31487065D01*
X127237495Y-31529694D01*
X127240163Y-31574012D01*
X127241063Y-31620036D01*
X127241063Y-31802598D01*
X126272689Y-31802598D01*
X126276863Y-31851262D01*
X126283385Y-31896112D01*
X126292187Y-31937241D01*
X126297421Y-31956439D01*
X126303198Y-31974743D01*
X126309510Y-31992162D01*
X126316348Y-32008709D01*
X126323704Y-32024397D01*
X126331568Y-32039235D01*
X126339933Y-32053236D01*
X126348788Y-32066411D01*
X126358126Y-32078773D01*
X126367938Y-32090332D01*
X126378215Y-32101101D01*
X126388948Y-32111091D01*
X126400129Y-32120313D01*
X126411749Y-32128780D01*
X126423800Y-32136502D01*
X126436271Y-32143492D01*
X126449156Y-32149761D01*
X126462444Y-32155321D01*
X126476128Y-32160183D01*
X126490198Y-32164359D01*
X126519464Y-32170700D01*
X126550171Y-32174436D01*
X126582250Y-32175661D01*
X126596924Y-32175407D01*
X126611183Y-32174655D01*
X126625028Y-32173417D01*
X126638464Y-32171707D01*
X126651493Y-32169538D01*
X126664117Y-32166923D01*
X126676341Y-32163874D01*
X126688166Y-32160406D01*
X126699596Y-32156530D01*
X126710634Y-32152261D01*
X126721282Y-32147611D01*
X126731544Y-32142593D01*
X126750918Y-32131506D01*
X126768782Y-32119106D01*
X126785157Y-32105496D01*
X126800067Y-32090782D01*
X126813535Y-32075068D01*
X126825584Y-32058458D01*
X126836239Y-32041058D01*
X126845521Y-32022972D01*
X126853454Y-32004305D01*
X126860062Y-31985160D01*
X127249000Y-31985160D01*
X127242559Y-32011015D01*
X127235143Y-32036469D01*
X127226752Y-32061497D01*
X127217390Y-32086069D01*
X127207056Y-32110159D01*
X127195754Y-32133739D01*
X127183483Y-32156781D01*
X127170245Y-32179257D01*
X127156043Y-32201141D01*
X127140877Y-32222404D01*
X127124749Y-32243019D01*
X127107660Y-32262958D01*
X127089612Y-32282193D01*
X127070606Y-32300698D01*
X127050644Y-32318443D01*
X127029727Y-32335403D01*
X127007856Y-32351549D01*
X126985034Y-32366853D01*
X126961261Y-32381288D01*
X126936539Y-32394826D01*
X126910869Y-32407440D01*
X126884253Y-32419101D01*
X126856693Y-32429784D01*
X126828189Y-32439459D01*
X126798744Y-32448099D01*
X126768358Y-32455677D01*
X126737033Y-32462164D01*
X126704771Y-32467535D01*
X126671572Y-32471759D01*
X126637439Y-32474811D01*
X126602374Y-32476663D01*
X126566376Y-32477286D01*
X126526593Y-32476542D01*
X126487629Y-32474311D01*
X126449514Y-32470595D01*
X126412277Y-32465395D01*
X126375947Y-32458713D01*
X126340553Y-32450549D01*
X126306124Y-32440906D01*
X126272689Y-32429785D01*
X126240277Y-32417187D01*
X126208917Y-32403114D01*
X126178639Y-32387567D01*
X126149471Y-32370548D01*
X126121443Y-32352058D01*
X126094583Y-32332099D01*
X126068921Y-32310672D01*
X126044485Y-32287778D01*
X126021305Y-32263419D01*
X125999410Y-32237597D01*
X125978829Y-32210313D01*
X125959591Y-32181567D01*
X125941725Y-32151363D01*
X125925260Y-32119701D01*
X125910225Y-32086583D01*
X125896649Y-32052009D01*
X125884561Y-32015983D01*
X125873991Y-31978504D01*
X125864968Y-31939575D01*
X125857519Y-31899197D01*
X125851676Y-31857371D01*
X125847466Y-31814100D01*
X125844918Y-31769383D01*
X125844063Y-31723223D01*
X125844063Y-31691473D01*
X125844963Y-31645245D01*
X125847638Y-31600330D01*
X125852049Y-31556737D01*
X125856665Y-31524786D01*
X126264750Y-31524786D01*
X126828313Y-31524786D01*
X126825716Y-31484594D01*
X126820934Y-31447333D01*
X126817737Y-31429787D01*
X126814012Y-31412955D01*
X126809763Y-31396833D01*
X126804997Y-31381415D01*
X126799719Y-31366694D01*
X126793935Y-31352665D01*
X126787652Y-31339321D01*
X126780874Y-31326658D01*
X126773608Y-31314670D01*
X126765860Y-31303350D01*
X126757634Y-31292693D01*
X126748938Y-31282692D01*
X126739777Y-31273343D01*
X126730157Y-31264639D01*
X126720083Y-31256575D01*
X126709561Y-31249144D01*
X126698597Y-31242341D01*
X126687198Y-31236160D01*
X126675368Y-31230596D01*
X126663114Y-31225641D01*
X126650442Y-31221292D01*
X126637356Y-31217541D01*
X126623864Y-31214383D01*
X126609970Y-31211813D01*
X126581003Y-31208410D01*
X126550501Y-31207286D01*
X126526799Y-31209544D01*
X126503387Y-31213441D01*
X126480371Y-31219128D01*
X126469044Y-31222691D01*
X126457855Y-31226758D01*
X126446817Y-31231348D01*
X126435943Y-31236480D01*
X126425247Y-31242173D01*
X126414741Y-31248446D01*
X126404439Y-31255318D01*
X126394353Y-31262808D01*
X126384497Y-31270934D01*
X126374883Y-31279716D01*
X126365525Y-31289172D01*
X126356437Y-31299321D01*
X126347630Y-31310182D01*
X126339118Y-31321775D01*
X126330914Y-31334117D01*
X126323032Y-31347229D01*
X126315483Y-31361128D01*
X126308282Y-31375834D01*
X126301442Y-31391365D01*
X126294975Y-31407741D01*
X126288895Y-31424980D01*
X126283214Y-31443101D01*
X126277946Y-31462123D01*
X126273104Y-31482066D01*
X126268701Y-31502947D01*
X126264750Y-31524786D01*
X125856665Y-31524786D01*
X125858155Y-31514476D01*
X125865918Y-31473559D01*
X125875299Y-31433995D01*
X125886259Y-31395794D01*
X125898757Y-31358966D01*
X125912755Y-31323523D01*
X125928214Y-31289473D01*
X125945095Y-31256827D01*
X125963358Y-31225595D01*
X125982963Y-31195787D01*
X126003872Y-31167414D01*
X126026046Y-31140486D01*
X126049445Y-31115012D01*
X126074030Y-31091004D01*
X126099762Y-31068471D01*
X126126601Y-31047423D01*
X126154508Y-31027870D01*
X126183445Y-31009824D01*
X126213371Y-30993293D01*
X126244248Y-30978288D01*
X126276036Y-30964820D01*
X126308696Y-30952898D01*
X126342189Y-30942533D01*
X126376475Y-30933734D01*
X126411516Y-30926512D01*
X126447272Y-30920878D01*
X126483703Y-30916840D01*
X126520772Y-30914411D01*
X126558437Y-30913598D01*
X126627582Y-30916038D01*
G37*
G36*
X119714021Y-30916038D02*
G01*
X119781317Y-30923443D01*
X119814159Y-30929047D01*
X119846404Y-30935940D01*
X119878006Y-30944138D01*
X119908921Y-30953658D01*
X119939104Y-30964515D01*
X119968509Y-30976724D01*
X119997091Y-30990303D01*
X120024806Y-31005267D01*
X120051608Y-31021632D01*
X120077452Y-31039414D01*
X120102293Y-31058629D01*
X120126086Y-31079294D01*
X120148787Y-31101423D01*
X120170349Y-31125033D01*
X120190728Y-31150140D01*
X120209880Y-31176760D01*
X120227758Y-31204910D01*
X120244317Y-31234604D01*
X120259514Y-31265859D01*
X120273302Y-31298691D01*
X120285637Y-31333116D01*
X120296473Y-31369150D01*
X120305766Y-31406809D01*
X120313470Y-31446108D01*
X120319541Y-31487065D01*
X120323933Y-31529694D01*
X120326601Y-31574012D01*
X120327500Y-31620036D01*
X120327500Y-31802598D01*
X119351188Y-31802598D01*
X119355362Y-31851262D01*
X119361885Y-31896112D01*
X119370687Y-31937241D01*
X119375921Y-31956439D01*
X119381698Y-31974743D01*
X119388010Y-31992162D01*
X119394848Y-32008709D01*
X119402204Y-32024397D01*
X119410068Y-32039235D01*
X119418433Y-32053236D01*
X119427288Y-32066411D01*
X119436626Y-32078773D01*
X119446438Y-32090332D01*
X119456715Y-32101101D01*
X119467448Y-32111091D01*
X119478629Y-32120313D01*
X119490249Y-32128780D01*
X119502300Y-32136502D01*
X119514771Y-32143492D01*
X119527656Y-32149761D01*
X119540944Y-32155321D01*
X119554628Y-32160183D01*
X119568698Y-32164359D01*
X119597964Y-32170700D01*
X119628671Y-32174436D01*
X119660751Y-32175661D01*
X119675425Y-32175407D01*
X119689683Y-32174655D01*
X119703529Y-32173417D01*
X119716964Y-32171707D01*
X119729993Y-32169538D01*
X119742618Y-32166923D01*
X119754842Y-32163874D01*
X119766667Y-32160406D01*
X119778097Y-32156530D01*
X119789134Y-32152261D01*
X119799783Y-32147611D01*
X119810044Y-32142593D01*
X119829419Y-32131506D01*
X119847282Y-32119106D01*
X119863657Y-32105496D01*
X119878567Y-32090782D01*
X119892035Y-32075068D01*
X119904085Y-32058458D01*
X119914739Y-32041058D01*
X119924022Y-32022972D01*
X119931955Y-32004305D01*
X119938564Y-31985160D01*
X120327501Y-31985160D01*
X120322480Y-32011015D01*
X120316349Y-32036469D01*
X120309116Y-32061497D01*
X120300790Y-32086069D01*
X120291376Y-32110159D01*
X120280882Y-32133739D01*
X120269315Y-32156781D01*
X120256683Y-32179257D01*
X120242994Y-32201141D01*
X120228253Y-32222404D01*
X120212469Y-32243019D01*
X120195648Y-32262958D01*
X120177799Y-32282193D01*
X120158928Y-32300698D01*
X120139042Y-32318443D01*
X120118149Y-32335403D01*
X120096256Y-32351549D01*
X120073371Y-32366853D01*
X120049500Y-32381288D01*
X120024651Y-32394826D01*
X119998831Y-32407440D01*
X119972047Y-32419101D01*
X119944308Y-32429784D01*
X119915619Y-32439459D01*
X119885988Y-32448099D01*
X119855423Y-32455677D01*
X119823930Y-32462164D01*
X119791518Y-32467535D01*
X119758193Y-32471759D01*
X119723962Y-32474811D01*
X119688833Y-32476663D01*
X119652813Y-32477286D01*
X119613030Y-32476542D01*
X119574066Y-32474311D01*
X119535951Y-32470595D01*
X119498714Y-32465395D01*
X119462384Y-32458713D01*
X119426990Y-32450549D01*
X119392561Y-32440906D01*
X119359126Y-32429785D01*
X119326714Y-32417187D01*
X119295354Y-32403114D01*
X119265076Y-32387567D01*
X119235908Y-32370548D01*
X119207880Y-32352058D01*
X119181020Y-32332099D01*
X119155358Y-32310672D01*
X119130922Y-32287778D01*
X119107743Y-32263419D01*
X119085848Y-32237597D01*
X119065267Y-32210313D01*
X119046028Y-32181567D01*
X119028162Y-32151363D01*
X119011697Y-32119701D01*
X118996662Y-32086583D01*
X118983087Y-32052009D01*
X118970999Y-32015983D01*
X118960429Y-31978504D01*
X118951405Y-31939575D01*
X118943957Y-31899197D01*
X118938114Y-31857371D01*
X118933904Y-31814100D01*
X118931356Y-31769383D01*
X118930501Y-31723223D01*
X118930501Y-31691473D01*
X118931401Y-31645245D01*
X118934076Y-31600330D01*
X118938486Y-31556737D01*
X118943103Y-31524786D01*
X119359126Y-31524786D01*
X119914751Y-31524786D01*
X119912154Y-31484594D01*
X119907371Y-31447333D01*
X119904175Y-31429787D01*
X119900449Y-31412955D01*
X119896200Y-31396833D01*
X119891434Y-31381415D01*
X119886156Y-31366694D01*
X119880373Y-31352665D01*
X119874089Y-31339321D01*
X119867312Y-31326658D01*
X119860046Y-31314670D01*
X119852297Y-31303350D01*
X119844072Y-31292693D01*
X119835376Y-31282692D01*
X119826214Y-31273343D01*
X119816594Y-31264639D01*
X119806520Y-31256575D01*
X119795998Y-31249144D01*
X119785035Y-31242341D01*
X119773635Y-31236160D01*
X119761806Y-31230596D01*
X119749552Y-31225641D01*
X119736879Y-31221292D01*
X119723794Y-31217541D01*
X119710301Y-31214383D01*
X119696408Y-31211813D01*
X119667440Y-31208410D01*
X119636939Y-31207286D01*
X119613238Y-31209544D01*
X119589841Y-31213441D01*
X119566861Y-31219128D01*
X119555565Y-31222691D01*
X119544417Y-31226758D01*
X119533432Y-31231348D01*
X119522624Y-31236480D01*
X119512007Y-31242173D01*
X119501598Y-31248446D01*
X119491409Y-31255318D01*
X119481456Y-31262808D01*
X119471752Y-31270934D01*
X119462313Y-31279716D01*
X119453153Y-31289172D01*
X119444287Y-31299321D01*
X119435729Y-31310182D01*
X119427494Y-31321775D01*
X119419595Y-31334117D01*
X119412049Y-31347229D01*
X119404869Y-31361128D01*
X119398069Y-31375834D01*
X119391665Y-31391365D01*
X119385671Y-31407741D01*
X119380101Y-31424980D01*
X119374970Y-31443101D01*
X119370292Y-31462123D01*
X119366083Y-31482066D01*
X119362356Y-31502947D01*
X119359126Y-31524786D01*
X118943103Y-31524786D01*
X118944593Y-31514476D01*
X118952356Y-31473559D01*
X118961737Y-31433995D01*
X118972697Y-31395794D01*
X118985195Y-31358966D01*
X118999193Y-31323523D01*
X119014653Y-31289473D01*
X119031533Y-31256827D01*
X119049796Y-31225595D01*
X119069401Y-31195787D01*
X119090311Y-31167414D01*
X119112484Y-31140486D01*
X119135883Y-31115012D01*
X119160468Y-31091004D01*
X119186200Y-31068471D01*
X119213039Y-31047423D01*
X119240947Y-31027870D01*
X119269883Y-31009824D01*
X119299809Y-30993293D01*
X119330686Y-30978288D01*
X119362474Y-30964820D01*
X119395134Y-30952898D01*
X119428627Y-30942533D01*
X119462914Y-30933734D01*
X119497954Y-30926512D01*
X119533710Y-30920878D01*
X119570142Y-30916840D01*
X119607210Y-30914411D01*
X119644876Y-30913598D01*
X119714021Y-30916038D01*
G37*
G36*
X121479668Y-30922025D02*
G01*
X121504181Y-30923495D01*
X121528148Y-30925950D01*
X121551550Y-30929396D01*
X121574372Y-30933835D01*
X121596594Y-30939273D01*
X121618200Y-30945714D01*
X121639173Y-30953162D01*
X121659494Y-30961621D01*
X121679147Y-30971097D01*
X121698114Y-30981592D01*
X121716377Y-30993113D01*
X121733920Y-31005662D01*
X121750724Y-31019245D01*
X121766772Y-31033865D01*
X121782048Y-31049528D01*
X121796532Y-31066237D01*
X121810209Y-31083997D01*
X121823060Y-31102812D01*
X121835068Y-31122686D01*
X121846215Y-31143625D01*
X121856485Y-31165631D01*
X121865859Y-31188711D01*
X121874321Y-31212867D01*
X121881852Y-31238104D01*
X121888436Y-31264428D01*
X121894055Y-31291841D01*
X121898691Y-31320349D01*
X121902328Y-31349955D01*
X121904947Y-31380665D01*
X121906531Y-31412482D01*
X121907063Y-31445411D01*
X121907063Y-32445536D01*
X121486375Y-32445536D01*
X121486375Y-31508911D01*
X121485536Y-31477281D01*
X121483011Y-31447860D01*
X121478789Y-31420625D01*
X121476037Y-31407821D01*
X121472857Y-31395553D01*
X121469246Y-31383821D01*
X121465204Y-31372621D01*
X121460729Y-31361949D01*
X121455819Y-31351804D01*
X121450473Y-31342182D01*
X121444690Y-31333080D01*
X121438468Y-31324496D01*
X121431805Y-31316426D01*
X121424701Y-31308868D01*
X121417153Y-31301819D01*
X121409160Y-31295275D01*
X121400722Y-31289234D01*
X121391835Y-31283693D01*
X121382500Y-31278650D01*
X121372714Y-31274100D01*
X121362476Y-31270042D01*
X121351784Y-31266472D01*
X121340638Y-31263387D01*
X121329035Y-31260785D01*
X121316975Y-31258662D01*
X121304455Y-31257017D01*
X121291474Y-31255845D01*
X121264125Y-31254911D01*
X121237638Y-31255938D01*
X121224648Y-31257226D01*
X121211849Y-31259035D01*
X121199260Y-31261366D01*
X121186897Y-31264224D01*
X121174779Y-31267611D01*
X121162922Y-31271530D01*
X121151344Y-31275984D01*
X121140063Y-31280975D01*
X121129095Y-31286507D01*
X121118459Y-31292583D01*
X121108172Y-31299205D01*
X121098251Y-31306377D01*
X121088714Y-31314100D01*
X121079578Y-31322380D01*
X121070860Y-31331217D01*
X121062579Y-31340615D01*
X121054751Y-31350577D01*
X121047394Y-31361106D01*
X121040525Y-31372204D01*
X121034162Y-31383876D01*
X121028322Y-31396123D01*
X121023023Y-31408948D01*
X121018282Y-31422354D01*
X121014117Y-31436345D01*
X121010544Y-31450923D01*
X121007582Y-31466092D01*
X121005248Y-31481853D01*
X121003559Y-31498210D01*
X121002533Y-31515166D01*
X121002187Y-31532723D01*
X121002187Y-32445536D01*
X120581500Y-32445536D01*
X120581500Y-30953286D01*
X121002188Y-30953286D01*
X121002188Y-31175536D01*
X121016513Y-31149138D01*
X121024373Y-31136255D01*
X121032698Y-31123601D01*
X121041488Y-31111191D01*
X121050744Y-31099040D01*
X121060464Y-31087163D01*
X121070650Y-31075573D01*
X121081300Y-31064285D01*
X121092416Y-31053315D01*
X121103996Y-31042675D01*
X121116042Y-31032382D01*
X121128553Y-31022449D01*
X121141529Y-31012891D01*
X121154970Y-31003722D01*
X121168876Y-30994958D01*
X121183247Y-30986612D01*
X121198084Y-30978699D01*
X121213385Y-30971234D01*
X121229152Y-30964231D01*
X121245383Y-30957705D01*
X121262080Y-30951670D01*
X121279242Y-30946140D01*
X121296868Y-30941131D01*
X121314960Y-30936657D01*
X121333517Y-30932733D01*
X121352539Y-30929372D01*
X121372026Y-30926590D01*
X121391979Y-30924400D01*
X121412396Y-30922819D01*
X121433278Y-30921859D01*
X121454626Y-30921536D01*
X121479668Y-30922025D01*
G37*
G36*
X123637438Y-31905786D02*
G01*
X123638275Y-31937416D01*
X123640787Y-31966836D01*
X123644973Y-31994071D01*
X123647693Y-32006876D01*
X123650833Y-32019143D01*
X123654391Y-32030876D01*
X123658367Y-32042076D01*
X123662762Y-32052747D01*
X123667576Y-32062893D01*
X123672808Y-32072514D01*
X123678459Y-32081616D01*
X123684528Y-32090200D01*
X123691016Y-32098270D01*
X123697923Y-32105828D01*
X123705248Y-32112878D01*
X123712992Y-32119422D01*
X123721154Y-32125462D01*
X123729735Y-32131003D01*
X123738734Y-32136047D01*
X123748152Y-32140597D01*
X123757989Y-32144655D01*
X123768244Y-32148225D01*
X123778918Y-32151310D01*
X123790010Y-32153912D01*
X123801521Y-32156034D01*
X123813451Y-32157680D01*
X123825799Y-32158852D01*
X123851751Y-32159786D01*
X123865072Y-32159507D01*
X123878237Y-32158672D01*
X123891228Y-32157281D01*
X123904026Y-32155336D01*
X123916616Y-32152840D01*
X123928978Y-32149792D01*
X123941097Y-32146195D01*
X123952954Y-32142050D01*
X123964531Y-32137359D01*
X123975813Y-32132123D01*
X123986780Y-32126343D01*
X123997416Y-32120021D01*
X124007703Y-32113158D01*
X124017624Y-32105756D01*
X124027161Y-32097816D01*
X124036297Y-32089341D01*
X124045015Y-32080330D01*
X124053296Y-32070785D01*
X124061124Y-32060709D01*
X124068481Y-32050103D01*
X124075350Y-32038967D01*
X124081713Y-32027304D01*
X124087553Y-32015114D01*
X124092852Y-32002400D01*
X124097593Y-31989163D01*
X124101758Y-31975404D01*
X124105331Y-31961124D01*
X124108293Y-31946326D01*
X124110627Y-31931010D01*
X124112316Y-31915179D01*
X124113342Y-31898833D01*
X124113688Y-31881973D01*
X124113688Y-30953286D01*
X124534376Y-30953286D01*
X124534376Y-32445536D01*
X124121625Y-32445536D01*
X124121625Y-32223286D01*
X124107392Y-32249683D01*
X124091472Y-32275220D01*
X124073855Y-32299781D01*
X124064406Y-32311659D01*
X124054529Y-32323249D01*
X124044221Y-32334536D01*
X124033481Y-32345507D01*
X124022309Y-32356146D01*
X124010702Y-32366440D01*
X123998659Y-32376373D01*
X123986178Y-32385931D01*
X123973259Y-32395099D01*
X123959899Y-32403864D01*
X123946097Y-32412210D01*
X123931852Y-32420123D01*
X123917162Y-32427588D01*
X123902026Y-32434591D01*
X123886443Y-32441117D01*
X123870410Y-32447152D01*
X123853927Y-32452681D01*
X123836991Y-32457690D01*
X123819603Y-32462164D01*
X123801759Y-32466089D01*
X123783459Y-32469450D01*
X123764701Y-32472232D01*
X123745484Y-32474421D01*
X123725806Y-32476003D01*
X123705666Y-32476963D01*
X123685063Y-32477286D01*
X123659975Y-32476797D01*
X123635329Y-32475329D01*
X123611149Y-32472878D01*
X123587456Y-32469441D01*
X123564276Y-32465017D01*
X123541630Y-32459601D01*
X123519542Y-32453191D01*
X123498035Y-32445784D01*
X123477134Y-32437377D01*
X123456860Y-32427967D01*
X123437237Y-32417552D01*
X123418288Y-32406127D01*
X123400038Y-32393692D01*
X123382508Y-32380241D01*
X123365722Y-32365774D01*
X123349704Y-32350286D01*
X123334476Y-32333775D01*
X123320062Y-32316238D01*
X123306485Y-32297671D01*
X123293769Y-32278073D01*
X123281936Y-32257440D01*
X123271011Y-32235770D01*
X123261015Y-32213058D01*
X123251973Y-32189303D01*
X123243908Y-32164502D01*
X123236842Y-32138652D01*
X123230800Y-32111749D01*
X123225804Y-32083791D01*
X123221878Y-32054774D01*
X123219045Y-32024697D01*
X123217328Y-31993556D01*
X123216751Y-31961348D01*
X123216751Y-30953286D01*
X123637438Y-30953286D01*
X123637438Y-31905786D01*
G37*
G36*
X122677001Y-30953286D02*
G01*
X122962751Y-30953286D01*
X122962751Y-31262848D01*
X122677001Y-31262848D01*
X122677001Y-31969286D01*
X122677561Y-31989471D01*
X122679249Y-32008353D01*
X122680519Y-32017306D01*
X122682076Y-32025933D01*
X122683921Y-32034235D01*
X122686054Y-32042211D01*
X122688479Y-32049862D01*
X122691196Y-32057187D01*
X122694206Y-32064187D01*
X122697511Y-32070861D01*
X122701113Y-32077209D01*
X122705013Y-32083232D01*
X122709212Y-32088929D01*
X122713712Y-32094301D01*
X122718514Y-32099347D01*
X122723620Y-32104068D01*
X122729031Y-32108463D01*
X122734749Y-32112533D01*
X122740775Y-32116277D01*
X122747111Y-32119695D01*
X122753757Y-32122788D01*
X122760716Y-32125555D01*
X122767990Y-32127997D01*
X122775578Y-32130113D01*
X122783483Y-32131903D01*
X122791707Y-32133368D01*
X122800250Y-32134508D01*
X122809115Y-32135322D01*
X122818302Y-32135810D01*
X122827813Y-32135973D01*
X122850556Y-32135601D01*
X122861178Y-32135136D01*
X122871346Y-32134485D01*
X122881095Y-32133648D01*
X122890461Y-32132624D01*
X122899478Y-32131415D01*
X122908181Y-32130020D01*
X122916605Y-32128439D01*
X122924785Y-32126671D01*
X122932755Y-32124718D01*
X122940551Y-32122579D01*
X122948208Y-32120253D01*
X122955760Y-32117742D01*
X122970689Y-32112161D01*
X122970689Y-32437598D01*
X122961300Y-32440571D01*
X122951016Y-32443520D01*
X122927901Y-32449256D01*
X122901623Y-32454620D01*
X122887386Y-32457105D01*
X122872462Y-32459426D01*
X122856888Y-32461562D01*
X122840697Y-32463488D01*
X122823925Y-32465182D01*
X122806606Y-32466620D01*
X122788775Y-32467779D01*
X122770468Y-32468635D01*
X122751719Y-32469166D01*
X122732564Y-32469348D01*
X122673585Y-32467581D01*
X122645619Y-32465372D01*
X122618664Y-32462279D01*
X122592714Y-32458302D01*
X122567766Y-32453442D01*
X122543814Y-32447698D01*
X122520856Y-32441071D01*
X122498885Y-32433560D01*
X122477899Y-32425165D01*
X122457892Y-32415886D01*
X122438861Y-32405724D01*
X122420800Y-32394678D01*
X122403706Y-32382749D01*
X122387574Y-32369936D01*
X122372400Y-32356239D01*
X122358179Y-32341658D01*
X122344907Y-32326194D01*
X122332580Y-32309846D01*
X122321193Y-32292615D01*
X122310743Y-32274499D01*
X122301224Y-32255501D01*
X122292632Y-32235618D01*
X122284963Y-32214852D01*
X122278213Y-32193202D01*
X122272377Y-32170669D01*
X122267450Y-32147251D01*
X122263430Y-32122951D01*
X122260310Y-32097766D01*
X122258087Y-32071698D01*
X122256314Y-32016911D01*
X122256314Y-31262848D01*
X122081689Y-31262848D01*
X122081689Y-30953286D01*
X122256314Y-30953286D01*
X122256314Y-30675473D01*
X122677001Y-30500848D01*
X122677001Y-30953286D01*
G37*
G36*
X125717063Y-31350161D02*
G01*
X125664892Y-31351201D01*
X125615581Y-31354393D01*
X125569200Y-31359840D01*
X125525819Y-31367648D01*
X125485508Y-31377921D01*
X125448336Y-31390763D01*
X125430949Y-31398180D01*
X125414373Y-31406280D01*
X125398617Y-31415073D01*
X125383689Y-31424575D01*
X125369598Y-31434797D01*
X125356353Y-31445754D01*
X125343963Y-31457457D01*
X125332436Y-31469921D01*
X125321781Y-31483158D01*
X125312007Y-31497181D01*
X125303123Y-31512003D01*
X125295136Y-31527638D01*
X125288057Y-31544099D01*
X125281893Y-31561398D01*
X125276654Y-31579549D01*
X125272347Y-31598564D01*
X125268983Y-31618458D01*
X125266568Y-31639242D01*
X125265114Y-31660930D01*
X125264627Y-31683536D01*
X125264627Y-32453473D01*
X124843938Y-32453473D01*
X124843938Y-30953286D01*
X125264627Y-30953286D01*
X125264627Y-31231098D01*
X125281655Y-31195099D01*
X125300020Y-31161506D01*
X125309715Y-31145608D01*
X125319757Y-31130308D01*
X125330151Y-31115604D01*
X125340901Y-31101494D01*
X125352012Y-31087977D01*
X125363487Y-31075052D01*
X125375331Y-31062716D01*
X125387549Y-31050970D01*
X125400145Y-31039810D01*
X125413123Y-31029237D01*
X125426488Y-31019247D01*
X125440243Y-31009840D01*
X125454394Y-31001015D01*
X125468945Y-30992770D01*
X125483900Y-30985103D01*
X125499263Y-30978013D01*
X125515039Y-30971499D01*
X125531232Y-30965558D01*
X125547846Y-30960191D01*
X125564887Y-30955394D01*
X125582357Y-30951167D01*
X125600262Y-30947509D01*
X125618606Y-30944417D01*
X125637394Y-30941891D01*
X125656629Y-30939929D01*
X125676316Y-30938529D01*
X125717063Y-30937411D01*
X125717063Y-31350161D01*
G37*
G36*
X123105626Y-29580098D02*
G01*
X123105626Y-29897598D01*
X121827688Y-30413536D01*
X121827688Y-30016661D01*
X122573813Y-29738848D01*
X121827688Y-29453098D01*
X121827688Y-29064161D01*
X123105626Y-29580098D01*
G37*
%TD*%
D11*
%TO.C,J6*%
X166875000Y-140695000D03*
D12*
X166875000Y-138155000D03*
%TD*%
D13*
%TO.C,J4*%
X161230331Y-119900495D03*
X161230331Y-56400495D03*
D14*
X159810331Y-113080495D03*
D15*
X159810331Y-110310495D03*
X159810331Y-107540495D03*
X159810331Y-104770495D03*
X159810331Y-102000495D03*
X159810331Y-99230495D03*
X159810331Y-96460495D03*
X159810331Y-93690495D03*
X159810331Y-90920495D03*
X159810331Y-88150495D03*
X159810331Y-85380495D03*
X159810331Y-82610495D03*
X159810331Y-79840495D03*
X159810331Y-77070495D03*
X159810331Y-74300495D03*
X159810331Y-71530495D03*
X159810331Y-68760495D03*
X159810331Y-65990495D03*
X159810331Y-63220495D03*
X162650331Y-111695495D03*
X162650331Y-108925495D03*
X162650331Y-106155495D03*
X162650331Y-103385495D03*
X162650331Y-100615495D03*
X162650331Y-97845495D03*
X162650331Y-95075495D03*
X162650331Y-92305495D03*
X162650331Y-89535495D03*
X162650331Y-86765495D03*
X162650331Y-83995495D03*
X162650331Y-81225495D03*
X162650331Y-78455495D03*
X162650331Y-75685495D03*
X162650331Y-72915495D03*
X162650331Y-70145495D03*
X162650331Y-67375495D03*
X162650331Y-64605495D03*
%TD*%
D16*
%TO.C,SJ1*%
X162075000Y-140224000D03*
X162075000Y-138700000D03*
%TD*%
D13*
%TO.C,J2*%
X86256274Y-131275000D03*
X149756274Y-131275000D03*
D14*
X93076274Y-129855000D03*
D15*
X95846274Y-129855000D03*
X98616274Y-129855000D03*
X101386274Y-129855000D03*
X104156274Y-129855000D03*
X106926274Y-129855000D03*
X109696274Y-129855000D03*
X112466274Y-129855000D03*
X115236274Y-129855000D03*
X118006274Y-129855000D03*
X120776274Y-129855000D03*
X123546274Y-129855000D03*
X126316274Y-129855000D03*
X129086274Y-129855000D03*
X131856274Y-129855000D03*
X134626274Y-129855000D03*
X137396274Y-129855000D03*
X140166274Y-129855000D03*
X142936274Y-129855000D03*
X94461274Y-132695000D03*
X97231274Y-132695000D03*
X100001274Y-132695000D03*
X102771274Y-132695000D03*
X105541274Y-132695000D03*
X108311274Y-132695000D03*
X111081274Y-132695000D03*
X113851274Y-132695000D03*
X116621274Y-132695000D03*
X119391274Y-132695000D03*
X122161274Y-132695000D03*
X124931274Y-132695000D03*
X127701274Y-132695000D03*
X130471274Y-132695000D03*
X133241274Y-132695000D03*
X136011274Y-132695000D03*
X138781274Y-132695000D03*
X141551274Y-132695000D03*
%TD*%
D13*
%TO.C,J3*%
X74790331Y-56400495D03*
X74790331Y-119900495D03*
D14*
X76210331Y-63220495D03*
D15*
X76210331Y-65990495D03*
X76210331Y-68760495D03*
X76210331Y-71530495D03*
X76210331Y-74300495D03*
X76210331Y-77070495D03*
X76210331Y-79840495D03*
X76210331Y-82610495D03*
X76210331Y-85380495D03*
X76210331Y-88150495D03*
X76210331Y-90920495D03*
X76210331Y-93690495D03*
X76210331Y-96460495D03*
X76210331Y-99230495D03*
X76210331Y-102000495D03*
X76210331Y-104770495D03*
X76210331Y-107540495D03*
X76210331Y-110310495D03*
X76210331Y-113080495D03*
X73370331Y-64605495D03*
X73370331Y-67375495D03*
X73370331Y-70145495D03*
X73370331Y-72915495D03*
X73370331Y-75685495D03*
X73370331Y-78455495D03*
X73370331Y-81225495D03*
X73370331Y-83995495D03*
X73370331Y-86765495D03*
X73370331Y-89535495D03*
X73370331Y-92305495D03*
X73370331Y-95075495D03*
X73370331Y-97845495D03*
X73370331Y-100615495D03*
X73370331Y-103385495D03*
X73370331Y-106155495D03*
X73370331Y-108925495D03*
X73370331Y-111695495D03*
%TD*%
D13*
%TO.C,J1*%
X149756274Y-44835000D03*
X86256274Y-44835000D03*
D14*
X142936274Y-46255000D03*
D15*
X140166274Y-46255000D03*
X137396274Y-46255000D03*
X134626274Y-46255000D03*
X131856274Y-46255000D03*
X129086274Y-46255000D03*
X126316274Y-46255000D03*
X123546274Y-46255000D03*
X120776274Y-46255000D03*
X118006274Y-46255000D03*
X115236274Y-46255000D03*
X112466274Y-46255000D03*
X109696274Y-46255000D03*
X106926274Y-46255000D03*
X104156274Y-46255000D03*
X101386274Y-46255000D03*
X98616274Y-46255000D03*
X95846274Y-46255000D03*
X93076274Y-46255000D03*
X141551274Y-43415000D03*
X138781274Y-43415000D03*
X136011274Y-43415000D03*
X133241274Y-43415000D03*
X130471274Y-43415000D03*
X127701274Y-43415000D03*
X124931274Y-43415000D03*
X122161274Y-43415000D03*
X119391274Y-43415000D03*
X116621274Y-43415000D03*
X113851274Y-43415000D03*
X111081274Y-43415000D03*
X108311274Y-43415000D03*
X105541274Y-43415000D03*
X102771274Y-43415000D03*
X100001274Y-43415000D03*
X97231274Y-43415000D03*
X94461274Y-43415000D03*
%TD*%
D17*
%TO.C,J5*%
X78696224Y-158698772D03*
D18*
X78696224Y-156158772D03*
X81236224Y-158698772D03*
X81236224Y-156158772D03*
X83776224Y-158698772D03*
X83776224Y-156158772D03*
X86316224Y-158698772D03*
X86326224Y-156158772D03*
X88856224Y-158698772D03*
X88856224Y-156158772D03*
X91396224Y-158698772D03*
X91396224Y-156158772D03*
X93936224Y-158698772D03*
X93936224Y-156158772D03*
X96476224Y-158698772D03*
X96476224Y-156158772D03*
X99016224Y-158698772D03*
X99016224Y-156158772D03*
X101556224Y-158698772D03*
X101556224Y-156158772D03*
X104096224Y-158698772D03*
X104096224Y-156158772D03*
X106636224Y-158698772D03*
X106636224Y-156158772D03*
X109176224Y-158698772D03*
X109176224Y-156158772D03*
X111716224Y-158698772D03*
X111726224Y-156158772D03*
X114256224Y-158698772D03*
X114256224Y-156158772D03*
X116796224Y-158698772D03*
X116796224Y-156158772D03*
X119336224Y-158698772D03*
X119336224Y-156158772D03*
X121876224Y-158698772D03*
X121876224Y-156158772D03*
X124416224Y-158698772D03*
X124416224Y-156158772D03*
X126956224Y-158698772D03*
X126956224Y-156158772D03*
X129496224Y-158698772D03*
X129496224Y-156158772D03*
X132036224Y-158698772D03*
X132036224Y-156158772D03*
D19*
X134576224Y-158698772D03*
D18*
X134576224Y-156158772D03*
X137116224Y-158698772D03*
X137126224Y-156158772D03*
X139656224Y-158698772D03*
X139656224Y-156158772D03*
X142196224Y-158698772D03*
X142196224Y-156158772D03*
X144736224Y-158698772D03*
X144736224Y-156158772D03*
X147276224Y-158698772D03*
X147276224Y-156158772D03*
X149816224Y-158698772D03*
X149816224Y-156158772D03*
X152356224Y-158698772D03*
X152356224Y-156158772D03*
X154896224Y-158698772D03*
X154896224Y-156158772D03*
X157436224Y-158698772D03*
X157436224Y-156158772D03*
%TD*%
M02*
