%TF.GenerationSoftware,KiCad,Pcbnew,8.0.8*%
%TF.CreationDate,2025-02-12T13:37:30+01:00*%
%TF.ProjectId,Cabletester_Base_Board_v1,4361626c-6574-4657-9374-65725f426173,v1*%
%TF.SameCoordinates,Original*%
%TF.FileFunction,Drillmap*%
%TF.FilePolarity,Positive*%
%FSLAX45Y45*%
G04 Gerber Fmt 4.5, Leading zero omitted, Abs format (unit mm)*
G04 Created by KiCad (PCBNEW 8.0.8) date 2025-02-12 13:37:30*
%MOMM*%
%LPD*%
G01*
G04 APERTURE LIST*
%ADD10C,0.050000*%
%ADD11C,0.200000*%
%ADD12C,0.100000*%
%ADD13C,0.110000*%
%ADD14C,0.130000*%
%ADD15C,0.320000*%
G04 APERTURE END LIST*
D10*
X7351613Y-15107882D02*
G75*
G02*
X7509023Y-15266631I-1333J-158738D01*
G01*
X17260627Y-14974218D02*
G75*
G02*
X17101984Y-15107871I-156757J25088D01*
G01*
X16252755Y-2962861D02*
G75*
G02*
X15720625Y-2962902I-266065J1D01*
G01*
X7669012Y-16377872D02*
X15933573Y-16377874D01*
X8261663Y-2503127D02*
X15339592Y-2503127D01*
X6340627Y-14947662D02*
X6340578Y-2661886D01*
X16094222Y-15266630D02*
X16094222Y-16219130D01*
X7669012Y-16377872D02*
G75*
G02*
X7509030Y-16220578I-1232J158752D01*
G01*
X17103189Y-2503133D02*
X16633755Y-2503127D01*
X16094222Y-15266630D02*
G75*
G02*
X16252965Y-15107882I158748J0D01*
G01*
X16252755Y-2732997D02*
X16252755Y-2962861D01*
X17103189Y-2503133D02*
G75*
G02*
X17260623Y-2661881I-1309J-158738D01*
G01*
X15720592Y-2732997D02*
X15339592Y-2503127D01*
X7348499Y-2732997D02*
X7348499Y-2962865D01*
X7509028Y-15266631D02*
X7509027Y-16220578D01*
X6497627Y-2503127D02*
X6967499Y-2503127D01*
X17101984Y-15107874D02*
X16252965Y-15107884D01*
X16094222Y-16219130D02*
G75*
G02*
X15933573Y-16377871I-158753J0D01*
G01*
X7880627Y-2962906D02*
X7880663Y-2732997D01*
X6500610Y-15107872D02*
X7351613Y-15107882D01*
X17260627Y-2661881D02*
X17260627Y-14974218D01*
X6340578Y-2661886D02*
G75*
G02*
X6497627Y-2503127I158752J16D01*
G01*
X7880663Y-2732997D02*
X8261663Y-2503127D01*
X15720627Y-2962902D02*
X15720592Y-2732997D01*
X7880627Y-2962906D02*
G75*
G02*
X7348499Y-2962865I-266064J41D01*
G01*
X6967499Y-2503127D02*
X7348499Y-2732997D01*
X6500610Y-15107872D02*
G75*
G02*
X6340630Y-14947662I-1230J158752D01*
G01*
X16633755Y-2503127D02*
X16252755Y-2732997D01*
D11*
D12*
X8372000Y-5807000D02*
X8402000Y-5837000D01*
X8402000Y-5807000D02*
X8372000Y-5837000D01*
X8437500Y-5897500D02*
X8467500Y-5927500D01*
X8467500Y-5897500D02*
X8437500Y-5927500D01*
X8496250Y-5973750D02*
X8526250Y-6003750D01*
X8526250Y-5973750D02*
X8496250Y-6003750D01*
X8557000Y-6057000D02*
X8587000Y-6087000D01*
X8587000Y-6057000D02*
X8557000Y-6087000D01*
X8615000Y-6127500D02*
X8645000Y-6157500D01*
X8645000Y-6127500D02*
X8615000Y-6157500D01*
X8672625Y-6210125D02*
X8702625Y-6240125D01*
X8702625Y-6210125D02*
X8672625Y-6240125D01*
X8726250Y-6283750D02*
X8756250Y-6313750D01*
X8756250Y-6283750D02*
X8726250Y-6313750D01*
X8730000Y-14055000D02*
X8760000Y-14085000D01*
X8760000Y-14055000D02*
X8730000Y-14085000D01*
X8784565Y-13988750D02*
X8814565Y-14018750D01*
X8814565Y-13988750D02*
X8784565Y-14018750D01*
X8788000Y-6368000D02*
X8818000Y-6398000D01*
X8818000Y-6368000D02*
X8788000Y-6398000D01*
X8837480Y-13928750D02*
X8867480Y-13958750D01*
X8867480Y-13928750D02*
X8837480Y-13958750D01*
X8847500Y-6447500D02*
X8877500Y-6477500D01*
X8877500Y-6447500D02*
X8847500Y-6477500D01*
X8888032Y-13866746D02*
X8918032Y-13896746D01*
X8918032Y-13866746D02*
X8888032Y-13896746D01*
X8941698Y-13805000D02*
X8971698Y-13835000D01*
X8971698Y-13805000D02*
X8941698Y-13835000D01*
X8995313Y-13745000D02*
X9025313Y-13775000D01*
X9025313Y-13745000D02*
X8995313Y-13775000D01*
X9047815Y-13684638D02*
X9077815Y-13714638D01*
X9077815Y-13684638D02*
X9047815Y-13714638D01*
X9102500Y-13625000D02*
X9132500Y-13655000D01*
X9132500Y-13625000D02*
X9102500Y-13655000D01*
X9157500Y-13565000D02*
X9187500Y-13595000D01*
X9187500Y-13565000D02*
X9157500Y-13595000D01*
X9210181Y-13504794D02*
X9240181Y-13534794D01*
X9240181Y-13504794D02*
X9210181Y-13534794D01*
X9291927Y-9828927D02*
X9321927Y-9858927D01*
X9321927Y-9828927D02*
X9291927Y-9858927D01*
X9297000Y-12171000D02*
X9327000Y-12201000D01*
X9327000Y-12171000D02*
X9297000Y-12201000D01*
X9428427Y-9556427D02*
X9458427Y-9586427D01*
X9458427Y-9556427D02*
X9428427Y-9586427D01*
X9429000Y-12114000D02*
X9459000Y-12144000D01*
X9459000Y-12114000D02*
X9429000Y-12144000D01*
X9566000Y-12040000D02*
X9596000Y-12070000D01*
X9596000Y-12040000D02*
X9566000Y-12070000D01*
X9570427Y-9280427D02*
X9600427Y-9310427D01*
X9600427Y-9280427D02*
X9570427Y-9310427D01*
X9707927Y-9002927D02*
X9737927Y-9032927D01*
X9737927Y-9002927D02*
X9707927Y-9032927D01*
X9719000Y-11980000D02*
X9749000Y-12010000D01*
X9749000Y-11980000D02*
X9719000Y-12010000D01*
X9846927Y-8720927D02*
X9876927Y-8750927D01*
X9876927Y-8720927D02*
X9846927Y-8750927D01*
X9859000Y-11920000D02*
X9889000Y-11950000D01*
X9889000Y-11920000D02*
X9859000Y-11950000D01*
X9985990Y-8445863D02*
X10015990Y-8475863D01*
X10015990Y-8445863D02*
X9985990Y-8475863D01*
X9997000Y-11858000D02*
X10027000Y-11888000D01*
X10027000Y-11858000D02*
X9997000Y-11888000D01*
X10117000Y-11798000D02*
X10147000Y-11828000D01*
X10147000Y-11798000D02*
X10117000Y-11828000D01*
X10123627Y-4795000D02*
X10153627Y-4825000D01*
X10153627Y-4795000D02*
X10123627Y-4825000D01*
X10124927Y-8168926D02*
X10154927Y-8198926D01*
X10154927Y-8168926D02*
X10124927Y-8198926D01*
X10256927Y-7900926D02*
X10286927Y-7930926D01*
X10286927Y-7900926D02*
X10256927Y-7930926D01*
X10257000Y-4855000D02*
X10287000Y-4885000D01*
X10287000Y-4855000D02*
X10257000Y-4885000D01*
X10266000Y-11738000D02*
X10296000Y-11768000D01*
X10296000Y-11738000D02*
X10266000Y-11768000D01*
X10400627Y-4915000D02*
X10430627Y-4945000D01*
X10430627Y-4915000D02*
X10400627Y-4945000D01*
X10400927Y-7614926D02*
X10430927Y-7644926D01*
X10430927Y-7614926D02*
X10400927Y-7644926D01*
X10404000Y-11678000D02*
X10434000Y-11708000D01*
X10434000Y-11678000D02*
X10404000Y-11708000D01*
X10538927Y-7342926D02*
X10568927Y-7372926D01*
X10568927Y-7342926D02*
X10538927Y-7372926D01*
X10539000Y-11618000D02*
X10569000Y-11648000D01*
X10569000Y-11618000D02*
X10539000Y-11648000D01*
X10539127Y-4975000D02*
X10569127Y-5005000D01*
X10569127Y-4975000D02*
X10539127Y-5005000D01*
X10677000Y-11558000D02*
X10707000Y-11588000D01*
X10707000Y-11558000D02*
X10677000Y-11588000D01*
X10677627Y-5035000D02*
X10707627Y-5065000D01*
X10707627Y-5035000D02*
X10677627Y-5065000D01*
X10677627Y-7167000D02*
X10707627Y-7197000D01*
X10707627Y-7167000D02*
X10677627Y-7197000D01*
X10816127Y-5095000D02*
X10846127Y-5125000D01*
X10846127Y-5095000D02*
X10816127Y-5125000D01*
X10816127Y-7107000D02*
X10846127Y-7137000D01*
X10846127Y-7107000D02*
X10816127Y-7137000D01*
X10830000Y-11498000D02*
X10860000Y-11528000D01*
X10860000Y-11498000D02*
X10830000Y-11528000D01*
X10954627Y-5155000D02*
X10984627Y-5185000D01*
X10984627Y-5155000D02*
X10954627Y-5185000D01*
X10954627Y-7047000D02*
X10984627Y-7077000D01*
X10984627Y-7047000D02*
X10954627Y-7077000D01*
X10968000Y-11438000D02*
X10998000Y-11468000D01*
X10998000Y-11438000D02*
X10968000Y-11468000D01*
X11093127Y-5217500D02*
X11123127Y-5247500D01*
X11123127Y-5217500D02*
X11093127Y-5247500D01*
X11093127Y-6987000D02*
X11123127Y-7017000D01*
X11123127Y-6987000D02*
X11093127Y-7017000D01*
X11094000Y-11378000D02*
X11124000Y-11408000D01*
X11124000Y-11378000D02*
X11094000Y-11408000D01*
X11231000Y-11317000D02*
X11261000Y-11347000D01*
X11261000Y-11317000D02*
X11231000Y-11347000D01*
X11231627Y-5277500D02*
X11261627Y-5307500D01*
X11261627Y-5277500D02*
X11231627Y-5307500D01*
X11231627Y-6927000D02*
X11261627Y-6957000D01*
X11261627Y-6927000D02*
X11231627Y-6957000D01*
X11370127Y-5337500D02*
X11400127Y-5367500D01*
X11400127Y-5337500D02*
X11370127Y-5367500D01*
X11370127Y-6867000D02*
X11400127Y-6897000D01*
X11400127Y-6867000D02*
X11370127Y-6897000D01*
X11381000Y-11256000D02*
X11411000Y-11286000D01*
X11411000Y-11256000D02*
X11381000Y-11286000D01*
X11508627Y-5397500D02*
X11538627Y-5427500D01*
X11538627Y-5397500D02*
X11508627Y-5427500D01*
X11508627Y-6807000D02*
X11538627Y-6837000D01*
X11538627Y-6807000D02*
X11508627Y-6837000D01*
X11508627Y-11196000D02*
X11538627Y-11226000D01*
X11538627Y-11196000D02*
X11508627Y-11226000D01*
X11647000Y-11136000D02*
X11677000Y-11166000D01*
X11677000Y-11136000D02*
X11647000Y-11166000D01*
X11647127Y-5457500D02*
X11677127Y-5487500D01*
X11677127Y-5457500D02*
X11647127Y-5487500D01*
X11647127Y-6747000D02*
X11677127Y-6777000D01*
X11677127Y-6747000D02*
X11647127Y-6777000D01*
X11785627Y-6687000D02*
X11815627Y-6717000D01*
X11815627Y-6687000D02*
X11785627Y-6717000D01*
X11785627Y-11076000D02*
X11815627Y-11106000D01*
X11815627Y-11076000D02*
X11785627Y-11106000D01*
X11924127Y-6629000D02*
X11954127Y-6659000D01*
X11954127Y-6629000D02*
X11924127Y-6659000D01*
X11924127Y-11016000D02*
X11954127Y-11046000D01*
X11954127Y-11016000D02*
X11924127Y-11046000D01*
X12062627Y-6569000D02*
X12092627Y-6599000D01*
X12092627Y-6569000D02*
X12062627Y-6599000D01*
X12076000Y-10956000D02*
X12106000Y-10986000D01*
X12106000Y-10956000D02*
X12076000Y-10986000D01*
X12201127Y-6509000D02*
X12231127Y-6539000D01*
X12231127Y-6509000D02*
X12201127Y-6539000D01*
X12201127Y-10896000D02*
X12231127Y-10926000D01*
X12231127Y-10896000D02*
X12201127Y-10926000D01*
X12339627Y-6448000D02*
X12369627Y-6478000D01*
X12369627Y-6448000D02*
X12339627Y-6478000D01*
X12339627Y-10836000D02*
X12369627Y-10866000D01*
X12369627Y-10836000D02*
X12339627Y-10866000D01*
X12478127Y-6388000D02*
X12508127Y-6418000D01*
X12508127Y-6388000D02*
X12478127Y-6418000D01*
X12478127Y-10776000D02*
X12508127Y-10806000D01*
X12508127Y-10776000D02*
X12478127Y-10806000D01*
X12616627Y-6328000D02*
X12646627Y-6358000D01*
X12646627Y-6328000D02*
X12616627Y-6358000D01*
X12616627Y-10716000D02*
X12646627Y-10746000D01*
X12646627Y-10716000D02*
X12616627Y-10746000D01*
X12755127Y-6268000D02*
X12785127Y-6298000D01*
X12785127Y-6268000D02*
X12755127Y-6298000D01*
X12757073Y-10608074D02*
X12787073Y-10638074D01*
X12787073Y-10608074D02*
X12757073Y-10638074D01*
X12893387Y-10327760D02*
X12923387Y-10357760D01*
X12923387Y-10327760D02*
X12893387Y-10357760D01*
X12893627Y-6209000D02*
X12923627Y-6239000D01*
X12923627Y-6209000D02*
X12893627Y-6239000D01*
X13032127Y-6149000D02*
X13062127Y-6179000D01*
X13062127Y-6149000D02*
X13032127Y-6179000D01*
X13032127Y-10047000D02*
X13062127Y-10077000D01*
X13062127Y-10047000D02*
X13032127Y-10077000D01*
X13170627Y-6089000D02*
X13200627Y-6119000D01*
X13200627Y-6089000D02*
X13170627Y-6119000D01*
X13170627Y-9774000D02*
X13200627Y-9804000D01*
X13200627Y-9774000D02*
X13170627Y-9804000D01*
X13309127Y-6029000D02*
X13339127Y-6059000D01*
X13339127Y-6029000D02*
X13309127Y-6059000D01*
X13309127Y-9463000D02*
X13339127Y-9493000D01*
X13339127Y-9463000D02*
X13309127Y-9493000D01*
X13447387Y-9221760D02*
X13477387Y-9251760D01*
X13477387Y-9221760D02*
X13447387Y-9251760D01*
X13447627Y-5969000D02*
X13477627Y-5999000D01*
X13477627Y-5969000D02*
X13447627Y-5999000D01*
X13586127Y-5909000D02*
X13616127Y-5939000D01*
X13616127Y-5909000D02*
X13586127Y-5939000D01*
X13586127Y-8947647D02*
X13616127Y-8977647D01*
X13616127Y-8947647D02*
X13586127Y-8977647D01*
X13724387Y-8671760D02*
X13754387Y-8701760D01*
X13754387Y-8671760D02*
X13724387Y-8701760D01*
X13724627Y-5850000D02*
X13754627Y-5880000D01*
X13754627Y-5850000D02*
X13724627Y-5880000D01*
X13862573Y-8413574D02*
X13892573Y-8443574D01*
X13892573Y-8413574D02*
X13862573Y-8443574D01*
X13863127Y-5790000D02*
X13893127Y-5820000D01*
X13893127Y-5790000D02*
X13863127Y-5820000D01*
X14001451Y-8120823D02*
X14031451Y-8150823D01*
X14031451Y-8120823D02*
X14001451Y-8150823D01*
X14001663Y-5730000D02*
X14031663Y-5760000D01*
X14031663Y-5730000D02*
X14001663Y-5760000D01*
X14140127Y-5669500D02*
X14170127Y-5699500D01*
X14170127Y-5669500D02*
X14140127Y-5699500D01*
X14140127Y-7835000D02*
X14170127Y-7865000D01*
X14170127Y-7835000D02*
X14140127Y-7865000D01*
X14277887Y-7568260D02*
X14307887Y-7598260D01*
X14307887Y-7568260D02*
X14277887Y-7598260D01*
X14278627Y-5609500D02*
X14308627Y-5639500D01*
X14308627Y-5609500D02*
X14278627Y-5639500D01*
X14635000Y-5457500D02*
X14665000Y-5487500D01*
X14665000Y-5457500D02*
X14635000Y-5487500D01*
X14697319Y-5397706D02*
X14727319Y-5427706D01*
X14727319Y-5397706D02*
X14697319Y-5427706D01*
X14750000Y-5337500D02*
X14780000Y-5367500D01*
X14780000Y-5337500D02*
X14750000Y-5367500D01*
X14840000Y-5277500D02*
X14870000Y-5307500D01*
X14870000Y-5277500D02*
X14840000Y-5307500D01*
X14932500Y-5217500D02*
X14962500Y-5247500D01*
X14962500Y-5217500D02*
X14932500Y-5247500D01*
X15027500Y-5155000D02*
X15057500Y-5185000D01*
X15057500Y-5155000D02*
X15027500Y-5185000D01*
X15120000Y-5095000D02*
X15150000Y-5125000D01*
X15150000Y-5095000D02*
X15120000Y-5125000D01*
X15220000Y-5035000D02*
X15250000Y-5065000D01*
X15250000Y-5035000D02*
X15220000Y-5065000D01*
X15307500Y-4975000D02*
X15337500Y-5005000D01*
X15337500Y-4975000D02*
X15307500Y-5005000D01*
X15407500Y-4915000D02*
X15437500Y-4945000D01*
X15437500Y-4915000D02*
X15407500Y-4945000D01*
X15497500Y-4855000D02*
X15527500Y-4885000D01*
X15527500Y-4855000D02*
X15497500Y-4885000D01*
X15590000Y-4795000D02*
X15620000Y-4825000D01*
X15620000Y-4795000D02*
X15590000Y-4825000D01*
X7387033Y-6460549D02*
G75*
G02*
X7287033Y-6460549I-50000J0D01*
G01*
X7287033Y-6460549D02*
G75*
G02*
X7387033Y-6460549I50000J0D01*
G01*
X7387033Y-6737549D02*
G75*
G02*
X7287033Y-6737549I-50000J0D01*
G01*
X7287033Y-6737549D02*
G75*
G02*
X7387033Y-6737549I50000J0D01*
G01*
X7387033Y-7014549D02*
G75*
G02*
X7287033Y-7014549I-50000J0D01*
G01*
X7287033Y-7014549D02*
G75*
G02*
X7387033Y-7014549I50000J0D01*
G01*
X7387033Y-7291549D02*
G75*
G02*
X7287033Y-7291549I-50000J0D01*
G01*
X7287033Y-7291549D02*
G75*
G02*
X7387033Y-7291549I50000J0D01*
G01*
X7387033Y-7568549D02*
G75*
G02*
X7287033Y-7568549I-50000J0D01*
G01*
X7287033Y-7568549D02*
G75*
G02*
X7387033Y-7568549I50000J0D01*
G01*
X7387033Y-7845549D02*
G75*
G02*
X7287033Y-7845549I-50000J0D01*
G01*
X7287033Y-7845549D02*
G75*
G02*
X7387033Y-7845549I50000J0D01*
G01*
X7387033Y-8122549D02*
G75*
G02*
X7287033Y-8122549I-50000J0D01*
G01*
X7287033Y-8122549D02*
G75*
G02*
X7387033Y-8122549I50000J0D01*
G01*
X7387033Y-8399550D02*
G75*
G02*
X7287033Y-8399550I-50000J0D01*
G01*
X7287033Y-8399550D02*
G75*
G02*
X7387033Y-8399550I50000J0D01*
G01*
X7387033Y-8676550D02*
G75*
G02*
X7287033Y-8676550I-50000J0D01*
G01*
X7287033Y-8676550D02*
G75*
G02*
X7387033Y-8676550I50000J0D01*
G01*
X7387033Y-8953550D02*
G75*
G02*
X7287033Y-8953550I-50000J0D01*
G01*
X7287033Y-8953550D02*
G75*
G02*
X7387033Y-8953550I50000J0D01*
G01*
X7387033Y-9230550D02*
G75*
G02*
X7287033Y-9230550I-50000J0D01*
G01*
X7287033Y-9230550D02*
G75*
G02*
X7387033Y-9230550I50000J0D01*
G01*
X7387033Y-9507550D02*
G75*
G02*
X7287033Y-9507550I-50000J0D01*
G01*
X7287033Y-9507550D02*
G75*
G02*
X7387033Y-9507550I50000J0D01*
G01*
X7387033Y-9784550D02*
G75*
G02*
X7287033Y-9784550I-50000J0D01*
G01*
X7287033Y-9784550D02*
G75*
G02*
X7387033Y-9784550I50000J0D01*
G01*
X7387033Y-10061550D02*
G75*
G02*
X7287033Y-10061550I-50000J0D01*
G01*
X7287033Y-10061550D02*
G75*
G02*
X7387033Y-10061550I50000J0D01*
G01*
X7387033Y-10338550D02*
G75*
G02*
X7287033Y-10338550I-50000J0D01*
G01*
X7287033Y-10338550D02*
G75*
G02*
X7387033Y-10338550I50000J0D01*
G01*
X7387033Y-10615550D02*
G75*
G02*
X7287033Y-10615550I-50000J0D01*
G01*
X7287033Y-10615550D02*
G75*
G02*
X7387033Y-10615550I50000J0D01*
G01*
X7387033Y-10892550D02*
G75*
G02*
X7287033Y-10892550I-50000J0D01*
G01*
X7287033Y-10892550D02*
G75*
G02*
X7387033Y-10892550I50000J0D01*
G01*
X7387033Y-11169550D02*
G75*
G02*
X7287033Y-11169550I-50000J0D01*
G01*
X7287033Y-11169550D02*
G75*
G02*
X7387033Y-11169550I50000J0D01*
G01*
X7671033Y-6322049D02*
G75*
G02*
X7571033Y-6322049I-50000J0D01*
G01*
X7571033Y-6322049D02*
G75*
G02*
X7671033Y-6322049I50000J0D01*
G01*
X7671033Y-6599049D02*
G75*
G02*
X7571033Y-6599049I-50000J0D01*
G01*
X7571033Y-6599049D02*
G75*
G02*
X7671033Y-6599049I50000J0D01*
G01*
X7671033Y-6876049D02*
G75*
G02*
X7571033Y-6876049I-50000J0D01*
G01*
X7571033Y-6876049D02*
G75*
G02*
X7671033Y-6876049I50000J0D01*
G01*
X7671033Y-7153049D02*
G75*
G02*
X7571033Y-7153049I-50000J0D01*
G01*
X7571033Y-7153049D02*
G75*
G02*
X7671033Y-7153049I50000J0D01*
G01*
X7671033Y-7430049D02*
G75*
G02*
X7571033Y-7430049I-50000J0D01*
G01*
X7571033Y-7430049D02*
G75*
G02*
X7671033Y-7430049I50000J0D01*
G01*
X7671033Y-7707049D02*
G75*
G02*
X7571033Y-7707049I-50000J0D01*
G01*
X7571033Y-7707049D02*
G75*
G02*
X7671033Y-7707049I50000J0D01*
G01*
X7671033Y-7984049D02*
G75*
G02*
X7571033Y-7984049I-50000J0D01*
G01*
X7571033Y-7984049D02*
G75*
G02*
X7671033Y-7984049I50000J0D01*
G01*
X7671033Y-8261049D02*
G75*
G02*
X7571033Y-8261049I-50000J0D01*
G01*
X7571033Y-8261049D02*
G75*
G02*
X7671033Y-8261049I50000J0D01*
G01*
X7671033Y-8538050D02*
G75*
G02*
X7571033Y-8538050I-50000J0D01*
G01*
X7571033Y-8538050D02*
G75*
G02*
X7671033Y-8538050I50000J0D01*
G01*
X7671033Y-8815050D02*
G75*
G02*
X7571033Y-8815050I-50000J0D01*
G01*
X7571033Y-8815050D02*
G75*
G02*
X7671033Y-8815050I50000J0D01*
G01*
X7671033Y-9092050D02*
G75*
G02*
X7571033Y-9092050I-50000J0D01*
G01*
X7571033Y-9092050D02*
G75*
G02*
X7671033Y-9092050I50000J0D01*
G01*
X7671033Y-9369050D02*
G75*
G02*
X7571033Y-9369050I-50000J0D01*
G01*
X7571033Y-9369050D02*
G75*
G02*
X7671033Y-9369050I50000J0D01*
G01*
X7671033Y-9646050D02*
G75*
G02*
X7571033Y-9646050I-50000J0D01*
G01*
X7571033Y-9646050D02*
G75*
G02*
X7671033Y-9646050I50000J0D01*
G01*
X7671033Y-9923050D02*
G75*
G02*
X7571033Y-9923050I-50000J0D01*
G01*
X7571033Y-9923050D02*
G75*
G02*
X7671033Y-9923050I50000J0D01*
G01*
X7671033Y-10200050D02*
G75*
G02*
X7571033Y-10200050I-50000J0D01*
G01*
X7571033Y-10200050D02*
G75*
G02*
X7671033Y-10200050I50000J0D01*
G01*
X7671033Y-10477050D02*
G75*
G02*
X7571033Y-10477050I-50000J0D01*
G01*
X7571033Y-10477050D02*
G75*
G02*
X7671033Y-10477050I50000J0D01*
G01*
X7671033Y-10754050D02*
G75*
G02*
X7571033Y-10754050I-50000J0D01*
G01*
X7571033Y-10754050D02*
G75*
G02*
X7671033Y-10754050I50000J0D01*
G01*
X7671033Y-11031050D02*
G75*
G02*
X7571033Y-11031050I-50000J0D01*
G01*
X7571033Y-11031050D02*
G75*
G02*
X7671033Y-11031050I50000J0D01*
G01*
X7671033Y-11308049D02*
G75*
G02*
X7571033Y-11308049I-50000J0D01*
G01*
X7571033Y-11308049D02*
G75*
G02*
X7671033Y-11308049I50000J0D01*
G01*
X9357627Y-4625500D02*
G75*
G02*
X9257627Y-4625500I-50000J0D01*
G01*
X9257627Y-4625500D02*
G75*
G02*
X9357627Y-4625500I50000J0D01*
G01*
X9357627Y-12985500D02*
G75*
G02*
X9257627Y-12985500I-50000J0D01*
G01*
X9257627Y-12985500D02*
G75*
G02*
X9357627Y-12985500I50000J0D01*
G01*
X9496127Y-4341500D02*
G75*
G02*
X9396127Y-4341500I-50000J0D01*
G01*
X9396127Y-4341500D02*
G75*
G02*
X9496127Y-4341500I50000J0D01*
G01*
X9496127Y-13269500D02*
G75*
G02*
X9396127Y-13269500I-50000J0D01*
G01*
X9396127Y-13269500D02*
G75*
G02*
X9496127Y-13269500I50000J0D01*
G01*
X9634627Y-4625500D02*
G75*
G02*
X9534627Y-4625500I-50000J0D01*
G01*
X9534627Y-4625500D02*
G75*
G02*
X9634627Y-4625500I50000J0D01*
G01*
X9634627Y-12985500D02*
G75*
G02*
X9534627Y-12985500I-50000J0D01*
G01*
X9534627Y-12985500D02*
G75*
G02*
X9634627Y-12985500I50000J0D01*
G01*
X9773127Y-4341500D02*
G75*
G02*
X9673127Y-4341500I-50000J0D01*
G01*
X9673127Y-4341500D02*
G75*
G02*
X9773127Y-4341500I50000J0D01*
G01*
X9773127Y-13269500D02*
G75*
G02*
X9673127Y-13269500I-50000J0D01*
G01*
X9673127Y-13269500D02*
G75*
G02*
X9773127Y-13269500I50000J0D01*
G01*
X9911627Y-4625500D02*
G75*
G02*
X9811627Y-4625500I-50000J0D01*
G01*
X9811627Y-4625500D02*
G75*
G02*
X9911627Y-4625500I50000J0D01*
G01*
X9911627Y-12985500D02*
G75*
G02*
X9811627Y-12985500I-50000J0D01*
G01*
X9811627Y-12985500D02*
G75*
G02*
X9911627Y-12985500I50000J0D01*
G01*
X10050127Y-4341500D02*
G75*
G02*
X9950127Y-4341500I-50000J0D01*
G01*
X9950127Y-4341500D02*
G75*
G02*
X10050127Y-4341500I50000J0D01*
G01*
X10050127Y-13269500D02*
G75*
G02*
X9950127Y-13269500I-50000J0D01*
G01*
X9950127Y-13269500D02*
G75*
G02*
X10050127Y-13269500I50000J0D01*
G01*
X10188627Y-4625500D02*
G75*
G02*
X10088627Y-4625500I-50000J0D01*
G01*
X10088627Y-4625500D02*
G75*
G02*
X10188627Y-4625500I50000J0D01*
G01*
X10188627Y-12985500D02*
G75*
G02*
X10088627Y-12985500I-50000J0D01*
G01*
X10088627Y-12985500D02*
G75*
G02*
X10188627Y-12985500I50000J0D01*
G01*
X10327127Y-4341500D02*
G75*
G02*
X10227127Y-4341500I-50000J0D01*
G01*
X10227127Y-4341500D02*
G75*
G02*
X10327127Y-4341500I50000J0D01*
G01*
X10327127Y-13269500D02*
G75*
G02*
X10227127Y-13269500I-50000J0D01*
G01*
X10227127Y-13269500D02*
G75*
G02*
X10327127Y-13269500I50000J0D01*
G01*
X10465627Y-4625500D02*
G75*
G02*
X10365627Y-4625500I-50000J0D01*
G01*
X10365627Y-4625500D02*
G75*
G02*
X10465627Y-4625500I50000J0D01*
G01*
X10465627Y-12985500D02*
G75*
G02*
X10365627Y-12985500I-50000J0D01*
G01*
X10365627Y-12985500D02*
G75*
G02*
X10465627Y-12985500I50000J0D01*
G01*
X10604127Y-4341500D02*
G75*
G02*
X10504127Y-4341500I-50000J0D01*
G01*
X10504127Y-4341500D02*
G75*
G02*
X10604127Y-4341500I50000J0D01*
G01*
X10604127Y-13269500D02*
G75*
G02*
X10504127Y-13269500I-50000J0D01*
G01*
X10504127Y-13269500D02*
G75*
G02*
X10604127Y-13269500I50000J0D01*
G01*
X10742627Y-4625500D02*
G75*
G02*
X10642627Y-4625500I-50000J0D01*
G01*
X10642627Y-4625500D02*
G75*
G02*
X10742627Y-4625500I50000J0D01*
G01*
X10742627Y-12985500D02*
G75*
G02*
X10642627Y-12985500I-50000J0D01*
G01*
X10642627Y-12985500D02*
G75*
G02*
X10742627Y-12985500I50000J0D01*
G01*
X10881127Y-4341500D02*
G75*
G02*
X10781127Y-4341500I-50000J0D01*
G01*
X10781127Y-4341500D02*
G75*
G02*
X10881127Y-4341500I50000J0D01*
G01*
X10881127Y-13269500D02*
G75*
G02*
X10781127Y-13269500I-50000J0D01*
G01*
X10781127Y-13269500D02*
G75*
G02*
X10881127Y-13269500I50000J0D01*
G01*
X11019627Y-4625500D02*
G75*
G02*
X10919627Y-4625500I-50000J0D01*
G01*
X10919627Y-4625500D02*
G75*
G02*
X11019627Y-4625500I50000J0D01*
G01*
X11019627Y-12985500D02*
G75*
G02*
X10919627Y-12985500I-50000J0D01*
G01*
X10919627Y-12985500D02*
G75*
G02*
X11019627Y-12985500I50000J0D01*
G01*
X11158127Y-4341500D02*
G75*
G02*
X11058127Y-4341500I-50000J0D01*
G01*
X11058127Y-4341500D02*
G75*
G02*
X11158127Y-4341500I50000J0D01*
G01*
X11158127Y-13269500D02*
G75*
G02*
X11058127Y-13269500I-50000J0D01*
G01*
X11058127Y-13269500D02*
G75*
G02*
X11158127Y-13269500I50000J0D01*
G01*
X11296627Y-4625500D02*
G75*
G02*
X11196627Y-4625500I-50000J0D01*
G01*
X11196627Y-4625500D02*
G75*
G02*
X11296627Y-4625500I50000J0D01*
G01*
X11296627Y-12985500D02*
G75*
G02*
X11196627Y-12985500I-50000J0D01*
G01*
X11196627Y-12985500D02*
G75*
G02*
X11296627Y-12985500I50000J0D01*
G01*
X11435127Y-4341500D02*
G75*
G02*
X11335127Y-4341500I-50000J0D01*
G01*
X11335127Y-4341500D02*
G75*
G02*
X11435127Y-4341500I50000J0D01*
G01*
X11435127Y-13269500D02*
G75*
G02*
X11335127Y-13269500I-50000J0D01*
G01*
X11335127Y-13269500D02*
G75*
G02*
X11435127Y-13269500I50000J0D01*
G01*
X11573627Y-4625500D02*
G75*
G02*
X11473627Y-4625500I-50000J0D01*
G01*
X11473627Y-4625500D02*
G75*
G02*
X11573627Y-4625500I50000J0D01*
G01*
X11573627Y-12985500D02*
G75*
G02*
X11473627Y-12985500I-50000J0D01*
G01*
X11473627Y-12985500D02*
G75*
G02*
X11573627Y-12985500I50000J0D01*
G01*
X11712127Y-4341500D02*
G75*
G02*
X11612127Y-4341500I-50000J0D01*
G01*
X11612127Y-4341500D02*
G75*
G02*
X11712127Y-4341500I50000J0D01*
G01*
X11712127Y-13269500D02*
G75*
G02*
X11612127Y-13269500I-50000J0D01*
G01*
X11612127Y-13269500D02*
G75*
G02*
X11712127Y-13269500I50000J0D01*
G01*
X11850627Y-4625500D02*
G75*
G02*
X11750627Y-4625500I-50000J0D01*
G01*
X11750627Y-4625500D02*
G75*
G02*
X11850627Y-4625500I50000J0D01*
G01*
X11850627Y-12985500D02*
G75*
G02*
X11750627Y-12985500I-50000J0D01*
G01*
X11750627Y-12985500D02*
G75*
G02*
X11850627Y-12985500I50000J0D01*
G01*
X11989127Y-4341500D02*
G75*
G02*
X11889127Y-4341500I-50000J0D01*
G01*
X11889127Y-4341500D02*
G75*
G02*
X11989127Y-4341500I50000J0D01*
G01*
X11989127Y-13269500D02*
G75*
G02*
X11889127Y-13269500I-50000J0D01*
G01*
X11889127Y-13269500D02*
G75*
G02*
X11989127Y-13269500I50000J0D01*
G01*
X12127627Y-4625500D02*
G75*
G02*
X12027627Y-4625500I-50000J0D01*
G01*
X12027627Y-4625500D02*
G75*
G02*
X12127627Y-4625500I50000J0D01*
G01*
X12127627Y-12985500D02*
G75*
G02*
X12027627Y-12985500I-50000J0D01*
G01*
X12027627Y-12985500D02*
G75*
G02*
X12127627Y-12985500I50000J0D01*
G01*
X12266127Y-4341500D02*
G75*
G02*
X12166127Y-4341500I-50000J0D01*
G01*
X12166127Y-4341500D02*
G75*
G02*
X12266127Y-4341500I50000J0D01*
G01*
X12266127Y-13269500D02*
G75*
G02*
X12166127Y-13269500I-50000J0D01*
G01*
X12166127Y-13269500D02*
G75*
G02*
X12266127Y-13269500I50000J0D01*
G01*
X12404627Y-4625500D02*
G75*
G02*
X12304627Y-4625500I-50000J0D01*
G01*
X12304627Y-4625500D02*
G75*
G02*
X12404627Y-4625500I50000J0D01*
G01*
X12404627Y-12985500D02*
G75*
G02*
X12304627Y-12985500I-50000J0D01*
G01*
X12304627Y-12985500D02*
G75*
G02*
X12404627Y-12985500I50000J0D01*
G01*
X12543127Y-4341500D02*
G75*
G02*
X12443127Y-4341500I-50000J0D01*
G01*
X12443127Y-4341500D02*
G75*
G02*
X12543127Y-4341500I50000J0D01*
G01*
X12543127Y-13269500D02*
G75*
G02*
X12443127Y-13269500I-50000J0D01*
G01*
X12443127Y-13269500D02*
G75*
G02*
X12543127Y-13269500I50000J0D01*
G01*
X12681627Y-4625500D02*
G75*
G02*
X12581627Y-4625500I-50000J0D01*
G01*
X12581627Y-4625500D02*
G75*
G02*
X12681627Y-4625500I50000J0D01*
G01*
X12681627Y-12985500D02*
G75*
G02*
X12581627Y-12985500I-50000J0D01*
G01*
X12581627Y-12985500D02*
G75*
G02*
X12681627Y-12985500I50000J0D01*
G01*
X12820127Y-4341500D02*
G75*
G02*
X12720127Y-4341500I-50000J0D01*
G01*
X12720127Y-4341500D02*
G75*
G02*
X12820127Y-4341500I50000J0D01*
G01*
X12820127Y-13269500D02*
G75*
G02*
X12720127Y-13269500I-50000J0D01*
G01*
X12720127Y-13269500D02*
G75*
G02*
X12820127Y-13269500I50000J0D01*
G01*
X12958627Y-4625500D02*
G75*
G02*
X12858627Y-4625500I-50000J0D01*
G01*
X12858627Y-4625500D02*
G75*
G02*
X12958627Y-4625500I50000J0D01*
G01*
X12958627Y-12985500D02*
G75*
G02*
X12858627Y-12985500I-50000J0D01*
G01*
X12858627Y-12985500D02*
G75*
G02*
X12958627Y-12985500I50000J0D01*
G01*
X13097127Y-4341500D02*
G75*
G02*
X12997127Y-4341500I-50000J0D01*
G01*
X12997127Y-4341500D02*
G75*
G02*
X13097127Y-4341500I50000J0D01*
G01*
X13097127Y-13269500D02*
G75*
G02*
X12997127Y-13269500I-50000J0D01*
G01*
X12997127Y-13269500D02*
G75*
G02*
X13097127Y-13269500I50000J0D01*
G01*
X13235627Y-4625500D02*
G75*
G02*
X13135627Y-4625500I-50000J0D01*
G01*
X13135627Y-4625500D02*
G75*
G02*
X13235627Y-4625500I50000J0D01*
G01*
X13235627Y-12985500D02*
G75*
G02*
X13135627Y-12985500I-50000J0D01*
G01*
X13135627Y-12985500D02*
G75*
G02*
X13235627Y-12985500I50000J0D01*
G01*
X13374127Y-4341500D02*
G75*
G02*
X13274127Y-4341500I-50000J0D01*
G01*
X13274127Y-4341500D02*
G75*
G02*
X13374127Y-4341500I50000J0D01*
G01*
X13374127Y-13269500D02*
G75*
G02*
X13274127Y-13269500I-50000J0D01*
G01*
X13274127Y-13269500D02*
G75*
G02*
X13374127Y-13269500I50000J0D01*
G01*
X13512627Y-4625500D02*
G75*
G02*
X13412627Y-4625500I-50000J0D01*
G01*
X13412627Y-4625500D02*
G75*
G02*
X13512627Y-4625500I50000J0D01*
G01*
X13512627Y-12985500D02*
G75*
G02*
X13412627Y-12985500I-50000J0D01*
G01*
X13412627Y-12985500D02*
G75*
G02*
X13512627Y-12985500I50000J0D01*
G01*
X13651127Y-4341500D02*
G75*
G02*
X13551127Y-4341500I-50000J0D01*
G01*
X13551127Y-4341500D02*
G75*
G02*
X13651127Y-4341500I50000J0D01*
G01*
X13651127Y-13269500D02*
G75*
G02*
X13551127Y-13269500I-50000J0D01*
G01*
X13551127Y-13269500D02*
G75*
G02*
X13651127Y-13269500I50000J0D01*
G01*
X13789627Y-4625500D02*
G75*
G02*
X13689627Y-4625500I-50000J0D01*
G01*
X13689627Y-4625500D02*
G75*
G02*
X13789627Y-4625500I50000J0D01*
G01*
X13789627Y-12985500D02*
G75*
G02*
X13689627Y-12985500I-50000J0D01*
G01*
X13689627Y-12985500D02*
G75*
G02*
X13789627Y-12985500I50000J0D01*
G01*
X13928127Y-4341500D02*
G75*
G02*
X13828127Y-4341500I-50000J0D01*
G01*
X13828127Y-4341500D02*
G75*
G02*
X13928127Y-4341500I50000J0D01*
G01*
X13928127Y-13269500D02*
G75*
G02*
X13828127Y-13269500I-50000J0D01*
G01*
X13828127Y-13269500D02*
G75*
G02*
X13928127Y-13269500I50000J0D01*
G01*
X14066627Y-4625500D02*
G75*
G02*
X13966627Y-4625500I-50000J0D01*
G01*
X13966627Y-4625500D02*
G75*
G02*
X14066627Y-4625500I50000J0D01*
G01*
X14066627Y-12985500D02*
G75*
G02*
X13966627Y-12985500I-50000J0D01*
G01*
X13966627Y-12985500D02*
G75*
G02*
X14066627Y-12985500I50000J0D01*
G01*
X14205127Y-4341500D02*
G75*
G02*
X14105127Y-4341500I-50000J0D01*
G01*
X14105127Y-4341500D02*
G75*
G02*
X14205127Y-4341500I50000J0D01*
G01*
X14205127Y-13269500D02*
G75*
G02*
X14105127Y-13269500I-50000J0D01*
G01*
X14105127Y-13269500D02*
G75*
G02*
X14205127Y-13269500I50000J0D01*
G01*
X14343627Y-4625500D02*
G75*
G02*
X14243627Y-4625500I-50000J0D01*
G01*
X14243627Y-4625500D02*
G75*
G02*
X14343627Y-4625500I50000J0D01*
G01*
X14343627Y-12985500D02*
G75*
G02*
X14243627Y-12985500I-50000J0D01*
G01*
X14243627Y-12985500D02*
G75*
G02*
X14343627Y-12985500I50000J0D01*
G01*
X16031033Y-6322049D02*
G75*
G02*
X15931033Y-6322049I-50000J0D01*
G01*
X15931033Y-6322049D02*
G75*
G02*
X16031033Y-6322049I50000J0D01*
G01*
X16031033Y-6599049D02*
G75*
G02*
X15931033Y-6599049I-50000J0D01*
G01*
X15931033Y-6599049D02*
G75*
G02*
X16031033Y-6599049I50000J0D01*
G01*
X16031033Y-6876049D02*
G75*
G02*
X15931033Y-6876049I-50000J0D01*
G01*
X15931033Y-6876049D02*
G75*
G02*
X16031033Y-6876049I50000J0D01*
G01*
X16031033Y-7153049D02*
G75*
G02*
X15931033Y-7153049I-50000J0D01*
G01*
X15931033Y-7153049D02*
G75*
G02*
X16031033Y-7153049I50000J0D01*
G01*
X16031033Y-7430049D02*
G75*
G02*
X15931033Y-7430049I-50000J0D01*
G01*
X15931033Y-7430049D02*
G75*
G02*
X16031033Y-7430049I50000J0D01*
G01*
X16031033Y-7707049D02*
G75*
G02*
X15931033Y-7707049I-50000J0D01*
G01*
X15931033Y-7707049D02*
G75*
G02*
X16031033Y-7707049I50000J0D01*
G01*
X16031033Y-7984049D02*
G75*
G02*
X15931033Y-7984049I-50000J0D01*
G01*
X15931033Y-7984049D02*
G75*
G02*
X16031033Y-7984049I50000J0D01*
G01*
X16031033Y-8261049D02*
G75*
G02*
X15931033Y-8261049I-50000J0D01*
G01*
X15931033Y-8261049D02*
G75*
G02*
X16031033Y-8261049I50000J0D01*
G01*
X16031033Y-8538050D02*
G75*
G02*
X15931033Y-8538050I-50000J0D01*
G01*
X15931033Y-8538050D02*
G75*
G02*
X16031033Y-8538050I50000J0D01*
G01*
X16031033Y-8815050D02*
G75*
G02*
X15931033Y-8815050I-50000J0D01*
G01*
X15931033Y-8815050D02*
G75*
G02*
X16031033Y-8815050I50000J0D01*
G01*
X16031033Y-9092050D02*
G75*
G02*
X15931033Y-9092050I-50000J0D01*
G01*
X15931033Y-9092050D02*
G75*
G02*
X16031033Y-9092050I50000J0D01*
G01*
X16031033Y-9369050D02*
G75*
G02*
X15931033Y-9369050I-50000J0D01*
G01*
X15931033Y-9369050D02*
G75*
G02*
X16031033Y-9369050I50000J0D01*
G01*
X16031033Y-9646050D02*
G75*
G02*
X15931033Y-9646050I-50000J0D01*
G01*
X15931033Y-9646050D02*
G75*
G02*
X16031033Y-9646050I50000J0D01*
G01*
X16031033Y-9923050D02*
G75*
G02*
X15931033Y-9923050I-50000J0D01*
G01*
X15931033Y-9923050D02*
G75*
G02*
X16031033Y-9923050I50000J0D01*
G01*
X16031033Y-10200050D02*
G75*
G02*
X15931033Y-10200050I-50000J0D01*
G01*
X15931033Y-10200050D02*
G75*
G02*
X16031033Y-10200050I50000J0D01*
G01*
X16031033Y-10477050D02*
G75*
G02*
X15931033Y-10477050I-50000J0D01*
G01*
X15931033Y-10477050D02*
G75*
G02*
X16031033Y-10477050I50000J0D01*
G01*
X16031033Y-10754050D02*
G75*
G02*
X15931033Y-10754050I-50000J0D01*
G01*
X15931033Y-10754050D02*
G75*
G02*
X16031033Y-10754050I50000J0D01*
G01*
X16031033Y-11031050D02*
G75*
G02*
X15931033Y-11031050I-50000J0D01*
G01*
X15931033Y-11031050D02*
G75*
G02*
X16031033Y-11031050I50000J0D01*
G01*
X16031033Y-11308049D02*
G75*
G02*
X15931033Y-11308049I-50000J0D01*
G01*
X15931033Y-11308049D02*
G75*
G02*
X16031033Y-11308049I50000J0D01*
G01*
X16315033Y-6460549D02*
G75*
G02*
X16215033Y-6460549I-50000J0D01*
G01*
X16215033Y-6460549D02*
G75*
G02*
X16315033Y-6460549I50000J0D01*
G01*
X16315033Y-6737549D02*
G75*
G02*
X16215033Y-6737549I-50000J0D01*
G01*
X16215033Y-6737549D02*
G75*
G02*
X16315033Y-6737549I50000J0D01*
G01*
X16315033Y-7014549D02*
G75*
G02*
X16215033Y-7014549I-50000J0D01*
G01*
X16215033Y-7014549D02*
G75*
G02*
X16315033Y-7014549I50000J0D01*
G01*
X16315033Y-7291549D02*
G75*
G02*
X16215033Y-7291549I-50000J0D01*
G01*
X16215033Y-7291549D02*
G75*
G02*
X16315033Y-7291549I50000J0D01*
G01*
X16315033Y-7568549D02*
G75*
G02*
X16215033Y-7568549I-50000J0D01*
G01*
X16215033Y-7568549D02*
G75*
G02*
X16315033Y-7568549I50000J0D01*
G01*
X16315033Y-7845549D02*
G75*
G02*
X16215033Y-7845549I-50000J0D01*
G01*
X16215033Y-7845549D02*
G75*
G02*
X16315033Y-7845549I50000J0D01*
G01*
X16315033Y-8122549D02*
G75*
G02*
X16215033Y-8122549I-50000J0D01*
G01*
X16215033Y-8122549D02*
G75*
G02*
X16315033Y-8122549I50000J0D01*
G01*
X16315033Y-8399550D02*
G75*
G02*
X16215033Y-8399550I-50000J0D01*
G01*
X16215033Y-8399550D02*
G75*
G02*
X16315033Y-8399550I50000J0D01*
G01*
X16315033Y-8676550D02*
G75*
G02*
X16215033Y-8676550I-50000J0D01*
G01*
X16215033Y-8676550D02*
G75*
G02*
X16315033Y-8676550I50000J0D01*
G01*
X16315033Y-8953550D02*
G75*
G02*
X16215033Y-8953550I-50000J0D01*
G01*
X16215033Y-8953550D02*
G75*
G02*
X16315033Y-8953550I50000J0D01*
G01*
X16315033Y-9230550D02*
G75*
G02*
X16215033Y-9230550I-50000J0D01*
G01*
X16215033Y-9230550D02*
G75*
G02*
X16315033Y-9230550I50000J0D01*
G01*
X16315033Y-9507550D02*
G75*
G02*
X16215033Y-9507550I-50000J0D01*
G01*
X16215033Y-9507550D02*
G75*
G02*
X16315033Y-9507550I50000J0D01*
G01*
X16315033Y-9784550D02*
G75*
G02*
X16215033Y-9784550I-50000J0D01*
G01*
X16215033Y-9784550D02*
G75*
G02*
X16315033Y-9784550I50000J0D01*
G01*
X16315033Y-10061550D02*
G75*
G02*
X16215033Y-10061550I-50000J0D01*
G01*
X16215033Y-10061550D02*
G75*
G02*
X16315033Y-10061550I50000J0D01*
G01*
X16315033Y-10338550D02*
G75*
G02*
X16215033Y-10338550I-50000J0D01*
G01*
X16215033Y-10338550D02*
G75*
G02*
X16315033Y-10338550I50000J0D01*
G01*
X16315033Y-10615550D02*
G75*
G02*
X16215033Y-10615550I-50000J0D01*
G01*
X16215033Y-10615550D02*
G75*
G02*
X16315033Y-10615550I50000J0D01*
G01*
X16315033Y-10892550D02*
G75*
G02*
X16215033Y-10892550I-50000J0D01*
G01*
X16215033Y-10892550D02*
G75*
G02*
X16315033Y-10892550I50000J0D01*
G01*
X16315033Y-11169550D02*
G75*
G02*
X16215033Y-11169550I-50000J0D01*
G01*
X16215033Y-11169550D02*
G75*
G02*
X16315033Y-11169550I50000J0D01*
G01*
D13*
X7869622Y-15560877D02*
X7869622Y-15670877D01*
X7814622Y-15615877D02*
X7924622Y-15615877D01*
X7869622Y-15814877D02*
X7869622Y-15924877D01*
X7814622Y-15869877D02*
X7924622Y-15869877D01*
X8123622Y-15560877D02*
X8123622Y-15670877D01*
X8068622Y-15615877D02*
X8178622Y-15615877D01*
X8123622Y-15814877D02*
X8123622Y-15924877D01*
X8068622Y-15869877D02*
X8178622Y-15869877D01*
X8377622Y-15560877D02*
X8377622Y-15670877D01*
X8322622Y-15615877D02*
X8432622Y-15615877D01*
X8377622Y-15814877D02*
X8377622Y-15924877D01*
X8322622Y-15869877D02*
X8432622Y-15869877D01*
X8631622Y-15814877D02*
X8631622Y-15924877D01*
X8576622Y-15869877D02*
X8686622Y-15869877D01*
X8632622Y-15560877D02*
X8632622Y-15670877D01*
X8577622Y-15615877D02*
X8687622Y-15615877D01*
X8885622Y-15560877D02*
X8885622Y-15670877D01*
X8830622Y-15615877D02*
X8940622Y-15615877D01*
X8885622Y-15814877D02*
X8885622Y-15924877D01*
X8830622Y-15869877D02*
X8940622Y-15869877D01*
X9139622Y-15560877D02*
X9139622Y-15670877D01*
X9084622Y-15615877D02*
X9194622Y-15615877D01*
X9139622Y-15814877D02*
X9139622Y-15924877D01*
X9084622Y-15869877D02*
X9194622Y-15869877D01*
X9393622Y-15560877D02*
X9393622Y-15670877D01*
X9338622Y-15615877D02*
X9448622Y-15615877D01*
X9393622Y-15814877D02*
X9393622Y-15924877D01*
X9338622Y-15869877D02*
X9448622Y-15869877D01*
X9647622Y-15560877D02*
X9647622Y-15670877D01*
X9592622Y-15615877D02*
X9702622Y-15615877D01*
X9647622Y-15814877D02*
X9647622Y-15924877D01*
X9592622Y-15869877D02*
X9702622Y-15869877D01*
X9901622Y-15560877D02*
X9901622Y-15670877D01*
X9846622Y-15615877D02*
X9956622Y-15615877D01*
X9901622Y-15814877D02*
X9901622Y-15924877D01*
X9846622Y-15869877D02*
X9956622Y-15869877D01*
X10155622Y-15560877D02*
X10155622Y-15670877D01*
X10100622Y-15615877D02*
X10210622Y-15615877D01*
X10155622Y-15814877D02*
X10155622Y-15924877D01*
X10100622Y-15869877D02*
X10210622Y-15869877D01*
X10409622Y-15560877D02*
X10409622Y-15670877D01*
X10354622Y-15615877D02*
X10464622Y-15615877D01*
X10409622Y-15814877D02*
X10409622Y-15924877D01*
X10354622Y-15869877D02*
X10464622Y-15869877D01*
X10663622Y-15560877D02*
X10663622Y-15670877D01*
X10608622Y-15615877D02*
X10718622Y-15615877D01*
X10663622Y-15814877D02*
X10663622Y-15924877D01*
X10608622Y-15869877D02*
X10718622Y-15869877D01*
X10917622Y-15560877D02*
X10917622Y-15670877D01*
X10862622Y-15615877D02*
X10972622Y-15615877D01*
X10917622Y-15814877D02*
X10917622Y-15924877D01*
X10862622Y-15869877D02*
X10972622Y-15869877D01*
X11171622Y-15814877D02*
X11171622Y-15924877D01*
X11116622Y-15869877D02*
X11226622Y-15869877D01*
X11172622Y-15560877D02*
X11172622Y-15670877D01*
X11117622Y-15615877D02*
X11227622Y-15615877D01*
X11425622Y-15560877D02*
X11425622Y-15670877D01*
X11370622Y-15615877D02*
X11480622Y-15615877D01*
X11425622Y-15814877D02*
X11425622Y-15924877D01*
X11370622Y-15869877D02*
X11480622Y-15869877D01*
X11679622Y-15560877D02*
X11679622Y-15670877D01*
X11624622Y-15615877D02*
X11734622Y-15615877D01*
X11679622Y-15814877D02*
X11679622Y-15924877D01*
X11624622Y-15869877D02*
X11734622Y-15869877D01*
X11933622Y-15560877D02*
X11933622Y-15670877D01*
X11878622Y-15615877D02*
X11988622Y-15615877D01*
X11933622Y-15814877D02*
X11933622Y-15924877D01*
X11878622Y-15869877D02*
X11988622Y-15869877D01*
X12187622Y-15560877D02*
X12187622Y-15670877D01*
X12132622Y-15615877D02*
X12242622Y-15615877D01*
X12187622Y-15814877D02*
X12187622Y-15924877D01*
X12132622Y-15869877D02*
X12242622Y-15869877D01*
X12441622Y-15560877D02*
X12441622Y-15670877D01*
X12386622Y-15615877D02*
X12496622Y-15615877D01*
X12441622Y-15814877D02*
X12441622Y-15924877D01*
X12386622Y-15869877D02*
X12496622Y-15869877D01*
X12695622Y-15560877D02*
X12695622Y-15670877D01*
X12640622Y-15615877D02*
X12750622Y-15615877D01*
X12695622Y-15814877D02*
X12695622Y-15924877D01*
X12640622Y-15869877D02*
X12750622Y-15869877D01*
X12949622Y-15560877D02*
X12949622Y-15670877D01*
X12894622Y-15615877D02*
X13004622Y-15615877D01*
X12949622Y-15814877D02*
X12949622Y-15924877D01*
X12894622Y-15869877D02*
X13004622Y-15869877D01*
X13203622Y-15560877D02*
X13203622Y-15670877D01*
X13148622Y-15615877D02*
X13258622Y-15615877D01*
X13203622Y-15814877D02*
X13203622Y-15924877D01*
X13148622Y-15869877D02*
X13258622Y-15869877D01*
X13457622Y-15560877D02*
X13457622Y-15670877D01*
X13402622Y-15615877D02*
X13512622Y-15615877D01*
X13457622Y-15814877D02*
X13457622Y-15924877D01*
X13402622Y-15869877D02*
X13512622Y-15869877D01*
X13711622Y-15814877D02*
X13711622Y-15924877D01*
X13656622Y-15869877D02*
X13766622Y-15869877D01*
X13712622Y-15560877D02*
X13712622Y-15670877D01*
X13657622Y-15615877D02*
X13767622Y-15615877D01*
X13965622Y-15560877D02*
X13965622Y-15670877D01*
X13910622Y-15615877D02*
X14020622Y-15615877D01*
X13965622Y-15814877D02*
X13965622Y-15924877D01*
X13910622Y-15869877D02*
X14020622Y-15869877D01*
X14219622Y-15560877D02*
X14219622Y-15670877D01*
X14164622Y-15615877D02*
X14274622Y-15615877D01*
X14219622Y-15814877D02*
X14219622Y-15924877D01*
X14164622Y-15869877D02*
X14274622Y-15869877D01*
X14473622Y-15560877D02*
X14473622Y-15670877D01*
X14418622Y-15615877D02*
X14528622Y-15615877D01*
X14473622Y-15814877D02*
X14473622Y-15924877D01*
X14418622Y-15869877D02*
X14528622Y-15869877D01*
X14727622Y-15560877D02*
X14727622Y-15670877D01*
X14672622Y-15615877D02*
X14782622Y-15615877D01*
X14727622Y-15814877D02*
X14727622Y-15924877D01*
X14672622Y-15869877D02*
X14782622Y-15869877D01*
X14981622Y-15560877D02*
X14981622Y-15670877D01*
X14926622Y-15615877D02*
X15036622Y-15615877D01*
X14981622Y-15814877D02*
X14981622Y-15924877D01*
X14926622Y-15869877D02*
X15036622Y-15869877D01*
X15235622Y-15560877D02*
X15235622Y-15670877D01*
X15180622Y-15615877D02*
X15290622Y-15615877D01*
X15235622Y-15814877D02*
X15235622Y-15924877D01*
X15180622Y-15869877D02*
X15290622Y-15869877D01*
X15489622Y-15560877D02*
X15489622Y-15670877D01*
X15434622Y-15615877D02*
X15544622Y-15615877D01*
X15489622Y-15814877D02*
X15489622Y-15924877D01*
X15434622Y-15869877D02*
X15544622Y-15869877D01*
X15743622Y-15560877D02*
X15743622Y-15670877D01*
X15688622Y-15615877D02*
X15798622Y-15615877D01*
X15743622Y-15814877D02*
X15743622Y-15924877D01*
X15688622Y-15869877D02*
X15798622Y-15869877D01*
D14*
X16733462Y-13861462D02*
X16733462Y-13769538D01*
X16641538Y-13769538D01*
X16641538Y-13861462D01*
X16733462Y-13861462D01*
X16733462Y-14115462D02*
X16733462Y-14023538D01*
X16641538Y-14023538D01*
X16641538Y-14115462D01*
X16733462Y-14115462D01*
D15*
X7479033Y-5800049D02*
X7639033Y-5640049D01*
X7479033Y-5480050D01*
X7319033Y-5640049D01*
X7479033Y-5800049D01*
X7479033Y-12150049D02*
X7639033Y-11990049D01*
X7479033Y-11830049D01*
X7319033Y-11990049D01*
X7479033Y-12150049D01*
X8625627Y-4643500D02*
X8785627Y-4483500D01*
X8625627Y-4323500D01*
X8465627Y-4483500D01*
X8625627Y-4643500D01*
X8625627Y-13287500D02*
X8785627Y-13127500D01*
X8625627Y-12967500D01*
X8465627Y-13127500D01*
X8625627Y-13287500D01*
X14975627Y-4643500D02*
X15135627Y-4483500D01*
X14975627Y-4323500D01*
X14815627Y-4483500D01*
X14975627Y-4643500D01*
X14975627Y-13287500D02*
X15135627Y-13127500D01*
X14975627Y-12967500D01*
X14815627Y-13127500D01*
X14975627Y-13287500D01*
X16123033Y-5800049D02*
X16283033Y-5640049D01*
X16123033Y-5480050D01*
X15963033Y-5640049D01*
X16123033Y-5800049D01*
X16123033Y-12150049D02*
X16283033Y-11990049D01*
X16123033Y-11830049D01*
X15963033Y-11990049D01*
X16123033Y-12150049D01*
D11*
X6598855Y-16691866D02*
X6598855Y-16491866D01*
X6598855Y-16491866D02*
X6646474Y-16491866D01*
X6646474Y-16491866D02*
X6675046Y-16501390D01*
X6675046Y-16501390D02*
X6694093Y-16520438D01*
X6694093Y-16520438D02*
X6703617Y-16539485D01*
X6703617Y-16539485D02*
X6713141Y-16577580D01*
X6713141Y-16577580D02*
X6713141Y-16606152D01*
X6713141Y-16606152D02*
X6703617Y-16644247D01*
X6703617Y-16644247D02*
X6694093Y-16663295D01*
X6694093Y-16663295D02*
X6675046Y-16682342D01*
X6675046Y-16682342D02*
X6646474Y-16691866D01*
X6646474Y-16691866D02*
X6598855Y-16691866D01*
X6798855Y-16691866D02*
X6798855Y-16558533D01*
X6798855Y-16596628D02*
X6808379Y-16577580D01*
X6808379Y-16577580D02*
X6817903Y-16568057D01*
X6817903Y-16568057D02*
X6836950Y-16558533D01*
X6836950Y-16558533D02*
X6855998Y-16558533D01*
X6922665Y-16691866D02*
X6922665Y-16558533D01*
X6922665Y-16491866D02*
X6913141Y-16501390D01*
X6913141Y-16501390D02*
X6922665Y-16510914D01*
X6922665Y-16510914D02*
X6932188Y-16501390D01*
X6932188Y-16501390D02*
X6922665Y-16491866D01*
X6922665Y-16491866D02*
X6922665Y-16510914D01*
X7046474Y-16691866D02*
X7027426Y-16682342D01*
X7027426Y-16682342D02*
X7017903Y-16663295D01*
X7017903Y-16663295D02*
X7017903Y-16491866D01*
X7151236Y-16691866D02*
X7132188Y-16682342D01*
X7132188Y-16682342D02*
X7122665Y-16663295D01*
X7122665Y-16663295D02*
X7122665Y-16491866D01*
X7379807Y-16691866D02*
X7379807Y-16491866D01*
X7379807Y-16491866D02*
X7446474Y-16634723D01*
X7446474Y-16634723D02*
X7513141Y-16491866D01*
X7513141Y-16491866D02*
X7513141Y-16691866D01*
X7694093Y-16691866D02*
X7694093Y-16587104D01*
X7694093Y-16587104D02*
X7684569Y-16568057D01*
X7684569Y-16568057D02*
X7665522Y-16558533D01*
X7665522Y-16558533D02*
X7627426Y-16558533D01*
X7627426Y-16558533D02*
X7608379Y-16568057D01*
X7694093Y-16682342D02*
X7675046Y-16691866D01*
X7675046Y-16691866D02*
X7627426Y-16691866D01*
X7627426Y-16691866D02*
X7608379Y-16682342D01*
X7608379Y-16682342D02*
X7598855Y-16663295D01*
X7598855Y-16663295D02*
X7598855Y-16644247D01*
X7598855Y-16644247D02*
X7608379Y-16625200D01*
X7608379Y-16625200D02*
X7627426Y-16615676D01*
X7627426Y-16615676D02*
X7675046Y-16615676D01*
X7675046Y-16615676D02*
X7694093Y-16606152D01*
X7789331Y-16558533D02*
X7789331Y-16758533D01*
X7789331Y-16568057D02*
X7808379Y-16558533D01*
X7808379Y-16558533D02*
X7846474Y-16558533D01*
X7846474Y-16558533D02*
X7865522Y-16568057D01*
X7865522Y-16568057D02*
X7875046Y-16577580D01*
X7875046Y-16577580D02*
X7884569Y-16596628D01*
X7884569Y-16596628D02*
X7884569Y-16653771D01*
X7884569Y-16653771D02*
X7875046Y-16672819D01*
X7875046Y-16672819D02*
X7865522Y-16682342D01*
X7865522Y-16682342D02*
X7846474Y-16691866D01*
X7846474Y-16691866D02*
X7808379Y-16691866D01*
X7808379Y-16691866D02*
X7789331Y-16682342D01*
X7970284Y-16672819D02*
X7979807Y-16682342D01*
X7979807Y-16682342D02*
X7970284Y-16691866D01*
X7970284Y-16691866D02*
X7960760Y-16682342D01*
X7960760Y-16682342D02*
X7970284Y-16672819D01*
X7970284Y-16672819D02*
X7970284Y-16691866D01*
X7970284Y-16568057D02*
X7979807Y-16577580D01*
X7979807Y-16577580D02*
X7970284Y-16587104D01*
X7970284Y-16587104D02*
X7960760Y-16577580D01*
X7960760Y-16577580D02*
X7970284Y-16568057D01*
X7970284Y-16568057D02*
X7970284Y-16587104D01*
D12*
X6308078Y-17005383D02*
X6338078Y-17035383D01*
X6338078Y-17005383D02*
X6308078Y-17035383D01*
D11*
X6636950Y-16911866D02*
X6655998Y-16911866D01*
X6655998Y-16911866D02*
X6675046Y-16921390D01*
X6675046Y-16921390D02*
X6684569Y-16930914D01*
X6684569Y-16930914D02*
X6694093Y-16949962D01*
X6694093Y-16949962D02*
X6703617Y-16988057D01*
X6703617Y-16988057D02*
X6703617Y-17035676D01*
X6703617Y-17035676D02*
X6694093Y-17073771D01*
X6694093Y-17073771D02*
X6684569Y-17092819D01*
X6684569Y-17092819D02*
X6675046Y-17102343D01*
X6675046Y-17102343D02*
X6655998Y-17111866D01*
X6655998Y-17111866D02*
X6636950Y-17111866D01*
X6636950Y-17111866D02*
X6617903Y-17102343D01*
X6617903Y-17102343D02*
X6608379Y-17092819D01*
X6608379Y-17092819D02*
X6598855Y-17073771D01*
X6598855Y-17073771D02*
X6589331Y-17035676D01*
X6589331Y-17035676D02*
X6589331Y-16988057D01*
X6589331Y-16988057D02*
X6598855Y-16949962D01*
X6598855Y-16949962D02*
X6608379Y-16930914D01*
X6608379Y-16930914D02*
X6617903Y-16921390D01*
X6617903Y-16921390D02*
X6636950Y-16911866D01*
X6789331Y-17092819D02*
X6798855Y-17102343D01*
X6798855Y-17102343D02*
X6789331Y-17111866D01*
X6789331Y-17111866D02*
X6779807Y-17102343D01*
X6779807Y-17102343D02*
X6789331Y-17092819D01*
X6789331Y-17092819D02*
X6789331Y-17111866D01*
X6865522Y-16911866D02*
X6989331Y-16911866D01*
X6989331Y-16911866D02*
X6922665Y-16988057D01*
X6922665Y-16988057D02*
X6951236Y-16988057D01*
X6951236Y-16988057D02*
X6970284Y-16997581D01*
X6970284Y-16997581D02*
X6979807Y-17007104D01*
X6979807Y-17007104D02*
X6989331Y-17026152D01*
X6989331Y-17026152D02*
X6989331Y-17073771D01*
X6989331Y-17073771D02*
X6979807Y-17092819D01*
X6979807Y-17092819D02*
X6970284Y-17102343D01*
X6970284Y-17102343D02*
X6951236Y-17111866D01*
X6951236Y-17111866D02*
X6894093Y-17111866D01*
X6894093Y-17111866D02*
X6875046Y-17102343D01*
X6875046Y-17102343D02*
X6865522Y-17092819D01*
X7113141Y-16911866D02*
X7132188Y-16911866D01*
X7132188Y-16911866D02*
X7151236Y-16921390D01*
X7151236Y-16921390D02*
X7160760Y-16930914D01*
X7160760Y-16930914D02*
X7170284Y-16949962D01*
X7170284Y-16949962D02*
X7179807Y-16988057D01*
X7179807Y-16988057D02*
X7179807Y-17035676D01*
X7179807Y-17035676D02*
X7170284Y-17073771D01*
X7170284Y-17073771D02*
X7160760Y-17092819D01*
X7160760Y-17092819D02*
X7151236Y-17102343D01*
X7151236Y-17102343D02*
X7132188Y-17111866D01*
X7132188Y-17111866D02*
X7113141Y-17111866D01*
X7113141Y-17111866D02*
X7094093Y-17102343D01*
X7094093Y-17102343D02*
X7084569Y-17092819D01*
X7084569Y-17092819D02*
X7075046Y-17073771D01*
X7075046Y-17073771D02*
X7065522Y-17035676D01*
X7065522Y-17035676D02*
X7065522Y-16988057D01*
X7065522Y-16988057D02*
X7075046Y-16949962D01*
X7075046Y-16949962D02*
X7084569Y-16930914D01*
X7084569Y-16930914D02*
X7094093Y-16921390D01*
X7094093Y-16921390D02*
X7113141Y-16911866D01*
X7303617Y-16911866D02*
X7322665Y-16911866D01*
X7322665Y-16911866D02*
X7341712Y-16921390D01*
X7341712Y-16921390D02*
X7351236Y-16930914D01*
X7351236Y-16930914D02*
X7360760Y-16949962D01*
X7360760Y-16949962D02*
X7370284Y-16988057D01*
X7370284Y-16988057D02*
X7370284Y-17035676D01*
X7370284Y-17035676D02*
X7360760Y-17073771D01*
X7360760Y-17073771D02*
X7351236Y-17092819D01*
X7351236Y-17092819D02*
X7341712Y-17102343D01*
X7341712Y-17102343D02*
X7322665Y-17111866D01*
X7322665Y-17111866D02*
X7303617Y-17111866D01*
X7303617Y-17111866D02*
X7284569Y-17102343D01*
X7284569Y-17102343D02*
X7275046Y-17092819D01*
X7275046Y-17092819D02*
X7265522Y-17073771D01*
X7265522Y-17073771D02*
X7255998Y-17035676D01*
X7255998Y-17035676D02*
X7255998Y-16988057D01*
X7255998Y-16988057D02*
X7265522Y-16949962D01*
X7265522Y-16949962D02*
X7275046Y-16930914D01*
X7275046Y-16930914D02*
X7284569Y-16921390D01*
X7284569Y-16921390D02*
X7303617Y-16911866D01*
X7455998Y-17111866D02*
X7455998Y-16978533D01*
X7455998Y-16997581D02*
X7465522Y-16988057D01*
X7465522Y-16988057D02*
X7484569Y-16978533D01*
X7484569Y-16978533D02*
X7513141Y-16978533D01*
X7513141Y-16978533D02*
X7532188Y-16988057D01*
X7532188Y-16988057D02*
X7541712Y-17007104D01*
X7541712Y-17007104D02*
X7541712Y-17111866D01*
X7541712Y-17007104D02*
X7551236Y-16988057D01*
X7551236Y-16988057D02*
X7570284Y-16978533D01*
X7570284Y-16978533D02*
X7598855Y-16978533D01*
X7598855Y-16978533D02*
X7617903Y-16988057D01*
X7617903Y-16988057D02*
X7627427Y-17007104D01*
X7627427Y-17007104D02*
X7627427Y-17111866D01*
X7722665Y-17111866D02*
X7722665Y-16978533D01*
X7722665Y-16997581D02*
X7732188Y-16988057D01*
X7732188Y-16988057D02*
X7751236Y-16978533D01*
X7751236Y-16978533D02*
X7779808Y-16978533D01*
X7779808Y-16978533D02*
X7798855Y-16988057D01*
X7798855Y-16988057D02*
X7808379Y-17007104D01*
X7808379Y-17007104D02*
X7808379Y-17111866D01*
X7808379Y-17007104D02*
X7817903Y-16988057D01*
X7817903Y-16988057D02*
X7836950Y-16978533D01*
X7836950Y-16978533D02*
X7865522Y-16978533D01*
X7865522Y-16978533D02*
X7884569Y-16988057D01*
X7884569Y-16988057D02*
X7894093Y-17007104D01*
X7894093Y-17007104D02*
X7894093Y-17111866D01*
X8284569Y-16902343D02*
X8113141Y-17159485D01*
X8541712Y-16911866D02*
X8560760Y-16911866D01*
X8560760Y-16911866D02*
X8579808Y-16921390D01*
X8579808Y-16921390D02*
X8589332Y-16930914D01*
X8589332Y-16930914D02*
X8598855Y-16949962D01*
X8598855Y-16949962D02*
X8608379Y-16988057D01*
X8608379Y-16988057D02*
X8608379Y-17035676D01*
X8608379Y-17035676D02*
X8598855Y-17073771D01*
X8598855Y-17073771D02*
X8589332Y-17092819D01*
X8589332Y-17092819D02*
X8579808Y-17102343D01*
X8579808Y-17102343D02*
X8560760Y-17111866D01*
X8560760Y-17111866D02*
X8541712Y-17111866D01*
X8541712Y-17111866D02*
X8522665Y-17102343D01*
X8522665Y-17102343D02*
X8513141Y-17092819D01*
X8513141Y-17092819D02*
X8503617Y-17073771D01*
X8503617Y-17073771D02*
X8494093Y-17035676D01*
X8494093Y-17035676D02*
X8494093Y-16988057D01*
X8494093Y-16988057D02*
X8503617Y-16949962D01*
X8503617Y-16949962D02*
X8513141Y-16930914D01*
X8513141Y-16930914D02*
X8522665Y-16921390D01*
X8522665Y-16921390D02*
X8541712Y-16911866D01*
X8694093Y-17092819D02*
X8703617Y-17102343D01*
X8703617Y-17102343D02*
X8694093Y-17111866D01*
X8694093Y-17111866D02*
X8684570Y-17102343D01*
X8684570Y-17102343D02*
X8694093Y-17092819D01*
X8694093Y-17092819D02*
X8694093Y-17111866D01*
X8827427Y-16911866D02*
X8846474Y-16911866D01*
X8846474Y-16911866D02*
X8865522Y-16921390D01*
X8865522Y-16921390D02*
X8875046Y-16930914D01*
X8875046Y-16930914D02*
X8884570Y-16949962D01*
X8884570Y-16949962D02*
X8894093Y-16988057D01*
X8894093Y-16988057D02*
X8894093Y-17035676D01*
X8894093Y-17035676D02*
X8884570Y-17073771D01*
X8884570Y-17073771D02*
X8875046Y-17092819D01*
X8875046Y-17092819D02*
X8865522Y-17102343D01*
X8865522Y-17102343D02*
X8846474Y-17111866D01*
X8846474Y-17111866D02*
X8827427Y-17111866D01*
X8827427Y-17111866D02*
X8808379Y-17102343D01*
X8808379Y-17102343D02*
X8798855Y-17092819D01*
X8798855Y-17092819D02*
X8789332Y-17073771D01*
X8789332Y-17073771D02*
X8779808Y-17035676D01*
X8779808Y-17035676D02*
X8779808Y-16988057D01*
X8779808Y-16988057D02*
X8789332Y-16949962D01*
X8789332Y-16949962D02*
X8798855Y-16930914D01*
X8798855Y-16930914D02*
X8808379Y-16921390D01*
X8808379Y-16921390D02*
X8827427Y-16911866D01*
X9084570Y-17111866D02*
X8970284Y-17111866D01*
X9027427Y-17111866D02*
X9027427Y-16911866D01*
X9027427Y-16911866D02*
X9008379Y-16940438D01*
X9008379Y-16940438D02*
X8989332Y-16959485D01*
X8989332Y-16959485D02*
X8970284Y-16969009D01*
X9275046Y-17111866D02*
X9160760Y-17111866D01*
X9217903Y-17111866D02*
X9217903Y-16911866D01*
X9217903Y-16911866D02*
X9198855Y-16940438D01*
X9198855Y-16940438D02*
X9179808Y-16959485D01*
X9179808Y-16959485D02*
X9160760Y-16969009D01*
X9389332Y-16997581D02*
X9370284Y-16988057D01*
X9370284Y-16988057D02*
X9360760Y-16978533D01*
X9360760Y-16978533D02*
X9351236Y-16959485D01*
X9351236Y-16959485D02*
X9351236Y-16949962D01*
X9351236Y-16949962D02*
X9360760Y-16930914D01*
X9360760Y-16930914D02*
X9370284Y-16921390D01*
X9370284Y-16921390D02*
X9389332Y-16911866D01*
X9389332Y-16911866D02*
X9427427Y-16911866D01*
X9427427Y-16911866D02*
X9446474Y-16921390D01*
X9446474Y-16921390D02*
X9455998Y-16930914D01*
X9455998Y-16930914D02*
X9465522Y-16949962D01*
X9465522Y-16949962D02*
X9465522Y-16959485D01*
X9465522Y-16959485D02*
X9455998Y-16978533D01*
X9455998Y-16978533D02*
X9446474Y-16988057D01*
X9446474Y-16988057D02*
X9427427Y-16997581D01*
X9427427Y-16997581D02*
X9389332Y-16997581D01*
X9389332Y-16997581D02*
X9370284Y-17007104D01*
X9370284Y-17007104D02*
X9360760Y-17016628D01*
X9360760Y-17016628D02*
X9351236Y-17035676D01*
X9351236Y-17035676D02*
X9351236Y-17073771D01*
X9351236Y-17073771D02*
X9360760Y-17092819D01*
X9360760Y-17092819D02*
X9370284Y-17102343D01*
X9370284Y-17102343D02*
X9389332Y-17111866D01*
X9389332Y-17111866D02*
X9427427Y-17111866D01*
X9427427Y-17111866D02*
X9446474Y-17102343D01*
X9446474Y-17102343D02*
X9455998Y-17092819D01*
X9455998Y-17092819D02*
X9465522Y-17073771D01*
X9465522Y-17073771D02*
X9465522Y-17035676D01*
X9465522Y-17035676D02*
X9455998Y-17016628D01*
X9455998Y-17016628D02*
X9446474Y-17007104D01*
X9446474Y-17007104D02*
X9427427Y-16997581D01*
X9541713Y-16911866D02*
X9541713Y-16949962D01*
X9617903Y-16911866D02*
X9617903Y-16949962D01*
X9913141Y-17188057D02*
X9903617Y-17178533D01*
X9903617Y-17178533D02*
X9884570Y-17149962D01*
X9884570Y-17149962D02*
X9875046Y-17130914D01*
X9875046Y-17130914D02*
X9865522Y-17102343D01*
X9865522Y-17102343D02*
X9855998Y-17054723D01*
X9855998Y-17054723D02*
X9855998Y-17016628D01*
X9855998Y-17016628D02*
X9865522Y-16969009D01*
X9865522Y-16969009D02*
X9875046Y-16940438D01*
X9875046Y-16940438D02*
X9884570Y-16921390D01*
X9884570Y-16921390D02*
X9903617Y-16892819D01*
X9903617Y-16892819D02*
X9913141Y-16883295D01*
X10094094Y-17111866D02*
X9979808Y-17111866D01*
X10036951Y-17111866D02*
X10036951Y-16911866D01*
X10036951Y-16911866D02*
X10017903Y-16940438D01*
X10017903Y-16940438D02*
X9998855Y-16959485D01*
X9998855Y-16959485D02*
X9979808Y-16969009D01*
X10284570Y-17111866D02*
X10170284Y-17111866D01*
X10227427Y-17111866D02*
X10227427Y-16911866D01*
X10227427Y-16911866D02*
X10208379Y-16940438D01*
X10208379Y-16940438D02*
X10189332Y-16959485D01*
X10189332Y-16959485D02*
X10170284Y-16969009D01*
X10351236Y-16911866D02*
X10484570Y-16911866D01*
X10484570Y-16911866D02*
X10398855Y-17111866D01*
X10713141Y-17111866D02*
X10713141Y-16911866D01*
X10798856Y-17111866D02*
X10798856Y-17007104D01*
X10798856Y-17007104D02*
X10789332Y-16988057D01*
X10789332Y-16988057D02*
X10770284Y-16978533D01*
X10770284Y-16978533D02*
X10741713Y-16978533D01*
X10741713Y-16978533D02*
X10722665Y-16988057D01*
X10722665Y-16988057D02*
X10713141Y-16997581D01*
X10922665Y-17111866D02*
X10903617Y-17102343D01*
X10903617Y-17102343D02*
X10894094Y-17092819D01*
X10894094Y-17092819D02*
X10884570Y-17073771D01*
X10884570Y-17073771D02*
X10884570Y-17016628D01*
X10884570Y-17016628D02*
X10894094Y-16997581D01*
X10894094Y-16997581D02*
X10903617Y-16988057D01*
X10903617Y-16988057D02*
X10922665Y-16978533D01*
X10922665Y-16978533D02*
X10951237Y-16978533D01*
X10951237Y-16978533D02*
X10970284Y-16988057D01*
X10970284Y-16988057D02*
X10979808Y-16997581D01*
X10979808Y-16997581D02*
X10989332Y-17016628D01*
X10989332Y-17016628D02*
X10989332Y-17073771D01*
X10989332Y-17073771D02*
X10979808Y-17092819D01*
X10979808Y-17092819D02*
X10970284Y-17102343D01*
X10970284Y-17102343D02*
X10951237Y-17111866D01*
X10951237Y-17111866D02*
X10922665Y-17111866D01*
X11103617Y-17111866D02*
X11084570Y-17102343D01*
X11084570Y-17102343D02*
X11075046Y-17083295D01*
X11075046Y-17083295D02*
X11075046Y-16911866D01*
X11255998Y-17102343D02*
X11236951Y-17111866D01*
X11236951Y-17111866D02*
X11198855Y-17111866D01*
X11198855Y-17111866D02*
X11179808Y-17102343D01*
X11179808Y-17102343D02*
X11170284Y-17083295D01*
X11170284Y-17083295D02*
X11170284Y-17007104D01*
X11170284Y-17007104D02*
X11179808Y-16988057D01*
X11179808Y-16988057D02*
X11198855Y-16978533D01*
X11198855Y-16978533D02*
X11236951Y-16978533D01*
X11236951Y-16978533D02*
X11255998Y-16988057D01*
X11255998Y-16988057D02*
X11265522Y-17007104D01*
X11265522Y-17007104D02*
X11265522Y-17026152D01*
X11265522Y-17026152D02*
X11170284Y-17045200D01*
X11341713Y-17102343D02*
X11360760Y-17111866D01*
X11360760Y-17111866D02*
X11398855Y-17111866D01*
X11398855Y-17111866D02*
X11417903Y-17102343D01*
X11417903Y-17102343D02*
X11427427Y-17083295D01*
X11427427Y-17083295D02*
X11427427Y-17073771D01*
X11427427Y-17073771D02*
X11417903Y-17054723D01*
X11417903Y-17054723D02*
X11398855Y-17045200D01*
X11398855Y-17045200D02*
X11370284Y-17045200D01*
X11370284Y-17045200D02*
X11351236Y-17035676D01*
X11351236Y-17035676D02*
X11341713Y-17016628D01*
X11341713Y-17016628D02*
X11341713Y-17007104D01*
X11341713Y-17007104D02*
X11351236Y-16988057D01*
X11351236Y-16988057D02*
X11370284Y-16978533D01*
X11370284Y-16978533D02*
X11398855Y-16978533D01*
X11398855Y-16978533D02*
X11417903Y-16988057D01*
X11494094Y-17188057D02*
X11503617Y-17178533D01*
X11503617Y-17178533D02*
X11522665Y-17149962D01*
X11522665Y-17149962D02*
X11532189Y-17130914D01*
X11532189Y-17130914D02*
X11541713Y-17102343D01*
X11541713Y-17102343D02*
X11551236Y-17054723D01*
X11551236Y-17054723D02*
X11551236Y-17016628D01*
X11551236Y-17016628D02*
X11541713Y-16969009D01*
X11541713Y-16969009D02*
X11532189Y-16940438D01*
X11532189Y-16940438D02*
X11522665Y-16921390D01*
X11522665Y-16921390D02*
X11503617Y-16892819D01*
X11503617Y-16892819D02*
X11494094Y-16883295D01*
D12*
X6338078Y-17284383D02*
G75*
G02*
X6238078Y-17284383I-50000J0D01*
G01*
X6238078Y-17284383D02*
G75*
G02*
X6338078Y-17284383I50000J0D01*
G01*
D11*
X6703617Y-17375866D02*
X6589331Y-17375866D01*
X6646474Y-17375866D02*
X6646474Y-17175866D01*
X6646474Y-17175866D02*
X6627426Y-17204438D01*
X6627426Y-17204438D02*
X6608379Y-17223485D01*
X6608379Y-17223485D02*
X6589331Y-17233009D01*
X6789331Y-17356819D02*
X6798855Y-17366343D01*
X6798855Y-17366343D02*
X6789331Y-17375866D01*
X6789331Y-17375866D02*
X6779807Y-17366343D01*
X6779807Y-17366343D02*
X6789331Y-17356819D01*
X6789331Y-17356819D02*
X6789331Y-17375866D01*
X6922665Y-17175866D02*
X6941712Y-17175866D01*
X6941712Y-17175866D02*
X6960760Y-17185390D01*
X6960760Y-17185390D02*
X6970284Y-17194914D01*
X6970284Y-17194914D02*
X6979807Y-17213962D01*
X6979807Y-17213962D02*
X6989331Y-17252057D01*
X6989331Y-17252057D02*
X6989331Y-17299676D01*
X6989331Y-17299676D02*
X6979807Y-17337771D01*
X6979807Y-17337771D02*
X6970284Y-17356819D01*
X6970284Y-17356819D02*
X6960760Y-17366343D01*
X6960760Y-17366343D02*
X6941712Y-17375866D01*
X6941712Y-17375866D02*
X6922665Y-17375866D01*
X6922665Y-17375866D02*
X6903617Y-17366343D01*
X6903617Y-17366343D02*
X6894093Y-17356819D01*
X6894093Y-17356819D02*
X6884569Y-17337771D01*
X6884569Y-17337771D02*
X6875046Y-17299676D01*
X6875046Y-17299676D02*
X6875046Y-17252057D01*
X6875046Y-17252057D02*
X6884569Y-17213962D01*
X6884569Y-17213962D02*
X6894093Y-17194914D01*
X6894093Y-17194914D02*
X6903617Y-17185390D01*
X6903617Y-17185390D02*
X6922665Y-17175866D01*
X7113141Y-17175866D02*
X7132188Y-17175866D01*
X7132188Y-17175866D02*
X7151236Y-17185390D01*
X7151236Y-17185390D02*
X7160760Y-17194914D01*
X7160760Y-17194914D02*
X7170284Y-17213962D01*
X7170284Y-17213962D02*
X7179807Y-17252057D01*
X7179807Y-17252057D02*
X7179807Y-17299676D01*
X7179807Y-17299676D02*
X7170284Y-17337771D01*
X7170284Y-17337771D02*
X7160760Y-17356819D01*
X7160760Y-17356819D02*
X7151236Y-17366343D01*
X7151236Y-17366343D02*
X7132188Y-17375866D01*
X7132188Y-17375866D02*
X7113141Y-17375866D01*
X7113141Y-17375866D02*
X7094093Y-17366343D01*
X7094093Y-17366343D02*
X7084569Y-17356819D01*
X7084569Y-17356819D02*
X7075046Y-17337771D01*
X7075046Y-17337771D02*
X7065522Y-17299676D01*
X7065522Y-17299676D02*
X7065522Y-17252057D01*
X7065522Y-17252057D02*
X7075046Y-17213962D01*
X7075046Y-17213962D02*
X7084569Y-17194914D01*
X7084569Y-17194914D02*
X7094093Y-17185390D01*
X7094093Y-17185390D02*
X7113141Y-17175866D01*
X7303617Y-17175866D02*
X7322665Y-17175866D01*
X7322665Y-17175866D02*
X7341712Y-17185390D01*
X7341712Y-17185390D02*
X7351236Y-17194914D01*
X7351236Y-17194914D02*
X7360760Y-17213962D01*
X7360760Y-17213962D02*
X7370284Y-17252057D01*
X7370284Y-17252057D02*
X7370284Y-17299676D01*
X7370284Y-17299676D02*
X7360760Y-17337771D01*
X7360760Y-17337771D02*
X7351236Y-17356819D01*
X7351236Y-17356819D02*
X7341712Y-17366343D01*
X7341712Y-17366343D02*
X7322665Y-17375866D01*
X7322665Y-17375866D02*
X7303617Y-17375866D01*
X7303617Y-17375866D02*
X7284569Y-17366343D01*
X7284569Y-17366343D02*
X7275046Y-17356819D01*
X7275046Y-17356819D02*
X7265522Y-17337771D01*
X7265522Y-17337771D02*
X7255998Y-17299676D01*
X7255998Y-17299676D02*
X7255998Y-17252057D01*
X7255998Y-17252057D02*
X7265522Y-17213962D01*
X7265522Y-17213962D02*
X7275046Y-17194914D01*
X7275046Y-17194914D02*
X7284569Y-17185390D01*
X7284569Y-17185390D02*
X7303617Y-17175866D01*
X7455998Y-17375866D02*
X7455998Y-17242533D01*
X7455998Y-17261581D02*
X7465522Y-17252057D01*
X7465522Y-17252057D02*
X7484569Y-17242533D01*
X7484569Y-17242533D02*
X7513141Y-17242533D01*
X7513141Y-17242533D02*
X7532188Y-17252057D01*
X7532188Y-17252057D02*
X7541712Y-17271104D01*
X7541712Y-17271104D02*
X7541712Y-17375866D01*
X7541712Y-17271104D02*
X7551236Y-17252057D01*
X7551236Y-17252057D02*
X7570284Y-17242533D01*
X7570284Y-17242533D02*
X7598855Y-17242533D01*
X7598855Y-17242533D02*
X7617903Y-17252057D01*
X7617903Y-17252057D02*
X7627427Y-17271104D01*
X7627427Y-17271104D02*
X7627427Y-17375866D01*
X7722665Y-17375866D02*
X7722665Y-17242533D01*
X7722665Y-17261581D02*
X7732188Y-17252057D01*
X7732188Y-17252057D02*
X7751236Y-17242533D01*
X7751236Y-17242533D02*
X7779808Y-17242533D01*
X7779808Y-17242533D02*
X7798855Y-17252057D01*
X7798855Y-17252057D02*
X7808379Y-17271104D01*
X7808379Y-17271104D02*
X7808379Y-17375866D01*
X7808379Y-17271104D02*
X7817903Y-17252057D01*
X7817903Y-17252057D02*
X7836950Y-17242533D01*
X7836950Y-17242533D02*
X7865522Y-17242533D01*
X7865522Y-17242533D02*
X7884569Y-17252057D01*
X7884569Y-17252057D02*
X7894093Y-17271104D01*
X7894093Y-17271104D02*
X7894093Y-17375866D01*
X8284569Y-17166343D02*
X8113141Y-17423485D01*
X8541712Y-17175866D02*
X8560760Y-17175866D01*
X8560760Y-17175866D02*
X8579808Y-17185390D01*
X8579808Y-17185390D02*
X8589332Y-17194914D01*
X8589332Y-17194914D02*
X8598855Y-17213962D01*
X8598855Y-17213962D02*
X8608379Y-17252057D01*
X8608379Y-17252057D02*
X8608379Y-17299676D01*
X8608379Y-17299676D02*
X8598855Y-17337771D01*
X8598855Y-17337771D02*
X8589332Y-17356819D01*
X8589332Y-17356819D02*
X8579808Y-17366343D01*
X8579808Y-17366343D02*
X8560760Y-17375866D01*
X8560760Y-17375866D02*
X8541712Y-17375866D01*
X8541712Y-17375866D02*
X8522665Y-17366343D01*
X8522665Y-17366343D02*
X8513141Y-17356819D01*
X8513141Y-17356819D02*
X8503617Y-17337771D01*
X8503617Y-17337771D02*
X8494093Y-17299676D01*
X8494093Y-17299676D02*
X8494093Y-17252057D01*
X8494093Y-17252057D02*
X8503617Y-17213962D01*
X8503617Y-17213962D02*
X8513141Y-17194914D01*
X8513141Y-17194914D02*
X8522665Y-17185390D01*
X8522665Y-17185390D02*
X8541712Y-17175866D01*
X8694093Y-17356819D02*
X8703617Y-17366343D01*
X8703617Y-17366343D02*
X8694093Y-17375866D01*
X8694093Y-17375866D02*
X8684570Y-17366343D01*
X8684570Y-17366343D02*
X8694093Y-17356819D01*
X8694093Y-17356819D02*
X8694093Y-17375866D01*
X8827427Y-17175866D02*
X8846474Y-17175866D01*
X8846474Y-17175866D02*
X8865522Y-17185390D01*
X8865522Y-17185390D02*
X8875046Y-17194914D01*
X8875046Y-17194914D02*
X8884570Y-17213962D01*
X8884570Y-17213962D02*
X8894093Y-17252057D01*
X8894093Y-17252057D02*
X8894093Y-17299676D01*
X8894093Y-17299676D02*
X8884570Y-17337771D01*
X8884570Y-17337771D02*
X8875046Y-17356819D01*
X8875046Y-17356819D02*
X8865522Y-17366343D01*
X8865522Y-17366343D02*
X8846474Y-17375866D01*
X8846474Y-17375866D02*
X8827427Y-17375866D01*
X8827427Y-17375866D02*
X8808379Y-17366343D01*
X8808379Y-17366343D02*
X8798855Y-17356819D01*
X8798855Y-17356819D02*
X8789332Y-17337771D01*
X8789332Y-17337771D02*
X8779808Y-17299676D01*
X8779808Y-17299676D02*
X8779808Y-17252057D01*
X8779808Y-17252057D02*
X8789332Y-17213962D01*
X8789332Y-17213962D02*
X8798855Y-17194914D01*
X8798855Y-17194914D02*
X8808379Y-17185390D01*
X8808379Y-17185390D02*
X8827427Y-17175866D01*
X8960760Y-17175866D02*
X9084570Y-17175866D01*
X9084570Y-17175866D02*
X9017903Y-17252057D01*
X9017903Y-17252057D02*
X9046474Y-17252057D01*
X9046474Y-17252057D02*
X9065522Y-17261581D01*
X9065522Y-17261581D02*
X9075046Y-17271104D01*
X9075046Y-17271104D02*
X9084570Y-17290152D01*
X9084570Y-17290152D02*
X9084570Y-17337771D01*
X9084570Y-17337771D02*
X9075046Y-17356819D01*
X9075046Y-17356819D02*
X9065522Y-17366343D01*
X9065522Y-17366343D02*
X9046474Y-17375866D01*
X9046474Y-17375866D02*
X8989332Y-17375866D01*
X8989332Y-17375866D02*
X8970284Y-17366343D01*
X8970284Y-17366343D02*
X8960760Y-17356819D01*
X9179808Y-17375866D02*
X9217903Y-17375866D01*
X9217903Y-17375866D02*
X9236951Y-17366343D01*
X9236951Y-17366343D02*
X9246474Y-17356819D01*
X9246474Y-17356819D02*
X9265522Y-17328247D01*
X9265522Y-17328247D02*
X9275046Y-17290152D01*
X9275046Y-17290152D02*
X9275046Y-17213962D01*
X9275046Y-17213962D02*
X9265522Y-17194914D01*
X9265522Y-17194914D02*
X9255998Y-17185390D01*
X9255998Y-17185390D02*
X9236951Y-17175866D01*
X9236951Y-17175866D02*
X9198855Y-17175866D01*
X9198855Y-17175866D02*
X9179808Y-17185390D01*
X9179808Y-17185390D02*
X9170284Y-17194914D01*
X9170284Y-17194914D02*
X9160760Y-17213962D01*
X9160760Y-17213962D02*
X9160760Y-17261581D01*
X9160760Y-17261581D02*
X9170284Y-17280628D01*
X9170284Y-17280628D02*
X9179808Y-17290152D01*
X9179808Y-17290152D02*
X9198855Y-17299676D01*
X9198855Y-17299676D02*
X9236951Y-17299676D01*
X9236951Y-17299676D02*
X9255998Y-17290152D01*
X9255998Y-17290152D02*
X9265522Y-17280628D01*
X9265522Y-17280628D02*
X9275046Y-17261581D01*
X9446474Y-17242533D02*
X9446474Y-17375866D01*
X9398855Y-17166343D02*
X9351236Y-17309200D01*
X9351236Y-17309200D02*
X9475046Y-17309200D01*
X9541713Y-17175866D02*
X9541713Y-17213962D01*
X9617903Y-17175866D02*
X9617903Y-17213962D01*
X9913141Y-17452057D02*
X9903617Y-17442533D01*
X9903617Y-17442533D02*
X9884570Y-17413962D01*
X9884570Y-17413962D02*
X9875046Y-17394914D01*
X9875046Y-17394914D02*
X9865522Y-17366343D01*
X9865522Y-17366343D02*
X9855998Y-17318723D01*
X9855998Y-17318723D02*
X9855998Y-17280628D01*
X9855998Y-17280628D02*
X9865522Y-17233009D01*
X9865522Y-17233009D02*
X9875046Y-17204438D01*
X9875046Y-17204438D02*
X9884570Y-17185390D01*
X9884570Y-17185390D02*
X9903617Y-17156819D01*
X9903617Y-17156819D02*
X9913141Y-17147295D01*
X10094094Y-17375866D02*
X9979808Y-17375866D01*
X10036951Y-17375866D02*
X10036951Y-17175866D01*
X10036951Y-17175866D02*
X10017903Y-17204438D01*
X10017903Y-17204438D02*
X9998855Y-17223485D01*
X9998855Y-17223485D02*
X9979808Y-17233009D01*
X10265522Y-17242533D02*
X10265522Y-17375866D01*
X10217903Y-17166343D02*
X10170284Y-17309200D01*
X10170284Y-17309200D02*
X10294094Y-17309200D01*
X10398855Y-17261581D02*
X10379808Y-17252057D01*
X10379808Y-17252057D02*
X10370284Y-17242533D01*
X10370284Y-17242533D02*
X10360760Y-17223485D01*
X10360760Y-17223485D02*
X10360760Y-17213962D01*
X10360760Y-17213962D02*
X10370284Y-17194914D01*
X10370284Y-17194914D02*
X10379808Y-17185390D01*
X10379808Y-17185390D02*
X10398855Y-17175866D01*
X10398855Y-17175866D02*
X10436951Y-17175866D01*
X10436951Y-17175866D02*
X10455998Y-17185390D01*
X10455998Y-17185390D02*
X10465522Y-17194914D01*
X10465522Y-17194914D02*
X10475046Y-17213962D01*
X10475046Y-17213962D02*
X10475046Y-17223485D01*
X10475046Y-17223485D02*
X10465522Y-17242533D01*
X10465522Y-17242533D02*
X10455998Y-17252057D01*
X10455998Y-17252057D02*
X10436951Y-17261581D01*
X10436951Y-17261581D02*
X10398855Y-17261581D01*
X10398855Y-17261581D02*
X10379808Y-17271104D01*
X10379808Y-17271104D02*
X10370284Y-17280628D01*
X10370284Y-17280628D02*
X10360760Y-17299676D01*
X10360760Y-17299676D02*
X10360760Y-17337771D01*
X10360760Y-17337771D02*
X10370284Y-17356819D01*
X10370284Y-17356819D02*
X10379808Y-17366343D01*
X10379808Y-17366343D02*
X10398855Y-17375866D01*
X10398855Y-17375866D02*
X10436951Y-17375866D01*
X10436951Y-17375866D02*
X10455998Y-17366343D01*
X10455998Y-17366343D02*
X10465522Y-17356819D01*
X10465522Y-17356819D02*
X10475046Y-17337771D01*
X10475046Y-17337771D02*
X10475046Y-17299676D01*
X10475046Y-17299676D02*
X10465522Y-17280628D01*
X10465522Y-17280628D02*
X10455998Y-17271104D01*
X10455998Y-17271104D02*
X10436951Y-17261581D01*
X10713141Y-17375866D02*
X10713141Y-17175866D01*
X10798856Y-17375866D02*
X10798856Y-17271104D01*
X10798856Y-17271104D02*
X10789332Y-17252057D01*
X10789332Y-17252057D02*
X10770284Y-17242533D01*
X10770284Y-17242533D02*
X10741713Y-17242533D01*
X10741713Y-17242533D02*
X10722665Y-17252057D01*
X10722665Y-17252057D02*
X10713141Y-17261581D01*
X10922665Y-17375866D02*
X10903617Y-17366343D01*
X10903617Y-17366343D02*
X10894094Y-17356819D01*
X10894094Y-17356819D02*
X10884570Y-17337771D01*
X10884570Y-17337771D02*
X10884570Y-17280628D01*
X10884570Y-17280628D02*
X10894094Y-17261581D01*
X10894094Y-17261581D02*
X10903617Y-17252057D01*
X10903617Y-17252057D02*
X10922665Y-17242533D01*
X10922665Y-17242533D02*
X10951237Y-17242533D01*
X10951237Y-17242533D02*
X10970284Y-17252057D01*
X10970284Y-17252057D02*
X10979808Y-17261581D01*
X10979808Y-17261581D02*
X10989332Y-17280628D01*
X10989332Y-17280628D02*
X10989332Y-17337771D01*
X10989332Y-17337771D02*
X10979808Y-17356819D01*
X10979808Y-17356819D02*
X10970284Y-17366343D01*
X10970284Y-17366343D02*
X10951237Y-17375866D01*
X10951237Y-17375866D02*
X10922665Y-17375866D01*
X11103617Y-17375866D02*
X11084570Y-17366343D01*
X11084570Y-17366343D02*
X11075046Y-17347295D01*
X11075046Y-17347295D02*
X11075046Y-17175866D01*
X11255998Y-17366343D02*
X11236951Y-17375866D01*
X11236951Y-17375866D02*
X11198855Y-17375866D01*
X11198855Y-17375866D02*
X11179808Y-17366343D01*
X11179808Y-17366343D02*
X11170284Y-17347295D01*
X11170284Y-17347295D02*
X11170284Y-17271104D01*
X11170284Y-17271104D02*
X11179808Y-17252057D01*
X11179808Y-17252057D02*
X11198855Y-17242533D01*
X11198855Y-17242533D02*
X11236951Y-17242533D01*
X11236951Y-17242533D02*
X11255998Y-17252057D01*
X11255998Y-17252057D02*
X11265522Y-17271104D01*
X11265522Y-17271104D02*
X11265522Y-17290152D01*
X11265522Y-17290152D02*
X11170284Y-17309200D01*
X11341713Y-17366343D02*
X11360760Y-17375866D01*
X11360760Y-17375866D02*
X11398855Y-17375866D01*
X11398855Y-17375866D02*
X11417903Y-17366343D01*
X11417903Y-17366343D02*
X11427427Y-17347295D01*
X11427427Y-17347295D02*
X11427427Y-17337771D01*
X11427427Y-17337771D02*
X11417903Y-17318723D01*
X11417903Y-17318723D02*
X11398855Y-17309200D01*
X11398855Y-17309200D02*
X11370284Y-17309200D01*
X11370284Y-17309200D02*
X11351236Y-17299676D01*
X11351236Y-17299676D02*
X11341713Y-17280628D01*
X11341713Y-17280628D02*
X11341713Y-17271104D01*
X11341713Y-17271104D02*
X11351236Y-17252057D01*
X11351236Y-17252057D02*
X11370284Y-17242533D01*
X11370284Y-17242533D02*
X11398855Y-17242533D01*
X11398855Y-17242533D02*
X11417903Y-17252057D01*
X11494094Y-17452057D02*
X11503617Y-17442533D01*
X11503617Y-17442533D02*
X11522665Y-17413962D01*
X11522665Y-17413962D02*
X11532189Y-17394914D01*
X11532189Y-17394914D02*
X11541713Y-17366343D01*
X11541713Y-17366343D02*
X11551236Y-17318723D01*
X11551236Y-17318723D02*
X11551236Y-17280628D01*
X11551236Y-17280628D02*
X11541713Y-17233009D01*
X11541713Y-17233009D02*
X11532189Y-17204438D01*
X11532189Y-17204438D02*
X11522665Y-17185390D01*
X11522665Y-17185390D02*
X11503617Y-17156819D01*
X11503617Y-17156819D02*
X11494094Y-17147295D01*
D13*
X6283078Y-17493383D02*
X6283078Y-17603383D01*
X6228078Y-17548383D02*
X6338078Y-17548383D01*
D11*
X6703617Y-17639866D02*
X6589331Y-17639866D01*
X6646474Y-17639866D02*
X6646474Y-17439866D01*
X6646474Y-17439866D02*
X6627426Y-17468438D01*
X6627426Y-17468438D02*
X6608379Y-17487485D01*
X6608379Y-17487485D02*
X6589331Y-17497009D01*
X6789331Y-17620819D02*
X6798855Y-17630343D01*
X6798855Y-17630343D02*
X6789331Y-17639866D01*
X6789331Y-17639866D02*
X6779807Y-17630343D01*
X6779807Y-17630343D02*
X6789331Y-17620819D01*
X6789331Y-17620819D02*
X6789331Y-17639866D01*
X6989331Y-17639866D02*
X6875046Y-17639866D01*
X6932188Y-17639866D02*
X6932188Y-17439866D01*
X6932188Y-17439866D02*
X6913141Y-17468438D01*
X6913141Y-17468438D02*
X6894093Y-17487485D01*
X6894093Y-17487485D02*
X6875046Y-17497009D01*
X7113141Y-17439866D02*
X7132188Y-17439866D01*
X7132188Y-17439866D02*
X7151236Y-17449390D01*
X7151236Y-17449390D02*
X7160760Y-17458914D01*
X7160760Y-17458914D02*
X7170284Y-17477962D01*
X7170284Y-17477962D02*
X7179807Y-17516057D01*
X7179807Y-17516057D02*
X7179807Y-17563676D01*
X7179807Y-17563676D02*
X7170284Y-17601771D01*
X7170284Y-17601771D02*
X7160760Y-17620819D01*
X7160760Y-17620819D02*
X7151236Y-17630343D01*
X7151236Y-17630343D02*
X7132188Y-17639866D01*
X7132188Y-17639866D02*
X7113141Y-17639866D01*
X7113141Y-17639866D02*
X7094093Y-17630343D01*
X7094093Y-17630343D02*
X7084569Y-17620819D01*
X7084569Y-17620819D02*
X7075046Y-17601771D01*
X7075046Y-17601771D02*
X7065522Y-17563676D01*
X7065522Y-17563676D02*
X7065522Y-17516057D01*
X7065522Y-17516057D02*
X7075046Y-17477962D01*
X7075046Y-17477962D02*
X7084569Y-17458914D01*
X7084569Y-17458914D02*
X7094093Y-17449390D01*
X7094093Y-17449390D02*
X7113141Y-17439866D01*
X7303617Y-17439866D02*
X7322665Y-17439866D01*
X7322665Y-17439866D02*
X7341712Y-17449390D01*
X7341712Y-17449390D02*
X7351236Y-17458914D01*
X7351236Y-17458914D02*
X7360760Y-17477962D01*
X7360760Y-17477962D02*
X7370284Y-17516057D01*
X7370284Y-17516057D02*
X7370284Y-17563676D01*
X7370284Y-17563676D02*
X7360760Y-17601771D01*
X7360760Y-17601771D02*
X7351236Y-17620819D01*
X7351236Y-17620819D02*
X7341712Y-17630343D01*
X7341712Y-17630343D02*
X7322665Y-17639866D01*
X7322665Y-17639866D02*
X7303617Y-17639866D01*
X7303617Y-17639866D02*
X7284569Y-17630343D01*
X7284569Y-17630343D02*
X7275046Y-17620819D01*
X7275046Y-17620819D02*
X7265522Y-17601771D01*
X7265522Y-17601771D02*
X7255998Y-17563676D01*
X7255998Y-17563676D02*
X7255998Y-17516057D01*
X7255998Y-17516057D02*
X7265522Y-17477962D01*
X7265522Y-17477962D02*
X7275046Y-17458914D01*
X7275046Y-17458914D02*
X7284569Y-17449390D01*
X7284569Y-17449390D02*
X7303617Y-17439866D01*
X7455998Y-17639866D02*
X7455998Y-17506533D01*
X7455998Y-17525581D02*
X7465522Y-17516057D01*
X7465522Y-17516057D02*
X7484569Y-17506533D01*
X7484569Y-17506533D02*
X7513141Y-17506533D01*
X7513141Y-17506533D02*
X7532188Y-17516057D01*
X7532188Y-17516057D02*
X7541712Y-17535104D01*
X7541712Y-17535104D02*
X7541712Y-17639866D01*
X7541712Y-17535104D02*
X7551236Y-17516057D01*
X7551236Y-17516057D02*
X7570284Y-17506533D01*
X7570284Y-17506533D02*
X7598855Y-17506533D01*
X7598855Y-17506533D02*
X7617903Y-17516057D01*
X7617903Y-17516057D02*
X7627427Y-17535104D01*
X7627427Y-17535104D02*
X7627427Y-17639866D01*
X7722665Y-17639866D02*
X7722665Y-17506533D01*
X7722665Y-17525581D02*
X7732188Y-17516057D01*
X7732188Y-17516057D02*
X7751236Y-17506533D01*
X7751236Y-17506533D02*
X7779808Y-17506533D01*
X7779808Y-17506533D02*
X7798855Y-17516057D01*
X7798855Y-17516057D02*
X7808379Y-17535104D01*
X7808379Y-17535104D02*
X7808379Y-17639866D01*
X7808379Y-17535104D02*
X7817903Y-17516057D01*
X7817903Y-17516057D02*
X7836950Y-17506533D01*
X7836950Y-17506533D02*
X7865522Y-17506533D01*
X7865522Y-17506533D02*
X7884569Y-17516057D01*
X7884569Y-17516057D02*
X7894093Y-17535104D01*
X7894093Y-17535104D02*
X7894093Y-17639866D01*
X8284569Y-17430343D02*
X8113141Y-17687485D01*
X8541712Y-17439866D02*
X8560760Y-17439866D01*
X8560760Y-17439866D02*
X8579808Y-17449390D01*
X8579808Y-17449390D02*
X8589332Y-17458914D01*
X8589332Y-17458914D02*
X8598855Y-17477962D01*
X8598855Y-17477962D02*
X8608379Y-17516057D01*
X8608379Y-17516057D02*
X8608379Y-17563676D01*
X8608379Y-17563676D02*
X8598855Y-17601771D01*
X8598855Y-17601771D02*
X8589332Y-17620819D01*
X8589332Y-17620819D02*
X8579808Y-17630343D01*
X8579808Y-17630343D02*
X8560760Y-17639866D01*
X8560760Y-17639866D02*
X8541712Y-17639866D01*
X8541712Y-17639866D02*
X8522665Y-17630343D01*
X8522665Y-17630343D02*
X8513141Y-17620819D01*
X8513141Y-17620819D02*
X8503617Y-17601771D01*
X8503617Y-17601771D02*
X8494093Y-17563676D01*
X8494093Y-17563676D02*
X8494093Y-17516057D01*
X8494093Y-17516057D02*
X8503617Y-17477962D01*
X8503617Y-17477962D02*
X8513141Y-17458914D01*
X8513141Y-17458914D02*
X8522665Y-17449390D01*
X8522665Y-17449390D02*
X8541712Y-17439866D01*
X8694093Y-17620819D02*
X8703617Y-17630343D01*
X8703617Y-17630343D02*
X8694093Y-17639866D01*
X8694093Y-17639866D02*
X8684570Y-17630343D01*
X8684570Y-17630343D02*
X8694093Y-17620819D01*
X8694093Y-17620819D02*
X8694093Y-17639866D01*
X8827427Y-17439866D02*
X8846474Y-17439866D01*
X8846474Y-17439866D02*
X8865522Y-17449390D01*
X8865522Y-17449390D02*
X8875046Y-17458914D01*
X8875046Y-17458914D02*
X8884570Y-17477962D01*
X8884570Y-17477962D02*
X8894093Y-17516057D01*
X8894093Y-17516057D02*
X8894093Y-17563676D01*
X8894093Y-17563676D02*
X8884570Y-17601771D01*
X8884570Y-17601771D02*
X8875046Y-17620819D01*
X8875046Y-17620819D02*
X8865522Y-17630343D01*
X8865522Y-17630343D02*
X8846474Y-17639866D01*
X8846474Y-17639866D02*
X8827427Y-17639866D01*
X8827427Y-17639866D02*
X8808379Y-17630343D01*
X8808379Y-17630343D02*
X8798855Y-17620819D01*
X8798855Y-17620819D02*
X8789332Y-17601771D01*
X8789332Y-17601771D02*
X8779808Y-17563676D01*
X8779808Y-17563676D02*
X8779808Y-17516057D01*
X8779808Y-17516057D02*
X8789332Y-17477962D01*
X8789332Y-17477962D02*
X8798855Y-17458914D01*
X8798855Y-17458914D02*
X8808379Y-17449390D01*
X8808379Y-17449390D02*
X8827427Y-17439866D01*
X9065522Y-17506533D02*
X9065522Y-17639866D01*
X9017903Y-17430343D02*
X8970284Y-17573200D01*
X8970284Y-17573200D02*
X9094093Y-17573200D01*
X9151236Y-17439866D02*
X9275046Y-17439866D01*
X9275046Y-17439866D02*
X9208379Y-17516057D01*
X9208379Y-17516057D02*
X9236951Y-17516057D01*
X9236951Y-17516057D02*
X9255998Y-17525581D01*
X9255998Y-17525581D02*
X9265522Y-17535104D01*
X9265522Y-17535104D02*
X9275046Y-17554152D01*
X9275046Y-17554152D02*
X9275046Y-17601771D01*
X9275046Y-17601771D02*
X9265522Y-17620819D01*
X9265522Y-17620819D02*
X9255998Y-17630343D01*
X9255998Y-17630343D02*
X9236951Y-17639866D01*
X9236951Y-17639866D02*
X9179808Y-17639866D01*
X9179808Y-17639866D02*
X9160760Y-17630343D01*
X9160760Y-17630343D02*
X9151236Y-17620819D01*
X9341713Y-17439866D02*
X9465522Y-17439866D01*
X9465522Y-17439866D02*
X9398855Y-17516057D01*
X9398855Y-17516057D02*
X9427427Y-17516057D01*
X9427427Y-17516057D02*
X9446474Y-17525581D01*
X9446474Y-17525581D02*
X9455998Y-17535104D01*
X9455998Y-17535104D02*
X9465522Y-17554152D01*
X9465522Y-17554152D02*
X9465522Y-17601771D01*
X9465522Y-17601771D02*
X9455998Y-17620819D01*
X9455998Y-17620819D02*
X9446474Y-17630343D01*
X9446474Y-17630343D02*
X9427427Y-17639866D01*
X9427427Y-17639866D02*
X9370284Y-17639866D01*
X9370284Y-17639866D02*
X9351236Y-17630343D01*
X9351236Y-17630343D02*
X9341713Y-17620819D01*
X9541713Y-17439866D02*
X9541713Y-17477962D01*
X9617903Y-17439866D02*
X9617903Y-17477962D01*
X9913141Y-17716057D02*
X9903617Y-17706533D01*
X9903617Y-17706533D02*
X9884570Y-17677962D01*
X9884570Y-17677962D02*
X9875046Y-17658914D01*
X9875046Y-17658914D02*
X9865522Y-17630343D01*
X9865522Y-17630343D02*
X9855998Y-17582723D01*
X9855998Y-17582723D02*
X9855998Y-17544628D01*
X9855998Y-17544628D02*
X9865522Y-17497009D01*
X9865522Y-17497009D02*
X9875046Y-17468438D01*
X9875046Y-17468438D02*
X9884570Y-17449390D01*
X9884570Y-17449390D02*
X9903617Y-17420819D01*
X9903617Y-17420819D02*
X9913141Y-17411295D01*
X10075046Y-17439866D02*
X10036951Y-17439866D01*
X10036951Y-17439866D02*
X10017903Y-17449390D01*
X10017903Y-17449390D02*
X10008379Y-17458914D01*
X10008379Y-17458914D02*
X9989332Y-17487485D01*
X9989332Y-17487485D02*
X9979808Y-17525581D01*
X9979808Y-17525581D02*
X9979808Y-17601771D01*
X9979808Y-17601771D02*
X9989332Y-17620819D01*
X9989332Y-17620819D02*
X9998855Y-17630343D01*
X9998855Y-17630343D02*
X10017903Y-17639866D01*
X10017903Y-17639866D02*
X10055998Y-17639866D01*
X10055998Y-17639866D02*
X10075046Y-17630343D01*
X10075046Y-17630343D02*
X10084570Y-17620819D01*
X10084570Y-17620819D02*
X10094094Y-17601771D01*
X10094094Y-17601771D02*
X10094094Y-17554152D01*
X10094094Y-17554152D02*
X10084570Y-17535104D01*
X10084570Y-17535104D02*
X10075046Y-17525581D01*
X10075046Y-17525581D02*
X10055998Y-17516057D01*
X10055998Y-17516057D02*
X10017903Y-17516057D01*
X10017903Y-17516057D02*
X9998855Y-17525581D01*
X9998855Y-17525581D02*
X9989332Y-17535104D01*
X9989332Y-17535104D02*
X9979808Y-17554152D01*
X10265522Y-17506533D02*
X10265522Y-17639866D01*
X10217903Y-17430343D02*
X10170284Y-17573200D01*
X10170284Y-17573200D02*
X10294094Y-17573200D01*
X10522665Y-17639866D02*
X10522665Y-17439866D01*
X10608379Y-17639866D02*
X10608379Y-17535104D01*
X10608379Y-17535104D02*
X10598856Y-17516057D01*
X10598856Y-17516057D02*
X10579808Y-17506533D01*
X10579808Y-17506533D02*
X10551236Y-17506533D01*
X10551236Y-17506533D02*
X10532189Y-17516057D01*
X10532189Y-17516057D02*
X10522665Y-17525581D01*
X10732189Y-17639866D02*
X10713141Y-17630343D01*
X10713141Y-17630343D02*
X10703617Y-17620819D01*
X10703617Y-17620819D02*
X10694094Y-17601771D01*
X10694094Y-17601771D02*
X10694094Y-17544628D01*
X10694094Y-17544628D02*
X10703617Y-17525581D01*
X10703617Y-17525581D02*
X10713141Y-17516057D01*
X10713141Y-17516057D02*
X10732189Y-17506533D01*
X10732189Y-17506533D02*
X10760760Y-17506533D01*
X10760760Y-17506533D02*
X10779808Y-17516057D01*
X10779808Y-17516057D02*
X10789332Y-17525581D01*
X10789332Y-17525581D02*
X10798856Y-17544628D01*
X10798856Y-17544628D02*
X10798856Y-17601771D01*
X10798856Y-17601771D02*
X10789332Y-17620819D01*
X10789332Y-17620819D02*
X10779808Y-17630343D01*
X10779808Y-17630343D02*
X10760760Y-17639866D01*
X10760760Y-17639866D02*
X10732189Y-17639866D01*
X10913141Y-17639866D02*
X10894094Y-17630343D01*
X10894094Y-17630343D02*
X10884570Y-17611295D01*
X10884570Y-17611295D02*
X10884570Y-17439866D01*
X11065522Y-17630343D02*
X11046475Y-17639866D01*
X11046475Y-17639866D02*
X11008379Y-17639866D01*
X11008379Y-17639866D02*
X10989332Y-17630343D01*
X10989332Y-17630343D02*
X10979808Y-17611295D01*
X10979808Y-17611295D02*
X10979808Y-17535104D01*
X10979808Y-17535104D02*
X10989332Y-17516057D01*
X10989332Y-17516057D02*
X11008379Y-17506533D01*
X11008379Y-17506533D02*
X11046475Y-17506533D01*
X11046475Y-17506533D02*
X11065522Y-17516057D01*
X11065522Y-17516057D02*
X11075046Y-17535104D01*
X11075046Y-17535104D02*
X11075046Y-17554152D01*
X11075046Y-17554152D02*
X10979808Y-17573200D01*
X11151237Y-17630343D02*
X11170284Y-17639866D01*
X11170284Y-17639866D02*
X11208379Y-17639866D01*
X11208379Y-17639866D02*
X11227427Y-17630343D01*
X11227427Y-17630343D02*
X11236951Y-17611295D01*
X11236951Y-17611295D02*
X11236951Y-17601771D01*
X11236951Y-17601771D02*
X11227427Y-17582723D01*
X11227427Y-17582723D02*
X11208379Y-17573200D01*
X11208379Y-17573200D02*
X11179808Y-17573200D01*
X11179808Y-17573200D02*
X11160760Y-17563676D01*
X11160760Y-17563676D02*
X11151237Y-17544628D01*
X11151237Y-17544628D02*
X11151237Y-17535104D01*
X11151237Y-17535104D02*
X11160760Y-17516057D01*
X11160760Y-17516057D02*
X11179808Y-17506533D01*
X11179808Y-17506533D02*
X11208379Y-17506533D01*
X11208379Y-17506533D02*
X11227427Y-17516057D01*
X11303617Y-17716057D02*
X11313141Y-17706533D01*
X11313141Y-17706533D02*
X11332189Y-17677962D01*
X11332189Y-17677962D02*
X11341713Y-17658914D01*
X11341713Y-17658914D02*
X11351236Y-17630343D01*
X11351236Y-17630343D02*
X11360760Y-17582723D01*
X11360760Y-17582723D02*
X11360760Y-17544628D01*
X11360760Y-17544628D02*
X11351236Y-17497009D01*
X11351236Y-17497009D02*
X11341713Y-17468438D01*
X11341713Y-17468438D02*
X11332189Y-17449390D01*
X11332189Y-17449390D02*
X11313141Y-17420819D01*
X11313141Y-17420819D02*
X11303617Y-17411295D01*
D14*
X6319041Y-17858345D02*
X6319041Y-17766420D01*
X6227116Y-17766420D01*
X6227116Y-17858345D01*
X6319041Y-17858345D01*
D11*
X6703617Y-17903866D02*
X6589331Y-17903866D01*
X6646474Y-17903866D02*
X6646474Y-17703866D01*
X6646474Y-17703866D02*
X6627426Y-17732438D01*
X6627426Y-17732438D02*
X6608379Y-17751485D01*
X6608379Y-17751485D02*
X6589331Y-17761009D01*
X6789331Y-17884819D02*
X6798855Y-17894343D01*
X6798855Y-17894343D02*
X6789331Y-17903866D01*
X6789331Y-17903866D02*
X6779807Y-17894343D01*
X6779807Y-17894343D02*
X6789331Y-17884819D01*
X6789331Y-17884819D02*
X6789331Y-17903866D01*
X6865522Y-17703866D02*
X6989331Y-17703866D01*
X6989331Y-17703866D02*
X6922665Y-17780057D01*
X6922665Y-17780057D02*
X6951236Y-17780057D01*
X6951236Y-17780057D02*
X6970284Y-17789581D01*
X6970284Y-17789581D02*
X6979807Y-17799104D01*
X6979807Y-17799104D02*
X6989331Y-17818152D01*
X6989331Y-17818152D02*
X6989331Y-17865771D01*
X6989331Y-17865771D02*
X6979807Y-17884819D01*
X6979807Y-17884819D02*
X6970284Y-17894343D01*
X6970284Y-17894343D02*
X6951236Y-17903866D01*
X6951236Y-17903866D02*
X6894093Y-17903866D01*
X6894093Y-17903866D02*
X6875046Y-17894343D01*
X6875046Y-17894343D02*
X6865522Y-17884819D01*
X7113141Y-17703866D02*
X7132188Y-17703866D01*
X7132188Y-17703866D02*
X7151236Y-17713390D01*
X7151236Y-17713390D02*
X7160760Y-17722914D01*
X7160760Y-17722914D02*
X7170284Y-17741962D01*
X7170284Y-17741962D02*
X7179807Y-17780057D01*
X7179807Y-17780057D02*
X7179807Y-17827676D01*
X7179807Y-17827676D02*
X7170284Y-17865771D01*
X7170284Y-17865771D02*
X7160760Y-17884819D01*
X7160760Y-17884819D02*
X7151236Y-17894343D01*
X7151236Y-17894343D02*
X7132188Y-17903866D01*
X7132188Y-17903866D02*
X7113141Y-17903866D01*
X7113141Y-17903866D02*
X7094093Y-17894343D01*
X7094093Y-17894343D02*
X7084569Y-17884819D01*
X7084569Y-17884819D02*
X7075046Y-17865771D01*
X7075046Y-17865771D02*
X7065522Y-17827676D01*
X7065522Y-17827676D02*
X7065522Y-17780057D01*
X7065522Y-17780057D02*
X7075046Y-17741962D01*
X7075046Y-17741962D02*
X7084569Y-17722914D01*
X7084569Y-17722914D02*
X7094093Y-17713390D01*
X7094093Y-17713390D02*
X7113141Y-17703866D01*
X7303617Y-17703866D02*
X7322665Y-17703866D01*
X7322665Y-17703866D02*
X7341712Y-17713390D01*
X7341712Y-17713390D02*
X7351236Y-17722914D01*
X7351236Y-17722914D02*
X7360760Y-17741962D01*
X7360760Y-17741962D02*
X7370284Y-17780057D01*
X7370284Y-17780057D02*
X7370284Y-17827676D01*
X7370284Y-17827676D02*
X7360760Y-17865771D01*
X7360760Y-17865771D02*
X7351236Y-17884819D01*
X7351236Y-17884819D02*
X7341712Y-17894343D01*
X7341712Y-17894343D02*
X7322665Y-17903866D01*
X7322665Y-17903866D02*
X7303617Y-17903866D01*
X7303617Y-17903866D02*
X7284569Y-17894343D01*
X7284569Y-17894343D02*
X7275046Y-17884819D01*
X7275046Y-17884819D02*
X7265522Y-17865771D01*
X7265522Y-17865771D02*
X7255998Y-17827676D01*
X7255998Y-17827676D02*
X7255998Y-17780057D01*
X7255998Y-17780057D02*
X7265522Y-17741962D01*
X7265522Y-17741962D02*
X7275046Y-17722914D01*
X7275046Y-17722914D02*
X7284569Y-17713390D01*
X7284569Y-17713390D02*
X7303617Y-17703866D01*
X7455998Y-17903866D02*
X7455998Y-17770533D01*
X7455998Y-17789581D02*
X7465522Y-17780057D01*
X7465522Y-17780057D02*
X7484569Y-17770533D01*
X7484569Y-17770533D02*
X7513141Y-17770533D01*
X7513141Y-17770533D02*
X7532188Y-17780057D01*
X7532188Y-17780057D02*
X7541712Y-17799104D01*
X7541712Y-17799104D02*
X7541712Y-17903866D01*
X7541712Y-17799104D02*
X7551236Y-17780057D01*
X7551236Y-17780057D02*
X7570284Y-17770533D01*
X7570284Y-17770533D02*
X7598855Y-17770533D01*
X7598855Y-17770533D02*
X7617903Y-17780057D01*
X7617903Y-17780057D02*
X7627427Y-17799104D01*
X7627427Y-17799104D02*
X7627427Y-17903866D01*
X7722665Y-17903866D02*
X7722665Y-17770533D01*
X7722665Y-17789581D02*
X7732188Y-17780057D01*
X7732188Y-17780057D02*
X7751236Y-17770533D01*
X7751236Y-17770533D02*
X7779808Y-17770533D01*
X7779808Y-17770533D02*
X7798855Y-17780057D01*
X7798855Y-17780057D02*
X7808379Y-17799104D01*
X7808379Y-17799104D02*
X7808379Y-17903866D01*
X7808379Y-17799104D02*
X7817903Y-17780057D01*
X7817903Y-17780057D02*
X7836950Y-17770533D01*
X7836950Y-17770533D02*
X7865522Y-17770533D01*
X7865522Y-17770533D02*
X7884569Y-17780057D01*
X7884569Y-17780057D02*
X7894093Y-17799104D01*
X7894093Y-17799104D02*
X7894093Y-17903866D01*
X8284569Y-17694343D02*
X8113141Y-17951485D01*
X8541712Y-17703866D02*
X8560760Y-17703866D01*
X8560760Y-17703866D02*
X8579808Y-17713390D01*
X8579808Y-17713390D02*
X8589332Y-17722914D01*
X8589332Y-17722914D02*
X8598855Y-17741962D01*
X8598855Y-17741962D02*
X8608379Y-17780057D01*
X8608379Y-17780057D02*
X8608379Y-17827676D01*
X8608379Y-17827676D02*
X8598855Y-17865771D01*
X8598855Y-17865771D02*
X8589332Y-17884819D01*
X8589332Y-17884819D02*
X8579808Y-17894343D01*
X8579808Y-17894343D02*
X8560760Y-17903866D01*
X8560760Y-17903866D02*
X8541712Y-17903866D01*
X8541712Y-17903866D02*
X8522665Y-17894343D01*
X8522665Y-17894343D02*
X8513141Y-17884819D01*
X8513141Y-17884819D02*
X8503617Y-17865771D01*
X8503617Y-17865771D02*
X8494093Y-17827676D01*
X8494093Y-17827676D02*
X8494093Y-17780057D01*
X8494093Y-17780057D02*
X8503617Y-17741962D01*
X8503617Y-17741962D02*
X8513141Y-17722914D01*
X8513141Y-17722914D02*
X8522665Y-17713390D01*
X8522665Y-17713390D02*
X8541712Y-17703866D01*
X8694093Y-17884819D02*
X8703617Y-17894343D01*
X8703617Y-17894343D02*
X8694093Y-17903866D01*
X8694093Y-17903866D02*
X8684570Y-17894343D01*
X8684570Y-17894343D02*
X8694093Y-17884819D01*
X8694093Y-17884819D02*
X8694093Y-17903866D01*
X8827427Y-17703866D02*
X8846474Y-17703866D01*
X8846474Y-17703866D02*
X8865522Y-17713390D01*
X8865522Y-17713390D02*
X8875046Y-17722914D01*
X8875046Y-17722914D02*
X8884570Y-17741962D01*
X8884570Y-17741962D02*
X8894093Y-17780057D01*
X8894093Y-17780057D02*
X8894093Y-17827676D01*
X8894093Y-17827676D02*
X8884570Y-17865771D01*
X8884570Y-17865771D02*
X8875046Y-17884819D01*
X8875046Y-17884819D02*
X8865522Y-17894343D01*
X8865522Y-17894343D02*
X8846474Y-17903866D01*
X8846474Y-17903866D02*
X8827427Y-17903866D01*
X8827427Y-17903866D02*
X8808379Y-17894343D01*
X8808379Y-17894343D02*
X8798855Y-17884819D01*
X8798855Y-17884819D02*
X8789332Y-17865771D01*
X8789332Y-17865771D02*
X8779808Y-17827676D01*
X8779808Y-17827676D02*
X8779808Y-17780057D01*
X8779808Y-17780057D02*
X8789332Y-17741962D01*
X8789332Y-17741962D02*
X8798855Y-17722914D01*
X8798855Y-17722914D02*
X8808379Y-17713390D01*
X8808379Y-17713390D02*
X8827427Y-17703866D01*
X9075046Y-17703866D02*
X8979808Y-17703866D01*
X8979808Y-17703866D02*
X8970284Y-17799104D01*
X8970284Y-17799104D02*
X8979808Y-17789581D01*
X8979808Y-17789581D02*
X8998855Y-17780057D01*
X8998855Y-17780057D02*
X9046474Y-17780057D01*
X9046474Y-17780057D02*
X9065522Y-17789581D01*
X9065522Y-17789581D02*
X9075046Y-17799104D01*
X9075046Y-17799104D02*
X9084570Y-17818152D01*
X9084570Y-17818152D02*
X9084570Y-17865771D01*
X9084570Y-17865771D02*
X9075046Y-17884819D01*
X9075046Y-17884819D02*
X9065522Y-17894343D01*
X9065522Y-17894343D02*
X9046474Y-17903866D01*
X9046474Y-17903866D02*
X8998855Y-17903866D01*
X8998855Y-17903866D02*
X8979808Y-17894343D01*
X8979808Y-17894343D02*
X8970284Y-17884819D01*
X9275046Y-17903866D02*
X9160760Y-17903866D01*
X9217903Y-17903866D02*
X9217903Y-17703866D01*
X9217903Y-17703866D02*
X9198855Y-17732438D01*
X9198855Y-17732438D02*
X9179808Y-17751485D01*
X9179808Y-17751485D02*
X9160760Y-17761009D01*
X9351236Y-17722914D02*
X9360760Y-17713390D01*
X9360760Y-17713390D02*
X9379808Y-17703866D01*
X9379808Y-17703866D02*
X9427427Y-17703866D01*
X9427427Y-17703866D02*
X9446474Y-17713390D01*
X9446474Y-17713390D02*
X9455998Y-17722914D01*
X9455998Y-17722914D02*
X9465522Y-17741962D01*
X9465522Y-17741962D02*
X9465522Y-17761009D01*
X9465522Y-17761009D02*
X9455998Y-17789581D01*
X9455998Y-17789581D02*
X9341713Y-17903866D01*
X9341713Y-17903866D02*
X9465522Y-17903866D01*
X9541713Y-17703866D02*
X9541713Y-17741962D01*
X9617903Y-17703866D02*
X9617903Y-17741962D01*
X9913141Y-17980057D02*
X9903617Y-17970533D01*
X9903617Y-17970533D02*
X9884570Y-17941962D01*
X9884570Y-17941962D02*
X9875046Y-17922914D01*
X9875046Y-17922914D02*
X9865522Y-17894343D01*
X9865522Y-17894343D02*
X9855998Y-17846723D01*
X9855998Y-17846723D02*
X9855998Y-17808628D01*
X9855998Y-17808628D02*
X9865522Y-17761009D01*
X9865522Y-17761009D02*
X9875046Y-17732438D01*
X9875046Y-17732438D02*
X9884570Y-17713390D01*
X9884570Y-17713390D02*
X9903617Y-17684819D01*
X9903617Y-17684819D02*
X9913141Y-17675295D01*
X9979808Y-17722914D02*
X9989332Y-17713390D01*
X9989332Y-17713390D02*
X10008379Y-17703866D01*
X10008379Y-17703866D02*
X10055998Y-17703866D01*
X10055998Y-17703866D02*
X10075046Y-17713390D01*
X10075046Y-17713390D02*
X10084570Y-17722914D01*
X10084570Y-17722914D02*
X10094094Y-17741962D01*
X10094094Y-17741962D02*
X10094094Y-17761009D01*
X10094094Y-17761009D02*
X10084570Y-17789581D01*
X10084570Y-17789581D02*
X9970284Y-17903866D01*
X9970284Y-17903866D02*
X10094094Y-17903866D01*
X10332189Y-17903866D02*
X10332189Y-17703866D01*
X10417903Y-17903866D02*
X10417903Y-17799104D01*
X10417903Y-17799104D02*
X10408379Y-17780057D01*
X10408379Y-17780057D02*
X10389332Y-17770533D01*
X10389332Y-17770533D02*
X10360760Y-17770533D01*
X10360760Y-17770533D02*
X10341713Y-17780057D01*
X10341713Y-17780057D02*
X10332189Y-17789581D01*
X10541713Y-17903866D02*
X10522665Y-17894343D01*
X10522665Y-17894343D02*
X10513141Y-17884819D01*
X10513141Y-17884819D02*
X10503617Y-17865771D01*
X10503617Y-17865771D02*
X10503617Y-17808628D01*
X10503617Y-17808628D02*
X10513141Y-17789581D01*
X10513141Y-17789581D02*
X10522665Y-17780057D01*
X10522665Y-17780057D02*
X10541713Y-17770533D01*
X10541713Y-17770533D02*
X10570284Y-17770533D01*
X10570284Y-17770533D02*
X10589332Y-17780057D01*
X10589332Y-17780057D02*
X10598856Y-17789581D01*
X10598856Y-17789581D02*
X10608379Y-17808628D01*
X10608379Y-17808628D02*
X10608379Y-17865771D01*
X10608379Y-17865771D02*
X10598856Y-17884819D01*
X10598856Y-17884819D02*
X10589332Y-17894343D01*
X10589332Y-17894343D02*
X10570284Y-17903866D01*
X10570284Y-17903866D02*
X10541713Y-17903866D01*
X10722665Y-17903866D02*
X10703617Y-17894343D01*
X10703617Y-17894343D02*
X10694094Y-17875295D01*
X10694094Y-17875295D02*
X10694094Y-17703866D01*
X10875046Y-17894343D02*
X10855998Y-17903866D01*
X10855998Y-17903866D02*
X10817903Y-17903866D01*
X10817903Y-17903866D02*
X10798856Y-17894343D01*
X10798856Y-17894343D02*
X10789332Y-17875295D01*
X10789332Y-17875295D02*
X10789332Y-17799104D01*
X10789332Y-17799104D02*
X10798856Y-17780057D01*
X10798856Y-17780057D02*
X10817903Y-17770533D01*
X10817903Y-17770533D02*
X10855998Y-17770533D01*
X10855998Y-17770533D02*
X10875046Y-17780057D01*
X10875046Y-17780057D02*
X10884570Y-17799104D01*
X10884570Y-17799104D02*
X10884570Y-17818152D01*
X10884570Y-17818152D02*
X10789332Y-17837200D01*
X10960760Y-17894343D02*
X10979808Y-17903866D01*
X10979808Y-17903866D02*
X11017903Y-17903866D01*
X11017903Y-17903866D02*
X11036951Y-17894343D01*
X11036951Y-17894343D02*
X11046475Y-17875295D01*
X11046475Y-17875295D02*
X11046475Y-17865771D01*
X11046475Y-17865771D02*
X11036951Y-17846723D01*
X11036951Y-17846723D02*
X11017903Y-17837200D01*
X11017903Y-17837200D02*
X10989332Y-17837200D01*
X10989332Y-17837200D02*
X10970284Y-17827676D01*
X10970284Y-17827676D02*
X10960760Y-17808628D01*
X10960760Y-17808628D02*
X10960760Y-17799104D01*
X10960760Y-17799104D02*
X10970284Y-17780057D01*
X10970284Y-17780057D02*
X10989332Y-17770533D01*
X10989332Y-17770533D02*
X11017903Y-17770533D01*
X11017903Y-17770533D02*
X11036951Y-17780057D01*
X11113141Y-17980057D02*
X11122665Y-17970533D01*
X11122665Y-17970533D02*
X11141713Y-17941962D01*
X11141713Y-17941962D02*
X11151237Y-17922914D01*
X11151237Y-17922914D02*
X11160760Y-17894343D01*
X11160760Y-17894343D02*
X11170284Y-17846723D01*
X11170284Y-17846723D02*
X11170284Y-17808628D01*
X11170284Y-17808628D02*
X11160760Y-17761009D01*
X11160760Y-17761009D02*
X11151237Y-17732438D01*
X11151237Y-17732438D02*
X11141713Y-17713390D01*
X11141713Y-17713390D02*
X11122665Y-17684819D01*
X11122665Y-17684819D02*
X11113141Y-17675295D01*
X6238078Y-18176383D02*
X6338078Y-18076383D01*
X6238078Y-17976383D01*
X6138078Y-18076383D01*
X6238078Y-18176383D01*
X6579807Y-17967866D02*
X6703617Y-17967866D01*
X6703617Y-17967866D02*
X6636950Y-18044057D01*
X6636950Y-18044057D02*
X6665522Y-18044057D01*
X6665522Y-18044057D02*
X6684569Y-18053581D01*
X6684569Y-18053581D02*
X6694093Y-18063104D01*
X6694093Y-18063104D02*
X6703617Y-18082152D01*
X6703617Y-18082152D02*
X6703617Y-18129771D01*
X6703617Y-18129771D02*
X6694093Y-18148819D01*
X6694093Y-18148819D02*
X6684569Y-18158343D01*
X6684569Y-18158343D02*
X6665522Y-18167866D01*
X6665522Y-18167866D02*
X6608379Y-18167866D01*
X6608379Y-18167866D02*
X6589331Y-18158343D01*
X6589331Y-18158343D02*
X6579807Y-18148819D01*
X6789331Y-18148819D02*
X6798855Y-18158343D01*
X6798855Y-18158343D02*
X6789331Y-18167866D01*
X6789331Y-18167866D02*
X6779807Y-18158343D01*
X6779807Y-18158343D02*
X6789331Y-18148819D01*
X6789331Y-18148819D02*
X6789331Y-18167866D01*
X6875046Y-17986914D02*
X6884569Y-17977390D01*
X6884569Y-17977390D02*
X6903617Y-17967866D01*
X6903617Y-17967866D02*
X6951236Y-17967866D01*
X6951236Y-17967866D02*
X6970284Y-17977390D01*
X6970284Y-17977390D02*
X6979807Y-17986914D01*
X6979807Y-17986914D02*
X6989331Y-18005962D01*
X6989331Y-18005962D02*
X6989331Y-18025009D01*
X6989331Y-18025009D02*
X6979807Y-18053581D01*
X6979807Y-18053581D02*
X6865522Y-18167866D01*
X6865522Y-18167866D02*
X6989331Y-18167866D01*
X7113141Y-17967866D02*
X7132188Y-17967866D01*
X7132188Y-17967866D02*
X7151236Y-17977390D01*
X7151236Y-17977390D02*
X7160760Y-17986914D01*
X7160760Y-17986914D02*
X7170284Y-18005962D01*
X7170284Y-18005962D02*
X7179807Y-18044057D01*
X7179807Y-18044057D02*
X7179807Y-18091676D01*
X7179807Y-18091676D02*
X7170284Y-18129771D01*
X7170284Y-18129771D02*
X7160760Y-18148819D01*
X7160760Y-18148819D02*
X7151236Y-18158343D01*
X7151236Y-18158343D02*
X7132188Y-18167866D01*
X7132188Y-18167866D02*
X7113141Y-18167866D01*
X7113141Y-18167866D02*
X7094093Y-18158343D01*
X7094093Y-18158343D02*
X7084569Y-18148819D01*
X7084569Y-18148819D02*
X7075046Y-18129771D01*
X7075046Y-18129771D02*
X7065522Y-18091676D01*
X7065522Y-18091676D02*
X7065522Y-18044057D01*
X7065522Y-18044057D02*
X7075046Y-18005962D01*
X7075046Y-18005962D02*
X7084569Y-17986914D01*
X7084569Y-17986914D02*
X7094093Y-17977390D01*
X7094093Y-17977390D02*
X7113141Y-17967866D01*
X7303617Y-17967866D02*
X7322665Y-17967866D01*
X7322665Y-17967866D02*
X7341712Y-17977390D01*
X7341712Y-17977390D02*
X7351236Y-17986914D01*
X7351236Y-17986914D02*
X7360760Y-18005962D01*
X7360760Y-18005962D02*
X7370284Y-18044057D01*
X7370284Y-18044057D02*
X7370284Y-18091676D01*
X7370284Y-18091676D02*
X7360760Y-18129771D01*
X7360760Y-18129771D02*
X7351236Y-18148819D01*
X7351236Y-18148819D02*
X7341712Y-18158343D01*
X7341712Y-18158343D02*
X7322665Y-18167866D01*
X7322665Y-18167866D02*
X7303617Y-18167866D01*
X7303617Y-18167866D02*
X7284569Y-18158343D01*
X7284569Y-18158343D02*
X7275046Y-18148819D01*
X7275046Y-18148819D02*
X7265522Y-18129771D01*
X7265522Y-18129771D02*
X7255998Y-18091676D01*
X7255998Y-18091676D02*
X7255998Y-18044057D01*
X7255998Y-18044057D02*
X7265522Y-18005962D01*
X7265522Y-18005962D02*
X7275046Y-17986914D01*
X7275046Y-17986914D02*
X7284569Y-17977390D01*
X7284569Y-17977390D02*
X7303617Y-17967866D01*
X7455998Y-18167866D02*
X7455998Y-18034533D01*
X7455998Y-18053581D02*
X7465522Y-18044057D01*
X7465522Y-18044057D02*
X7484569Y-18034533D01*
X7484569Y-18034533D02*
X7513141Y-18034533D01*
X7513141Y-18034533D02*
X7532188Y-18044057D01*
X7532188Y-18044057D02*
X7541712Y-18063104D01*
X7541712Y-18063104D02*
X7541712Y-18167866D01*
X7541712Y-18063104D02*
X7551236Y-18044057D01*
X7551236Y-18044057D02*
X7570284Y-18034533D01*
X7570284Y-18034533D02*
X7598855Y-18034533D01*
X7598855Y-18034533D02*
X7617903Y-18044057D01*
X7617903Y-18044057D02*
X7627427Y-18063104D01*
X7627427Y-18063104D02*
X7627427Y-18167866D01*
X7722665Y-18167866D02*
X7722665Y-18034533D01*
X7722665Y-18053581D02*
X7732188Y-18044057D01*
X7732188Y-18044057D02*
X7751236Y-18034533D01*
X7751236Y-18034533D02*
X7779808Y-18034533D01*
X7779808Y-18034533D02*
X7798855Y-18044057D01*
X7798855Y-18044057D02*
X7808379Y-18063104D01*
X7808379Y-18063104D02*
X7808379Y-18167866D01*
X7808379Y-18063104D02*
X7817903Y-18044057D01*
X7817903Y-18044057D02*
X7836950Y-18034533D01*
X7836950Y-18034533D02*
X7865522Y-18034533D01*
X7865522Y-18034533D02*
X7884569Y-18044057D01*
X7884569Y-18044057D02*
X7894093Y-18063104D01*
X7894093Y-18063104D02*
X7894093Y-18167866D01*
X8284569Y-17958343D02*
X8113141Y-18215485D01*
X8541712Y-17967866D02*
X8560760Y-17967866D01*
X8560760Y-17967866D02*
X8579808Y-17977390D01*
X8579808Y-17977390D02*
X8589332Y-17986914D01*
X8589332Y-17986914D02*
X8598855Y-18005962D01*
X8598855Y-18005962D02*
X8608379Y-18044057D01*
X8608379Y-18044057D02*
X8608379Y-18091676D01*
X8608379Y-18091676D02*
X8598855Y-18129771D01*
X8598855Y-18129771D02*
X8589332Y-18148819D01*
X8589332Y-18148819D02*
X8579808Y-18158343D01*
X8579808Y-18158343D02*
X8560760Y-18167866D01*
X8560760Y-18167866D02*
X8541712Y-18167866D01*
X8541712Y-18167866D02*
X8522665Y-18158343D01*
X8522665Y-18158343D02*
X8513141Y-18148819D01*
X8513141Y-18148819D02*
X8503617Y-18129771D01*
X8503617Y-18129771D02*
X8494093Y-18091676D01*
X8494093Y-18091676D02*
X8494093Y-18044057D01*
X8494093Y-18044057D02*
X8503617Y-18005962D01*
X8503617Y-18005962D02*
X8513141Y-17986914D01*
X8513141Y-17986914D02*
X8522665Y-17977390D01*
X8522665Y-17977390D02*
X8541712Y-17967866D01*
X8694093Y-18148819D02*
X8703617Y-18158343D01*
X8703617Y-18158343D02*
X8694093Y-18167866D01*
X8694093Y-18167866D02*
X8684570Y-18158343D01*
X8684570Y-18158343D02*
X8694093Y-18148819D01*
X8694093Y-18148819D02*
X8694093Y-18167866D01*
X8894093Y-18167866D02*
X8779808Y-18167866D01*
X8836951Y-18167866D02*
X8836951Y-17967866D01*
X8836951Y-17967866D02*
X8817903Y-17996438D01*
X8817903Y-17996438D02*
X8798855Y-18015485D01*
X8798855Y-18015485D02*
X8779808Y-18025009D01*
X8970284Y-17986914D02*
X8979808Y-17977390D01*
X8979808Y-17977390D02*
X8998855Y-17967866D01*
X8998855Y-17967866D02*
X9046474Y-17967866D01*
X9046474Y-17967866D02*
X9065522Y-17977390D01*
X9065522Y-17977390D02*
X9075046Y-17986914D01*
X9075046Y-17986914D02*
X9084570Y-18005962D01*
X9084570Y-18005962D02*
X9084570Y-18025009D01*
X9084570Y-18025009D02*
X9075046Y-18053581D01*
X9075046Y-18053581D02*
X8960760Y-18167866D01*
X8960760Y-18167866D02*
X9084570Y-18167866D01*
X9255998Y-17967866D02*
X9217903Y-17967866D01*
X9217903Y-17967866D02*
X9198855Y-17977390D01*
X9198855Y-17977390D02*
X9189332Y-17986914D01*
X9189332Y-17986914D02*
X9170284Y-18015485D01*
X9170284Y-18015485D02*
X9160760Y-18053581D01*
X9160760Y-18053581D02*
X9160760Y-18129771D01*
X9160760Y-18129771D02*
X9170284Y-18148819D01*
X9170284Y-18148819D02*
X9179808Y-18158343D01*
X9179808Y-18158343D02*
X9198855Y-18167866D01*
X9198855Y-18167866D02*
X9236951Y-18167866D01*
X9236951Y-18167866D02*
X9255998Y-18158343D01*
X9255998Y-18158343D02*
X9265522Y-18148819D01*
X9265522Y-18148819D02*
X9275046Y-18129771D01*
X9275046Y-18129771D02*
X9275046Y-18082152D01*
X9275046Y-18082152D02*
X9265522Y-18063104D01*
X9265522Y-18063104D02*
X9255998Y-18053581D01*
X9255998Y-18053581D02*
X9236951Y-18044057D01*
X9236951Y-18044057D02*
X9198855Y-18044057D01*
X9198855Y-18044057D02*
X9179808Y-18053581D01*
X9179808Y-18053581D02*
X9170284Y-18063104D01*
X9170284Y-18063104D02*
X9160760Y-18082152D01*
X9398855Y-17967866D02*
X9417903Y-17967866D01*
X9417903Y-17967866D02*
X9436951Y-17977390D01*
X9436951Y-17977390D02*
X9446474Y-17986914D01*
X9446474Y-17986914D02*
X9455998Y-18005962D01*
X9455998Y-18005962D02*
X9465522Y-18044057D01*
X9465522Y-18044057D02*
X9465522Y-18091676D01*
X9465522Y-18091676D02*
X9455998Y-18129771D01*
X9455998Y-18129771D02*
X9446474Y-18148819D01*
X9446474Y-18148819D02*
X9436951Y-18158343D01*
X9436951Y-18158343D02*
X9417903Y-18167866D01*
X9417903Y-18167866D02*
X9398855Y-18167866D01*
X9398855Y-18167866D02*
X9379808Y-18158343D01*
X9379808Y-18158343D02*
X9370284Y-18148819D01*
X9370284Y-18148819D02*
X9360760Y-18129771D01*
X9360760Y-18129771D02*
X9351236Y-18091676D01*
X9351236Y-18091676D02*
X9351236Y-18044057D01*
X9351236Y-18044057D02*
X9360760Y-18005962D01*
X9360760Y-18005962D02*
X9370284Y-17986914D01*
X9370284Y-17986914D02*
X9379808Y-17977390D01*
X9379808Y-17977390D02*
X9398855Y-17967866D01*
X9541713Y-17967866D02*
X9541713Y-18005962D01*
X9617903Y-17967866D02*
X9617903Y-18005962D01*
X9913141Y-18244057D02*
X9903617Y-18234533D01*
X9903617Y-18234533D02*
X9884570Y-18205962D01*
X9884570Y-18205962D02*
X9875046Y-18186914D01*
X9875046Y-18186914D02*
X9865522Y-18158343D01*
X9865522Y-18158343D02*
X9855998Y-18110723D01*
X9855998Y-18110723D02*
X9855998Y-18072628D01*
X9855998Y-18072628D02*
X9865522Y-18025009D01*
X9865522Y-18025009D02*
X9875046Y-17996438D01*
X9875046Y-17996438D02*
X9884570Y-17977390D01*
X9884570Y-17977390D02*
X9903617Y-17948819D01*
X9903617Y-17948819D02*
X9913141Y-17939295D01*
X10017903Y-18053581D02*
X9998855Y-18044057D01*
X9998855Y-18044057D02*
X9989332Y-18034533D01*
X9989332Y-18034533D02*
X9979808Y-18015485D01*
X9979808Y-18015485D02*
X9979808Y-18005962D01*
X9979808Y-18005962D02*
X9989332Y-17986914D01*
X9989332Y-17986914D02*
X9998855Y-17977390D01*
X9998855Y-17977390D02*
X10017903Y-17967866D01*
X10017903Y-17967866D02*
X10055998Y-17967866D01*
X10055998Y-17967866D02*
X10075046Y-17977390D01*
X10075046Y-17977390D02*
X10084570Y-17986914D01*
X10084570Y-17986914D02*
X10094094Y-18005962D01*
X10094094Y-18005962D02*
X10094094Y-18015485D01*
X10094094Y-18015485D02*
X10084570Y-18034533D01*
X10084570Y-18034533D02*
X10075046Y-18044057D01*
X10075046Y-18044057D02*
X10055998Y-18053581D01*
X10055998Y-18053581D02*
X10017903Y-18053581D01*
X10017903Y-18053581D02*
X9998855Y-18063104D01*
X9998855Y-18063104D02*
X9989332Y-18072628D01*
X9989332Y-18072628D02*
X9979808Y-18091676D01*
X9979808Y-18091676D02*
X9979808Y-18129771D01*
X9979808Y-18129771D02*
X9989332Y-18148819D01*
X9989332Y-18148819D02*
X9998855Y-18158343D01*
X9998855Y-18158343D02*
X10017903Y-18167866D01*
X10017903Y-18167866D02*
X10055998Y-18167866D01*
X10055998Y-18167866D02*
X10075046Y-18158343D01*
X10075046Y-18158343D02*
X10084570Y-18148819D01*
X10084570Y-18148819D02*
X10094094Y-18129771D01*
X10094094Y-18129771D02*
X10094094Y-18091676D01*
X10094094Y-18091676D02*
X10084570Y-18072628D01*
X10084570Y-18072628D02*
X10075046Y-18063104D01*
X10075046Y-18063104D02*
X10055998Y-18053581D01*
X10332189Y-18167866D02*
X10332189Y-17967866D01*
X10417903Y-18167866D02*
X10417903Y-18063104D01*
X10417903Y-18063104D02*
X10408379Y-18044057D01*
X10408379Y-18044057D02*
X10389332Y-18034533D01*
X10389332Y-18034533D02*
X10360760Y-18034533D01*
X10360760Y-18034533D02*
X10341713Y-18044057D01*
X10341713Y-18044057D02*
X10332189Y-18053581D01*
X10541713Y-18167866D02*
X10522665Y-18158343D01*
X10522665Y-18158343D02*
X10513141Y-18148819D01*
X10513141Y-18148819D02*
X10503617Y-18129771D01*
X10503617Y-18129771D02*
X10503617Y-18072628D01*
X10503617Y-18072628D02*
X10513141Y-18053581D01*
X10513141Y-18053581D02*
X10522665Y-18044057D01*
X10522665Y-18044057D02*
X10541713Y-18034533D01*
X10541713Y-18034533D02*
X10570284Y-18034533D01*
X10570284Y-18034533D02*
X10589332Y-18044057D01*
X10589332Y-18044057D02*
X10598856Y-18053581D01*
X10598856Y-18053581D02*
X10608379Y-18072628D01*
X10608379Y-18072628D02*
X10608379Y-18129771D01*
X10608379Y-18129771D02*
X10598856Y-18148819D01*
X10598856Y-18148819D02*
X10589332Y-18158343D01*
X10589332Y-18158343D02*
X10570284Y-18167866D01*
X10570284Y-18167866D02*
X10541713Y-18167866D01*
X10722665Y-18167866D02*
X10703617Y-18158343D01*
X10703617Y-18158343D02*
X10694094Y-18139295D01*
X10694094Y-18139295D02*
X10694094Y-17967866D01*
X10875046Y-18158343D02*
X10855998Y-18167866D01*
X10855998Y-18167866D02*
X10817903Y-18167866D01*
X10817903Y-18167866D02*
X10798856Y-18158343D01*
X10798856Y-18158343D02*
X10789332Y-18139295D01*
X10789332Y-18139295D02*
X10789332Y-18063104D01*
X10789332Y-18063104D02*
X10798856Y-18044057D01*
X10798856Y-18044057D02*
X10817903Y-18034533D01*
X10817903Y-18034533D02*
X10855998Y-18034533D01*
X10855998Y-18034533D02*
X10875046Y-18044057D01*
X10875046Y-18044057D02*
X10884570Y-18063104D01*
X10884570Y-18063104D02*
X10884570Y-18082152D01*
X10884570Y-18082152D02*
X10789332Y-18101200D01*
X10960760Y-18158343D02*
X10979808Y-18167866D01*
X10979808Y-18167866D02*
X11017903Y-18167866D01*
X11017903Y-18167866D02*
X11036951Y-18158343D01*
X11036951Y-18158343D02*
X11046475Y-18139295D01*
X11046475Y-18139295D02*
X11046475Y-18129771D01*
X11046475Y-18129771D02*
X11036951Y-18110723D01*
X11036951Y-18110723D02*
X11017903Y-18101200D01*
X11017903Y-18101200D02*
X10989332Y-18101200D01*
X10989332Y-18101200D02*
X10970284Y-18091676D01*
X10970284Y-18091676D02*
X10960760Y-18072628D01*
X10960760Y-18072628D02*
X10960760Y-18063104D01*
X10960760Y-18063104D02*
X10970284Y-18044057D01*
X10970284Y-18044057D02*
X10989332Y-18034533D01*
X10989332Y-18034533D02*
X11017903Y-18034533D01*
X11017903Y-18034533D02*
X11036951Y-18044057D01*
X11113141Y-18244057D02*
X11122665Y-18234533D01*
X11122665Y-18234533D02*
X11141713Y-18205962D01*
X11141713Y-18205962D02*
X11151237Y-18186914D01*
X11151237Y-18186914D02*
X11160760Y-18158343D01*
X11160760Y-18158343D02*
X11170284Y-18110723D01*
X11170284Y-18110723D02*
X11170284Y-18072628D01*
X11170284Y-18072628D02*
X11160760Y-18025009D01*
X11160760Y-18025009D02*
X11151237Y-17996438D01*
X11151237Y-17996438D02*
X11141713Y-17977390D01*
X11141713Y-17977390D02*
X11122665Y-17948819D01*
X11122665Y-17948819D02*
X11113141Y-17939295D01*
M02*
