%TF.GenerationSoftware,KiCad,Pcbnew,8.0.8*%
%TF.CreationDate,2025-02-12T13:37:33+01:00*%
%TF.ProjectId,Cabletester_Base_Board_v1,4361626c-6574-4657-9374-65725f426173,v1*%
%TF.SameCoordinates,Original*%
%TF.FileFunction,Legend,Bot*%
%TF.FilePolarity,Positive*%
%FSLAX46Y46*%
G04 Gerber Fmt 4.6, Leading zero omitted, Abs format (unit mm)*
G04 Created by KiCad (PCBNEW 8.0.8) date 2025-02-12 13:37:33*
%MOMM*%
%LPD*%
G01*
G04 APERTURE LIST*
%ADD10C,0.150000*%
%ADD11C,0.120000*%
G04 APERTURE END LIST*
D10*
X91392890Y-160801067D02*
X91392890Y-161372495D01*
X91392890Y-161372495D02*
X91430985Y-161486781D01*
X91430985Y-161486781D02*
X91507176Y-161562972D01*
X91507176Y-161562972D02*
X91621461Y-161601067D01*
X91621461Y-161601067D02*
X91697652Y-161601067D01*
X90630985Y-160801067D02*
X91011937Y-160801067D01*
X91011937Y-160801067D02*
X91050033Y-161182019D01*
X91050033Y-161182019D02*
X91011937Y-161143924D01*
X91011937Y-161143924D02*
X90935747Y-161105829D01*
X90935747Y-161105829D02*
X90745271Y-161105829D01*
X90745271Y-161105829D02*
X90669080Y-161143924D01*
X90669080Y-161143924D02*
X90630985Y-161182019D01*
X90630985Y-161182019D02*
X90592890Y-161258210D01*
X90592890Y-161258210D02*
X90592890Y-161448686D01*
X90592890Y-161448686D02*
X90630985Y-161524876D01*
X90630985Y-161524876D02*
X90669080Y-161562972D01*
X90669080Y-161562972D02*
X90745271Y-161601067D01*
X90745271Y-161601067D02*
X90935747Y-161601067D01*
X90935747Y-161601067D02*
X91011937Y-161562972D01*
X91011937Y-161562972D02*
X91050033Y-161524876D01*
D11*
%TO.C,J5*%
X77326224Y-154825272D02*
X77326224Y-160032272D01*
X77326224Y-160032272D02*
X158706224Y-160032272D01*
X158706224Y-154825272D02*
X77426224Y-154825272D01*
X158706224Y-160032272D02*
X158706224Y-154825272D01*
%TD*%
M02*
