%TF.GenerationSoftware,KiCad,Pcbnew,8.0.8*%
%TF.CreationDate,2025-02-12T13:37:33+01:00*%
%TF.ProjectId,Cabletester_Base_Board_v1,4361626c-6574-4657-9374-65725f426173,v1*%
%TF.SameCoordinates,Original*%
%TF.FileFunction,Soldermask,Bot*%
%TF.FilePolarity,Negative*%
%FSLAX46Y46*%
G04 Gerber Fmt 4.6, Leading zero omitted, Abs format (unit mm)*
G04 Created by KiCad (PCBNEW 8.0.8) date 2025-02-12 13:37:33*
%MOMM*%
%LPD*%
G01*
G04 APERTURE LIST*
%ADD10C,0.000000*%
%ADD11R,3.600000X1.900000*%
%ADD12O,3.600000X1.900000*%
%ADD13C,4.000000*%
%ADD14R,1.600000X1.600000*%
%ADD15C,1.600000*%
%ADD16R,1.700000X2.300000*%
%ADD17O,1.700000X2.300000*%
%ADD18O,1.800000X2.300000*%
G04 APERTURE END LIST*
D10*
%TO.C,Logo1*%
G36*
X119659375Y-29479473D02*
G01*
X118913250Y-29765223D01*
X119659375Y-30043036D01*
X119659375Y-30439911D01*
X118381437Y-29923973D01*
X118381437Y-29606473D01*
X119659375Y-29090536D01*
X119659375Y-29479473D01*
G37*
G36*
X115810747Y-30964904D02*
G01*
X115830434Y-30966304D01*
X115849669Y-30968266D01*
X115868457Y-30970792D01*
X115886801Y-30973884D01*
X115904706Y-30977542D01*
X115922176Y-30981769D01*
X115939217Y-30986566D01*
X115955831Y-30991933D01*
X115972024Y-30997874D01*
X115987800Y-31004388D01*
X116003163Y-31011478D01*
X116018118Y-31019145D01*
X116032669Y-31027390D01*
X116046820Y-31036215D01*
X116060575Y-31045622D01*
X116073940Y-31055612D01*
X116086918Y-31066185D01*
X116099514Y-31077345D01*
X116111732Y-31089091D01*
X116123576Y-31101427D01*
X116135051Y-31114352D01*
X116146162Y-31127869D01*
X116156912Y-31141979D01*
X116167306Y-31156683D01*
X116177348Y-31171983D01*
X116187043Y-31187881D01*
X116205408Y-31221474D01*
X116222436Y-31257473D01*
X116222436Y-30979661D01*
X116643125Y-30979661D01*
X116643125Y-32479848D01*
X116222436Y-32479848D01*
X116222436Y-31709911D01*
X116221949Y-31687305D01*
X116220495Y-31665617D01*
X116218080Y-31644833D01*
X116214716Y-31624939D01*
X116210409Y-31605924D01*
X116205170Y-31587773D01*
X116199006Y-31570474D01*
X116191927Y-31554013D01*
X116183940Y-31538378D01*
X116175056Y-31523556D01*
X116165282Y-31509533D01*
X116154627Y-31496296D01*
X116143100Y-31483832D01*
X116130710Y-31472129D01*
X116117465Y-31461172D01*
X116103374Y-31450950D01*
X116088446Y-31441448D01*
X116072690Y-31432655D01*
X116056114Y-31424555D01*
X116038727Y-31417138D01*
X116001555Y-31404296D01*
X115961244Y-31394023D01*
X115917863Y-31386215D01*
X115871482Y-31380768D01*
X115822171Y-31377576D01*
X115770000Y-31376536D01*
X115770000Y-30963786D01*
X115810747Y-30964904D01*
G37*
G36*
X119230749Y-30701848D02*
G01*
X119230749Y-30979661D01*
X119405374Y-30979661D01*
X119405374Y-31289223D01*
X119230749Y-31289223D01*
X119230749Y-32043286D01*
X119228976Y-32098073D01*
X119226753Y-32124141D01*
X119223633Y-32149326D01*
X119219613Y-32173626D01*
X119214686Y-32197044D01*
X119208850Y-32219577D01*
X119202100Y-32241227D01*
X119194431Y-32261993D01*
X119185839Y-32281876D01*
X119176320Y-32300874D01*
X119165870Y-32318990D01*
X119154483Y-32336221D01*
X119142156Y-32352569D01*
X119128884Y-32368033D01*
X119114663Y-32382614D01*
X119099489Y-32396311D01*
X119083357Y-32409124D01*
X119066263Y-32421053D01*
X119048202Y-32432099D01*
X119029171Y-32442261D01*
X119009164Y-32451540D01*
X118988178Y-32459935D01*
X118966207Y-32467446D01*
X118943249Y-32474073D01*
X118919297Y-32479817D01*
X118894349Y-32484677D01*
X118868399Y-32488654D01*
X118841444Y-32491747D01*
X118813478Y-32493956D01*
X118754499Y-32495723D01*
X118735344Y-32495541D01*
X118716595Y-32495010D01*
X118698288Y-32494154D01*
X118680457Y-32492995D01*
X118663138Y-32491557D01*
X118646366Y-32489863D01*
X118630175Y-32487937D01*
X118614601Y-32485801D01*
X118599677Y-32483480D01*
X118585440Y-32480995D01*
X118559162Y-32475631D01*
X118536047Y-32469895D01*
X118525763Y-32466946D01*
X118516374Y-32463973D01*
X118516374Y-32138536D01*
X118531303Y-32144117D01*
X118538855Y-32146628D01*
X118546512Y-32148954D01*
X118554308Y-32151093D01*
X118562278Y-32153046D01*
X118570458Y-32154814D01*
X118578882Y-32156395D01*
X118587585Y-32157790D01*
X118596602Y-32158999D01*
X118605968Y-32160023D01*
X118615717Y-32160860D01*
X118625885Y-32161511D01*
X118636507Y-32161976D01*
X118659250Y-32162348D01*
X118668761Y-32162185D01*
X118677948Y-32161697D01*
X118686813Y-32160883D01*
X118695356Y-32159743D01*
X118703580Y-32158278D01*
X118711485Y-32156488D01*
X118719073Y-32154372D01*
X118726347Y-32151930D01*
X118733306Y-32149163D01*
X118739952Y-32146070D01*
X118746288Y-32142652D01*
X118752314Y-32138908D01*
X118758032Y-32134838D01*
X118763443Y-32130443D01*
X118768549Y-32125722D01*
X118773351Y-32120676D01*
X118777851Y-32115304D01*
X118782050Y-32109607D01*
X118785950Y-32103584D01*
X118789552Y-32097236D01*
X118792857Y-32090562D01*
X118795867Y-32083562D01*
X118798584Y-32076237D01*
X118801009Y-32068586D01*
X118803142Y-32060610D01*
X118804987Y-32052308D01*
X118806544Y-32043681D01*
X118807814Y-32034728D01*
X118809502Y-32015846D01*
X118810062Y-31995661D01*
X118810062Y-31289223D01*
X118524312Y-31289223D01*
X118524312Y-30979661D01*
X118810062Y-30979661D01*
X118810062Y-30527223D01*
X119230749Y-30701848D01*
G37*
G36*
X117373375Y-31908348D02*
G01*
X117373721Y-31925208D01*
X117374747Y-31941554D01*
X117376436Y-31957385D01*
X117378770Y-31972701D01*
X117381732Y-31987499D01*
X117385305Y-32001779D01*
X117389470Y-32015538D01*
X117394211Y-32028775D01*
X117399510Y-32041489D01*
X117405350Y-32053679D01*
X117411713Y-32065342D01*
X117418582Y-32076478D01*
X117425939Y-32087084D01*
X117433767Y-32097160D01*
X117442048Y-32106705D01*
X117450766Y-32115716D01*
X117459902Y-32124191D01*
X117469439Y-32132131D01*
X117479360Y-32139533D01*
X117489647Y-32146396D01*
X117500283Y-32152718D01*
X117511250Y-32158498D01*
X117522532Y-32163734D01*
X117534109Y-32168425D01*
X117545966Y-32172570D01*
X117558085Y-32176167D01*
X117570447Y-32179215D01*
X117583037Y-32181711D01*
X117595835Y-32183656D01*
X117608826Y-32185047D01*
X117621991Y-32185882D01*
X117635312Y-32186161D01*
X117661264Y-32185227D01*
X117673612Y-32184055D01*
X117685542Y-32182409D01*
X117697053Y-32180287D01*
X117708145Y-32177685D01*
X117718819Y-32174600D01*
X117729074Y-32171030D01*
X117738911Y-32166972D01*
X117748329Y-32162422D01*
X117757328Y-32157378D01*
X117765909Y-32151837D01*
X117774071Y-32145797D01*
X117781815Y-32139253D01*
X117789140Y-32132203D01*
X117796047Y-32124645D01*
X117802535Y-32116575D01*
X117808604Y-32107991D01*
X117814255Y-32098889D01*
X117819487Y-32089268D01*
X117824301Y-32079122D01*
X117828696Y-32068451D01*
X117832672Y-32057251D01*
X117836230Y-32045518D01*
X117839370Y-32033251D01*
X117842090Y-32020446D01*
X117846276Y-31993211D01*
X117848788Y-31963791D01*
X117849625Y-31932161D01*
X117849625Y-30979661D01*
X118270312Y-30979661D01*
X118270312Y-31987723D01*
X118269735Y-32019931D01*
X118268018Y-32051072D01*
X118265185Y-32081149D01*
X118261259Y-32110166D01*
X118256263Y-32138124D01*
X118250221Y-32165027D01*
X118243155Y-32190877D01*
X118235090Y-32215678D01*
X118226048Y-32239433D01*
X118216052Y-32262145D01*
X118205127Y-32283815D01*
X118193294Y-32304448D01*
X118180578Y-32324046D01*
X118167001Y-32342613D01*
X118152587Y-32360150D01*
X118137359Y-32376661D01*
X118121341Y-32392149D01*
X118104555Y-32406616D01*
X118087025Y-32420067D01*
X118068775Y-32432502D01*
X118049826Y-32443927D01*
X118030203Y-32454342D01*
X118009929Y-32463752D01*
X117989028Y-32472159D01*
X117967521Y-32479566D01*
X117945433Y-32485976D01*
X117922787Y-32491392D01*
X117899607Y-32495816D01*
X117875914Y-32499253D01*
X117851734Y-32501704D01*
X117827088Y-32503172D01*
X117802000Y-32503661D01*
X117781397Y-32503338D01*
X117761257Y-32502378D01*
X117741579Y-32500796D01*
X117722362Y-32498607D01*
X117703604Y-32495825D01*
X117685304Y-32492464D01*
X117667460Y-32488539D01*
X117650072Y-32484065D01*
X117633136Y-32479056D01*
X117616653Y-32473527D01*
X117600620Y-32467492D01*
X117585037Y-32460966D01*
X117569901Y-32453963D01*
X117555211Y-32446498D01*
X117540966Y-32438585D01*
X117527164Y-32430239D01*
X117513804Y-32421474D01*
X117500885Y-32412306D01*
X117488404Y-32402748D01*
X117476361Y-32392815D01*
X117464754Y-32382521D01*
X117453582Y-32371882D01*
X117442842Y-32360911D01*
X117432534Y-32349624D01*
X117422657Y-32338034D01*
X117413208Y-32326156D01*
X117395591Y-32301595D01*
X117379671Y-32276058D01*
X117365438Y-32249661D01*
X117365438Y-32471911D01*
X116952687Y-32471911D01*
X116952687Y-30979661D01*
X117373375Y-30979661D01*
X117373375Y-31908348D01*
G37*
G36*
X120053785Y-30948234D02*
G01*
X120074667Y-30949194D01*
X120095084Y-30950775D01*
X120115037Y-30952965D01*
X120134524Y-30955747D01*
X120153546Y-30959108D01*
X120172103Y-30963032D01*
X120190195Y-30967506D01*
X120207821Y-30972515D01*
X120224983Y-30978045D01*
X120241680Y-30984080D01*
X120257911Y-30990606D01*
X120273678Y-30997609D01*
X120288979Y-31005074D01*
X120303816Y-31012987D01*
X120318187Y-31021333D01*
X120332093Y-31030097D01*
X120345534Y-31039266D01*
X120358510Y-31048824D01*
X120371021Y-31058757D01*
X120383067Y-31069050D01*
X120394647Y-31079690D01*
X120405763Y-31090660D01*
X120416413Y-31101948D01*
X120426599Y-31113538D01*
X120436319Y-31125415D01*
X120445575Y-31137566D01*
X120454365Y-31149976D01*
X120462690Y-31162630D01*
X120470550Y-31175513D01*
X120484875Y-31201911D01*
X120484875Y-30979661D01*
X120905563Y-30979661D01*
X120905563Y-32471911D01*
X120484876Y-32471911D01*
X120484876Y-31559098D01*
X120484530Y-31541541D01*
X120483504Y-31524585D01*
X120481815Y-31508228D01*
X120479481Y-31492467D01*
X120476519Y-31477298D01*
X120472946Y-31462720D01*
X120468781Y-31448729D01*
X120464040Y-31435323D01*
X120458741Y-31422498D01*
X120452901Y-31410251D01*
X120446538Y-31398579D01*
X120439669Y-31387481D01*
X120432312Y-31376952D01*
X120424484Y-31366990D01*
X120416203Y-31357592D01*
X120407485Y-31348755D01*
X120398349Y-31340475D01*
X120388812Y-31332752D01*
X120378891Y-31325580D01*
X120368604Y-31318958D01*
X120357968Y-31312882D01*
X120347000Y-31307350D01*
X120335719Y-31302359D01*
X120324141Y-31297905D01*
X120312284Y-31293986D01*
X120300166Y-31290599D01*
X120287803Y-31287741D01*
X120275214Y-31285410D01*
X120262415Y-31283601D01*
X120249425Y-31282313D01*
X120222938Y-31281286D01*
X120195589Y-31282220D01*
X120182608Y-31283392D01*
X120170088Y-31285037D01*
X120158028Y-31287160D01*
X120146425Y-31289762D01*
X120135279Y-31292847D01*
X120124587Y-31296417D01*
X120114349Y-31300475D01*
X120104563Y-31305025D01*
X120095228Y-31310068D01*
X120086341Y-31315609D01*
X120077903Y-31321650D01*
X120069910Y-31328194D01*
X120062362Y-31335243D01*
X120055258Y-31342801D01*
X120048595Y-31350871D01*
X120042373Y-31359455D01*
X120036590Y-31368557D01*
X120031244Y-31378179D01*
X120026334Y-31388324D01*
X120021859Y-31398996D01*
X120017817Y-31410196D01*
X120014206Y-31421928D01*
X120011026Y-31434196D01*
X120008274Y-31447000D01*
X120004052Y-31474235D01*
X120001527Y-31503656D01*
X120000688Y-31535286D01*
X120000688Y-32471911D01*
X119580000Y-32471911D01*
X119580000Y-31471786D01*
X119580532Y-31438857D01*
X119582116Y-31407040D01*
X119584735Y-31376330D01*
X119588372Y-31346724D01*
X119593008Y-31318216D01*
X119598627Y-31290803D01*
X119605211Y-31264479D01*
X119612742Y-31239242D01*
X119621204Y-31215086D01*
X119630578Y-31192006D01*
X119640848Y-31170000D01*
X119651995Y-31149061D01*
X119664003Y-31129187D01*
X119676854Y-31110372D01*
X119690531Y-31092612D01*
X119705015Y-31075903D01*
X119720291Y-31060240D01*
X119736339Y-31045620D01*
X119753143Y-31032037D01*
X119770686Y-31019488D01*
X119788949Y-31007967D01*
X119807916Y-30997472D01*
X119827569Y-30987996D01*
X119847890Y-30979537D01*
X119868863Y-30972089D01*
X119890469Y-30965648D01*
X119912691Y-30960210D01*
X119935513Y-30955771D01*
X119958915Y-30952325D01*
X119982882Y-30949870D01*
X120007395Y-30948400D01*
X120032437Y-30947911D01*
X120053785Y-30948234D01*
G37*
G36*
X115635014Y-31583112D02*
G01*
X115639425Y-31626705D01*
X115642100Y-31671620D01*
X115643000Y-31717848D01*
X115643000Y-31749598D01*
X115642145Y-31795758D01*
X115639597Y-31840475D01*
X115635387Y-31883746D01*
X115629544Y-31925572D01*
X115622095Y-31965950D01*
X115613072Y-32004879D01*
X115602502Y-32042358D01*
X115590414Y-32078384D01*
X115576838Y-32112958D01*
X115561803Y-32146076D01*
X115545338Y-32177738D01*
X115527472Y-32207942D01*
X115508234Y-32236688D01*
X115487653Y-32263972D01*
X115465758Y-32289794D01*
X115442578Y-32314153D01*
X115418142Y-32337047D01*
X115392480Y-32358474D01*
X115365620Y-32378433D01*
X115337592Y-32396923D01*
X115308424Y-32413942D01*
X115278146Y-32429489D01*
X115246786Y-32443562D01*
X115214374Y-32456160D01*
X115180939Y-32467281D01*
X115146510Y-32476924D01*
X115111116Y-32485088D01*
X115074786Y-32491770D01*
X115037549Y-32496970D01*
X114999434Y-32500686D01*
X114960470Y-32502917D01*
X114920687Y-32503661D01*
X114884689Y-32503038D01*
X114849624Y-32501186D01*
X114815491Y-32498134D01*
X114782292Y-32493910D01*
X114750030Y-32488539D01*
X114718705Y-32482052D01*
X114688319Y-32474474D01*
X114658874Y-32465834D01*
X114630370Y-32456159D01*
X114602810Y-32445476D01*
X114576194Y-32433815D01*
X114550524Y-32421201D01*
X114525802Y-32407663D01*
X114502029Y-32393228D01*
X114479207Y-32377924D01*
X114457336Y-32361778D01*
X114436419Y-32344818D01*
X114416457Y-32327073D01*
X114397451Y-32308568D01*
X114379403Y-32289333D01*
X114362314Y-32269394D01*
X114346186Y-32248779D01*
X114331020Y-32227516D01*
X114316818Y-32205632D01*
X114303580Y-32183156D01*
X114291309Y-32160114D01*
X114280007Y-32136534D01*
X114269673Y-32112444D01*
X114260311Y-32087872D01*
X114251920Y-32062844D01*
X114244504Y-32037390D01*
X114238063Y-32011535D01*
X114627001Y-32011535D01*
X114633609Y-32030680D01*
X114641542Y-32049347D01*
X114650824Y-32067433D01*
X114661479Y-32084833D01*
X114673528Y-32101443D01*
X114686996Y-32117157D01*
X114701906Y-32131871D01*
X114718281Y-32145481D01*
X114736145Y-32157881D01*
X114755519Y-32168968D01*
X114765781Y-32173986D01*
X114776429Y-32178636D01*
X114787467Y-32182905D01*
X114798897Y-32186781D01*
X114810722Y-32190249D01*
X114822946Y-32193298D01*
X114835570Y-32195913D01*
X114848599Y-32198082D01*
X114862035Y-32199792D01*
X114875880Y-32201030D01*
X114890139Y-32201782D01*
X114904813Y-32202036D01*
X114936892Y-32200811D01*
X114967599Y-32197075D01*
X114996865Y-32190734D01*
X115010935Y-32186558D01*
X115024619Y-32181696D01*
X115037907Y-32176136D01*
X115050792Y-32169867D01*
X115063263Y-32162877D01*
X115075314Y-32155155D01*
X115086934Y-32146688D01*
X115098115Y-32137466D01*
X115108848Y-32127476D01*
X115119125Y-32116707D01*
X115128937Y-32105148D01*
X115138275Y-32092786D01*
X115147130Y-32079611D01*
X115155495Y-32065610D01*
X115163359Y-32050772D01*
X115170715Y-32035084D01*
X115177553Y-32018537D01*
X115183865Y-32001118D01*
X115189642Y-31982814D01*
X115194876Y-31963616D01*
X115203678Y-31922487D01*
X115210200Y-31877637D01*
X115214374Y-31828973D01*
X114246000Y-31828973D01*
X114246000Y-31646411D01*
X114246900Y-31600387D01*
X114249568Y-31556069D01*
X114250074Y-31551161D01*
X114658750Y-31551161D01*
X115222313Y-31551161D01*
X115218362Y-31529322D01*
X115213959Y-31508441D01*
X115209117Y-31488498D01*
X115203849Y-31469476D01*
X115198168Y-31451355D01*
X115192088Y-31434116D01*
X115185621Y-31417740D01*
X115178781Y-31402209D01*
X115171580Y-31387503D01*
X115164031Y-31373604D01*
X115156149Y-31360492D01*
X115147945Y-31348150D01*
X115139433Y-31336557D01*
X115130626Y-31325696D01*
X115121538Y-31315547D01*
X115112180Y-31306091D01*
X115102566Y-31297309D01*
X115092710Y-31289183D01*
X115082624Y-31281693D01*
X115072322Y-31274821D01*
X115061816Y-31268548D01*
X115051120Y-31262855D01*
X115040246Y-31257723D01*
X115029208Y-31253133D01*
X115018019Y-31249066D01*
X115006692Y-31245503D01*
X114983676Y-31239816D01*
X114960264Y-31235919D01*
X114936562Y-31233661D01*
X114906060Y-31234785D01*
X114877093Y-31238188D01*
X114863199Y-31240758D01*
X114849707Y-31243916D01*
X114836621Y-31247667D01*
X114823949Y-31252016D01*
X114811695Y-31256971D01*
X114799865Y-31262535D01*
X114788466Y-31268716D01*
X114777502Y-31275519D01*
X114766980Y-31282950D01*
X114756906Y-31291014D01*
X114747286Y-31299718D01*
X114738125Y-31309067D01*
X114729429Y-31319068D01*
X114721203Y-31329725D01*
X114713455Y-31341045D01*
X114706189Y-31353033D01*
X114699411Y-31365696D01*
X114693128Y-31379040D01*
X114687344Y-31393069D01*
X114682066Y-31407790D01*
X114677300Y-31423208D01*
X114673051Y-31439330D01*
X114669326Y-31456162D01*
X114666129Y-31473708D01*
X114661347Y-31510969D01*
X114658750Y-31551161D01*
X114250074Y-31551161D01*
X114253960Y-31513440D01*
X114260031Y-31472483D01*
X114267735Y-31433184D01*
X114277028Y-31395525D01*
X114287864Y-31359491D01*
X114300199Y-31325066D01*
X114313987Y-31292234D01*
X114329183Y-31260979D01*
X114345743Y-31231285D01*
X114363621Y-31203135D01*
X114382772Y-31176515D01*
X114403152Y-31151408D01*
X114424714Y-31127798D01*
X114447415Y-31105669D01*
X114471208Y-31085004D01*
X114496049Y-31065789D01*
X114521893Y-31048007D01*
X114548695Y-31031642D01*
X114576410Y-31016678D01*
X114604992Y-31003099D01*
X114634397Y-30990890D01*
X114664580Y-30980033D01*
X114695495Y-30970513D01*
X114727097Y-30962315D01*
X114759342Y-30955422D01*
X114792184Y-30949818D01*
X114859481Y-30942413D01*
X114928626Y-30939973D01*
X114966291Y-30940786D01*
X115003360Y-30943215D01*
X115039791Y-30947253D01*
X115075547Y-30952887D01*
X115110588Y-30960109D01*
X115144874Y-30968908D01*
X115178367Y-30979273D01*
X115211027Y-30991195D01*
X115242815Y-31004663D01*
X115273692Y-31019668D01*
X115303618Y-31036199D01*
X115332555Y-31054245D01*
X115360462Y-31073798D01*
X115387301Y-31094846D01*
X115413033Y-31117379D01*
X115437618Y-31141387D01*
X115461017Y-31166861D01*
X115483191Y-31193789D01*
X115504100Y-31222162D01*
X115523705Y-31251970D01*
X115541968Y-31283202D01*
X115558849Y-31315848D01*
X115574308Y-31349898D01*
X115588306Y-31385341D01*
X115600804Y-31422169D01*
X115611764Y-31460370D01*
X115621145Y-31499934D01*
X115628908Y-31540851D01*
X115630398Y-31551161D01*
X115635014Y-31583112D01*
G37*
G36*
X122548577Y-31583112D02*
G01*
X122552987Y-31626705D01*
X122555662Y-31671620D01*
X122556562Y-31717848D01*
X122556562Y-31749598D01*
X122555707Y-31795758D01*
X122553159Y-31840475D01*
X122548949Y-31883746D01*
X122543106Y-31925572D01*
X122535658Y-31965950D01*
X122526634Y-32004879D01*
X122516064Y-32042358D01*
X122503976Y-32078384D01*
X122490401Y-32112958D01*
X122475366Y-32146076D01*
X122458901Y-32177738D01*
X122441035Y-32207942D01*
X122421796Y-32236688D01*
X122401215Y-32263972D01*
X122379320Y-32289794D01*
X122356141Y-32314153D01*
X122331705Y-32337047D01*
X122306043Y-32358474D01*
X122279183Y-32378433D01*
X122251155Y-32396923D01*
X122221987Y-32413942D01*
X122191709Y-32429489D01*
X122160349Y-32443562D01*
X122127937Y-32456160D01*
X122094502Y-32467281D01*
X122060073Y-32476924D01*
X122024679Y-32485088D01*
X121988349Y-32491770D01*
X121951112Y-32496970D01*
X121912997Y-32500686D01*
X121874033Y-32502917D01*
X121834250Y-32503661D01*
X121798230Y-32503038D01*
X121763101Y-32501186D01*
X121728870Y-32498134D01*
X121695545Y-32493910D01*
X121663133Y-32488539D01*
X121631640Y-32482052D01*
X121601075Y-32474474D01*
X121571444Y-32465834D01*
X121542755Y-32456159D01*
X121515016Y-32445476D01*
X121488232Y-32433815D01*
X121462412Y-32421201D01*
X121437563Y-32407663D01*
X121413692Y-32393228D01*
X121390807Y-32377924D01*
X121368914Y-32361778D01*
X121348021Y-32344818D01*
X121328135Y-32327073D01*
X121309264Y-32308568D01*
X121291415Y-32289333D01*
X121274594Y-32269394D01*
X121258810Y-32248779D01*
X121244069Y-32227516D01*
X121230380Y-32205632D01*
X121217748Y-32183156D01*
X121206181Y-32160114D01*
X121195687Y-32136534D01*
X121186273Y-32112444D01*
X121177947Y-32087872D01*
X121170714Y-32062844D01*
X121164583Y-32037390D01*
X121159562Y-32011535D01*
X121548499Y-32011535D01*
X121555108Y-32030680D01*
X121563041Y-32049347D01*
X121572324Y-32067433D01*
X121582978Y-32084833D01*
X121595028Y-32101443D01*
X121608496Y-32117157D01*
X121623406Y-32131871D01*
X121639781Y-32145481D01*
X121657644Y-32157881D01*
X121677019Y-32168968D01*
X121687280Y-32173986D01*
X121697929Y-32178636D01*
X121708966Y-32182905D01*
X121720396Y-32186781D01*
X121732221Y-32190249D01*
X121744445Y-32193298D01*
X121757070Y-32195913D01*
X121770099Y-32198082D01*
X121783534Y-32199792D01*
X121797380Y-32201030D01*
X121811638Y-32201782D01*
X121826312Y-32202036D01*
X121858392Y-32200811D01*
X121889099Y-32197075D01*
X121918365Y-32190734D01*
X121932435Y-32186558D01*
X121946119Y-32181696D01*
X121959407Y-32176136D01*
X121972292Y-32169867D01*
X121984763Y-32162877D01*
X121996814Y-32155155D01*
X122008434Y-32146688D01*
X122019615Y-32137466D01*
X122030348Y-32127476D01*
X122040625Y-32116707D01*
X122050437Y-32105148D01*
X122059775Y-32092786D01*
X122068630Y-32079611D01*
X122076995Y-32065610D01*
X122084859Y-32050772D01*
X122092215Y-32035084D01*
X122099053Y-32018537D01*
X122105365Y-32001118D01*
X122111142Y-31982814D01*
X122116376Y-31963616D01*
X122125178Y-31922487D01*
X122131701Y-31877637D01*
X122135875Y-31828973D01*
X121159563Y-31828973D01*
X121159563Y-31646411D01*
X121160462Y-31600387D01*
X121163130Y-31556069D01*
X121163636Y-31551161D01*
X121572312Y-31551161D01*
X122127937Y-31551161D01*
X122124707Y-31529322D01*
X122120980Y-31508441D01*
X122116771Y-31488498D01*
X122112093Y-31469476D01*
X122106962Y-31451355D01*
X122101392Y-31434116D01*
X122095398Y-31417740D01*
X122088994Y-31402209D01*
X122082194Y-31387503D01*
X122075014Y-31373604D01*
X122067468Y-31360492D01*
X122059569Y-31348150D01*
X122051334Y-31336557D01*
X122042776Y-31325696D01*
X122033910Y-31315547D01*
X122024750Y-31306091D01*
X122015311Y-31297309D01*
X122005607Y-31289183D01*
X121995654Y-31281693D01*
X121985465Y-31274821D01*
X121975056Y-31268548D01*
X121964439Y-31262855D01*
X121953631Y-31257723D01*
X121942646Y-31253133D01*
X121931498Y-31249066D01*
X121920202Y-31245503D01*
X121897222Y-31239816D01*
X121873825Y-31235919D01*
X121850124Y-31233661D01*
X121819623Y-31234785D01*
X121790655Y-31238188D01*
X121776762Y-31240758D01*
X121763269Y-31243916D01*
X121750184Y-31247667D01*
X121737511Y-31252016D01*
X121725257Y-31256971D01*
X121713428Y-31262535D01*
X121702028Y-31268716D01*
X121691065Y-31275519D01*
X121680543Y-31282950D01*
X121670469Y-31291014D01*
X121660849Y-31299718D01*
X121651687Y-31309067D01*
X121642991Y-31319068D01*
X121634766Y-31329725D01*
X121627017Y-31341045D01*
X121619751Y-31353033D01*
X121612974Y-31365696D01*
X121606690Y-31379040D01*
X121600907Y-31393069D01*
X121595629Y-31407790D01*
X121590863Y-31423208D01*
X121586614Y-31439330D01*
X121582888Y-31456162D01*
X121579692Y-31473708D01*
X121574909Y-31510969D01*
X121572312Y-31551161D01*
X121163636Y-31551161D01*
X121167522Y-31513440D01*
X121173593Y-31472483D01*
X121181297Y-31433184D01*
X121190590Y-31395525D01*
X121201426Y-31359491D01*
X121213761Y-31325066D01*
X121227549Y-31292234D01*
X121242746Y-31260979D01*
X121259305Y-31231285D01*
X121277183Y-31203135D01*
X121296335Y-31176515D01*
X121316714Y-31151408D01*
X121338276Y-31127798D01*
X121360977Y-31105669D01*
X121384770Y-31085004D01*
X121409611Y-31065789D01*
X121435455Y-31048007D01*
X121462257Y-31031642D01*
X121489972Y-31016678D01*
X121518554Y-31003099D01*
X121547959Y-30990890D01*
X121578142Y-30980033D01*
X121609057Y-30970513D01*
X121640659Y-30962315D01*
X121672904Y-30955422D01*
X121705746Y-30949818D01*
X121773042Y-30942413D01*
X121842187Y-30939973D01*
X121879853Y-30940786D01*
X121916921Y-30943215D01*
X121953353Y-30947253D01*
X121989109Y-30952887D01*
X122024149Y-30960109D01*
X122058436Y-30968908D01*
X122091929Y-30979273D01*
X122124589Y-30991195D01*
X122156377Y-31004663D01*
X122187254Y-31019668D01*
X122217180Y-31036199D01*
X122246116Y-31054245D01*
X122274024Y-31073798D01*
X122300863Y-31094846D01*
X122326595Y-31117379D01*
X122351180Y-31141387D01*
X122374579Y-31166861D01*
X122396752Y-31193789D01*
X122417662Y-31222162D01*
X122437267Y-31251970D01*
X122455530Y-31283202D01*
X122472410Y-31315848D01*
X122487870Y-31349898D01*
X122501868Y-31385341D01*
X122514366Y-31422169D01*
X122525326Y-31460370D01*
X122534707Y-31499934D01*
X122542470Y-31540851D01*
X122543960Y-31551161D01*
X122548577Y-31583112D01*
G37*
G36*
X123434905Y-30940763D02*
G01*
X123471363Y-30943128D01*
X123507269Y-30947063D01*
X123542580Y-30952562D01*
X123577250Y-30959619D01*
X123611238Y-30968228D01*
X123644499Y-30978383D01*
X123676990Y-30990079D01*
X123708667Y-31003310D01*
X123739486Y-31018070D01*
X123769404Y-31034353D01*
X123798378Y-31052153D01*
X123826363Y-31071465D01*
X123853316Y-31092282D01*
X123879194Y-31114600D01*
X123903953Y-31138411D01*
X123927549Y-31163711D01*
X123949938Y-31190493D01*
X123971078Y-31218752D01*
X123990924Y-31248482D01*
X124009433Y-31279677D01*
X124026562Y-31312331D01*
X124042266Y-31346438D01*
X124056502Y-31381993D01*
X124069226Y-31418990D01*
X124080396Y-31457423D01*
X124089966Y-31497285D01*
X124097894Y-31538573D01*
X124104137Y-31581278D01*
X124108650Y-31625397D01*
X124111389Y-31670922D01*
X124112312Y-31717849D01*
X124112312Y-31741661D01*
X124111434Y-31788542D01*
X124108824Y-31833934D01*
X124104516Y-31877839D01*
X124098546Y-31920255D01*
X124090947Y-31961182D01*
X124081756Y-32000622D01*
X124071007Y-32038573D01*
X124058734Y-32075036D01*
X124044973Y-32110010D01*
X124029759Y-32143497D01*
X124013126Y-32175495D01*
X123995110Y-32206005D01*
X123975745Y-32235026D01*
X123955066Y-32262559D01*
X123933108Y-32288604D01*
X123909906Y-32313161D01*
X123885495Y-32336229D01*
X123859909Y-32357809D01*
X123833184Y-32377901D01*
X123805354Y-32396505D01*
X123776455Y-32413620D01*
X123746521Y-32429247D01*
X123715586Y-32443385D01*
X123683687Y-32456036D01*
X123650858Y-32467198D01*
X123617133Y-32476872D01*
X123582548Y-32485057D01*
X123547137Y-32491755D01*
X123510936Y-32496964D01*
X123473979Y-32500684D01*
X123436301Y-32502917D01*
X123397937Y-32503661D01*
X123360499Y-32502967D01*
X123324089Y-32500901D01*
X123288714Y-32497487D01*
X123254380Y-32492747D01*
X123221093Y-32486705D01*
X123188857Y-32479383D01*
X123157680Y-32470806D01*
X123127566Y-32460997D01*
X123098522Y-32449978D01*
X123070554Y-32437773D01*
X123043667Y-32424406D01*
X123017868Y-32409899D01*
X122993161Y-32394276D01*
X122969553Y-32377560D01*
X122947049Y-32359774D01*
X122925656Y-32340942D01*
X122905379Y-32321087D01*
X122886224Y-32300231D01*
X122868197Y-32278399D01*
X122851304Y-32255614D01*
X122835550Y-32231898D01*
X122820941Y-32207276D01*
X122807484Y-32181770D01*
X122795183Y-32155403D01*
X122784045Y-32128199D01*
X122774076Y-32100182D01*
X122765281Y-32071373D01*
X122757666Y-32041797D01*
X122751237Y-32011478D01*
X122746000Y-31980437D01*
X122741961Y-31948698D01*
X122739124Y-31916286D01*
X123120124Y-31916286D01*
X123122588Y-31931725D01*
X123125510Y-31946786D01*
X123128882Y-31961460D01*
X123132697Y-31975740D01*
X123136949Y-31989618D01*
X123141629Y-32003089D01*
X123146731Y-32016143D01*
X123152247Y-32028775D01*
X123158169Y-32040977D01*
X123164492Y-32052741D01*
X123171207Y-32064060D01*
X123178307Y-32074927D01*
X123185785Y-32085335D01*
X123193634Y-32095277D01*
X123201846Y-32104745D01*
X123210414Y-32113731D01*
X123219330Y-32122229D01*
X123228589Y-32130232D01*
X123238182Y-32137732D01*
X123248101Y-32144722D01*
X123258341Y-32151194D01*
X123268893Y-32157141D01*
X123279750Y-32162557D01*
X123290905Y-32167433D01*
X123302351Y-32171763D01*
X123314080Y-32175539D01*
X123326085Y-32178755D01*
X123338359Y-32181401D01*
X123350895Y-32183473D01*
X123363685Y-32184961D01*
X123376722Y-32185860D01*
X123389999Y-32186161D01*
X123424780Y-32184572D01*
X123457654Y-32179774D01*
X123473362Y-32176157D01*
X123488575Y-32171720D01*
X123503288Y-32166458D01*
X123517495Y-32160364D01*
X123531191Y-32153433D01*
X123544370Y-32145659D01*
X123557025Y-32137037D01*
X123569151Y-32127560D01*
X123580743Y-32117222D01*
X123591793Y-32106018D01*
X123602297Y-32093943D01*
X123612249Y-32080989D01*
X123621643Y-32067152D01*
X123630473Y-32052425D01*
X123638733Y-32036803D01*
X123646418Y-32020279D01*
X123653521Y-32002849D01*
X123660037Y-31984506D01*
X123671285Y-31945059D01*
X123680114Y-31901891D01*
X123686478Y-31854956D01*
X123690330Y-31804208D01*
X123691624Y-31749598D01*
X123691624Y-31701974D01*
X123691255Y-31674882D01*
X123690156Y-31648673D01*
X123688341Y-31623344D01*
X123685826Y-31598895D01*
X123682626Y-31575323D01*
X123678753Y-31552628D01*
X123674224Y-31530808D01*
X123669052Y-31509861D01*
X123663253Y-31489787D01*
X123656840Y-31470583D01*
X123649828Y-31452248D01*
X123642232Y-31434781D01*
X123634066Y-31418180D01*
X123625346Y-31402443D01*
X123616084Y-31387571D01*
X123606296Y-31373560D01*
X123595997Y-31360409D01*
X123585201Y-31348117D01*
X123573922Y-31336683D01*
X123562175Y-31326105D01*
X123549975Y-31316382D01*
X123537335Y-31307511D01*
X123524272Y-31299493D01*
X123510798Y-31292324D01*
X123496929Y-31286005D01*
X123482680Y-31280532D01*
X123468064Y-31275906D01*
X123453096Y-31272124D01*
X123437792Y-31269185D01*
X123422164Y-31267087D01*
X123406229Y-31265830D01*
X123389999Y-31265411D01*
X123376791Y-31265689D01*
X123363953Y-31266516D01*
X123351484Y-31267883D01*
X123339382Y-31269783D01*
X123327647Y-31272206D01*
X123316277Y-31275143D01*
X123305270Y-31278586D01*
X123294625Y-31282526D01*
X123284341Y-31286955D01*
X123274415Y-31291863D01*
X123264847Y-31297242D01*
X123255636Y-31303083D01*
X123246778Y-31309378D01*
X123238274Y-31316117D01*
X123230122Y-31323293D01*
X123222320Y-31330896D01*
X123214867Y-31338917D01*
X123207761Y-31347348D01*
X123201001Y-31356180D01*
X123194585Y-31365405D01*
X123188513Y-31375013D01*
X123182782Y-31384997D01*
X123172338Y-31406054D01*
X123163244Y-31428506D01*
X123155487Y-31452283D01*
X123149055Y-31477317D01*
X123143937Y-31503536D01*
X122747062Y-31503536D01*
X122750754Y-31467700D01*
X122755854Y-31433112D01*
X122762329Y-31399766D01*
X122770146Y-31367653D01*
X122779271Y-31336767D01*
X122789670Y-31307101D01*
X122801311Y-31278646D01*
X122814159Y-31251397D01*
X122828182Y-31225345D01*
X122843345Y-31200483D01*
X122859616Y-31176804D01*
X122876961Y-31154302D01*
X122895347Y-31132967D01*
X122914740Y-31112795D01*
X122935107Y-31093776D01*
X122956414Y-31075903D01*
X122978628Y-31059171D01*
X123001715Y-31043570D01*
X123025643Y-31029094D01*
X123050377Y-31015736D01*
X123075884Y-31003489D01*
X123102132Y-30992344D01*
X123129085Y-30982296D01*
X123156712Y-30973336D01*
X123213850Y-30958653D01*
X123273278Y-30948237D01*
X123334730Y-30942030D01*
X123397937Y-30939974D01*
X123434905Y-30940763D01*
G37*
G36*
X124990654Y-30940763D02*
G01*
X125027113Y-30943128D01*
X125063019Y-30947063D01*
X125098329Y-30952562D01*
X125133000Y-30959619D01*
X125166988Y-30968228D01*
X125200249Y-30978383D01*
X125232740Y-30990079D01*
X125264417Y-31003310D01*
X125295236Y-31018070D01*
X125325154Y-31034353D01*
X125354128Y-31052153D01*
X125382113Y-31071465D01*
X125409066Y-31092282D01*
X125434944Y-31114600D01*
X125459703Y-31138411D01*
X125483299Y-31163711D01*
X125505688Y-31190493D01*
X125526828Y-31218752D01*
X125546674Y-31248482D01*
X125565183Y-31279677D01*
X125582312Y-31312331D01*
X125598015Y-31346438D01*
X125612252Y-31381993D01*
X125624976Y-31418990D01*
X125636145Y-31457423D01*
X125645716Y-31497285D01*
X125653644Y-31538573D01*
X125659887Y-31581278D01*
X125664399Y-31625397D01*
X125667139Y-31670922D01*
X125668062Y-31717849D01*
X125668062Y-31741661D01*
X125667184Y-31788542D01*
X125664574Y-31833934D01*
X125660266Y-31877839D01*
X125654295Y-31920255D01*
X125646697Y-31961182D01*
X125637506Y-32000622D01*
X125626756Y-32038573D01*
X125614484Y-32075036D01*
X125600723Y-32110010D01*
X125585509Y-32143497D01*
X125568876Y-32175495D01*
X125550860Y-32206005D01*
X125531495Y-32235026D01*
X125510816Y-32262559D01*
X125488858Y-32288604D01*
X125465656Y-32313161D01*
X125441244Y-32336229D01*
X125415659Y-32357809D01*
X125388934Y-32377901D01*
X125361104Y-32396505D01*
X125332205Y-32413620D01*
X125302270Y-32429247D01*
X125271336Y-32443385D01*
X125239437Y-32456036D01*
X125206608Y-32467198D01*
X125172883Y-32476872D01*
X125138298Y-32485057D01*
X125102887Y-32491755D01*
X125066686Y-32496964D01*
X125029729Y-32500684D01*
X124992051Y-32502917D01*
X124953687Y-32503661D01*
X124916248Y-32502967D01*
X124879839Y-32500901D01*
X124844464Y-32497487D01*
X124810130Y-32492747D01*
X124776842Y-32486705D01*
X124744607Y-32479383D01*
X124713429Y-32470806D01*
X124683316Y-32460997D01*
X124654272Y-32449978D01*
X124626304Y-32437773D01*
X124599417Y-32424406D01*
X124573617Y-32409899D01*
X124548910Y-32394276D01*
X124525302Y-32377560D01*
X124502799Y-32359774D01*
X124481406Y-32340942D01*
X124461129Y-32321087D01*
X124441974Y-32300231D01*
X124423947Y-32278399D01*
X124407054Y-32255614D01*
X124391300Y-32231898D01*
X124376691Y-32207276D01*
X124363234Y-32181770D01*
X124350933Y-32155403D01*
X124339795Y-32128199D01*
X124329826Y-32100182D01*
X124321031Y-32071373D01*
X124313416Y-32041797D01*
X124306987Y-32011478D01*
X124301750Y-31980437D01*
X124297711Y-31948698D01*
X124294875Y-31916286D01*
X124675875Y-31916286D01*
X124678339Y-31931725D01*
X124681260Y-31946786D01*
X124684632Y-31961460D01*
X124688448Y-31975740D01*
X124692699Y-31989618D01*
X124697379Y-32003089D01*
X124702481Y-32016143D01*
X124707997Y-32028775D01*
X124713920Y-32040977D01*
X124720242Y-32052741D01*
X124726957Y-32064060D01*
X124734057Y-32074927D01*
X124741535Y-32085335D01*
X124749384Y-32095277D01*
X124757596Y-32104745D01*
X124766164Y-32113731D01*
X124775081Y-32122229D01*
X124784339Y-32130232D01*
X124793932Y-32137732D01*
X124803851Y-32144722D01*
X124814091Y-32151194D01*
X124824643Y-32157141D01*
X124835500Y-32162557D01*
X124846655Y-32167433D01*
X124858101Y-32171763D01*
X124869830Y-32175539D01*
X124881835Y-32178755D01*
X124894109Y-32181401D01*
X124906645Y-32183473D01*
X124919435Y-32184961D01*
X124932473Y-32185860D01*
X124945750Y-32186161D01*
X124980531Y-32184572D01*
X125013405Y-32179774D01*
X125029112Y-32176157D01*
X125044325Y-32171720D01*
X125059038Y-32166458D01*
X125073246Y-32160364D01*
X125086942Y-32153433D01*
X125100120Y-32145659D01*
X125112775Y-32137037D01*
X125124902Y-32127560D01*
X125136493Y-32117222D01*
X125147544Y-32106018D01*
X125158048Y-32093943D01*
X125168000Y-32080989D01*
X125177393Y-32067152D01*
X125186223Y-32052425D01*
X125194484Y-32036803D01*
X125202168Y-32020279D01*
X125209271Y-32002849D01*
X125215787Y-31984506D01*
X125227035Y-31945059D01*
X125235864Y-31901891D01*
X125242228Y-31854956D01*
X125246080Y-31804208D01*
X125247375Y-31749598D01*
X125247375Y-31701974D01*
X125247005Y-31674882D01*
X125245906Y-31648673D01*
X125244091Y-31623344D01*
X125241577Y-31598895D01*
X125238376Y-31575323D01*
X125234503Y-31552628D01*
X125229974Y-31530808D01*
X125224802Y-31509861D01*
X125219003Y-31489787D01*
X125212590Y-31470583D01*
X125205578Y-31452248D01*
X125197982Y-31434781D01*
X125189817Y-31418180D01*
X125181096Y-31402443D01*
X125171834Y-31387571D01*
X125162047Y-31373560D01*
X125151747Y-31360409D01*
X125140951Y-31348117D01*
X125129672Y-31336683D01*
X125117925Y-31326105D01*
X125105725Y-31316382D01*
X125093086Y-31307511D01*
X125080022Y-31299493D01*
X125066549Y-31292324D01*
X125052680Y-31286005D01*
X125038430Y-31280532D01*
X125023814Y-31275906D01*
X125008847Y-31272124D01*
X124993542Y-31269185D01*
X124977914Y-31267087D01*
X124961979Y-31265830D01*
X124945750Y-31265411D01*
X124932541Y-31265689D01*
X124919703Y-31266516D01*
X124907234Y-31267883D01*
X124895133Y-31269783D01*
X124883398Y-31272206D01*
X124872027Y-31275143D01*
X124861021Y-31278586D01*
X124850376Y-31282526D01*
X124840091Y-31286955D01*
X124830166Y-31291863D01*
X124820598Y-31297242D01*
X124811386Y-31303083D01*
X124802529Y-31309378D01*
X124794024Y-31316117D01*
X124785872Y-31323293D01*
X124778070Y-31330896D01*
X124770617Y-31338917D01*
X124763511Y-31347348D01*
X124756751Y-31356180D01*
X124750335Y-31365405D01*
X124744263Y-31375013D01*
X124738532Y-31384997D01*
X124728089Y-31406054D01*
X124718994Y-31428506D01*
X124711237Y-31452283D01*
X124704805Y-31477317D01*
X124699687Y-31503536D01*
X124302812Y-31503536D01*
X124306504Y-31467700D01*
X124311604Y-31433112D01*
X124318079Y-31399766D01*
X124325896Y-31367653D01*
X124335021Y-31336767D01*
X124345420Y-31307101D01*
X124357061Y-31278646D01*
X124369909Y-31251397D01*
X124383932Y-31225345D01*
X124399095Y-31200483D01*
X124415366Y-31176804D01*
X124432711Y-31154302D01*
X124451097Y-31132967D01*
X124470490Y-31112795D01*
X124490857Y-31093776D01*
X124512164Y-31075903D01*
X124534378Y-31059171D01*
X124557465Y-31043570D01*
X124581393Y-31029094D01*
X124606127Y-31015736D01*
X124631634Y-31003489D01*
X124657882Y-30992344D01*
X124684835Y-30982296D01*
X124712462Y-30973336D01*
X124769600Y-30958653D01*
X124829028Y-30948237D01*
X124890480Y-30942030D01*
X124953687Y-30939974D01*
X124990654Y-30940763D01*
G37*
G36*
X127207937Y-32051223D02*
G01*
X127207937Y-32067098D01*
X127207291Y-32094888D01*
X127205375Y-32121707D01*
X127202221Y-32147561D01*
X127197860Y-32172456D01*
X127192325Y-32196398D01*
X127185648Y-32219391D01*
X127177860Y-32241443D01*
X127168994Y-32262559D01*
X127159081Y-32282745D01*
X127148154Y-32302006D01*
X127136244Y-32320349D01*
X127123384Y-32337779D01*
X127109605Y-32354303D01*
X127094940Y-32369925D01*
X127079420Y-32384652D01*
X127063078Y-32398489D01*
X127045944Y-32411443D01*
X127028053Y-32423518D01*
X127009434Y-32434722D01*
X126990121Y-32445060D01*
X126970145Y-32454537D01*
X126949538Y-32463159D01*
X126906560Y-32477864D01*
X126861443Y-32489220D01*
X126814442Y-32497274D01*
X126765813Y-32502072D01*
X126715812Y-32503661D01*
X126697394Y-32503384D01*
X126679347Y-32502564D01*
X126661669Y-32501215D01*
X126644359Y-32499351D01*
X126627415Y-32496987D01*
X126610836Y-32494138D01*
X126594620Y-32490818D01*
X126578766Y-32487042D01*
X126563273Y-32482823D01*
X126548138Y-32478178D01*
X126533361Y-32473120D01*
X126518940Y-32467663D01*
X126504874Y-32461823D01*
X126491161Y-32455613D01*
X126477800Y-32449049D01*
X126464789Y-32442145D01*
X126452126Y-32434915D01*
X126439811Y-32427375D01*
X126416218Y-32411418D01*
X126393996Y-32394392D01*
X126373135Y-32376413D01*
X126353623Y-32357596D01*
X126335448Y-32338058D01*
X126318598Y-32317916D01*
X126303062Y-32297286D01*
X126303062Y-32471911D01*
X125898250Y-32471911D01*
X125898250Y-31836911D01*
X126318937Y-31836911D01*
X126318937Y-31979786D01*
X126319306Y-31993715D01*
X126320398Y-32007226D01*
X126322194Y-32020318D01*
X126324673Y-32032992D01*
X126327815Y-32045247D01*
X126331599Y-32057084D01*
X126336005Y-32068501D01*
X126341013Y-32079501D01*
X126346603Y-32090082D01*
X126352753Y-32100244D01*
X126359444Y-32109987D01*
X126366655Y-32119312D01*
X126374366Y-32128219D01*
X126382557Y-32136707D01*
X126391207Y-32144776D01*
X126400296Y-32152427D01*
X126409804Y-32159659D01*
X126419710Y-32166472D01*
X126429994Y-32172867D01*
X126440635Y-32178844D01*
X126462909Y-32189541D01*
X126486369Y-32198563D01*
X126510852Y-32205912D01*
X126536195Y-32211586D01*
X126562236Y-32215586D01*
X126588812Y-32217911D01*
X126601974Y-32217703D01*
X126614675Y-32217084D01*
X126626916Y-32216060D01*
X126638700Y-32214640D01*
X126650032Y-32212830D01*
X126660912Y-32210638D01*
X126671345Y-32208072D01*
X126681333Y-32205137D01*
X126690880Y-32201842D01*
X126699987Y-32198193D01*
X126708659Y-32194199D01*
X126716897Y-32189866D01*
X126724705Y-32185202D01*
X126732086Y-32180214D01*
X126739043Y-32174909D01*
X126745578Y-32169294D01*
X126751694Y-32163377D01*
X126757395Y-32157165D01*
X126762683Y-32150665D01*
X126767561Y-32143885D01*
X126772032Y-32136831D01*
X126776099Y-32129512D01*
X126779765Y-32121933D01*
X126783033Y-32114104D01*
X126785905Y-32106030D01*
X126788385Y-32097719D01*
X126790476Y-32089178D01*
X126792179Y-32080416D01*
X126793500Y-32071438D01*
X126794439Y-32062252D01*
X126795000Y-32052866D01*
X126795187Y-32043286D01*
X126795187Y-32027411D01*
X126794885Y-32014993D01*
X126793978Y-32003035D01*
X126792466Y-31991533D01*
X126790350Y-31980484D01*
X126787629Y-31969882D01*
X126784304Y-31959723D01*
X126780374Y-31950004D01*
X126775839Y-31940719D01*
X126770700Y-31931864D01*
X126764956Y-31923435D01*
X126758608Y-31915427D01*
X126751655Y-31907837D01*
X126744097Y-31900659D01*
X126735935Y-31893890D01*
X126727168Y-31887525D01*
X126717796Y-31881560D01*
X126707820Y-31875989D01*
X126697239Y-31870810D01*
X126674264Y-31861607D01*
X126648870Y-31853916D01*
X126621058Y-31847701D01*
X126590827Y-31842928D01*
X126558178Y-31839562D01*
X126523111Y-31837568D01*
X126485624Y-31836911D01*
X126318937Y-31836911D01*
X125898250Y-31836911D01*
X125898250Y-31471786D01*
X125899012Y-31437460D01*
X125901278Y-31404424D01*
X125905019Y-31372663D01*
X125910202Y-31342166D01*
X125916799Y-31312918D01*
X125924777Y-31284908D01*
X125934107Y-31258121D01*
X125944758Y-31232544D01*
X125956700Y-31208166D01*
X125969902Y-31184972D01*
X125984334Y-31162949D01*
X125999964Y-31142085D01*
X126016763Y-31122366D01*
X126034701Y-31103779D01*
X126053745Y-31086311D01*
X126073867Y-31069950D01*
X126095035Y-31054681D01*
X126117219Y-31040492D01*
X126140388Y-31027370D01*
X126164512Y-31015302D01*
X126189561Y-31004274D01*
X126215503Y-30994274D01*
X126269948Y-30977304D01*
X126327601Y-30964288D01*
X126388220Y-30955120D01*
X126451559Y-30949695D01*
X126517375Y-30947911D01*
X126581801Y-30949775D01*
X126613181Y-30952110D01*
X126643971Y-30955383D01*
X126674146Y-30959598D01*
X126703677Y-30964758D01*
X126732540Y-30970866D01*
X126760709Y-30977924D01*
X126788156Y-30985936D01*
X126814856Y-30994904D01*
X126840784Y-31004831D01*
X126865911Y-31015720D01*
X126890214Y-31027575D01*
X126913664Y-31040397D01*
X126936237Y-31054191D01*
X126957906Y-31068958D01*
X126978644Y-31084701D01*
X126998427Y-31101425D01*
X127017226Y-31119130D01*
X127035017Y-31137822D01*
X127051774Y-31157501D01*
X127067469Y-31178172D01*
X127082077Y-31199837D01*
X127095572Y-31222499D01*
X127107927Y-31246160D01*
X127119117Y-31270825D01*
X127129115Y-31296496D01*
X127137895Y-31323175D01*
X127145431Y-31350865D01*
X127151696Y-31379570D01*
X127156665Y-31409293D01*
X127160312Y-31440036D01*
X126763437Y-31440036D01*
X126761203Y-31419584D01*
X126757468Y-31399945D01*
X126752223Y-31381191D01*
X126749029Y-31372166D01*
X126745454Y-31363389D01*
X126741494Y-31354868D01*
X126737150Y-31346611D01*
X126732419Y-31338628D01*
X126727300Y-31330926D01*
X126721791Y-31323515D01*
X126715892Y-31316404D01*
X126709600Y-31309600D01*
X126702914Y-31303114D01*
X126695832Y-31296953D01*
X126688354Y-31291126D01*
X126680478Y-31285643D01*
X126672202Y-31280511D01*
X126663525Y-31275739D01*
X126654446Y-31271337D01*
X126644962Y-31267312D01*
X126635073Y-31263674D01*
X126624777Y-31260432D01*
X126614072Y-31257593D01*
X126602958Y-31255168D01*
X126591432Y-31253163D01*
X126579494Y-31251589D01*
X126567141Y-31250454D01*
X126554373Y-31249767D01*
X126541187Y-31249536D01*
X126526582Y-31249791D01*
X126512530Y-31250553D01*
X126499024Y-31251818D01*
X126486059Y-31253582D01*
X126473628Y-31255840D01*
X126461727Y-31258588D01*
X126450349Y-31261821D01*
X126439488Y-31265535D01*
X126429139Y-31269726D01*
X126419295Y-31274389D01*
X126409952Y-31279520D01*
X126401103Y-31285115D01*
X126392742Y-31291169D01*
X126384863Y-31297678D01*
X126377462Y-31304638D01*
X126370531Y-31312044D01*
X126364065Y-31319891D01*
X126358059Y-31328176D01*
X126352506Y-31336895D01*
X126347400Y-31346042D01*
X126342737Y-31355613D01*
X126338510Y-31365604D01*
X126334712Y-31376011D01*
X126331339Y-31386830D01*
X126328385Y-31398055D01*
X126325844Y-31409683D01*
X126321976Y-31434129D01*
X126319689Y-31460133D01*
X126318937Y-31487661D01*
X126318937Y-31559098D01*
X126501500Y-31559098D01*
X126573528Y-31560614D01*
X126643522Y-31565268D01*
X126711120Y-31573225D01*
X126743909Y-31578493D01*
X126775963Y-31584647D01*
X126807239Y-31591708D01*
X126837690Y-31599696D01*
X126867273Y-31608632D01*
X126895941Y-31618536D01*
X126923649Y-31629429D01*
X126950354Y-31641330D01*
X126976009Y-31654260D01*
X127000570Y-31668239D01*
X127023991Y-31683288D01*
X127046228Y-31699427D01*
X127067235Y-31716676D01*
X127086968Y-31735057D01*
X127105381Y-31754588D01*
X127122429Y-31775290D01*
X127138067Y-31797185D01*
X127152250Y-31820292D01*
X127164934Y-31844631D01*
X127176073Y-31870223D01*
X127185621Y-31897088D01*
X127193535Y-31925246D01*
X127199768Y-31954719D01*
X127204276Y-31985526D01*
X127207014Y-32017687D01*
X127207719Y-32043286D01*
X127207937Y-32051223D01*
G37*
%TD*%
D11*
%TO.C,J6*%
X166875000Y-140695000D03*
D12*
X166875000Y-138155000D03*
%TD*%
D13*
%TO.C,J4*%
X161230331Y-119900495D03*
X161230331Y-56400495D03*
D14*
X159810331Y-113080495D03*
D15*
X159810331Y-110310495D03*
X159810331Y-107540495D03*
X159810331Y-104770495D03*
X159810331Y-102000495D03*
X159810331Y-99230495D03*
X159810331Y-96460495D03*
X159810331Y-93690495D03*
X159810331Y-90920495D03*
X159810331Y-88150495D03*
X159810331Y-85380495D03*
X159810331Y-82610495D03*
X159810331Y-79840495D03*
X159810331Y-77070495D03*
X159810331Y-74300495D03*
X159810331Y-71530495D03*
X159810331Y-68760495D03*
X159810331Y-65990495D03*
X159810331Y-63220495D03*
X162650331Y-111695495D03*
X162650331Y-108925495D03*
X162650331Y-106155495D03*
X162650331Y-103385495D03*
X162650331Y-100615495D03*
X162650331Y-97845495D03*
X162650331Y-95075495D03*
X162650331Y-92305495D03*
X162650331Y-89535495D03*
X162650331Y-86765495D03*
X162650331Y-83995495D03*
X162650331Y-81225495D03*
X162650331Y-78455495D03*
X162650331Y-75685495D03*
X162650331Y-72915495D03*
X162650331Y-70145495D03*
X162650331Y-67375495D03*
X162650331Y-64605495D03*
%TD*%
D13*
%TO.C,J2*%
X86256274Y-131275000D03*
X149756274Y-131275000D03*
D14*
X93076274Y-129855000D03*
D15*
X95846274Y-129855000D03*
X98616274Y-129855000D03*
X101386274Y-129855000D03*
X104156274Y-129855000D03*
X106926274Y-129855000D03*
X109696274Y-129855000D03*
X112466274Y-129855000D03*
X115236274Y-129855000D03*
X118006274Y-129855000D03*
X120776274Y-129855000D03*
X123546274Y-129855000D03*
X126316274Y-129855000D03*
X129086274Y-129855000D03*
X131856274Y-129855000D03*
X134626274Y-129855000D03*
X137396274Y-129855000D03*
X140166274Y-129855000D03*
X142936274Y-129855000D03*
X94461274Y-132695000D03*
X97231274Y-132695000D03*
X100001274Y-132695000D03*
X102771274Y-132695000D03*
X105541274Y-132695000D03*
X108311274Y-132695000D03*
X111081274Y-132695000D03*
X113851274Y-132695000D03*
X116621274Y-132695000D03*
X119391274Y-132695000D03*
X122161274Y-132695000D03*
X124931274Y-132695000D03*
X127701274Y-132695000D03*
X130471274Y-132695000D03*
X133241274Y-132695000D03*
X136011274Y-132695000D03*
X138781274Y-132695000D03*
X141551274Y-132695000D03*
%TD*%
D13*
%TO.C,J3*%
X74790331Y-56400495D03*
X74790331Y-119900495D03*
D14*
X76210331Y-63220495D03*
D15*
X76210331Y-65990495D03*
X76210331Y-68760495D03*
X76210331Y-71530495D03*
X76210331Y-74300495D03*
X76210331Y-77070495D03*
X76210331Y-79840495D03*
X76210331Y-82610495D03*
X76210331Y-85380495D03*
X76210331Y-88150495D03*
X76210331Y-90920495D03*
X76210331Y-93690495D03*
X76210331Y-96460495D03*
X76210331Y-99230495D03*
X76210331Y-102000495D03*
X76210331Y-104770495D03*
X76210331Y-107540495D03*
X76210331Y-110310495D03*
X76210331Y-113080495D03*
X73370331Y-64605495D03*
X73370331Y-67375495D03*
X73370331Y-70145495D03*
X73370331Y-72915495D03*
X73370331Y-75685495D03*
X73370331Y-78455495D03*
X73370331Y-81225495D03*
X73370331Y-83995495D03*
X73370331Y-86765495D03*
X73370331Y-89535495D03*
X73370331Y-92305495D03*
X73370331Y-95075495D03*
X73370331Y-97845495D03*
X73370331Y-100615495D03*
X73370331Y-103385495D03*
X73370331Y-106155495D03*
X73370331Y-108925495D03*
X73370331Y-111695495D03*
%TD*%
D13*
%TO.C,J1*%
X149756274Y-44835000D03*
X86256274Y-44835000D03*
D14*
X142936274Y-46255000D03*
D15*
X140166274Y-46255000D03*
X137396274Y-46255000D03*
X134626274Y-46255000D03*
X131856274Y-46255000D03*
X129086274Y-46255000D03*
X126316274Y-46255000D03*
X123546274Y-46255000D03*
X120776274Y-46255000D03*
X118006274Y-46255000D03*
X115236274Y-46255000D03*
X112466274Y-46255000D03*
X109696274Y-46255000D03*
X106926274Y-46255000D03*
X104156274Y-46255000D03*
X101386274Y-46255000D03*
X98616274Y-46255000D03*
X95846274Y-46255000D03*
X93076274Y-46255000D03*
X141551274Y-43415000D03*
X138781274Y-43415000D03*
X136011274Y-43415000D03*
X133241274Y-43415000D03*
X130471274Y-43415000D03*
X127701274Y-43415000D03*
X124931274Y-43415000D03*
X122161274Y-43415000D03*
X119391274Y-43415000D03*
X116621274Y-43415000D03*
X113851274Y-43415000D03*
X111081274Y-43415000D03*
X108311274Y-43415000D03*
X105541274Y-43415000D03*
X102771274Y-43415000D03*
X100001274Y-43415000D03*
X97231274Y-43415000D03*
X94461274Y-43415000D03*
%TD*%
D16*
%TO.C,J5*%
X78696224Y-158698772D03*
D17*
X78696224Y-156158772D03*
X81236224Y-158698772D03*
X81236224Y-156158772D03*
X83776224Y-158698772D03*
X83776224Y-156158772D03*
X86316224Y-158698772D03*
X86326224Y-156158772D03*
X88856224Y-158698772D03*
X88856224Y-156158772D03*
X91396224Y-158698772D03*
X91396224Y-156158772D03*
X93936224Y-158698772D03*
X93936224Y-156158772D03*
X96476224Y-158698772D03*
X96476224Y-156158772D03*
X99016224Y-158698772D03*
X99016224Y-156158772D03*
X101556224Y-158698772D03*
X101556224Y-156158772D03*
X104096224Y-158698772D03*
X104096224Y-156158772D03*
X106636224Y-158698772D03*
X106636224Y-156158772D03*
X109176224Y-158698772D03*
X109176224Y-156158772D03*
X111716224Y-158698772D03*
X111726224Y-156158772D03*
X114256224Y-158698772D03*
X114256224Y-156158772D03*
X116796224Y-158698772D03*
X116796224Y-156158772D03*
X119336224Y-158698772D03*
X119336224Y-156158772D03*
X121876224Y-158698772D03*
X121876224Y-156158772D03*
X124416224Y-158698772D03*
X124416224Y-156158772D03*
X126956224Y-158698772D03*
X126956224Y-156158772D03*
X129496224Y-158698772D03*
X129496224Y-156158772D03*
X132036224Y-158698772D03*
X132036224Y-156158772D03*
D18*
X134576224Y-158698772D03*
D17*
X134576224Y-156158772D03*
X137116224Y-158698772D03*
X137126224Y-156158772D03*
X139656224Y-158698772D03*
X139656224Y-156158772D03*
X142196224Y-158698772D03*
X142196224Y-156158772D03*
X144736224Y-158698772D03*
X144736224Y-156158772D03*
X147276224Y-158698772D03*
X147276224Y-156158772D03*
X149816224Y-158698772D03*
X149816224Y-156158772D03*
X152356224Y-158698772D03*
X152356224Y-156158772D03*
X154896224Y-158698772D03*
X154896224Y-156158772D03*
X157436224Y-158698772D03*
X157436224Y-156158772D03*
%TD*%
M02*
