999
dxfrw 0.6.3
  0
SECTION
  2
HEADER
  9
$ACADVER
  1
AC1021
  9
$DWGCODEPAGE
  3
ANSI_1252
  9
$INSBASE
 10
0
 20
0
 30
0
  9
$EXTMIN
 10
-8
 20
-5.25
 30
0
  9
$EXTMAX
 10
16.25
 20
16.02500000000015
 30
0
  9
$LIMMIN
 10
0
 20
0
  9
$LIMMAX
 10
420
 20
297
  9
$ORTHOMODE
 70
    0
  9
$REGENMODE
 70
    1
  9
$FILLMODE
 70
    0
  9
$QTEXTMODE
 70
    0
  9
$MIRRTEXT
 70
    0
  9
$LTSCALE
 40
1
  9
$ATTMODE
 70
    0
  9
$TEXTSIZE
 40
2.5
  9
$TRACEWID
 40
15.68
  9
$TEXTSTYLE
  7
STANDARD
  9
$CLAYER
  8
0
  9
$CELTYPE
  6
BYLAYER
  9
$CECOLOR
 62
  256
  9
$CELTSCALE
 40
1
  9
$DISPSILH
 70
    0
  9
$DIMSCALE
 40
1
  9
$DIMASZ
 40
2.5
  9
$DIMEXO
 40
0.625
  9
$DIMDLI
 40
3.75
  9
$DIMRND
 40
0
  9
$DIMDLE
 40
0
  9
$DIMEXE
 40
1.25
  9
$DIMTP
 40
0
  9
$DIMTM
 40
0
  9
$DIMTXT
 40
2.5
  9
$DIMCEN
 40
2.5
  9
$DIMTSZ
 40
0
  9
$DIMTOL
 70
    0
  9
$DIMLIM
 70
    0
  9
$DIMTIH
 70
    0
  9
$DIMTOH
 70
    0
  9
$DIMSE1
 70
    0
  9
$DIMSE2
 70
    0
  9
$DIMTAD
 70
    1
  9
$DIMZIN
 70
    8
  9
$DIMBLK
  1

  9
$DIMASO
 70
    1
  9
$DIMSHO
 70
    1
  9
$DIMPOST
  1

  9
$DIMAPOST
  1

  9
$DIMALT
 70
    0
  9
$DIMALTD
 70
    3
  9
$DIMALTF
 40
0.03937
  9
$DIMLFAC
 40
1
  9
$DIMTOFL
 70
    1
  9
$DIMTVP
 40
0
  9
$DIMTIX
 70
    0
  9
$DIMSOXD
 70
    0
  9
$DIMSAH
 70
    0
  9
$DIMBLK1
  1

  9
$DIMBLK2
  1

  9
$DIMSTYLE
  2
Standard
  9
$DIMCLRD
 70
    0
  9
$DIMCLRE
 70
    0
  9
$DIMCLRT
 70
    0
  9
$DIMTFAC
 40
1
  9
$DIMGAP
 40
0.625
  9
$DIMJUST
 70
    0
  9
$DIMSD1
 70
    0
  9
$DIMSD2
 70
    0
  9
$DIMTOLJ
 70
    0
  9
$DIMTZIN
 70
    8
  9
$DIMALTZ
 70
    0
  9
$DIMALTTZ
 70
    0
  9
$DIMUPT
 70
    0
  9
$DIMDEC
 70
    2
  9
$DIMTDEC
 70
    2
  9
$DIMALTU
 70
    2
  9
$DIMALTTD
 70
    3
  9
$DIMTXSTY
  7
STANDARD
  9
$DIMAUNIT
 70
    0
  9
$DIMADEC
 70
    0
  9
$DIMALTRND
 40
0
  9
$DIMAZIN
 70
    0
  9
$DIMDSEP
 70
   44
  9
$DIMATFIT
 70
    3
  9
$DIMFRAC
 70
    0
  9
$DIMLDRBLK
  1
STANDARD
  9
$DIMLUNIT
 70
    2
  9
$DIMLWD
 70
   -2
  9
$DIMLWE
 70
   -2
  9
$DIMTMOVE
 70
    0
  9
$DIMFXL
 40
1
  9
$DIMFXLON
 70
    0
  9
$DIMJOGANG
 40
0.7854
  9
$DIMTFILL
 70
    0
  9
$DIMTFILLCLR
 70
    0
  9
$DIMARCSYM
 70
    0
  9
$DIMLTYPE
  6

  9
$DIMLTEX1
  6

  9
$DIMLTEX2
  6

  9
$LUNITS
 70
    2
  9
$LUPREC
 70
    4
  9
$SKETCHINC
 40
1
  9
$FILLETRAD
 40
0
  9
$AUNITS
 70
    0
  9
$AUPREC
 70
    2
  9
$MENU
  1
.
  9
$ELEVATION
 40
0
  9
$PELEVATION
 40
0
  9
$THICKNESS
 40
0
  9
$LIMCHECK
 70
    0
  9
$CHAMFERA
 40
0
  9
$CHAMFERB
 40
0
  9
$CHAMFERC
 40
0
  9
$CHAMFERD
 40
0
  9
$SKPOLY
 70
    0
  9
$USRTIMER
 70
    1
  9
$ANGBASE
 50
0
  9
$ANGDIR
 70
    0
  9
$PDMODE
 70
   34
  9
$PDSIZE
 40
0
  9
$PLINEWID
 40
0
  9
$SPLFRAME
 70
    0
  9
$SPLINETYPE
 70
    2
  9
$SPLINESEGS
 70
    8
  9
$HANDSEED
  5
20000
  9
$SURFTAB1
 70
    6
  9
$SURFTAB2
 70
    6
  9
$SURFTYPE
 70
    6
  9
$SURFU
 70
    6
  9
$SURFV
 70
    6
  9
$UCSBASE
  2

  9
$UCSNAME
  2

  9
$UCSORG
 10
0
 20
0
 30
0
  9
$UCSXDIR
 10
1
 20
0
 30
0
  9
$UCSYDIR
 10
0
 20
1
 30
0
  9
$UCSORTHOREF
  2

  9
$UCSORTHOVIEW
 70
    0
  9
$UCSORGTOP
 10
0
 20
0
 30
0
  9
$UCSORGBOTTOM
 10
0
 20
0
 30
0
  9
$UCSORGLEFT
 10
0
 20
0
 30
0
  9
$UCSORGRIGHT
 10
0
 20
0
 30
0
  9
$UCSORGFRONT
 10
0
 20
0
 30
0
  9
$UCSORGBACK
 10
0
 20
0
 30
0
  9
$PUCSBASE
  2

  9
$PUCSNAME
  2

  9
$PUCSORG
 10
0
 20
0
 30
0
  9
$PUCSXDIR
 10
1
 20
0
 30
0
  9
$PUCSYDIR
 10
0
 20
1
 30
0
  9
$PUCSORTHOREF
  2

  9
$PUCSORTHOVIEW
 70
    0
  9
$PUCSORGTOP
 10
0
 20
0
 30
0
  9
$PUCSORGBOTTOM
 10
0
 20
0
 30
0
  9
$PUCSORGLEFT
 10
0
 20
0
 30
0
  9
$PUCSORGRIGHT
 10
0
 20
0
 30
0
  9
$PUCSORGFRONT
 10
0
 20
0
 30
0
  9
$PUCSORGBACK
 10
0
 20
0
 30
0
  9
$USERI1
 70
    0
  9
$USERI2
 70
    0
  9
$USERI3
 70
    0
  9
$USERI4
 70
    0
  9
$USERI5
 70
    0
  9
$USERR1
 40
0
  9
$USERR2
 40
0
  9
$USERR3
 40
0
  9
$USERR4
 40
0
  9
$USERR5
 40
0
  9
$WORLDVIEW
 70
    1
  9
$SHADEDGE
 70
    3
  9
$SHADEDIF
 70
   70
  9
$TILEMODE
 70
    1
  9
$MAXACTVP
 70
   64
  9
$PINSBASE
 10
0
 20
0
 30
0
  9
$PLIMCHECK
 70
    0
  9
$PEXTMIN
 10
0
 20
0
 30
0
  9
$PEXTMAX
 10
0
 20
0
 30
0
  9
$SNAPSTYLE
 70
    0
  9
$PLIMMIN
 10
0
 20
0
  9
$PLIMMAX
 10
210
 20
297
  9
$UNITMODE
 70
    0
  9
$VISRETAIN
 70
    1
  9
$PLINEGEN
 70
    0
  9
$PSLTSCALE
 70
    1
  9
$TREEDEPTH
 70
 3020
  9
$CMLSTYLE
  2
Standard
  9
$CMLJUST
 70
    0
  9
$CMLSCALE
 40
20
  9
$PROXYGRAPHICS
 70
    1
  9
$MEASUREMENT
 70
    1
  9
$CELWEIGHT
370
   -1
  9
$ENDCAPS
280
    0
  9
$JOINSTYLE
280
    0
  9
$LWDISPLAY
290
    0
  9
$INSUNITS
 70
    4
  9
$HYPERLINKBASE
  1

  9
$STYLESHEET
  1

  9
$XEDIT
290
    1
  9
$CEPSNTYPE
380
    0
  9
$PSTYLEMODE
290
    1
  9
$EXTNAMES
290
    1
  9
$PSVPSCALE
 40
1
  9
$OLESTARTUP
290
    0
  9
$SORTENTS
280
  127
  9
$INDEXCTL
280
    0
  9
$HIDETEXT
280
    1
  9
$XCLIPFRAME
290
    0
  9
$HALOGAP
280
    0
  9
$OBSCOLOR
 70
  257
  9
$OBSLTYPE
280
    0
  9
$INTERSECTIONDISPLAY
280
    0
  9
$INTERSECTIONCOLOR
 70
  257
  9
$DIMASSOC
280
    1
  9
$PROJECTNAME
  1

  9
$CAMERADISPLAY
290
    0
  9
$LENSLENGTH
 40
50
  9
$CAMERAHEIGHT
 40
0
  9
$STEPSPERSEC
 40
2
  9
$STEPSIZE
 40
50
  9
$3DDWFPREC
 40
2
  9
$PSOLWIDTH
 40
5
  9
$PSOLHEIGHT
 40
80
  9
$LOFTANG1
 40
1.570796326794897
  9
$LOFTANG2
 40
1.570796326794897
  9
$LOFTMAG1
 40
0
  9
$LOFTMAG2
 40
0
  9
$LOFTPARAM
 70
    7
  9
$LOFTNORMALS
280
    1
  9
$LATITUDE
 40
1
  9
$LONGITUDE
 40
1
  9
$NORTHDIRECTION
 40
0
  9
$TIMEZONE
 70
-8000
  9
$LIGHTGLYPHDISPLAY
280
    1
  9
$TILEMODELIGHTSYNCH
280
    1
  9
$SOLIDHIST
280
    1
  9
$SHOWHIST
280
    1
  9
$DWFFRAME
280
    2
  9
$DGNFRAME
280
    0
  9
$REALWORLDSCALE
290
    1
  9
$INTERFERECOLOR
 62
    1
  9
$CSHADOW
280
    0
  9
$SHADOWPLANELOCATION
 40
0
  0
ENDSEC
  0
SECTION
  2
CLASSES
  0
ENDSEC
  0
SECTION
  2
TABLES
  0
TABLE
  2
VPORT
  5
8
330
0
100
AcDbSymbolTable
 70
    1
  0
VPORT
  5
31
330
2
100
AcDbSymbolTableRecord
100
AcDbViewportTableRecord
  2
*ACTIVE
 70
    0
 10
0
 20
0
 11
1
 21
1
 12
7.679505138716212
 22
4.429377495738938
 13
0
 23
0
 14
10
 24
10
 15
10
 25
10
 16
0
 26
0
 36
1
 17
0
 27
0
 37
0
 40
15.55075822097091
 41
1.955610357583231
 42
50
 43
0
 44
0
 50
0
 51
0
 71
    0
 72
  100
 73
    1
 74
    3
 75
    0
 76
    1
 77
    0
 78
    0
281
    0
 65
    1
110
0
120
0
130
0
111
1
121
0
131
0
112
0
122
1
132
0
 79
    0
146
0
348
10020
 60
    7
 61
    5
292
1
282
    1
141
0
142
0
 63
  250
421
3358443
  0
ENDTAB
  0
TABLE
  2
LTYPE
  5
5
330
0
100
AcDbSymbolTable
 70
    4
  0
LTYPE
  5
14
330
5
100
AcDbSymbolTableRecord
100
AcDbLinetypeTableRecord
  2
ByBlock
 70
    0
  3

 72
   65
 73
    0
 40
0
  0
LTYPE
  5
15
330
5
100
AcDbSymbolTableRecord
100
AcDbLinetypeTableRecord
  2
ByLayer
 70
    0
  3

 72
   65
 73
    0
 40
0
  0
LTYPE
  5
16
330
5
100
AcDbSymbolTableRecord
100
AcDbLinetypeTableRecord
  2
Continuous
 70
    0
  3
Solid line
 72
   65
 73
    0
 40
0
  0
LTYPE
  5
32
330
5
100
AcDbSymbolTableRecord
100
AcDbLinetypeTableRecord
  2
DOT
 70
    0
  3
Dot . . . . . . . . . . . . . . . . . . . . . .
 72
   65
 73
    2
 40
6.35
 49
0
 74
    0
 49
-6.35
 74
    0
  0
LTYPE
  5
33
330
5
100
AcDbSymbolTableRecord
100
AcDbLinetypeTableRecord
  2
DOTTINY
 70
    0
  3
Dot (.15x) .....................................
 72
   65
 73
    2
 40
0.9525
 49
0
 74
    0
 49
-0.9525
 74
    0
  0
LTYPE
  5
34
330
5
100
AcDbSymbolTableRecord
100
AcDbLinetypeTableRecord
  2
DOT2
 70
    0
  3
Dot (.5x) .....................................
 72
   65
 73
    2
 40
3.175
 49
0
 74
    0
 49
-3.175
 74
    0
  0
LTYPE
  5
35
330
5
100
AcDbSymbolTableRecord
100
AcDbLinetypeTableRecord
  2
DOTX2
 70
    0
  3
Dot (2x) .  .  .  .  .  .  .  .  .  .  .  .  .
 72
   65
 73
    2
 40
12.7
 49
0
 74
    0
 49
-12.7
 74
    0
  0
LTYPE
  5
36
330
5
100
AcDbSymbolTableRecord
100
AcDbLinetypeTableRecord
  2
DASHED
 70
    0
  3
Dashed _ _ _ _ _ _ _ _ _ _ _ _ _ _ _ _ _
 72
   65
 73
    2
 40
19.05
 49
12.7
 74
    0
 49
-6.35
 74
    0
  0
LTYPE
  5
37
330
5
100
AcDbSymbolTableRecord
100
AcDbLinetypeTableRecord
  2
DASHEDTINY
 70
    0
  3
Dashed (.15x) _ _ _ _ _ _ _ _ _ _ _ _ _ _ _ _ _
 72
   65
 73
    2
 40
2.8575
 49
1.905
 74
    0
 49
-0.9525
 74
    0
  0
LTYPE
  5
38
330
5
100
AcDbSymbolTableRecord
100
AcDbLinetypeTableRecord
  2
DASHED2
 70
    0
  3
Dashed (.5x) _ _ _ _ _ _ _ _ _ _ _ _ _ _ _ _ _
 72
   65
 73
    2
 40
9.524999999999999
 49
6.35
 74
    0
 49
-3.175
 74
    0
  0
LTYPE
  5
39
330
5
100
AcDbSymbolTableRecord
100
AcDbLinetypeTableRecord
  2
DASHEDX2
 70
    0
  3
Dashed (2x) ____  ____  ____  ____  ____  ___
 72
   65
 73
    2
 40
38.09999999999999
 49
25.4
 74
    0
 49
-12.7
 74
    0
  0
LTYPE
  5
3A
330
5
100
AcDbSymbolTableRecord
100
AcDbLinetypeTableRecord
  2
DASHDOT
 70
    0
  3
Dash dot __ . __ . __ . __ . __ . __ . __ . __
 72
   65
 73
    4
 40
25.4
 49
12.7
 74
    0
 49
-6.35
 74
    0
 49
0
 74
    0
 49
-6.35
 74
    0
  0
LTYPE
  5
3B
330
5
100
AcDbSymbolTableRecord
100
AcDbLinetypeTableRecord
  2
DASHDOTTINY
 70
    0
  3
Dash dot (.15x) _._._._._._._._._._._._._._._.
 72
   65
 73
    4
 40
3.81
 49
1.905
 74
    0
 49
-0.9525
 74
    0
 49
0
 74
    0
 49
-0.9525
 74
    0
  0
LTYPE
  5
3C
330
5
100
AcDbSymbolTableRecord
100
AcDbLinetypeTableRecord
  2
DASHDOT2
 70
    0
  3
Dash dot (.5x) _._._._._._._._._._._._._._._.
 72
   65
 73
    4
 40
12.7
 49
6.35
 74
    0
 49
-3.175
 74
    0
 49
0
 74
    0
 49
-3.175
 74
    0
  0
LTYPE
  5
3D
330
5
100
AcDbSymbolTableRecord
100
AcDbLinetypeTableRecord
  2
DASHDOTX2
 70
    0
  3
Dash dot (2x) ____  .  ____  .  ____  .  ___
 72
   65
 73
    4
 40
50.8
 49
25.4
 74
    0
 49
-12.7
 74
    0
 49
0
 74
    0
 49
-12.7
 74
    0
  0
LTYPE
  5
3E
330
5
100
AcDbSymbolTableRecord
100
AcDbLinetypeTableRecord
  2
DIVIDE
 70
    0
  3
Divide ____ . . ____ . . ____ . . ____ . . ____
 72
   65
 73
    6
 40
31.75
 49
12.7
 74
    0
 49
-6.35
 74
    0
 49
0
 74
    0
 49
-6.35
 74
    0
 49
0
 74
    0
 49
-6.35
 74
    0
  0
LTYPE
  5
3F
330
5
100
AcDbSymbolTableRecord
100
AcDbLinetypeTableRecord
  2
DIVIDETINY
 70
    0
  3
Divide (.15x) __..__..__..__..__..__..__..__.._
 72
   65
 73
    6
 40
4.7625
 49
1.905
 74
    0
 49
-0.9525
 74
    0
 49
0
 74
    0
 49
-0.9525
 74
    0
 49
0
 74
    0
 49
-0.9525
 74
    0
  0
LTYPE
  5
40
330
5
100
AcDbSymbolTableRecord
100
AcDbLinetypeTableRecord
  2
DIVIDE2
 70
    0
  3
Divide (.5x) __..__..__..__..__..__..__..__.._
 72
   65
 73
    6
 40
15.875
 49
6.35
 74
    0
 49
-3.175
 74
    0
 49
0
 74
    0
 49
-3.175
 74
    0
 49
0
 74
    0
 49
-3.175
 74
    0
  0
LTYPE
  5
41
330
5
100
AcDbSymbolTableRecord
100
AcDbLinetypeTableRecord
  2
DIVIDEX2
 70
    0
  3
Divide (2x) ________  .  .  ________  .  .  _
 72
   65
 73
    6
 40
63.5
 49
25.4
 74
    0
 49
-12.7
 74
    0
 49
0
 74
    0
 49
-12.7
 74
    0
 49
0
 74
    0
 49
-12.7
 74
    0
  0
LTYPE
  5
42
330
5
100
AcDbSymbolTableRecord
100
AcDbLinetypeTableRecord
  2
BORDER
 70
    0
  3
Border __ __ . __ __ . __ __ . __ __ . __ __ .
 72
   65
 73
    6
 40
44.45
 49
12.7
 74
    0
 49
-6.35
 74
    0
 49
12.7
 74
    0
 49
-6.35
 74
    0
 49
0
 74
    0
 49
-6.35
 74
    0
  0
LTYPE
  5
43
330
5
100
AcDbSymbolTableRecord
100
AcDbLinetypeTableRecord
  2
BORDERTINY
 70
    0
  3
Border (.15x) __.__.__.__.__.__.__.__.__.__.__.
 72
   65
 73
    6
 40
6.6675
 49
1.905
 74
    0
 49
-0.9525
 74
    0
 49
1.905
 74
    0
 49
-0.9525
 74
    0
 49
0
 74
    0
 49
-0.9525
 74
    0
  0
LTYPE
  5
44
330
5
100
AcDbSymbolTableRecord
100
AcDbLinetypeTableRecord
  2
BORDER2
 70
    0
  3
Border (.5x) __.__.__.__.__.__.__.__.__.__.__.
 72
   65
 73
    6
 40
22.225
 49
6.35
 74
    0
 49
-3.175
 74
    0
 49
6.35
 74
    0
 49
-3.175
 74
    0
 49
0
 74
    0
 49
-3.175
 74
    0
  0
LTYPE
  5
45
330
5
100
AcDbSymbolTableRecord
100
AcDbLinetypeTableRecord
  2
BORDERX2
 70
    0
  3
Border (2x) ____  ____  .  ____  ____  .  ___
 72
   65
 73
    6
 40
88.89999999999999
 49
25.4
 74
    0
 49
-12.7
 74
    0
 49
25.4
 74
    0
 49
-12.7
 74
    0
 49
0
 74
    0
 49
-12.7
 74
    0
  0
LTYPE
  5
46
330
5
100
AcDbSymbolTableRecord
100
AcDbLinetypeTableRecord
  2
CENTER
 70
    0
  3
Center ____ _ ____ _ ____ _ ____ _ ____ _ ____
 72
   65
 73
    4
 40
50.8
 49
31.75
 74
    0
 49
-6.35
 74
    0
 49
6.35
 74
    0
 49
-6.35
 74
    0
  0
LTYPE
  5
47
330
5
100
AcDbSymbolTableRecord
100
AcDbLinetypeTableRecord
  2
CENTERTINY
 70
    0
  3
Center (.15x) ___ _ ___ _ ___ _ ___ _ ___ _ ___
 72
   65
 73
    4
 40
7.62
 49
4.7625
 74
    0
 49
-0.9525
 74
    0
 49
0.9525
 74
    0
 49
-0.9525
 74
    0
  0
LTYPE
  5
48
330
5
100
AcDbSymbolTableRecord
100
AcDbLinetypeTableRecord
  2
CENTER2
 70
    0
  3
Center (.5x) ___ _ ___ _ ___ _ ___ _ ___ _ ___
 72
   65
 73
    4
 40
28.575
 49
19.05
 74
    0
 49
-3.175
 74
    0
 49
3.175
 74
    0
 49
-3.175
 74
    0
  0
LTYPE
  5
49
330
5
100
AcDbSymbolTableRecord
100
AcDbLinetypeTableRecord
  2
CENTERX2
 70
    0
  3
Center (2x) ________  __  ________  __  _____
 72
   65
 73
    4
 40
101.6
 49
63.5
 74
    0
 49
-12.7
 74
    0
 49
12.7
 74
    0
 49
-12.7
 74
    0
  0
ENDTAB
  0
TABLE
  2
LAYER
  5
2
330
0
100
AcDbSymbolTable
 70
    1
  0
LAYER
  5
10
330
2
100
AcDbSymbolTableRecord
100
AcDbLayerTableRecord
  2
0
 70
    0
 62
    7
  6
CONTINUOUS
370
    0
390
F
  0
LAYER
  5
4A
330
2
100
AcDbSymbolTableRecord
100
AcDbLayerTableRecord
  2
1
 70
    0
 62
    1
  6
CONTINUOUS
370
   -3
390
F
  0
LAYER
  5
4B
330
2
100
AcDbSymbolTableRecord
100
AcDbLayerTableRecord
  2
100
 70
    0
 62
    1
  6
CONTINUOUS
370
   -3
390
F
  0
LAYER
  5
4C
330
2
100
AcDbSymbolTableRecord
100
AcDbLayerTableRecord
  2
16
 70
    0
 62
    5
  6
CONTINUOUS
370
   -3
390
F
  0
LAYER
  5
4D
330
2
100
AcDbSymbolTableRecord
100
AcDbLayerTableRecord
  2
17
 70
    0
 62
    3
  6
CONTINUOUS
370
   -3
390
F
  0
LAYER
  5
4E
330
2
100
AcDbSymbolTableRecord
100
AcDbLayerTableRecord
  2
18
 70
    0
 62
    3
  6
CONTINUOUS
370
   -3
390
F
  0
LAYER
  5
4F
330
2
100
AcDbSymbolTableRecord
100
AcDbLayerTableRecord
  2
19
 70
    0
 62
   53
  6
CONTINUOUS
370
   -3
390
F
  0
LAYER
  5
50
330
2
100
AcDbSymbolTableRecord
100
AcDbLayerTableRecord
  2
20
 70
    0
 62
    7
  6
CONTINUOUS
370
   -3
390
F
  0
LAYER
  5
51
330
2
100
AcDbSymbolTableRecord
100
AcDbLayerTableRecord
  2
22
 70
    0
 62
  253
  6
CONTINUOUS
370
   -3
390
F
  0
LAYER
  5
52
330
2
100
AcDbSymbolTableRecord
100
AcDbLayerTableRecord
  2
23
 70
    0
 62
    7
  6
CONTINUOUS
370
   -3
390
F
  0
LAYER
  5
53
330
2
100
AcDbSymbolTableRecord
100
AcDbLayerTableRecord
  2
24
 70
    0
 62
    7
  6
CONTINUOUS
370
   -3
390
F
  0
LAYER
  5
54
330
2
100
AcDbSymbolTableRecord
100
AcDbLayerTableRecord
  2
25
 70
    0
 62
  253
  6
CONTINUOUS
370
   -3
390
F
  0
LAYER
  5
55
330
2
100
AcDbSymbolTableRecord
100
AcDbLayerTableRecord
  2
26
 70
    0
 62
  253
  6
CONTINUOUS
370
   -3
390
F
  0
LAYER
  5
56
330
2
100
AcDbSymbolTableRecord
100
AcDbLayerTableRecord
  2
27
 70
    0
 62
  253
  6
CONTINUOUS
370
   -3
390
F
  0
LAYER
  5
57
330
2
100
AcDbSymbolTableRecord
100
AcDbLayerTableRecord
  2
28
 70
    0
 62
  253
  6
CONTINUOUS
370
   -3
390
F
  0
LAYER
  5
58
330
2
100
AcDbSymbolTableRecord
100
AcDbLayerTableRecord
  2
39
 70
    0
 62
    5
  6
CONTINUOUS
370
   -3
390
F
  0
LAYER
  5
59
330
2
100
AcDbSymbolTableRecord
100
AcDbLayerTableRecord
  2
40
 70
    0
 62
    1
  6
CONTINUOUS
370
   -3
390
F
  0
LAYER
  5
5A
330
2
100
AcDbSymbolTableRecord
100
AcDbLayerTableRecord
  2
41
 70
    0
 62
    5
  6
CONTINUOUS
370
   -3
390
F
  0
LAYER
  5
5B
330
2
100
AcDbSymbolTableRecord
100
AcDbLayerTableRecord
  2
42
 70
    0
 62
    1
  6
CONTINUOUS
370
   -3
390
F
  0
LAYER
  5
5C
330
2
100
AcDbSymbolTableRecord
100
AcDbLayerTableRecord
  2
43
 70
    0
 62
    3
  6
CONTINUOUS
370
   -3
390
F
  0
LAYER
  5
5D
330
2
100
AcDbSymbolTableRecord
100
AcDbLayerTableRecord
  2
45
 70
    0
 62
  253
  6
CONTINUOUS
370
   -3
390
F
  0
LAYER
  5
5E
330
2
100
AcDbSymbolTableRecord
100
AcDbLayerTableRecord
  2
47
 70
    0
 62
  253
  6
CONTINUOUS
370
   -3
390
F
  0
LAYER
  5
5F
330
2
100
AcDbSymbolTableRecord
100
AcDbLayerTableRecord
  2
48
 70
    0
 62
  253
  6
CONTINUOUS
370
   -3
390
F
  0
LAYER
  5
60
330
2
100
AcDbSymbolTableRecord
100
AcDbLayerTableRecord
  2
49
 70
    0
 62
  253
  6
CONTINUOUS
370
   -3
390
F
  0
LAYER
  5
61
330
2
100
AcDbSymbolTableRecord
100
AcDbLayerTableRecord
  2
51
 70
    0
 62
  253
  6
CONTINUOUS
370
   -3
390
F
  0
LAYER
  5
62
330
2
100
AcDbSymbolTableRecord
100
AcDbLayerTableRecord
  2
52
 70
    0
 62
  253
  6
CONTINUOUS
370
   -3
390
F
  0
ENDTAB
  0
TABLE
  2
STYLE
  5
3
330
0
100
AcDbSymbolTable
 70
    3
  0
STYLE
  5
63
330
2
100
AcDbSymbolTableRecord
100
AcDbTextStyleTableRecord
  2
Standard
 70
    0
 40
0
 41
1
 50
0
 71
    0
 42
1
  3
txt
  4

  0
ENDTAB
  0
TABLE
  2
VIEW
  5
6
330
0
100
AcDbSymbolTable
 70
    0
  0
ENDTAB
  0
TABLE
  2
UCS
  5
7
330
0
100
AcDbSymbolTable
 70
    0
  0
ENDTAB
  0
TABLE
  2
APPID
  5
9
330
0
100
AcDbSymbolTable
 70
    1
  0
APPID
  5
12
330
9
100
AcDbSymbolTableRecord
100
AcDbRegAppTableRecord
  2
ACAD
 70
    0
  0
APPID
  5
64
330
9
100
AcDbSymbolTableRecord
100
AcDbRegAppTableRecord
  2
LibreCad
 70
    0
  0
ENDTAB
  0
TABLE
  2
DIMSTYLE
  5
A
330
0
100
AcDbSymbolTable
 70
    1
100
AcDbDimStyleTable
 71
    1
  0
DIMSTYLE
105
65
330
A
100
AcDbSymbolTableRecord
100
AcDbDimStyleTableRecord
  2
Standard
 70
    0
 40
1
 41
2.5
 42
0.625
 43
0.38
 44
1.25
 45
0
 46
0
 47
0
 48
0
 49
1
140
2.5
141
0.09
142
0
143
25.4
144
1
145
0
146
1
147
0.625
148
0
 71
    0
 72
    0
 73
    0
 74
    1
 75
    0
 76
    0
 77
    0
 78
    1
 79
    0
170
    0
171
    2
172
    0
173
    0
174
    0
175
    0
176
    0
177
    0
178
    0
179
    0
271
    2
272
    4
273
    2
274
    2
275
    0
276
    0
277
    2
278
    0
279
    0
280
    0
281
    0
282
    0
283
    1
284
    0
285
    0
286
    0
288
    0
289
    3
340
standard
341

371
   -2
372
   -2
  0
ENDTAB
  0
TABLE
  2
BLOCK_RECORD
  5
1
330
0
100
AcDbSymbolTable
 70
    2
  0
BLOCK_RECORD
  5
1F
330
1
100
AcDbSymbolTableRecord
100
AcDbBlockTableRecord
  2
*Model_Space
 70
    0
280
    1
281
    0
  0
BLOCK_RECORD
  5
1E
330
1
100
AcDbSymbolTableRecord
100
AcDbBlockTableRecord
  2
*Paper_Space
 70
    0
280
    1
281
    0
  0
BLOCK_RECORD
  5
66
330
1
100
AcDbSymbolTableRecord
100
AcDbBlockTableRecord
  2
*D3
 70
    0
280
    1
281
    0
  0
BLOCK_RECORD
  5
69
330
1
100
AcDbSymbolTableRecord
100
AcDbBlockTableRecord
  2
*D4
 70
    0
280
    1
281
    0
  0
BLOCK_RECORD
  5
6C
330
1
100
AcDbSymbolTableRecord
100
AcDbBlockTableRecord
  2
*D2
 70
    0
280
    1
281
    0
  0
BLOCK_RECORD
  5
6F
330
1
100
AcDbSymbolTableRecord
100
AcDbBlockTableRecord
  2
*D1
 70
    0
280
    1
281
    0
  0
BLOCK_RECORD
  5
72
330
1
100
AcDbSymbolTableRecord
100
AcDbBlockTableRecord
  2
RECT
 70
    0
280
    1
281
    0
  0
BLOCK_RECORD
  5
75
330
1
100
AcDbSymbolTableRecord
100
AcDbBlockTableRecord
  2
PIE
 70
    0
280
    1
281
    0
  0
BLOCK_RECORD
  5
78
330
1
100
AcDbSymbolTableRecord
100
AcDbBlockTableRecord
  2
OCTAGONP
 70
    0
280
    1
281
    0
  0
BLOCK_RECORD
  5
7B
330
1
100
AcDbSymbolTableRecord
100
AcDbBlockTableRecord
  2
SQUAREP
 70
    0
280
    1
281
    0
  0
BLOCK_RECORD
  5
7E
330
1
100
AcDbSymbolTableRecord
100
AcDbBlockTableRecord
  2
ROUNDP
 70
    0
280
    1
281
    0
  0
BLOCK_RECORD
  5
81
330
1
100
AcDbSymbolTableRecord
100
AcDbBlockTableRecord
  2
ANNULUSP
 70
    0
280
    1
281
    0
  0
BLOCK_RECORD
  5
84
330
1
100
AcDbSymbolTableRecord
100
AcDbBlockTableRecord
  2
THERMALP
 70
    0
280
    1
281
    0
  0
BLOCK_RECORD
  5
87
330
1
100
AcDbSymbolTableRecord
100
AcDbBlockTableRecord
  2
OCTAGONV
 70
    0
280
    1
281
    0
  0
BLOCK_RECORD
  5
8A
330
1
100
AcDbSymbolTableRecord
100
AcDbBlockTableRecord
  2
SQUAREV
 70
    0
280
    1
281
    0
  0
BLOCK_RECORD
  5
8D
330
1
100
AcDbSymbolTableRecord
100
AcDbBlockTableRecord
  2
ROUNDV
 70
    0
280
    1
281
    0
  0
BLOCK_RECORD
  5
90
330
1
100
AcDbSymbolTableRecord
100
AcDbBlockTableRecord
  2
ANNULUSV
 70
    0
280
    1
281
    0
  0
BLOCK_RECORD
  5
93
330
1
100
AcDbSymbolTableRecord
100
AcDbBlockTableRecord
  2
THERMALV
 70
    0
280
    1
281
    0
  0
ENDTAB
  0
ENDSEC
  0
SECTION
  2
BLOCKS
  0
BLOCK
  5
20
330
1F
100
AcDbEntity
  8
0
100
AcDbBlockBegin
  2
*Model_Space
 70
    0
 10
0
 20
0
 30
0
  3
*Model_Space
  1

  0
ENDBLK
  5
21
330
1F
100
AcDbEntity
  8
0
100
AcDbBlockEnd
  0
BLOCK
  5
1C
330
1B
100
AcDbEntity
  8
0
100
AcDbBlockBegin
  2
*Paper_Space
 70
    0
 10
0
 20
0
 30
0
  3
*Paper_Space
  1

  0
ENDBLK
  5
1D
330
1F
100
AcDbEntity
  8
0
100
AcDbBlockEnd
  0
BLOCK
  5
67
330
66
100
AcDbEntity
  8
0
100
AcDbBlockBegin
  2
*D3
 70
    1
 10
0
 20
0
  3
*D3
  1

  0
LINE
  5
96
100
AcDbEntity
  8
0
  6
ByBlock
 62
    0
370
   -2
100
AcDbLine
 10
2.825
 20
5.4
 11
16.25
 21
5.399999999999997
  0
LINE
  5
97
100
AcDbEntity
  8
0
  6
ByBlock
 62
    0
370
   -2
100
AcDbLine
 10
2.825
 20
-3.751203991528285e-16
 11
16.25
 21
-3.663188459165911e-15
  0
LINE
  5
98
100
AcDbEntity
  8
0
  6
ByBlock
 62
    0
370
   -2
100
AcDbLine
 10
15
 20
10.4
 11
15
 21
-5.000000000000004
  0
MTEXT
  5
99
100
AcDbEntity
  8
0
  6
CONTINUOUS
 62
    0
370
   -2
100
AcDbMText
 10
13.125
 20
11.02500000000007
 30
0
 40
2.5
 41
10.00000000000015
 71
    5
 72
    1
  1
5.4000
  7
standard
210
0
220
0
230
1
 50
90
 73
    2
 44
1
  0
SOLID
  5
9A
100
AcDbEntity
  8
0
  6
ByBlock
 62
    0
370
   -2
100
AcDbTrace
 10
15
 20
5.399999999999997
 30
0
 11
14.58371534222716
 21
7.899999999999997
 31
0
 12
15.41628465777284
 22
7.899999999999997
 32
0
 13
15.41628465777284
 23
7.899999999999997
 33
0
  0
SOLID
  5
9B
100
AcDbEntity
  8
0
  6
ByBlock
 62
    0
370
   -2
100
AcDbTrace
 10
15
 20
-3.357036870710317e-15
 30
0
 11
15.41628465777284
 21
-2.500000000000004
 31
0
 12
14.58371534222716
 22
-2.500000000000004
 32
0
 13
14.58371534222716
 23
-2.500000000000004
 33
0
  0
ENDBLK
  5
68
330
66
100
AcDbEntity
  8
0
100
AcDbBlockEnd
  0
BLOCK
  5
6A
330
69
100
AcDbEntity
  8
0
100
AcDbBlockBegin
  2
*D4
 70
    1
 10
0
 20
0
  3
*D4
  1

  0
LINE
  5
9C
100
AcDbEntity
  8
0
  6
ByBlock
 62
    0
370
   -2
100
AcDbLine
 10
0.1999999999999988
 20
1.525
 11
0.1999999999999974
 21
2.24
  0
LINE
  5
9D
100
AcDbEntity
  8
0
  6
ByBlock
 62
    0
370
   -2
100
AcDbLine
 10
0.2639999999999988
 20
1.525
 11
0.2639999999999974
 21
2.24
  0
LINE
  5
9E
100
AcDbEntity
  8
0
  6
ByBlock
 62
    0
370
   -2
100
AcDbLine
 10
-4.8
 20
0.9899999999999918
 11
5.264
 21
0.9900000000000083
  0
MTEXT
  5
9F
100
AcDbEntity
  8
0
  6
CONTINUOUS
 62
    0
370
   -2
100
AcDbMText
 10
5.889000000000074
 20
2.86500000000001
 30
0
 40
2.5
 41
10.00000000000015
 71
    5
 72
    1
  1
0.0640
  7
standard
210
0
220
0
230
1
 50
9.93923337957349e-14
 73
    2
 44
1
  0
SOLID
  5
A0
100
AcDbEntity
  8
0
  6
ByBlock
 62
    0
370
   -2
100
AcDbTrace
 10
0.1999999999999998
 20
0.99
 30
0
 11
-2.299999999999999
 21
0.5737153422271551
 31
0
 12
-2.300000000000001
 22
1.406284657772836
 32
0
 13
-2.300000000000001
 23
1.406284657772836
 33
0
  0
SOLID
  5
A1
100
AcDbEntity
  8
0
  6
ByBlock
 62
    0
370
   -2
100
AcDbTrace
 10
0.2639999999999998
 20
0.9900000000000001
 30
0
 11
2.763999999999999
 21
1.406284657772845
 31
0
 12
2.764
 22
0.5737153422271637
 32
0
 13
2.764
 23
0.5737153422271637
 33
0
  0
ENDBLK
  5
6B
330
69
100
AcDbEntity
  8
0
100
AcDbBlockEnd
  0
BLOCK
  5
6D
330
6C
100
AcDbEntity
  8
0
100
AcDbBlockBegin
  2
*D2
 70
    1
 10
0
 20
0
  3
*D2
  1

  0
LINE
  5
A2
100
AcDbEntity
  8
0
  6
ByBlock
 62
    0
370
   -2
100
AcDbLine
 10
-0.425
 20
0.9000000000000001
 11
-1.95
 21
0.9000000000000002
  0
LINE
  5
A3
100
AcDbEntity
  8
0
  6
ByBlock
 62
    0
370
   -2
100
AcDbLine
 10
-0.425
 20
0.5000000000000001
 11
-1.95
 21
0.5000000000000002
  0
LINE
  5
A4
100
AcDbEntity
  8
0
  6
ByBlock
 62
    0
370
   -2
100
AcDbLine
 10
-0.6999999999999985
 20
5.9
 11
-0.7000000000000015
 21
-4.5
  0
MTEXT
  5
A5
100
AcDbEntity
  8
0
  6
CONTINUOUS
 62
    0
370
   -2
100
AcDbMText
 10
-2.575
 20
6.525
 30
0
 40
2.5
 41
10
 71
    5
 72
    1
  1
0.4000
  7
standard
210
0
220
0
230
1
 50
90
 73
    2
 44
1
  0
SOLID
  5
A6
100
AcDbEntity
  8
0
  6
ByBlock
 62
    0
370
   -2
100
AcDbTrace
 10
-0.7
 20
0.9000000000000001
 30
0
 11
-1.11628465777284
 21
3.4
 31
0
 12
-0.2837153422271591
 22
3.4
 32
0
 13
-0.2837153422271591
 23
3.4
 33
0
  0
SOLID
  5
A7
100
AcDbEntity
  8
0
  6
ByBlock
 62
    0
370
   -2
100
AcDbTrace
 10
-0.7000000000000001
 20
0.5000000000000001
 30
0
 11
-0.2837153422271603
 21
-2
 31
0
 12
-1.116284657772841
 22
-2
 32
0
 13
-1.116284657772841
 23
-2
 33
0
  0
ENDBLK
  5
6E
330
6C
100
AcDbEntity
  8
0
100
AcDbBlockEnd
  0
BLOCK
  5
70
330
6F
100
AcDbEntity
  8
0
100
AcDbBlockBegin
  2
*D1
 70
    1
 10
0
 20
0
  3
*D1
  1

  0
LINE
  5
A8
100
AcDbEntity
  8
0
  6
ByBlock
 62
    0
370
   -2
100
AcDbLine
 10
-1.096026752429174e-16
 20
0.2750000000000001
 11
-1.124495190973213e-15
 21
-5.25
  0
LINE
  5
A9
100
AcDbEntity
  8
0
  6
ByBlock
 62
    0
370
   -2
100
AcDbLine
 10
0.1999999999999999
 20
0.2750000000000001
 11
0.1999999999999989
 21
-5.25
  0
LINE
  5
AA
100
AcDbEntity
  8
0
  6
ByBlock
 62
    0
370
   -2
100
AcDbLine
 10
-5.000000000000001
 20
-4
 11
5.199999999999999
 21
-4.000000000000001
  0
MTEXT
  5
AB
100
AcDbEntity
  8
0
  6
CONTINUOUS
 62
    0
370
   -2
100
AcDbMText
 10
5.68611111111111
 20
-2.125
 30
0
 40
2.5
 41
9.722222222222221
 71
    5
 72
    1
  1
0.2000
  7
standard
210
0
220
0
230
1
 50
0
 73
    2
 44
1
  0
SOLID
  5
AC
100
AcDbEntity
  8
0
  6
ByBlock
 62
    0
370
   -2
100
AcDbTrace
 10
-8.948814996315169e-16
 20
-4
 30
0
 11
-2.500000000000001
 21
-4.416284657772841
 31
0
 12
-2.500000000000001
 22
-3.58371534222716
 32
0
 13
-2.500000000000001
 23
-3.58371534222716
 33
0
  0
SOLID
  5
AD
100
AcDbEntity
  8
0
  6
ByBlock
 62
    0
370
   -2
100
AcDbTrace
 10
0.1999999999999991
 20
-4
 30
0
 11
2.699999999999999
 21
-3.58371534222716
 31
0
 12
2.699999999999999
 22
-4.416284657772841
 32
0
 13
2.699999999999999
 23
-4.416284657772841
 33
0
  0
ENDBLK
  5
71
330
6F
100
AcDbEntity
  8
0
100
AcDbBlockEnd
  0
BLOCK
  5
73
330
72
100
AcDbEntity
  8
0
100
AcDbBlockBegin
  2
RECT
 70
    0
 10
0
 20
0
  3
RECT
  1

  0
SOLID
  5
AE
100
AcDbEntity
  8
0
  6
ByLayer
 62
  256
370
   -1
100
AcDbTrace
 10
-0.5
 20
-0.5
 30
0
 11
0.5
 21
-0.5
 31
0
 12
-0.5
 22
0.5
 32
0
 13
0.5
 23
0.5
 33
0
  0
ENDBLK
  5
74
330
72
100
AcDbEntity
  8
0
100
AcDbBlockEnd
  0
BLOCK
  5
76
330
75
100
AcDbEntity
  8
0
100
AcDbBlockBegin
  2
PIE
 70
    0
 10
0
 20
0
  3
PIE
  1

  0
CIRCLE
  5
AF
100
AcDbEntity
  8
0
  6
ByLayer
 62
  256
370
   -1
100
AcDbCircle
 10
0
 20
0
 40
0.5
  0
ENDBLK
  5
77
330
75
100
AcDbEntity
  8
0
100
AcDbBlockEnd
  0
BLOCK
  5
79
330
78
100
AcDbEntity
  8
0
100
AcDbBlockBegin
  2
OCTAGONP
 70
    0
 10
0
 20
0
  3
OCTAGONP
  1

  0
LWPOLYLINE
  5
B0
100
AcDbEntity
  8
0
  6
ByLayer
 62
  256
370
   -1
100
AcDbPolyline
 90
    8
 70
    1
 43
0
 10
-0.5
 20
-0.207107
 10
-0.5
 20
0.207107
 10
-0.207107
 20
0.5
 10
0.207107
 20
0.5
 10
0.5
 20
0.207107
 10
0.5
 20
-0.207107
 10
0.207107
 20
-0.5
 10
-0.207107
 20
-0.5
  0
ENDBLK
  5
7A
330
78
100
AcDbEntity
  8
0
100
AcDbBlockEnd
  0
BLOCK
  5
7C
330
7B
100
AcDbEntity
  8
0
100
AcDbBlockBegin
  2
SQUAREP
 70
    0
 10
0
 20
0
  3
SQUAREP
  1

  0
SOLID
  5
B1
100
AcDbEntity
  8
0
  6
ByLayer
 62
  256
370
   -1
100
AcDbTrace
 10
-0.5
 20
-0.5
 30
0
 11
0.5
 21
-0.5
 31
0
 12
-0.5
 22
0.5
 32
0
 13
0.5
 23
0.5
 33
0
  0
ENDBLK
  5
7D
330
7B
100
AcDbEntity
  8
0
100
AcDbBlockEnd
  0
BLOCK
  5
7F
330
7E
100
AcDbEntity
  8
0
100
AcDbBlockBegin
  2
ROUNDP
 70
    0
 10
0
 20
0
  3
ROUNDP
  1

  0
CIRCLE
  5
B2
100
AcDbEntity
  8
0
  6
ByLayer
 62
  256
370
   -1
100
AcDbCircle
 10
0
 20
0
 40
0.5
  0
ENDBLK
  5
80
330
7E
100
AcDbEntity
  8
0
100
AcDbBlockEnd
  0
BLOCK
  5
82
330
81
100
AcDbEntity
  8
0
100
AcDbBlockBegin
  2
ANNULUSP
 70
    0
 10
0
 20
0
  3
ANNULUSP
  1

  0
CIRCLE
  5
B3
100
AcDbEntity
  8
0
  6
ByLayer
 62
  256
370
   -1
100
AcDbCircle
 10
0
 20
0
 40
0.5
  0
ENDBLK
  5
83
330
81
100
AcDbEntity
  8
0
100
AcDbBlockEnd
  0
BLOCK
  5
85
330
84
100
AcDbEntity
  8
0
100
AcDbBlockBegin
  2
THERMALP
 70
    0
 10
0
 20
0
  3
THERMALP
  1

  0
LINE
  5
B4
100
AcDbEntity
  8
0
  6
ByLayer
 62
  256
370
   -1
100
AcDbLine
 10
-0.237868
 20
0.45
 11
0.237868
 21
0.45
  0
LINE
  5
B5
100
AcDbEntity
  8
0
  6
ByLayer
 62
  256
370
   -1
100
AcDbLine
 10
0.45
 20
0.237868
 11
0.45
 21
-0.237868
  0
LINE
  5
B6
100
AcDbEntity
  8
0
  6
ByLayer
 62
  256
370
   -1
100
AcDbLine
 10
0.237868
 20
-0.45
 11
-0.237868
 21
-0.45
  0
LINE
  5
B7
100
AcDbEntity
  8
0
  6
ByLayer
 62
  256
370
   -1
100
AcDbLine
 10
-0.45
 20
-0.237868
 11
-0.45
 21
0.237868
  0
ENDBLK
  5
86
330
84
100
AcDbEntity
  8
0
100
AcDbBlockEnd
  0
BLOCK
  5
88
330
87
100
AcDbEntity
  8
0
100
AcDbBlockBegin
  2
OCTAGONV
 70
    0
 10
0
 20
0
  3
OCTAGONV
  1

  0
LWPOLYLINE
  5
B8
100
AcDbEntity
  8
0
  6
ByLayer
 62
  256
370
   -1
100
AcDbPolyline
 90
    8
 70
    1
 43
0
 10
-0.5
 20
-0.207107
 10
-0.5
 20
0.207107
 10
-0.207107
 20
0.5
 10
0.207107
 20
0.5
 10
0.5
 20
0.207107
 10
0.5
 20
-0.207107
 10
0.207107
 20
-0.5
 10
-0.207107
 20
-0.5
  0
ENDBLK
  5
89
330
87
100
AcDbEntity
  8
0
100
AcDbBlockEnd
  0
BLOCK
  5
8B
330
8A
100
AcDbEntity
  8
0
100
AcDbBlockBegin
  2
SQUAREV
 70
    0
 10
0
 20
0
  3
SQUAREV
  1

  0
SOLID
  5
B9
100
AcDbEntity
  8
0
  6
ByLayer
 62
  256
370
   -1
100
AcDbTrace
 10
-0.5
 20
-0.5
 30
0
 11
0.5
 21
-0.5
 31
0
 12
-0.5
 22
0.5
 32
0
 13
0.5
 23
0.5
 33
0
  0
ENDBLK
  5
8C
330
8A
100
AcDbEntity
  8
0
100
AcDbBlockEnd
  0
BLOCK
  5
8E
330
8D
100
AcDbEntity
  8
0
100
AcDbBlockBegin
  2
ROUNDV
 70
    0
 10
0
 20
0
  3
ROUNDV
  1

  0
CIRCLE
  5
BA
100
AcDbEntity
  8
0
  6
ByLayer
 62
  256
370
   -1
100
AcDbCircle
 10
0
 20
0
 40
0.5
  0
ENDBLK
  5
8F
330
8D
100
AcDbEntity
  8
0
100
AcDbBlockEnd
  0
BLOCK
  5
91
330
90
100
AcDbEntity
  8
0
100
AcDbBlockBegin
  2
ANNULUSV
 70
    0
 10
0
 20
0
  3
ANNULUSV
  1

  0
CIRCLE
  5
BB
100
AcDbEntity
  8
0
  6
ByLayer
 62
  256
370
   -1
100
AcDbCircle
 10
0
 20
0
 40
0.5
  0
ENDBLK
  5
92
330
90
100
AcDbEntity
  8
0
100
AcDbBlockEnd
  0
BLOCK
  5
94
330
93
100
AcDbEntity
  8
0
100
AcDbBlockBegin
  2
THERMALV
 70
    0
 10
0
 20
0
  3
THERMALV
  1

  0
LINE
  5
BC
100
AcDbEntity
  8
0
  6
ByLayer
 62
  256
370
   -1
100
AcDbLine
 10
-0.237868
 20
0.45
 11
0.237868
 21
0.45
  0
LINE
  5
BD
100
AcDbEntity
  8
0
  6
ByLayer
 62
  256
370
   -1
100
AcDbLine
 10
0.45
 20
0.237868
 11
0.45
 21
-0.237868
  0
LINE
  5
BE
100
AcDbEntity
  8
0
  6
ByLayer
 62
  256
370
   -1
100
AcDbLine
 10
0.237868
 20
-0.45
 11
-0.237868
 21
-0.45
  0
LINE
  5
BF
100
AcDbEntity
  8
0
  6
ByLayer
 62
  256
370
   -1
100
AcDbLine
 10
-0.45
 20
-0.237868
 11
-0.45
 21
0.237868
  0
ENDBLK
  5
95
330
93
100
AcDbEntity
  8
0
100
AcDbBlockEnd
  0
ENDSEC
  0
SECTION
  2
ENTITIES
  0
LINE
  5
C0
100
AcDbEntity
  8
20
  6
ByLayer
 62
  256
370
   -1
100
AcDbLine
 10
0
 20
0.5620000000000001
 11
0
 21
5.338
  0
ARC
  5
C1
100
AcDbEntity
  8
20
  6
ByLayer
 62
  256
370
   -1
100
AcDbCircle
 10
0.062
 20
5.338
 40
0.062
100
AcDbArc
 50
90
 51
180
  0
LINE
  5
C2
100
AcDbEntity
  8
20
  6
ByLayer
 62
  256
370
   -1
100
AcDbLine
 10
0.062
 20
5.4
 11
0.348
 21
5.4
  0
ARC
  5
C3
100
AcDbEntity
  8
20
  6
ByLayer
 62
  256
370
   -1
100
AcDbCircle
 10
0.062
 20
0.5620000000000001
 40
0.062
100
AcDbArc
 50
180
 51
270
  0
LINE
  5
C4
100
AcDbEntity
  8
20
  6
ByLayer
 62
  256
370
   -1
100
AcDbLine
 10
3.952
 20
5.4
 11
4.238
 21
5.4
  0
ARC
  5
C5
100
AcDbEntity
  8
20
  6
ByLayer
 62
  256
370
   -1
100
AcDbCircle
 10
4.238
 20
5.338
 40
0.062
100
AcDbArc
 50
0
 51
90
  0
LINE
  5
C6
100
AcDbEntity
  8
20
  6
ByLayer
 62
  256
370
   -1
100
AcDbLine
 10
4.3
 20
5.338
 11
4.3
 21
0.5620000000000001
  0
ARC
  5
C7
100
AcDbEntity
  8
20
  6
ByLayer
 62
  256
370
   -1
100
AcDbCircle
 10
4.238
 20
0.5620000000000001
 40
0.062
100
AcDbArc
 50
270
 51
0
  0
LINE
  5
C8
100
AcDbEntity
  8
20
  6
ByLayer
 62
  256
370
   -1
100
AcDbLine
 10
4.238
 20
0.5
 11
3.902
 21
0.5
  0
ARC
  5
C9
100
AcDbEntity
  8
20
  6
ByLayer
 62
  256
370
   -1
100
AcDbCircle
 10
3.902
 20
0.438
 40
0.062
100
AcDbArc
 50
90
 51
180
  0
LINE
  5
CA
100
AcDbEntity
  8
20
  6
ByLayer
 62
  256
370
   -1
100
AcDbLine
 10
3.84
 20
0.438
 11
3.84
 21
0.062
  0
ARC
  5
CB
100
AcDbEntity
  8
20
  6
ByLayer
 62
  256
370
   -1
100
AcDbCircle
 10
3.778
 20
0.062
 40
0.062
100
AcDbArc
 50
270
 51
0
  0
LINE
  5
CC
100
AcDbEntity
  8
20
  6
ByLayer
 62
  256
370
   -1
100
AcDbLine
 10
3.778
 20
0
 11
0.522
 21
0
  0
ARC
  5
CD
100
AcDbEntity
  8
20
  6
ByLayer
 62
  256
370
   -1
100
AcDbCircle
 10
0.522
 20
0.062
 40
0.062
100
AcDbArc
 50
180
 51
270
  0
LINE
  5
CE
100
AcDbEntity
  8
20
  6
ByLayer
 62
  256
370
   -1
100
AcDbLine
 10
0.46
 20
0.062
 11
0.46
 21
0.438
  0
ARC
  5
CF
100
AcDbEntity
  8
20
  6
ByLayer
 62
  256
370
   -1
100
AcDbCircle
 10
0.398
 20
0.438
 40
0.062
100
AcDbArc
 50
0
 51
90
  0
LINE
  5
D0
100
AcDbEntity
  8
20
  6
ByLayer
 62
  256
370
   -1
100
AcDbLine
 10
0.398
 20
0.5
 11
0.062
 21
0.5
  0
LINE
  5
D1
100
AcDbEntity
  8
20
  6
ByLayer
 62
  256
370
   -1
100
AcDbLine
 10
0.348
 20
5.4
 11
0.498
 21
5.31
  0
LINE
  5
D2
100
AcDbEntity
  8
20
  6
ByLayer
 62
  256
370
   -1
100
AcDbLine
 10
0.498
 20
5.31
 11
0.498
 21
5.219
  0
ARC
  5
D3
100
AcDbEntity
  8
20
  6
ByLayer
 62
  256
370
   -1
100
AcDbCircle
 10
0.6
 20
5.219
 40
0.102
100
AcDbArc
 50
180
 51
0
  0
LINE
  5
D4
100
AcDbEntity
  8
20
  6
ByLayer
 62
  256
370
   -1
100
AcDbLine
 10
0.702
 20
5.219
 11
0.702
 21
5.31
  0
LINE
  5
D5
100
AcDbEntity
  8
20
  6
ByLayer
 62
  256
370
   -1
100
AcDbLine
 10
0.702
 20
5.31
 11
0.852
 21
5.4
  0
LINE
  5
D6
100
AcDbEntity
  8
20
  6
ByLayer
 62
  256
370
   -1
100
AcDbLine
 10
0.852
 20
5.4
 11
3.448
 21
5.4
  0
LINE
  5
D7
100
AcDbEntity
  8
20
  6
ByLayer
 62
  256
370
   -1
100
AcDbLine
 10
3.448
 20
5.4
 11
3.598
 21
5.31
  0
LINE
  5
D8
100
AcDbEntity
  8
20
  6
ByLayer
 62
  256
370
   -1
100
AcDbLine
 10
3.598
 20
5.31
 11
3.598
 21
5.219
  0
ARC
  5
D9
100
AcDbEntity
  8
20
  6
ByLayer
 62
  256
370
   -1
100
AcDbCircle
 10
3.7
 20
5.219
 40
0.102
100
AcDbArc
 50
180
 51
0
  0
LINE
  5
DA
100
AcDbEntity
  8
20
  6
ByLayer
 62
  256
370
   -1
100
AcDbLine
 10
3.802
 20
5.219
 11
3.802
 21
5.31
  0
LINE
  5
DB
100
AcDbEntity
  8
20
  6
ByLayer
 62
  256
370
   -1
100
AcDbLine
 10
3.802
 20
5.31
 11
3.952
 21
5.4
  0
CIRCLE
  5
DC
100
AcDbEntity
  8
20
  6
ByLayer
 62
  256
370
   -1
100
AcDbCircle
 10
0.2
 20
0.9
 40
0.064
  0
CIRCLE
  5
DD
100
AcDbEntity
  8
20
  6
ByLayer
 62
  256
370
   -1
100
AcDbCircle
 10
4.1
 20
0.9
 40
0.064
  0
POINT
  5
DE
100
AcDbEntity
  8
23
  6
ByLayer
 62
  256
370
   -1
100
AcDbPoint
 10
0.6
 20
0.2
  0
INSERT
  5
DF
100
AcDbEntity
  8
17
  6
ByLayer
 62
  256
370
   -1
100
AcDbBlockReference
  2
ROUNDP
 10
2.2
 20
0.3
 30
0
 41
0.06
 42
0.06
 43
0
 50
90
 70
    1
 71
    1
 44
0
 45
0
  0
INSERT
  5
E0
100
AcDbEntity
  8
17
  6
ByLayer
 62
  256
370
   -1
100
AcDbBlockReference
  2
ROUNDP
 10
2.2
 20
0.3
 30
0
 41
0.06
 42
0.06
 43
0
 50
90
 70
    1
 71
    1
 44
0
 45
0
  0
INSERT
  5
E1
100
AcDbEntity
  8
17
  6
ByLayer
 62
  256
370
   -1
100
AcDbBlockReference
  2
ROUNDP
 10
2.1
 20
0.3
 30
0
 41
0.06
 42
0.06
 43
0
 50
90
 70
    1
 71
    1
 44
0
 45
0
  0
INSERT
  5
E2
100
AcDbEntity
  8
17
  6
ByLayer
 62
  256
370
   -1
100
AcDbBlockReference
  2
ROUNDP
 10
2.1
 20
0.3
 30
0
 41
0.06
 42
0.06
 43
0
 50
90
 70
    1
 71
    1
 44
0
 45
0
  0
INSERT
  5
E3
100
AcDbEntity
  8
17
  6
ByLayer
 62
  256
370
   -1
100
AcDbBlockReference
  2
ROUNDP
 10
2
 20
0.3
 30
0
 41
0.06
 42
0.06
 43
0
 50
90
 70
    1
 71
    1
 44
0
 45
0
  0
INSERT
  5
E4
100
AcDbEntity
  8
17
  6
ByLayer
 62
  256
370
   -1
100
AcDbBlockReference
  2
ROUNDP
 10
2
 20
0.3
 30
0
 41
0.06
 42
0.06
 43
0
 50
90
 70
    1
 71
    1
 44
0
 45
0
  0
INSERT
  5
E5
100
AcDbEntity
  8
17
  6
ByLayer
 62
  256
370
   -1
100
AcDbBlockReference
  2
ROUNDP
 10
1.9
 20
0.3
 30
0
 41
0.06
 42
0.06
 43
0
 50
90
 70
    1
 71
    1
 44
0
 45
0
  0
INSERT
  5
E6
100
AcDbEntity
  8
17
  6
ByLayer
 62
  256
370
   -1
100
AcDbBlockReference
  2
ROUNDP
 10
1.9
 20
0.3
 30
0
 41
0.06
 42
0.06
 43
0
 50
90
 70
    1
 71
    1
 44
0
 45
0
  0
INSERT
  5
E7
100
AcDbEntity
  8
17
  6
ByLayer
 62
  256
370
   -1
100
AcDbBlockReference
  2
ROUNDP
 10
1.8
 20
0.3
 30
0
 41
0.06
 42
0.06
 43
0
 50
90
 70
    1
 71
    1
 44
0
 45
0
  0
INSERT
  5
E8
100
AcDbEntity
  8
17
  6
ByLayer
 62
  256
370
   -1
100
AcDbBlockReference
  2
ROUNDP
 10
1.8
 20
0.3
 30
0
 41
0.06
 42
0.06
 43
0
 50
90
 70
    1
 71
    1
 44
0
 45
0
  0
INSERT
  5
E9
100
AcDbEntity
  8
17
  6
ByLayer
 62
  256
370
   -1
100
AcDbBlockReference
  2
ROUNDP
 10
1.7
 20
0.3
 30
0
 41
0.06
 42
0.06
 43
0
 50
90
 70
    1
 71
    1
 44
0
 45
0
  0
INSERT
  5
EA
100
AcDbEntity
  8
17
  6
ByLayer
 62
  256
370
   -1
100
AcDbBlockReference
  2
ROUNDP
 10
1.7
 20
0.3
 30
0
 41
0.06
 42
0.06
 43
0
 50
90
 70
    1
 71
    1
 44
0
 45
0
  0
INSERT
  5
EB
100
AcDbEntity
  8
17
  6
ByLayer
 62
  256
370
   -1
100
AcDbBlockReference
  2
ROUNDP
 10
1.6
 20
0.3
 30
0
 41
0.06
 42
0.06
 43
0
 50
90
 70
    1
 71
    1
 44
0
 45
0
  0
INSERT
  5
EC
100
AcDbEntity
  8
17
  6
ByLayer
 62
  256
370
   -1
100
AcDbBlockReference
  2
ROUNDP
 10
1.6
 20
0.3
 30
0
 41
0.06
 42
0.06
 43
0
 50
90
 70
    1
 71
    1
 44
0
 45
0
  0
INSERT
  5
ED
100
AcDbEntity
  8
17
  6
ByLayer
 62
  256
370
   -1
100
AcDbBlockReference
  2
ROUNDP
 10
1.5
 20
0.3
 30
0
 41
0.06
 42
0.06
 43
0
 50
90
 70
    1
 71
    1
 44
0
 45
0
  0
INSERT
  5
EE
100
AcDbEntity
  8
17
  6
ByLayer
 62
  256
370
   -1
100
AcDbBlockReference
  2
ROUNDP
 10
1.5
 20
0.3
 30
0
 41
0.06
 42
0.06
 43
0
 50
90
 70
    1
 71
    1
 44
0
 45
0
  0
INSERT
  5
EF
100
AcDbEntity
  8
17
  6
ByLayer
 62
  256
370
   -1
100
AcDbBlockReference
  2
ROUNDP
 10
1.4
 20
0.3
 30
0
 41
0.06
 42
0.06
 43
0
 50
90
 70
    1
 71
    1
 44
0
 45
0
  0
INSERT
  5
F0
100
AcDbEntity
  8
17
  6
ByLayer
 62
  256
370
   -1
100
AcDbBlockReference
  2
ROUNDP
 10
1.4
 20
0.3
 30
0
 41
0.06
 42
0.06
 43
0
 50
90
 70
    1
 71
    1
 44
0
 45
0
  0
INSERT
  5
F1
100
AcDbEntity
  8
17
  6
ByLayer
 62
  256
370
   -1
100
AcDbBlockReference
  2
ROUNDP
 10
2.3
 20
0.3
 30
0
 41
0.06
 42
0.06
 43
0
 50
90
 70
    1
 71
    1
 44
0
 45
0
  0
INSERT
  5
F2
100
AcDbEntity
  8
17
  6
ByLayer
 62
  256
370
   -1
100
AcDbBlockReference
  2
ROUNDP
 10
2.3
 20
0.3
 30
0
 41
0.06
 42
0.06
 43
0
 50
90
 70
    1
 71
    1
 44
0
 45
0
  0
INSERT
  5
F3
100
AcDbEntity
  8
17
  6
ByLayer
 62
  256
370
   -1
100
AcDbBlockReference
  2
ROUNDP
 10
2.4
 20
0.3
 30
0
 41
0.06
 42
0.06
 43
0
 50
90
 70
    1
 71
    1
 44
0
 45
0
  0
INSERT
  5
F4
100
AcDbEntity
  8
17
  6
ByLayer
 62
  256
370
   -1
100
AcDbBlockReference
  2
ROUNDP
 10
2.4
 20
0.3
 30
0
 41
0.06
 42
0.06
 43
0
 50
90
 70
    1
 71
    1
 44
0
 45
0
  0
INSERT
  5
F5
100
AcDbEntity
  8
17
  6
ByLayer
 62
  256
370
   -1
100
AcDbBlockReference
  2
ROUNDP
 10
2.5
 20
0.3
 30
0
 41
0.06
 42
0.06
 43
0
 50
90
 70
    1
 71
    1
 44
0
 45
0
  0
INSERT
  5
F6
100
AcDbEntity
  8
17
  6
ByLayer
 62
  256
370
   -1
100
AcDbBlockReference
  2
ROUNDP
 10
2.5
 20
0.3
 30
0
 41
0.06
 42
0.06
 43
0
 50
90
 70
    1
 71
    1
 44
0
 45
0
  0
INSERT
  5
F7
100
AcDbEntity
  8
17
  6
ByLayer
 62
  256
370
   -1
100
AcDbBlockReference
  2
ROUNDP
 10
2.6
 20
0.3
 30
0
 41
0.06
 42
0.06
 43
0
 50
90
 70
    1
 71
    1
 44
0
 45
0
  0
INSERT
  5
F8
100
AcDbEntity
  8
17
  6
ByLayer
 62
  256
370
   -1
100
AcDbBlockReference
  2
ROUNDP
 10
2.6
 20
0.3
 30
0
 41
0.06
 42
0.06
 43
0
 50
90
 70
    1
 71
    1
 44
0
 45
0
  0
INSERT
  5
F9
100
AcDbEntity
  8
17
  6
ByLayer
 62
  256
370
   -1
100
AcDbBlockReference
  2
ROUNDP
 10
2.7
 20
0.3
 30
0
 41
0.06
 42
0.06
 43
0
 50
90
 70
    1
 71
    1
 44
0
 45
0
  0
INSERT
  5
FA
100
AcDbEntity
  8
17
  6
ByLayer
 62
  256
370
   -1
100
AcDbBlockReference
  2
ROUNDP
 10
2.7
 20
0.3
 30
0
 41
0.06
 42
0.06
 43
0
 50
90
 70
    1
 71
    1
 44
0
 45
0
  0
INSERT
  5
FB
100
AcDbEntity
  8
17
  6
ByLayer
 62
  256
370
   -1
100
AcDbBlockReference
  2
ROUNDP
 10
2.8
 20
0.3
 30
0
 41
0.06
 42
0.06
 43
0
 50
90
 70
    1
 71
    1
 44
0
 45
0
  0
INSERT
  5
FC
100
AcDbEntity
  8
17
  6
ByLayer
 62
  256
370
   -1
100
AcDbBlockReference
  2
ROUNDP
 10
2.8
 20
0.3
 30
0
 41
0.06
 42
0.06
 43
0
 50
90
 70
    1
 71
    1
 44
0
 45
0
  0
INSERT
  5
FD
100
AcDbEntity
  8
17
  6
ByLayer
 62
  256
370
   -1
100
AcDbBlockReference
  2
ROUNDP
 10
2.9
 20
0.3
 30
0
 41
0.06
 42
0.06
 43
0
 50
90
 70
    1
 71
    1
 44
0
 45
0
  0
INSERT
  5
FE
100
AcDbEntity
  8
17
  6
ByLayer
 62
  256
370
   -1
100
AcDbBlockReference
  2
ROUNDP
 10
2.9
 20
0.3
 30
0
 41
0.06
 42
0.06
 43
0
 50
90
 70
    1
 71
    1
 44
0
 45
0
  0
INSERT
  5
FF
100
AcDbEntity
  8
17
  6
ByLayer
 62
  256
370
   -1
100
AcDbBlockReference
  2
ROUNDP
 10
3
 20
0.3
 30
0
 41
0.06
 42
0.06
 43
0
 50
90
 70
    1
 71
    1
 44
0
 45
0
  0
INSERT
  5
100
100
AcDbEntity
  8
17
  6
ByLayer
 62
  256
370
   -1
100
AcDbBlockReference
  2
ROUNDP
 10
3
 20
0.3
 30
0
 41
0.06
 42
0.06
 43
0
 50
90
 70
    1
 71
    1
 44
0
 45
0
  0
INSERT
  5
101
100
AcDbEntity
  8
17
  6
ByLayer
 62
  256
370
   -1
100
AcDbBlockReference
  2
ROUNDP
 10
3.1
 20
0.3
 30
0
 41
0.06
 42
0.06
 43
0
 50
90
 70
    1
 71
    1
 44
0
 45
0
  0
INSERT
  5
102
100
AcDbEntity
  8
17
  6
ByLayer
 62
  256
370
   -1
100
AcDbBlockReference
  2
ROUNDP
 10
3.1
 20
0.3
 30
0
 41
0.06
 42
0.06
 43
0
 50
90
 70
    1
 71
    1
 44
0
 45
0
  0
INSERT
  5
103
100
AcDbEntity
  8
17
  6
ByLayer
 62
  256
370
   -1
100
AcDbBlockReference
  2
ROUNDP
 10
3.2
 20
0.3
 30
0
 41
0.06
 42
0.06
 43
0
 50
90
 70
    1
 71
    1
 44
0
 45
0
  0
INSERT
  5
104
100
AcDbEntity
  8
17
  6
ByLayer
 62
  256
370
   -1
100
AcDbBlockReference
  2
ROUNDP
 10
3.2
 20
0.3
 30
0
 41
0.06
 42
0.06
 43
0
 50
90
 70
    1
 71
    1
 44
0
 45
0
  0
INSERT
  5
105
100
AcDbEntity
  8
17
  6
ByLayer
 62
  256
370
   -1
100
AcDbBlockReference
  2
ROUNDP
 10
3.3
 20
0.3
 30
0
 41
0.06
 42
0.06
 43
0
 50
90
 70
    1
 71
    1
 44
0
 45
0
  0
INSERT
  5
106
100
AcDbEntity
  8
17
  6
ByLayer
 62
  256
370
   -1
100
AcDbBlockReference
  2
ROUNDP
 10
3.3
 20
0.3
 30
0
 41
0.06
 42
0.06
 43
0
 50
90
 70
    1
 71
    1
 44
0
 45
0
  0
INSERT
  5
107
100
AcDbEntity
  8
17
  6
ByLayer
 62
  256
370
   -1
100
AcDbBlockReference
  2
ROUNDP
 10
3.4
 20
0.3
 30
0
 41
0.06
 42
0.06
 43
0
 50
90
 70
    1
 71
    1
 44
0
 45
0
  0
INSERT
  5
108
100
AcDbEntity
  8
17
  6
ByLayer
 62
  256
370
   -1
100
AcDbBlockReference
  2
ROUNDP
 10
3.4
 20
0.3
 30
0
 41
0.06
 42
0.06
 43
0
 50
90
 70
    1
 71
    1
 44
0
 45
0
  0
INSERT
  5
109
100
AcDbEntity
  8
17
  6
ByLayer
 62
  256
370
   -1
100
AcDbBlockReference
  2
ROUNDP
 10
3.5
 20
0.3
 30
0
 41
0.06
 42
0.06
 43
0
 50
90
 70
    1
 71
    1
 44
0
 45
0
  0
INSERT
  5
10A
100
AcDbEntity
  8
17
  6
ByLayer
 62
  256
370
   -1
100
AcDbBlockReference
  2
ROUNDP
 10
3.5
 20
0.3
 30
0
 41
0.06
 42
0.06
 43
0
 50
90
 70
    1
 71
    1
 44
0
 45
0
  0
INSERT
  5
10B
100
AcDbEntity
  8
17
  6
ByLayer
 62
  256
370
   -1
100
AcDbBlockReference
  2
ROUNDP
 10
3.6
 20
0.3
 30
0
 41
0.06
 42
0.06
 43
0
 50
90
 70
    1
 71
    1
 44
0
 45
0
  0
INSERT
  5
10C
100
AcDbEntity
  8
17
  6
ByLayer
 62
  256
370
   -1
100
AcDbBlockReference
  2
ROUNDP
 10
3.6
 20
0.3
 30
0
 41
0.06
 42
0.06
 43
0
 50
90
 70
    1
 71
    1
 44
0
 45
0
  0
INSERT
  5
10D
100
AcDbEntity
  8
17
  6
ByLayer
 62
  256
370
   -1
100
AcDbBlockReference
  2
ROUNDP
 10
3.7
 20
0.3
 30
0
 41
0.06
 42
0.06
 43
0
 50
90
 70
    1
 71
    1
 44
0
 45
0
  0
INSERT
  5
10E
100
AcDbEntity
  8
17
  6
ByLayer
 62
  256
370
   -1
100
AcDbBlockReference
  2
ROUNDP
 10
3.7
 20
0.3
 30
0
 41
0.06
 42
0.06
 43
0
 50
90
 70
    1
 71
    1
 44
0
 45
0
  0
INSERT
  5
10F
100
AcDbEntity
  8
17
  6
ByLayer
 62
  256
370
   -1
100
AcDbBlockReference
  2
ROUNDP
 10
1.3
 20
0.3
 30
0
 41
0.06
 42
0.06
 43
0
 50
90
 70
    1
 71
    1
 44
0
 45
0
  0
INSERT
  5
110
100
AcDbEntity
  8
17
  6
ByLayer
 62
  256
370
   -1
100
AcDbBlockReference
  2
ROUNDP
 10
1.3
 20
0.3
 30
0
 41
0.06
 42
0.06
 43
0
 50
90
 70
    1
 71
    1
 44
0
 45
0
  0
INSERT
  5
111
100
AcDbEntity
  8
17
  6
ByLayer
 62
  256
370
   -1
100
AcDbBlockReference
  2
ROUNDP
 10
1.2
 20
0.3
 30
0
 41
0.06
 42
0.06
 43
0
 50
90
 70
    1
 71
    1
 44
0
 45
0
  0
INSERT
  5
112
100
AcDbEntity
  8
17
  6
ByLayer
 62
  256
370
   -1
100
AcDbBlockReference
  2
ROUNDP
 10
1.2
 20
0.3
 30
0
 41
0.06
 42
0.06
 43
0
 50
90
 70
    1
 71
    1
 44
0
 45
0
  0
INSERT
  5
113
100
AcDbEntity
  8
17
  6
ByLayer
 62
  256
370
   -1
100
AcDbBlockReference
  2
ROUNDP
 10
1.1
 20
0.3
 30
0
 41
0.06
 42
0.06
 43
0
 50
90
 70
    1
 71
    1
 44
0
 45
0
  0
INSERT
  5
114
100
AcDbEntity
  8
17
  6
ByLayer
 62
  256
370
   -1
100
AcDbBlockReference
  2
ROUNDP
 10
1.1
 20
0.3
 30
0
 41
0.06
 42
0.06
 43
0
 50
90
 70
    1
 71
    1
 44
0
 45
0
  0
INSERT
  5
115
100
AcDbEntity
  8
17
  6
ByLayer
 62
  256
370
   -1
100
AcDbBlockReference
  2
ROUNDP
 10
1
 20
0.3
 30
0
 41
0.06
 42
0.06
 43
0
 50
90
 70
    1
 71
    1
 44
0
 45
0
  0
INSERT
  5
116
100
AcDbEntity
  8
17
  6
ByLayer
 62
  256
370
   -1
100
AcDbBlockReference
  2
ROUNDP
 10
1
 20
0.3
 30
0
 41
0.06
 42
0.06
 43
0
 50
90
 70
    1
 71
    1
 44
0
 45
0
  0
INSERT
  5
117
100
AcDbEntity
  8
17
  6
ByLayer
 62
  256
370
   -1
100
AcDbBlockReference
  2
ROUNDP
 10
0.9
 20
0.3
 30
0
 41
0.06
 42
0.06
 43
0
 50
90
 70
    1
 71
    1
 44
0
 45
0
  0
INSERT
  5
118
100
AcDbEntity
  8
17
  6
ByLayer
 62
  256
370
   -1
100
AcDbBlockReference
  2
ROUNDP
 10
0.9
 20
0.3
 30
0
 41
0.06
 42
0.06
 43
0
 50
90
 70
    1
 71
    1
 44
0
 45
0
  0
INSERT
  5
119
100
AcDbEntity
  8
17
  6
ByLayer
 62
  256
370
   -1
100
AcDbBlockReference
  2
ROUNDP
 10
0.8
 20
0.3
 30
0
 41
0.06
 42
0.06
 43
0
 50
90
 70
    1
 71
    1
 44
0
 45
0
  0
INSERT
  5
11A
100
AcDbEntity
  8
17
  6
ByLayer
 62
  256
370
   -1
100
AcDbBlockReference
  2
ROUNDP
 10
0.8
 20
0.3
 30
0
 41
0.06
 42
0.06
 43
0
 50
90
 70
    1
 71
    1
 44
0
 45
0
  0
INSERT
  5
11B
100
AcDbEntity
  8
17
  6
ByLayer
 62
  256
370
   -1
100
AcDbBlockReference
  2
ROUNDP
 10
0.7
 20
0.3
 30
0
 41
0.06
 42
0.06
 43
0
 50
90
 70
    1
 71
    1
 44
0
 45
0
  0
INSERT
  5
11C
100
AcDbEntity
  8
17
  6
ByLayer
 62
  256
370
   -1
100
AcDbBlockReference
  2
ROUNDP
 10
0.7
 20
0.3
 30
0
 41
0.06
 42
0.06
 43
0
 50
90
 70
    1
 71
    1
 44
0
 45
0
  0
INSERT
  5
11D
100
AcDbEntity
  8
17
  6
ByLayer
 62
  256
370
   -1
100
AcDbBlockReference
  2
ROUNDP
 10
0.6
 20
0.3
 30
0
 41
0.06
 42
0.06
 43
0
 50
90
 70
    1
 71
    1
 44
0
 45
0
  0
INSERT
  5
11E
100
AcDbEntity
  8
17
  6
ByLayer
 62
  256
370
   -1
100
AcDbBlockReference
  2
ROUNDP
 10
0.6
 20
0.3
 30
0
 41
0.06
 42
0.06
 43
0
 50
90
 70
    1
 71
    1
 44
0
 45
0
  0
INSERT
  5
11F
100
AcDbEntity
  8
17
  6
ByLayer
 62
  256
370
   -1
100
AcDbBlockReference
  2
ROUNDP
 10
2.2
 20
0.2
 30
0
 41
0.06
 42
0.06
 43
0
 50
90
 70
    1
 71
    1
 44
0
 45
0
  0
INSERT
  5
120
100
AcDbEntity
  8
17
  6
ByLayer
 62
  256
370
   -1
100
AcDbBlockReference
  2
ROUNDP
 10
2.2
 20
0.2
 30
0
 41
0.06
 42
0.06
 43
0
 50
90
 70
    1
 71
    1
 44
0
 45
0
  0
INSERT
  5
121
100
AcDbEntity
  8
17
  6
ByLayer
 62
  256
370
   -1
100
AcDbBlockReference
  2
ROUNDP
 10
2.1
 20
0.2
 30
0
 41
0.06
 42
0.06
 43
0
 50
90
 70
    1
 71
    1
 44
0
 45
0
  0
INSERT
  5
122
100
AcDbEntity
  8
17
  6
ByLayer
 62
  256
370
   -1
100
AcDbBlockReference
  2
ROUNDP
 10
2.1
 20
0.2
 30
0
 41
0.06
 42
0.06
 43
0
 50
90
 70
    1
 71
    1
 44
0
 45
0
  0
INSERT
  5
123
100
AcDbEntity
  8
17
  6
ByLayer
 62
  256
370
   -1
100
AcDbBlockReference
  2
ROUNDP
 10
2
 20
0.2
 30
0
 41
0.06
 42
0.06
 43
0
 50
90
 70
    1
 71
    1
 44
0
 45
0
  0
INSERT
  5
124
100
AcDbEntity
  8
17
  6
ByLayer
 62
  256
370
   -1
100
AcDbBlockReference
  2
ROUNDP
 10
2
 20
0.2
 30
0
 41
0.06
 42
0.06
 43
0
 50
90
 70
    1
 71
    1
 44
0
 45
0
  0
INSERT
  5
125
100
AcDbEntity
  8
17
  6
ByLayer
 62
  256
370
   -1
100
AcDbBlockReference
  2
ROUNDP
 10
1.9
 20
0.2
 30
0
 41
0.06
 42
0.06
 43
0
 50
90
 70
    1
 71
    1
 44
0
 45
0
  0
INSERT
  5
126
100
AcDbEntity
  8
17
  6
ByLayer
 62
  256
370
   -1
100
AcDbBlockReference
  2
ROUNDP
 10
1.9
 20
0.2
 30
0
 41
0.06
 42
0.06
 43
0
 50
90
 70
    1
 71
    1
 44
0
 45
0
  0
INSERT
  5
127
100
AcDbEntity
  8
17
  6
ByLayer
 62
  256
370
   -1
100
AcDbBlockReference
  2
ROUNDP
 10
1.8
 20
0.2
 30
0
 41
0.06
 42
0.06
 43
0
 50
90
 70
    1
 71
    1
 44
0
 45
0
  0
INSERT
  5
128
100
AcDbEntity
  8
17
  6
ByLayer
 62
  256
370
   -1
100
AcDbBlockReference
  2
ROUNDP
 10
1.8
 20
0.2
 30
0
 41
0.06
 42
0.06
 43
0
 50
90
 70
    1
 71
    1
 44
0
 45
0
  0
INSERT
  5
129
100
AcDbEntity
  8
17
  6
ByLayer
 62
  256
370
   -1
100
AcDbBlockReference
  2
ROUNDP
 10
1.7
 20
0.2
 30
0
 41
0.06
 42
0.06
 43
0
 50
90
 70
    1
 71
    1
 44
0
 45
0
  0
INSERT
  5
12A
100
AcDbEntity
  8
17
  6
ByLayer
 62
  256
370
   -1
100
AcDbBlockReference
  2
ROUNDP
 10
1.7
 20
0.2
 30
0
 41
0.06
 42
0.06
 43
0
 50
90
 70
    1
 71
    1
 44
0
 45
0
  0
INSERT
  5
12B
100
AcDbEntity
  8
17
  6
ByLayer
 62
  256
370
   -1
100
AcDbBlockReference
  2
ROUNDP
 10
1.6
 20
0.2
 30
0
 41
0.06
 42
0.06
 43
0
 50
90
 70
    1
 71
    1
 44
0
 45
0
  0
INSERT
  5
12C
100
AcDbEntity
  8
17
  6
ByLayer
 62
  256
370
   -1
100
AcDbBlockReference
  2
ROUNDP
 10
1.6
 20
0.2
 30
0
 41
0.06
 42
0.06
 43
0
 50
90
 70
    1
 71
    1
 44
0
 45
0
  0
INSERT
  5
12D
100
AcDbEntity
  8
17
  6
ByLayer
 62
  256
370
   -1
100
AcDbBlockReference
  2
ROUNDP
 10
1.5
 20
0.2
 30
0
 41
0.06
 42
0.06
 43
0
 50
90
 70
    1
 71
    1
 44
0
 45
0
  0
INSERT
  5
12E
100
AcDbEntity
  8
17
  6
ByLayer
 62
  256
370
   -1
100
AcDbBlockReference
  2
ROUNDP
 10
1.5
 20
0.2
 30
0
 41
0.06
 42
0.06
 43
0
 50
90
 70
    1
 71
    1
 44
0
 45
0
  0
INSERT
  5
12F
100
AcDbEntity
  8
17
  6
ByLayer
 62
  256
370
   -1
100
AcDbBlockReference
  2
ROUNDP
 10
1.4
 20
0.2
 30
0
 41
0.06
 42
0.06
 43
0
 50
90
 70
    1
 71
    1
 44
0
 45
0
  0
INSERT
  5
130
100
AcDbEntity
  8
17
  6
ByLayer
 62
  256
370
   -1
100
AcDbBlockReference
  2
ROUNDP
 10
1.4
 20
0.2
 30
0
 41
0.06
 42
0.06
 43
0
 50
90
 70
    1
 71
    1
 44
0
 45
0
  0
INSERT
  5
131
100
AcDbEntity
  8
17
  6
ByLayer
 62
  256
370
   -1
100
AcDbBlockReference
  2
ROUNDP
 10
2.3
 20
0.2
 30
0
 41
0.06
 42
0.06
 43
0
 50
90
 70
    1
 71
    1
 44
0
 45
0
  0
INSERT
  5
132
100
AcDbEntity
  8
17
  6
ByLayer
 62
  256
370
   -1
100
AcDbBlockReference
  2
ROUNDP
 10
2.3
 20
0.2
 30
0
 41
0.06
 42
0.06
 43
0
 50
90
 70
    1
 71
    1
 44
0
 45
0
  0
INSERT
  5
133
100
AcDbEntity
  8
17
  6
ByLayer
 62
  256
370
   -1
100
AcDbBlockReference
  2
ROUNDP
 10
2.4
 20
0.2
 30
0
 41
0.06
 42
0.06
 43
0
 50
90
 70
    1
 71
    1
 44
0
 45
0
  0
INSERT
  5
134
100
AcDbEntity
  8
17
  6
ByLayer
 62
  256
370
   -1
100
AcDbBlockReference
  2
ROUNDP
 10
2.4
 20
0.2
 30
0
 41
0.06
 42
0.06
 43
0
 50
90
 70
    1
 71
    1
 44
0
 45
0
  0
INSERT
  5
135
100
AcDbEntity
  8
17
  6
ByLayer
 62
  256
370
   -1
100
AcDbBlockReference
  2
ROUNDP
 10
2.5
 20
0.2
 30
0
 41
0.06
 42
0.06
 43
0
 50
90
 70
    1
 71
    1
 44
0
 45
0
  0
INSERT
  5
136
100
AcDbEntity
  8
17
  6
ByLayer
 62
  256
370
   -1
100
AcDbBlockReference
  2
ROUNDP
 10
2.5
 20
0.2
 30
0
 41
0.06
 42
0.06
 43
0
 50
90
 70
    1
 71
    1
 44
0
 45
0
  0
INSERT
  5
137
100
AcDbEntity
  8
17
  6
ByLayer
 62
  256
370
   -1
100
AcDbBlockReference
  2
ROUNDP
 10
2.6
 20
0.2
 30
0
 41
0.06
 42
0.06
 43
0
 50
90
 70
    1
 71
    1
 44
0
 45
0
  0
INSERT
  5
138
100
AcDbEntity
  8
17
  6
ByLayer
 62
  256
370
   -1
100
AcDbBlockReference
  2
ROUNDP
 10
2.6
 20
0.2
 30
0
 41
0.06
 42
0.06
 43
0
 50
90
 70
    1
 71
    1
 44
0
 45
0
  0
INSERT
  5
139
100
AcDbEntity
  8
17
  6
ByLayer
 62
  256
370
   -1
100
AcDbBlockReference
  2
ROUNDP
 10
2.7
 20
0.2
 30
0
 41
0.06
 42
0.06
 43
0
 50
90
 70
    1
 71
    1
 44
0
 45
0
  0
INSERT
  5
13A
100
AcDbEntity
  8
17
  6
ByLayer
 62
  256
370
   -1
100
AcDbBlockReference
  2
ROUNDP
 10
2.7
 20
0.2
 30
0
 41
0.06
 42
0.06
 43
0
 50
90
 70
    1
 71
    1
 44
0
 45
0
  0
INSERT
  5
13B
100
AcDbEntity
  8
17
  6
ByLayer
 62
  256
370
   -1
100
AcDbBlockReference
  2
ROUNDP
 10
2.8
 20
0.2
 30
0
 41
0.06
 42
0.06
 43
0
 50
90
 70
    1
 71
    1
 44
0
 45
0
  0
INSERT
  5
13C
100
AcDbEntity
  8
17
  6
ByLayer
 62
  256
370
   -1
100
AcDbBlockReference
  2
ROUNDP
 10
2.8
 20
0.2
 30
0
 41
0.06
 42
0.06
 43
0
 50
90
 70
    1
 71
    1
 44
0
 45
0
  0
INSERT
  5
13D
100
AcDbEntity
  8
17
  6
ByLayer
 62
  256
370
   -1
100
AcDbBlockReference
  2
ROUNDP
 10
2.9
 20
0.2
 30
0
 41
0.06
 42
0.06
 43
0
 50
90
 70
    1
 71
    1
 44
0
 45
0
  0
INSERT
  5
13E
100
AcDbEntity
  8
17
  6
ByLayer
 62
  256
370
   -1
100
AcDbBlockReference
  2
ROUNDP
 10
2.9
 20
0.2
 30
0
 41
0.06
 42
0.06
 43
0
 50
90
 70
    1
 71
    1
 44
0
 45
0
  0
INSERT
  5
13F
100
AcDbEntity
  8
17
  6
ByLayer
 62
  256
370
   -1
100
AcDbBlockReference
  2
ROUNDP
 10
3
 20
0.2
 30
0
 41
0.06
 42
0.06
 43
0
 50
90
 70
    1
 71
    1
 44
0
 45
0
  0
INSERT
  5
140
100
AcDbEntity
  8
17
  6
ByLayer
 62
  256
370
   -1
100
AcDbBlockReference
  2
ROUNDP
 10
3
 20
0.2
 30
0
 41
0.06
 42
0.06
 43
0
 50
90
 70
    1
 71
    1
 44
0
 45
0
  0
INSERT
  5
141
100
AcDbEntity
  8
17
  6
ByLayer
 62
  256
370
   -1
100
AcDbBlockReference
  2
ROUNDP
 10
3.1
 20
0.2
 30
0
 41
0.06
 42
0.06
 43
0
 50
90
 70
    1
 71
    1
 44
0
 45
0
  0
INSERT
  5
142
100
AcDbEntity
  8
17
  6
ByLayer
 62
  256
370
   -1
100
AcDbBlockReference
  2
ROUNDP
 10
3.1
 20
0.2
 30
0
 41
0.06
 42
0.06
 43
0
 50
90
 70
    1
 71
    1
 44
0
 45
0
  0
INSERT
  5
143
100
AcDbEntity
  8
17
  6
ByLayer
 62
  256
370
   -1
100
AcDbBlockReference
  2
ROUNDP
 10
3.2
 20
0.2
 30
0
 41
0.06
 42
0.06
 43
0
 50
90
 70
    1
 71
    1
 44
0
 45
0
  0
INSERT
  5
144
100
AcDbEntity
  8
17
  6
ByLayer
 62
  256
370
   -1
100
AcDbBlockReference
  2
ROUNDP
 10
3.2
 20
0.2
 30
0
 41
0.06
 42
0.06
 43
0
 50
90
 70
    1
 71
    1
 44
0
 45
0
  0
INSERT
  5
145
100
AcDbEntity
  8
17
  6
ByLayer
 62
  256
370
   -1
100
AcDbBlockReference
  2
ROUNDP
 10
3.3
 20
0.2
 30
0
 41
0.06
 42
0.06
 43
0
 50
90
 70
    1
 71
    1
 44
0
 45
0
  0
INSERT
  5
146
100
AcDbEntity
  8
17
  6
ByLayer
 62
  256
370
   -1
100
AcDbBlockReference
  2
ROUNDP
 10
3.3
 20
0.2
 30
0
 41
0.06
 42
0.06
 43
0
 50
90
 70
    1
 71
    1
 44
0
 45
0
  0
INSERT
  5
147
100
AcDbEntity
  8
17
  6
ByLayer
 62
  256
370
   -1
100
AcDbBlockReference
  2
ROUNDP
 10
3.4
 20
0.2
 30
0
 41
0.06
 42
0.06
 43
0
 50
90
 70
    1
 71
    1
 44
0
 45
0
  0
INSERT
  5
148
100
AcDbEntity
  8
17
  6
ByLayer
 62
  256
370
   -1
100
AcDbBlockReference
  2
ROUNDP
 10
3.4
 20
0.2
 30
0
 41
0.06
 42
0.06
 43
0
 50
90
 70
    1
 71
    1
 44
0
 45
0
  0
INSERT
  5
149
100
AcDbEntity
  8
17
  6
ByLayer
 62
  256
370
   -1
100
AcDbBlockReference
  2
ROUNDP
 10
3.5
 20
0.2
 30
0
 41
0.06
 42
0.06
 43
0
 50
90
 70
    1
 71
    1
 44
0
 45
0
  0
INSERT
  5
14A
100
AcDbEntity
  8
17
  6
ByLayer
 62
  256
370
   -1
100
AcDbBlockReference
  2
ROUNDP
 10
3.5
 20
0.2
 30
0
 41
0.06
 42
0.06
 43
0
 50
90
 70
    1
 71
    1
 44
0
 45
0
  0
INSERT
  5
14B
100
AcDbEntity
  8
17
  6
ByLayer
 62
  256
370
   -1
100
AcDbBlockReference
  2
ROUNDP
 10
3.6
 20
0.2
 30
0
 41
0.06
 42
0.06
 43
0
 50
90
 70
    1
 71
    1
 44
0
 45
0
  0
INSERT
  5
14C
100
AcDbEntity
  8
17
  6
ByLayer
 62
  256
370
   -1
100
AcDbBlockReference
  2
ROUNDP
 10
3.6
 20
0.2
 30
0
 41
0.06
 42
0.06
 43
0
 50
90
 70
    1
 71
    1
 44
0
 45
0
  0
INSERT
  5
14D
100
AcDbEntity
  8
17
  6
ByLayer
 62
  256
370
   -1
100
AcDbBlockReference
  2
ROUNDP
 10
3.7
 20
0.2
 30
0
 41
0.06
 42
0.06
 43
0
 50
90
 70
    1
 71
    1
 44
0
 45
0
  0
INSERT
  5
14E
100
AcDbEntity
  8
17
  6
ByLayer
 62
  256
370
   -1
100
AcDbBlockReference
  2
ROUNDP
 10
3.7
 20
0.2
 30
0
 41
0.06
 42
0.06
 43
0
 50
90
 70
    1
 71
    1
 44
0
 45
0
  0
INSERT
  5
14F
100
AcDbEntity
  8
17
  6
ByLayer
 62
  256
370
   -1
100
AcDbBlockReference
  2
ROUNDP
 10
1.3
 20
0.2
 30
0
 41
0.06
 42
0.06
 43
0
 50
90
 70
    1
 71
    1
 44
0
 45
0
  0
INSERT
  5
150
100
AcDbEntity
  8
17
  6
ByLayer
 62
  256
370
   -1
100
AcDbBlockReference
  2
ROUNDP
 10
1.3
 20
0.2
 30
0
 41
0.06
 42
0.06
 43
0
 50
90
 70
    1
 71
    1
 44
0
 45
0
  0
INSERT
  5
151
100
AcDbEntity
  8
17
  6
ByLayer
 62
  256
370
   -1
100
AcDbBlockReference
  2
ROUNDP
 10
1.2
 20
0.2
 30
0
 41
0.06
 42
0.06
 43
0
 50
90
 70
    1
 71
    1
 44
0
 45
0
  0
INSERT
  5
152
100
AcDbEntity
  8
17
  6
ByLayer
 62
  256
370
   -1
100
AcDbBlockReference
  2
ROUNDP
 10
1.2
 20
0.2
 30
0
 41
0.06
 42
0.06
 43
0
 50
90
 70
    1
 71
    1
 44
0
 45
0
  0
INSERT
  5
153
100
AcDbEntity
  8
17
  6
ByLayer
 62
  256
370
   -1
100
AcDbBlockReference
  2
ROUNDP
 10
1.1
 20
0.2
 30
0
 41
0.06
 42
0.06
 43
0
 50
90
 70
    1
 71
    1
 44
0
 45
0
  0
INSERT
  5
154
100
AcDbEntity
  8
17
  6
ByLayer
 62
  256
370
   -1
100
AcDbBlockReference
  2
ROUNDP
 10
1.1
 20
0.2
 30
0
 41
0.06
 42
0.06
 43
0
 50
90
 70
    1
 71
    1
 44
0
 45
0
  0
INSERT
  5
155
100
AcDbEntity
  8
17
  6
ByLayer
 62
  256
370
   -1
100
AcDbBlockReference
  2
ROUNDP
 10
1
 20
0.2
 30
0
 41
0.06
 42
0.06
 43
0
 50
90
 70
    1
 71
    1
 44
0
 45
0
  0
INSERT
  5
156
100
AcDbEntity
  8
17
  6
ByLayer
 62
  256
370
   -1
100
AcDbBlockReference
  2
ROUNDP
 10
1
 20
0.2
 30
0
 41
0.06
 42
0.06
 43
0
 50
90
 70
    1
 71
    1
 44
0
 45
0
  0
INSERT
  5
157
100
AcDbEntity
  8
17
  6
ByLayer
 62
  256
370
   -1
100
AcDbBlockReference
  2
ROUNDP
 10
0.9
 20
0.2
 30
0
 41
0.06
 42
0.06
 43
0
 50
90
 70
    1
 71
    1
 44
0
 45
0
  0
INSERT
  5
158
100
AcDbEntity
  8
17
  6
ByLayer
 62
  256
370
   -1
100
AcDbBlockReference
  2
ROUNDP
 10
0.9
 20
0.2
 30
0
 41
0.06
 42
0.06
 43
0
 50
90
 70
    1
 71
    1
 44
0
 45
0
  0
INSERT
  5
159
100
AcDbEntity
  8
17
  6
ByLayer
 62
  256
370
   -1
100
AcDbBlockReference
  2
ROUNDP
 10
0.8
 20
0.2
 30
0
 41
0.06
 42
0.06
 43
0
 50
90
 70
    1
 71
    1
 44
0
 45
0
  0
INSERT
  5
15A
100
AcDbEntity
  8
17
  6
ByLayer
 62
  256
370
   -1
100
AcDbBlockReference
  2
ROUNDP
 10
0.8
 20
0.2
 30
0
 41
0.06
 42
0.06
 43
0
 50
90
 70
    1
 71
    1
 44
0
 45
0
  0
INSERT
  5
15B
100
AcDbEntity
  8
17
  6
ByLayer
 62
  256
370
   -1
100
AcDbBlockReference
  2
ROUNDP
 10
0.7
 20
0.2
 30
0
 41
0.06
 42
0.06
 43
0
 50
90
 70
    1
 71
    1
 44
0
 45
0
  0
INSERT
  5
15C
100
AcDbEntity
  8
17
  6
ByLayer
 62
  256
370
   -1
100
AcDbBlockReference
  2
ROUNDP
 10
0.7
 20
0.2
 30
0
 41
0.06
 42
0.06
 43
0
 50
90
 70
    1
 71
    1
 44
0
 45
0
  0
INSERT
  5
15D
100
AcDbEntity
  8
17
  6
ByLayer
 62
  256
370
   -1
100
AcDbBlockReference
  2
ROUNDP
 10
0.6
 20
0.2
 30
0
 41
0.06
 42
0.06
 43
0
 50
90
 70
    1
 71
    1
 44
0
 45
0
  0
INSERT
  5
15E
100
AcDbEntity
  8
17
  6
ByLayer
 62
  256
370
   -1
100
AcDbBlockReference
  2
ROUNDP
 10
0.6
 20
0.2
 30
0
 41
0.06
 42
0.06
 43
0
 50
90
 70
    1
 71
    1
 44
0
 45
0
  0
DIMENSION
  5
15F
100
AcDbEntity
  8
0
  6
ByLayer
 62
  256
370
   -1
100
AcDbDimension
  2
*D1
 10
0.1999999999999997
 20
-4
 30
0
 11
0.09999999999999923
 21
-2.125
 31
0
 70
   33
 71
    5
  3
Standard
 53
0
210
0
220
0
230
1
100
AcDbAlignedDimension
 13
5.204170427930421e-18
 23
0.9000000000000001
 33
0
 14
0.2
 24
0.9000000000000001
 34
0
  0
DIMENSION
  5
160
100
AcDbEntity
  8
0
  6
ByLayer
 62
  256
370
   -1
100
AcDbDimension
  2
*D2
 10
-0.7000000000000001
 20
0.5000000000000002
 30
0
 11
-2.575
 21
0.7000000000000004
 31
0
 70
   33
 71
    5
  3
Standard
 53
0
210
0
220
0
230
1
100
AcDbAlignedDimension
 13
0.2
 23
0.9
 33
0
 14
0.1999999999999999
 24
0.5
 34
0
  0
DIMENSION
  5
161
100
AcDbEntity
  8
0
  6
ByLayer
 62
  256
370
   -1
100
AcDbDimension
  2
*D3
 10
15
 20
-3.357036870710317e-15
 30
0
 11
13.125
 21
2.699999999999997
 31
0
 70
   33
 71
    5
  3
Standard
 53
0
210
0
220
0
230
1
100
AcDbAlignedDimension
 13
2.2
 23
5.4
 33
0
 14
2.2
 24
-2.220446049250313e-16
 34
0
  0
DIMENSION
  5
162
100
AcDbEntity
  8
0
  6
ByLayer
 62
  256
370
   -1
100
AcDbDimension
  2
*D4
 10
0.2639999999999998
 20
0.9900000000000001
 30
0
 11
0.2319999999999966
 21
2.865
 31
0
 70
   33
 71
    5
  3
Standard
 53
0
210
0
220
0
230
1
100
AcDbAlignedDimension
 13
0.2
 23
0.8999999999999999
 33
0
 14
0.264
 24
0.9
 34
0
  0
ENDSEC
  0
SECTION
  2
OBJECTS
  0
DICTIONARY
  5
C
330
0
100
AcDbDictionary
281
    1
  3
ACAD_GROUP
350
D
  0
DICTIONARY
  5
D
330
C
100
AcDbDictionary
281
    1
  0
PLOTSETTINGS
  5
163
100
AcDbPlotSettings
  6
1x1
 40
0
 41
0
 42
0
 43
0
  0
ENDSEC
  0
EOF
