  0
SECTION
  2
HEADER
  9
$ACADVER
  1
AC1009
  9
$FILLMODE
 70
0
  9
$EXTMIN
 10
-0.000500
 20
-0.000500
 30
0.000000
  9
$EXTMAX
 10
4.300500
 20
5.400500
 30
0.000000
  0
ENDSEC
  0
SECTION
  2
TABLES
  0
TABLE
  2
LTYPE
 70
1
  0
LTYPE
  2
CONTINUOUS
 70
64
  3
Solid line
 72
65
 73
0
 40
0
  0
ENDTAB
  0
TABLE
  2
LAYER
 70
255
  0
LAYER
  2
1
 70
64
 62
1
  6
CONTINUOUS
  0
LAYER
  2
16
 70
64
 62
5
  6
CONTINUOUS
  0
LAYER
  2
17
 70
64
 62
3
  6
CONTINUOUS
  0
LAYER
  2
18
 70
64
 62
3
  6
CONTINUOUS
  0
LAYER
  2
19
 70
64
 62
53
  6
CONTINUOUS
  0
LAYER
  2
20
 70
64
 62
7
  6
CONTINUOUS
  0
LAYER
  2
22
 70
64
 62
253
  6
CONTINUOUS
  0
LAYER
  2
23
 70
64
 62
7
  6
CONTINUOUS
  0
LAYER
  2
24
 70
64
 62
7
  6
CONTINUOUS
  0
LAYER
  2
25
 70
64
 62
253
  6
CONTINUOUS
  0
LAYER
  2
26
 70
64
 62
253
  6
CONTINUOUS
  0
LAYER
  2
27
 70
64
 62
253
  6
CONTINUOUS
  0
LAYER
  2
28
 70
64
 62
253
  6
CONTINUOUS
  0
LAYER
  2
39
 70
64
 62
5
  6
CONTINUOUS
  0
LAYER
  2
40
 70
64
 62
1
  6
CONTINUOUS
  0
LAYER
  2
41
 70
64
 62
5
  6
CONTINUOUS
  0
LAYER
  2
42
 70
64
 62
1
  6
CONTINUOUS
  0
LAYER
  2
43
 70
64
 62
3
  6
CONTINUOUS
  0
LAYER
  2
45
 70
64
 62
253
  6
CONTINUOUS
  0
LAYER
  2
47
 70
64
 62
253
  6
CONTINUOUS
  0
LAYER
  2
48
 70
64
 62
253
  6
CONTINUOUS
  0
LAYER
  2
49
 70
64
 62
253
  6
CONTINUOUS
  0
LAYER
  2
51
 70
64
 62
253
  6
CONTINUOUS
  0
LAYER
  2
52
 70
64
 62
253
  6
CONTINUOUS
  0
LAYER
  2
100
 70
64
 62
1
  6
CONTINUOUS
  0
ENDTAB
  0
ENDSEC
  0
SECTION
  2
BLOCKS
  0
BLOCK
  8
0
  2
RECT
 70
64
 10
0.000000
 20
0.000000
 30
0.000000
  3
RECT
  0
SOLID
  8
0
 10
-0.500000
 20
-0.500000
 30
0.000000
 11
0.500000
 21
-0.500000
 31
0.000000
 12
-0.500000
 22
0.500000
 32
0.000000
 13
0.500000
 23
0.500000
 33
0.000000
  0
ENDBLK
  8
0
  0
BLOCK
  8
0
  2
PIE
 70
64
 10
0.000000
 20
0.000000
 30
0.000000
  3
PIE
  0
CIRCLE
  8
0
 10
0.000000
 20
0.000000
 30
0.000000
 40
0.500000
  0
ENDBLK
  8
0
  0
BLOCK
  8
0
  2
OCTAGONP
 70
64
 10
0.000000
 20
0.000000
 30
0.000000
  3
OCTAGONP
  0
POLYLINE
  8
0
 66
1
 10
0.000000
 20
0.000000
 30
0.000000
 40
0.000000
 41
0.000000
 70
1
  0
VERTEX
  8
0
 10
-0.500000
 20
-0.207107
 30
0.000000
  0
VERTEX
  8
0
 10
-0.500000
 20
0.207107
 30
0.000000
  0
VERTEX
  8
0
 10
-0.207107
 20
0.500000
 30
0.000000
  0
VERTEX
  8
0
 10
0.207107
 20
0.500000
 30
0.000000
  0
VERTEX
  8
0
 10
0.500000
 20
0.207107
 30
0.000000
  0
VERTEX
  8
0
 10
0.500000
 20
-0.207107
 30
0.000000
  0
VERTEX
  8
0
 10
0.207107
 20
-0.500000
 30
0.000000
  0
VERTEX
  8
0
 10
-0.207107
 20
-0.500000
 30
0.000000
  0
SEQEND
  8
0
  0
ENDBLK
  8
0
  0
BLOCK
  8
0
  2
SQUAREP
 70
64
 10
0.000000
 20
0.000000
 30
0.000000
  3
SQUAREP
  0
SOLID
  8
0
 10
-0.500000
 20
-0.500000
 30
0.000000
 11
0.500000
 21
-0.500000
 31
0.000000
 12
-0.500000
 22
0.500000
 32
0.000000
 13
0.500000
 23
0.500000
 33
0.000000
  0
ENDBLK
  8
0
  0
BLOCK
  8
0
  2
ROUNDP
 70
64
 10
0.000000
 20
0.000000
 30
0.000000
  3
ROUNDP
  0
CIRCLE
  8
0
 10
0.000000
 20
0.000000
 30
0.000000
 40
0.500000
  0
ENDBLK
  8
0
  0
BLOCK
  8
0
  2
ANNULUSP
 70
64
 10
0.000000
 20
0.000000
 30
0.000000
  3
ANNULUSP
  0
CIRCLE
  8
0
 10
0.000000
 20
0.000000
 30
0.000000
 40
0.500000
  0
ENDBLK
  8
0
  0
BLOCK
  8
0
  2
THERMALP
 70
64
 10
0.000000
 20
0.000000
 30
0.000000
  3
THERMALP
  0
LINE
  8
0
 10
-0.237868
 20
0.450000
 30
0.000000
 11
0.237868
 21
0.450000
 31
0.000000
  0
LINE
  8
0
 10
0.450000
 20
0.237868
 30
0.000000
 11
0.450000
 21
-0.237868
 31
0.000000
  0
LINE
  8
0
 10
0.237868
 20
-0.450000
 30
0.000000
 11
-0.237868
 21
-0.450000
 31
0.000000
  0
LINE
  8
0
 10
-0.450000
 20
-0.237868
 30
0.000000
 11
-0.450000
 21
0.237868
 31
0.000000
  0
ENDBLK
  8
0
  0
BLOCK
  8
0
  2
OCTAGONV
 70
64
 10
0.000000
 20
0.000000
 30
0.000000
  3
OCTAGONV
  0
POLYLINE
  8
0
 66
1
 10
0.000000
 20
0.000000
 30
0.000000
 40
0.000000
 41
0.000000
 70
1
  0
VERTEX
  8
0
 10
-0.500000
 20
-0.207107
 30
0.000000
  0
VERTEX
  8
0
 10
-0.500000
 20
0.207107
 30
0.000000
  0
VERTEX
  8
0
 10
-0.207107
 20
0.500000
 30
0.000000
  0
VERTEX
  8
0
 10
0.207107
 20
0.500000
 30
0.000000
  0
VERTEX
  8
0
 10
0.500000
 20
0.207107
 30
0.000000
  0
VERTEX
  8
0
 10
0.500000
 20
-0.207107
 30
0.000000
  0
VERTEX
  8
0
 10
0.207107
 20
-0.500000
 30
0.000000
  0
VERTEX
  8
0
 10
-0.207107
 20
-0.500000
 30
0.000000
  0
SEQEND
  8
0
  0
ENDBLK
  8
0
  0
BLOCK
  8
0
  2
SQUAREV
 70
64
 10
0.000000
 20
0.000000
 30
0.000000
  3
SQUAREV
  0
SOLID
  8
0
 10
-0.500000
 20
-0.500000
 30
0.000000
 11
0.500000
 21
-0.500000
 31
0.000000
 12
-0.500000
 22
0.500000
 32
0.000000
 13
0.500000
 23
0.500000
 33
0.000000
  0
ENDBLK
  8
0
  0
BLOCK
  8
0
  2
ROUNDV
 70
64
 10
0.000000
 20
0.000000
 30
0.000000
  3
ROUNDV
  0
CIRCLE
  8
0
 10
0.000000
 20
0.000000
 30
0.000000
 40
0.500000
  0
ENDBLK
  8
0
  0
BLOCK
  8
0
  2
ANNULUSV
 70
64
 10
0.000000
 20
0.000000
 30
0.000000
  3
ANNULUSV
  0
CIRCLE
  8
0
 10
0.000000
 20
0.000000
 30
0.000000
 40
0.500000
  0
ENDBLK
  8
0
  0
BLOCK
  8
0
  2
THERMALV
 70
64
 10
0.000000
 20
0.000000
 30
0.000000
  3
THERMALV
  0
LINE
  8
0
 10
-0.237868
 20
0.450000
 30
0.000000
 11
0.237868
 21
0.450000
 31
0.000000
  0
LINE
  8
0
 10
0.450000
 20
0.237868
 30
0.000000
 11
0.450000
 21
-0.237868
 31
0.000000
  0
LINE
  8
0
 10
0.237868
 20
-0.450000
 30
0.000000
 11
-0.237868
 21
-0.450000
 31
0.000000
  0
LINE
  8
0
 10
-0.450000
 20
-0.237868
 30
0.000000
 11
-0.450000
 21
0.237868
 31
0.000000
  0
ENDBLK
  8
0
  0
ENDSEC
  0
SECTION
  2
ENTITIES
  0
LINE
  8
20
 10
0.000000
 20
0.562000
 30
0.000000
 11
0.000000
 21
5.338000
 31
0.000000
  0
ARC
  8
20
 10
0.062000
 20
5.338000
 30
0.000000
 40
0.062000
 50
90.000000
 51
180.000000
  0
LINE
  8
20
 10
0.062000
 20
5.400000
 30
0.000000
 11
0.348000
 21
5.400000
 31
0.000000
  0
ARC
  8
20
 10
0.062000
 20
0.562000
 30
0.000000
 40
0.062000
 50
180.000000
 51
270.000000
  0
LINE
  8
20
 10
3.952000
 20
5.400000
 30
0.000000
 11
4.238000
 21
5.400000
 31
0.000000
  0
ARC
  8
20
 10
4.238000
 20
5.338000
 30
0.000000
 40
0.062000
 50
0.000000
 51
90.000000
  0
LINE
  8
20
 10
4.300000
 20
5.338000
 30
0.000000
 11
4.300000
 21
0.562000
 31
0.000000
  0
ARC
  8
20
 10
4.238000
 20
0.562000
 30
0.000000
 40
0.062000
 50
270.000000
 51
0.000000
  0
LINE
  8
20
 10
4.238000
 20
0.500000
 30
0.000000
 11
3.902000
 21
0.500000
 31
0.000000
  0
ARC
  8
20
 10
3.902000
 20
0.438000
 30
0.000000
 40
0.062000
 50
90.000000
 51
180.000000
  0
LINE
  8
20
 10
3.840000
 20
0.438000
 30
0.000000
 11
3.840000
 21
0.062000
 31
0.000000
  0
ARC
  8
20
 10
3.778000
 20
0.062000
 30
0.000000
 40
0.062000
 50
270.000000
 51
0.000000
  0
LINE
  8
20
 10
3.778000
 20
0.000000
 30
0.000000
 11
0.522000
 21
0.000000
 31
0.000000
  0
ARC
  8
20
 10
0.522000
 20
0.062000
 30
0.000000
 40
0.062000
 50
180.000000
 51
270.000000
  0
LINE
  8
20
 10
0.460000
 20
0.062000
 30
0.000000
 11
0.460000
 21
0.438000
 31
0.000000
  0
ARC
  8
20
 10
0.398000
 20
0.438000
 30
0.000000
 40
0.062000
 50
0.000000
 51
90.000000
  0
LINE
  8
20
 10
0.398000
 20
0.500000
 30
0.000000
 11
0.062000
 21
0.500000
 31
0.000000
  0
LINE
  8
20
 10
0.348000
 20
5.400000
 30
0.000000
 11
0.498000
 21
5.310000
 31
0.000000
  0
LINE
  8
20
 10
0.498000
 20
5.310000
 30
0.000000
 11
0.498000
 21
5.219000
 31
0.000000
  0
ARC
  8
20
 10
0.600000
 20
5.219000
 30
0.000000
 40
0.102000
 50
180.000000
 51
0.000000
  0
LINE
  8
20
 10
0.702000
 20
5.219000
 30
0.000000
 11
0.702000
 21
5.310000
 31
0.000000
  0
LINE
  8
20
 10
0.702000
 20
5.310000
 30
0.000000
 11
0.852000
 21
5.400000
 31
0.000000
  0
LINE
  8
20
 10
0.852000
 20
5.400000
 30
0.000000
 11
3.448000
 21
5.400000
 31
0.000000
  0
LINE
  8
20
 10
3.448000
 20
5.400000
 30
0.000000
 11
3.598000
 21
5.310000
 31
0.000000
  0
LINE
  8
20
 10
3.598000
 20
5.310000
 30
0.000000
 11
3.598000
 21
5.219000
 31
0.000000
  0
ARC
  8
20
 10
3.700000
 20
5.219000
 30
0.000000
 40
0.102000
 50
180.000000
 51
0.000000
  0
LINE
  8
20
 10
3.802000
 20
5.219000
 30
0.000000
 11
3.802000
 21
5.310000
 31
0.000000
  0
LINE
  8
20
 10
3.802000
 20
5.310000
 30
0.000000
 11
3.952000
 21
5.400000
 31
0.000000
  0
CIRCLE
  8
20
 10
0.200000
 20
0.900000
 30
0.000000
 40
0.064000
  0
CIRCLE
  8
20
 10
4.100000
 20
0.900000
 30
0.000000
 40
0.064000
  0
POINT
  8
23
 10
0.600000
 20
0.200000
 30
0.000000
  0
INSERT
  8
17
  2
ROUNDP
 10
2.200000
 20
0.300000
 30
0.000000
 41
0.060000
 42
0.060000
 43
1.000000
 50
90.000000
  0
INSERT
  8
17
  2
ROUNDP
 10
2.200000
 20
0.300000
 30
0.000000
 41
0.060000
 42
0.060000
 43
1.000000
 50
90.000000
  0
INSERT
  8
17
  2
ROUNDP
 10
2.100000
 20
0.300000
 30
0.000000
 41
0.060000
 42
0.060000
 43
1.000000
 50
90.000000
  0
INSERT
  8
17
  2
ROUNDP
 10
2.100000
 20
0.300000
 30
0.000000
 41
0.060000
 42
0.060000
 43
1.000000
 50
90.000000
  0
INSERT
  8
17
  2
ROUNDP
 10
2.000000
 20
0.300000
 30
0.000000
 41
0.060000
 42
0.060000
 43
1.000000
 50
90.000000
  0
INSERT
  8
17
  2
ROUNDP
 10
2.000000
 20
0.300000
 30
0.000000
 41
0.060000
 42
0.060000
 43
1.000000
 50
90.000000
  0
INSERT
  8
17
  2
ROUNDP
 10
1.900000
 20
0.300000
 30
0.000000
 41
0.060000
 42
0.060000
 43
1.000000
 50
90.000000
  0
INSERT
  8
17
  2
ROUNDP
 10
1.900000
 20
0.300000
 30
0.000000
 41
0.060000
 42
0.060000
 43
1.000000
 50
90.000000
  0
INSERT
  8
17
  2
ROUNDP
 10
1.800000
 20
0.300000
 30
0.000000
 41
0.060000
 42
0.060000
 43
1.000000
 50
90.000000
  0
INSERT
  8
17
  2
ROUNDP
 10
1.800000
 20
0.300000
 30
0.000000
 41
0.060000
 42
0.060000
 43
1.000000
 50
90.000000
  0
INSERT
  8
17
  2
ROUNDP
 10
1.700000
 20
0.300000
 30
0.000000
 41
0.060000
 42
0.060000
 43
1.000000
 50
90.000000
  0
INSERT
  8
17
  2
ROUNDP
 10
1.700000
 20
0.300000
 30
0.000000
 41
0.060000
 42
0.060000
 43
1.000000
 50
90.000000
  0
INSERT
  8
17
  2
ROUNDP
 10
1.600000
 20
0.300000
 30
0.000000
 41
0.060000
 42
0.060000
 43
1.000000
 50
90.000000
  0
INSERT
  8
17
  2
ROUNDP
 10
1.600000
 20
0.300000
 30
0.000000
 41
0.060000
 42
0.060000
 43
1.000000
 50
90.000000
  0
INSERT
  8
17
  2
ROUNDP
 10
1.500000
 20
0.300000
 30
0.000000
 41
0.060000
 42
0.060000
 43
1.000000
 50
90.000000
  0
INSERT
  8
17
  2
ROUNDP
 10
1.500000
 20
0.300000
 30
0.000000
 41
0.060000
 42
0.060000
 43
1.000000
 50
90.000000
  0
INSERT
  8
17
  2
ROUNDP
 10
1.400000
 20
0.300000
 30
0.000000
 41
0.060000
 42
0.060000
 43
1.000000
 50
90.000000
  0
INSERT
  8
17
  2
ROUNDP
 10
1.400000
 20
0.300000
 30
0.000000
 41
0.060000
 42
0.060000
 43
1.000000
 50
90.000000
  0
INSERT
  8
17
  2
ROUNDP
 10
2.300000
 20
0.300000
 30
0.000000
 41
0.060000
 42
0.060000
 43
1.000000
 50
90.000000
  0
INSERT
  8
17
  2
ROUNDP
 10
2.300000
 20
0.300000
 30
0.000000
 41
0.060000
 42
0.060000
 43
1.000000
 50
90.000000
  0
INSERT
  8
17
  2
ROUNDP
 10
2.400000
 20
0.300000
 30
0.000000
 41
0.060000
 42
0.060000
 43
1.000000
 50
90.000000
  0
INSERT
  8
17
  2
ROUNDP
 10
2.400000
 20
0.300000
 30
0.000000
 41
0.060000
 42
0.060000
 43
1.000000
 50
90.000000
  0
INSERT
  8
17
  2
ROUNDP
 10
2.500000
 20
0.300000
 30
0.000000
 41
0.060000
 42
0.060000
 43
1.000000
 50
90.000000
  0
INSERT
  8
17
  2
ROUNDP
 10
2.500000
 20
0.300000
 30
0.000000
 41
0.060000
 42
0.060000
 43
1.000000
 50
90.000000
  0
INSERT
  8
17
  2
ROUNDP
 10
2.600000
 20
0.300000
 30
0.000000
 41
0.060000
 42
0.060000
 43
1.000000
 50
90.000000
  0
INSERT
  8
17
  2
ROUNDP
 10
2.600000
 20
0.300000
 30
0.000000
 41
0.060000
 42
0.060000
 43
1.000000
 50
90.000000
  0
INSERT
  8
17
  2
ROUNDP
 10
2.700000
 20
0.300000
 30
0.000000
 41
0.060000
 42
0.060000
 43
1.000000
 50
90.000000
  0
INSERT
  8
17
  2
ROUNDP
 10
2.700000
 20
0.300000
 30
0.000000
 41
0.060000
 42
0.060000
 43
1.000000
 50
90.000000
  0
INSERT
  8
17
  2
ROUNDP
 10
2.800000
 20
0.300000
 30
0.000000
 41
0.060000
 42
0.060000
 43
1.000000
 50
90.000000
  0
INSERT
  8
17
  2
ROUNDP
 10
2.800000
 20
0.300000
 30
0.000000
 41
0.060000
 42
0.060000
 43
1.000000
 50
90.000000
  0
INSERT
  8
17
  2
ROUNDP
 10
2.900000
 20
0.300000
 30
0.000000
 41
0.060000
 42
0.060000
 43
1.000000
 50
90.000000
  0
INSERT
  8
17
  2
ROUNDP
 10
2.900000
 20
0.300000
 30
0.000000
 41
0.060000
 42
0.060000
 43
1.000000
 50
90.000000
  0
INSERT
  8
17
  2
ROUNDP
 10
3.000000
 20
0.300000
 30
0.000000
 41
0.060000
 42
0.060000
 43
1.000000
 50
90.000000
  0
INSERT
  8
17
  2
ROUNDP
 10
3.000000
 20
0.300000
 30
0.000000
 41
0.060000
 42
0.060000
 43
1.000000
 50
90.000000
  0
INSERT
  8
17
  2
ROUNDP
 10
3.100000
 20
0.300000
 30
0.000000
 41
0.060000
 42
0.060000
 43
1.000000
 50
90.000000
  0
INSERT
  8
17
  2
ROUNDP
 10
3.100000
 20
0.300000
 30
0.000000
 41
0.060000
 42
0.060000
 43
1.000000
 50
90.000000
  0
INSERT
  8
17
  2
ROUNDP
 10
3.200000
 20
0.300000
 30
0.000000
 41
0.060000
 42
0.060000
 43
1.000000
 50
90.000000
  0
INSERT
  8
17
  2
ROUNDP
 10
3.200000
 20
0.300000
 30
0.000000
 41
0.060000
 42
0.060000
 43
1.000000
 50
90.000000
  0
INSERT
  8
17
  2
ROUNDP
 10
3.300000
 20
0.300000
 30
0.000000
 41
0.060000
 42
0.060000
 43
1.000000
 50
90.000000
  0
INSERT
  8
17
  2
ROUNDP
 10
3.300000
 20
0.300000
 30
0.000000
 41
0.060000
 42
0.060000
 43
1.000000
 50
90.000000
  0
INSERT
  8
17
  2
ROUNDP
 10
3.400000
 20
0.300000
 30
0.000000
 41
0.060000
 42
0.060000
 43
1.000000
 50
90.000000
  0
INSERT
  8
17
  2
ROUNDP
 10
3.400000
 20
0.300000
 30
0.000000
 41
0.060000
 42
0.060000
 43
1.000000
 50
90.000000
  0
INSERT
  8
17
  2
ROUNDP
 10
3.500000
 20
0.300000
 30
0.000000
 41
0.060000
 42
0.060000
 43
1.000000
 50
90.000000
  0
INSERT
  8
17
  2
ROUNDP
 10
3.500000
 20
0.300000
 30
0.000000
 41
0.060000
 42
0.060000
 43
1.000000
 50
90.000000
  0
INSERT
  8
17
  2
ROUNDP
 10
3.600000
 20
0.300000
 30
0.000000
 41
0.060000
 42
0.060000
 43
1.000000
 50
90.000000
  0
INSERT
  8
17
  2
ROUNDP
 10
3.600000
 20
0.300000
 30
0.000000
 41
0.060000
 42
0.060000
 43
1.000000
 50
90.000000
  0
INSERT
  8
17
  2
ROUNDP
 10
3.700000
 20
0.300000
 30
0.000000
 41
0.060000
 42
0.060000
 43
1.000000
 50
90.000000
  0
INSERT
  8
17
  2
ROUNDP
 10
3.700000
 20
0.300000
 30
0.000000
 41
0.060000
 42
0.060000
 43
1.000000
 50
90.000000
  0
INSERT
  8
17
  2
ROUNDP
 10
1.300000
 20
0.300000
 30
0.000000
 41
0.060000
 42
0.060000
 43
1.000000
 50
90.000000
  0
INSERT
  8
17
  2
ROUNDP
 10
1.300000
 20
0.300000
 30
0.000000
 41
0.060000
 42
0.060000
 43
1.000000
 50
90.000000
  0
INSERT
  8
17
  2
ROUNDP
 10
1.200000
 20
0.300000
 30
0.000000
 41
0.060000
 42
0.060000
 43
1.000000
 50
90.000000
  0
INSERT
  8
17
  2
ROUNDP
 10
1.200000
 20
0.300000
 30
0.000000
 41
0.060000
 42
0.060000
 43
1.000000
 50
90.000000
  0
INSERT
  8
17
  2
ROUNDP
 10
1.100000
 20
0.300000
 30
0.000000
 41
0.060000
 42
0.060000
 43
1.000000
 50
90.000000
  0
INSERT
  8
17
  2
ROUNDP
 10
1.100000
 20
0.300000
 30
0.000000
 41
0.060000
 42
0.060000
 43
1.000000
 50
90.000000
  0
INSERT
  8
17
  2
ROUNDP
 10
1.000000
 20
0.300000
 30
0.000000
 41
0.060000
 42
0.060000
 43
1.000000
 50
90.000000
  0
INSERT
  8
17
  2
ROUNDP
 10
1.000000
 20
0.300000
 30
0.000000
 41
0.060000
 42
0.060000
 43
1.000000
 50
90.000000
  0
INSERT
  8
17
  2
ROUNDP
 10
0.900000
 20
0.300000
 30
0.000000
 41
0.060000
 42
0.060000
 43
1.000000
 50
90.000000
  0
INSERT
  8
17
  2
ROUNDP
 10
0.900000
 20
0.300000
 30
0.000000
 41
0.060000
 42
0.060000
 43
1.000000
 50
90.000000
  0
INSERT
  8
17
  2
ROUNDP
 10
0.800000
 20
0.300000
 30
0.000000
 41
0.060000
 42
0.060000
 43
1.000000
 50
90.000000
  0
INSERT
  8
17
  2
ROUNDP
 10
0.800000
 20
0.300000
 30
0.000000
 41
0.060000
 42
0.060000
 43
1.000000
 50
90.000000
  0
INSERT
  8
17
  2
ROUNDP
 10
0.700000
 20
0.300000
 30
0.000000
 41
0.060000
 42
0.060000
 43
1.000000
 50
90.000000
  0
INSERT
  8
17
  2
ROUNDP
 10
0.700000
 20
0.300000
 30
0.000000
 41
0.060000
 42
0.060000
 43
1.000000
 50
90.000000
  0
INSERT
  8
17
  2
ROUNDP
 10
0.600000
 20
0.300000
 30
0.000000
 41
0.060000
 42
0.060000
 43
1.000000
 50
90.000000
  0
INSERT
  8
17
  2
ROUNDP
 10
0.600000
 20
0.300000
 30
0.000000
 41
0.060000
 42
0.060000
 43
1.000000
 50
90.000000
  0
INSERT
  8
17
  2
ROUNDP
 10
2.200000
 20
0.200000
 30
0.000000
 41
0.060000
 42
0.060000
 43
1.000000
 50
90.000000
  0
INSERT
  8
17
  2
ROUNDP
 10
2.200000
 20
0.200000
 30
0.000000
 41
0.060000
 42
0.060000
 43
1.000000
 50
90.000000
  0
INSERT
  8
17
  2
ROUNDP
 10
2.100000
 20
0.200000
 30
0.000000
 41
0.060000
 42
0.060000
 43
1.000000
 50
90.000000
  0
INSERT
  8
17
  2
ROUNDP
 10
2.100000
 20
0.200000
 30
0.000000
 41
0.060000
 42
0.060000
 43
1.000000
 50
90.000000
  0
INSERT
  8
17
  2
ROUNDP
 10
2.000000
 20
0.200000
 30
0.000000
 41
0.060000
 42
0.060000
 43
1.000000
 50
90.000000
  0
INSERT
  8
17
  2
ROUNDP
 10
2.000000
 20
0.200000
 30
0.000000
 41
0.060000
 42
0.060000
 43
1.000000
 50
90.000000
  0
INSERT
  8
17
  2
ROUNDP
 10
1.900000
 20
0.200000
 30
0.000000
 41
0.060000
 42
0.060000
 43
1.000000
 50
90.000000
  0
INSERT
  8
17
  2
ROUNDP
 10
1.900000
 20
0.200000
 30
0.000000
 41
0.060000
 42
0.060000
 43
1.000000
 50
90.000000
  0
INSERT
  8
17
  2
ROUNDP
 10
1.800000
 20
0.200000
 30
0.000000
 41
0.060000
 42
0.060000
 43
1.000000
 50
90.000000
  0
INSERT
  8
17
  2
ROUNDP
 10
1.800000
 20
0.200000
 30
0.000000
 41
0.060000
 42
0.060000
 43
1.000000
 50
90.000000
  0
INSERT
  8
17
  2
ROUNDP
 10
1.700000
 20
0.200000
 30
0.000000
 41
0.060000
 42
0.060000
 43
1.000000
 50
90.000000
  0
INSERT
  8
17
  2
ROUNDP
 10
1.700000
 20
0.200000
 30
0.000000
 41
0.060000
 42
0.060000
 43
1.000000
 50
90.000000
  0
INSERT
  8
17
  2
ROUNDP
 10
1.600000
 20
0.200000
 30
0.000000
 41
0.060000
 42
0.060000
 43
1.000000
 50
90.000000
  0
INSERT
  8
17
  2
ROUNDP
 10
1.600000
 20
0.200000
 30
0.000000
 41
0.060000
 42
0.060000
 43
1.000000
 50
90.000000
  0
INSERT
  8
17
  2
ROUNDP
 10
1.500000
 20
0.200000
 30
0.000000
 41
0.060000
 42
0.060000
 43
1.000000
 50
90.000000
  0
INSERT
  8
17
  2
ROUNDP
 10
1.500000
 20
0.200000
 30
0.000000
 41
0.060000
 42
0.060000
 43
1.000000
 50
90.000000
  0
INSERT
  8
17
  2
ROUNDP
 10
1.400000
 20
0.200000
 30
0.000000
 41
0.060000
 42
0.060000
 43
1.000000
 50
90.000000
  0
INSERT
  8
17
  2
ROUNDP
 10
1.400000
 20
0.200000
 30
0.000000
 41
0.060000
 42
0.060000
 43
1.000000
 50
90.000000
  0
INSERT
  8
17
  2
ROUNDP
 10
2.300000
 20
0.200000
 30
0.000000
 41
0.060000
 42
0.060000
 43
1.000000
 50
90.000000
  0
INSERT
  8
17
  2
ROUNDP
 10
2.300000
 20
0.200000
 30
0.000000
 41
0.060000
 42
0.060000
 43
1.000000
 50
90.000000
  0
INSERT
  8
17
  2
ROUNDP
 10
2.400000
 20
0.200000
 30
0.000000
 41
0.060000
 42
0.060000
 43
1.000000
 50
90.000000
  0
INSERT
  8
17
  2
ROUNDP
 10
2.400000
 20
0.200000
 30
0.000000
 41
0.060000
 42
0.060000
 43
1.000000
 50
90.000000
  0
INSERT
  8
17
  2
ROUNDP
 10
2.500000
 20
0.200000
 30
0.000000
 41
0.060000
 42
0.060000
 43
1.000000
 50
90.000000
  0
INSERT
  8
17
  2
ROUNDP
 10
2.500000
 20
0.200000
 30
0.000000
 41
0.060000
 42
0.060000
 43
1.000000
 50
90.000000
  0
INSERT
  8
17
  2
ROUNDP
 10
2.600000
 20
0.200000
 30
0.000000
 41
0.060000
 42
0.060000
 43
1.000000
 50
90.000000
  0
INSERT
  8
17
  2
ROUNDP
 10
2.600000
 20
0.200000
 30
0.000000
 41
0.060000
 42
0.060000
 43
1.000000
 50
90.000000
  0
INSERT
  8
17
  2
ROUNDP
 10
2.700000
 20
0.200000
 30
0.000000
 41
0.060000
 42
0.060000
 43
1.000000
 50
90.000000
  0
INSERT
  8
17
  2
ROUNDP
 10
2.700000
 20
0.200000
 30
0.000000
 41
0.060000
 42
0.060000
 43
1.000000
 50
90.000000
  0
INSERT
  8
17
  2
ROUNDP
 10
2.800000
 20
0.200000
 30
0.000000
 41
0.060000
 42
0.060000
 43
1.000000
 50
90.000000
  0
INSERT
  8
17
  2
ROUNDP
 10
2.800000
 20
0.200000
 30
0.000000
 41
0.060000
 42
0.060000
 43
1.000000
 50
90.000000
  0
INSERT
  8
17
  2
ROUNDP
 10
2.900000
 20
0.200000
 30
0.000000
 41
0.060000
 42
0.060000
 43
1.000000
 50
90.000000
  0
INSERT
  8
17
  2
ROUNDP
 10
2.900000
 20
0.200000
 30
0.000000
 41
0.060000
 42
0.060000
 43
1.000000
 50
90.000000
  0
INSERT
  8
17
  2
ROUNDP
 10
3.000000
 20
0.200000
 30
0.000000
 41
0.060000
 42
0.060000
 43
1.000000
 50
90.000000
  0
INSERT
  8
17
  2
ROUNDP
 10
3.000000
 20
0.200000
 30
0.000000
 41
0.060000
 42
0.060000
 43
1.000000
 50
90.000000
  0
INSERT
  8
17
  2
ROUNDP
 10
3.100000
 20
0.200000
 30
0.000000
 41
0.060000
 42
0.060000
 43
1.000000
 50
90.000000
  0
INSERT
  8
17
  2
ROUNDP
 10
3.100000
 20
0.200000
 30
0.000000
 41
0.060000
 42
0.060000
 43
1.000000
 50
90.000000
  0
INSERT
  8
17
  2
ROUNDP
 10
3.200000
 20
0.200000
 30
0.000000
 41
0.060000
 42
0.060000
 43
1.000000
 50
90.000000
  0
INSERT
  8
17
  2
ROUNDP
 10
3.200000
 20
0.200000
 30
0.000000
 41
0.060000
 42
0.060000
 43
1.000000
 50
90.000000
  0
INSERT
  8
17
  2
ROUNDP
 10
3.300000
 20
0.200000
 30
0.000000
 41
0.060000
 42
0.060000
 43
1.000000
 50
90.000000
  0
INSERT
  8
17
  2
ROUNDP
 10
3.300000
 20
0.200000
 30
0.000000
 41
0.060000
 42
0.060000
 43
1.000000
 50
90.000000
  0
INSERT
  8
17
  2
ROUNDP
 10
3.400000
 20
0.200000
 30
0.000000
 41
0.060000
 42
0.060000
 43
1.000000
 50
90.000000
  0
INSERT
  8
17
  2
ROUNDP
 10
3.400000
 20
0.200000
 30
0.000000
 41
0.060000
 42
0.060000
 43
1.000000
 50
90.000000
  0
INSERT
  8
17
  2
ROUNDP
 10
3.500000
 20
0.200000
 30
0.000000
 41
0.060000
 42
0.060000
 43
1.000000
 50
90.000000
  0
INSERT
  8
17
  2
ROUNDP
 10
3.500000
 20
0.200000
 30
0.000000
 41
0.060000
 42
0.060000
 43
1.000000
 50
90.000000
  0
INSERT
  8
17
  2
ROUNDP
 10
3.600000
 20
0.200000
 30
0.000000
 41
0.060000
 42
0.060000
 43
1.000000
 50
90.000000
  0
INSERT
  8
17
  2
ROUNDP
 10
3.600000
 20
0.200000
 30
0.000000
 41
0.060000
 42
0.060000
 43
1.000000
 50
90.000000
  0
INSERT
  8
17
  2
ROUNDP
 10
3.700000
 20
0.200000
 30
0.000000
 41
0.060000
 42
0.060000
 43
1.000000
 50
90.000000
  0
INSERT
  8
17
  2
ROUNDP
 10
3.700000
 20
0.200000
 30
0.000000
 41
0.060000
 42
0.060000
 43
1.000000
 50
90.000000
  0
INSERT
  8
17
  2
ROUNDP
 10
1.300000
 20
0.200000
 30
0.000000
 41
0.060000
 42
0.060000
 43
1.000000
 50
90.000000
  0
INSERT
  8
17
  2
ROUNDP
 10
1.300000
 20
0.200000
 30
0.000000
 41
0.060000
 42
0.060000
 43
1.000000
 50
90.000000
  0
INSERT
  8
17
  2
ROUNDP
 10
1.200000
 20
0.200000
 30
0.000000
 41
0.060000
 42
0.060000
 43
1.000000
 50
90.000000
  0
INSERT
  8
17
  2
ROUNDP
 10
1.200000
 20
0.200000
 30
0.000000
 41
0.060000
 42
0.060000
 43
1.000000
 50
90.000000
  0
INSERT
  8
17
  2
ROUNDP
 10
1.100000
 20
0.200000
 30
0.000000
 41
0.060000
 42
0.060000
 43
1.000000
 50
90.000000
  0
INSERT
  8
17
  2
ROUNDP
 10
1.100000
 20
0.200000
 30
0.000000
 41
0.060000
 42
0.060000
 43
1.000000
 50
90.000000
  0
INSERT
  8
17
  2
ROUNDP
 10
1.000000
 20
0.200000
 30
0.000000
 41
0.060000
 42
0.060000
 43
1.000000
 50
90.000000
  0
INSERT
  8
17
  2
ROUNDP
 10
1.000000
 20
0.200000
 30
0.000000
 41
0.060000
 42
0.060000
 43
1.000000
 50
90.000000
  0
INSERT
  8
17
  2
ROUNDP
 10
0.900000
 20
0.200000
 30
0.000000
 41
0.060000
 42
0.060000
 43
1.000000
 50
90.000000
  0
INSERT
  8
17
  2
ROUNDP
 10
0.900000
 20
0.200000
 30
0.000000
 41
0.060000
 42
0.060000
 43
1.000000
 50
90.000000
  0
INSERT
  8
17
  2
ROUNDP
 10
0.800000
 20
0.200000
 30
0.000000
 41
0.060000
 42
0.060000
 43
1.000000
 50
90.000000
  0
INSERT
  8
17
  2
ROUNDP
 10
0.800000
 20
0.200000
 30
0.000000
 41
0.060000
 42
0.060000
 43
1.000000
 50
90.000000
  0
INSERT
  8
17
  2
ROUNDP
 10
0.700000
 20
0.200000
 30
0.000000
 41
0.060000
 42
0.060000
 43
1.000000
 50
90.000000
  0
INSERT
  8
17
  2
ROUNDP
 10
0.700000
 20
0.200000
 30
0.000000
 41
0.060000
 42
0.060000
 43
1.000000
 50
90.000000
  0
INSERT
  8
17
  2
ROUNDP
 10
0.600000
 20
0.200000
 30
0.000000
 41
0.060000
 42
0.060000
 43
1.000000
 50
90.000000
  0
INSERT
  8
17
  2
ROUNDP
 10
0.600000
 20
0.200000
 30
0.000000
 41
0.060000
 42
0.060000
 43
1.000000
 50
90.000000
  0
ENDSEC
  0
EOF
