G04 #@! TF.GenerationSoftware,KiCad,Pcbnew,9.0.0*
G04 #@! TF.CreationDate,2025-03-27T12:33:13+01:00*
G04 #@! TF.ProjectId,Cabletester_CB_Diamler_2,4361626c-6574-4657-9374-65725f43425f,rev?*
G04 #@! TF.SameCoordinates,PX1c9c380PY1c9c380*
G04 #@! TF.FileFunction,Soldermask,Bot*
G04 #@! TF.FilePolarity,Negative*
%FSLAX46Y46*%
G04 Gerber Fmt 4.6, Leading zero omitted, Abs format (unit mm)*
G04 Created by KiCad (PCBNEW 9.0.0) date 2025-03-27 12:33:13*
%MOMM*%
%LPD*%
G01*
G04 APERTURE LIST*
%ADD10C,0.000000*%
%ADD11C,1.420000*%
%ADD12C,2.500000*%
%ADD13C,1.125000*%
%ADD14R,1.500000X1.500000*%
%ADD15C,1.500000*%
%ADD16C,2.100000*%
%ADD17C,1.250000*%
%ADD18C,2.300000*%
%ADD19O,1.408000X2.708001*%
%ADD20O,2.008000X2.108000*%
%ADD21O,1.808000X2.208000*%
%ADD22O,1.408000X2.608001*%
%ADD23C,5.000000*%
%ADD24R,1.600000X1.600000*%
%ADD25C,1.600000*%
G04 #@! TA.AperFunction,Profile*
%ADD26C,0.050000*%
G04 #@! TD*
G04 APERTURE END LIST*
D10*
G04 #@! TO.C,Logo2*
G36*
X11039375Y-75479473D02*
G01*
X10293250Y-75765223D01*
X11039375Y-76043036D01*
X11039375Y-76439911D01*
X9761437Y-75923973D01*
X9761437Y-75606473D01*
X11039375Y-75090536D01*
X11039375Y-75479473D01*
G37*
G36*
X7190747Y-76964904D02*
G01*
X7210434Y-76966304D01*
X7229669Y-76968266D01*
X7248457Y-76970792D01*
X7266801Y-76973884D01*
X7284706Y-76977542D01*
X7302176Y-76981769D01*
X7319217Y-76986566D01*
X7335831Y-76991933D01*
X7352024Y-76997874D01*
X7367800Y-77004388D01*
X7383163Y-77011478D01*
X7398118Y-77019145D01*
X7412669Y-77027390D01*
X7426820Y-77036215D01*
X7440575Y-77045622D01*
X7453940Y-77055612D01*
X7466918Y-77066185D01*
X7479514Y-77077345D01*
X7491732Y-77089091D01*
X7503576Y-77101427D01*
X7515051Y-77114352D01*
X7526162Y-77127869D01*
X7536912Y-77141979D01*
X7547306Y-77156683D01*
X7557348Y-77171983D01*
X7567043Y-77187881D01*
X7585408Y-77221474D01*
X7602436Y-77257473D01*
X7602436Y-76979661D01*
X8023125Y-76979661D01*
X8023125Y-78479848D01*
X7602436Y-78479848D01*
X7602436Y-77709911D01*
X7601949Y-77687305D01*
X7600495Y-77665617D01*
X7598080Y-77644833D01*
X7594716Y-77624939D01*
X7590409Y-77605924D01*
X7585170Y-77587773D01*
X7579006Y-77570474D01*
X7571927Y-77554013D01*
X7563940Y-77538378D01*
X7555056Y-77523556D01*
X7545282Y-77509533D01*
X7534627Y-77496296D01*
X7523100Y-77483832D01*
X7510710Y-77472129D01*
X7497465Y-77461172D01*
X7483374Y-77450950D01*
X7468446Y-77441448D01*
X7452690Y-77432655D01*
X7436114Y-77424555D01*
X7418727Y-77417138D01*
X7381555Y-77404296D01*
X7341244Y-77394023D01*
X7297863Y-77386215D01*
X7251482Y-77380768D01*
X7202171Y-77377576D01*
X7150000Y-77376536D01*
X7150000Y-76963786D01*
X7190747Y-76964904D01*
G37*
G36*
X10610749Y-76701848D02*
G01*
X10610749Y-76979661D01*
X10785374Y-76979661D01*
X10785374Y-77289223D01*
X10610749Y-77289223D01*
X10610749Y-78043286D01*
X10608976Y-78098073D01*
X10606753Y-78124141D01*
X10603633Y-78149326D01*
X10599613Y-78173626D01*
X10594686Y-78197044D01*
X10588850Y-78219577D01*
X10582100Y-78241227D01*
X10574431Y-78261993D01*
X10565839Y-78281876D01*
X10556320Y-78300874D01*
X10545870Y-78318990D01*
X10534483Y-78336221D01*
X10522156Y-78352569D01*
X10508884Y-78368033D01*
X10494663Y-78382614D01*
X10479489Y-78396311D01*
X10463357Y-78409124D01*
X10446263Y-78421053D01*
X10428202Y-78432099D01*
X10409171Y-78442261D01*
X10389164Y-78451540D01*
X10368178Y-78459935D01*
X10346207Y-78467446D01*
X10323249Y-78474073D01*
X10299297Y-78479817D01*
X10274349Y-78484677D01*
X10248399Y-78488654D01*
X10221444Y-78491747D01*
X10193478Y-78493956D01*
X10134499Y-78495723D01*
X10115344Y-78495541D01*
X10096595Y-78495010D01*
X10078288Y-78494154D01*
X10060457Y-78492995D01*
X10043138Y-78491557D01*
X10026366Y-78489863D01*
X10010175Y-78487937D01*
X9994601Y-78485801D01*
X9979677Y-78483480D01*
X9965440Y-78480995D01*
X9939162Y-78475631D01*
X9916047Y-78469895D01*
X9905763Y-78466946D01*
X9896374Y-78463973D01*
X9896374Y-78138536D01*
X9911303Y-78144117D01*
X9918855Y-78146628D01*
X9926512Y-78148954D01*
X9934308Y-78151093D01*
X9942278Y-78153046D01*
X9950458Y-78154814D01*
X9958882Y-78156395D01*
X9967585Y-78157790D01*
X9976602Y-78158999D01*
X9985968Y-78160023D01*
X9995717Y-78160860D01*
X10005885Y-78161511D01*
X10016507Y-78161976D01*
X10039250Y-78162348D01*
X10048761Y-78162185D01*
X10057948Y-78161697D01*
X10066813Y-78160883D01*
X10075356Y-78159743D01*
X10083580Y-78158278D01*
X10091485Y-78156488D01*
X10099073Y-78154372D01*
X10106347Y-78151930D01*
X10113306Y-78149163D01*
X10119952Y-78146070D01*
X10126288Y-78142652D01*
X10132314Y-78138908D01*
X10138032Y-78134838D01*
X10143443Y-78130443D01*
X10148549Y-78125722D01*
X10153351Y-78120676D01*
X10157851Y-78115304D01*
X10162050Y-78109607D01*
X10165950Y-78103584D01*
X10169552Y-78097236D01*
X10172857Y-78090562D01*
X10175867Y-78083562D01*
X10178584Y-78076237D01*
X10181009Y-78068586D01*
X10183142Y-78060610D01*
X10184987Y-78052308D01*
X10186544Y-78043681D01*
X10187814Y-78034728D01*
X10189502Y-78015846D01*
X10190062Y-77995661D01*
X10190062Y-77289223D01*
X9904312Y-77289223D01*
X9904312Y-76979661D01*
X10190062Y-76979661D01*
X10190062Y-76527223D01*
X10610749Y-76701848D01*
G37*
G36*
X8753375Y-77908348D02*
G01*
X8753721Y-77925208D01*
X8754747Y-77941554D01*
X8756436Y-77957385D01*
X8758770Y-77972701D01*
X8761732Y-77987499D01*
X8765305Y-78001779D01*
X8769470Y-78015538D01*
X8774211Y-78028775D01*
X8779510Y-78041489D01*
X8785350Y-78053679D01*
X8791713Y-78065342D01*
X8798582Y-78076478D01*
X8805939Y-78087084D01*
X8813767Y-78097160D01*
X8822048Y-78106705D01*
X8830766Y-78115716D01*
X8839902Y-78124191D01*
X8849439Y-78132131D01*
X8859360Y-78139533D01*
X8869647Y-78146396D01*
X8880283Y-78152718D01*
X8891250Y-78158498D01*
X8902532Y-78163734D01*
X8914109Y-78168425D01*
X8925966Y-78172570D01*
X8938085Y-78176167D01*
X8950447Y-78179215D01*
X8963037Y-78181711D01*
X8975835Y-78183656D01*
X8988826Y-78185047D01*
X9001991Y-78185882D01*
X9015312Y-78186161D01*
X9041264Y-78185227D01*
X9053612Y-78184055D01*
X9065542Y-78182409D01*
X9077053Y-78180287D01*
X9088145Y-78177685D01*
X9098819Y-78174600D01*
X9109074Y-78171030D01*
X9118911Y-78166972D01*
X9128329Y-78162422D01*
X9137328Y-78157378D01*
X9145909Y-78151837D01*
X9154071Y-78145797D01*
X9161815Y-78139253D01*
X9169140Y-78132203D01*
X9176047Y-78124645D01*
X9182535Y-78116575D01*
X9188604Y-78107991D01*
X9194255Y-78098889D01*
X9199487Y-78089268D01*
X9204301Y-78079122D01*
X9208696Y-78068451D01*
X9212672Y-78057251D01*
X9216230Y-78045518D01*
X9219370Y-78033251D01*
X9222090Y-78020446D01*
X9226276Y-77993211D01*
X9228788Y-77963791D01*
X9229625Y-77932161D01*
X9229625Y-76979661D01*
X9650312Y-76979661D01*
X9650312Y-77987723D01*
X9649735Y-78019931D01*
X9648018Y-78051072D01*
X9645185Y-78081149D01*
X9641259Y-78110166D01*
X9636263Y-78138124D01*
X9630221Y-78165027D01*
X9623155Y-78190877D01*
X9615090Y-78215678D01*
X9606048Y-78239433D01*
X9596052Y-78262145D01*
X9585127Y-78283815D01*
X9573294Y-78304448D01*
X9560578Y-78324046D01*
X9547001Y-78342613D01*
X9532587Y-78360150D01*
X9517359Y-78376661D01*
X9501341Y-78392149D01*
X9484555Y-78406616D01*
X9467025Y-78420067D01*
X9448775Y-78432502D01*
X9429826Y-78443927D01*
X9410203Y-78454342D01*
X9389929Y-78463752D01*
X9369028Y-78472159D01*
X9347521Y-78479566D01*
X9325433Y-78485976D01*
X9302787Y-78491392D01*
X9279607Y-78495816D01*
X9255914Y-78499253D01*
X9231734Y-78501704D01*
X9207088Y-78503172D01*
X9182000Y-78503661D01*
X9161397Y-78503338D01*
X9141257Y-78502378D01*
X9121579Y-78500796D01*
X9102362Y-78498607D01*
X9083604Y-78495825D01*
X9065304Y-78492464D01*
X9047460Y-78488539D01*
X9030072Y-78484065D01*
X9013136Y-78479056D01*
X8996653Y-78473527D01*
X8980620Y-78467492D01*
X8965037Y-78460966D01*
X8949901Y-78453963D01*
X8935211Y-78446498D01*
X8920966Y-78438585D01*
X8907164Y-78430239D01*
X8893804Y-78421474D01*
X8880885Y-78412306D01*
X8868404Y-78402748D01*
X8856361Y-78392815D01*
X8844754Y-78382521D01*
X8833582Y-78371882D01*
X8822842Y-78360911D01*
X8812534Y-78349624D01*
X8802657Y-78338034D01*
X8793208Y-78326156D01*
X8775591Y-78301595D01*
X8759671Y-78276058D01*
X8745438Y-78249661D01*
X8745438Y-78471911D01*
X8332687Y-78471911D01*
X8332687Y-76979661D01*
X8753375Y-76979661D01*
X8753375Y-77908348D01*
G37*
G36*
X11433785Y-76948234D02*
G01*
X11454667Y-76949194D01*
X11475084Y-76950775D01*
X11495037Y-76952965D01*
X11514524Y-76955747D01*
X11533546Y-76959108D01*
X11552103Y-76963032D01*
X11570195Y-76967506D01*
X11587821Y-76972515D01*
X11604983Y-76978045D01*
X11621680Y-76984080D01*
X11637911Y-76990606D01*
X11653678Y-76997609D01*
X11668979Y-77005074D01*
X11683816Y-77012987D01*
X11698187Y-77021333D01*
X11712093Y-77030097D01*
X11725534Y-77039266D01*
X11738510Y-77048824D01*
X11751021Y-77058757D01*
X11763067Y-77069050D01*
X11774647Y-77079690D01*
X11785763Y-77090660D01*
X11796413Y-77101948D01*
X11806599Y-77113538D01*
X11816319Y-77125415D01*
X11825575Y-77137566D01*
X11834365Y-77149976D01*
X11842690Y-77162630D01*
X11850550Y-77175513D01*
X11864875Y-77201911D01*
X11864875Y-76979661D01*
X12285563Y-76979661D01*
X12285563Y-78471911D01*
X11864876Y-78471911D01*
X11864876Y-77559098D01*
X11864530Y-77541541D01*
X11863504Y-77524585D01*
X11861815Y-77508228D01*
X11859481Y-77492467D01*
X11856519Y-77477298D01*
X11852946Y-77462720D01*
X11848781Y-77448729D01*
X11844040Y-77435323D01*
X11838741Y-77422498D01*
X11832901Y-77410251D01*
X11826538Y-77398579D01*
X11819669Y-77387481D01*
X11812312Y-77376952D01*
X11804484Y-77366990D01*
X11796203Y-77357592D01*
X11787485Y-77348755D01*
X11778349Y-77340475D01*
X11768812Y-77332752D01*
X11758891Y-77325580D01*
X11748604Y-77318958D01*
X11737968Y-77312882D01*
X11727000Y-77307350D01*
X11715719Y-77302359D01*
X11704141Y-77297905D01*
X11692284Y-77293986D01*
X11680166Y-77290599D01*
X11667803Y-77287741D01*
X11655214Y-77285410D01*
X11642415Y-77283601D01*
X11629425Y-77282313D01*
X11602938Y-77281286D01*
X11575589Y-77282220D01*
X11562608Y-77283392D01*
X11550088Y-77285037D01*
X11538028Y-77287160D01*
X11526425Y-77289762D01*
X11515279Y-77292847D01*
X11504587Y-77296417D01*
X11494349Y-77300475D01*
X11484563Y-77305025D01*
X11475228Y-77310068D01*
X11466341Y-77315609D01*
X11457903Y-77321650D01*
X11449910Y-77328194D01*
X11442362Y-77335243D01*
X11435258Y-77342801D01*
X11428595Y-77350871D01*
X11422373Y-77359455D01*
X11416590Y-77368557D01*
X11411244Y-77378179D01*
X11406334Y-77388324D01*
X11401859Y-77398996D01*
X11397817Y-77410196D01*
X11394206Y-77421928D01*
X11391026Y-77434196D01*
X11388274Y-77447000D01*
X11384052Y-77474235D01*
X11381527Y-77503656D01*
X11380688Y-77535286D01*
X11380688Y-78471911D01*
X10960000Y-78471911D01*
X10960000Y-77471786D01*
X10960532Y-77438857D01*
X10962116Y-77407040D01*
X10964735Y-77376330D01*
X10968372Y-77346724D01*
X10973008Y-77318216D01*
X10978627Y-77290803D01*
X10985211Y-77264479D01*
X10992742Y-77239242D01*
X11001204Y-77215086D01*
X11010578Y-77192006D01*
X11020848Y-77170000D01*
X11031995Y-77149061D01*
X11044003Y-77129187D01*
X11056854Y-77110372D01*
X11070531Y-77092612D01*
X11085015Y-77075903D01*
X11100291Y-77060240D01*
X11116339Y-77045620D01*
X11133143Y-77032037D01*
X11150686Y-77019488D01*
X11168949Y-77007967D01*
X11187916Y-76997472D01*
X11207569Y-76987996D01*
X11227890Y-76979537D01*
X11248863Y-76972089D01*
X11270469Y-76965648D01*
X11292691Y-76960210D01*
X11315513Y-76955771D01*
X11338915Y-76952325D01*
X11362882Y-76949870D01*
X11387395Y-76948400D01*
X11412437Y-76947911D01*
X11433785Y-76948234D01*
G37*
G36*
X13928577Y-77583112D02*
G01*
X13932987Y-77626705D01*
X13935662Y-77671620D01*
X13936562Y-77717848D01*
X13936562Y-77749598D01*
X13935707Y-77795758D01*
X13933159Y-77840475D01*
X13928949Y-77883746D01*
X13923106Y-77925572D01*
X13915658Y-77965950D01*
X13906634Y-78004879D01*
X13896064Y-78042358D01*
X13883976Y-78078384D01*
X13870401Y-78112958D01*
X13855366Y-78146076D01*
X13838901Y-78177738D01*
X13821035Y-78207942D01*
X13801796Y-78236688D01*
X13781215Y-78263972D01*
X13759320Y-78289794D01*
X13736141Y-78314153D01*
X13711705Y-78337047D01*
X13686043Y-78358474D01*
X13659183Y-78378433D01*
X13631155Y-78396923D01*
X13601987Y-78413942D01*
X13571709Y-78429489D01*
X13540349Y-78443562D01*
X13507937Y-78456160D01*
X13474502Y-78467281D01*
X13440073Y-78476924D01*
X13404679Y-78485088D01*
X13368349Y-78491770D01*
X13331112Y-78496970D01*
X13292997Y-78500686D01*
X13254033Y-78502917D01*
X13214250Y-78503661D01*
X13178230Y-78503038D01*
X13143101Y-78501186D01*
X13108870Y-78498134D01*
X13075545Y-78493910D01*
X13043133Y-78488539D01*
X13011640Y-78482052D01*
X12981075Y-78474474D01*
X12951444Y-78465834D01*
X12922755Y-78456159D01*
X12895016Y-78445476D01*
X12868232Y-78433815D01*
X12842412Y-78421201D01*
X12817563Y-78407663D01*
X12793692Y-78393228D01*
X12770807Y-78377924D01*
X12748914Y-78361778D01*
X12728021Y-78344818D01*
X12708135Y-78327073D01*
X12689264Y-78308568D01*
X12671415Y-78289333D01*
X12654594Y-78269394D01*
X12638810Y-78248779D01*
X12624069Y-78227516D01*
X12610380Y-78205632D01*
X12597748Y-78183156D01*
X12586181Y-78160114D01*
X12575687Y-78136534D01*
X12566273Y-78112444D01*
X12557947Y-78087872D01*
X12550714Y-78062844D01*
X12544583Y-78037390D01*
X12539562Y-78011535D01*
X12928499Y-78011535D01*
X12935108Y-78030680D01*
X12943041Y-78049347D01*
X12952324Y-78067433D01*
X12962978Y-78084833D01*
X12975028Y-78101443D01*
X12988496Y-78117157D01*
X13003406Y-78131871D01*
X13019781Y-78145481D01*
X13037644Y-78157881D01*
X13057019Y-78168968D01*
X13067280Y-78173986D01*
X13077929Y-78178636D01*
X13088966Y-78182905D01*
X13100396Y-78186781D01*
X13112221Y-78190249D01*
X13124445Y-78193298D01*
X13137070Y-78195913D01*
X13150099Y-78198082D01*
X13163534Y-78199792D01*
X13177380Y-78201030D01*
X13191638Y-78201782D01*
X13206312Y-78202036D01*
X13238392Y-78200811D01*
X13269099Y-78197075D01*
X13298365Y-78190734D01*
X13312435Y-78186558D01*
X13326119Y-78181696D01*
X13339407Y-78176136D01*
X13352292Y-78169867D01*
X13364763Y-78162877D01*
X13376814Y-78155155D01*
X13388434Y-78146688D01*
X13399615Y-78137466D01*
X13410348Y-78127476D01*
X13420625Y-78116707D01*
X13430437Y-78105148D01*
X13439775Y-78092786D01*
X13448630Y-78079611D01*
X13456995Y-78065610D01*
X13464859Y-78050772D01*
X13472215Y-78035084D01*
X13479053Y-78018537D01*
X13485365Y-78001118D01*
X13491142Y-77982814D01*
X13496376Y-77963616D01*
X13505178Y-77922487D01*
X13511701Y-77877637D01*
X13515875Y-77828973D01*
X12539563Y-77828973D01*
X12539563Y-77646411D01*
X12540462Y-77600387D01*
X12543130Y-77556069D01*
X12543636Y-77551161D01*
X12952312Y-77551161D01*
X13507937Y-77551161D01*
X13504707Y-77529322D01*
X13500980Y-77508441D01*
X13496771Y-77488498D01*
X13492093Y-77469476D01*
X13486962Y-77451355D01*
X13481392Y-77434116D01*
X13475398Y-77417740D01*
X13468994Y-77402209D01*
X13462194Y-77387503D01*
X13455014Y-77373604D01*
X13447468Y-77360492D01*
X13439569Y-77348150D01*
X13431334Y-77336557D01*
X13422776Y-77325696D01*
X13413910Y-77315547D01*
X13404750Y-77306091D01*
X13395311Y-77297309D01*
X13385607Y-77289183D01*
X13375654Y-77281693D01*
X13365465Y-77274821D01*
X13355056Y-77268548D01*
X13344439Y-77262855D01*
X13333631Y-77257723D01*
X13322646Y-77253133D01*
X13311498Y-77249066D01*
X13300202Y-77245503D01*
X13277222Y-77239816D01*
X13253825Y-77235919D01*
X13230124Y-77233661D01*
X13199623Y-77234785D01*
X13170655Y-77238188D01*
X13156762Y-77240758D01*
X13143269Y-77243916D01*
X13130184Y-77247667D01*
X13117511Y-77252016D01*
X13105257Y-77256971D01*
X13093428Y-77262535D01*
X13082028Y-77268716D01*
X13071065Y-77275519D01*
X13060543Y-77282950D01*
X13050469Y-77291014D01*
X13040849Y-77299718D01*
X13031687Y-77309067D01*
X13022991Y-77319068D01*
X13014766Y-77329725D01*
X13007017Y-77341045D01*
X12999751Y-77353033D01*
X12992974Y-77365696D01*
X12986690Y-77379040D01*
X12980907Y-77393069D01*
X12975629Y-77407790D01*
X12970863Y-77423208D01*
X12966614Y-77439330D01*
X12962888Y-77456162D01*
X12959692Y-77473708D01*
X12954909Y-77510969D01*
X12952312Y-77551161D01*
X12543636Y-77551161D01*
X12547522Y-77513440D01*
X12553593Y-77472483D01*
X12561297Y-77433184D01*
X12570590Y-77395525D01*
X12581426Y-77359491D01*
X12593761Y-77325066D01*
X12607549Y-77292234D01*
X12622746Y-77260979D01*
X12639305Y-77231285D01*
X12657183Y-77203135D01*
X12676335Y-77176515D01*
X12696714Y-77151408D01*
X12718276Y-77127798D01*
X12740977Y-77105669D01*
X12764770Y-77085004D01*
X12789611Y-77065789D01*
X12815455Y-77048007D01*
X12842257Y-77031642D01*
X12869972Y-77016678D01*
X12898554Y-77003099D01*
X12927959Y-76990890D01*
X12958142Y-76980033D01*
X12989057Y-76970513D01*
X13020659Y-76962315D01*
X13052904Y-76955422D01*
X13085746Y-76949818D01*
X13153042Y-76942413D01*
X13222187Y-76939973D01*
X13259853Y-76940786D01*
X13296921Y-76943215D01*
X13333353Y-76947253D01*
X13369109Y-76952887D01*
X13404149Y-76960109D01*
X13438436Y-76968908D01*
X13471929Y-76979273D01*
X13504589Y-76991195D01*
X13536377Y-77004663D01*
X13567254Y-77019668D01*
X13597180Y-77036199D01*
X13626116Y-77054245D01*
X13654024Y-77073798D01*
X13680863Y-77094846D01*
X13706595Y-77117379D01*
X13731180Y-77141387D01*
X13754579Y-77166861D01*
X13776752Y-77193789D01*
X13797662Y-77222162D01*
X13817267Y-77251970D01*
X13835530Y-77283202D01*
X13852410Y-77315848D01*
X13867870Y-77349898D01*
X13881868Y-77385341D01*
X13894366Y-77422169D01*
X13905326Y-77460370D01*
X13914707Y-77499934D01*
X13922470Y-77540851D01*
X13923960Y-77551161D01*
X13928577Y-77583112D01*
G37*
G36*
X7015014Y-77583112D02*
G01*
X7019425Y-77626705D01*
X7022100Y-77671620D01*
X7023000Y-77717848D01*
X7023000Y-77749598D01*
X7022145Y-77795758D01*
X7019597Y-77840475D01*
X7015387Y-77883746D01*
X7009544Y-77925572D01*
X7002095Y-77965950D01*
X6993072Y-78004879D01*
X6982502Y-78042358D01*
X6970414Y-78078384D01*
X6956838Y-78112958D01*
X6941803Y-78146076D01*
X6925338Y-78177738D01*
X6907472Y-78207942D01*
X6888234Y-78236688D01*
X6867653Y-78263972D01*
X6845758Y-78289794D01*
X6822578Y-78314153D01*
X6798142Y-78337047D01*
X6772480Y-78358474D01*
X6745620Y-78378433D01*
X6717592Y-78396923D01*
X6688424Y-78413942D01*
X6658146Y-78429489D01*
X6626786Y-78443562D01*
X6594374Y-78456160D01*
X6560939Y-78467281D01*
X6526510Y-78476924D01*
X6491116Y-78485088D01*
X6454786Y-78491770D01*
X6417549Y-78496970D01*
X6379434Y-78500686D01*
X6340470Y-78502917D01*
X6300687Y-78503661D01*
X6264689Y-78503038D01*
X6229624Y-78501186D01*
X6195491Y-78498134D01*
X6162292Y-78493910D01*
X6130030Y-78488539D01*
X6098705Y-78482052D01*
X6068319Y-78474474D01*
X6038874Y-78465834D01*
X6010370Y-78456159D01*
X5982810Y-78445476D01*
X5956194Y-78433815D01*
X5930524Y-78421201D01*
X5905802Y-78407663D01*
X5882029Y-78393228D01*
X5859207Y-78377924D01*
X5837336Y-78361778D01*
X5816419Y-78344818D01*
X5796457Y-78327073D01*
X5777451Y-78308568D01*
X5759403Y-78289333D01*
X5742314Y-78269394D01*
X5726186Y-78248779D01*
X5711020Y-78227516D01*
X5696818Y-78205632D01*
X5683580Y-78183156D01*
X5671309Y-78160114D01*
X5660007Y-78136534D01*
X5649673Y-78112444D01*
X5640311Y-78087872D01*
X5631920Y-78062844D01*
X5624504Y-78037390D01*
X5618063Y-78011535D01*
X6007001Y-78011535D01*
X6013609Y-78030680D01*
X6021542Y-78049347D01*
X6030824Y-78067433D01*
X6041479Y-78084833D01*
X6053528Y-78101443D01*
X6066996Y-78117157D01*
X6081906Y-78131871D01*
X6098281Y-78145481D01*
X6116145Y-78157881D01*
X6135519Y-78168968D01*
X6145781Y-78173986D01*
X6156429Y-78178636D01*
X6167467Y-78182905D01*
X6178897Y-78186781D01*
X6190722Y-78190249D01*
X6202946Y-78193298D01*
X6215570Y-78195913D01*
X6228599Y-78198082D01*
X6242035Y-78199792D01*
X6255880Y-78201030D01*
X6270139Y-78201782D01*
X6284813Y-78202036D01*
X6316892Y-78200811D01*
X6347599Y-78197075D01*
X6376865Y-78190734D01*
X6390935Y-78186558D01*
X6404619Y-78181696D01*
X6417907Y-78176136D01*
X6430792Y-78169867D01*
X6443263Y-78162877D01*
X6455314Y-78155155D01*
X6466934Y-78146688D01*
X6478115Y-78137466D01*
X6488848Y-78127476D01*
X6499125Y-78116707D01*
X6508937Y-78105148D01*
X6518275Y-78092786D01*
X6527130Y-78079611D01*
X6535495Y-78065610D01*
X6543359Y-78050772D01*
X6550715Y-78035084D01*
X6557553Y-78018537D01*
X6563865Y-78001118D01*
X6569642Y-77982814D01*
X6574876Y-77963616D01*
X6583678Y-77922487D01*
X6590200Y-77877637D01*
X6594374Y-77828973D01*
X5626000Y-77828973D01*
X5626000Y-77646411D01*
X5626900Y-77600387D01*
X5629568Y-77556069D01*
X5630074Y-77551161D01*
X6038750Y-77551161D01*
X6602313Y-77551161D01*
X6598362Y-77529322D01*
X6593959Y-77508441D01*
X6589117Y-77488498D01*
X6583849Y-77469476D01*
X6578168Y-77451355D01*
X6572088Y-77434116D01*
X6565621Y-77417740D01*
X6558781Y-77402209D01*
X6551580Y-77387503D01*
X6544031Y-77373604D01*
X6536149Y-77360492D01*
X6527945Y-77348150D01*
X6519433Y-77336557D01*
X6510626Y-77325696D01*
X6501538Y-77315547D01*
X6492180Y-77306091D01*
X6482566Y-77297309D01*
X6472710Y-77289183D01*
X6462624Y-77281693D01*
X6452322Y-77274821D01*
X6441816Y-77268548D01*
X6431120Y-77262855D01*
X6420246Y-77257723D01*
X6409208Y-77253133D01*
X6398019Y-77249066D01*
X6386692Y-77245503D01*
X6363676Y-77239816D01*
X6340264Y-77235919D01*
X6316562Y-77233661D01*
X6286060Y-77234785D01*
X6257093Y-77238188D01*
X6243199Y-77240758D01*
X6229707Y-77243916D01*
X6216621Y-77247667D01*
X6203949Y-77252016D01*
X6191695Y-77256971D01*
X6179865Y-77262535D01*
X6168466Y-77268716D01*
X6157502Y-77275519D01*
X6146980Y-77282950D01*
X6136906Y-77291014D01*
X6127286Y-77299718D01*
X6118125Y-77309067D01*
X6109429Y-77319068D01*
X6101203Y-77329725D01*
X6093455Y-77341045D01*
X6086189Y-77353033D01*
X6079411Y-77365696D01*
X6073128Y-77379040D01*
X6067344Y-77393069D01*
X6062066Y-77407790D01*
X6057300Y-77423208D01*
X6053051Y-77439330D01*
X6049326Y-77456162D01*
X6046129Y-77473708D01*
X6041347Y-77510969D01*
X6038750Y-77551161D01*
X5630074Y-77551161D01*
X5633960Y-77513440D01*
X5640031Y-77472483D01*
X5647735Y-77433184D01*
X5657028Y-77395525D01*
X5667864Y-77359491D01*
X5680199Y-77325066D01*
X5693987Y-77292234D01*
X5709183Y-77260979D01*
X5725743Y-77231285D01*
X5743621Y-77203135D01*
X5762772Y-77176515D01*
X5783152Y-77151408D01*
X5804714Y-77127798D01*
X5827415Y-77105669D01*
X5851208Y-77085004D01*
X5876049Y-77065789D01*
X5901893Y-77048007D01*
X5928695Y-77031642D01*
X5956410Y-77016678D01*
X5984992Y-77003099D01*
X6014397Y-76990890D01*
X6044580Y-76980033D01*
X6075495Y-76970513D01*
X6107097Y-76962315D01*
X6139342Y-76955422D01*
X6172184Y-76949818D01*
X6239481Y-76942413D01*
X6308626Y-76939973D01*
X6346291Y-76940786D01*
X6383360Y-76943215D01*
X6419791Y-76947253D01*
X6455547Y-76952887D01*
X6490588Y-76960109D01*
X6524874Y-76968908D01*
X6558367Y-76979273D01*
X6591027Y-76991195D01*
X6622815Y-77004663D01*
X6653692Y-77019668D01*
X6683618Y-77036199D01*
X6712555Y-77054245D01*
X6740462Y-77073798D01*
X6767301Y-77094846D01*
X6793033Y-77117379D01*
X6817618Y-77141387D01*
X6841017Y-77166861D01*
X6863191Y-77193789D01*
X6884100Y-77222162D01*
X6903705Y-77251970D01*
X6921968Y-77283202D01*
X6938849Y-77315848D01*
X6954308Y-77349898D01*
X6968306Y-77385341D01*
X6980804Y-77422169D01*
X6991764Y-77460370D01*
X7001145Y-77499934D01*
X7008908Y-77540851D01*
X7010398Y-77551161D01*
X7015014Y-77583112D01*
G37*
G36*
X16370654Y-76940763D02*
G01*
X16407113Y-76943128D01*
X16443019Y-76947063D01*
X16478329Y-76952562D01*
X16513000Y-76959619D01*
X16546988Y-76968228D01*
X16580249Y-76978383D01*
X16612740Y-76990079D01*
X16644417Y-77003310D01*
X16675236Y-77018070D01*
X16705154Y-77034353D01*
X16734128Y-77052153D01*
X16762113Y-77071465D01*
X16789066Y-77092282D01*
X16814944Y-77114600D01*
X16839703Y-77138411D01*
X16863299Y-77163711D01*
X16885688Y-77190493D01*
X16906828Y-77218752D01*
X16926674Y-77248482D01*
X16945183Y-77279677D01*
X16962312Y-77312331D01*
X16978015Y-77346438D01*
X16992252Y-77381993D01*
X17004976Y-77418990D01*
X17016145Y-77457423D01*
X17025716Y-77497285D01*
X17033644Y-77538573D01*
X17039887Y-77581278D01*
X17044399Y-77625397D01*
X17047139Y-77670922D01*
X17048062Y-77717849D01*
X17048062Y-77741661D01*
X17047184Y-77788542D01*
X17044574Y-77833934D01*
X17040266Y-77877839D01*
X17034295Y-77920255D01*
X17026697Y-77961182D01*
X17017506Y-78000622D01*
X17006756Y-78038573D01*
X16994484Y-78075036D01*
X16980723Y-78110010D01*
X16965509Y-78143497D01*
X16948876Y-78175495D01*
X16930860Y-78206005D01*
X16911495Y-78235026D01*
X16890816Y-78262559D01*
X16868858Y-78288604D01*
X16845656Y-78313161D01*
X16821244Y-78336229D01*
X16795659Y-78357809D01*
X16768934Y-78377901D01*
X16741104Y-78396505D01*
X16712205Y-78413620D01*
X16682270Y-78429247D01*
X16651336Y-78443385D01*
X16619437Y-78456036D01*
X16586608Y-78467198D01*
X16552883Y-78476872D01*
X16518298Y-78485057D01*
X16482887Y-78491755D01*
X16446686Y-78496964D01*
X16409729Y-78500684D01*
X16372051Y-78502917D01*
X16333687Y-78503661D01*
X16296248Y-78502967D01*
X16259839Y-78500901D01*
X16224464Y-78497487D01*
X16190130Y-78492747D01*
X16156842Y-78486705D01*
X16124607Y-78479383D01*
X16093429Y-78470806D01*
X16063316Y-78460997D01*
X16034272Y-78449978D01*
X16006304Y-78437773D01*
X15979417Y-78424406D01*
X15953617Y-78409899D01*
X15928910Y-78394276D01*
X15905302Y-78377560D01*
X15882799Y-78359774D01*
X15861406Y-78340942D01*
X15841129Y-78321087D01*
X15821974Y-78300231D01*
X15803947Y-78278399D01*
X15787054Y-78255614D01*
X15771300Y-78231898D01*
X15756691Y-78207276D01*
X15743234Y-78181770D01*
X15730933Y-78155403D01*
X15719795Y-78128199D01*
X15709826Y-78100182D01*
X15701031Y-78071373D01*
X15693416Y-78041797D01*
X15686987Y-78011478D01*
X15681750Y-77980437D01*
X15677711Y-77948698D01*
X15674875Y-77916286D01*
X16055875Y-77916286D01*
X16058339Y-77931725D01*
X16061260Y-77946786D01*
X16064632Y-77961460D01*
X16068448Y-77975740D01*
X16072699Y-77989618D01*
X16077379Y-78003089D01*
X16082481Y-78016143D01*
X16087997Y-78028775D01*
X16093920Y-78040977D01*
X16100242Y-78052741D01*
X16106957Y-78064060D01*
X16114057Y-78074927D01*
X16121535Y-78085335D01*
X16129384Y-78095277D01*
X16137596Y-78104745D01*
X16146164Y-78113731D01*
X16155081Y-78122229D01*
X16164339Y-78130232D01*
X16173932Y-78137732D01*
X16183851Y-78144722D01*
X16194091Y-78151194D01*
X16204643Y-78157141D01*
X16215500Y-78162557D01*
X16226655Y-78167433D01*
X16238101Y-78171763D01*
X16249830Y-78175539D01*
X16261835Y-78178755D01*
X16274109Y-78181401D01*
X16286645Y-78183473D01*
X16299435Y-78184961D01*
X16312473Y-78185860D01*
X16325750Y-78186161D01*
X16360531Y-78184572D01*
X16393405Y-78179774D01*
X16409112Y-78176157D01*
X16424325Y-78171720D01*
X16439038Y-78166458D01*
X16453246Y-78160364D01*
X16466942Y-78153433D01*
X16480120Y-78145659D01*
X16492775Y-78137037D01*
X16504902Y-78127560D01*
X16516493Y-78117222D01*
X16527544Y-78106018D01*
X16538048Y-78093943D01*
X16548000Y-78080989D01*
X16557393Y-78067152D01*
X16566223Y-78052425D01*
X16574484Y-78036803D01*
X16582168Y-78020279D01*
X16589271Y-78002849D01*
X16595787Y-77984506D01*
X16607035Y-77945059D01*
X16615864Y-77901891D01*
X16622228Y-77854956D01*
X16626080Y-77804208D01*
X16627375Y-77749598D01*
X16627375Y-77701974D01*
X16627005Y-77674882D01*
X16625906Y-77648673D01*
X16624091Y-77623344D01*
X16621577Y-77598895D01*
X16618376Y-77575323D01*
X16614503Y-77552628D01*
X16609974Y-77530808D01*
X16604802Y-77509861D01*
X16599003Y-77489787D01*
X16592590Y-77470583D01*
X16585578Y-77452248D01*
X16577982Y-77434781D01*
X16569817Y-77418180D01*
X16561096Y-77402443D01*
X16551834Y-77387571D01*
X16542047Y-77373560D01*
X16531747Y-77360409D01*
X16520951Y-77348117D01*
X16509672Y-77336683D01*
X16497925Y-77326105D01*
X16485725Y-77316382D01*
X16473086Y-77307511D01*
X16460022Y-77299493D01*
X16446549Y-77292324D01*
X16432680Y-77286005D01*
X16418430Y-77280532D01*
X16403814Y-77275906D01*
X16388847Y-77272124D01*
X16373542Y-77269185D01*
X16357914Y-77267087D01*
X16341979Y-77265830D01*
X16325750Y-77265411D01*
X16312541Y-77265689D01*
X16299703Y-77266516D01*
X16287234Y-77267883D01*
X16275133Y-77269783D01*
X16263398Y-77272206D01*
X16252027Y-77275143D01*
X16241021Y-77278586D01*
X16230376Y-77282526D01*
X16220091Y-77286955D01*
X16210166Y-77291863D01*
X16200598Y-77297242D01*
X16191386Y-77303083D01*
X16182529Y-77309378D01*
X16174024Y-77316117D01*
X16165872Y-77323293D01*
X16158070Y-77330896D01*
X16150617Y-77338917D01*
X16143511Y-77347348D01*
X16136751Y-77356180D01*
X16130335Y-77365405D01*
X16124263Y-77375013D01*
X16118532Y-77384997D01*
X16108089Y-77406054D01*
X16098994Y-77428506D01*
X16091237Y-77452283D01*
X16084805Y-77477317D01*
X16079687Y-77503536D01*
X15682812Y-77503536D01*
X15686504Y-77467700D01*
X15691604Y-77433112D01*
X15698079Y-77399766D01*
X15705896Y-77367653D01*
X15715021Y-77336767D01*
X15725420Y-77307101D01*
X15737061Y-77278646D01*
X15749909Y-77251397D01*
X15763932Y-77225345D01*
X15779095Y-77200483D01*
X15795366Y-77176804D01*
X15812711Y-77154302D01*
X15831097Y-77132967D01*
X15850490Y-77112795D01*
X15870857Y-77093776D01*
X15892164Y-77075903D01*
X15914378Y-77059171D01*
X15937465Y-77043570D01*
X15961393Y-77029094D01*
X15986127Y-77015736D01*
X16011634Y-77003489D01*
X16037882Y-76992344D01*
X16064835Y-76982296D01*
X16092462Y-76973336D01*
X16149600Y-76958653D01*
X16209028Y-76948237D01*
X16270480Y-76942030D01*
X16333687Y-76939974D01*
X16370654Y-76940763D01*
G37*
G36*
X14814905Y-76940763D02*
G01*
X14851363Y-76943128D01*
X14887269Y-76947063D01*
X14922580Y-76952562D01*
X14957250Y-76959619D01*
X14991238Y-76968228D01*
X15024499Y-76978383D01*
X15056990Y-76990079D01*
X15088667Y-77003310D01*
X15119486Y-77018070D01*
X15149404Y-77034353D01*
X15178378Y-77052153D01*
X15206363Y-77071465D01*
X15233316Y-77092282D01*
X15259194Y-77114600D01*
X15283953Y-77138411D01*
X15307549Y-77163711D01*
X15329938Y-77190493D01*
X15351078Y-77218752D01*
X15370924Y-77248482D01*
X15389433Y-77279677D01*
X15406562Y-77312331D01*
X15422266Y-77346438D01*
X15436502Y-77381993D01*
X15449226Y-77418990D01*
X15460396Y-77457423D01*
X15469966Y-77497285D01*
X15477894Y-77538573D01*
X15484137Y-77581278D01*
X15488650Y-77625397D01*
X15491389Y-77670922D01*
X15492312Y-77717849D01*
X15492312Y-77741661D01*
X15491434Y-77788542D01*
X15488824Y-77833934D01*
X15484516Y-77877839D01*
X15478546Y-77920255D01*
X15470947Y-77961182D01*
X15461756Y-78000622D01*
X15451007Y-78038573D01*
X15438734Y-78075036D01*
X15424973Y-78110010D01*
X15409759Y-78143497D01*
X15393126Y-78175495D01*
X15375110Y-78206005D01*
X15355745Y-78235026D01*
X15335066Y-78262559D01*
X15313108Y-78288604D01*
X15289906Y-78313161D01*
X15265495Y-78336229D01*
X15239909Y-78357809D01*
X15213184Y-78377901D01*
X15185354Y-78396505D01*
X15156455Y-78413620D01*
X15126521Y-78429247D01*
X15095586Y-78443385D01*
X15063687Y-78456036D01*
X15030858Y-78467198D01*
X14997133Y-78476872D01*
X14962548Y-78485057D01*
X14927137Y-78491755D01*
X14890936Y-78496964D01*
X14853979Y-78500684D01*
X14816301Y-78502917D01*
X14777937Y-78503661D01*
X14740499Y-78502967D01*
X14704089Y-78500901D01*
X14668714Y-78497487D01*
X14634380Y-78492747D01*
X14601093Y-78486705D01*
X14568857Y-78479383D01*
X14537680Y-78470806D01*
X14507566Y-78460997D01*
X14478522Y-78449978D01*
X14450554Y-78437773D01*
X14423667Y-78424406D01*
X14397868Y-78409899D01*
X14373161Y-78394276D01*
X14349553Y-78377560D01*
X14327049Y-78359774D01*
X14305656Y-78340942D01*
X14285379Y-78321087D01*
X14266224Y-78300231D01*
X14248197Y-78278399D01*
X14231304Y-78255614D01*
X14215550Y-78231898D01*
X14200941Y-78207276D01*
X14187484Y-78181770D01*
X14175183Y-78155403D01*
X14164045Y-78128199D01*
X14154076Y-78100182D01*
X14145281Y-78071373D01*
X14137666Y-78041797D01*
X14131237Y-78011478D01*
X14126000Y-77980437D01*
X14121961Y-77948698D01*
X14119124Y-77916286D01*
X14500124Y-77916286D01*
X14502588Y-77931725D01*
X14505510Y-77946786D01*
X14508882Y-77961460D01*
X14512697Y-77975740D01*
X14516949Y-77989618D01*
X14521629Y-78003089D01*
X14526731Y-78016143D01*
X14532247Y-78028775D01*
X14538169Y-78040977D01*
X14544492Y-78052741D01*
X14551207Y-78064060D01*
X14558307Y-78074927D01*
X14565785Y-78085335D01*
X14573634Y-78095277D01*
X14581846Y-78104745D01*
X14590414Y-78113731D01*
X14599330Y-78122229D01*
X14608589Y-78130232D01*
X14618182Y-78137732D01*
X14628101Y-78144722D01*
X14638341Y-78151194D01*
X14648893Y-78157141D01*
X14659750Y-78162557D01*
X14670905Y-78167433D01*
X14682351Y-78171763D01*
X14694080Y-78175539D01*
X14706085Y-78178755D01*
X14718359Y-78181401D01*
X14730895Y-78183473D01*
X14743685Y-78184961D01*
X14756722Y-78185860D01*
X14769999Y-78186161D01*
X14804780Y-78184572D01*
X14837654Y-78179774D01*
X14853362Y-78176157D01*
X14868575Y-78171720D01*
X14883288Y-78166458D01*
X14897495Y-78160364D01*
X14911191Y-78153433D01*
X14924370Y-78145659D01*
X14937025Y-78137037D01*
X14949151Y-78127560D01*
X14960743Y-78117222D01*
X14971793Y-78106018D01*
X14982297Y-78093943D01*
X14992249Y-78080989D01*
X15001643Y-78067152D01*
X15010473Y-78052425D01*
X15018733Y-78036803D01*
X15026418Y-78020279D01*
X15033521Y-78002849D01*
X15040037Y-77984506D01*
X15051285Y-77945059D01*
X15060114Y-77901891D01*
X15066478Y-77854956D01*
X15070330Y-77804208D01*
X15071624Y-77749598D01*
X15071624Y-77701974D01*
X15071255Y-77674882D01*
X15070156Y-77648673D01*
X15068341Y-77623344D01*
X15065826Y-77598895D01*
X15062626Y-77575323D01*
X15058753Y-77552628D01*
X15054224Y-77530808D01*
X15049052Y-77509861D01*
X15043253Y-77489787D01*
X15036840Y-77470583D01*
X15029828Y-77452248D01*
X15022232Y-77434781D01*
X15014066Y-77418180D01*
X15005346Y-77402443D01*
X14996084Y-77387571D01*
X14986296Y-77373560D01*
X14975997Y-77360409D01*
X14965201Y-77348117D01*
X14953922Y-77336683D01*
X14942175Y-77326105D01*
X14929975Y-77316382D01*
X14917335Y-77307511D01*
X14904272Y-77299493D01*
X14890798Y-77292324D01*
X14876929Y-77286005D01*
X14862680Y-77280532D01*
X14848064Y-77275906D01*
X14833096Y-77272124D01*
X14817792Y-77269185D01*
X14802164Y-77267087D01*
X14786229Y-77265830D01*
X14769999Y-77265411D01*
X14756791Y-77265689D01*
X14743953Y-77266516D01*
X14731484Y-77267883D01*
X14719382Y-77269783D01*
X14707647Y-77272206D01*
X14696277Y-77275143D01*
X14685270Y-77278586D01*
X14674625Y-77282526D01*
X14664341Y-77286955D01*
X14654415Y-77291863D01*
X14644847Y-77297242D01*
X14635636Y-77303083D01*
X14626778Y-77309378D01*
X14618274Y-77316117D01*
X14610122Y-77323293D01*
X14602320Y-77330896D01*
X14594867Y-77338917D01*
X14587761Y-77347348D01*
X14581001Y-77356180D01*
X14574585Y-77365405D01*
X14568513Y-77375013D01*
X14562782Y-77384997D01*
X14552338Y-77406054D01*
X14543244Y-77428506D01*
X14535487Y-77452283D01*
X14529055Y-77477317D01*
X14523937Y-77503536D01*
X14127062Y-77503536D01*
X14130754Y-77467700D01*
X14135854Y-77433112D01*
X14142329Y-77399766D01*
X14150146Y-77367653D01*
X14159271Y-77336767D01*
X14169670Y-77307101D01*
X14181311Y-77278646D01*
X14194159Y-77251397D01*
X14208182Y-77225345D01*
X14223345Y-77200483D01*
X14239616Y-77176804D01*
X14256961Y-77154302D01*
X14275347Y-77132967D01*
X14294740Y-77112795D01*
X14315107Y-77093776D01*
X14336414Y-77075903D01*
X14358628Y-77059171D01*
X14381715Y-77043570D01*
X14405643Y-77029094D01*
X14430377Y-77015736D01*
X14455884Y-77003489D01*
X14482132Y-76992344D01*
X14509085Y-76982296D01*
X14536712Y-76973336D01*
X14593850Y-76958653D01*
X14653278Y-76948237D01*
X14714730Y-76942030D01*
X14777937Y-76939974D01*
X14814905Y-76940763D01*
G37*
G36*
X18587937Y-78051223D02*
G01*
X18587937Y-78067098D01*
X18587291Y-78094888D01*
X18585375Y-78121707D01*
X18582221Y-78147561D01*
X18577860Y-78172456D01*
X18572325Y-78196398D01*
X18565648Y-78219391D01*
X18557860Y-78241443D01*
X18548994Y-78262559D01*
X18539081Y-78282745D01*
X18528154Y-78302006D01*
X18516244Y-78320349D01*
X18503384Y-78337779D01*
X18489605Y-78354303D01*
X18474940Y-78369925D01*
X18459420Y-78384652D01*
X18443078Y-78398489D01*
X18425944Y-78411443D01*
X18408053Y-78423518D01*
X18389434Y-78434722D01*
X18370121Y-78445060D01*
X18350145Y-78454537D01*
X18329538Y-78463159D01*
X18286560Y-78477864D01*
X18241443Y-78489220D01*
X18194442Y-78497274D01*
X18145813Y-78502072D01*
X18095812Y-78503661D01*
X18077394Y-78503384D01*
X18059347Y-78502564D01*
X18041669Y-78501215D01*
X18024359Y-78499351D01*
X18007415Y-78496987D01*
X17990836Y-78494138D01*
X17974620Y-78490818D01*
X17958766Y-78487042D01*
X17943273Y-78482823D01*
X17928138Y-78478178D01*
X17913361Y-78473120D01*
X17898940Y-78467663D01*
X17884874Y-78461823D01*
X17871161Y-78455613D01*
X17857800Y-78449049D01*
X17844789Y-78442145D01*
X17832126Y-78434915D01*
X17819811Y-78427375D01*
X17796218Y-78411418D01*
X17773996Y-78394392D01*
X17753135Y-78376413D01*
X17733623Y-78357596D01*
X17715448Y-78338058D01*
X17698598Y-78317916D01*
X17683062Y-78297286D01*
X17683062Y-78471911D01*
X17278250Y-78471911D01*
X17278250Y-77836911D01*
X17698937Y-77836911D01*
X17698937Y-77979786D01*
X17699306Y-77993715D01*
X17700398Y-78007226D01*
X17702194Y-78020318D01*
X17704673Y-78032992D01*
X17707815Y-78045247D01*
X17711599Y-78057084D01*
X17716005Y-78068501D01*
X17721013Y-78079501D01*
X17726603Y-78090082D01*
X17732753Y-78100244D01*
X17739444Y-78109987D01*
X17746655Y-78119312D01*
X17754366Y-78128219D01*
X17762557Y-78136707D01*
X17771207Y-78144776D01*
X17780296Y-78152427D01*
X17789804Y-78159659D01*
X17799710Y-78166472D01*
X17809994Y-78172867D01*
X17820635Y-78178844D01*
X17842909Y-78189541D01*
X17866369Y-78198563D01*
X17890852Y-78205912D01*
X17916195Y-78211586D01*
X17942236Y-78215586D01*
X17968812Y-78217911D01*
X17981974Y-78217703D01*
X17994675Y-78217084D01*
X18006916Y-78216060D01*
X18018700Y-78214640D01*
X18030032Y-78212830D01*
X18040912Y-78210638D01*
X18051345Y-78208072D01*
X18061333Y-78205137D01*
X18070880Y-78201842D01*
X18079987Y-78198193D01*
X18088659Y-78194199D01*
X18096897Y-78189866D01*
X18104705Y-78185202D01*
X18112086Y-78180214D01*
X18119043Y-78174909D01*
X18125578Y-78169294D01*
X18131694Y-78163377D01*
X18137395Y-78157165D01*
X18142683Y-78150665D01*
X18147561Y-78143885D01*
X18152032Y-78136831D01*
X18156099Y-78129512D01*
X18159765Y-78121933D01*
X18163033Y-78114104D01*
X18165905Y-78106030D01*
X18168385Y-78097719D01*
X18170476Y-78089178D01*
X18172179Y-78080416D01*
X18173500Y-78071438D01*
X18174439Y-78062252D01*
X18175000Y-78052866D01*
X18175187Y-78043286D01*
X18175187Y-78027411D01*
X18174885Y-78014993D01*
X18173978Y-78003035D01*
X18172466Y-77991533D01*
X18170350Y-77980484D01*
X18167629Y-77969882D01*
X18164304Y-77959723D01*
X18160374Y-77950004D01*
X18155839Y-77940719D01*
X18150700Y-77931864D01*
X18144956Y-77923435D01*
X18138608Y-77915427D01*
X18131655Y-77907837D01*
X18124097Y-77900659D01*
X18115935Y-77893890D01*
X18107168Y-77887525D01*
X18097796Y-77881560D01*
X18087820Y-77875989D01*
X18077239Y-77870810D01*
X18054264Y-77861607D01*
X18028870Y-77853916D01*
X18001058Y-77847701D01*
X17970827Y-77842928D01*
X17938178Y-77839562D01*
X17903111Y-77837568D01*
X17865624Y-77836911D01*
X17698937Y-77836911D01*
X17278250Y-77836911D01*
X17278250Y-77471786D01*
X17279012Y-77437460D01*
X17281278Y-77404424D01*
X17285019Y-77372663D01*
X17290202Y-77342166D01*
X17296799Y-77312918D01*
X17304777Y-77284908D01*
X17314107Y-77258121D01*
X17324758Y-77232544D01*
X17336700Y-77208166D01*
X17349902Y-77184972D01*
X17364334Y-77162949D01*
X17379964Y-77142085D01*
X17396763Y-77122366D01*
X17414701Y-77103779D01*
X17433745Y-77086311D01*
X17453867Y-77069950D01*
X17475035Y-77054681D01*
X17497219Y-77040492D01*
X17520388Y-77027370D01*
X17544512Y-77015302D01*
X17569561Y-77004274D01*
X17595503Y-76994274D01*
X17649948Y-76977304D01*
X17707601Y-76964288D01*
X17768220Y-76955120D01*
X17831559Y-76949695D01*
X17897375Y-76947911D01*
X17961801Y-76949775D01*
X17993181Y-76952110D01*
X18023971Y-76955383D01*
X18054146Y-76959598D01*
X18083677Y-76964758D01*
X18112540Y-76970866D01*
X18140709Y-76977924D01*
X18168156Y-76985936D01*
X18194856Y-76994904D01*
X18220784Y-77004831D01*
X18245911Y-77015720D01*
X18270214Y-77027575D01*
X18293664Y-77040397D01*
X18316237Y-77054191D01*
X18337906Y-77068958D01*
X18358644Y-77084701D01*
X18378427Y-77101425D01*
X18397226Y-77119130D01*
X18415017Y-77137822D01*
X18431774Y-77157501D01*
X18447469Y-77178172D01*
X18462077Y-77199837D01*
X18475572Y-77222499D01*
X18487927Y-77246160D01*
X18499117Y-77270825D01*
X18509115Y-77296496D01*
X18517895Y-77323175D01*
X18525431Y-77350865D01*
X18531696Y-77379570D01*
X18536665Y-77409293D01*
X18540312Y-77440036D01*
X18143437Y-77440036D01*
X18141203Y-77419584D01*
X18137468Y-77399945D01*
X18132223Y-77381191D01*
X18129029Y-77372166D01*
X18125454Y-77363389D01*
X18121494Y-77354868D01*
X18117150Y-77346611D01*
X18112419Y-77338628D01*
X18107300Y-77330926D01*
X18101791Y-77323515D01*
X18095892Y-77316404D01*
X18089600Y-77309600D01*
X18082914Y-77303114D01*
X18075832Y-77296953D01*
X18068354Y-77291126D01*
X18060478Y-77285643D01*
X18052202Y-77280511D01*
X18043525Y-77275739D01*
X18034446Y-77271337D01*
X18024962Y-77267312D01*
X18015073Y-77263674D01*
X18004777Y-77260432D01*
X17994072Y-77257593D01*
X17982958Y-77255168D01*
X17971432Y-77253163D01*
X17959494Y-77251589D01*
X17947141Y-77250454D01*
X17934373Y-77249767D01*
X17921187Y-77249536D01*
X17906582Y-77249791D01*
X17892530Y-77250553D01*
X17879024Y-77251818D01*
X17866059Y-77253582D01*
X17853628Y-77255840D01*
X17841727Y-77258588D01*
X17830349Y-77261821D01*
X17819488Y-77265535D01*
X17809139Y-77269726D01*
X17799295Y-77274389D01*
X17789952Y-77279520D01*
X17781103Y-77285115D01*
X17772742Y-77291169D01*
X17764863Y-77297678D01*
X17757462Y-77304638D01*
X17750531Y-77312044D01*
X17744065Y-77319891D01*
X17738059Y-77328176D01*
X17732506Y-77336895D01*
X17727400Y-77346042D01*
X17722737Y-77355613D01*
X17718510Y-77365604D01*
X17714712Y-77376011D01*
X17711339Y-77386830D01*
X17708385Y-77398055D01*
X17705844Y-77409683D01*
X17701976Y-77434129D01*
X17699689Y-77460133D01*
X17698937Y-77487661D01*
X17698937Y-77559098D01*
X17881500Y-77559098D01*
X17953528Y-77560614D01*
X18023522Y-77565268D01*
X18091120Y-77573225D01*
X18123909Y-77578493D01*
X18155963Y-77584647D01*
X18187239Y-77591708D01*
X18217690Y-77599696D01*
X18247273Y-77608632D01*
X18275941Y-77618536D01*
X18303649Y-77629429D01*
X18330354Y-77641330D01*
X18356009Y-77654260D01*
X18380570Y-77668239D01*
X18403991Y-77683288D01*
X18426228Y-77699427D01*
X18447235Y-77716676D01*
X18466968Y-77735057D01*
X18485381Y-77754588D01*
X18502429Y-77775290D01*
X18518067Y-77797185D01*
X18532250Y-77820292D01*
X18544934Y-77844631D01*
X18556073Y-77870223D01*
X18565621Y-77897088D01*
X18573535Y-77925246D01*
X18579768Y-77954719D01*
X18584276Y-77985526D01*
X18587014Y-78017687D01*
X18587719Y-78043286D01*
X18587937Y-78051223D01*
G37*
G04 #@! TD*
D11*
G04 #@! TO.C,J2-1*
X27800000Y-135675000D03*
X29800000Y-135675000D03*
D12*
X25300000Y-130045000D03*
X25300000Y-137545000D03*
X32300000Y-130045000D03*
X32300000Y-137545000D03*
G04 #@! TD*
D11*
G04 #@! TO.C,J2-2*
X44800000Y-135675000D03*
X46800000Y-135675000D03*
D12*
X42300000Y-130045000D03*
X42300000Y-137545000D03*
X49300000Y-130045000D03*
X49300000Y-137545000D03*
G04 #@! TD*
D13*
G04 #@! TO.C,J3-2*
X106500000Y-103900000D03*
X106500000Y-89600000D03*
D14*
X92500000Y-95300000D03*
D15*
X92580000Y-97100000D03*
X92500000Y-103100000D03*
X92500000Y-104900000D03*
X92500000Y-107900000D03*
X99500000Y-107900000D03*
X106500000Y-107600000D03*
X99500000Y-100100000D03*
X106500000Y-100100000D03*
X92500000Y-92300000D03*
X99500000Y-92300000D03*
X106500000Y-92300000D03*
G04 #@! TD*
D16*
G04 #@! TO.C,J4-1*
X106450000Y-76750000D03*
X106450000Y-70150000D03*
D15*
X92450000Y-75800000D03*
X92460000Y-77600000D03*
X92450000Y-80600000D03*
X99460000Y-80600000D03*
X106450000Y-80600000D03*
X92450000Y-72820000D03*
X99460000Y-72820000D03*
X106450000Y-72820000D03*
G04 #@! TD*
D16*
G04 #@! TO.C,J4-2*
X106450000Y-56750000D03*
X106450000Y-50150000D03*
D15*
X92450000Y-55800000D03*
X92460000Y-57600000D03*
X92450000Y-60600000D03*
X99460000Y-60600000D03*
X106450000Y-60600000D03*
X92450000Y-52820000D03*
X99460000Y-52820000D03*
X106450000Y-52820000D03*
G04 #@! TD*
D17*
G04 #@! TO.C,J6-1*
X55000000Y-9975000D03*
X53000000Y-9975000D03*
X47000000Y-9975000D03*
X45000000Y-9975000D03*
D18*
X57500000Y-15605000D03*
X57500000Y-8105000D03*
X42500000Y-15605000D03*
X42500000Y-8105000D03*
G04 #@! TD*
D19*
G04 #@! TO.C,J1-1*
X7675008Y-133288000D03*
X8975000Y-139037999D03*
D20*
X11875000Y-131287999D03*
D21*
X11875000Y-139538001D03*
D19*
X14775001Y-139037999D03*
D22*
X16074999Y-133288000D03*
G04 #@! TD*
D17*
G04 #@! TO.C,J6-2*
X29000000Y-9970000D03*
X27000000Y-9970000D03*
X21000000Y-9970000D03*
X19000000Y-9970000D03*
D18*
X31500000Y-15600000D03*
X31500000Y-8100000D03*
X16500000Y-15600000D03*
X16500000Y-8100000D03*
G04 #@! TD*
D23*
G04 #@! TO.C,J15*
X24050000Y-28180000D03*
X87550000Y-28180000D03*
D24*
X80730000Y-29600000D03*
D25*
X77960000Y-29600000D03*
X75190000Y-29600000D03*
X72420000Y-29600000D03*
X69650000Y-29600000D03*
X66880000Y-29600000D03*
X64110000Y-29600000D03*
X61340000Y-29600000D03*
X58570000Y-29600000D03*
X55800000Y-29600000D03*
X53030000Y-29600000D03*
X50260000Y-29600000D03*
X47490000Y-29600000D03*
X44720000Y-29600000D03*
X41950000Y-29600000D03*
X39180000Y-29600000D03*
X36410000Y-29600000D03*
X33640000Y-29600000D03*
X30870000Y-29600000D03*
X79345000Y-26760000D03*
X76575000Y-26760000D03*
X73805000Y-26760000D03*
X71035000Y-26760000D03*
X68265000Y-26760000D03*
X65495000Y-26760000D03*
X62725000Y-26760000D03*
X59955000Y-26760000D03*
X57185000Y-26760000D03*
X54415000Y-26760000D03*
X51645000Y-26760000D03*
X48875000Y-26760000D03*
X46105000Y-26760000D03*
X43335000Y-26760000D03*
X40565000Y-26760000D03*
X37795000Y-26760000D03*
X35025000Y-26760000D03*
X32255000Y-26760000D03*
G04 #@! TD*
D16*
G04 #@! TO.C,J4-3*
X106450000Y-36750000D03*
X106450000Y-30150000D03*
D15*
X92450000Y-35800000D03*
X92460000Y-37600000D03*
X92450000Y-40600000D03*
X99460000Y-40600000D03*
X106450000Y-40600000D03*
X92450000Y-32820000D03*
X99460000Y-32820000D03*
X106450000Y-32820000D03*
G04 #@! TD*
D16*
G04 #@! TO.C,J4-4*
X106450000Y-16750000D03*
X106450000Y-10150000D03*
D15*
X92450000Y-15800000D03*
X92460000Y-17600000D03*
X92450000Y-20600000D03*
X99460000Y-20600000D03*
X106450000Y-20600000D03*
X92450000Y-12820000D03*
X99460000Y-12820000D03*
X106450000Y-12820000D03*
G04 #@! TD*
D13*
G04 #@! TO.C,J3-1*
X106500000Y-131920000D03*
X106500000Y-117620000D03*
D14*
X92500000Y-123320000D03*
D15*
X92580000Y-125120000D03*
X92500000Y-131120000D03*
X92500000Y-132920000D03*
X92500000Y-135920000D03*
X99500000Y-135920000D03*
X106500000Y-135620000D03*
X99500000Y-128120000D03*
X106500000Y-128120000D03*
X92500000Y-120320000D03*
X99500000Y-120320000D03*
X106500000Y-120320000D03*
G04 #@! TD*
D25*
G04 #@! TO.C,J16*
X79345000Y-116040000D03*
X76575000Y-116040000D03*
X73805000Y-116040000D03*
X71035000Y-116040000D03*
X68265000Y-116040000D03*
X65495000Y-116040000D03*
X62725000Y-116040000D03*
X59955000Y-116040000D03*
X57185000Y-116040000D03*
X54415000Y-116040000D03*
X51645000Y-116040000D03*
X48875000Y-116040000D03*
X46105000Y-116040000D03*
X43335000Y-116040000D03*
X40565000Y-116040000D03*
X37795000Y-116040000D03*
X35025000Y-116040000D03*
X32255000Y-116040000D03*
X80730000Y-113200000D03*
X77960000Y-113200000D03*
X75190000Y-113200000D03*
X72420000Y-113200000D03*
X69650000Y-113200000D03*
X66880000Y-113200000D03*
X64110000Y-113200000D03*
X61340000Y-113200000D03*
X58570000Y-113200000D03*
X55800000Y-113200000D03*
X53030000Y-113200000D03*
X50260000Y-113200000D03*
X47490000Y-113200000D03*
X44720000Y-113200000D03*
X41950000Y-113200000D03*
X39180000Y-113200000D03*
X36410000Y-113200000D03*
X33640000Y-113200000D03*
D24*
X30870000Y-113200000D03*
D23*
X24050000Y-114620000D03*
X87550000Y-114620000D03*
G04 #@! TD*
D11*
G04 #@! TO.C,J2-3*
X61800000Y-135675000D03*
X63800000Y-135675000D03*
D12*
X59300000Y-130045000D03*
X59300000Y-137545000D03*
X66300000Y-130045000D03*
X66300000Y-137545000D03*
G04 #@! TD*
D11*
G04 #@! TO.C,J2-4*
X78800000Y-135675000D03*
X80800000Y-135675000D03*
D12*
X76300000Y-130045000D03*
X76300000Y-137545000D03*
X83300000Y-130045000D03*
X83300000Y-137545000D03*
G04 #@! TD*
D17*
G04 #@! TO.C,J5-1*
X81000000Y-13420000D03*
X79000000Y-13420000D03*
X73000000Y-13420000D03*
X71000000Y-13420000D03*
X71000000Y-8930000D03*
X73000000Y-8930000D03*
X79000000Y-8930000D03*
X81000000Y-8930000D03*
D18*
X83500000Y-17260000D03*
X83500000Y-7060000D03*
X68500000Y-17260000D03*
X68500000Y-7060000D03*
G04 #@! TD*
D26*
X106300000Y-143900000D02*
X5300000Y-143900000D01*
X1300000Y-139900000D02*
X1300000Y-5900000D01*
X5300000Y-143900000D02*
G75*
G02*
X1300000Y-139900000I0J4000000D01*
G01*
X1300000Y-5900000D02*
G75*
G02*
X5300000Y-1900000I4000000J0D01*
G01*
X110300000Y-139900000D02*
G75*
G02*
X106300000Y-143900000I-4000000J0D01*
G01*
X106300000Y-1900000D02*
G75*
G02*
X110300000Y-5900000I0J-4000000D01*
G01*
X110300000Y-139900000D02*
X110300000Y-5900000D01*
X5300000Y-1900000D02*
X106300000Y-1900000D01*
M02*
