%TF.GenerationSoftware,KiCad,Pcbnew,9.0.0*%
%TF.CreationDate,2025-03-27T12:33:11+01:00*%
%TF.ProjectId,Cabletester_CB_Diamler_2,4361626c-6574-4657-9374-65725f43425f,rev?*%
%TF.SameCoordinates,PX1c9c380PY1c9c380*%
%TF.FileFunction,Plated,1,2,PTH,Mixed*%
%TF.FilePolarity,Positive*%
%FSLAX46Y46*%
G04 Gerber Fmt 4.6, Leading zero omitted, Abs format (unit mm)*
G04 Created by KiCad (PCBNEW 9.0.0) date 2025-03-27 12:33:11*
%MOMM*%
%LPD*%
G01*
G04 APERTURE LIST*
%TA.AperFunction,ViaDrill*%
%ADD10C,0.300000*%
%TD*%
%TA.AperFunction,ComponentDrill*%
%ADD11C,0.700000*%
%TD*%
%TA.AperFunction,ComponentDrill*%
%ADD12C,0.750000*%
%TD*%
G04 aperture for slot hole*
%TA.AperFunction,ComponentDrill*%
%ADD13C,1.000000*%
%TD*%
%TA.AperFunction,ComponentDrill*%
%ADD14C,1.000000*%
%TD*%
%TA.AperFunction,ComponentDrill*%
%ADD15C,1.100000*%
%TD*%
G04 aperture for slot hole*
%TA.AperFunction,ComponentDrill*%
%ADD16C,1.400000*%
%TD*%
G04 aperture for slot hole*
%TA.AperFunction,ComponentDrill*%
%ADD17C,1.600000*%
%TD*%
%TA.AperFunction,ComponentDrill*%
%ADD18C,1.750000*%
%TD*%
%TA.AperFunction,ComponentDrill*%
%ADD19C,3.300000*%
%TD*%
G04 APERTURE END LIST*
D10*
X4000000Y-23000000D03*
X4000000Y-25000000D03*
X4000000Y-27000000D03*
X4000000Y-29000000D03*
X4000000Y-32000000D03*
X4000000Y-34000000D03*
X4000000Y-36000000D03*
X4000000Y-38000000D03*
X4000000Y-112000000D03*
X4000000Y-114000000D03*
X4000000Y-116000000D03*
X4000000Y-118000000D03*
X4000000Y-120000000D03*
X4000000Y-122000000D03*
X5000000Y-70000000D03*
X5000000Y-71000000D03*
X5590000Y-97802000D03*
X5590000Y-109550000D03*
X6000000Y-5000000D03*
X6000000Y-7000000D03*
X6000000Y-9000000D03*
X6000000Y-11000000D03*
X6000000Y-13000000D03*
X6000000Y-15000000D03*
X6000000Y-17000000D03*
X6000000Y-19000000D03*
X6000000Y-23000000D03*
X6000000Y-25000000D03*
X6000000Y-27000000D03*
X6000000Y-29000000D03*
X6000000Y-32000000D03*
X6000000Y-34000000D03*
X6000000Y-36000000D03*
X6000000Y-38000000D03*
X6000000Y-69000000D03*
X6000000Y-72000000D03*
X6000000Y-112000000D03*
X6000000Y-114000000D03*
X6000000Y-116000000D03*
X6000000Y-118000000D03*
X6000000Y-120000000D03*
X6000000Y-122000000D03*
X7000000Y-66000000D03*
X7000000Y-67000000D03*
X7000000Y-69000000D03*
X7000000Y-72000000D03*
X8000000Y-5000000D03*
X8000000Y-7000000D03*
X8000000Y-9000000D03*
X8000000Y-11000000D03*
X8000000Y-13000000D03*
X8000000Y-15000000D03*
X8000000Y-17000000D03*
X8000000Y-19000000D03*
X8000000Y-23000000D03*
X8000000Y-25000000D03*
X8000000Y-27000000D03*
X8000000Y-29000000D03*
X8000000Y-32000000D03*
X8000000Y-34000000D03*
X8000000Y-36000000D03*
X8000000Y-38000000D03*
X8000000Y-65000000D03*
X8000000Y-68000000D03*
X8000000Y-70000000D03*
X8000000Y-71000000D03*
X8100000Y-98000000D03*
X8100000Y-128100000D03*
X8700000Y-99000000D03*
X8700000Y-127400000D03*
X9000000Y-65000000D03*
X9000000Y-68000000D03*
X9500000Y-100000000D03*
X9500000Y-126800000D03*
X9600000Y-61900000D03*
X9600000Y-62900000D03*
X10000000Y-5000000D03*
X10000000Y-7000000D03*
X10000000Y-9000000D03*
X10000000Y-11000000D03*
X10000000Y-13000000D03*
X10000000Y-15000000D03*
X10000000Y-17000000D03*
X10000000Y-19000000D03*
X10000000Y-23000000D03*
X10000000Y-25000000D03*
X10000000Y-27000000D03*
X10000000Y-29000000D03*
X10000000Y-32000000D03*
X10000000Y-34000000D03*
X10000000Y-36000000D03*
X10000000Y-38000000D03*
X10000000Y-66000000D03*
X10000000Y-67000000D03*
X10000000Y-70000000D03*
X10000000Y-71000000D03*
X10300000Y-101000000D03*
X10300000Y-127400000D03*
X10600000Y-60900000D03*
X10600000Y-63900000D03*
X10900000Y-102000000D03*
X10900000Y-128100000D03*
X11000000Y-69000000D03*
X11000000Y-72000000D03*
X11600000Y-60900000D03*
X11600000Y-63900000D03*
X12000000Y-23000000D03*
X12000000Y-25000000D03*
X12000000Y-27000000D03*
X12000000Y-29000000D03*
X12000000Y-32000000D03*
X12000000Y-34000000D03*
X12000000Y-36000000D03*
X12000000Y-38000000D03*
X12000000Y-66000000D03*
X12000000Y-67000000D03*
X12000000Y-69000000D03*
X12000000Y-72000000D03*
X12600000Y-61900000D03*
X12600000Y-62900000D03*
X12850000Y-103000000D03*
X12850000Y-128150000D03*
X13000000Y-65000000D03*
X13000000Y-68000000D03*
X13000000Y-70000000D03*
X13000000Y-71000000D03*
X13450000Y-104000000D03*
X13450000Y-127450000D03*
X14000000Y-23000000D03*
X14000000Y-25000000D03*
X14000000Y-27000000D03*
X14000000Y-29000000D03*
X14000000Y-32000000D03*
X14000000Y-34000000D03*
X14000000Y-36000000D03*
X14000000Y-38000000D03*
X14000000Y-65000000D03*
X14000000Y-68000000D03*
X14250000Y-105000000D03*
X14250000Y-126850000D03*
X15000000Y-66000000D03*
X15000000Y-67000000D03*
X15000000Y-70000000D03*
X15000000Y-71000000D03*
X15050000Y-106000000D03*
X15050000Y-127450000D03*
X15650000Y-107000000D03*
X15650000Y-128150000D03*
X16000000Y-23000000D03*
X16000000Y-25000000D03*
X16000000Y-27000000D03*
X16000000Y-29000000D03*
X16000000Y-32000000D03*
X16000000Y-34000000D03*
X16000000Y-36000000D03*
X16000000Y-38000000D03*
X16000000Y-69000000D03*
X16000000Y-72000000D03*
X17000000Y-69000000D03*
X17000000Y-72000000D03*
X17000000Y-112000000D03*
X17000000Y-114000000D03*
X17000000Y-116000000D03*
X17000000Y-118000000D03*
X17000000Y-120000000D03*
X17000000Y-122000000D03*
X18000000Y-23000000D03*
X18000000Y-25000000D03*
X18000000Y-27000000D03*
X18000000Y-29000000D03*
X18000000Y-32000000D03*
X18000000Y-34000000D03*
X18000000Y-36000000D03*
X18000000Y-38000000D03*
X18000000Y-70000000D03*
X18000000Y-71000000D03*
X19000000Y-112000000D03*
X19000000Y-114000000D03*
X19000000Y-116000000D03*
X19000000Y-118000000D03*
X19000000Y-120000000D03*
X19000000Y-122000000D03*
X19000000Y-129000000D03*
X19000000Y-131000000D03*
X19000000Y-133000000D03*
X19000000Y-135000000D03*
X19000000Y-137000000D03*
X19000000Y-139000000D03*
X20000000Y-36000000D03*
X20000000Y-38000000D03*
X21000000Y-129000000D03*
X21000000Y-131000000D03*
X21000000Y-133000000D03*
X21000000Y-135000000D03*
X21000000Y-137000000D03*
X21000000Y-139000000D03*
X22000000Y-36000000D03*
X22000000Y-38000000D03*
X24000000Y-36000000D03*
X24000000Y-38000000D03*
X24000000Y-57000000D03*
X24000000Y-59000000D03*
X24000000Y-61000000D03*
X24000000Y-63000000D03*
X24000000Y-65000000D03*
X24000000Y-67000000D03*
X24000000Y-69000000D03*
X24000000Y-71000000D03*
X24000000Y-73000000D03*
X24000000Y-75000000D03*
X24000000Y-77000000D03*
X24000000Y-79000000D03*
X24000000Y-81000000D03*
X24000000Y-83000000D03*
X24000000Y-85000000D03*
X24000000Y-87000000D03*
X26000000Y-36000000D03*
X26000000Y-38000000D03*
X26000000Y-57000000D03*
X26000000Y-59000000D03*
X26000000Y-61000000D03*
X26000000Y-63000000D03*
X26000000Y-65000000D03*
X26000000Y-67000000D03*
X26000000Y-69000000D03*
X26000000Y-71000000D03*
X26000000Y-73000000D03*
X26000000Y-75000000D03*
X26000000Y-77000000D03*
X26000000Y-79000000D03*
X26000000Y-81000000D03*
X26000000Y-83000000D03*
X26000000Y-85000000D03*
X26000000Y-87000000D03*
X27800000Y-120400000D03*
X28000000Y-36000000D03*
X28000000Y-38000000D03*
X28000000Y-57000000D03*
X28000000Y-59000000D03*
X28000000Y-61000000D03*
X28000000Y-63000000D03*
X28000000Y-65000000D03*
X28000000Y-67000000D03*
X28000000Y-69000000D03*
X28000000Y-71000000D03*
X28000000Y-73000000D03*
X28000000Y-75000000D03*
X28000000Y-77000000D03*
X28000000Y-79000000D03*
X28000000Y-81000000D03*
X28000000Y-83000000D03*
X28000000Y-85000000D03*
X28000000Y-87000000D03*
X29800000Y-121400000D03*
X30000000Y-36000000D03*
X30000000Y-38000000D03*
X30000000Y-57000000D03*
X30000000Y-59000000D03*
X30000000Y-61000000D03*
X30000000Y-63000000D03*
X30000000Y-65000000D03*
X30000000Y-67000000D03*
X30000000Y-69000000D03*
X30000000Y-71000000D03*
X30000000Y-73000000D03*
X30000000Y-75000000D03*
X30000000Y-77000000D03*
X30000000Y-79000000D03*
X30000000Y-81000000D03*
X30000000Y-83000000D03*
X30000000Y-85000000D03*
X30000000Y-87000000D03*
X32000000Y-36000000D03*
X32000000Y-38000000D03*
X32000000Y-57000000D03*
X32000000Y-59000000D03*
X32000000Y-61000000D03*
X32000000Y-63000000D03*
X32000000Y-65000000D03*
X32000000Y-67000000D03*
X32000000Y-69000000D03*
X32000000Y-71000000D03*
X32000000Y-73000000D03*
X32000000Y-75000000D03*
X32000000Y-77000000D03*
X32000000Y-79000000D03*
X32000000Y-81000000D03*
X32000000Y-83000000D03*
X32000000Y-85000000D03*
X32000000Y-87000000D03*
X34000000Y-36000000D03*
X34000000Y-38000000D03*
X34000000Y-57000000D03*
X34000000Y-59000000D03*
X34000000Y-61000000D03*
X34000000Y-63000000D03*
X34000000Y-65000000D03*
X34000000Y-67000000D03*
X34000000Y-69000000D03*
X34000000Y-71000000D03*
X34000000Y-73000000D03*
X34000000Y-75000000D03*
X34000000Y-77000000D03*
X34000000Y-79000000D03*
X34000000Y-81000000D03*
X34000000Y-83000000D03*
X34000000Y-85000000D03*
X34000000Y-87000000D03*
X36000000Y-36000000D03*
X36000000Y-38000000D03*
X36000000Y-57000000D03*
X36000000Y-59000000D03*
X36000000Y-61000000D03*
X36000000Y-63000000D03*
X36000000Y-65000000D03*
X36000000Y-67000000D03*
X36000000Y-69000000D03*
X36000000Y-71000000D03*
X36000000Y-73000000D03*
X36000000Y-75000000D03*
X36000000Y-77000000D03*
X36000000Y-79000000D03*
X36000000Y-81000000D03*
X36000000Y-83000000D03*
X36000000Y-85000000D03*
X36000000Y-87000000D03*
X36000000Y-129000000D03*
X36000000Y-131000000D03*
X36000000Y-133000000D03*
X36000000Y-135000000D03*
X36000000Y-137000000D03*
X36000000Y-139000000D03*
X38000000Y-36000000D03*
X38000000Y-38000000D03*
X38000000Y-57000000D03*
X38000000Y-59000000D03*
X38000000Y-61000000D03*
X38000000Y-63000000D03*
X38000000Y-65000000D03*
X38000000Y-67000000D03*
X38000000Y-69000000D03*
X38000000Y-71000000D03*
X38000000Y-73000000D03*
X38000000Y-75000000D03*
X38000000Y-77000000D03*
X38000000Y-79000000D03*
X38000000Y-81000000D03*
X38000000Y-83000000D03*
X38000000Y-85000000D03*
X38000000Y-87000000D03*
X38000000Y-129000000D03*
X38000000Y-131000000D03*
X38000000Y-133000000D03*
X38000000Y-135000000D03*
X38000000Y-137000000D03*
X38000000Y-139000000D03*
X40000000Y-36000000D03*
X40000000Y-38000000D03*
X40000000Y-57000000D03*
X40000000Y-59000000D03*
X40000000Y-61000000D03*
X40000000Y-63000000D03*
X40000000Y-65000000D03*
X40000000Y-67000000D03*
X40000000Y-69000000D03*
X40000000Y-71000000D03*
X40000000Y-73000000D03*
X40000000Y-75000000D03*
X40000000Y-77000000D03*
X40000000Y-79000000D03*
X40000000Y-81000000D03*
X40000000Y-83000000D03*
X40000000Y-85000000D03*
X40000000Y-87000000D03*
X41950000Y-93768000D03*
X42000000Y-36000000D03*
X42000000Y-38000000D03*
X42000000Y-57000000D03*
X42000000Y-59000000D03*
X42000000Y-61000000D03*
X42000000Y-63000000D03*
X42000000Y-65000000D03*
X42000000Y-67000000D03*
X42000000Y-69000000D03*
X42000000Y-71000000D03*
X42000000Y-73000000D03*
X42000000Y-75000000D03*
X42000000Y-77000000D03*
X42000000Y-79000000D03*
X42000000Y-81000000D03*
X42000000Y-83000000D03*
X42000000Y-85000000D03*
X42000000Y-87000000D03*
X43335000Y-103000000D03*
X44000000Y-36000000D03*
X44000000Y-38000000D03*
X44000000Y-57000000D03*
X44000000Y-59000000D03*
X44000000Y-61000000D03*
X44000000Y-63000000D03*
X44000000Y-65000000D03*
X44000000Y-67000000D03*
X44000000Y-69000000D03*
X44000000Y-71000000D03*
X44000000Y-73000000D03*
X44000000Y-75000000D03*
X44000000Y-77000000D03*
X44000000Y-79000000D03*
X44000000Y-81000000D03*
X44000000Y-83000000D03*
X44000000Y-85000000D03*
X44000000Y-87000000D03*
X44700000Y-102000000D03*
X44800000Y-122200000D03*
X46000000Y-36000000D03*
X46000000Y-38000000D03*
X46000000Y-57000000D03*
X46000000Y-59000000D03*
X46000000Y-61000000D03*
X46000000Y-63000000D03*
X46000000Y-65000000D03*
X46000000Y-67000000D03*
X46000000Y-69000000D03*
X46000000Y-71000000D03*
X46000000Y-73000000D03*
X46000000Y-75000000D03*
X46000000Y-77000000D03*
X46000000Y-79000000D03*
X46000000Y-81000000D03*
X46000000Y-83000000D03*
X46000000Y-85000000D03*
X46000000Y-87000000D03*
X46000000Y-89000000D03*
X46000000Y-91000000D03*
X46000000Y-93000000D03*
X46000000Y-95000000D03*
X46100000Y-104000000D03*
X46800000Y-123000000D03*
X47490000Y-101000000D03*
X48000000Y-36000000D03*
X48000000Y-38000000D03*
X48000000Y-57000000D03*
X48000000Y-59000000D03*
X48000000Y-61000000D03*
X48000000Y-63000000D03*
X48000000Y-65000000D03*
X48000000Y-67000000D03*
X48000000Y-69000000D03*
X48000000Y-71000000D03*
X48000000Y-73000000D03*
X48000000Y-75000000D03*
X48000000Y-77000000D03*
X48000000Y-79000000D03*
X48000000Y-81000000D03*
X48000000Y-83000000D03*
X48000000Y-85000000D03*
X48000000Y-87000000D03*
X48000000Y-89000000D03*
X48000000Y-91000000D03*
X48000000Y-93000000D03*
X48000000Y-95000000D03*
X48875000Y-105000000D03*
X50000000Y-36000000D03*
X50000000Y-38000000D03*
X50000000Y-57000000D03*
X50000000Y-59000000D03*
X50000000Y-61000000D03*
X50000000Y-63000000D03*
X50000000Y-65000000D03*
X50000000Y-67000000D03*
X50000000Y-69000000D03*
X50000000Y-71000000D03*
X50000000Y-73000000D03*
X50000000Y-75000000D03*
X50000000Y-77000000D03*
X50000000Y-79000000D03*
X50000000Y-81000000D03*
X50000000Y-83000000D03*
X50000000Y-85000000D03*
X50000000Y-87000000D03*
X50000000Y-89000000D03*
X50000000Y-91000000D03*
X50000000Y-93000000D03*
X50000000Y-95000000D03*
X50200000Y-100000000D03*
X51645000Y-106000000D03*
X52000000Y-36000000D03*
X52000000Y-38000000D03*
X52000000Y-57000000D03*
X52000000Y-59000000D03*
X52000000Y-61000000D03*
X52000000Y-63000000D03*
X52000000Y-65000000D03*
X52000000Y-67000000D03*
X52000000Y-69000000D03*
X52000000Y-71000000D03*
X52000000Y-73000000D03*
X52000000Y-75000000D03*
X52000000Y-77000000D03*
X52000000Y-79000000D03*
X52000000Y-81000000D03*
X52000000Y-83000000D03*
X52000000Y-85000000D03*
X52000000Y-87000000D03*
X52000000Y-89000000D03*
X52000000Y-91000000D03*
X52000000Y-93000000D03*
X52000000Y-95000000D03*
X53000000Y-129000000D03*
X53000000Y-131000000D03*
X53000000Y-133000000D03*
X53000000Y-135000000D03*
X53000000Y-137000000D03*
X53000000Y-139000000D03*
X53030000Y-99000000D03*
X54000000Y-36000000D03*
X54000000Y-38000000D03*
X54000000Y-57000000D03*
X54000000Y-59000000D03*
X54000000Y-61000000D03*
X54000000Y-63000000D03*
X54000000Y-65000000D03*
X54000000Y-67000000D03*
X54000000Y-69000000D03*
X54000000Y-71000000D03*
X54000000Y-73000000D03*
X54000000Y-75000000D03*
X54000000Y-77000000D03*
X54000000Y-79000000D03*
X54000000Y-81000000D03*
X54000000Y-83000000D03*
X54000000Y-85000000D03*
X54000000Y-87000000D03*
X54000000Y-89000000D03*
X54000000Y-91000000D03*
X54000000Y-93000000D03*
X54000000Y-95000000D03*
X54415000Y-107100000D03*
X55000000Y-129000000D03*
X55000000Y-131000000D03*
X55000000Y-133000000D03*
X55000000Y-135000000D03*
X55000000Y-137000000D03*
X55000000Y-139000000D03*
X55800000Y-98000000D03*
X56000000Y-36000000D03*
X56000000Y-38000000D03*
X56000000Y-57000000D03*
X56000000Y-59000000D03*
X56000000Y-61000000D03*
X56000000Y-63000000D03*
X56000000Y-65000000D03*
X56000000Y-67000000D03*
X56000000Y-69000000D03*
X56000000Y-71000000D03*
X56000000Y-73000000D03*
X56000000Y-75000000D03*
X56000000Y-77000000D03*
X56000000Y-79000000D03*
X56000000Y-81000000D03*
X56000000Y-83000000D03*
X56000000Y-85000000D03*
X56000000Y-87000000D03*
X56000000Y-89000000D03*
X56000000Y-91000000D03*
X56000000Y-93000000D03*
X56000000Y-95000000D03*
X57185000Y-120400000D03*
X58000000Y-36000000D03*
X58000000Y-38000000D03*
X58000000Y-57000000D03*
X58000000Y-59000000D03*
X58000000Y-61000000D03*
X58000000Y-63000000D03*
X58000000Y-65000000D03*
X58000000Y-67000000D03*
X58000000Y-69000000D03*
X58000000Y-71000000D03*
X58000000Y-73000000D03*
X58000000Y-75000000D03*
X58000000Y-77000000D03*
X58000000Y-79000000D03*
X58000000Y-81000000D03*
X58000000Y-83000000D03*
X58000000Y-85000000D03*
X58000000Y-87000000D03*
X58000000Y-89000000D03*
X58000000Y-91000000D03*
X58000000Y-93000000D03*
X58000000Y-95000000D03*
X58000000Y-97000000D03*
X58000000Y-99000000D03*
X58000000Y-101000000D03*
X58000000Y-103000000D03*
X58570000Y-121400000D03*
X59955000Y-122200000D03*
X60000000Y-36000000D03*
X60000000Y-38000000D03*
X60000000Y-57000000D03*
X60000000Y-59000000D03*
X60000000Y-61000000D03*
X60000000Y-63000000D03*
X60000000Y-65000000D03*
X60000000Y-67000000D03*
X60000000Y-69000000D03*
X60000000Y-71000000D03*
X60000000Y-73000000D03*
X60000000Y-75000000D03*
X60000000Y-77000000D03*
X60000000Y-79000000D03*
X60000000Y-81000000D03*
X60000000Y-83000000D03*
X60000000Y-85000000D03*
X60000000Y-87000000D03*
X60000000Y-89000000D03*
X60000000Y-91000000D03*
X60000000Y-93000000D03*
X60000000Y-95000000D03*
X60000000Y-97000000D03*
X60000000Y-99000000D03*
X60000000Y-101000000D03*
X60000000Y-103000000D03*
X61340000Y-123000000D03*
X62000000Y-57000000D03*
X62000000Y-59000000D03*
X62000000Y-61000000D03*
X62000000Y-63000000D03*
X62000000Y-65000000D03*
X62000000Y-67000000D03*
X62000000Y-69000000D03*
X62000000Y-71000000D03*
X62000000Y-73000000D03*
X62000000Y-75000000D03*
X62000000Y-77000000D03*
X62000000Y-79000000D03*
X62000000Y-81000000D03*
X62000000Y-83000000D03*
X62000000Y-85000000D03*
X62000000Y-87000000D03*
X62000000Y-89000000D03*
X62000000Y-91000000D03*
X62000000Y-93000000D03*
X62000000Y-95000000D03*
X62000000Y-97000000D03*
X62000000Y-99000000D03*
X62000000Y-101000000D03*
X62000000Y-103000000D03*
X64000000Y-57000000D03*
X64000000Y-59000000D03*
X64000000Y-61000000D03*
X64000000Y-63000000D03*
X64000000Y-65000000D03*
X64000000Y-67000000D03*
X64000000Y-69000000D03*
X64000000Y-71000000D03*
X64000000Y-73000000D03*
X64000000Y-75000000D03*
X64000000Y-77000000D03*
X64000000Y-79000000D03*
X64000000Y-81000000D03*
X64000000Y-83000000D03*
X64000000Y-85000000D03*
X64000000Y-87000000D03*
X64000000Y-89000000D03*
X64000000Y-91000000D03*
X64000000Y-93000000D03*
X64000000Y-95000000D03*
X64000000Y-97000000D03*
X64000000Y-99000000D03*
X64000000Y-101000000D03*
X64000000Y-103000000D03*
X64110000Y-37600000D03*
X65495000Y-35800000D03*
X65500000Y-123000000D03*
X66880000Y-57600000D03*
X66880000Y-122300000D03*
X68265000Y-55800000D03*
X68265000Y-127200000D03*
X69650000Y-77600000D03*
X69650000Y-126200000D03*
X70000000Y-129000000D03*
X70000000Y-131000000D03*
X70000000Y-133000000D03*
X70000000Y-135000000D03*
X70000000Y-137000000D03*
X70000000Y-139000000D03*
X71035000Y-75800000D03*
X71035000Y-125100000D03*
X72000000Y-129000000D03*
X72000000Y-131000000D03*
X72000000Y-133000000D03*
X72000000Y-135000000D03*
X72000000Y-137000000D03*
X72000000Y-139000000D03*
X72420000Y-104900000D03*
X72420000Y-123800000D03*
X73805000Y-103100000D03*
X73805000Y-109550000D03*
X75190000Y-97100000D03*
X76600000Y-95300000D03*
X78000000Y-40000000D03*
X78000000Y-42000000D03*
X78000000Y-44000000D03*
X78000000Y-46000000D03*
X78000000Y-48000000D03*
X78000000Y-50000000D03*
X78000000Y-60000000D03*
X78000000Y-62000000D03*
X78000000Y-64000000D03*
X78000000Y-66000000D03*
X78000000Y-68000000D03*
X78000000Y-70000000D03*
X78000000Y-81000000D03*
X78000000Y-83000000D03*
X78000000Y-85000000D03*
X78000000Y-87000000D03*
X78000000Y-89000000D03*
X78000000Y-91000000D03*
X78800000Y-123000000D03*
X80000000Y-40000000D03*
X80000000Y-42000000D03*
X80000000Y-44000000D03*
X80000000Y-46000000D03*
X80000000Y-48000000D03*
X80000000Y-50000000D03*
X80000000Y-60000000D03*
X80000000Y-62000000D03*
X80000000Y-64000000D03*
X80000000Y-66000000D03*
X80000000Y-68000000D03*
X80000000Y-70000000D03*
X80000000Y-81000000D03*
X80000000Y-83000000D03*
X80000000Y-85000000D03*
X80000000Y-87000000D03*
X80000000Y-89000000D03*
X80000000Y-91000000D03*
X80000000Y-122300000D03*
X82000000Y-40000000D03*
X82000000Y-42000000D03*
X82000000Y-44000000D03*
X82000000Y-46000000D03*
X82000000Y-48000000D03*
X82000000Y-50000000D03*
X82000000Y-60000000D03*
X82000000Y-62000000D03*
X82000000Y-64000000D03*
X82000000Y-66000000D03*
X82000000Y-68000000D03*
X82000000Y-70000000D03*
X82000000Y-81000000D03*
X82000000Y-83000000D03*
X82000000Y-85000000D03*
X82000000Y-87000000D03*
X82000000Y-89000000D03*
X82000000Y-91000000D03*
X84000000Y-40000000D03*
X84000000Y-42000000D03*
X84000000Y-44000000D03*
X84000000Y-46000000D03*
X84000000Y-48000000D03*
X84000000Y-50000000D03*
X84000000Y-60000000D03*
X84000000Y-62000000D03*
X84000000Y-64000000D03*
X84000000Y-66000000D03*
X84000000Y-68000000D03*
X84000000Y-70000000D03*
X84000000Y-81000000D03*
X84000000Y-83000000D03*
X84000000Y-85000000D03*
X84000000Y-87000000D03*
X84000000Y-89000000D03*
X84000000Y-91000000D03*
X86000000Y-131000000D03*
X86000000Y-133000000D03*
X86000000Y-136000000D03*
X86000000Y-138000000D03*
X87000000Y-7000000D03*
X87000000Y-9000000D03*
X87000000Y-11000000D03*
X87000000Y-13000000D03*
X88000000Y-131000000D03*
X88000000Y-133000000D03*
X88000000Y-136000000D03*
X88000000Y-138000000D03*
X89000000Y-7000000D03*
X89000000Y-9000000D03*
X89000000Y-11000000D03*
X89000000Y-13000000D03*
X91000000Y-5000000D03*
X91000000Y-7000000D03*
X93000000Y-5000000D03*
X93000000Y-7000000D03*
X95000000Y-5000000D03*
X95000000Y-7000000D03*
X97000000Y-5000000D03*
X97000000Y-7000000D03*
X99000000Y-5000000D03*
X99000000Y-7000000D03*
X101000000Y-5000000D03*
X101000000Y-7000000D03*
X103000000Y-5000000D03*
X103000000Y-7000000D03*
X105000000Y-5000000D03*
X105000000Y-7000000D03*
D11*
%TO.C,J4-4*%
X92450000Y-12820000D03*
X92450000Y-15800000D03*
X92450000Y-20600000D03*
%TO.C,J4-3*%
X92450000Y-32820000D03*
X92450000Y-35800000D03*
X92450000Y-40600000D03*
%TO.C,J4-2*%
X92450000Y-52820000D03*
X92450000Y-55800000D03*
X92450000Y-60600000D03*
%TO.C,J4-1*%
X92450000Y-72820000D03*
X92450000Y-75800000D03*
X92450000Y-80600000D03*
%TO.C,J4-4*%
X92460000Y-17600000D03*
%TO.C,J4-3*%
X92460000Y-37600000D03*
%TO.C,J4-2*%
X92460000Y-57600000D03*
%TO.C,J4-1*%
X92460000Y-77600000D03*
%TO.C,J4-4*%
X99460000Y-12820000D03*
X99460000Y-20600000D03*
%TO.C,J4-3*%
X99460000Y-32820000D03*
X99460000Y-40600000D03*
%TO.C,J4-2*%
X99460000Y-52820000D03*
X99460000Y-60600000D03*
%TO.C,J4-1*%
X99460000Y-72820000D03*
X99460000Y-80600000D03*
%TO.C,J4-4*%
X106450000Y-12820000D03*
X106450000Y-20600000D03*
%TO.C,J4-3*%
X106450000Y-32820000D03*
X106450000Y-40600000D03*
%TO.C,J4-2*%
X106450000Y-52820000D03*
X106450000Y-60600000D03*
%TO.C,J4-1*%
X106450000Y-72820000D03*
X106450000Y-80600000D03*
D12*
%TO.C,J6-2*%
X19000000Y-9970000D03*
X21000000Y-9970000D03*
X27000000Y-9970000D03*
X29000000Y-9970000D03*
%TO.C,J6-1*%
X45000000Y-9975000D03*
X47000000Y-9975000D03*
X53000000Y-9975000D03*
X55000000Y-9975000D03*
%TO.C,J5-1*%
X71000000Y-8930000D03*
X71000000Y-13420000D03*
X73000000Y-8930000D03*
X73000000Y-13420000D03*
X79000000Y-8930000D03*
X79000000Y-13420000D03*
X81000000Y-8930000D03*
X81000000Y-13420000D03*
D13*
%TO.C,J1-1*%
X7675008Y-132788000D02*
X7675008Y-133788000D01*
X8975000Y-138537999D02*
X8975000Y-139537999D01*
X14775001Y-138537999D02*
X14775001Y-139537999D01*
X16074999Y-132788000D02*
X16074999Y-133788000D01*
D14*
%TO.C,J15*%
X30870000Y-29600000D03*
%TO.C,J16*%
X30870000Y-113200000D03*
%TO.C,J15*%
X32255000Y-26760000D03*
%TO.C,J16*%
X32255000Y-116040000D03*
%TO.C,J15*%
X33640000Y-29600000D03*
%TO.C,J16*%
X33640000Y-113200000D03*
%TO.C,J15*%
X35025000Y-26760000D03*
%TO.C,J16*%
X35025000Y-116040000D03*
%TO.C,J15*%
X36410000Y-29600000D03*
%TO.C,J16*%
X36410000Y-113200000D03*
%TO.C,J15*%
X37795000Y-26760000D03*
%TO.C,J16*%
X37795000Y-116040000D03*
%TO.C,J15*%
X39180000Y-29600000D03*
%TO.C,J16*%
X39180000Y-113200000D03*
%TO.C,J15*%
X40565000Y-26760000D03*
%TO.C,J16*%
X40565000Y-116040000D03*
%TO.C,J15*%
X41950000Y-29600000D03*
%TO.C,J16*%
X41950000Y-113200000D03*
%TO.C,J15*%
X43335000Y-26760000D03*
%TO.C,J16*%
X43335000Y-116040000D03*
%TO.C,J15*%
X44720000Y-29600000D03*
%TO.C,J16*%
X44720000Y-113200000D03*
%TO.C,J15*%
X46105000Y-26760000D03*
%TO.C,J16*%
X46105000Y-116040000D03*
%TO.C,J15*%
X47490000Y-29600000D03*
%TO.C,J16*%
X47490000Y-113200000D03*
%TO.C,J15*%
X48875000Y-26760000D03*
%TO.C,J16*%
X48875000Y-116040000D03*
%TO.C,J15*%
X50260000Y-29600000D03*
%TO.C,J16*%
X50260000Y-113200000D03*
%TO.C,J15*%
X51645000Y-26760000D03*
%TO.C,J16*%
X51645000Y-116040000D03*
%TO.C,J15*%
X53030000Y-29600000D03*
%TO.C,J16*%
X53030000Y-113200000D03*
%TO.C,J15*%
X54415000Y-26760000D03*
%TO.C,J16*%
X54415000Y-116040000D03*
%TO.C,J15*%
X55800000Y-29600000D03*
%TO.C,J16*%
X55800000Y-113200000D03*
%TO.C,J15*%
X57185000Y-26760000D03*
%TO.C,J16*%
X57185000Y-116040000D03*
%TO.C,J15*%
X58570000Y-29600000D03*
%TO.C,J16*%
X58570000Y-113200000D03*
%TO.C,J15*%
X59955000Y-26760000D03*
%TO.C,J16*%
X59955000Y-116040000D03*
%TO.C,J15*%
X61340000Y-29600000D03*
%TO.C,J16*%
X61340000Y-113200000D03*
%TO.C,J15*%
X62725000Y-26760000D03*
%TO.C,J16*%
X62725000Y-116040000D03*
%TO.C,J15*%
X64110000Y-29600000D03*
%TO.C,J16*%
X64110000Y-113200000D03*
%TO.C,J15*%
X65495000Y-26760000D03*
%TO.C,J16*%
X65495000Y-116040000D03*
%TO.C,J15*%
X66880000Y-29600000D03*
%TO.C,J16*%
X66880000Y-113200000D03*
%TO.C,J15*%
X68265000Y-26760000D03*
%TO.C,J16*%
X68265000Y-116040000D03*
%TO.C,J15*%
X69650000Y-29600000D03*
%TO.C,J16*%
X69650000Y-113200000D03*
%TO.C,J15*%
X71035000Y-26760000D03*
%TO.C,J16*%
X71035000Y-116040000D03*
%TO.C,J15*%
X72420000Y-29600000D03*
%TO.C,J16*%
X72420000Y-113200000D03*
%TO.C,J15*%
X73805000Y-26760000D03*
%TO.C,J16*%
X73805000Y-116040000D03*
%TO.C,J15*%
X75190000Y-29600000D03*
%TO.C,J16*%
X75190000Y-113200000D03*
%TO.C,J15*%
X76575000Y-26760000D03*
%TO.C,J16*%
X76575000Y-116040000D03*
%TO.C,J15*%
X77960000Y-29600000D03*
%TO.C,J16*%
X77960000Y-113200000D03*
%TO.C,J15*%
X79345000Y-26760000D03*
%TO.C,J16*%
X79345000Y-116040000D03*
%TO.C,J15*%
X80730000Y-29600000D03*
%TO.C,J16*%
X80730000Y-113200000D03*
%TO.C,J3-2*%
X92500000Y-92300000D03*
X92500000Y-95300000D03*
X92500000Y-103100000D03*
X92500000Y-104900000D03*
X92500000Y-107900000D03*
%TO.C,J3-1*%
X92500000Y-120320000D03*
X92500000Y-123320000D03*
X92500000Y-131120000D03*
X92500000Y-132920000D03*
X92500000Y-135920000D03*
%TO.C,J3-2*%
X92580000Y-97100000D03*
%TO.C,J3-1*%
X92580000Y-125120000D03*
%TO.C,J3-2*%
X99500000Y-92300000D03*
X99500000Y-100100000D03*
X99500000Y-107900000D03*
%TO.C,J3-1*%
X99500000Y-120320000D03*
X99500000Y-128120000D03*
X99500000Y-135920000D03*
%TO.C,J3-2*%
X106500000Y-92300000D03*
X106500000Y-100100000D03*
X106500000Y-107600000D03*
%TO.C,J3-1*%
X106500000Y-120320000D03*
X106500000Y-128120000D03*
X106500000Y-135620000D03*
D15*
%TO.C,J2-1*%
X27800000Y-135675000D03*
X29800000Y-135675000D03*
%TO.C,J2-2*%
X44800000Y-135675000D03*
X46800000Y-135675000D03*
%TO.C,J2-3*%
X61800000Y-135675000D03*
X63800000Y-135675000D03*
%TO.C,J2-4*%
X78800000Y-135675000D03*
X80800000Y-135675000D03*
D16*
%TO.C,J1-1*%
X11875000Y-139338001D02*
X11875000Y-139738001D01*
D17*
X11875000Y-131187999D02*
X11875000Y-131387999D01*
D18*
%TO.C,J6-2*%
X16500000Y-8100000D03*
X16500000Y-15600000D03*
%TO.C,J2-1*%
X25300000Y-130045000D03*
X25300000Y-137545000D03*
%TO.C,J6-2*%
X31500000Y-8100000D03*
X31500000Y-15600000D03*
%TO.C,J2-1*%
X32300000Y-130045000D03*
X32300000Y-137545000D03*
%TO.C,J2-2*%
X42300000Y-130045000D03*
X42300000Y-137545000D03*
%TO.C,J6-1*%
X42500000Y-8105000D03*
X42500000Y-15605000D03*
%TO.C,J2-2*%
X49300000Y-130045000D03*
X49300000Y-137545000D03*
%TO.C,J6-1*%
X57500000Y-8105000D03*
X57500000Y-15605000D03*
%TO.C,J2-3*%
X59300000Y-130045000D03*
X59300000Y-137545000D03*
X66300000Y-130045000D03*
X66300000Y-137545000D03*
%TO.C,J5-1*%
X68500000Y-7060000D03*
X68500000Y-17260000D03*
%TO.C,J2-4*%
X76300000Y-130045000D03*
X76300000Y-137545000D03*
X83300000Y-130045000D03*
X83300000Y-137545000D03*
%TO.C,J5-1*%
X83500000Y-7060000D03*
X83500000Y-17260000D03*
D19*
%TO.C,J15*%
X24050000Y-28180000D03*
%TO.C,J16*%
X24050000Y-114620000D03*
%TO.C,J15*%
X87550000Y-28180000D03*
%TO.C,J16*%
X87550000Y-114620000D03*
M02*
