G04 #@! TF.GenerationSoftware,KiCad,Pcbnew,9.0.0*
G04 #@! TF.CreationDate,2025-03-27T12:33:13+01:00*
G04 #@! TF.ProjectId,Cabletester_CB_Diamler_2,4361626c-6574-4657-9374-65725f43425f,rev?*
G04 #@! TF.SameCoordinates,PX1c9c380PY1c9c380*
G04 #@! TF.FileFunction,Legend,Bot*
G04 #@! TF.FilePolarity,Positive*
%FSLAX46Y46*%
G04 Gerber Fmt 4.6, Leading zero omitted, Abs format (unit mm)*
G04 Created by KiCad (PCBNEW 9.0.0) date 2025-03-27 12:33:13*
%MOMM*%
%LPD*%
G01*
G04 APERTURE LIST*
%ADD10C,0.150000*%
%ADD11C,0.120000*%
G04 #@! TA.AperFunction,Profile*
%ADD12C,0.050000*%
G04 #@! TD*
G04 APERTURE END LIST*
D10*
X56609523Y-34944819D02*
X56609523Y-35659104D01*
X56609523Y-35659104D02*
X56657142Y-35801961D01*
X56657142Y-35801961D02*
X56752380Y-35897200D01*
X56752380Y-35897200D02*
X56895237Y-35944819D01*
X56895237Y-35944819D02*
X56990475Y-35944819D01*
X55609523Y-35944819D02*
X56180951Y-35944819D01*
X55895237Y-35944819D02*
X55895237Y-34944819D01*
X55895237Y-34944819D02*
X55990475Y-35087676D01*
X55990475Y-35087676D02*
X56085713Y-35182914D01*
X56085713Y-35182914D02*
X56180951Y-35230533D01*
X54704761Y-34944819D02*
X55180951Y-34944819D01*
X55180951Y-34944819D02*
X55228570Y-35421009D01*
X55228570Y-35421009D02*
X55180951Y-35373390D01*
X55180951Y-35373390D02*
X55085713Y-35325771D01*
X55085713Y-35325771D02*
X54847618Y-35325771D01*
X54847618Y-35325771D02*
X54752380Y-35373390D01*
X54752380Y-35373390D02*
X54704761Y-35421009D01*
X54704761Y-35421009D02*
X54657142Y-35516247D01*
X54657142Y-35516247D02*
X54657142Y-35754342D01*
X54657142Y-35754342D02*
X54704761Y-35849580D01*
X54704761Y-35849580D02*
X54752380Y-35897200D01*
X54752380Y-35897200D02*
X54847618Y-35944819D01*
X54847618Y-35944819D02*
X55085713Y-35944819D01*
X55085713Y-35944819D02*
X55180951Y-35897200D01*
X55180951Y-35897200D02*
X55228570Y-35849580D01*
X56609523Y-94564819D02*
X56609523Y-95279104D01*
X56609523Y-95279104D02*
X56657142Y-95421961D01*
X56657142Y-95421961D02*
X56752380Y-95517200D01*
X56752380Y-95517200D02*
X56895237Y-95564819D01*
X56895237Y-95564819D02*
X56990475Y-95564819D01*
X55609523Y-95564819D02*
X56180951Y-95564819D01*
X55895237Y-95564819D02*
X55895237Y-94564819D01*
X55895237Y-94564819D02*
X55990475Y-94707676D01*
X55990475Y-94707676D02*
X56085713Y-94802914D01*
X56085713Y-94802914D02*
X56180951Y-94850533D01*
X54752380Y-94564819D02*
X54942856Y-94564819D01*
X54942856Y-94564819D02*
X55038094Y-94612438D01*
X55038094Y-94612438D02*
X55085713Y-94660057D01*
X55085713Y-94660057D02*
X55180951Y-94802914D01*
X55180951Y-94802914D02*
X55228570Y-94993390D01*
X55228570Y-94993390D02*
X55228570Y-95374342D01*
X55228570Y-95374342D02*
X55180951Y-95469580D01*
X55180951Y-95469580D02*
X55133332Y-95517200D01*
X55133332Y-95517200D02*
X55038094Y-95564819D01*
X55038094Y-95564819D02*
X54847618Y-95564819D01*
X54847618Y-95564819D02*
X54752380Y-95517200D01*
X54752380Y-95517200D02*
X54704761Y-95469580D01*
X54704761Y-95469580D02*
X54657142Y-95374342D01*
X54657142Y-95374342D02*
X54657142Y-95136247D01*
X54657142Y-95136247D02*
X54704761Y-95041009D01*
X54704761Y-95041009D02*
X54752380Y-94993390D01*
X54752380Y-94993390D02*
X54847618Y-94945771D01*
X54847618Y-94945771D02*
X55038094Y-94945771D01*
X55038094Y-94945771D02*
X55133332Y-94993390D01*
X55133332Y-94993390D02*
X55180951Y-95041009D01*
X55180951Y-95041009D02*
X55228570Y-95136247D01*
D11*
G04 #@! TO.C,J15*
X21040000Y-22930000D02*
X21040000Y-33430000D01*
X22100000Y-34490000D02*
X89500000Y-34490000D01*
X28683530Y-30241744D02*
X29512267Y-25541744D01*
X30318311Y-32190000D02*
X81281689Y-32190000D01*
X31147048Y-24170000D02*
X80452952Y-24170000D01*
X80480000Y-35384338D02*
X80980000Y-35384338D01*
X80730000Y-34951325D02*
X80480000Y-35384338D01*
X80980000Y-35384338D02*
X80730000Y-34951325D01*
X82916470Y-30241744D02*
X82087733Y-25541744D01*
X89500000Y-21870000D02*
X22100000Y-21870000D01*
X90560000Y-33430000D02*
X90560000Y-22930000D01*
X21040000Y-22930000D02*
G75*
G02*
X22100000Y-21870000I1060001J-1D01*
G01*
X22100000Y-34490000D02*
G75*
G02*
X21040000Y-33430000I1J1060001D01*
G01*
X29512267Y-25541744D02*
G75*
G02*
X31147048Y-24170000I1634783J-288259D01*
G01*
X30318311Y-32190000D02*
G75*
G02*
X28683530Y-30241744I-1J1659999D01*
G01*
X80452952Y-24170000D02*
G75*
G02*
X82087698Y-25541750I48J-1659900D01*
G01*
X82916470Y-30241744D02*
G75*
G02*
X81281689Y-32189989I-1634770J-288256D01*
G01*
X89500000Y-21870000D02*
G75*
G02*
X90560000Y-22930000I0J-1060000D01*
G01*
X90560000Y-33430000D02*
G75*
G02*
X89500000Y-34490000I-1060000J0D01*
G01*
G04 #@! TO.C,J16*
X90560000Y-119870000D02*
G75*
G02*
X89500000Y-120930000I-1060001J1D01*
G01*
X89500000Y-108310000D02*
G75*
G02*
X90560000Y-109370000I-1J-1060001D01*
G01*
X82087733Y-117258256D02*
G75*
G02*
X80452952Y-118630000I-1634783J288259D01*
G01*
X81281689Y-110610000D02*
G75*
G02*
X82916470Y-112558256I1J-1659999D01*
G01*
X31147048Y-118630000D02*
G75*
G02*
X29512302Y-117258250I-48J1659900D01*
G01*
X28683530Y-112558256D02*
G75*
G02*
X30318311Y-110610011I1634770J288256D01*
G01*
X22100000Y-120930000D02*
G75*
G02*
X21040000Y-119870000I0J1060000D01*
G01*
X21040000Y-109370000D02*
G75*
G02*
X22100000Y-108310000I1060000J0D01*
G01*
X90560000Y-119870000D02*
X90560000Y-109370000D01*
X89500000Y-108310000D02*
X22100000Y-108310000D01*
X82916470Y-112558256D02*
X82087733Y-117258256D01*
X81281689Y-110610000D02*
X30318311Y-110610000D01*
X80452952Y-118630000D02*
X31147048Y-118630000D01*
X31120000Y-107415662D02*
X30620000Y-107415662D01*
X30870000Y-107848675D02*
X31120000Y-107415662D01*
X30620000Y-107415662D02*
X30870000Y-107848675D01*
X28683530Y-112558256D02*
X29512267Y-117258256D01*
X22100000Y-120930000D02*
X89500000Y-120930000D01*
X21040000Y-109370000D02*
X21040000Y-119870000D01*
G04 #@! TD*
D12*
X106300000Y-143900000D02*
X5300000Y-143900000D01*
X1300000Y-139900000D02*
X1300000Y-5900000D01*
X5300000Y-143900000D02*
G75*
G02*
X1300000Y-139900000I0J4000000D01*
G01*
X1300000Y-5900000D02*
G75*
G02*
X5300000Y-1900000I4000000J0D01*
G01*
X110300000Y-139900000D02*
G75*
G02*
X106300000Y-143900000I-4000000J0D01*
G01*
X106300000Y-1900000D02*
G75*
G02*
X110300000Y-5900000I0J-4000000D01*
G01*
X110300000Y-139900000D02*
X110300000Y-5900000D01*
X5300000Y-1900000D02*
X106300000Y-1900000D01*
M02*
