G04 #@! TF.GenerationSoftware,KiCad,Pcbnew,9.0.0*
G04 #@! TF.CreationDate,2025-03-27T12:33:13+01:00*
G04 #@! TF.ProjectId,Cabletester_CB_Diamler_2,4361626c-6574-4657-9374-65725f43425f,rev?*
G04 #@! TF.SameCoordinates,PX1c9c380PY1c9c380*
G04 #@! TF.FileFunction,Legend,Top*
G04 #@! TF.FilePolarity,Positive*
%FSLAX46Y46*%
G04 Gerber Fmt 4.6, Leading zero omitted, Abs format (unit mm)*
G04 Created by KiCad (PCBNEW 9.0.0) date 2025-03-27 12:33:13*
%MOMM*%
%LPD*%
G01*
G04 APERTURE LIST*
%ADD10C,0.100000*%
%ADD11C,0.500000*%
%ADD12C,0.300000*%
%ADD13C,0.125000*%
%ADD14C,0.400000*%
%ADD15C,0.150000*%
%ADD16C,0.254000*%
%ADD17C,0.200000*%
%ADD18C,0.152400*%
G04 #@! TA.AperFunction,Profile*
%ADD19C,0.050000*%
G04 #@! TD*
G04 APERTURE END LIST*
D10*
X5600000Y-44650000D02*
X63600000Y-44650000D01*
X63600000Y-54650000D01*
X5600000Y-54650000D01*
X5600000Y-44650000D01*
G36*
X5600000Y-44650000D02*
G01*
X63600000Y-44650000D01*
X63600000Y-54650000D01*
X5600000Y-54650000D01*
X5600000Y-44650000D01*
G37*
D11*
X5000000Y-89000000D02*
X5000000Y-92000000D01*
D10*
X4600000Y-39950000D02*
X64600000Y-39950000D01*
X64600000Y-55250000D01*
X4600000Y-55250000D01*
X4600000Y-39950000D01*
D11*
X5000000Y-92000000D02*
X4000000Y-91000000D01*
X5000000Y-92000000D02*
X6000000Y-91000000D01*
D12*
X7416415Y-42599161D02*
X7321177Y-42694400D01*
X7321177Y-42694400D02*
X7035463Y-42789638D01*
X7035463Y-42789638D02*
X6844987Y-42789638D01*
X6844987Y-42789638D02*
X6559272Y-42694400D01*
X6559272Y-42694400D02*
X6368796Y-42503923D01*
X6368796Y-42503923D02*
X6273558Y-42313447D01*
X6273558Y-42313447D02*
X6178320Y-41932495D01*
X6178320Y-41932495D02*
X6178320Y-41646780D01*
X6178320Y-41646780D02*
X6273558Y-41265828D01*
X6273558Y-41265828D02*
X6368796Y-41075352D01*
X6368796Y-41075352D02*
X6559272Y-40884876D01*
X6559272Y-40884876D02*
X6844987Y-40789638D01*
X6844987Y-40789638D02*
X7035463Y-40789638D01*
X7035463Y-40789638D02*
X7321177Y-40884876D01*
X7321177Y-40884876D02*
X7416415Y-40980114D01*
X8940225Y-41742019D02*
X9225939Y-41837257D01*
X9225939Y-41837257D02*
X9321177Y-41932495D01*
X9321177Y-41932495D02*
X9416415Y-42122971D01*
X9416415Y-42122971D02*
X9416415Y-42408685D01*
X9416415Y-42408685D02*
X9321177Y-42599161D01*
X9321177Y-42599161D02*
X9225939Y-42694400D01*
X9225939Y-42694400D02*
X9035463Y-42789638D01*
X9035463Y-42789638D02*
X8273558Y-42789638D01*
X8273558Y-42789638D02*
X8273558Y-40789638D01*
X8273558Y-40789638D02*
X8940225Y-40789638D01*
X8940225Y-40789638D02*
X9130701Y-40884876D01*
X9130701Y-40884876D02*
X9225939Y-40980114D01*
X9225939Y-40980114D02*
X9321177Y-41170590D01*
X9321177Y-41170590D02*
X9321177Y-41361066D01*
X9321177Y-41361066D02*
X9225939Y-41551542D01*
X9225939Y-41551542D02*
X9130701Y-41646780D01*
X9130701Y-41646780D02*
X8940225Y-41742019D01*
X8940225Y-41742019D02*
X8273558Y-41742019D01*
X9797368Y-42980114D02*
X11321177Y-42980114D01*
X11797368Y-42789638D02*
X11797368Y-40789638D01*
X11797368Y-40789638D02*
X12464035Y-42218209D01*
X12464035Y-42218209D02*
X13130701Y-40789638D01*
X13130701Y-40789638D02*
X13130701Y-42789638D01*
X14844987Y-42694400D02*
X14654511Y-42789638D01*
X14654511Y-42789638D02*
X14273558Y-42789638D01*
X14273558Y-42789638D02*
X14083082Y-42694400D01*
X14083082Y-42694400D02*
X13987844Y-42503923D01*
X13987844Y-42503923D02*
X13987844Y-41742019D01*
X13987844Y-41742019D02*
X14083082Y-41551542D01*
X14083082Y-41551542D02*
X14273558Y-41456304D01*
X14273558Y-41456304D02*
X14654511Y-41456304D01*
X14654511Y-41456304D02*
X14844987Y-41551542D01*
X14844987Y-41551542D02*
X14940225Y-41742019D01*
X14940225Y-41742019D02*
X14940225Y-41932495D01*
X14940225Y-41932495D02*
X13987844Y-42122971D01*
X15797368Y-42789638D02*
X15797368Y-41456304D01*
X15797368Y-41837257D02*
X15892606Y-41646780D01*
X15892606Y-41646780D02*
X15987844Y-41551542D01*
X15987844Y-41551542D02*
X16178320Y-41456304D01*
X16178320Y-41456304D02*
X16368797Y-41456304D01*
X17892606Y-42694400D02*
X17702130Y-42789638D01*
X17702130Y-42789638D02*
X17321177Y-42789638D01*
X17321177Y-42789638D02*
X17130701Y-42694400D01*
X17130701Y-42694400D02*
X17035463Y-42599161D01*
X17035463Y-42599161D02*
X16940225Y-42408685D01*
X16940225Y-42408685D02*
X16940225Y-41837257D01*
X16940225Y-41837257D02*
X17035463Y-41646780D01*
X17035463Y-41646780D02*
X17130701Y-41551542D01*
X17130701Y-41551542D02*
X17321177Y-41456304D01*
X17321177Y-41456304D02*
X17702130Y-41456304D01*
X17702130Y-41456304D02*
X17892606Y-41551542D01*
X19511654Y-42694400D02*
X19321178Y-42789638D01*
X19321178Y-42789638D02*
X18940225Y-42789638D01*
X18940225Y-42789638D02*
X18749749Y-42694400D01*
X18749749Y-42694400D02*
X18654511Y-42503923D01*
X18654511Y-42503923D02*
X18654511Y-41742019D01*
X18654511Y-41742019D02*
X18749749Y-41551542D01*
X18749749Y-41551542D02*
X18940225Y-41456304D01*
X18940225Y-41456304D02*
X19321178Y-41456304D01*
X19321178Y-41456304D02*
X19511654Y-41551542D01*
X19511654Y-41551542D02*
X19606892Y-41742019D01*
X19606892Y-41742019D02*
X19606892Y-41932495D01*
X19606892Y-41932495D02*
X18654511Y-42122971D01*
X21321178Y-42789638D02*
X21321178Y-40789638D01*
X21321178Y-42694400D02*
X21130702Y-42789638D01*
X21130702Y-42789638D02*
X20749749Y-42789638D01*
X20749749Y-42789638D02*
X20559273Y-42694400D01*
X20559273Y-42694400D02*
X20464035Y-42599161D01*
X20464035Y-42599161D02*
X20368797Y-42408685D01*
X20368797Y-42408685D02*
X20368797Y-41837257D01*
X20368797Y-41837257D02*
X20464035Y-41646780D01*
X20464035Y-41646780D02*
X20559273Y-41551542D01*
X20559273Y-41551542D02*
X20749749Y-41456304D01*
X20749749Y-41456304D02*
X21130702Y-41456304D01*
X21130702Y-41456304D02*
X21321178Y-41551542D01*
X23035464Y-42694400D02*
X22844988Y-42789638D01*
X22844988Y-42789638D02*
X22464035Y-42789638D01*
X22464035Y-42789638D02*
X22273559Y-42694400D01*
X22273559Y-42694400D02*
X22178321Y-42503923D01*
X22178321Y-42503923D02*
X22178321Y-41742019D01*
X22178321Y-41742019D02*
X22273559Y-41551542D01*
X22273559Y-41551542D02*
X22464035Y-41456304D01*
X22464035Y-41456304D02*
X22844988Y-41456304D01*
X22844988Y-41456304D02*
X23035464Y-41551542D01*
X23035464Y-41551542D02*
X23130702Y-41742019D01*
X23130702Y-41742019D02*
X23130702Y-41932495D01*
X23130702Y-41932495D02*
X22178321Y-42122971D01*
X23892607Y-42694400D02*
X24083083Y-42789638D01*
X24083083Y-42789638D02*
X24464035Y-42789638D01*
X24464035Y-42789638D02*
X24654512Y-42694400D01*
X24654512Y-42694400D02*
X24749750Y-42503923D01*
X24749750Y-42503923D02*
X24749750Y-42408685D01*
X24749750Y-42408685D02*
X24654512Y-42218209D01*
X24654512Y-42218209D02*
X24464035Y-42122971D01*
X24464035Y-42122971D02*
X24178321Y-42122971D01*
X24178321Y-42122971D02*
X23987845Y-42027733D01*
X23987845Y-42027733D02*
X23892607Y-41837257D01*
X23892607Y-41837257D02*
X23892607Y-41742019D01*
X23892607Y-41742019D02*
X23987845Y-41551542D01*
X23987845Y-41551542D02*
X24178321Y-41456304D01*
X24178321Y-41456304D02*
X24464035Y-41456304D01*
X24464035Y-41456304D02*
X24654512Y-41551542D01*
X25606893Y-42027733D02*
X27130703Y-42027733D01*
X28749750Y-41742019D02*
X29035464Y-41837257D01*
X29035464Y-41837257D02*
X29130702Y-41932495D01*
X29130702Y-41932495D02*
X29225940Y-42122971D01*
X29225940Y-42122971D02*
X29225940Y-42408685D01*
X29225940Y-42408685D02*
X29130702Y-42599161D01*
X29130702Y-42599161D02*
X29035464Y-42694400D01*
X29035464Y-42694400D02*
X28844988Y-42789638D01*
X28844988Y-42789638D02*
X28083083Y-42789638D01*
X28083083Y-42789638D02*
X28083083Y-40789638D01*
X28083083Y-40789638D02*
X28749750Y-40789638D01*
X28749750Y-40789638D02*
X28940226Y-40884876D01*
X28940226Y-40884876D02*
X29035464Y-40980114D01*
X29035464Y-40980114D02*
X29130702Y-41170590D01*
X29130702Y-41170590D02*
X29130702Y-41361066D01*
X29130702Y-41361066D02*
X29035464Y-41551542D01*
X29035464Y-41551542D02*
X28940226Y-41646780D01*
X28940226Y-41646780D02*
X28749750Y-41742019D01*
X28749750Y-41742019D02*
X28083083Y-41742019D01*
X30844988Y-42694400D02*
X30654512Y-42789638D01*
X30654512Y-42789638D02*
X30273559Y-42789638D01*
X30273559Y-42789638D02*
X30083083Y-42694400D01*
X30083083Y-42694400D02*
X29987845Y-42503923D01*
X29987845Y-42503923D02*
X29987845Y-41742019D01*
X29987845Y-41742019D02*
X30083083Y-41551542D01*
X30083083Y-41551542D02*
X30273559Y-41456304D01*
X30273559Y-41456304D02*
X30654512Y-41456304D01*
X30654512Y-41456304D02*
X30844988Y-41551542D01*
X30844988Y-41551542D02*
X30940226Y-41742019D01*
X30940226Y-41742019D02*
X30940226Y-41932495D01*
X30940226Y-41932495D02*
X29987845Y-42122971D01*
X31797369Y-41456304D02*
X31797369Y-42789638D01*
X31797369Y-41646780D02*
X31892607Y-41551542D01*
X31892607Y-41551542D02*
X32083083Y-41456304D01*
X32083083Y-41456304D02*
X32368798Y-41456304D01*
X32368798Y-41456304D02*
X32559274Y-41551542D01*
X32559274Y-41551542D02*
X32654512Y-41742019D01*
X32654512Y-41742019D02*
X32654512Y-42789638D01*
X33416417Y-41456304D02*
X34464036Y-41456304D01*
X34464036Y-41456304D02*
X33416417Y-42789638D01*
X33416417Y-42789638D02*
X34464036Y-42789638D01*
X34749751Y-42980114D02*
X36273560Y-42980114D01*
X36654513Y-40980114D02*
X36749751Y-40884876D01*
X36749751Y-40884876D02*
X36940227Y-40789638D01*
X36940227Y-40789638D02*
X37416418Y-40789638D01*
X37416418Y-40789638D02*
X37606894Y-40884876D01*
X37606894Y-40884876D02*
X37702132Y-40980114D01*
X37702132Y-40980114D02*
X37797370Y-41170590D01*
X37797370Y-41170590D02*
X37797370Y-41361066D01*
X37797370Y-41361066D02*
X37702132Y-41646780D01*
X37702132Y-41646780D02*
X36559275Y-42789638D01*
X36559275Y-42789638D02*
X37797370Y-42789638D01*
D13*
X3653664Y-87347309D02*
X3796521Y-87394928D01*
X3796521Y-87394928D02*
X3844140Y-87442547D01*
X3844140Y-87442547D02*
X3891759Y-87537785D01*
X3891759Y-87537785D02*
X3891759Y-87680642D01*
X3891759Y-87680642D02*
X3844140Y-87775880D01*
X3844140Y-87775880D02*
X3796521Y-87823500D01*
X3796521Y-87823500D02*
X3701283Y-87871119D01*
X3701283Y-87871119D02*
X3320331Y-87871119D01*
X3320331Y-87871119D02*
X3320331Y-86871119D01*
X3320331Y-86871119D02*
X3653664Y-86871119D01*
X3653664Y-86871119D02*
X3748902Y-86918738D01*
X3748902Y-86918738D02*
X3796521Y-86966357D01*
X3796521Y-86966357D02*
X3844140Y-87061595D01*
X3844140Y-87061595D02*
X3844140Y-87156833D01*
X3844140Y-87156833D02*
X3796521Y-87252071D01*
X3796521Y-87252071D02*
X3748902Y-87299690D01*
X3748902Y-87299690D02*
X3653664Y-87347309D01*
X3653664Y-87347309D02*
X3320331Y-87347309D01*
X4463188Y-87871119D02*
X4367950Y-87823500D01*
X4367950Y-87823500D02*
X4320331Y-87775880D01*
X4320331Y-87775880D02*
X4272712Y-87680642D01*
X4272712Y-87680642D02*
X4272712Y-87394928D01*
X4272712Y-87394928D02*
X4320331Y-87299690D01*
X4320331Y-87299690D02*
X4367950Y-87252071D01*
X4367950Y-87252071D02*
X4463188Y-87204452D01*
X4463188Y-87204452D02*
X4606045Y-87204452D01*
X4606045Y-87204452D02*
X4701283Y-87252071D01*
X4701283Y-87252071D02*
X4748902Y-87299690D01*
X4748902Y-87299690D02*
X4796521Y-87394928D01*
X4796521Y-87394928D02*
X4796521Y-87680642D01*
X4796521Y-87680642D02*
X4748902Y-87775880D01*
X4748902Y-87775880D02*
X4701283Y-87823500D01*
X4701283Y-87823500D02*
X4606045Y-87871119D01*
X4606045Y-87871119D02*
X4463188Y-87871119D01*
X5653664Y-87871119D02*
X5653664Y-87347309D01*
X5653664Y-87347309D02*
X5606045Y-87252071D01*
X5606045Y-87252071D02*
X5510807Y-87204452D01*
X5510807Y-87204452D02*
X5320331Y-87204452D01*
X5320331Y-87204452D02*
X5225093Y-87252071D01*
X5653664Y-87823500D02*
X5558426Y-87871119D01*
X5558426Y-87871119D02*
X5320331Y-87871119D01*
X5320331Y-87871119D02*
X5225093Y-87823500D01*
X5225093Y-87823500D02*
X5177474Y-87728261D01*
X5177474Y-87728261D02*
X5177474Y-87633023D01*
X5177474Y-87633023D02*
X5225093Y-87537785D01*
X5225093Y-87537785D02*
X5320331Y-87490166D01*
X5320331Y-87490166D02*
X5558426Y-87490166D01*
X5558426Y-87490166D02*
X5653664Y-87442547D01*
X6129855Y-87871119D02*
X6129855Y-87204452D01*
X6129855Y-87394928D02*
X6177474Y-87299690D01*
X6177474Y-87299690D02*
X6225093Y-87252071D01*
X6225093Y-87252071D02*
X6320331Y-87204452D01*
X6320331Y-87204452D02*
X6415569Y-87204452D01*
X7177474Y-87871119D02*
X7177474Y-86871119D01*
X7177474Y-87823500D02*
X7082236Y-87871119D01*
X7082236Y-87871119D02*
X6891760Y-87871119D01*
X6891760Y-87871119D02*
X6796522Y-87823500D01*
X6796522Y-87823500D02*
X6748903Y-87775880D01*
X6748903Y-87775880D02*
X6701284Y-87680642D01*
X6701284Y-87680642D02*
X6701284Y-87394928D01*
X6701284Y-87394928D02*
X6748903Y-87299690D01*
X6748903Y-87299690D02*
X6796522Y-87252071D01*
X6796522Y-87252071D02*
X6891760Y-87204452D01*
X6891760Y-87204452D02*
X7082236Y-87204452D01*
X7082236Y-87204452D02*
X7177474Y-87252071D01*
X8415570Y-87871119D02*
X8415570Y-86871119D01*
X8891760Y-87871119D02*
X8891760Y-86871119D01*
X8891760Y-86871119D02*
X9129855Y-86871119D01*
X9129855Y-86871119D02*
X9272712Y-86918738D01*
X9272712Y-86918738D02*
X9367950Y-87013976D01*
X9367950Y-87013976D02*
X9415569Y-87109214D01*
X9415569Y-87109214D02*
X9463188Y-87299690D01*
X9463188Y-87299690D02*
X9463188Y-87442547D01*
X9463188Y-87442547D02*
X9415569Y-87633023D01*
X9415569Y-87633023D02*
X9367950Y-87728261D01*
X9367950Y-87728261D02*
X9272712Y-87823500D01*
X9272712Y-87823500D02*
X9129855Y-87871119D01*
X9129855Y-87871119D02*
X8891760Y-87871119D01*
X10939379Y-88252071D02*
X10891760Y-88204452D01*
X10891760Y-88204452D02*
X10796522Y-88061595D01*
X10796522Y-88061595D02*
X10748903Y-87966357D01*
X10748903Y-87966357D02*
X10701284Y-87823500D01*
X10701284Y-87823500D02*
X10653665Y-87585404D01*
X10653665Y-87585404D02*
X10653665Y-87394928D01*
X10653665Y-87394928D02*
X10701284Y-87156833D01*
X10701284Y-87156833D02*
X10748903Y-87013976D01*
X10748903Y-87013976D02*
X10796522Y-86918738D01*
X10796522Y-86918738D02*
X10891760Y-86775880D01*
X10891760Y-86775880D02*
X10939379Y-86728261D01*
X11844141Y-87871119D02*
X11272713Y-87871119D01*
X11558427Y-87871119D02*
X11558427Y-86871119D01*
X11558427Y-86871119D02*
X11463189Y-87013976D01*
X11463189Y-87013976D02*
X11367951Y-87109214D01*
X11367951Y-87109214D02*
X11272713Y-87156833D01*
X12415570Y-87299690D02*
X12320332Y-87252071D01*
X12320332Y-87252071D02*
X12272713Y-87204452D01*
X12272713Y-87204452D02*
X12225094Y-87109214D01*
X12225094Y-87109214D02*
X12225094Y-87061595D01*
X12225094Y-87061595D02*
X12272713Y-86966357D01*
X12272713Y-86966357D02*
X12320332Y-86918738D01*
X12320332Y-86918738D02*
X12415570Y-86871119D01*
X12415570Y-86871119D02*
X12606046Y-86871119D01*
X12606046Y-86871119D02*
X12701284Y-86918738D01*
X12701284Y-86918738D02*
X12748903Y-86966357D01*
X12748903Y-86966357D02*
X12796522Y-87061595D01*
X12796522Y-87061595D02*
X12796522Y-87109214D01*
X12796522Y-87109214D02*
X12748903Y-87204452D01*
X12748903Y-87204452D02*
X12701284Y-87252071D01*
X12701284Y-87252071D02*
X12606046Y-87299690D01*
X12606046Y-87299690D02*
X12415570Y-87299690D01*
X12415570Y-87299690D02*
X12320332Y-87347309D01*
X12320332Y-87347309D02*
X12272713Y-87394928D01*
X12272713Y-87394928D02*
X12225094Y-87490166D01*
X12225094Y-87490166D02*
X12225094Y-87680642D01*
X12225094Y-87680642D02*
X12272713Y-87775880D01*
X12272713Y-87775880D02*
X12320332Y-87823500D01*
X12320332Y-87823500D02*
X12415570Y-87871119D01*
X12415570Y-87871119D02*
X12606046Y-87871119D01*
X12606046Y-87871119D02*
X12701284Y-87823500D01*
X12701284Y-87823500D02*
X12748903Y-87775880D01*
X12748903Y-87775880D02*
X12796522Y-87680642D01*
X12796522Y-87680642D02*
X12796522Y-87490166D01*
X12796522Y-87490166D02*
X12748903Y-87394928D01*
X12748903Y-87394928D02*
X12701284Y-87347309D01*
X12701284Y-87347309D02*
X12606046Y-87299690D01*
X13225094Y-87490166D02*
X13986999Y-87490166D01*
X14891760Y-86871119D02*
X14701284Y-86871119D01*
X14701284Y-86871119D02*
X14606046Y-86918738D01*
X14606046Y-86918738D02*
X14558427Y-86966357D01*
X14558427Y-86966357D02*
X14463189Y-87109214D01*
X14463189Y-87109214D02*
X14415570Y-87299690D01*
X14415570Y-87299690D02*
X14415570Y-87680642D01*
X14415570Y-87680642D02*
X14463189Y-87775880D01*
X14463189Y-87775880D02*
X14510808Y-87823500D01*
X14510808Y-87823500D02*
X14606046Y-87871119D01*
X14606046Y-87871119D02*
X14796522Y-87871119D01*
X14796522Y-87871119D02*
X14891760Y-87823500D01*
X14891760Y-87823500D02*
X14939379Y-87775880D01*
X14939379Y-87775880D02*
X14986998Y-87680642D01*
X14986998Y-87680642D02*
X14986998Y-87442547D01*
X14986998Y-87442547D02*
X14939379Y-87347309D01*
X14939379Y-87347309D02*
X14891760Y-87299690D01*
X14891760Y-87299690D02*
X14796522Y-87252071D01*
X14796522Y-87252071D02*
X14606046Y-87252071D01*
X14606046Y-87252071D02*
X14510808Y-87299690D01*
X14510808Y-87299690D02*
X14463189Y-87347309D01*
X14463189Y-87347309D02*
X14415570Y-87442547D01*
X15844141Y-87204452D02*
X15844141Y-87871119D01*
X15606046Y-86823500D02*
X15367951Y-87537785D01*
X15367951Y-87537785D02*
X15986998Y-87537785D01*
X16272713Y-88252071D02*
X16320332Y-88204452D01*
X16320332Y-88204452D02*
X16415570Y-88061595D01*
X16415570Y-88061595D02*
X16463189Y-87966357D01*
X16463189Y-87966357D02*
X16510808Y-87823500D01*
X16510808Y-87823500D02*
X16558427Y-87585404D01*
X16558427Y-87585404D02*
X16558427Y-87394928D01*
X16558427Y-87394928D02*
X16510808Y-87156833D01*
X16510808Y-87156833D02*
X16463189Y-87013976D01*
X16463189Y-87013976D02*
X16415570Y-86918738D01*
X16415570Y-86918738D02*
X16320332Y-86775880D01*
X16320332Y-86775880D02*
X16272713Y-86728261D01*
D14*
X24442857Y-125699438D02*
X24442857Y-127128009D01*
X24442857Y-127128009D02*
X24347618Y-127413723D01*
X24347618Y-127413723D02*
X24157142Y-127604200D01*
X24157142Y-127604200D02*
X23871428Y-127699438D01*
X23871428Y-127699438D02*
X23680952Y-127699438D01*
X25300000Y-125889914D02*
X25395238Y-125794676D01*
X25395238Y-125794676D02*
X25585714Y-125699438D01*
X25585714Y-125699438D02*
X26061905Y-125699438D01*
X26061905Y-125699438D02*
X26252381Y-125794676D01*
X26252381Y-125794676D02*
X26347619Y-125889914D01*
X26347619Y-125889914D02*
X26442857Y-126080390D01*
X26442857Y-126080390D02*
X26442857Y-126270866D01*
X26442857Y-126270866D02*
X26347619Y-126556580D01*
X26347619Y-126556580D02*
X25204762Y-127699438D01*
X25204762Y-127699438D02*
X26442857Y-127699438D01*
X27300000Y-126937533D02*
X28823810Y-126937533D01*
X30823809Y-127699438D02*
X29680952Y-127699438D01*
X30252380Y-127699438D02*
X30252380Y-125699438D01*
X30252380Y-125699438D02*
X30061904Y-125985152D01*
X30061904Y-125985152D02*
X29871428Y-126175628D01*
X29871428Y-126175628D02*
X29680952Y-126270866D01*
X41442857Y-125699438D02*
X41442857Y-127128009D01*
X41442857Y-127128009D02*
X41347618Y-127413723D01*
X41347618Y-127413723D02*
X41157142Y-127604200D01*
X41157142Y-127604200D02*
X40871428Y-127699438D01*
X40871428Y-127699438D02*
X40680952Y-127699438D01*
X42300000Y-125889914D02*
X42395238Y-125794676D01*
X42395238Y-125794676D02*
X42585714Y-125699438D01*
X42585714Y-125699438D02*
X43061905Y-125699438D01*
X43061905Y-125699438D02*
X43252381Y-125794676D01*
X43252381Y-125794676D02*
X43347619Y-125889914D01*
X43347619Y-125889914D02*
X43442857Y-126080390D01*
X43442857Y-126080390D02*
X43442857Y-126270866D01*
X43442857Y-126270866D02*
X43347619Y-126556580D01*
X43347619Y-126556580D02*
X42204762Y-127699438D01*
X42204762Y-127699438D02*
X43442857Y-127699438D01*
X44300000Y-126937533D02*
X45823810Y-126937533D01*
X46680952Y-125889914D02*
X46776190Y-125794676D01*
X46776190Y-125794676D02*
X46966666Y-125699438D01*
X46966666Y-125699438D02*
X47442857Y-125699438D01*
X47442857Y-125699438D02*
X47633333Y-125794676D01*
X47633333Y-125794676D02*
X47728571Y-125889914D01*
X47728571Y-125889914D02*
X47823809Y-126080390D01*
X47823809Y-126080390D02*
X47823809Y-126270866D01*
X47823809Y-126270866D02*
X47728571Y-126556580D01*
X47728571Y-126556580D02*
X46585714Y-127699438D01*
X46585714Y-127699438D02*
X47823809Y-127699438D01*
X88024438Y-104657142D02*
X89453009Y-104657142D01*
X89453009Y-104657142D02*
X89738723Y-104752381D01*
X89738723Y-104752381D02*
X89929200Y-104942857D01*
X89929200Y-104942857D02*
X90024438Y-105228571D01*
X90024438Y-105228571D02*
X90024438Y-105419047D01*
X88024438Y-103895237D02*
X88024438Y-102657142D01*
X88024438Y-102657142D02*
X88786342Y-103323809D01*
X88786342Y-103323809D02*
X88786342Y-103038094D01*
X88786342Y-103038094D02*
X88881580Y-102847618D01*
X88881580Y-102847618D02*
X88976819Y-102752380D01*
X88976819Y-102752380D02*
X89167295Y-102657142D01*
X89167295Y-102657142D02*
X89643485Y-102657142D01*
X89643485Y-102657142D02*
X89833961Y-102752380D01*
X89833961Y-102752380D02*
X89929200Y-102847618D01*
X89929200Y-102847618D02*
X90024438Y-103038094D01*
X90024438Y-103038094D02*
X90024438Y-103609523D01*
X90024438Y-103609523D02*
X89929200Y-103799999D01*
X89929200Y-103799999D02*
X89833961Y-103895237D01*
X89262533Y-101799999D02*
X89262533Y-100276190D01*
X88214914Y-99419047D02*
X88119676Y-99323809D01*
X88119676Y-99323809D02*
X88024438Y-99133333D01*
X88024438Y-99133333D02*
X88024438Y-98657142D01*
X88024438Y-98657142D02*
X88119676Y-98466666D01*
X88119676Y-98466666D02*
X88214914Y-98371428D01*
X88214914Y-98371428D02*
X88405390Y-98276190D01*
X88405390Y-98276190D02*
X88595866Y-98276190D01*
X88595866Y-98276190D02*
X88881580Y-98371428D01*
X88881580Y-98371428D02*
X90024438Y-99514285D01*
X90024438Y-99514285D02*
X90024438Y-98276190D01*
X87601238Y-83846742D02*
X89029809Y-83846742D01*
X89029809Y-83846742D02*
X89315523Y-83941981D01*
X89315523Y-83941981D02*
X89506000Y-84132457D01*
X89506000Y-84132457D02*
X89601238Y-84418171D01*
X89601238Y-84418171D02*
X89601238Y-84608647D01*
X88267904Y-82037218D02*
X89601238Y-82037218D01*
X87506000Y-82513409D02*
X88934571Y-82989599D01*
X88934571Y-82989599D02*
X88934571Y-81751504D01*
X88839333Y-80989599D02*
X88839333Y-79465790D01*
X89601238Y-77465790D02*
X89601238Y-78608647D01*
X89601238Y-78037219D02*
X87601238Y-78037219D01*
X87601238Y-78037219D02*
X87886952Y-78227695D01*
X87886952Y-78227695D02*
X88077428Y-78418171D01*
X88077428Y-78418171D02*
X88172666Y-78608647D01*
D10*
X90169419Y-75488306D02*
X90169419Y-76059734D01*
X90169419Y-75774020D02*
X89169419Y-75774020D01*
X89169419Y-75774020D02*
X89312276Y-75869258D01*
X89312276Y-75869258D02*
X89407514Y-75964496D01*
X89407514Y-75964496D02*
X89455133Y-76059734D01*
D14*
X87601238Y-63846742D02*
X89029809Y-63846742D01*
X89029809Y-63846742D02*
X89315523Y-63941981D01*
X89315523Y-63941981D02*
X89506000Y-64132457D01*
X89506000Y-64132457D02*
X89601238Y-64418171D01*
X89601238Y-64418171D02*
X89601238Y-64608647D01*
X88267904Y-62037218D02*
X89601238Y-62037218D01*
X87506000Y-62513409D02*
X88934571Y-62989599D01*
X88934571Y-62989599D02*
X88934571Y-61751504D01*
X88839333Y-60989599D02*
X88839333Y-59465790D01*
X87791714Y-58608647D02*
X87696476Y-58513409D01*
X87696476Y-58513409D02*
X87601238Y-58322933D01*
X87601238Y-58322933D02*
X87601238Y-57846742D01*
X87601238Y-57846742D02*
X87696476Y-57656266D01*
X87696476Y-57656266D02*
X87791714Y-57561028D01*
X87791714Y-57561028D02*
X87982190Y-57465790D01*
X87982190Y-57465790D02*
X88172666Y-57465790D01*
X88172666Y-57465790D02*
X88458380Y-57561028D01*
X88458380Y-57561028D02*
X89601238Y-58703885D01*
X89601238Y-58703885D02*
X89601238Y-57465790D01*
D10*
X90169419Y-55488306D02*
X90169419Y-56059734D01*
X90169419Y-55774020D02*
X89169419Y-55774020D01*
X89169419Y-55774020D02*
X89312276Y-55869258D01*
X89312276Y-55869258D02*
X89407514Y-55964496D01*
X89407514Y-55964496D02*
X89455133Y-56059734D01*
D14*
X54357142Y-19950561D02*
X54357142Y-18521990D01*
X54357142Y-18521990D02*
X54452381Y-18236276D01*
X54452381Y-18236276D02*
X54642857Y-18045800D01*
X54642857Y-18045800D02*
X54928571Y-17950561D01*
X54928571Y-17950561D02*
X55119047Y-17950561D01*
X52547618Y-19950561D02*
X52928571Y-19950561D01*
X52928571Y-19950561D02*
X53119047Y-19855323D01*
X53119047Y-19855323D02*
X53214285Y-19760085D01*
X53214285Y-19760085D02*
X53404761Y-19474371D01*
X53404761Y-19474371D02*
X53499999Y-19093419D01*
X53499999Y-19093419D02*
X53499999Y-18331514D01*
X53499999Y-18331514D02*
X53404761Y-18141038D01*
X53404761Y-18141038D02*
X53309523Y-18045800D01*
X53309523Y-18045800D02*
X53119047Y-17950561D01*
X53119047Y-17950561D02*
X52738094Y-17950561D01*
X52738094Y-17950561D02*
X52547618Y-18045800D01*
X52547618Y-18045800D02*
X52452380Y-18141038D01*
X52452380Y-18141038D02*
X52357142Y-18331514D01*
X52357142Y-18331514D02*
X52357142Y-18807704D01*
X52357142Y-18807704D02*
X52452380Y-18998180D01*
X52452380Y-18998180D02*
X52547618Y-19093419D01*
X52547618Y-19093419D02*
X52738094Y-19188657D01*
X52738094Y-19188657D02*
X53119047Y-19188657D01*
X53119047Y-19188657D02*
X53309523Y-19093419D01*
X53309523Y-19093419D02*
X53404761Y-18998180D01*
X53404761Y-18998180D02*
X53499999Y-18807704D01*
X51499999Y-18712466D02*
X49976190Y-18712466D01*
X47976190Y-17950561D02*
X49119047Y-17950561D01*
X48547619Y-17950561D02*
X48547619Y-19950561D01*
X48547619Y-19950561D02*
X48738095Y-19664847D01*
X48738095Y-19664847D02*
X48928571Y-19474371D01*
X48928571Y-19474371D02*
X49119047Y-19379133D01*
D15*
X7702200Y-95698286D02*
X7740295Y-95584000D01*
X7740295Y-95584000D02*
X7740295Y-95393524D01*
X7740295Y-95393524D02*
X7702200Y-95317333D01*
X7702200Y-95317333D02*
X7664104Y-95279238D01*
X7664104Y-95279238D02*
X7587914Y-95241143D01*
X7587914Y-95241143D02*
X7511723Y-95241143D01*
X7511723Y-95241143D02*
X7435533Y-95279238D01*
X7435533Y-95279238D02*
X7397438Y-95317333D01*
X7397438Y-95317333D02*
X7359342Y-95393524D01*
X7359342Y-95393524D02*
X7321247Y-95545905D01*
X7321247Y-95545905D02*
X7283152Y-95622095D01*
X7283152Y-95622095D02*
X7245057Y-95660190D01*
X7245057Y-95660190D02*
X7168866Y-95698286D01*
X7168866Y-95698286D02*
X7092676Y-95698286D01*
X7092676Y-95698286D02*
X7016485Y-95660190D01*
X7016485Y-95660190D02*
X6978390Y-95622095D01*
X6978390Y-95622095D02*
X6940295Y-95545905D01*
X6940295Y-95545905D02*
X6940295Y-95355428D01*
X6940295Y-95355428D02*
X6978390Y-95241143D01*
X6940295Y-94669714D02*
X7511723Y-94669714D01*
X7511723Y-94669714D02*
X7626009Y-94707809D01*
X7626009Y-94707809D02*
X7702200Y-94784000D01*
X7702200Y-94784000D02*
X7740295Y-94898285D01*
X7740295Y-94898285D02*
X7740295Y-94974476D01*
X7740295Y-93869714D02*
X7740295Y-94326857D01*
X7740295Y-94098285D02*
X6940295Y-94098285D01*
X6940295Y-94098285D02*
X7054580Y-94174476D01*
X7054580Y-94174476D02*
X7130771Y-94250666D01*
X7130771Y-94250666D02*
X7168866Y-94326857D01*
D14*
X8942857Y-123104438D02*
X8942857Y-124533009D01*
X8942857Y-124533009D02*
X8847618Y-124818723D01*
X8847618Y-124818723D02*
X8657142Y-125009200D01*
X8657142Y-125009200D02*
X8371428Y-125104438D01*
X8371428Y-125104438D02*
X8180952Y-125104438D01*
X10942857Y-125104438D02*
X9800000Y-125104438D01*
X10371428Y-125104438D02*
X10371428Y-123104438D01*
X10371428Y-123104438D02*
X10180952Y-123390152D01*
X10180952Y-123390152D02*
X9990476Y-123580628D01*
X9990476Y-123580628D02*
X9800000Y-123675866D01*
X11800000Y-124342533D02*
X13323810Y-124342533D01*
X15323809Y-125104438D02*
X14180952Y-125104438D01*
X14752380Y-125104438D02*
X14752380Y-123104438D01*
X14752380Y-123104438D02*
X14561904Y-123390152D01*
X14561904Y-123390152D02*
X14371428Y-123580628D01*
X14371428Y-123580628D02*
X14180952Y-123675866D01*
X28357142Y-19945561D02*
X28357142Y-18516990D01*
X28357142Y-18516990D02*
X28452381Y-18231276D01*
X28452381Y-18231276D02*
X28642857Y-18040800D01*
X28642857Y-18040800D02*
X28928571Y-17945561D01*
X28928571Y-17945561D02*
X29119047Y-17945561D01*
X26547618Y-19945561D02*
X26928571Y-19945561D01*
X26928571Y-19945561D02*
X27119047Y-19850323D01*
X27119047Y-19850323D02*
X27214285Y-19755085D01*
X27214285Y-19755085D02*
X27404761Y-19469371D01*
X27404761Y-19469371D02*
X27499999Y-19088419D01*
X27499999Y-19088419D02*
X27499999Y-18326514D01*
X27499999Y-18326514D02*
X27404761Y-18136038D01*
X27404761Y-18136038D02*
X27309523Y-18040800D01*
X27309523Y-18040800D02*
X27119047Y-17945561D01*
X27119047Y-17945561D02*
X26738094Y-17945561D01*
X26738094Y-17945561D02*
X26547618Y-18040800D01*
X26547618Y-18040800D02*
X26452380Y-18136038D01*
X26452380Y-18136038D02*
X26357142Y-18326514D01*
X26357142Y-18326514D02*
X26357142Y-18802704D01*
X26357142Y-18802704D02*
X26452380Y-18993180D01*
X26452380Y-18993180D02*
X26547618Y-19088419D01*
X26547618Y-19088419D02*
X26738094Y-19183657D01*
X26738094Y-19183657D02*
X27119047Y-19183657D01*
X27119047Y-19183657D02*
X27309523Y-19088419D01*
X27309523Y-19088419D02*
X27404761Y-18993180D01*
X27404761Y-18993180D02*
X27499999Y-18802704D01*
X25499999Y-18707466D02*
X23976190Y-18707466D01*
X23119047Y-19755085D02*
X23023809Y-19850323D01*
X23023809Y-19850323D02*
X22833333Y-19945561D01*
X22833333Y-19945561D02*
X22357142Y-19945561D01*
X22357142Y-19945561D02*
X22166666Y-19850323D01*
X22166666Y-19850323D02*
X22071428Y-19755085D01*
X22071428Y-19755085D02*
X21976190Y-19564609D01*
X21976190Y-19564609D02*
X21976190Y-19374133D01*
X21976190Y-19374133D02*
X22071428Y-19088419D01*
X22071428Y-19088419D02*
X23214285Y-17945561D01*
X23214285Y-17945561D02*
X21976190Y-17945561D01*
X87601238Y-43846742D02*
X89029809Y-43846742D01*
X89029809Y-43846742D02*
X89315523Y-43941981D01*
X89315523Y-43941981D02*
X89506000Y-44132457D01*
X89506000Y-44132457D02*
X89601238Y-44418171D01*
X89601238Y-44418171D02*
X89601238Y-44608647D01*
X88267904Y-42037218D02*
X89601238Y-42037218D01*
X87506000Y-42513409D02*
X88934571Y-42989599D01*
X88934571Y-42989599D02*
X88934571Y-41751504D01*
X88839333Y-40989599D02*
X88839333Y-39465790D01*
X87601238Y-38703885D02*
X87601238Y-37465790D01*
X87601238Y-37465790D02*
X88363142Y-38132457D01*
X88363142Y-38132457D02*
X88363142Y-37846742D01*
X88363142Y-37846742D02*
X88458380Y-37656266D01*
X88458380Y-37656266D02*
X88553619Y-37561028D01*
X88553619Y-37561028D02*
X88744095Y-37465790D01*
X88744095Y-37465790D02*
X89220285Y-37465790D01*
X89220285Y-37465790D02*
X89410761Y-37561028D01*
X89410761Y-37561028D02*
X89506000Y-37656266D01*
X89506000Y-37656266D02*
X89601238Y-37846742D01*
X89601238Y-37846742D02*
X89601238Y-38418171D01*
X89601238Y-38418171D02*
X89506000Y-38608647D01*
X89506000Y-38608647D02*
X89410761Y-38703885D01*
D10*
X90169419Y-35488306D02*
X90169419Y-36059734D01*
X90169419Y-35774020D02*
X89169419Y-35774020D01*
X89169419Y-35774020D02*
X89312276Y-35869258D01*
X89312276Y-35869258D02*
X89407514Y-35964496D01*
X89407514Y-35964496D02*
X89455133Y-36059734D01*
D14*
X87601238Y-23846742D02*
X89029809Y-23846742D01*
X89029809Y-23846742D02*
X89315523Y-23941981D01*
X89315523Y-23941981D02*
X89506000Y-24132457D01*
X89506000Y-24132457D02*
X89601238Y-24418171D01*
X89601238Y-24418171D02*
X89601238Y-24608647D01*
X88267904Y-22037218D02*
X89601238Y-22037218D01*
X87506000Y-22513409D02*
X88934571Y-22989599D01*
X88934571Y-22989599D02*
X88934571Y-21751504D01*
X88839333Y-20989599D02*
X88839333Y-19465790D01*
X88267904Y-17656266D02*
X89601238Y-17656266D01*
X87506000Y-18132457D02*
X88934571Y-18608647D01*
X88934571Y-18608647D02*
X88934571Y-17370552D01*
D10*
X90169419Y-15488306D02*
X90169419Y-16059734D01*
X90169419Y-15774020D02*
X89169419Y-15774020D01*
X89169419Y-15774020D02*
X89312276Y-15869258D01*
X89312276Y-15869258D02*
X89407514Y-15964496D01*
X89407514Y-15964496D02*
X89455133Y-16059734D01*
D16*
X87712030Y-125857142D02*
X89140601Y-125857142D01*
X89140601Y-125857142D02*
X89426315Y-125952381D01*
X89426315Y-125952381D02*
X89616792Y-126142857D01*
X89616792Y-126142857D02*
X89712030Y-126428571D01*
X89712030Y-126428571D02*
X89712030Y-126619047D01*
X87712030Y-125095237D02*
X87712030Y-123857142D01*
X87712030Y-123857142D02*
X88473934Y-124523809D01*
X88473934Y-124523809D02*
X88473934Y-124238094D01*
X88473934Y-124238094D02*
X88569172Y-124047618D01*
X88569172Y-124047618D02*
X88664411Y-123952380D01*
X88664411Y-123952380D02*
X88854887Y-123857142D01*
X88854887Y-123857142D02*
X89331077Y-123857142D01*
X89331077Y-123857142D02*
X89521553Y-123952380D01*
X89521553Y-123952380D02*
X89616792Y-124047618D01*
X89616792Y-124047618D02*
X89712030Y-124238094D01*
X89712030Y-124238094D02*
X89712030Y-124809523D01*
X89712030Y-124809523D02*
X89616792Y-124999999D01*
X89616792Y-124999999D02*
X89521553Y-125095237D01*
X88950125Y-122999999D02*
X88950125Y-121476190D01*
X89712030Y-119476190D02*
X89712030Y-120619047D01*
X89712030Y-120047619D02*
X87712030Y-120047619D01*
X87712030Y-120047619D02*
X87997744Y-120238095D01*
X87997744Y-120238095D02*
X88188220Y-120428571D01*
X88188220Y-120428571D02*
X88283458Y-120619047D01*
D14*
X58442857Y-125699438D02*
X58442857Y-127128009D01*
X58442857Y-127128009D02*
X58347618Y-127413723D01*
X58347618Y-127413723D02*
X58157142Y-127604200D01*
X58157142Y-127604200D02*
X57871428Y-127699438D01*
X57871428Y-127699438D02*
X57680952Y-127699438D01*
X59300000Y-125889914D02*
X59395238Y-125794676D01*
X59395238Y-125794676D02*
X59585714Y-125699438D01*
X59585714Y-125699438D02*
X60061905Y-125699438D01*
X60061905Y-125699438D02*
X60252381Y-125794676D01*
X60252381Y-125794676D02*
X60347619Y-125889914D01*
X60347619Y-125889914D02*
X60442857Y-126080390D01*
X60442857Y-126080390D02*
X60442857Y-126270866D01*
X60442857Y-126270866D02*
X60347619Y-126556580D01*
X60347619Y-126556580D02*
X59204762Y-127699438D01*
X59204762Y-127699438D02*
X60442857Y-127699438D01*
X61300000Y-126937533D02*
X62823810Y-126937533D01*
X63585714Y-125699438D02*
X64823809Y-125699438D01*
X64823809Y-125699438D02*
X64157142Y-126461342D01*
X64157142Y-126461342D02*
X64442857Y-126461342D01*
X64442857Y-126461342D02*
X64633333Y-126556580D01*
X64633333Y-126556580D02*
X64728571Y-126651819D01*
X64728571Y-126651819D02*
X64823809Y-126842295D01*
X64823809Y-126842295D02*
X64823809Y-127318485D01*
X64823809Y-127318485D02*
X64728571Y-127508961D01*
X64728571Y-127508961D02*
X64633333Y-127604200D01*
X64633333Y-127604200D02*
X64442857Y-127699438D01*
X64442857Y-127699438D02*
X63871428Y-127699438D01*
X63871428Y-127699438D02*
X63680952Y-127604200D01*
X63680952Y-127604200D02*
X63585714Y-127508961D01*
X75442857Y-125699438D02*
X75442857Y-127128009D01*
X75442857Y-127128009D02*
X75347618Y-127413723D01*
X75347618Y-127413723D02*
X75157142Y-127604200D01*
X75157142Y-127604200D02*
X74871428Y-127699438D01*
X74871428Y-127699438D02*
X74680952Y-127699438D01*
X76300000Y-125889914D02*
X76395238Y-125794676D01*
X76395238Y-125794676D02*
X76585714Y-125699438D01*
X76585714Y-125699438D02*
X77061905Y-125699438D01*
X77061905Y-125699438D02*
X77252381Y-125794676D01*
X77252381Y-125794676D02*
X77347619Y-125889914D01*
X77347619Y-125889914D02*
X77442857Y-126080390D01*
X77442857Y-126080390D02*
X77442857Y-126270866D01*
X77442857Y-126270866D02*
X77347619Y-126556580D01*
X77347619Y-126556580D02*
X76204762Y-127699438D01*
X76204762Y-127699438D02*
X77442857Y-127699438D01*
X78300000Y-126937533D02*
X79823810Y-126937533D01*
X81633333Y-126366104D02*
X81633333Y-127699438D01*
X81157142Y-125604200D02*
X80680952Y-127032771D01*
X80680952Y-127032771D02*
X81919047Y-127032771D01*
X80357142Y-21605561D02*
X80357142Y-20176990D01*
X80357142Y-20176990D02*
X80452381Y-19891276D01*
X80452381Y-19891276D02*
X80642857Y-19700800D01*
X80642857Y-19700800D02*
X80928571Y-19605561D01*
X80928571Y-19605561D02*
X81119047Y-19605561D01*
X78452380Y-21605561D02*
X79404761Y-21605561D01*
X79404761Y-21605561D02*
X79499999Y-20653180D01*
X79499999Y-20653180D02*
X79404761Y-20748419D01*
X79404761Y-20748419D02*
X79214285Y-20843657D01*
X79214285Y-20843657D02*
X78738094Y-20843657D01*
X78738094Y-20843657D02*
X78547618Y-20748419D01*
X78547618Y-20748419D02*
X78452380Y-20653180D01*
X78452380Y-20653180D02*
X78357142Y-20462704D01*
X78357142Y-20462704D02*
X78357142Y-19986514D01*
X78357142Y-19986514D02*
X78452380Y-19796038D01*
X78452380Y-19796038D02*
X78547618Y-19700800D01*
X78547618Y-19700800D02*
X78738094Y-19605561D01*
X78738094Y-19605561D02*
X79214285Y-19605561D01*
X79214285Y-19605561D02*
X79404761Y-19700800D01*
X79404761Y-19700800D02*
X79499999Y-19796038D01*
X77499999Y-20367466D02*
X75976190Y-20367466D01*
X73976190Y-19605561D02*
X75119047Y-19605561D01*
X74547619Y-19605561D02*
X74547619Y-21605561D01*
X74547619Y-21605561D02*
X74738095Y-21319847D01*
X74738095Y-21319847D02*
X74928571Y-21129371D01*
X74928571Y-21129371D02*
X75119047Y-21034133D01*
D10*
G04 #@! TO.C,J2-1*
X28800000Y-131010000D02*
X28800000Y-134010000D01*
X28800000Y-134010000D02*
X28300000Y-133260000D01*
X28800000Y-134010000D02*
X29300000Y-133260000D01*
X23800000Y-128390000D02*
X33800000Y-128390000D01*
X33800000Y-139010000D01*
X23800000Y-139010000D01*
X23800000Y-128390000D01*
G04 #@! TO.C,J2-2*
X45800000Y-131010000D02*
X45800000Y-134010000D01*
X45800000Y-134010000D02*
X45300000Y-133260000D01*
X45800000Y-134010000D02*
X46300000Y-133260000D01*
X40800000Y-128390000D02*
X50800000Y-128390000D01*
X50800000Y-139010000D01*
X40800000Y-139010000D01*
X40800000Y-128390000D01*
G04 #@! TO.C,J3-2*
X90000000Y-100100000D02*
X90000000Y-100100000D01*
X90100000Y-100100000D02*
X90100000Y-100100000D01*
D17*
X90550000Y-90260000D02*
X90550000Y-109520000D01*
X90550000Y-109520000D02*
X110450000Y-109520000D01*
X95500000Y-87940000D02*
X95500000Y-90260000D01*
X95500000Y-90260000D02*
X90550000Y-90260000D01*
X110450000Y-87940000D02*
X95500000Y-87940000D01*
X110450000Y-87940000D02*
X110450000Y-85580000D01*
X110450000Y-109520000D02*
X110450000Y-111780000D01*
X111650000Y-85580000D02*
X110450000Y-85580000D01*
X111650000Y-85580000D02*
X111650000Y-111780000D01*
X111650000Y-111780000D02*
X110450000Y-111780000D01*
D10*
X90000000Y-100100000D02*
G75*
G02*
X90100000Y-100100000I50000J0D01*
G01*
X90100000Y-100100000D02*
G75*
G02*
X90000000Y-100100000I-50000J0D01*
G01*
G04 #@! TO.C,J4-1*
X90754200Y-71300000D02*
X95758000Y-71300000D01*
X90754200Y-82175000D02*
X90754200Y-71300000D01*
X90754200Y-82175000D02*
X110337600Y-82175000D01*
X95758000Y-68425000D02*
X110337600Y-68425000D01*
X95758000Y-71300000D02*
X95758000Y-68425000D01*
X110337600Y-82175000D02*
X110337600Y-68425000D01*
G04 #@! TO.C,J4-2*
X90754200Y-51300000D02*
X95758000Y-51300000D01*
X90754200Y-62175000D02*
X90754200Y-51300000D01*
X90754200Y-62175000D02*
X110337600Y-62175000D01*
X95758000Y-48425000D02*
X110337600Y-48425000D01*
X95758000Y-51300000D02*
X95758000Y-48425000D01*
X110337600Y-62175000D02*
X110337600Y-48425000D01*
G04 #@! TO.C,J6-1*
X50000000Y-7290000D02*
X49500000Y-8040000D01*
X50000000Y-7290000D02*
X50500000Y-8040000D01*
X50000000Y-10290000D02*
X50000000Y-7290000D01*
X59360000Y-17855000D02*
X40640000Y-17855000D01*
X40640000Y-5505000D01*
X59360000Y-5505000D01*
X59360000Y-17855000D01*
D16*
G04 #@! TO.C,SJ1*
X6616000Y-95927000D02*
G75*
G02*
X6362000Y-96181000I-254000J0D01*
G01*
X6362000Y-92879000D02*
G75*
G02*
X6616000Y-93133000I0J-254000D01*
G01*
X4838000Y-96181000D02*
G75*
G02*
X4584000Y-95927000I0J254000D01*
G01*
X4584000Y-93133000D02*
G75*
G02*
X4838000Y-92879000I254000J0D01*
G01*
X6616000Y-93133000D02*
X6616000Y-95927000D01*
X4838000Y-96181000D02*
X6362000Y-96181000D01*
X4838000Y-92879000D02*
X6362000Y-92879000D01*
X4584000Y-95927000D02*
X4584000Y-93133000D01*
D18*
G04 #@! TO.C,J1-1*
X7353800Y-130871000D02*
X7353800Y-131652274D01*
X7353800Y-134923727D02*
X7353800Y-143164600D01*
X7353800Y-143164600D02*
X16396200Y-143164600D01*
X7764859Y-130871000D02*
X7353800Y-130871000D01*
X16396200Y-130871000D02*
X15985141Y-130871000D01*
X16396200Y-131702272D02*
X16396200Y-130871000D01*
X16396200Y-143164600D02*
X16396200Y-134873729D01*
D10*
G04 #@! TO.C,J6-2*
X24000000Y-7285000D02*
X23500000Y-8035000D01*
X24000000Y-7285000D02*
X24500000Y-8035000D01*
X24000000Y-10285000D02*
X24000000Y-7285000D01*
X33360000Y-17850000D02*
X14640000Y-17850000D01*
X14640000Y-5500000D01*
X33360000Y-5500000D01*
X33360000Y-17850000D01*
G04 #@! TO.C,J4-3*
X90754200Y-31300000D02*
X95758000Y-31300000D01*
X90754200Y-42175000D02*
X90754200Y-31300000D01*
X90754200Y-42175000D02*
X110337600Y-42175000D01*
X95758000Y-28425000D02*
X110337600Y-28425000D01*
X95758000Y-31300000D02*
X95758000Y-28425000D01*
X110337600Y-42175000D02*
X110337600Y-28425000D01*
G04 #@! TO.C,J4-4*
X90754200Y-11300000D02*
X95758000Y-11300000D01*
X90754200Y-22175000D02*
X90754200Y-11300000D01*
X90754200Y-22175000D02*
X110337600Y-22175000D01*
X95758000Y-8425000D02*
X110337600Y-8425000D01*
X95758000Y-11300000D02*
X95758000Y-8425000D01*
X110337600Y-22175000D02*
X110337600Y-8425000D01*
G04 #@! TO.C,J3-1*
X90000000Y-128120000D02*
X90000000Y-128120000D01*
X90100000Y-128120000D02*
X90100000Y-128120000D01*
D17*
X90550000Y-118280000D02*
X90550000Y-137540000D01*
X90550000Y-137540000D02*
X110450000Y-137540000D01*
X95500000Y-115960000D02*
X95500000Y-118280000D01*
X95500000Y-118280000D02*
X90550000Y-118280000D01*
X110450000Y-115960000D02*
X95500000Y-115960000D01*
X110450000Y-115960000D02*
X110450000Y-113600000D01*
X110450000Y-137540000D02*
X110450000Y-139800000D01*
X111650000Y-113600000D02*
X110450000Y-113600000D01*
X111650000Y-113600000D02*
X111650000Y-139800000D01*
X111650000Y-139800000D02*
X110450000Y-139800000D01*
D10*
X90000000Y-128120000D02*
G75*
G02*
X90100000Y-128120000I50000J0D01*
G01*
X90100000Y-128120000D02*
G75*
G02*
X90000000Y-128120000I-50000J0D01*
G01*
G04 #@! TO.C,J2-3*
X62800000Y-131010000D02*
X62800000Y-134010000D01*
X62800000Y-134010000D02*
X62300000Y-133260000D01*
X62800000Y-134010000D02*
X63300000Y-133260000D01*
X57800000Y-128390000D02*
X67800000Y-128390000D01*
X67800000Y-139010000D01*
X57800000Y-139010000D01*
X57800000Y-128390000D01*
G04 #@! TO.C,J2-4*
X79800000Y-131010000D02*
X79800000Y-134010000D01*
X79800000Y-134010000D02*
X79300000Y-133260000D01*
X79800000Y-134010000D02*
X80300000Y-133260000D01*
X74800000Y-128390000D02*
X84800000Y-128390000D01*
X84800000Y-139010000D01*
X74800000Y-139010000D01*
X74800000Y-128390000D01*
G04 #@! TO.C,J5-1*
X76010000Y-10695000D02*
X75510000Y-11445000D01*
X76010000Y-10695000D02*
X76510000Y-11445000D01*
X76010000Y-13695000D02*
X76010000Y-10695000D01*
X85360000Y-19510000D02*
X66640000Y-19510000D01*
X66640000Y-5490000D01*
X85360000Y-5490000D01*
X85360000Y-19510000D01*
G04 #@! TD*
D19*
X106300000Y-143900000D02*
X5300000Y-143900000D01*
X1300000Y-139900000D02*
X1300000Y-5900000D01*
X5300000Y-143900000D02*
G75*
G02*
X1300000Y-139900000I0J4000000D01*
G01*
X1300000Y-5900000D02*
G75*
G02*
X5300000Y-1900000I4000000J0D01*
G01*
X110300000Y-139900000D02*
G75*
G02*
X106300000Y-143900000I-4000000J0D01*
G01*
X106300000Y-1900000D02*
G75*
G02*
X110300000Y-5900000I0J-4000000D01*
G01*
X110300000Y-139900000D02*
X110300000Y-5900000D01*
X5300000Y-1900000D02*
X106300000Y-1900000D01*
M02*
