G04 #@! TF.GenerationSoftware,KiCad,Pcbnew,9.0.0*
G04 #@! TF.CreationDate,2025-03-27T12:33:13+01:00*
G04 #@! TF.ProjectId,Cabletester_CB_Diamler_2,4361626c-6574-4657-9374-65725f43425f,rev?*
G04 #@! TF.SameCoordinates,PX1c9c380PY1c9c380*
G04 #@! TF.FileFunction,Soldermask,Top*
G04 #@! TF.FilePolarity,Negative*
%FSLAX46Y46*%
G04 Gerber Fmt 4.6, Leading zero omitted, Abs format (unit mm)*
G04 Created by KiCad (PCBNEW 9.0.0) date 2025-03-27 12:33:13*
%MOMM*%
%LPD*%
G01*
G04 APERTURE LIST*
G04 Aperture macros list*
%AMRoundRect*
0 Rectangle with rounded corners*
0 $1 Rounding radius*
0 $2 $3 $4 $5 $6 $7 $8 $9 X,Y pos of 4 corners*
0 Add a 4 corners polygon primitive as box body*
4,1,4,$2,$3,$4,$5,$6,$7,$8,$9,$2,$3,0*
0 Add four circle primitives for the rounded corners*
1,1,$1+$1,$2,$3*
1,1,$1+$1,$4,$5*
1,1,$1+$1,$6,$7*
1,1,$1+$1,$8,$9*
0 Add four rect primitives between the rounded corners*
20,1,$1+$1,$2,$3,$4,$5,0*
20,1,$1+$1,$4,$5,$6,$7,0*
20,1,$1+$1,$6,$7,$8,$9,0*
20,1,$1+$1,$8,$9,$2,$3,0*%
G04 Aperture macros list end*
%ADD10C,0.000000*%
%ADD11C,1.420000*%
%ADD12C,2.500000*%
%ADD13C,1.125000*%
%ADD14R,1.500000X1.500000*%
%ADD15C,1.500000*%
%ADD16C,2.100000*%
%ADD17C,1.250000*%
%ADD18C,2.300000*%
%ADD19RoundRect,0.050800X-0.800100X0.584200X-0.800100X-0.584200X0.800100X-0.584200X0.800100X0.584200X0*%
%ADD20R,0.304800X1.524000*%
%ADD21O,1.408000X2.708001*%
%ADD22O,2.008000X2.108000*%
%ADD23O,1.808000X2.208000*%
%ADD24O,1.408000X2.608001*%
%ADD25C,5.000000*%
%ADD26R,1.600000X1.600000*%
%ADD27C,1.600000*%
G04 #@! TA.AperFunction,Profile*
%ADD28C,0.050000*%
G04 #@! TD*
G04 APERTURE END LIST*
D10*
G04 #@! TO.C,Logo1*
G36*
X14238563Y-75606473D02*
G01*
X14238563Y-75923973D01*
X12960625Y-76439911D01*
X12960625Y-76043036D01*
X13706750Y-75765223D01*
X12960625Y-75479473D01*
X12960625Y-75090536D01*
X14238563Y-75606473D01*
G37*
G36*
X16850000Y-77376536D02*
G01*
X16797829Y-77377576D01*
X16748518Y-77380768D01*
X16702137Y-77386215D01*
X16658756Y-77394023D01*
X16618445Y-77404296D01*
X16581273Y-77417138D01*
X16563886Y-77424555D01*
X16547310Y-77432655D01*
X16531554Y-77441448D01*
X16516626Y-77450950D01*
X16502535Y-77461172D01*
X16489290Y-77472129D01*
X16476900Y-77483832D01*
X16465373Y-77496296D01*
X16454718Y-77509533D01*
X16444944Y-77523556D01*
X16436060Y-77538378D01*
X16428073Y-77554013D01*
X16420994Y-77570474D01*
X16414830Y-77587773D01*
X16409591Y-77605924D01*
X16405284Y-77624939D01*
X16401920Y-77644833D01*
X16399505Y-77665617D01*
X16398051Y-77687305D01*
X16397564Y-77709911D01*
X16397564Y-78479848D01*
X15976875Y-78479848D01*
X15976875Y-76979661D01*
X16397564Y-76979661D01*
X16397564Y-77257473D01*
X16414592Y-77221474D01*
X16432957Y-77187881D01*
X16442652Y-77171983D01*
X16452694Y-77156683D01*
X16463088Y-77141979D01*
X16473838Y-77127869D01*
X16484949Y-77114352D01*
X16496424Y-77101427D01*
X16508268Y-77089091D01*
X16520486Y-77077345D01*
X16533082Y-77066185D01*
X16546060Y-77055612D01*
X16559425Y-77045622D01*
X16573180Y-77036215D01*
X16587331Y-77027390D01*
X16601882Y-77019145D01*
X16616837Y-77011478D01*
X16632200Y-77004388D01*
X16647976Y-76997874D01*
X16664169Y-76991933D01*
X16680783Y-76986566D01*
X16697824Y-76981769D01*
X16715294Y-76977542D01*
X16733199Y-76973884D01*
X16751543Y-76970792D01*
X16770331Y-76968266D01*
X16789566Y-76966304D01*
X16809253Y-76964904D01*
X16850000Y-76963786D01*
X16850000Y-77376536D01*
G37*
G36*
X13809938Y-76979661D02*
G01*
X14095688Y-76979661D01*
X14095688Y-77289223D01*
X13809938Y-77289223D01*
X13809938Y-77995661D01*
X13810498Y-78015846D01*
X13812186Y-78034728D01*
X13813456Y-78043681D01*
X13815013Y-78052308D01*
X13816858Y-78060610D01*
X13818991Y-78068586D01*
X13821416Y-78076237D01*
X13824133Y-78083562D01*
X13827143Y-78090562D01*
X13830448Y-78097236D01*
X13834050Y-78103584D01*
X13837950Y-78109607D01*
X13842149Y-78115304D01*
X13846649Y-78120676D01*
X13851451Y-78125722D01*
X13856557Y-78130443D01*
X13861968Y-78134838D01*
X13867686Y-78138908D01*
X13873712Y-78142652D01*
X13880048Y-78146070D01*
X13886694Y-78149163D01*
X13893653Y-78151930D01*
X13900927Y-78154372D01*
X13908515Y-78156488D01*
X13916420Y-78158278D01*
X13924644Y-78159743D01*
X13933187Y-78160883D01*
X13942052Y-78161697D01*
X13951239Y-78162185D01*
X13960750Y-78162348D01*
X13983493Y-78161976D01*
X13994115Y-78161511D01*
X14004283Y-78160860D01*
X14014032Y-78160023D01*
X14023398Y-78158999D01*
X14032415Y-78157790D01*
X14041118Y-78156395D01*
X14049542Y-78154814D01*
X14057722Y-78153046D01*
X14065692Y-78151093D01*
X14073488Y-78148954D01*
X14081145Y-78146628D01*
X14088697Y-78144117D01*
X14103626Y-78138536D01*
X14103626Y-78463973D01*
X14094237Y-78466946D01*
X14083953Y-78469895D01*
X14060838Y-78475631D01*
X14034560Y-78480995D01*
X14020323Y-78483480D01*
X14005399Y-78485801D01*
X13989825Y-78487937D01*
X13973634Y-78489863D01*
X13956862Y-78491557D01*
X13939543Y-78492995D01*
X13921712Y-78494154D01*
X13903405Y-78495010D01*
X13884656Y-78495541D01*
X13865501Y-78495723D01*
X13806522Y-78493956D01*
X13778556Y-78491747D01*
X13751601Y-78488654D01*
X13725651Y-78484677D01*
X13700703Y-78479817D01*
X13676751Y-78474073D01*
X13653793Y-78467446D01*
X13631822Y-78459935D01*
X13610836Y-78451540D01*
X13590829Y-78442261D01*
X13571798Y-78432099D01*
X13553737Y-78421053D01*
X13536643Y-78409124D01*
X13520511Y-78396311D01*
X13505337Y-78382614D01*
X13491116Y-78368033D01*
X13477844Y-78352569D01*
X13465517Y-78336221D01*
X13454130Y-78318990D01*
X13443680Y-78300874D01*
X13434161Y-78281876D01*
X13425569Y-78261993D01*
X13417900Y-78241227D01*
X13411150Y-78219577D01*
X13405314Y-78197044D01*
X13400387Y-78173626D01*
X13396367Y-78149326D01*
X13393247Y-78124141D01*
X13391024Y-78098073D01*
X13389251Y-78043286D01*
X13389251Y-77289223D01*
X13214626Y-77289223D01*
X13214626Y-76979661D01*
X13389251Y-76979661D01*
X13389251Y-76701848D01*
X13809938Y-76527223D01*
X13809938Y-76979661D01*
G37*
G36*
X14770375Y-77932161D02*
G01*
X14771212Y-77963791D01*
X14773724Y-77993211D01*
X14777910Y-78020446D01*
X14780630Y-78033251D01*
X14783770Y-78045518D01*
X14787328Y-78057251D01*
X14791304Y-78068451D01*
X14795699Y-78079122D01*
X14800513Y-78089268D01*
X14805745Y-78098889D01*
X14811396Y-78107991D01*
X14817465Y-78116575D01*
X14823953Y-78124645D01*
X14830860Y-78132203D01*
X14838185Y-78139253D01*
X14845929Y-78145797D01*
X14854091Y-78151837D01*
X14862672Y-78157378D01*
X14871671Y-78162422D01*
X14881089Y-78166972D01*
X14890926Y-78171030D01*
X14901181Y-78174600D01*
X14911855Y-78177685D01*
X14922947Y-78180287D01*
X14934458Y-78182409D01*
X14946388Y-78184055D01*
X14958736Y-78185227D01*
X14984688Y-78186161D01*
X14998009Y-78185882D01*
X15011174Y-78185047D01*
X15024165Y-78183656D01*
X15036963Y-78181711D01*
X15049553Y-78179215D01*
X15061915Y-78176167D01*
X15074034Y-78172570D01*
X15085891Y-78168425D01*
X15097468Y-78163734D01*
X15108750Y-78158498D01*
X15119717Y-78152718D01*
X15130353Y-78146396D01*
X15140640Y-78139533D01*
X15150561Y-78132131D01*
X15160098Y-78124191D01*
X15169234Y-78115716D01*
X15177952Y-78106705D01*
X15186233Y-78097160D01*
X15194061Y-78087084D01*
X15201418Y-78076478D01*
X15208287Y-78065342D01*
X15214650Y-78053679D01*
X15220490Y-78041489D01*
X15225789Y-78028775D01*
X15230530Y-78015538D01*
X15234695Y-78001779D01*
X15238268Y-77987499D01*
X15241230Y-77972701D01*
X15243564Y-77957385D01*
X15245253Y-77941554D01*
X15246279Y-77925208D01*
X15246625Y-77908348D01*
X15246625Y-76979661D01*
X15667313Y-76979661D01*
X15667313Y-78471911D01*
X15254562Y-78471911D01*
X15254562Y-78249661D01*
X15240329Y-78276058D01*
X15224409Y-78301595D01*
X15206792Y-78326156D01*
X15197343Y-78338034D01*
X15187466Y-78349624D01*
X15177158Y-78360911D01*
X15166418Y-78371882D01*
X15155246Y-78382521D01*
X15143639Y-78392815D01*
X15131596Y-78402748D01*
X15119115Y-78412306D01*
X15106196Y-78421474D01*
X15092836Y-78430239D01*
X15079034Y-78438585D01*
X15064789Y-78446498D01*
X15050099Y-78453963D01*
X15034963Y-78460966D01*
X15019380Y-78467492D01*
X15003347Y-78473527D01*
X14986864Y-78479056D01*
X14969928Y-78484065D01*
X14952540Y-78488539D01*
X14934696Y-78492464D01*
X14916396Y-78495825D01*
X14897638Y-78498607D01*
X14878421Y-78500796D01*
X14858743Y-78502378D01*
X14838603Y-78503338D01*
X14818000Y-78503661D01*
X14792912Y-78503172D01*
X14768266Y-78501704D01*
X14744086Y-78499253D01*
X14720393Y-78495816D01*
X14697213Y-78491392D01*
X14674567Y-78485976D01*
X14652479Y-78479566D01*
X14630972Y-78472159D01*
X14610071Y-78463752D01*
X14589797Y-78454342D01*
X14570174Y-78443927D01*
X14551225Y-78432502D01*
X14532975Y-78420067D01*
X14515445Y-78406616D01*
X14498659Y-78392149D01*
X14482641Y-78376661D01*
X14467413Y-78360150D01*
X14452999Y-78342613D01*
X14439422Y-78324046D01*
X14426706Y-78304448D01*
X14414873Y-78283815D01*
X14403948Y-78262145D01*
X14393952Y-78239433D01*
X14384910Y-78215678D01*
X14376845Y-78190877D01*
X14369779Y-78165027D01*
X14363737Y-78138124D01*
X14358741Y-78110166D01*
X14354815Y-78081149D01*
X14351982Y-78051072D01*
X14350265Y-78019931D01*
X14349688Y-77987723D01*
X14349688Y-76979661D01*
X14770375Y-76979661D01*
X14770375Y-77932161D01*
G37*
G36*
X12612605Y-76948400D02*
G01*
X12637118Y-76949870D01*
X12661085Y-76952325D01*
X12684487Y-76955771D01*
X12707309Y-76960210D01*
X12729531Y-76965648D01*
X12751137Y-76972089D01*
X12772110Y-76979537D01*
X12792431Y-76987996D01*
X12812084Y-76997472D01*
X12831051Y-77007967D01*
X12849314Y-77019488D01*
X12866857Y-77032037D01*
X12883661Y-77045620D01*
X12899709Y-77060240D01*
X12914985Y-77075903D01*
X12929469Y-77092612D01*
X12943146Y-77110372D01*
X12955997Y-77129187D01*
X12968005Y-77149061D01*
X12979152Y-77170000D01*
X12989422Y-77192006D01*
X12998796Y-77215086D01*
X13007258Y-77239242D01*
X13014789Y-77264479D01*
X13021373Y-77290803D01*
X13026992Y-77318216D01*
X13031628Y-77346724D01*
X13035265Y-77376330D01*
X13037884Y-77407040D01*
X13039468Y-77438857D01*
X13040000Y-77471786D01*
X13040000Y-78471911D01*
X12619312Y-78471911D01*
X12619312Y-77535286D01*
X12618473Y-77503656D01*
X12615948Y-77474235D01*
X12611726Y-77447000D01*
X12608974Y-77434196D01*
X12605794Y-77421928D01*
X12602183Y-77410196D01*
X12598141Y-77398996D01*
X12593666Y-77388324D01*
X12588756Y-77378179D01*
X12583410Y-77368557D01*
X12577627Y-77359455D01*
X12571405Y-77350871D01*
X12564742Y-77342801D01*
X12557638Y-77335243D01*
X12550090Y-77328194D01*
X12542097Y-77321650D01*
X12533659Y-77315609D01*
X12524772Y-77310068D01*
X12515437Y-77305025D01*
X12505651Y-77300475D01*
X12495413Y-77296417D01*
X12484721Y-77292847D01*
X12473575Y-77289762D01*
X12461972Y-77287160D01*
X12449912Y-77285037D01*
X12437392Y-77283392D01*
X12424411Y-77282220D01*
X12397062Y-77281286D01*
X12370575Y-77282313D01*
X12357585Y-77283601D01*
X12344786Y-77285410D01*
X12332197Y-77287741D01*
X12319834Y-77290599D01*
X12307716Y-77293986D01*
X12295859Y-77297905D01*
X12284281Y-77302359D01*
X12273000Y-77307350D01*
X12262032Y-77312882D01*
X12251396Y-77318958D01*
X12241109Y-77325580D01*
X12231188Y-77332752D01*
X12221651Y-77340475D01*
X12212515Y-77348755D01*
X12203797Y-77357592D01*
X12195516Y-77366990D01*
X12187688Y-77376952D01*
X12180331Y-77387481D01*
X12173462Y-77398579D01*
X12167099Y-77410251D01*
X12161259Y-77422498D01*
X12155960Y-77435323D01*
X12151219Y-77448729D01*
X12147054Y-77462720D01*
X12143481Y-77477298D01*
X12140519Y-77492467D01*
X12138185Y-77508228D01*
X12136496Y-77524585D01*
X12135470Y-77541541D01*
X12135124Y-77559098D01*
X12135124Y-78471911D01*
X11714437Y-78471911D01*
X11714437Y-76979661D01*
X12135125Y-76979661D01*
X12135125Y-77201911D01*
X12149450Y-77175513D01*
X12157310Y-77162630D01*
X12165635Y-77149976D01*
X12174425Y-77137566D01*
X12183681Y-77125415D01*
X12193401Y-77113538D01*
X12203587Y-77101948D01*
X12214237Y-77090660D01*
X12225353Y-77079690D01*
X12236933Y-77069050D01*
X12248979Y-77058757D01*
X12261490Y-77048824D01*
X12274466Y-77039266D01*
X12287907Y-77030097D01*
X12301813Y-77021333D01*
X12316184Y-77012987D01*
X12331021Y-77005074D01*
X12346322Y-76997609D01*
X12362089Y-76990606D01*
X12378320Y-76984080D01*
X12395017Y-76978045D01*
X12412179Y-76972515D01*
X12429805Y-76967506D01*
X12447897Y-76963032D01*
X12466454Y-76959108D01*
X12485476Y-76955747D01*
X12504963Y-76952965D01*
X12524916Y-76950775D01*
X12545333Y-76949194D01*
X12566215Y-76948234D01*
X12587563Y-76947911D01*
X12612605Y-76948400D01*
G37*
G36*
X10846958Y-76942413D02*
G01*
X10914254Y-76949818D01*
X10947096Y-76955422D01*
X10979341Y-76962315D01*
X11010943Y-76970513D01*
X11041858Y-76980033D01*
X11072041Y-76990890D01*
X11101446Y-77003099D01*
X11130028Y-77016678D01*
X11157743Y-77031642D01*
X11184545Y-77048007D01*
X11210389Y-77065789D01*
X11235230Y-77085004D01*
X11259023Y-77105669D01*
X11281724Y-77127798D01*
X11303286Y-77151408D01*
X11323665Y-77176515D01*
X11342817Y-77203135D01*
X11360695Y-77231285D01*
X11377254Y-77260979D01*
X11392451Y-77292234D01*
X11406239Y-77325066D01*
X11418574Y-77359491D01*
X11429410Y-77395525D01*
X11438703Y-77433184D01*
X11446407Y-77472483D01*
X11452478Y-77513440D01*
X11456870Y-77556069D01*
X11459538Y-77600387D01*
X11460437Y-77646411D01*
X11460437Y-77828973D01*
X10484125Y-77828973D01*
X10488299Y-77877637D01*
X10494822Y-77922487D01*
X10503624Y-77963616D01*
X10508858Y-77982814D01*
X10514635Y-78001118D01*
X10520947Y-78018537D01*
X10527785Y-78035084D01*
X10535141Y-78050772D01*
X10543005Y-78065610D01*
X10551370Y-78079611D01*
X10560225Y-78092786D01*
X10569563Y-78105148D01*
X10579375Y-78116707D01*
X10589652Y-78127476D01*
X10600385Y-78137466D01*
X10611566Y-78146688D01*
X10623186Y-78155155D01*
X10635237Y-78162877D01*
X10647708Y-78169867D01*
X10660593Y-78176136D01*
X10673881Y-78181696D01*
X10687565Y-78186558D01*
X10701635Y-78190734D01*
X10730901Y-78197075D01*
X10761608Y-78200811D01*
X10793688Y-78202036D01*
X10808362Y-78201782D01*
X10822620Y-78201030D01*
X10836466Y-78199792D01*
X10849901Y-78198082D01*
X10862930Y-78195913D01*
X10875555Y-78193298D01*
X10887779Y-78190249D01*
X10899604Y-78186781D01*
X10911034Y-78182905D01*
X10922071Y-78178636D01*
X10932720Y-78173986D01*
X10942981Y-78168968D01*
X10962356Y-78157881D01*
X10980219Y-78145481D01*
X10996594Y-78131871D01*
X11011504Y-78117157D01*
X11024972Y-78101443D01*
X11037022Y-78084833D01*
X11047676Y-78067433D01*
X11056959Y-78049347D01*
X11064892Y-78030680D01*
X11071501Y-78011535D01*
X11460438Y-78011535D01*
X11455417Y-78037390D01*
X11449286Y-78062844D01*
X11442053Y-78087872D01*
X11433727Y-78112444D01*
X11424313Y-78136534D01*
X11413819Y-78160114D01*
X11402252Y-78183156D01*
X11389620Y-78205632D01*
X11375931Y-78227516D01*
X11361190Y-78248779D01*
X11345406Y-78269394D01*
X11328585Y-78289333D01*
X11310736Y-78308568D01*
X11291865Y-78327073D01*
X11271979Y-78344818D01*
X11251086Y-78361778D01*
X11229193Y-78377924D01*
X11206308Y-78393228D01*
X11182437Y-78407663D01*
X11157588Y-78421201D01*
X11131768Y-78433815D01*
X11104984Y-78445476D01*
X11077245Y-78456159D01*
X11048556Y-78465834D01*
X11018925Y-78474474D01*
X10988360Y-78482052D01*
X10956867Y-78488539D01*
X10924455Y-78493910D01*
X10891130Y-78498134D01*
X10856899Y-78501186D01*
X10821770Y-78503038D01*
X10785750Y-78503661D01*
X10745967Y-78502917D01*
X10707003Y-78500686D01*
X10668888Y-78496970D01*
X10631651Y-78491770D01*
X10595321Y-78485088D01*
X10559927Y-78476924D01*
X10525498Y-78467281D01*
X10492063Y-78456160D01*
X10459651Y-78443562D01*
X10428291Y-78429489D01*
X10398013Y-78413942D01*
X10368845Y-78396923D01*
X10340817Y-78378433D01*
X10313957Y-78358474D01*
X10288295Y-78337047D01*
X10263859Y-78314153D01*
X10240680Y-78289794D01*
X10218785Y-78263972D01*
X10198204Y-78236688D01*
X10178965Y-78207942D01*
X10161099Y-78177738D01*
X10144634Y-78146076D01*
X10129599Y-78112958D01*
X10116024Y-78078384D01*
X10103936Y-78042358D01*
X10093366Y-78004879D01*
X10084342Y-77965950D01*
X10076894Y-77925572D01*
X10071051Y-77883746D01*
X10066841Y-77840475D01*
X10064293Y-77795758D01*
X10063438Y-77749598D01*
X10063438Y-77717848D01*
X10064338Y-77671620D01*
X10067013Y-77626705D01*
X10071423Y-77583112D01*
X10076040Y-77551161D01*
X10492063Y-77551161D01*
X11047688Y-77551161D01*
X11045091Y-77510969D01*
X11040308Y-77473708D01*
X11037112Y-77456162D01*
X11033386Y-77439330D01*
X11029137Y-77423208D01*
X11024371Y-77407790D01*
X11019093Y-77393069D01*
X11013310Y-77379040D01*
X11007026Y-77365696D01*
X11000249Y-77353033D01*
X10992983Y-77341045D01*
X10985234Y-77329725D01*
X10977009Y-77319068D01*
X10968313Y-77309067D01*
X10959151Y-77299718D01*
X10949531Y-77291014D01*
X10939457Y-77282950D01*
X10928935Y-77275519D01*
X10917972Y-77268716D01*
X10906572Y-77262535D01*
X10894743Y-77256971D01*
X10882489Y-77252016D01*
X10869816Y-77247667D01*
X10856731Y-77243916D01*
X10843238Y-77240758D01*
X10829345Y-77238188D01*
X10800377Y-77234785D01*
X10769876Y-77233661D01*
X10746175Y-77235919D01*
X10722778Y-77239816D01*
X10699798Y-77245503D01*
X10688502Y-77249066D01*
X10677354Y-77253133D01*
X10666369Y-77257723D01*
X10655561Y-77262855D01*
X10644944Y-77268548D01*
X10634535Y-77274821D01*
X10624346Y-77281693D01*
X10614393Y-77289183D01*
X10604689Y-77297309D01*
X10595250Y-77306091D01*
X10586090Y-77315547D01*
X10577224Y-77325696D01*
X10568666Y-77336557D01*
X10560431Y-77348150D01*
X10552532Y-77360492D01*
X10544986Y-77373604D01*
X10537806Y-77387503D01*
X10531006Y-77402209D01*
X10524602Y-77417740D01*
X10518608Y-77434116D01*
X10513038Y-77451355D01*
X10507907Y-77469476D01*
X10503229Y-77488498D01*
X10499020Y-77508441D01*
X10495293Y-77529322D01*
X10492063Y-77551161D01*
X10076040Y-77551161D01*
X10077530Y-77540851D01*
X10085293Y-77499934D01*
X10094674Y-77460370D01*
X10105634Y-77422169D01*
X10118132Y-77385341D01*
X10132130Y-77349898D01*
X10147590Y-77315848D01*
X10164470Y-77283202D01*
X10182733Y-77251970D01*
X10202338Y-77222162D01*
X10223248Y-77193789D01*
X10245421Y-77166861D01*
X10268820Y-77141387D01*
X10293405Y-77117379D01*
X10319137Y-77094846D01*
X10345976Y-77073798D01*
X10373884Y-77054245D01*
X10402820Y-77036199D01*
X10432746Y-77019668D01*
X10463623Y-77004663D01*
X10495411Y-76991195D01*
X10528071Y-76979273D01*
X10561564Y-76968908D01*
X10595851Y-76960109D01*
X10630891Y-76952887D01*
X10666647Y-76947253D01*
X10703079Y-76943215D01*
X10740147Y-76940786D01*
X10777813Y-76939973D01*
X10846958Y-76942413D01*
G37*
G36*
X17760519Y-76942413D02*
G01*
X17827816Y-76949818D01*
X17860658Y-76955422D01*
X17892903Y-76962315D01*
X17924505Y-76970513D01*
X17955420Y-76980033D01*
X17985603Y-76990890D01*
X18015008Y-77003099D01*
X18043590Y-77016678D01*
X18071305Y-77031642D01*
X18098107Y-77048007D01*
X18123951Y-77065789D01*
X18148792Y-77085004D01*
X18172585Y-77105669D01*
X18195286Y-77127798D01*
X18216848Y-77151408D01*
X18237228Y-77176515D01*
X18256379Y-77203135D01*
X18274257Y-77231285D01*
X18290817Y-77260979D01*
X18306013Y-77292234D01*
X18319801Y-77325066D01*
X18332136Y-77359491D01*
X18342972Y-77395525D01*
X18352265Y-77433184D01*
X18359969Y-77472483D01*
X18366040Y-77513440D01*
X18370432Y-77556069D01*
X18373100Y-77600387D01*
X18374000Y-77646411D01*
X18374000Y-77828973D01*
X17405626Y-77828973D01*
X17409800Y-77877637D01*
X17416322Y-77922487D01*
X17425124Y-77963616D01*
X17430358Y-77982814D01*
X17436135Y-78001118D01*
X17442447Y-78018537D01*
X17449285Y-78035084D01*
X17456641Y-78050772D01*
X17464505Y-78065610D01*
X17472870Y-78079611D01*
X17481725Y-78092786D01*
X17491063Y-78105148D01*
X17500875Y-78116707D01*
X17511152Y-78127476D01*
X17521885Y-78137466D01*
X17533066Y-78146688D01*
X17544686Y-78155155D01*
X17556737Y-78162877D01*
X17569208Y-78169867D01*
X17582093Y-78176136D01*
X17595381Y-78181696D01*
X17609065Y-78186558D01*
X17623135Y-78190734D01*
X17652401Y-78197075D01*
X17683108Y-78200811D01*
X17715187Y-78202036D01*
X17729861Y-78201782D01*
X17744120Y-78201030D01*
X17757965Y-78199792D01*
X17771401Y-78198082D01*
X17784430Y-78195913D01*
X17797054Y-78193298D01*
X17809278Y-78190249D01*
X17821103Y-78186781D01*
X17832533Y-78182905D01*
X17843571Y-78178636D01*
X17854219Y-78173986D01*
X17864481Y-78168968D01*
X17883855Y-78157881D01*
X17901719Y-78145481D01*
X17918094Y-78131871D01*
X17933004Y-78117157D01*
X17946472Y-78101443D01*
X17958521Y-78084833D01*
X17969176Y-78067433D01*
X17978458Y-78049347D01*
X17986391Y-78030680D01*
X17992999Y-78011535D01*
X18381937Y-78011535D01*
X18375496Y-78037390D01*
X18368080Y-78062844D01*
X18359689Y-78087872D01*
X18350327Y-78112444D01*
X18339993Y-78136534D01*
X18328691Y-78160114D01*
X18316420Y-78183156D01*
X18303182Y-78205632D01*
X18288980Y-78227516D01*
X18273814Y-78248779D01*
X18257686Y-78269394D01*
X18240597Y-78289333D01*
X18222549Y-78308568D01*
X18203543Y-78327073D01*
X18183581Y-78344818D01*
X18162664Y-78361778D01*
X18140793Y-78377924D01*
X18117971Y-78393228D01*
X18094198Y-78407663D01*
X18069476Y-78421201D01*
X18043806Y-78433815D01*
X18017190Y-78445476D01*
X17989630Y-78456159D01*
X17961126Y-78465834D01*
X17931681Y-78474474D01*
X17901295Y-78482052D01*
X17869970Y-78488539D01*
X17837708Y-78493910D01*
X17804509Y-78498134D01*
X17770376Y-78501186D01*
X17735311Y-78503038D01*
X17699313Y-78503661D01*
X17659530Y-78502917D01*
X17620566Y-78500686D01*
X17582451Y-78496970D01*
X17545214Y-78491770D01*
X17508884Y-78485088D01*
X17473490Y-78476924D01*
X17439061Y-78467281D01*
X17405626Y-78456160D01*
X17373214Y-78443562D01*
X17341854Y-78429489D01*
X17311576Y-78413942D01*
X17282408Y-78396923D01*
X17254380Y-78378433D01*
X17227520Y-78358474D01*
X17201858Y-78337047D01*
X17177422Y-78314153D01*
X17154242Y-78289794D01*
X17132347Y-78263972D01*
X17111766Y-78236688D01*
X17092528Y-78207942D01*
X17074662Y-78177738D01*
X17058197Y-78146076D01*
X17043162Y-78112958D01*
X17029586Y-78078384D01*
X17017498Y-78042358D01*
X17006928Y-78004879D01*
X16997905Y-77965950D01*
X16990456Y-77925572D01*
X16984613Y-77883746D01*
X16980403Y-77840475D01*
X16977855Y-77795758D01*
X16977000Y-77749598D01*
X16977000Y-77717848D01*
X16977900Y-77671620D01*
X16980575Y-77626705D01*
X16984986Y-77583112D01*
X16989602Y-77551161D01*
X17397687Y-77551161D01*
X17961250Y-77551161D01*
X17958653Y-77510969D01*
X17953871Y-77473708D01*
X17950674Y-77456162D01*
X17946949Y-77439330D01*
X17942700Y-77423208D01*
X17937934Y-77407790D01*
X17932656Y-77393069D01*
X17926872Y-77379040D01*
X17920589Y-77365696D01*
X17913811Y-77353033D01*
X17906545Y-77341045D01*
X17898797Y-77329725D01*
X17890571Y-77319068D01*
X17881875Y-77309067D01*
X17872714Y-77299718D01*
X17863094Y-77291014D01*
X17853020Y-77282950D01*
X17842498Y-77275519D01*
X17831534Y-77268716D01*
X17820135Y-77262535D01*
X17808305Y-77256971D01*
X17796051Y-77252016D01*
X17783379Y-77247667D01*
X17770293Y-77243916D01*
X17756801Y-77240758D01*
X17742907Y-77238188D01*
X17713940Y-77234785D01*
X17683438Y-77233661D01*
X17659736Y-77235919D01*
X17636324Y-77239816D01*
X17613308Y-77245503D01*
X17601981Y-77249066D01*
X17590792Y-77253133D01*
X17579754Y-77257723D01*
X17568880Y-77262855D01*
X17558184Y-77268548D01*
X17547678Y-77274821D01*
X17537376Y-77281693D01*
X17527290Y-77289183D01*
X17517434Y-77297309D01*
X17507820Y-77306091D01*
X17498462Y-77315547D01*
X17489374Y-77325696D01*
X17480567Y-77336557D01*
X17472055Y-77348150D01*
X17463851Y-77360492D01*
X17455969Y-77373604D01*
X17448420Y-77387503D01*
X17441219Y-77402209D01*
X17434379Y-77417740D01*
X17427912Y-77434116D01*
X17421832Y-77451355D01*
X17416151Y-77469476D01*
X17410883Y-77488498D01*
X17406041Y-77508441D01*
X17401638Y-77529322D01*
X17397687Y-77551161D01*
X16989602Y-77551161D01*
X16991092Y-77540851D01*
X16998855Y-77499934D01*
X17008236Y-77460370D01*
X17019196Y-77422169D01*
X17031694Y-77385341D01*
X17045692Y-77349898D01*
X17061151Y-77315848D01*
X17078032Y-77283202D01*
X17096295Y-77251970D01*
X17115900Y-77222162D01*
X17136809Y-77193789D01*
X17158983Y-77166861D01*
X17182382Y-77141387D01*
X17206967Y-77117379D01*
X17232699Y-77094846D01*
X17259538Y-77073798D01*
X17287445Y-77054245D01*
X17316382Y-77036199D01*
X17346308Y-77019668D01*
X17377185Y-77004663D01*
X17408973Y-76991195D01*
X17441633Y-76979273D01*
X17475126Y-76968908D01*
X17509412Y-76960109D01*
X17544453Y-76952887D01*
X17580209Y-76947253D01*
X17616640Y-76943215D01*
X17653709Y-76940786D01*
X17691374Y-76939973D01*
X17760519Y-76942413D01*
G37*
G36*
X7729520Y-76942030D02*
G01*
X7790972Y-76948237D01*
X7850400Y-76958653D01*
X7907538Y-76973336D01*
X7935165Y-76982296D01*
X7962118Y-76992344D01*
X7988366Y-77003489D01*
X8013873Y-77015736D01*
X8038607Y-77029094D01*
X8062535Y-77043570D01*
X8085622Y-77059171D01*
X8107836Y-77075903D01*
X8129143Y-77093776D01*
X8149510Y-77112795D01*
X8168903Y-77132967D01*
X8187289Y-77154302D01*
X8204634Y-77176804D01*
X8220905Y-77200483D01*
X8236068Y-77225345D01*
X8250091Y-77251397D01*
X8262939Y-77278646D01*
X8274580Y-77307101D01*
X8284979Y-77336767D01*
X8294104Y-77367653D01*
X8301921Y-77399766D01*
X8308396Y-77433112D01*
X8313496Y-77467700D01*
X8317188Y-77503536D01*
X7920313Y-77503536D01*
X7915195Y-77477317D01*
X7908763Y-77452283D01*
X7901006Y-77428506D01*
X7891911Y-77406054D01*
X7881468Y-77384997D01*
X7875737Y-77375013D01*
X7869665Y-77365405D01*
X7863249Y-77356180D01*
X7856489Y-77347348D01*
X7849383Y-77338917D01*
X7841930Y-77330896D01*
X7834128Y-77323293D01*
X7825976Y-77316117D01*
X7817471Y-77309378D01*
X7808614Y-77303083D01*
X7799402Y-77297242D01*
X7789834Y-77291863D01*
X7779909Y-77286955D01*
X7769624Y-77282526D01*
X7758979Y-77278586D01*
X7747973Y-77275143D01*
X7736602Y-77272206D01*
X7724867Y-77269783D01*
X7712766Y-77267883D01*
X7700297Y-77266516D01*
X7687459Y-77265689D01*
X7674250Y-77265411D01*
X7658021Y-77265830D01*
X7642086Y-77267087D01*
X7626458Y-77269185D01*
X7611153Y-77272124D01*
X7596186Y-77275906D01*
X7581570Y-77280532D01*
X7567320Y-77286005D01*
X7553451Y-77292324D01*
X7539978Y-77299493D01*
X7526914Y-77307511D01*
X7514275Y-77316382D01*
X7502075Y-77326105D01*
X7490328Y-77336683D01*
X7479049Y-77348117D01*
X7468253Y-77360409D01*
X7457953Y-77373560D01*
X7448166Y-77387571D01*
X7438904Y-77402443D01*
X7430183Y-77418180D01*
X7422018Y-77434781D01*
X7414422Y-77452248D01*
X7407410Y-77470583D01*
X7400997Y-77489787D01*
X7395198Y-77509861D01*
X7390026Y-77530808D01*
X7385497Y-77552628D01*
X7381624Y-77575323D01*
X7378423Y-77598895D01*
X7375909Y-77623344D01*
X7374094Y-77648673D01*
X7372995Y-77674882D01*
X7372625Y-77701974D01*
X7372625Y-77749598D01*
X7373920Y-77804208D01*
X7377772Y-77854956D01*
X7384136Y-77901891D01*
X7392965Y-77945059D01*
X7404213Y-77984506D01*
X7410729Y-78002849D01*
X7417832Y-78020279D01*
X7425516Y-78036803D01*
X7433777Y-78052425D01*
X7442607Y-78067152D01*
X7452000Y-78080989D01*
X7461952Y-78093943D01*
X7472456Y-78106018D01*
X7483507Y-78117222D01*
X7495098Y-78127560D01*
X7507225Y-78137037D01*
X7519880Y-78145659D01*
X7533058Y-78153433D01*
X7546754Y-78160364D01*
X7560962Y-78166458D01*
X7575675Y-78171720D01*
X7590888Y-78176157D01*
X7606595Y-78179774D01*
X7639469Y-78184572D01*
X7674250Y-78186161D01*
X7687527Y-78185860D01*
X7700565Y-78184961D01*
X7713355Y-78183473D01*
X7725891Y-78181401D01*
X7738165Y-78178755D01*
X7750170Y-78175539D01*
X7761899Y-78171763D01*
X7773345Y-78167433D01*
X7784500Y-78162557D01*
X7795357Y-78157141D01*
X7805909Y-78151194D01*
X7816149Y-78144722D01*
X7826068Y-78137732D01*
X7835661Y-78130232D01*
X7844919Y-78122229D01*
X7853836Y-78113731D01*
X7862404Y-78104745D01*
X7870616Y-78095277D01*
X7878465Y-78085335D01*
X7885943Y-78074927D01*
X7893043Y-78064060D01*
X7899758Y-78052741D01*
X7906080Y-78040977D01*
X7912003Y-78028775D01*
X7917519Y-78016143D01*
X7922621Y-78003089D01*
X7927301Y-77989618D01*
X7931552Y-77975740D01*
X7935368Y-77961460D01*
X7938740Y-77946786D01*
X7941661Y-77931725D01*
X7944125Y-77916286D01*
X8325125Y-77916286D01*
X8322289Y-77948698D01*
X8318250Y-77980437D01*
X8313013Y-78011478D01*
X8306584Y-78041797D01*
X8298969Y-78071373D01*
X8290174Y-78100182D01*
X8280205Y-78128199D01*
X8269067Y-78155403D01*
X8256766Y-78181770D01*
X8243309Y-78207276D01*
X8228700Y-78231898D01*
X8212946Y-78255614D01*
X8196053Y-78278399D01*
X8178026Y-78300231D01*
X8158871Y-78321087D01*
X8138594Y-78340942D01*
X8117201Y-78359774D01*
X8094698Y-78377560D01*
X8071090Y-78394276D01*
X8046383Y-78409899D01*
X8020583Y-78424406D01*
X7993696Y-78437773D01*
X7965728Y-78449978D01*
X7936684Y-78460997D01*
X7906571Y-78470806D01*
X7875393Y-78479383D01*
X7843158Y-78486705D01*
X7809870Y-78492747D01*
X7775536Y-78497487D01*
X7740161Y-78500901D01*
X7703752Y-78502967D01*
X7666313Y-78503661D01*
X7627949Y-78502917D01*
X7590271Y-78500684D01*
X7553314Y-78496964D01*
X7517113Y-78491755D01*
X7481702Y-78485057D01*
X7447117Y-78476872D01*
X7413392Y-78467198D01*
X7380563Y-78456036D01*
X7348664Y-78443385D01*
X7317730Y-78429247D01*
X7287795Y-78413620D01*
X7258896Y-78396505D01*
X7231066Y-78377901D01*
X7204341Y-78357809D01*
X7178756Y-78336229D01*
X7154344Y-78313161D01*
X7131142Y-78288604D01*
X7109184Y-78262559D01*
X7088505Y-78235026D01*
X7069140Y-78206005D01*
X7051124Y-78175495D01*
X7034491Y-78143497D01*
X7019277Y-78110010D01*
X7005516Y-78075036D01*
X6993244Y-78038573D01*
X6982494Y-78000622D01*
X6973303Y-77961182D01*
X6965705Y-77920255D01*
X6959734Y-77877839D01*
X6955426Y-77833934D01*
X6952816Y-77788542D01*
X6951938Y-77741661D01*
X6951938Y-77717849D01*
X6952861Y-77670922D01*
X6955601Y-77625397D01*
X6960113Y-77581278D01*
X6966356Y-77538573D01*
X6974284Y-77497285D01*
X6983855Y-77457423D01*
X6995024Y-77418990D01*
X7007748Y-77381993D01*
X7021985Y-77346438D01*
X7037688Y-77312331D01*
X7054817Y-77279677D01*
X7073326Y-77248482D01*
X7093172Y-77218752D01*
X7114312Y-77190493D01*
X7136701Y-77163711D01*
X7160297Y-77138411D01*
X7185056Y-77114600D01*
X7210934Y-77092282D01*
X7237887Y-77071465D01*
X7265872Y-77052153D01*
X7294846Y-77034353D01*
X7324764Y-77018070D01*
X7355583Y-77003310D01*
X7387260Y-76990079D01*
X7419751Y-76978383D01*
X7453012Y-76968228D01*
X7487000Y-76959619D01*
X7521671Y-76952562D01*
X7556981Y-76947063D01*
X7592887Y-76943128D01*
X7629346Y-76940763D01*
X7666313Y-76939974D01*
X7729520Y-76942030D01*
G37*
G36*
X9285270Y-76942030D02*
G01*
X9346722Y-76948237D01*
X9406150Y-76958653D01*
X9463288Y-76973336D01*
X9490915Y-76982296D01*
X9517868Y-76992344D01*
X9544116Y-77003489D01*
X9569623Y-77015736D01*
X9594357Y-77029094D01*
X9618285Y-77043570D01*
X9641372Y-77059171D01*
X9663586Y-77075903D01*
X9684893Y-77093776D01*
X9705260Y-77112795D01*
X9724653Y-77132967D01*
X9743039Y-77154302D01*
X9760384Y-77176804D01*
X9776655Y-77200483D01*
X9791818Y-77225345D01*
X9805841Y-77251397D01*
X9818689Y-77278646D01*
X9830330Y-77307101D01*
X9840729Y-77336767D01*
X9849854Y-77367653D01*
X9857671Y-77399766D01*
X9864146Y-77433112D01*
X9869246Y-77467700D01*
X9872938Y-77503536D01*
X9476063Y-77503536D01*
X9470945Y-77477317D01*
X9464513Y-77452283D01*
X9456756Y-77428506D01*
X9447662Y-77406054D01*
X9437218Y-77384997D01*
X9431487Y-77375013D01*
X9425415Y-77365405D01*
X9418999Y-77356180D01*
X9412239Y-77347348D01*
X9405133Y-77338917D01*
X9397680Y-77330896D01*
X9389878Y-77323293D01*
X9381726Y-77316117D01*
X9373222Y-77309378D01*
X9364364Y-77303083D01*
X9355153Y-77297242D01*
X9345585Y-77291863D01*
X9335659Y-77286955D01*
X9325375Y-77282526D01*
X9314730Y-77278586D01*
X9303723Y-77275143D01*
X9292353Y-77272206D01*
X9280618Y-77269783D01*
X9268516Y-77267883D01*
X9256047Y-77266516D01*
X9243209Y-77265689D01*
X9230001Y-77265411D01*
X9213771Y-77265830D01*
X9197836Y-77267087D01*
X9182208Y-77269185D01*
X9166904Y-77272124D01*
X9151936Y-77275906D01*
X9137320Y-77280532D01*
X9123071Y-77286005D01*
X9109202Y-77292324D01*
X9095728Y-77299493D01*
X9082665Y-77307511D01*
X9070025Y-77316382D01*
X9057825Y-77326105D01*
X9046078Y-77336683D01*
X9034799Y-77348117D01*
X9024003Y-77360409D01*
X9013704Y-77373560D01*
X9003916Y-77387571D01*
X8994654Y-77402443D01*
X8985934Y-77418180D01*
X8977768Y-77434781D01*
X8970172Y-77452248D01*
X8963160Y-77470583D01*
X8956747Y-77489787D01*
X8950948Y-77509861D01*
X8945776Y-77530808D01*
X8941247Y-77552628D01*
X8937374Y-77575323D01*
X8934174Y-77598895D01*
X8931659Y-77623344D01*
X8929844Y-77648673D01*
X8928745Y-77674882D01*
X8928376Y-77701974D01*
X8928376Y-77749598D01*
X8929670Y-77804208D01*
X8933522Y-77854956D01*
X8939886Y-77901891D01*
X8948715Y-77945059D01*
X8959963Y-77984506D01*
X8966479Y-78002849D01*
X8973582Y-78020279D01*
X8981267Y-78036803D01*
X8989527Y-78052425D01*
X8998357Y-78067152D01*
X9007751Y-78080989D01*
X9017703Y-78093943D01*
X9028207Y-78106018D01*
X9039257Y-78117222D01*
X9050849Y-78127560D01*
X9062975Y-78137037D01*
X9075630Y-78145659D01*
X9088809Y-78153433D01*
X9102505Y-78160364D01*
X9116712Y-78166458D01*
X9131425Y-78171720D01*
X9146638Y-78176157D01*
X9162346Y-78179774D01*
X9195220Y-78184572D01*
X9230001Y-78186161D01*
X9243278Y-78185860D01*
X9256315Y-78184961D01*
X9269105Y-78183473D01*
X9281641Y-78181401D01*
X9293915Y-78178755D01*
X9305920Y-78175539D01*
X9317649Y-78171763D01*
X9329095Y-78167433D01*
X9340250Y-78162557D01*
X9351107Y-78157141D01*
X9361659Y-78151194D01*
X9371899Y-78144722D01*
X9381818Y-78137732D01*
X9391411Y-78130232D01*
X9400670Y-78122229D01*
X9409586Y-78113731D01*
X9418154Y-78104745D01*
X9426366Y-78095277D01*
X9434215Y-78085335D01*
X9441693Y-78074927D01*
X9448793Y-78064060D01*
X9455508Y-78052741D01*
X9461831Y-78040977D01*
X9467753Y-78028775D01*
X9473269Y-78016143D01*
X9478371Y-78003089D01*
X9483051Y-77989618D01*
X9487303Y-77975740D01*
X9491118Y-77961460D01*
X9494490Y-77946786D01*
X9497412Y-77931725D01*
X9499876Y-77916286D01*
X9880876Y-77916286D01*
X9878039Y-77948698D01*
X9874000Y-77980437D01*
X9868763Y-78011478D01*
X9862334Y-78041797D01*
X9854719Y-78071373D01*
X9845924Y-78100182D01*
X9835955Y-78128199D01*
X9824817Y-78155403D01*
X9812516Y-78181770D01*
X9799059Y-78207276D01*
X9784450Y-78231898D01*
X9768696Y-78255614D01*
X9751803Y-78278399D01*
X9733776Y-78300231D01*
X9714621Y-78321087D01*
X9694344Y-78340942D01*
X9672951Y-78359774D01*
X9650447Y-78377560D01*
X9626839Y-78394276D01*
X9602132Y-78409899D01*
X9576333Y-78424406D01*
X9549446Y-78437773D01*
X9521478Y-78449978D01*
X9492434Y-78460997D01*
X9462320Y-78470806D01*
X9431143Y-78479383D01*
X9398907Y-78486705D01*
X9365620Y-78492747D01*
X9331286Y-78497487D01*
X9295911Y-78500901D01*
X9259501Y-78502967D01*
X9222063Y-78503661D01*
X9183699Y-78502917D01*
X9146021Y-78500684D01*
X9109064Y-78496964D01*
X9072863Y-78491755D01*
X9037452Y-78485057D01*
X9002867Y-78476872D01*
X8969142Y-78467198D01*
X8936313Y-78456036D01*
X8904414Y-78443385D01*
X8873479Y-78429247D01*
X8843545Y-78413620D01*
X8814646Y-78396505D01*
X8786816Y-78377901D01*
X8760091Y-78357809D01*
X8734505Y-78336229D01*
X8710094Y-78313161D01*
X8686892Y-78288604D01*
X8664934Y-78262559D01*
X8644255Y-78235026D01*
X8624890Y-78206005D01*
X8606874Y-78175495D01*
X8590241Y-78143497D01*
X8575027Y-78110010D01*
X8561266Y-78075036D01*
X8548993Y-78038573D01*
X8538244Y-78000622D01*
X8529053Y-77961182D01*
X8521454Y-77920255D01*
X8515484Y-77877839D01*
X8511176Y-77833934D01*
X8508566Y-77788542D01*
X8507688Y-77741661D01*
X8507688Y-77717849D01*
X8508611Y-77670922D01*
X8511350Y-77625397D01*
X8515863Y-77581278D01*
X8522106Y-77538573D01*
X8530034Y-77497285D01*
X8539604Y-77457423D01*
X8550774Y-77418990D01*
X8563498Y-77381993D01*
X8577734Y-77346438D01*
X8593438Y-77312331D01*
X8610567Y-77279677D01*
X8629076Y-77248482D01*
X8648922Y-77218752D01*
X8670062Y-77190493D01*
X8692451Y-77163711D01*
X8716047Y-77138411D01*
X8740806Y-77114600D01*
X8766684Y-77092282D01*
X8793637Y-77071465D01*
X8821622Y-77052153D01*
X8850596Y-77034353D01*
X8880514Y-77018070D01*
X8911333Y-77003310D01*
X8943010Y-76990079D01*
X8975501Y-76978383D01*
X9008762Y-76968228D01*
X9042750Y-76959619D01*
X9077420Y-76952562D01*
X9112731Y-76947063D01*
X9148637Y-76943128D01*
X9185095Y-76940763D01*
X9222063Y-76939974D01*
X9285270Y-76942030D01*
G37*
G36*
X6168441Y-76949695D02*
G01*
X6231780Y-76955120D01*
X6292399Y-76964288D01*
X6350052Y-76977304D01*
X6404497Y-76994274D01*
X6430439Y-77004274D01*
X6455488Y-77015302D01*
X6479612Y-77027370D01*
X6502781Y-77040492D01*
X6524965Y-77054681D01*
X6546133Y-77069950D01*
X6566255Y-77086311D01*
X6585299Y-77103779D01*
X6603237Y-77122366D01*
X6620036Y-77142085D01*
X6635666Y-77162949D01*
X6650098Y-77184972D01*
X6663300Y-77208166D01*
X6675242Y-77232544D01*
X6685893Y-77258121D01*
X6695223Y-77284908D01*
X6703201Y-77312918D01*
X6709798Y-77342166D01*
X6714981Y-77372663D01*
X6718722Y-77404424D01*
X6720988Y-77437460D01*
X6721750Y-77471786D01*
X6721750Y-78471911D01*
X6316938Y-78471911D01*
X6316938Y-78297286D01*
X6301402Y-78317916D01*
X6284552Y-78338058D01*
X6266377Y-78357596D01*
X6246865Y-78376413D01*
X6226004Y-78394392D01*
X6203782Y-78411418D01*
X6180189Y-78427375D01*
X6167874Y-78434915D01*
X6155211Y-78442145D01*
X6142200Y-78449049D01*
X6128839Y-78455613D01*
X6115126Y-78461823D01*
X6101060Y-78467663D01*
X6086639Y-78473120D01*
X6071862Y-78478178D01*
X6056727Y-78482823D01*
X6041234Y-78487042D01*
X6025380Y-78490818D01*
X6009164Y-78494138D01*
X5992585Y-78496987D01*
X5975641Y-78499351D01*
X5958331Y-78501215D01*
X5940653Y-78502564D01*
X5922606Y-78503384D01*
X5904188Y-78503661D01*
X5854187Y-78502072D01*
X5805558Y-78497274D01*
X5758557Y-78489220D01*
X5713440Y-78477864D01*
X5670462Y-78463159D01*
X5649855Y-78454537D01*
X5629879Y-78445060D01*
X5610566Y-78434722D01*
X5591947Y-78423518D01*
X5574056Y-78411443D01*
X5556922Y-78398489D01*
X5540580Y-78384652D01*
X5525060Y-78369925D01*
X5510395Y-78354303D01*
X5496616Y-78337779D01*
X5483756Y-78320349D01*
X5471846Y-78302006D01*
X5460919Y-78282745D01*
X5451006Y-78262559D01*
X5442140Y-78241443D01*
X5434352Y-78219391D01*
X5427675Y-78196398D01*
X5422140Y-78172456D01*
X5417779Y-78147561D01*
X5414625Y-78121707D01*
X5412709Y-78094888D01*
X5412063Y-78067098D01*
X5412063Y-78051223D01*
X5412281Y-78043286D01*
X5412718Y-78027411D01*
X5824813Y-78027411D01*
X5824813Y-78043286D01*
X5825000Y-78052866D01*
X5825561Y-78062252D01*
X5826500Y-78071438D01*
X5827821Y-78080416D01*
X5829524Y-78089178D01*
X5831615Y-78097719D01*
X5834095Y-78106030D01*
X5836967Y-78114104D01*
X5840235Y-78121933D01*
X5843901Y-78129512D01*
X5847968Y-78136831D01*
X5852439Y-78143885D01*
X5857317Y-78150665D01*
X5862605Y-78157165D01*
X5868306Y-78163377D01*
X5874422Y-78169294D01*
X5880957Y-78174909D01*
X5887914Y-78180214D01*
X5895295Y-78185202D01*
X5903103Y-78189866D01*
X5911341Y-78194199D01*
X5920013Y-78198193D01*
X5929120Y-78201842D01*
X5938667Y-78205137D01*
X5948655Y-78208072D01*
X5959088Y-78210638D01*
X5969968Y-78212830D01*
X5981300Y-78214640D01*
X5993084Y-78216060D01*
X6005325Y-78217084D01*
X6018026Y-78217703D01*
X6031188Y-78217911D01*
X6057764Y-78215586D01*
X6083805Y-78211586D01*
X6109148Y-78205912D01*
X6133631Y-78198563D01*
X6157091Y-78189541D01*
X6179365Y-78178844D01*
X6190006Y-78172867D01*
X6200290Y-78166472D01*
X6210196Y-78159659D01*
X6219704Y-78152427D01*
X6228793Y-78144776D01*
X6237443Y-78136707D01*
X6245634Y-78128219D01*
X6253345Y-78119312D01*
X6260556Y-78109987D01*
X6267247Y-78100244D01*
X6273397Y-78090082D01*
X6278987Y-78079501D01*
X6283995Y-78068501D01*
X6288401Y-78057084D01*
X6292185Y-78045247D01*
X6295327Y-78032992D01*
X6297806Y-78020318D01*
X6299602Y-78007226D01*
X6300694Y-77993715D01*
X6301063Y-77979786D01*
X6301063Y-77836911D01*
X6134376Y-77836911D01*
X6096889Y-77837568D01*
X6061822Y-77839562D01*
X6029173Y-77842928D01*
X5998942Y-77847701D01*
X5971130Y-77853916D01*
X5945736Y-77861607D01*
X5922761Y-77870810D01*
X5912180Y-77875989D01*
X5902204Y-77881560D01*
X5892832Y-77887525D01*
X5884065Y-77893890D01*
X5875903Y-77900659D01*
X5868345Y-77907837D01*
X5861392Y-77915427D01*
X5855044Y-77923435D01*
X5849300Y-77931864D01*
X5844161Y-77940719D01*
X5839626Y-77950004D01*
X5835696Y-77959723D01*
X5832371Y-77969882D01*
X5829650Y-77980484D01*
X5827534Y-77991533D01*
X5826022Y-78003035D01*
X5825115Y-78014993D01*
X5824813Y-78027411D01*
X5412718Y-78027411D01*
X5412986Y-78017687D01*
X5415724Y-77985526D01*
X5420232Y-77954719D01*
X5426465Y-77925246D01*
X5434379Y-77897088D01*
X5443927Y-77870223D01*
X5455066Y-77844631D01*
X5467750Y-77820292D01*
X5481933Y-77797185D01*
X5497571Y-77775290D01*
X5514619Y-77754588D01*
X5533032Y-77735057D01*
X5552765Y-77716676D01*
X5573772Y-77699427D01*
X5596009Y-77683288D01*
X5619430Y-77668239D01*
X5643991Y-77654260D01*
X5669646Y-77641330D01*
X5696351Y-77629429D01*
X5724059Y-77618536D01*
X5752727Y-77608632D01*
X5782310Y-77599696D01*
X5812761Y-77591708D01*
X5844037Y-77584647D01*
X5876091Y-77578493D01*
X5908880Y-77573225D01*
X5976478Y-77565268D01*
X6046472Y-77560614D01*
X6118500Y-77559098D01*
X6301063Y-77559098D01*
X6301063Y-77487661D01*
X6300311Y-77460133D01*
X6298024Y-77434129D01*
X6294156Y-77409683D01*
X6291615Y-77398055D01*
X6288661Y-77386830D01*
X6285288Y-77376011D01*
X6281490Y-77365604D01*
X6277263Y-77355613D01*
X6272600Y-77346042D01*
X6267494Y-77336895D01*
X6261941Y-77328176D01*
X6255935Y-77319891D01*
X6249469Y-77312044D01*
X6242538Y-77304638D01*
X6235137Y-77297678D01*
X6227258Y-77291169D01*
X6218897Y-77285115D01*
X6210048Y-77279520D01*
X6200705Y-77274389D01*
X6190861Y-77269726D01*
X6180512Y-77265535D01*
X6169651Y-77261821D01*
X6158273Y-77258588D01*
X6146372Y-77255840D01*
X6133941Y-77253582D01*
X6120976Y-77251818D01*
X6107470Y-77250553D01*
X6093418Y-77249791D01*
X6078813Y-77249536D01*
X6065627Y-77249767D01*
X6052859Y-77250454D01*
X6040506Y-77251589D01*
X6028568Y-77253163D01*
X6017042Y-77255168D01*
X6005928Y-77257593D01*
X5995223Y-77260432D01*
X5984927Y-77263674D01*
X5975038Y-77267312D01*
X5965554Y-77271337D01*
X5956475Y-77275739D01*
X5947798Y-77280511D01*
X5939522Y-77285643D01*
X5931646Y-77291126D01*
X5924168Y-77296953D01*
X5917086Y-77303114D01*
X5910400Y-77309600D01*
X5904108Y-77316404D01*
X5898209Y-77323515D01*
X5892700Y-77330926D01*
X5887581Y-77338628D01*
X5882850Y-77346611D01*
X5878506Y-77354868D01*
X5874546Y-77363389D01*
X5870971Y-77372166D01*
X5867777Y-77381191D01*
X5862532Y-77399945D01*
X5858797Y-77419584D01*
X5856563Y-77440036D01*
X5459688Y-77440036D01*
X5463335Y-77409293D01*
X5468304Y-77379570D01*
X5474569Y-77350865D01*
X5482105Y-77323175D01*
X5490885Y-77296496D01*
X5500883Y-77270825D01*
X5512073Y-77246160D01*
X5524428Y-77222499D01*
X5537923Y-77199837D01*
X5552531Y-77178172D01*
X5568226Y-77157501D01*
X5584983Y-77137822D01*
X5602774Y-77119130D01*
X5621573Y-77101425D01*
X5641356Y-77084701D01*
X5662094Y-77068958D01*
X5683763Y-77054191D01*
X5706336Y-77040397D01*
X5729786Y-77027575D01*
X5754089Y-77015720D01*
X5779216Y-77004831D01*
X5805144Y-76994904D01*
X5831844Y-76985936D01*
X5859291Y-76977924D01*
X5887460Y-76970866D01*
X5916323Y-76964758D01*
X5945854Y-76959598D01*
X5976029Y-76955383D01*
X6006819Y-76952110D01*
X6038199Y-76949775D01*
X6102625Y-76947911D01*
X6168441Y-76949695D01*
G37*
G04 #@! TD*
D11*
G04 #@! TO.C,J2-1*
X27800000Y-135675000D03*
X29800000Y-135675000D03*
D12*
X25300000Y-130045000D03*
X25300000Y-137545000D03*
X32300000Y-130045000D03*
X32300000Y-137545000D03*
G04 #@! TD*
D11*
G04 #@! TO.C,J2-2*
X44800000Y-135675000D03*
X46800000Y-135675000D03*
D12*
X42300000Y-130045000D03*
X42300000Y-137545000D03*
X49300000Y-130045000D03*
X49300000Y-137545000D03*
G04 #@! TD*
D13*
G04 #@! TO.C,J3-2*
X106500000Y-103900000D03*
X106500000Y-89600000D03*
D14*
X92500000Y-95300000D03*
D15*
X92580000Y-97100000D03*
X92500000Y-103100000D03*
X92500000Y-104900000D03*
X92500000Y-107900000D03*
X99500000Y-107900000D03*
X106500000Y-107600000D03*
X99500000Y-100100000D03*
X106500000Y-100100000D03*
X92500000Y-92300000D03*
X99500000Y-92300000D03*
X106500000Y-92300000D03*
G04 #@! TD*
D16*
G04 #@! TO.C,J4-1*
X106450000Y-76750000D03*
X106450000Y-70150000D03*
D15*
X92450000Y-75800000D03*
X92460000Y-77600000D03*
X92450000Y-80600000D03*
X99460000Y-80600000D03*
X106450000Y-80600000D03*
X92450000Y-72820000D03*
X99460000Y-72820000D03*
X106450000Y-72820000D03*
G04 #@! TD*
D16*
G04 #@! TO.C,J4-2*
X106450000Y-56750000D03*
X106450000Y-50150000D03*
D15*
X92450000Y-55800000D03*
X92460000Y-57600000D03*
X92450000Y-60600000D03*
X99460000Y-60600000D03*
X106450000Y-60600000D03*
X92450000Y-52820000D03*
X99460000Y-52820000D03*
X106450000Y-52820000D03*
G04 #@! TD*
D17*
G04 #@! TO.C,J6-1*
X55000000Y-9975000D03*
X53000000Y-9975000D03*
X47000000Y-9975000D03*
X45000000Y-9975000D03*
D18*
X57500000Y-15605000D03*
X57500000Y-8105000D03*
X42500000Y-15605000D03*
X42500000Y-8105000D03*
G04 #@! TD*
D19*
G04 #@! TO.C,SJ1*
X5600000Y-95292000D03*
X5600000Y-93768000D03*
G04 #@! TD*
D20*
G04 #@! TO.C,J1-1*
X8500000Y-130700000D03*
X9000000Y-130700000D03*
X9500000Y-130700000D03*
X10000000Y-130700000D03*
X10500000Y-130700000D03*
X13250000Y-130700000D03*
X13750000Y-130700000D03*
X14250000Y-130700000D03*
X14750000Y-130700000D03*
X15250000Y-130700000D03*
D21*
X7675008Y-133288000D03*
X8975000Y-139037999D03*
D22*
X11875000Y-131287999D03*
D23*
X11875000Y-139538001D03*
D21*
X14775001Y-139037999D03*
D24*
X16074999Y-133288000D03*
G04 #@! TD*
D17*
G04 #@! TO.C,J6-2*
X29000000Y-9970000D03*
X27000000Y-9970000D03*
X21000000Y-9970000D03*
X19000000Y-9970000D03*
D18*
X31500000Y-15600000D03*
X31500000Y-8100000D03*
X16500000Y-15600000D03*
X16500000Y-8100000D03*
G04 #@! TD*
D25*
G04 #@! TO.C,J15*
X24050000Y-28180000D03*
X87550000Y-28180000D03*
D26*
X80730000Y-29600000D03*
D27*
X77960000Y-29600000D03*
X75190000Y-29600000D03*
X72420000Y-29600000D03*
X69650000Y-29600000D03*
X66880000Y-29600000D03*
X64110000Y-29600000D03*
X61340000Y-29600000D03*
X58570000Y-29600000D03*
X55800000Y-29600000D03*
X53030000Y-29600000D03*
X50260000Y-29600000D03*
X47490000Y-29600000D03*
X44720000Y-29600000D03*
X41950000Y-29600000D03*
X39180000Y-29600000D03*
X36410000Y-29600000D03*
X33640000Y-29600000D03*
X30870000Y-29600000D03*
X79345000Y-26760000D03*
X76575000Y-26760000D03*
X73805000Y-26760000D03*
X71035000Y-26760000D03*
X68265000Y-26760000D03*
X65495000Y-26760000D03*
X62725000Y-26760000D03*
X59955000Y-26760000D03*
X57185000Y-26760000D03*
X54415000Y-26760000D03*
X51645000Y-26760000D03*
X48875000Y-26760000D03*
X46105000Y-26760000D03*
X43335000Y-26760000D03*
X40565000Y-26760000D03*
X37795000Y-26760000D03*
X35025000Y-26760000D03*
X32255000Y-26760000D03*
G04 #@! TD*
D16*
G04 #@! TO.C,J4-3*
X106450000Y-36750000D03*
X106450000Y-30150000D03*
D15*
X92450000Y-35800000D03*
X92460000Y-37600000D03*
X92450000Y-40600000D03*
X99460000Y-40600000D03*
X106450000Y-40600000D03*
X92450000Y-32820000D03*
X99460000Y-32820000D03*
X106450000Y-32820000D03*
G04 #@! TD*
D16*
G04 #@! TO.C,J4-4*
X106450000Y-16750000D03*
X106450000Y-10150000D03*
D15*
X92450000Y-15800000D03*
X92460000Y-17600000D03*
X92450000Y-20600000D03*
X99460000Y-20600000D03*
X106450000Y-20600000D03*
X92450000Y-12820000D03*
X99460000Y-12820000D03*
X106450000Y-12820000D03*
G04 #@! TD*
D13*
G04 #@! TO.C,J3-1*
X106500000Y-131920000D03*
X106500000Y-117620000D03*
D14*
X92500000Y-123320000D03*
D15*
X92580000Y-125120000D03*
X92500000Y-131120000D03*
X92500000Y-132920000D03*
X92500000Y-135920000D03*
X99500000Y-135920000D03*
X106500000Y-135620000D03*
X99500000Y-128120000D03*
X106500000Y-128120000D03*
X92500000Y-120320000D03*
X99500000Y-120320000D03*
X106500000Y-120320000D03*
G04 #@! TD*
D27*
G04 #@! TO.C,J16*
X79345000Y-116040000D03*
X76575000Y-116040000D03*
X73805000Y-116040000D03*
X71035000Y-116040000D03*
X68265000Y-116040000D03*
X65495000Y-116040000D03*
X62725000Y-116040000D03*
X59955000Y-116040000D03*
X57185000Y-116040000D03*
X54415000Y-116040000D03*
X51645000Y-116040000D03*
X48875000Y-116040000D03*
X46105000Y-116040000D03*
X43335000Y-116040000D03*
X40565000Y-116040000D03*
X37795000Y-116040000D03*
X35025000Y-116040000D03*
X32255000Y-116040000D03*
X80730000Y-113200000D03*
X77960000Y-113200000D03*
X75190000Y-113200000D03*
X72420000Y-113200000D03*
X69650000Y-113200000D03*
X66880000Y-113200000D03*
X64110000Y-113200000D03*
X61340000Y-113200000D03*
X58570000Y-113200000D03*
X55800000Y-113200000D03*
X53030000Y-113200000D03*
X50260000Y-113200000D03*
X47490000Y-113200000D03*
X44720000Y-113200000D03*
X41950000Y-113200000D03*
X39180000Y-113200000D03*
X36410000Y-113200000D03*
X33640000Y-113200000D03*
D26*
X30870000Y-113200000D03*
D25*
X24050000Y-114620000D03*
X87550000Y-114620000D03*
G04 #@! TD*
D11*
G04 #@! TO.C,J2-3*
X61800000Y-135675000D03*
X63800000Y-135675000D03*
D12*
X59300000Y-130045000D03*
X59300000Y-137545000D03*
X66300000Y-130045000D03*
X66300000Y-137545000D03*
G04 #@! TD*
D11*
G04 #@! TO.C,J2-4*
X78800000Y-135675000D03*
X80800000Y-135675000D03*
D12*
X76300000Y-130045000D03*
X76300000Y-137545000D03*
X83300000Y-130045000D03*
X83300000Y-137545000D03*
G04 #@! TD*
D17*
G04 #@! TO.C,J5-1*
X81000000Y-13420000D03*
X79000000Y-13420000D03*
X73000000Y-13420000D03*
X71000000Y-13420000D03*
X71000000Y-8930000D03*
X73000000Y-8930000D03*
X79000000Y-8930000D03*
X81000000Y-8930000D03*
D18*
X83500000Y-17260000D03*
X83500000Y-7060000D03*
X68500000Y-17260000D03*
X68500000Y-7060000D03*
G04 #@! TD*
D28*
X106300000Y-143900000D02*
X5300000Y-143900000D01*
X1300000Y-139900000D02*
X1300000Y-5900000D01*
X5300000Y-143900000D02*
G75*
G02*
X1300000Y-139900000I0J4000000D01*
G01*
X1300000Y-5900000D02*
G75*
G02*
X5300000Y-1900000I4000000J0D01*
G01*
X110300000Y-139900000D02*
G75*
G02*
X106300000Y-143900000I-4000000J0D01*
G01*
X106300000Y-1900000D02*
G75*
G02*
X110300000Y-5900000I0J-4000000D01*
G01*
X110300000Y-139900000D02*
X110300000Y-5900000D01*
X5300000Y-1900000D02*
X106300000Y-1900000D01*
M02*
