%TF.GenerationSoftware,KiCad,Pcbnew,9.0.0*%
%TF.CreationDate,2025-03-27T12:33:11+01:00*%
%TF.ProjectId,Cabletester_CB_Diamler_2,4361626c-6574-4657-9374-65725f43425f,rev?*%
%TF.SameCoordinates,PX1c9c380PY1c9c380*%
%TF.FileFunction,Drillmap*%
%TF.FilePolarity,Positive*%
%FSLAX45Y45*%
G04 Gerber Fmt 4.5, Leading zero omitted, Abs format (unit mm)*
G04 Created by KiCad (PCBNEW 9.0.0) date 2025-03-27 12:33:11*
%MOMM*%
%LPD*%
G01*
G04 APERTURE LIST*
%ADD10C,0.050000*%
%ADD11C,0.200000*%
%ADD12C,0.210000*%
%ADD13C,0.225000*%
G04 APERTURE END LIST*
D10*
X10630000Y-14390000D02*
X530000Y-14390000D01*
X130000Y-13990000D02*
X130000Y-590000D01*
X530000Y-14390000D02*
G75*
G02*
X130000Y-13990000I0J400000D01*
G01*
X130000Y-590000D02*
G75*
G02*
X530000Y-190000I400000J0D01*
G01*
X11030000Y-13990000D02*
G75*
G02*
X10630000Y-14390000I-400000J0D01*
G01*
X10630000Y-190000D02*
G75*
G02*
X11030000Y-590000I0J-400000D01*
G01*
X11030000Y-13990000D02*
X11030000Y-590000D01*
X530000Y-190000D02*
X10630000Y-190000D01*
D11*
D12*
X10540000Y-910000D02*
X10750000Y-1120000D01*
X10750000Y-910000D02*
X10540000Y-1120000D01*
X10540000Y-1570000D02*
X10750000Y-1780000D01*
X10750000Y-1570000D02*
X10540000Y-1780000D01*
X10540000Y-2910000D02*
X10750000Y-3120000D01*
X10750000Y-2910000D02*
X10540000Y-3120000D01*
X10540000Y-3570000D02*
X10750000Y-3780000D01*
X10750000Y-3570000D02*
X10540000Y-3780000D01*
X10540000Y-4910000D02*
X10750000Y-5120000D01*
X10750000Y-4910000D02*
X10540000Y-5120000D01*
X10540000Y-5570000D02*
X10750000Y-5780000D01*
X10750000Y-5570000D02*
X10540000Y-5780000D01*
X10540000Y-6910000D02*
X10750000Y-7120000D01*
X10750000Y-6910000D02*
X10540000Y-7120000D01*
X10540000Y-7570000D02*
X10750000Y-7780000D01*
X10750000Y-7570000D02*
X10540000Y-7780000D01*
D13*
X10762500Y-8960000D02*
G75*
G02*
X10537500Y-8960000I-112500J0D01*
G01*
X10537500Y-8960000D02*
G75*
G02*
X10762500Y-8960000I112500J0D01*
G01*
X10762500Y-10390000D02*
G75*
G02*
X10537500Y-10390000I-112500J0D01*
G01*
X10537500Y-10390000D02*
G75*
G02*
X10762500Y-10390000I112500J0D01*
G01*
X10762500Y-11762000D02*
G75*
G02*
X10537500Y-11762000I-112500J0D01*
G01*
X10537500Y-11762000D02*
G75*
G02*
X10762500Y-11762000I112500J0D01*
G01*
X10762500Y-13192000D02*
G75*
G02*
X10537500Y-13192000I-112500J0D01*
G01*
X10537500Y-13192000D02*
G75*
G02*
X10762500Y-13192000I112500J0D01*
G01*
D11*
X388277Y-14703984D02*
X388277Y-14503984D01*
X388277Y-14503984D02*
X435896Y-14503984D01*
X435896Y-14503984D02*
X464467Y-14513508D01*
X464467Y-14513508D02*
X483515Y-14532555D01*
X483515Y-14532555D02*
X493039Y-14551603D01*
X493039Y-14551603D02*
X502562Y-14589698D01*
X502562Y-14589698D02*
X502562Y-14618269D01*
X502562Y-14618269D02*
X493039Y-14656365D01*
X493039Y-14656365D02*
X483515Y-14675412D01*
X483515Y-14675412D02*
X464467Y-14694460D01*
X464467Y-14694460D02*
X435896Y-14703984D01*
X435896Y-14703984D02*
X388277Y-14703984D01*
X588277Y-14703984D02*
X588277Y-14570650D01*
X588277Y-14608746D02*
X597801Y-14589698D01*
X597801Y-14589698D02*
X607324Y-14580174D01*
X607324Y-14580174D02*
X626372Y-14570650D01*
X626372Y-14570650D02*
X645420Y-14570650D01*
X712086Y-14703984D02*
X712086Y-14570650D01*
X712086Y-14503984D02*
X702562Y-14513508D01*
X702562Y-14513508D02*
X712086Y-14523031D01*
X712086Y-14523031D02*
X721610Y-14513508D01*
X721610Y-14513508D02*
X712086Y-14503984D01*
X712086Y-14503984D02*
X712086Y-14523031D01*
X835896Y-14703984D02*
X816848Y-14694460D01*
X816848Y-14694460D02*
X807324Y-14675412D01*
X807324Y-14675412D02*
X807324Y-14503984D01*
X940658Y-14703984D02*
X921610Y-14694460D01*
X921610Y-14694460D02*
X912086Y-14675412D01*
X912086Y-14675412D02*
X912086Y-14503984D01*
X1169229Y-14703984D02*
X1169229Y-14503984D01*
X1169229Y-14503984D02*
X1235896Y-14646841D01*
X1235896Y-14646841D02*
X1302563Y-14503984D01*
X1302563Y-14503984D02*
X1302563Y-14703984D01*
X1483515Y-14703984D02*
X1483515Y-14599222D01*
X1483515Y-14599222D02*
X1473991Y-14580174D01*
X1473991Y-14580174D02*
X1454943Y-14570650D01*
X1454943Y-14570650D02*
X1416848Y-14570650D01*
X1416848Y-14570650D02*
X1397801Y-14580174D01*
X1483515Y-14694460D02*
X1464467Y-14703984D01*
X1464467Y-14703984D02*
X1416848Y-14703984D01*
X1416848Y-14703984D02*
X1397801Y-14694460D01*
X1397801Y-14694460D02*
X1388277Y-14675412D01*
X1388277Y-14675412D02*
X1388277Y-14656365D01*
X1388277Y-14656365D02*
X1397801Y-14637317D01*
X1397801Y-14637317D02*
X1416848Y-14627793D01*
X1416848Y-14627793D02*
X1464467Y-14627793D01*
X1464467Y-14627793D02*
X1483515Y-14618269D01*
X1578753Y-14570650D02*
X1578753Y-14770650D01*
X1578753Y-14580174D02*
X1597801Y-14570650D01*
X1597801Y-14570650D02*
X1635896Y-14570650D01*
X1635896Y-14570650D02*
X1654943Y-14580174D01*
X1654943Y-14580174D02*
X1664467Y-14589698D01*
X1664467Y-14589698D02*
X1673991Y-14608746D01*
X1673991Y-14608746D02*
X1673991Y-14665888D01*
X1673991Y-14665888D02*
X1664467Y-14684936D01*
X1664467Y-14684936D02*
X1654943Y-14694460D01*
X1654943Y-14694460D02*
X1635896Y-14703984D01*
X1635896Y-14703984D02*
X1597801Y-14703984D01*
X1597801Y-14703984D02*
X1578753Y-14694460D01*
X1759705Y-14684936D02*
X1769229Y-14694460D01*
X1769229Y-14694460D02*
X1759705Y-14703984D01*
X1759705Y-14703984D02*
X1750182Y-14694460D01*
X1750182Y-14694460D02*
X1759705Y-14684936D01*
X1759705Y-14684936D02*
X1759705Y-14703984D01*
X1759705Y-14580174D02*
X1769229Y-14589698D01*
X1769229Y-14589698D02*
X1759705Y-14599222D01*
X1759705Y-14599222D02*
X1750182Y-14589698D01*
X1750182Y-14589698D02*
X1759705Y-14580174D01*
X1759705Y-14580174D02*
X1759705Y-14599222D01*
X-72500Y-14932500D02*
X127500Y-15132500D01*
X127500Y-14932500D02*
X-72500Y-15132500D01*
X378753Y-14943031D02*
X388277Y-14933508D01*
X388277Y-14933508D02*
X407324Y-14923984D01*
X407324Y-14923984D02*
X454943Y-14923984D01*
X454943Y-14923984D02*
X473991Y-14933508D01*
X473991Y-14933508D02*
X483515Y-14943031D01*
X483515Y-14943031D02*
X493039Y-14962079D01*
X493039Y-14962079D02*
X493039Y-14981127D01*
X493039Y-14981127D02*
X483515Y-15009698D01*
X483515Y-15009698D02*
X369229Y-15123984D01*
X369229Y-15123984D02*
X493039Y-15123984D01*
X578753Y-15104936D02*
X588277Y-15114460D01*
X588277Y-15114460D02*
X578753Y-15123984D01*
X578753Y-15123984D02*
X569229Y-15114460D01*
X569229Y-15114460D02*
X578753Y-15104936D01*
X578753Y-15104936D02*
X578753Y-15123984D01*
X778753Y-15123984D02*
X664467Y-15123984D01*
X721610Y-15123984D02*
X721610Y-14923984D01*
X721610Y-14923984D02*
X702562Y-14952555D01*
X702562Y-14952555D02*
X683515Y-14971603D01*
X683515Y-14971603D02*
X664467Y-14981127D01*
X902562Y-14923984D02*
X921610Y-14923984D01*
X921610Y-14923984D02*
X940658Y-14933508D01*
X940658Y-14933508D02*
X950182Y-14943031D01*
X950182Y-14943031D02*
X959705Y-14962079D01*
X959705Y-14962079D02*
X969229Y-15000174D01*
X969229Y-15000174D02*
X969229Y-15047793D01*
X969229Y-15047793D02*
X959705Y-15085888D01*
X959705Y-15085888D02*
X950182Y-15104936D01*
X950182Y-15104936D02*
X940658Y-15114460D01*
X940658Y-15114460D02*
X921610Y-15123984D01*
X921610Y-15123984D02*
X902562Y-15123984D01*
X902562Y-15123984D02*
X883515Y-15114460D01*
X883515Y-15114460D02*
X873991Y-15104936D01*
X873991Y-15104936D02*
X864467Y-15085888D01*
X864467Y-15085888D02*
X854943Y-15047793D01*
X854943Y-15047793D02*
X854943Y-15000174D01*
X854943Y-15000174D02*
X864467Y-14962079D01*
X864467Y-14962079D02*
X873991Y-14943031D01*
X873991Y-14943031D02*
X883515Y-14933508D01*
X883515Y-14933508D02*
X902562Y-14923984D01*
X1093039Y-14923984D02*
X1112086Y-14923984D01*
X1112086Y-14923984D02*
X1131134Y-14933508D01*
X1131134Y-14933508D02*
X1140658Y-14943031D01*
X1140658Y-14943031D02*
X1150182Y-14962079D01*
X1150182Y-14962079D02*
X1159705Y-15000174D01*
X1159705Y-15000174D02*
X1159705Y-15047793D01*
X1159705Y-15047793D02*
X1150182Y-15085888D01*
X1150182Y-15085888D02*
X1140658Y-15104936D01*
X1140658Y-15104936D02*
X1131134Y-15114460D01*
X1131134Y-15114460D02*
X1112086Y-15123984D01*
X1112086Y-15123984D02*
X1093039Y-15123984D01*
X1093039Y-15123984D02*
X1073991Y-15114460D01*
X1073991Y-15114460D02*
X1064467Y-15104936D01*
X1064467Y-15104936D02*
X1054944Y-15085888D01*
X1054944Y-15085888D02*
X1045420Y-15047793D01*
X1045420Y-15047793D02*
X1045420Y-15000174D01*
X1045420Y-15000174D02*
X1054944Y-14962079D01*
X1054944Y-14962079D02*
X1064467Y-14943031D01*
X1064467Y-14943031D02*
X1073991Y-14933508D01*
X1073991Y-14933508D02*
X1093039Y-14923984D01*
X1245420Y-15123984D02*
X1245420Y-14990650D01*
X1245420Y-15009698D02*
X1254944Y-15000174D01*
X1254944Y-15000174D02*
X1273991Y-14990650D01*
X1273991Y-14990650D02*
X1302563Y-14990650D01*
X1302563Y-14990650D02*
X1321610Y-15000174D01*
X1321610Y-15000174D02*
X1331134Y-15019222D01*
X1331134Y-15019222D02*
X1331134Y-15123984D01*
X1331134Y-15019222D02*
X1340658Y-15000174D01*
X1340658Y-15000174D02*
X1359705Y-14990650D01*
X1359705Y-14990650D02*
X1388277Y-14990650D01*
X1388277Y-14990650D02*
X1407324Y-15000174D01*
X1407324Y-15000174D02*
X1416848Y-15019222D01*
X1416848Y-15019222D02*
X1416848Y-15123984D01*
X1512086Y-15123984D02*
X1512086Y-14990650D01*
X1512086Y-15009698D02*
X1521610Y-15000174D01*
X1521610Y-15000174D02*
X1540658Y-14990650D01*
X1540658Y-14990650D02*
X1569229Y-14990650D01*
X1569229Y-14990650D02*
X1588277Y-15000174D01*
X1588277Y-15000174D02*
X1597801Y-15019222D01*
X1597801Y-15019222D02*
X1597801Y-15123984D01*
X1597801Y-15019222D02*
X1607324Y-15000174D01*
X1607324Y-15000174D02*
X1626372Y-14990650D01*
X1626372Y-14990650D02*
X1654943Y-14990650D01*
X1654943Y-14990650D02*
X1673991Y-15000174D01*
X1673991Y-15000174D02*
X1683515Y-15019222D01*
X1683515Y-15019222D02*
X1683515Y-15123984D01*
X2073991Y-14914460D02*
X1902563Y-15171603D01*
X2331134Y-14923984D02*
X2350182Y-14923984D01*
X2350182Y-14923984D02*
X2369229Y-14933508D01*
X2369229Y-14933508D02*
X2378753Y-14943031D01*
X2378753Y-14943031D02*
X2388277Y-14962079D01*
X2388277Y-14962079D02*
X2397801Y-15000174D01*
X2397801Y-15000174D02*
X2397801Y-15047793D01*
X2397801Y-15047793D02*
X2388277Y-15085888D01*
X2388277Y-15085888D02*
X2378753Y-15104936D01*
X2378753Y-15104936D02*
X2369229Y-15114460D01*
X2369229Y-15114460D02*
X2350182Y-15123984D01*
X2350182Y-15123984D02*
X2331134Y-15123984D01*
X2331134Y-15123984D02*
X2312087Y-15114460D01*
X2312087Y-15114460D02*
X2302563Y-15104936D01*
X2302563Y-15104936D02*
X2293039Y-15085888D01*
X2293039Y-15085888D02*
X2283515Y-15047793D01*
X2283515Y-15047793D02*
X2283515Y-15000174D01*
X2283515Y-15000174D02*
X2293039Y-14962079D01*
X2293039Y-14962079D02*
X2302563Y-14943031D01*
X2302563Y-14943031D02*
X2312087Y-14933508D01*
X2312087Y-14933508D02*
X2331134Y-14923984D01*
X2483515Y-15104936D02*
X2493039Y-15114460D01*
X2493039Y-15114460D02*
X2483515Y-15123984D01*
X2483515Y-15123984D02*
X2473991Y-15114460D01*
X2473991Y-15114460D02*
X2483515Y-15104936D01*
X2483515Y-15104936D02*
X2483515Y-15123984D01*
X2616848Y-14923984D02*
X2635896Y-14923984D01*
X2635896Y-14923984D02*
X2654944Y-14933508D01*
X2654944Y-14933508D02*
X2664468Y-14943031D01*
X2664468Y-14943031D02*
X2673991Y-14962079D01*
X2673991Y-14962079D02*
X2683515Y-15000174D01*
X2683515Y-15000174D02*
X2683515Y-15047793D01*
X2683515Y-15047793D02*
X2673991Y-15085888D01*
X2673991Y-15085888D02*
X2664468Y-15104936D01*
X2664468Y-15104936D02*
X2654944Y-15114460D01*
X2654944Y-15114460D02*
X2635896Y-15123984D01*
X2635896Y-15123984D02*
X2616848Y-15123984D01*
X2616848Y-15123984D02*
X2597801Y-15114460D01*
X2597801Y-15114460D02*
X2588277Y-15104936D01*
X2588277Y-15104936D02*
X2578753Y-15085888D01*
X2578753Y-15085888D02*
X2569229Y-15047793D01*
X2569229Y-15047793D02*
X2569229Y-15000174D01*
X2569229Y-15000174D02*
X2578753Y-14962079D01*
X2578753Y-14962079D02*
X2588277Y-14943031D01*
X2588277Y-14943031D02*
X2597801Y-14933508D01*
X2597801Y-14933508D02*
X2616848Y-14923984D01*
X2797801Y-15009698D02*
X2778753Y-15000174D01*
X2778753Y-15000174D02*
X2769229Y-14990650D01*
X2769229Y-14990650D02*
X2759706Y-14971603D01*
X2759706Y-14971603D02*
X2759706Y-14962079D01*
X2759706Y-14962079D02*
X2769229Y-14943031D01*
X2769229Y-14943031D02*
X2778753Y-14933508D01*
X2778753Y-14933508D02*
X2797801Y-14923984D01*
X2797801Y-14923984D02*
X2835896Y-14923984D01*
X2835896Y-14923984D02*
X2854944Y-14933508D01*
X2854944Y-14933508D02*
X2864467Y-14943031D01*
X2864467Y-14943031D02*
X2873991Y-14962079D01*
X2873991Y-14962079D02*
X2873991Y-14971603D01*
X2873991Y-14971603D02*
X2864467Y-14990650D01*
X2864467Y-14990650D02*
X2854944Y-15000174D01*
X2854944Y-15000174D02*
X2835896Y-15009698D01*
X2835896Y-15009698D02*
X2797801Y-15009698D01*
X2797801Y-15009698D02*
X2778753Y-15019222D01*
X2778753Y-15019222D02*
X2769229Y-15028746D01*
X2769229Y-15028746D02*
X2759706Y-15047793D01*
X2759706Y-15047793D02*
X2759706Y-15085888D01*
X2759706Y-15085888D02*
X2769229Y-15104936D01*
X2769229Y-15104936D02*
X2778753Y-15114460D01*
X2778753Y-15114460D02*
X2797801Y-15123984D01*
X2797801Y-15123984D02*
X2835896Y-15123984D01*
X2835896Y-15123984D02*
X2854944Y-15114460D01*
X2854944Y-15114460D02*
X2864467Y-15104936D01*
X2864467Y-15104936D02*
X2873991Y-15085888D01*
X2873991Y-15085888D02*
X2873991Y-15047793D01*
X2873991Y-15047793D02*
X2864467Y-15028746D01*
X2864467Y-15028746D02*
X2854944Y-15019222D01*
X2854944Y-15019222D02*
X2835896Y-15009698D01*
X2950182Y-14943031D02*
X2959706Y-14933508D01*
X2959706Y-14933508D02*
X2978753Y-14923984D01*
X2978753Y-14923984D02*
X3026372Y-14923984D01*
X3026372Y-14923984D02*
X3045420Y-14933508D01*
X3045420Y-14933508D02*
X3054944Y-14943031D01*
X3054944Y-14943031D02*
X3064467Y-14962079D01*
X3064467Y-14962079D02*
X3064467Y-14981127D01*
X3064467Y-14981127D02*
X3054944Y-15009698D01*
X3054944Y-15009698D02*
X2940658Y-15123984D01*
X2940658Y-15123984D02*
X3064467Y-15123984D01*
X3131134Y-14923984D02*
X3264467Y-14923984D01*
X3264467Y-14923984D02*
X3178753Y-15123984D01*
X3331134Y-14923984D02*
X3331134Y-14962079D01*
X3407325Y-14923984D02*
X3407325Y-14962079D01*
X3702563Y-15200174D02*
X3693039Y-15190650D01*
X3693039Y-15190650D02*
X3673991Y-15162079D01*
X3673991Y-15162079D02*
X3664468Y-15143031D01*
X3664468Y-15143031D02*
X3654944Y-15114460D01*
X3654944Y-15114460D02*
X3645420Y-15066841D01*
X3645420Y-15066841D02*
X3645420Y-15028746D01*
X3645420Y-15028746D02*
X3654944Y-14981127D01*
X3654944Y-14981127D02*
X3664468Y-14952555D01*
X3664468Y-14952555D02*
X3673991Y-14933508D01*
X3673991Y-14933508D02*
X3693039Y-14904936D01*
X3693039Y-14904936D02*
X3702563Y-14895412D01*
X3807325Y-15009698D02*
X3788277Y-15000174D01*
X3788277Y-15000174D02*
X3778753Y-14990650D01*
X3778753Y-14990650D02*
X3769229Y-14971603D01*
X3769229Y-14971603D02*
X3769229Y-14962079D01*
X3769229Y-14962079D02*
X3778753Y-14943031D01*
X3778753Y-14943031D02*
X3788277Y-14933508D01*
X3788277Y-14933508D02*
X3807325Y-14923984D01*
X3807325Y-14923984D02*
X3845420Y-14923984D01*
X3845420Y-14923984D02*
X3864468Y-14933508D01*
X3864468Y-14933508D02*
X3873991Y-14943031D01*
X3873991Y-14943031D02*
X3883515Y-14962079D01*
X3883515Y-14962079D02*
X3883515Y-14971603D01*
X3883515Y-14971603D02*
X3873991Y-14990650D01*
X3873991Y-14990650D02*
X3864468Y-15000174D01*
X3864468Y-15000174D02*
X3845420Y-15009698D01*
X3845420Y-15009698D02*
X3807325Y-15009698D01*
X3807325Y-15009698D02*
X3788277Y-15019222D01*
X3788277Y-15019222D02*
X3778753Y-15028746D01*
X3778753Y-15028746D02*
X3769229Y-15047793D01*
X3769229Y-15047793D02*
X3769229Y-15085888D01*
X3769229Y-15085888D02*
X3778753Y-15104936D01*
X3778753Y-15104936D02*
X3788277Y-15114460D01*
X3788277Y-15114460D02*
X3807325Y-15123984D01*
X3807325Y-15123984D02*
X3845420Y-15123984D01*
X3845420Y-15123984D02*
X3864468Y-15114460D01*
X3864468Y-15114460D02*
X3873991Y-15104936D01*
X3873991Y-15104936D02*
X3883515Y-15085888D01*
X3883515Y-15085888D02*
X3883515Y-15047793D01*
X3883515Y-15047793D02*
X3873991Y-15028746D01*
X3873991Y-15028746D02*
X3864468Y-15019222D01*
X3864468Y-15019222D02*
X3845420Y-15009698D01*
X4121610Y-15123984D02*
X4121610Y-14923984D01*
X4207325Y-15123984D02*
X4207325Y-15019222D01*
X4207325Y-15019222D02*
X4197801Y-15000174D01*
X4197801Y-15000174D02*
X4178753Y-14990650D01*
X4178753Y-14990650D02*
X4150182Y-14990650D01*
X4150182Y-14990650D02*
X4131134Y-15000174D01*
X4131134Y-15000174D02*
X4121610Y-15009698D01*
X4331134Y-15123984D02*
X4312087Y-15114460D01*
X4312087Y-15114460D02*
X4302563Y-15104936D01*
X4302563Y-15104936D02*
X4293039Y-15085888D01*
X4293039Y-15085888D02*
X4293039Y-15028746D01*
X4293039Y-15028746D02*
X4302563Y-15009698D01*
X4302563Y-15009698D02*
X4312087Y-15000174D01*
X4312087Y-15000174D02*
X4331134Y-14990650D01*
X4331134Y-14990650D02*
X4359706Y-14990650D01*
X4359706Y-14990650D02*
X4378753Y-15000174D01*
X4378753Y-15000174D02*
X4388277Y-15009698D01*
X4388277Y-15009698D02*
X4397801Y-15028746D01*
X4397801Y-15028746D02*
X4397801Y-15085888D01*
X4397801Y-15085888D02*
X4388277Y-15104936D01*
X4388277Y-15104936D02*
X4378753Y-15114460D01*
X4378753Y-15114460D02*
X4359706Y-15123984D01*
X4359706Y-15123984D02*
X4331134Y-15123984D01*
X4512087Y-15123984D02*
X4493039Y-15114460D01*
X4493039Y-15114460D02*
X4483515Y-15095412D01*
X4483515Y-15095412D02*
X4483515Y-14923984D01*
X4664468Y-15114460D02*
X4645420Y-15123984D01*
X4645420Y-15123984D02*
X4607325Y-15123984D01*
X4607325Y-15123984D02*
X4588277Y-15114460D01*
X4588277Y-15114460D02*
X4578753Y-15095412D01*
X4578753Y-15095412D02*
X4578753Y-15019222D01*
X4578753Y-15019222D02*
X4588277Y-15000174D01*
X4588277Y-15000174D02*
X4607325Y-14990650D01*
X4607325Y-14990650D02*
X4645420Y-14990650D01*
X4645420Y-14990650D02*
X4664468Y-15000174D01*
X4664468Y-15000174D02*
X4673992Y-15019222D01*
X4673992Y-15019222D02*
X4673992Y-15038269D01*
X4673992Y-15038269D02*
X4578753Y-15057317D01*
X4750182Y-15114460D02*
X4769230Y-15123984D01*
X4769230Y-15123984D02*
X4807325Y-15123984D01*
X4807325Y-15123984D02*
X4826373Y-15114460D01*
X4826373Y-15114460D02*
X4835896Y-15095412D01*
X4835896Y-15095412D02*
X4835896Y-15085888D01*
X4835896Y-15085888D02*
X4826373Y-15066841D01*
X4826373Y-15066841D02*
X4807325Y-15057317D01*
X4807325Y-15057317D02*
X4778753Y-15057317D01*
X4778753Y-15057317D02*
X4759706Y-15047793D01*
X4759706Y-15047793D02*
X4750182Y-15028746D01*
X4750182Y-15028746D02*
X4750182Y-15019222D01*
X4750182Y-15019222D02*
X4759706Y-15000174D01*
X4759706Y-15000174D02*
X4778753Y-14990650D01*
X4778753Y-14990650D02*
X4807325Y-14990650D01*
X4807325Y-14990650D02*
X4826373Y-15000174D01*
X4902563Y-15200174D02*
X4912087Y-15190650D01*
X4912087Y-15190650D02*
X4931134Y-15162079D01*
X4931134Y-15162079D02*
X4940658Y-15143031D01*
X4940658Y-15143031D02*
X4950182Y-15114460D01*
X4950182Y-15114460D02*
X4959706Y-15066841D01*
X4959706Y-15066841D02*
X4959706Y-15028746D01*
X4959706Y-15028746D02*
X4950182Y-14981127D01*
X4950182Y-14981127D02*
X4940658Y-14952555D01*
X4940658Y-14952555D02*
X4931134Y-14933508D01*
X4931134Y-14933508D02*
X4912087Y-14904936D01*
X4912087Y-14904936D02*
X4902563Y-14895412D01*
X5264468Y-15200174D02*
X5254944Y-15190650D01*
X5254944Y-15190650D02*
X5235896Y-15162079D01*
X5235896Y-15162079D02*
X5226373Y-15143031D01*
X5226373Y-15143031D02*
X5216849Y-15114460D01*
X5216849Y-15114460D02*
X5207325Y-15066841D01*
X5207325Y-15066841D02*
X5207325Y-15028746D01*
X5207325Y-15028746D02*
X5216849Y-14981127D01*
X5216849Y-14981127D02*
X5226373Y-14952555D01*
X5226373Y-14952555D02*
X5235896Y-14933508D01*
X5235896Y-14933508D02*
X5254944Y-14904936D01*
X5254944Y-14904936D02*
X5264468Y-14895412D01*
X5340658Y-14990650D02*
X5340658Y-15123984D01*
X5340658Y-15009698D02*
X5350182Y-15000174D01*
X5350182Y-15000174D02*
X5369230Y-14990650D01*
X5369230Y-14990650D02*
X5397801Y-14990650D01*
X5397801Y-14990650D02*
X5416849Y-15000174D01*
X5416849Y-15000174D02*
X5426373Y-15019222D01*
X5426373Y-15019222D02*
X5426373Y-15123984D01*
X5550182Y-15123984D02*
X5531134Y-15114460D01*
X5531134Y-15114460D02*
X5521611Y-15104936D01*
X5521611Y-15104936D02*
X5512087Y-15085888D01*
X5512087Y-15085888D02*
X5512087Y-15028746D01*
X5512087Y-15028746D02*
X5521611Y-15009698D01*
X5521611Y-15009698D02*
X5531134Y-15000174D01*
X5531134Y-15000174D02*
X5550182Y-14990650D01*
X5550182Y-14990650D02*
X5578754Y-14990650D01*
X5578754Y-14990650D02*
X5597801Y-15000174D01*
X5597801Y-15000174D02*
X5607325Y-15009698D01*
X5607325Y-15009698D02*
X5616849Y-15028746D01*
X5616849Y-15028746D02*
X5616849Y-15085888D01*
X5616849Y-15085888D02*
X5607325Y-15104936D01*
X5607325Y-15104936D02*
X5597801Y-15114460D01*
X5597801Y-15114460D02*
X5578754Y-15123984D01*
X5578754Y-15123984D02*
X5550182Y-15123984D01*
X5673992Y-14990650D02*
X5750182Y-14990650D01*
X5702563Y-14923984D02*
X5702563Y-15095412D01*
X5702563Y-15095412D02*
X5712087Y-15114460D01*
X5712087Y-15114460D02*
X5731134Y-15123984D01*
X5731134Y-15123984D02*
X5750182Y-15123984D01*
X5969230Y-14990650D02*
X5969230Y-15190650D01*
X5969230Y-15000174D02*
X5988277Y-14990650D01*
X5988277Y-14990650D02*
X6026373Y-14990650D01*
X6026373Y-14990650D02*
X6045420Y-15000174D01*
X6045420Y-15000174D02*
X6054944Y-15009698D01*
X6054944Y-15009698D02*
X6064468Y-15028746D01*
X6064468Y-15028746D02*
X6064468Y-15085888D01*
X6064468Y-15085888D02*
X6054944Y-15104936D01*
X6054944Y-15104936D02*
X6045420Y-15114460D01*
X6045420Y-15114460D02*
X6026373Y-15123984D01*
X6026373Y-15123984D02*
X5988277Y-15123984D01*
X5988277Y-15123984D02*
X5969230Y-15114460D01*
X6178753Y-15123984D02*
X6159706Y-15114460D01*
X6159706Y-15114460D02*
X6150182Y-15095412D01*
X6150182Y-15095412D02*
X6150182Y-14923984D01*
X6340658Y-15123984D02*
X6340658Y-15019222D01*
X6340658Y-15019222D02*
X6331134Y-15000174D01*
X6331134Y-15000174D02*
X6312087Y-14990650D01*
X6312087Y-14990650D02*
X6273992Y-14990650D01*
X6273992Y-14990650D02*
X6254944Y-15000174D01*
X6340658Y-15114460D02*
X6321611Y-15123984D01*
X6321611Y-15123984D02*
X6273992Y-15123984D01*
X6273992Y-15123984D02*
X6254944Y-15114460D01*
X6254944Y-15114460D02*
X6245420Y-15095412D01*
X6245420Y-15095412D02*
X6245420Y-15076365D01*
X6245420Y-15076365D02*
X6254944Y-15057317D01*
X6254944Y-15057317D02*
X6273992Y-15047793D01*
X6273992Y-15047793D02*
X6321611Y-15047793D01*
X6321611Y-15047793D02*
X6340658Y-15038269D01*
X6407325Y-14990650D02*
X6483515Y-14990650D01*
X6435896Y-14923984D02*
X6435896Y-15095412D01*
X6435896Y-15095412D02*
X6445420Y-15114460D01*
X6445420Y-15114460D02*
X6464468Y-15123984D01*
X6464468Y-15123984D02*
X6483515Y-15123984D01*
X6626373Y-15114460D02*
X6607325Y-15123984D01*
X6607325Y-15123984D02*
X6569230Y-15123984D01*
X6569230Y-15123984D02*
X6550182Y-15114460D01*
X6550182Y-15114460D02*
X6540658Y-15095412D01*
X6540658Y-15095412D02*
X6540658Y-15019222D01*
X6540658Y-15019222D02*
X6550182Y-15000174D01*
X6550182Y-15000174D02*
X6569230Y-14990650D01*
X6569230Y-14990650D02*
X6607325Y-14990650D01*
X6607325Y-14990650D02*
X6626373Y-15000174D01*
X6626373Y-15000174D02*
X6635896Y-15019222D01*
X6635896Y-15019222D02*
X6635896Y-15038269D01*
X6635896Y-15038269D02*
X6540658Y-15057317D01*
X6807325Y-15123984D02*
X6807325Y-14923984D01*
X6807325Y-15114460D02*
X6788277Y-15123984D01*
X6788277Y-15123984D02*
X6750182Y-15123984D01*
X6750182Y-15123984D02*
X6731134Y-15114460D01*
X6731134Y-15114460D02*
X6721611Y-15104936D01*
X6721611Y-15104936D02*
X6712087Y-15085888D01*
X6712087Y-15085888D02*
X6712087Y-15028746D01*
X6712087Y-15028746D02*
X6721611Y-15009698D01*
X6721611Y-15009698D02*
X6731134Y-15000174D01*
X6731134Y-15000174D02*
X6750182Y-14990650D01*
X6750182Y-14990650D02*
X6788277Y-14990650D01*
X6788277Y-14990650D02*
X6807325Y-15000174D01*
X6883515Y-15200174D02*
X6893039Y-15190650D01*
X6893039Y-15190650D02*
X6912087Y-15162079D01*
X6912087Y-15162079D02*
X6921611Y-15143031D01*
X6921611Y-15143031D02*
X6931134Y-15114460D01*
X6931134Y-15114460D02*
X6940658Y-15066841D01*
X6940658Y-15066841D02*
X6940658Y-15028746D01*
X6940658Y-15028746D02*
X6931134Y-14981127D01*
X6931134Y-14981127D02*
X6921611Y-14952555D01*
X6921611Y-14952555D02*
X6912087Y-14933508D01*
X6912087Y-14933508D02*
X6893039Y-14904936D01*
X6893039Y-14904936D02*
X6883515Y-14895412D01*
X127500Y-15352500D02*
G75*
G02*
X-72500Y-15352500I-100000J0D01*
G01*
X-72500Y-15352500D02*
G75*
G02*
X127500Y-15352500I100000J0D01*
G01*
X378753Y-15263031D02*
X388277Y-15253508D01*
X388277Y-15253508D02*
X407324Y-15243984D01*
X407324Y-15243984D02*
X454943Y-15243984D01*
X454943Y-15243984D02*
X473991Y-15253508D01*
X473991Y-15253508D02*
X483515Y-15263031D01*
X483515Y-15263031D02*
X493039Y-15282079D01*
X493039Y-15282079D02*
X493039Y-15301127D01*
X493039Y-15301127D02*
X483515Y-15329698D01*
X483515Y-15329698D02*
X369229Y-15443984D01*
X369229Y-15443984D02*
X493039Y-15443984D01*
X578753Y-15424936D02*
X588277Y-15434460D01*
X588277Y-15434460D02*
X578753Y-15443984D01*
X578753Y-15443984D02*
X569229Y-15434460D01*
X569229Y-15434460D02*
X578753Y-15424936D01*
X578753Y-15424936D02*
X578753Y-15443984D01*
X664467Y-15263031D02*
X673991Y-15253508D01*
X673991Y-15253508D02*
X693039Y-15243984D01*
X693039Y-15243984D02*
X740658Y-15243984D01*
X740658Y-15243984D02*
X759705Y-15253508D01*
X759705Y-15253508D02*
X769229Y-15263031D01*
X769229Y-15263031D02*
X778753Y-15282079D01*
X778753Y-15282079D02*
X778753Y-15301127D01*
X778753Y-15301127D02*
X769229Y-15329698D01*
X769229Y-15329698D02*
X654944Y-15443984D01*
X654944Y-15443984D02*
X778753Y-15443984D01*
X959705Y-15243984D02*
X864467Y-15243984D01*
X864467Y-15243984D02*
X854943Y-15339222D01*
X854943Y-15339222D02*
X864467Y-15329698D01*
X864467Y-15329698D02*
X883515Y-15320174D01*
X883515Y-15320174D02*
X931134Y-15320174D01*
X931134Y-15320174D02*
X950182Y-15329698D01*
X950182Y-15329698D02*
X959705Y-15339222D01*
X959705Y-15339222D02*
X969229Y-15358269D01*
X969229Y-15358269D02*
X969229Y-15405888D01*
X969229Y-15405888D02*
X959705Y-15424936D01*
X959705Y-15424936D02*
X950182Y-15434460D01*
X950182Y-15434460D02*
X931134Y-15443984D01*
X931134Y-15443984D02*
X883515Y-15443984D01*
X883515Y-15443984D02*
X864467Y-15434460D01*
X864467Y-15434460D02*
X854943Y-15424936D01*
X1093039Y-15243984D02*
X1112086Y-15243984D01*
X1112086Y-15243984D02*
X1131134Y-15253508D01*
X1131134Y-15253508D02*
X1140658Y-15263031D01*
X1140658Y-15263031D02*
X1150182Y-15282079D01*
X1150182Y-15282079D02*
X1159705Y-15320174D01*
X1159705Y-15320174D02*
X1159705Y-15367793D01*
X1159705Y-15367793D02*
X1150182Y-15405888D01*
X1150182Y-15405888D02*
X1140658Y-15424936D01*
X1140658Y-15424936D02*
X1131134Y-15434460D01*
X1131134Y-15434460D02*
X1112086Y-15443984D01*
X1112086Y-15443984D02*
X1093039Y-15443984D01*
X1093039Y-15443984D02*
X1073991Y-15434460D01*
X1073991Y-15434460D02*
X1064467Y-15424936D01*
X1064467Y-15424936D02*
X1054944Y-15405888D01*
X1054944Y-15405888D02*
X1045420Y-15367793D01*
X1045420Y-15367793D02*
X1045420Y-15320174D01*
X1045420Y-15320174D02*
X1054944Y-15282079D01*
X1054944Y-15282079D02*
X1064467Y-15263031D01*
X1064467Y-15263031D02*
X1073991Y-15253508D01*
X1073991Y-15253508D02*
X1093039Y-15243984D01*
X1245420Y-15443984D02*
X1245420Y-15310650D01*
X1245420Y-15329698D02*
X1254944Y-15320174D01*
X1254944Y-15320174D02*
X1273991Y-15310650D01*
X1273991Y-15310650D02*
X1302563Y-15310650D01*
X1302563Y-15310650D02*
X1321610Y-15320174D01*
X1321610Y-15320174D02*
X1331134Y-15339222D01*
X1331134Y-15339222D02*
X1331134Y-15443984D01*
X1331134Y-15339222D02*
X1340658Y-15320174D01*
X1340658Y-15320174D02*
X1359705Y-15310650D01*
X1359705Y-15310650D02*
X1388277Y-15310650D01*
X1388277Y-15310650D02*
X1407324Y-15320174D01*
X1407324Y-15320174D02*
X1416848Y-15339222D01*
X1416848Y-15339222D02*
X1416848Y-15443984D01*
X1512086Y-15443984D02*
X1512086Y-15310650D01*
X1512086Y-15329698D02*
X1521610Y-15320174D01*
X1521610Y-15320174D02*
X1540658Y-15310650D01*
X1540658Y-15310650D02*
X1569229Y-15310650D01*
X1569229Y-15310650D02*
X1588277Y-15320174D01*
X1588277Y-15320174D02*
X1597801Y-15339222D01*
X1597801Y-15339222D02*
X1597801Y-15443984D01*
X1597801Y-15339222D02*
X1607324Y-15320174D01*
X1607324Y-15320174D02*
X1626372Y-15310650D01*
X1626372Y-15310650D02*
X1654943Y-15310650D01*
X1654943Y-15310650D02*
X1673991Y-15320174D01*
X1673991Y-15320174D02*
X1683515Y-15339222D01*
X1683515Y-15339222D02*
X1683515Y-15443984D01*
X2073991Y-15234460D02*
X1902563Y-15491603D01*
X2331134Y-15243984D02*
X2350182Y-15243984D01*
X2350182Y-15243984D02*
X2369229Y-15253508D01*
X2369229Y-15253508D02*
X2378753Y-15263031D01*
X2378753Y-15263031D02*
X2388277Y-15282079D01*
X2388277Y-15282079D02*
X2397801Y-15320174D01*
X2397801Y-15320174D02*
X2397801Y-15367793D01*
X2397801Y-15367793D02*
X2388277Y-15405888D01*
X2388277Y-15405888D02*
X2378753Y-15424936D01*
X2378753Y-15424936D02*
X2369229Y-15434460D01*
X2369229Y-15434460D02*
X2350182Y-15443984D01*
X2350182Y-15443984D02*
X2331134Y-15443984D01*
X2331134Y-15443984D02*
X2312087Y-15434460D01*
X2312087Y-15434460D02*
X2302563Y-15424936D01*
X2302563Y-15424936D02*
X2293039Y-15405888D01*
X2293039Y-15405888D02*
X2283515Y-15367793D01*
X2283515Y-15367793D02*
X2283515Y-15320174D01*
X2283515Y-15320174D02*
X2293039Y-15282079D01*
X2293039Y-15282079D02*
X2302563Y-15263031D01*
X2302563Y-15263031D02*
X2312087Y-15253508D01*
X2312087Y-15253508D02*
X2331134Y-15243984D01*
X2483515Y-15424936D02*
X2493039Y-15434460D01*
X2493039Y-15434460D02*
X2483515Y-15443984D01*
X2483515Y-15443984D02*
X2473991Y-15434460D01*
X2473991Y-15434460D02*
X2483515Y-15424936D01*
X2483515Y-15424936D02*
X2483515Y-15443984D01*
X2616848Y-15243984D02*
X2635896Y-15243984D01*
X2635896Y-15243984D02*
X2654944Y-15253508D01*
X2654944Y-15253508D02*
X2664468Y-15263031D01*
X2664468Y-15263031D02*
X2673991Y-15282079D01*
X2673991Y-15282079D02*
X2683515Y-15320174D01*
X2683515Y-15320174D02*
X2683515Y-15367793D01*
X2683515Y-15367793D02*
X2673991Y-15405888D01*
X2673991Y-15405888D02*
X2664468Y-15424936D01*
X2664468Y-15424936D02*
X2654944Y-15434460D01*
X2654944Y-15434460D02*
X2635896Y-15443984D01*
X2635896Y-15443984D02*
X2616848Y-15443984D01*
X2616848Y-15443984D02*
X2597801Y-15434460D01*
X2597801Y-15434460D02*
X2588277Y-15424936D01*
X2588277Y-15424936D02*
X2578753Y-15405888D01*
X2578753Y-15405888D02*
X2569229Y-15367793D01*
X2569229Y-15367793D02*
X2569229Y-15320174D01*
X2569229Y-15320174D02*
X2578753Y-15282079D01*
X2578753Y-15282079D02*
X2588277Y-15263031D01*
X2588277Y-15263031D02*
X2597801Y-15253508D01*
X2597801Y-15253508D02*
X2616848Y-15243984D01*
X2797801Y-15329698D02*
X2778753Y-15320174D01*
X2778753Y-15320174D02*
X2769229Y-15310650D01*
X2769229Y-15310650D02*
X2759706Y-15291603D01*
X2759706Y-15291603D02*
X2759706Y-15282079D01*
X2759706Y-15282079D02*
X2769229Y-15263031D01*
X2769229Y-15263031D02*
X2778753Y-15253508D01*
X2778753Y-15253508D02*
X2797801Y-15243984D01*
X2797801Y-15243984D02*
X2835896Y-15243984D01*
X2835896Y-15243984D02*
X2854944Y-15253508D01*
X2854944Y-15253508D02*
X2864467Y-15263031D01*
X2864467Y-15263031D02*
X2873991Y-15282079D01*
X2873991Y-15282079D02*
X2873991Y-15291603D01*
X2873991Y-15291603D02*
X2864467Y-15310650D01*
X2864467Y-15310650D02*
X2854944Y-15320174D01*
X2854944Y-15320174D02*
X2835896Y-15329698D01*
X2835896Y-15329698D02*
X2797801Y-15329698D01*
X2797801Y-15329698D02*
X2778753Y-15339222D01*
X2778753Y-15339222D02*
X2769229Y-15348746D01*
X2769229Y-15348746D02*
X2759706Y-15367793D01*
X2759706Y-15367793D02*
X2759706Y-15405888D01*
X2759706Y-15405888D02*
X2769229Y-15424936D01*
X2769229Y-15424936D02*
X2778753Y-15434460D01*
X2778753Y-15434460D02*
X2797801Y-15443984D01*
X2797801Y-15443984D02*
X2835896Y-15443984D01*
X2835896Y-15443984D02*
X2854944Y-15434460D01*
X2854944Y-15434460D02*
X2864467Y-15424936D01*
X2864467Y-15424936D02*
X2873991Y-15405888D01*
X2873991Y-15405888D02*
X2873991Y-15367793D01*
X2873991Y-15367793D02*
X2864467Y-15348746D01*
X2864467Y-15348746D02*
X2854944Y-15339222D01*
X2854944Y-15339222D02*
X2835896Y-15329698D01*
X2988277Y-15329698D02*
X2969229Y-15320174D01*
X2969229Y-15320174D02*
X2959706Y-15310650D01*
X2959706Y-15310650D02*
X2950182Y-15291603D01*
X2950182Y-15291603D02*
X2950182Y-15282079D01*
X2950182Y-15282079D02*
X2959706Y-15263031D01*
X2959706Y-15263031D02*
X2969229Y-15253508D01*
X2969229Y-15253508D02*
X2988277Y-15243984D01*
X2988277Y-15243984D02*
X3026372Y-15243984D01*
X3026372Y-15243984D02*
X3045420Y-15253508D01*
X3045420Y-15253508D02*
X3054944Y-15263031D01*
X3054944Y-15263031D02*
X3064467Y-15282079D01*
X3064467Y-15282079D02*
X3064467Y-15291603D01*
X3064467Y-15291603D02*
X3054944Y-15310650D01*
X3054944Y-15310650D02*
X3045420Y-15320174D01*
X3045420Y-15320174D02*
X3026372Y-15329698D01*
X3026372Y-15329698D02*
X2988277Y-15329698D01*
X2988277Y-15329698D02*
X2969229Y-15339222D01*
X2969229Y-15339222D02*
X2959706Y-15348746D01*
X2959706Y-15348746D02*
X2950182Y-15367793D01*
X2950182Y-15367793D02*
X2950182Y-15405888D01*
X2950182Y-15405888D02*
X2959706Y-15424936D01*
X2959706Y-15424936D02*
X2969229Y-15434460D01*
X2969229Y-15434460D02*
X2988277Y-15443984D01*
X2988277Y-15443984D02*
X3026372Y-15443984D01*
X3026372Y-15443984D02*
X3045420Y-15434460D01*
X3045420Y-15434460D02*
X3054944Y-15424936D01*
X3054944Y-15424936D02*
X3064467Y-15405888D01*
X3064467Y-15405888D02*
X3064467Y-15367793D01*
X3064467Y-15367793D02*
X3054944Y-15348746D01*
X3054944Y-15348746D02*
X3045420Y-15339222D01*
X3045420Y-15339222D02*
X3026372Y-15329698D01*
X3235896Y-15243984D02*
X3197801Y-15243984D01*
X3197801Y-15243984D02*
X3178753Y-15253508D01*
X3178753Y-15253508D02*
X3169229Y-15263031D01*
X3169229Y-15263031D02*
X3150182Y-15291603D01*
X3150182Y-15291603D02*
X3140658Y-15329698D01*
X3140658Y-15329698D02*
X3140658Y-15405888D01*
X3140658Y-15405888D02*
X3150182Y-15424936D01*
X3150182Y-15424936D02*
X3159706Y-15434460D01*
X3159706Y-15434460D02*
X3178753Y-15443984D01*
X3178753Y-15443984D02*
X3216848Y-15443984D01*
X3216848Y-15443984D02*
X3235896Y-15434460D01*
X3235896Y-15434460D02*
X3245420Y-15424936D01*
X3245420Y-15424936D02*
X3254944Y-15405888D01*
X3254944Y-15405888D02*
X3254944Y-15358269D01*
X3254944Y-15358269D02*
X3245420Y-15339222D01*
X3245420Y-15339222D02*
X3235896Y-15329698D01*
X3235896Y-15329698D02*
X3216848Y-15320174D01*
X3216848Y-15320174D02*
X3178753Y-15320174D01*
X3178753Y-15320174D02*
X3159706Y-15329698D01*
X3159706Y-15329698D02*
X3150182Y-15339222D01*
X3150182Y-15339222D02*
X3140658Y-15358269D01*
X3331134Y-15243984D02*
X3331134Y-15282079D01*
X3407325Y-15243984D02*
X3407325Y-15282079D01*
X3702563Y-15520174D02*
X3693039Y-15510650D01*
X3693039Y-15510650D02*
X3673991Y-15482079D01*
X3673991Y-15482079D02*
X3664468Y-15463031D01*
X3664468Y-15463031D02*
X3654944Y-15434460D01*
X3654944Y-15434460D02*
X3645420Y-15386841D01*
X3645420Y-15386841D02*
X3645420Y-15348746D01*
X3645420Y-15348746D02*
X3654944Y-15301127D01*
X3654944Y-15301127D02*
X3664468Y-15272555D01*
X3664468Y-15272555D02*
X3673991Y-15253508D01*
X3673991Y-15253508D02*
X3693039Y-15224936D01*
X3693039Y-15224936D02*
X3702563Y-15215412D01*
X3864468Y-15310650D02*
X3864468Y-15443984D01*
X3816848Y-15234460D02*
X3769229Y-15377317D01*
X3769229Y-15377317D02*
X3893039Y-15377317D01*
X4121610Y-15443984D02*
X4121610Y-15243984D01*
X4207325Y-15443984D02*
X4207325Y-15339222D01*
X4207325Y-15339222D02*
X4197801Y-15320174D01*
X4197801Y-15320174D02*
X4178753Y-15310650D01*
X4178753Y-15310650D02*
X4150182Y-15310650D01*
X4150182Y-15310650D02*
X4131134Y-15320174D01*
X4131134Y-15320174D02*
X4121610Y-15329698D01*
X4331134Y-15443984D02*
X4312087Y-15434460D01*
X4312087Y-15434460D02*
X4302563Y-15424936D01*
X4302563Y-15424936D02*
X4293039Y-15405888D01*
X4293039Y-15405888D02*
X4293039Y-15348746D01*
X4293039Y-15348746D02*
X4302563Y-15329698D01*
X4302563Y-15329698D02*
X4312087Y-15320174D01*
X4312087Y-15320174D02*
X4331134Y-15310650D01*
X4331134Y-15310650D02*
X4359706Y-15310650D01*
X4359706Y-15310650D02*
X4378753Y-15320174D01*
X4378753Y-15320174D02*
X4388277Y-15329698D01*
X4388277Y-15329698D02*
X4397801Y-15348746D01*
X4397801Y-15348746D02*
X4397801Y-15405888D01*
X4397801Y-15405888D02*
X4388277Y-15424936D01*
X4388277Y-15424936D02*
X4378753Y-15434460D01*
X4378753Y-15434460D02*
X4359706Y-15443984D01*
X4359706Y-15443984D02*
X4331134Y-15443984D01*
X4512087Y-15443984D02*
X4493039Y-15434460D01*
X4493039Y-15434460D02*
X4483515Y-15415412D01*
X4483515Y-15415412D02*
X4483515Y-15243984D01*
X4664468Y-15434460D02*
X4645420Y-15443984D01*
X4645420Y-15443984D02*
X4607325Y-15443984D01*
X4607325Y-15443984D02*
X4588277Y-15434460D01*
X4588277Y-15434460D02*
X4578753Y-15415412D01*
X4578753Y-15415412D02*
X4578753Y-15339222D01*
X4578753Y-15339222D02*
X4588277Y-15320174D01*
X4588277Y-15320174D02*
X4607325Y-15310650D01*
X4607325Y-15310650D02*
X4645420Y-15310650D01*
X4645420Y-15310650D02*
X4664468Y-15320174D01*
X4664468Y-15320174D02*
X4673992Y-15339222D01*
X4673992Y-15339222D02*
X4673992Y-15358269D01*
X4673992Y-15358269D02*
X4578753Y-15377317D01*
X4750182Y-15434460D02*
X4769230Y-15443984D01*
X4769230Y-15443984D02*
X4807325Y-15443984D01*
X4807325Y-15443984D02*
X4826373Y-15434460D01*
X4826373Y-15434460D02*
X4835896Y-15415412D01*
X4835896Y-15415412D02*
X4835896Y-15405888D01*
X4835896Y-15405888D02*
X4826373Y-15386841D01*
X4826373Y-15386841D02*
X4807325Y-15377317D01*
X4807325Y-15377317D02*
X4778753Y-15377317D01*
X4778753Y-15377317D02*
X4759706Y-15367793D01*
X4759706Y-15367793D02*
X4750182Y-15348746D01*
X4750182Y-15348746D02*
X4750182Y-15339222D01*
X4750182Y-15339222D02*
X4759706Y-15320174D01*
X4759706Y-15320174D02*
X4778753Y-15310650D01*
X4778753Y-15310650D02*
X4807325Y-15310650D01*
X4807325Y-15310650D02*
X4826373Y-15320174D01*
X4902563Y-15520174D02*
X4912087Y-15510650D01*
X4912087Y-15510650D02*
X4931134Y-15482079D01*
X4931134Y-15482079D02*
X4940658Y-15463031D01*
X4940658Y-15463031D02*
X4950182Y-15434460D01*
X4950182Y-15434460D02*
X4959706Y-15386841D01*
X4959706Y-15386841D02*
X4959706Y-15348746D01*
X4959706Y-15348746D02*
X4950182Y-15301127D01*
X4950182Y-15301127D02*
X4940658Y-15272555D01*
X4940658Y-15272555D02*
X4931134Y-15253508D01*
X4931134Y-15253508D02*
X4912087Y-15224936D01*
X4912087Y-15224936D02*
X4902563Y-15215412D01*
X5264468Y-15520174D02*
X5254944Y-15510650D01*
X5254944Y-15510650D02*
X5235896Y-15482079D01*
X5235896Y-15482079D02*
X5226373Y-15463031D01*
X5226373Y-15463031D02*
X5216849Y-15434460D01*
X5216849Y-15434460D02*
X5207325Y-15386841D01*
X5207325Y-15386841D02*
X5207325Y-15348746D01*
X5207325Y-15348746D02*
X5216849Y-15301127D01*
X5216849Y-15301127D02*
X5226373Y-15272555D01*
X5226373Y-15272555D02*
X5235896Y-15253508D01*
X5235896Y-15253508D02*
X5254944Y-15224936D01*
X5254944Y-15224936D02*
X5264468Y-15215412D01*
X5340658Y-15310650D02*
X5340658Y-15443984D01*
X5340658Y-15329698D02*
X5350182Y-15320174D01*
X5350182Y-15320174D02*
X5369230Y-15310650D01*
X5369230Y-15310650D02*
X5397801Y-15310650D01*
X5397801Y-15310650D02*
X5416849Y-15320174D01*
X5416849Y-15320174D02*
X5426373Y-15339222D01*
X5426373Y-15339222D02*
X5426373Y-15443984D01*
X5550182Y-15443984D02*
X5531134Y-15434460D01*
X5531134Y-15434460D02*
X5521611Y-15424936D01*
X5521611Y-15424936D02*
X5512087Y-15405888D01*
X5512087Y-15405888D02*
X5512087Y-15348746D01*
X5512087Y-15348746D02*
X5521611Y-15329698D01*
X5521611Y-15329698D02*
X5531134Y-15320174D01*
X5531134Y-15320174D02*
X5550182Y-15310650D01*
X5550182Y-15310650D02*
X5578754Y-15310650D01*
X5578754Y-15310650D02*
X5597801Y-15320174D01*
X5597801Y-15320174D02*
X5607325Y-15329698D01*
X5607325Y-15329698D02*
X5616849Y-15348746D01*
X5616849Y-15348746D02*
X5616849Y-15405888D01*
X5616849Y-15405888D02*
X5607325Y-15424936D01*
X5607325Y-15424936D02*
X5597801Y-15434460D01*
X5597801Y-15434460D02*
X5578754Y-15443984D01*
X5578754Y-15443984D02*
X5550182Y-15443984D01*
X5673992Y-15310650D02*
X5750182Y-15310650D01*
X5702563Y-15243984D02*
X5702563Y-15415412D01*
X5702563Y-15415412D02*
X5712087Y-15434460D01*
X5712087Y-15434460D02*
X5731134Y-15443984D01*
X5731134Y-15443984D02*
X5750182Y-15443984D01*
X5969230Y-15310650D02*
X5969230Y-15510650D01*
X5969230Y-15320174D02*
X5988277Y-15310650D01*
X5988277Y-15310650D02*
X6026373Y-15310650D01*
X6026373Y-15310650D02*
X6045420Y-15320174D01*
X6045420Y-15320174D02*
X6054944Y-15329698D01*
X6054944Y-15329698D02*
X6064468Y-15348746D01*
X6064468Y-15348746D02*
X6064468Y-15405888D01*
X6064468Y-15405888D02*
X6054944Y-15424936D01*
X6054944Y-15424936D02*
X6045420Y-15434460D01*
X6045420Y-15434460D02*
X6026373Y-15443984D01*
X6026373Y-15443984D02*
X5988277Y-15443984D01*
X5988277Y-15443984D02*
X5969230Y-15434460D01*
X6178753Y-15443984D02*
X6159706Y-15434460D01*
X6159706Y-15434460D02*
X6150182Y-15415412D01*
X6150182Y-15415412D02*
X6150182Y-15243984D01*
X6340658Y-15443984D02*
X6340658Y-15339222D01*
X6340658Y-15339222D02*
X6331134Y-15320174D01*
X6331134Y-15320174D02*
X6312087Y-15310650D01*
X6312087Y-15310650D02*
X6273992Y-15310650D01*
X6273992Y-15310650D02*
X6254944Y-15320174D01*
X6340658Y-15434460D02*
X6321611Y-15443984D01*
X6321611Y-15443984D02*
X6273992Y-15443984D01*
X6273992Y-15443984D02*
X6254944Y-15434460D01*
X6254944Y-15434460D02*
X6245420Y-15415412D01*
X6245420Y-15415412D02*
X6245420Y-15396365D01*
X6245420Y-15396365D02*
X6254944Y-15377317D01*
X6254944Y-15377317D02*
X6273992Y-15367793D01*
X6273992Y-15367793D02*
X6321611Y-15367793D01*
X6321611Y-15367793D02*
X6340658Y-15358269D01*
X6407325Y-15310650D02*
X6483515Y-15310650D01*
X6435896Y-15243984D02*
X6435896Y-15415412D01*
X6435896Y-15415412D02*
X6445420Y-15434460D01*
X6445420Y-15434460D02*
X6464468Y-15443984D01*
X6464468Y-15443984D02*
X6483515Y-15443984D01*
X6626373Y-15434460D02*
X6607325Y-15443984D01*
X6607325Y-15443984D02*
X6569230Y-15443984D01*
X6569230Y-15443984D02*
X6550182Y-15434460D01*
X6550182Y-15434460D02*
X6540658Y-15415412D01*
X6540658Y-15415412D02*
X6540658Y-15339222D01*
X6540658Y-15339222D02*
X6550182Y-15320174D01*
X6550182Y-15320174D02*
X6569230Y-15310650D01*
X6569230Y-15310650D02*
X6607325Y-15310650D01*
X6607325Y-15310650D02*
X6626373Y-15320174D01*
X6626373Y-15320174D02*
X6635896Y-15339222D01*
X6635896Y-15339222D02*
X6635896Y-15358269D01*
X6635896Y-15358269D02*
X6540658Y-15377317D01*
X6807325Y-15443984D02*
X6807325Y-15243984D01*
X6807325Y-15434460D02*
X6788277Y-15443984D01*
X6788277Y-15443984D02*
X6750182Y-15443984D01*
X6750182Y-15443984D02*
X6731134Y-15434460D01*
X6731134Y-15434460D02*
X6721611Y-15424936D01*
X6721611Y-15424936D02*
X6712087Y-15405888D01*
X6712087Y-15405888D02*
X6712087Y-15348746D01*
X6712087Y-15348746D02*
X6721611Y-15329698D01*
X6721611Y-15329698D02*
X6731134Y-15320174D01*
X6731134Y-15320174D02*
X6750182Y-15310650D01*
X6750182Y-15310650D02*
X6788277Y-15310650D01*
X6788277Y-15310650D02*
X6807325Y-15320174D01*
X6883515Y-15520174D02*
X6893039Y-15510650D01*
X6893039Y-15510650D02*
X6912087Y-15482079D01*
X6912087Y-15482079D02*
X6921611Y-15463031D01*
X6921611Y-15463031D02*
X6931134Y-15434460D01*
X6931134Y-15434460D02*
X6940658Y-15386841D01*
X6940658Y-15386841D02*
X6940658Y-15348746D01*
X6940658Y-15348746D02*
X6931134Y-15301127D01*
X6931134Y-15301127D02*
X6921611Y-15272555D01*
X6921611Y-15272555D02*
X6912087Y-15253508D01*
X6912087Y-15253508D02*
X6893039Y-15224936D01*
X6893039Y-15224936D02*
X6883515Y-15215412D01*
M02*
