%TF.GenerationSoftware,KiCad,Pcbnew,9.0.0*%
%TF.CreationDate,2025-03-27T10:42:41+01:00*%
%TF.ProjectId,Cabletester_CB_Fakra,4361626c-6574-4657-9374-65725f43425f,rev?*%
%TF.SameCoordinates,PX2160ec0PY280de80*%
%TF.FileFunction,Drillmap*%
%TF.FilePolarity,Positive*%
%FSLAX45Y45*%
G04 Gerber Fmt 4.5, Leading zero omitted, Abs format (unit mm)*
G04 Created by KiCad (PCBNEW 9.0.0) date 2025-03-27 10:42:41*
%MOMM*%
%LPD*%
G01*
G04 APERTURE LIST*
%ADD10C,0.050000*%
%ADD11C,0.200000*%
%ADD12C,0.100000*%
%ADD13C,0.110000*%
%ADD14C,0.145000*%
%ADD15C,0.150000*%
%ADD16C,0.165000*%
%ADD17C,0.175000*%
%ADD18C,0.220000*%
%ADD19C,0.330000*%
G04 APERTURE END LIST*
D10*
X380500Y-1340500D02*
X11140421Y-1340583D01*
X11140417Y-12241500D02*
X380500Y-12241500D01*
X11208417Y-1408580D02*
X11208417Y-12173420D01*
X312500Y-1408500D02*
G75*
G02*
X380500Y-1340500I68000J0D01*
G01*
X312500Y-12173500D02*
X312500Y-1408500D01*
X380500Y-12241500D02*
G75*
G02*
X312500Y-12173500I0J68000D01*
G01*
X11140421Y-1340583D02*
G75*
G02*
X11208417Y-1408580I-1J-67997D01*
G01*
X11208417Y-12173420D02*
G75*
G02*
X11140417Y-12241417I-67997J0D01*
G01*
D11*
D12*
X669500Y-1601500D02*
X699500Y-1631500D01*
X699500Y-1601500D02*
X669500Y-1631500D01*
X669500Y-1901500D02*
X699500Y-1931500D01*
X699500Y-1901500D02*
X669500Y-1931500D01*
X669500Y-2201500D02*
X699500Y-2231500D01*
X699500Y-2201500D02*
X669500Y-2231500D01*
X879500Y-3351500D02*
X909500Y-3381500D01*
X909500Y-3351500D02*
X879500Y-3381500D01*
X879500Y-3651500D02*
X909500Y-3681500D01*
X909500Y-3651500D02*
X879500Y-3681500D01*
X879500Y-3951500D02*
X909500Y-3981500D01*
X909500Y-3951500D02*
X879500Y-3981500D01*
X879500Y-4251500D02*
X909500Y-4281500D01*
X909500Y-4251500D02*
X879500Y-4281500D01*
X879500Y-4551500D02*
X909500Y-4581500D01*
X909500Y-4551500D02*
X879500Y-4581500D01*
X879500Y-4851500D02*
X909500Y-4881500D01*
X909500Y-4851500D02*
X879500Y-4881500D01*
X879500Y-5151500D02*
X909500Y-5181500D01*
X909500Y-5151500D02*
X879500Y-5181500D01*
X879500Y-5451500D02*
X909500Y-5481500D01*
X909500Y-5451500D02*
X879500Y-5481500D01*
X879500Y-5751500D02*
X909500Y-5781500D01*
X909500Y-5751500D02*
X879500Y-5781500D01*
X879500Y-6051500D02*
X909500Y-6081500D01*
X909500Y-6051500D02*
X879500Y-6081500D01*
X879500Y-6351500D02*
X909500Y-6381500D01*
X909500Y-6351500D02*
X879500Y-6381500D01*
X879500Y-6651500D02*
X909500Y-6681500D01*
X909500Y-6651500D02*
X879500Y-6681500D01*
X879500Y-6951500D02*
X909500Y-6981500D01*
X909500Y-6951500D02*
X879500Y-6981500D01*
X879500Y-7251500D02*
X909500Y-7281500D01*
X909500Y-7251500D02*
X879500Y-7281500D01*
X879500Y-7551500D02*
X909500Y-7581500D01*
X909500Y-7551500D02*
X879500Y-7581500D01*
X879500Y-7851500D02*
X909500Y-7881500D01*
X909500Y-7851500D02*
X879500Y-7881500D01*
X879500Y-8151500D02*
X909500Y-8181500D01*
X909500Y-8151500D02*
X879500Y-8181500D01*
X879500Y-8451500D02*
X909500Y-8481500D01*
X909500Y-8451500D02*
X879500Y-8481500D01*
X879500Y-8751500D02*
X909500Y-8781500D01*
X909500Y-8751500D02*
X879500Y-8781500D01*
X879500Y-9051500D02*
X909500Y-9081500D01*
X909500Y-9051500D02*
X879500Y-9081500D01*
X879500Y-9351500D02*
X909500Y-9381500D01*
X909500Y-9351500D02*
X879500Y-9381500D01*
X879500Y-9651500D02*
X909500Y-9681500D01*
X909500Y-9651500D02*
X879500Y-9681500D01*
X879500Y-9951500D02*
X909500Y-9981500D01*
X909500Y-9951500D02*
X879500Y-9981500D01*
X1939500Y-11431500D02*
X1969500Y-11461500D01*
X1969500Y-11431500D02*
X1939500Y-11461500D01*
X1939500Y-11731500D02*
X1969500Y-11761500D01*
X1969500Y-11731500D02*
X1939500Y-11761500D01*
X1939500Y-12031500D02*
X1969500Y-12061500D01*
X1969500Y-12031500D02*
X1939500Y-12061500D01*
X2069500Y-1601500D02*
X2099500Y-1631500D01*
X2099500Y-1601500D02*
X2069500Y-1631500D01*
X2069500Y-1901500D02*
X2099500Y-1931500D01*
X2099500Y-1901500D02*
X2069500Y-1931500D01*
X2069500Y-2201500D02*
X2099500Y-2231500D01*
X2099500Y-2201500D02*
X2069500Y-2231500D01*
X2304500Y-4283500D02*
X2334500Y-4313500D01*
X2334500Y-4283500D02*
X2304500Y-4313500D01*
X2327500Y-7745500D02*
X2357500Y-7775500D01*
X2357500Y-7745500D02*
X2327500Y-7775500D01*
X2519500Y-2691500D02*
X2549500Y-2721500D01*
X2549500Y-2691500D02*
X2519500Y-2721500D01*
X2519500Y-2991500D02*
X2549500Y-3021500D01*
X2549500Y-2991500D02*
X2519500Y-3021500D01*
X2519500Y-3291500D02*
X2549500Y-3321500D01*
X2549500Y-3291500D02*
X2519500Y-3321500D01*
X2519500Y-3591500D02*
X2549500Y-3621500D01*
X2549500Y-3591500D02*
X2519500Y-3621500D01*
X2519500Y-3891500D02*
X2549500Y-3921500D01*
X2549500Y-3891500D02*
X2519500Y-3921500D01*
X2519500Y-4191500D02*
X2549500Y-4221500D01*
X2549500Y-4191500D02*
X2519500Y-4221500D01*
X2616500Y-7884000D02*
X2646500Y-7914000D01*
X2646500Y-7884000D02*
X2616500Y-7914000D01*
X2708500Y-4421500D02*
X2738500Y-4451500D01*
X2738500Y-4421500D02*
X2708500Y-4451500D01*
X2859500Y-8101500D02*
X2889500Y-8131500D01*
X2889500Y-8101500D02*
X2859500Y-8131500D01*
X2859500Y-8401500D02*
X2889500Y-8431500D01*
X2889500Y-8401500D02*
X2859500Y-8431500D01*
X2859500Y-8701500D02*
X2889500Y-8731500D01*
X2889500Y-8701500D02*
X2859500Y-8731500D01*
X2859500Y-9001500D02*
X2889500Y-9031500D01*
X2889500Y-9001500D02*
X2859500Y-9031500D01*
X2859500Y-9301500D02*
X2889500Y-9331500D01*
X2889500Y-9301500D02*
X2859500Y-9331500D01*
X2859500Y-9601500D02*
X2889500Y-9631500D01*
X2889500Y-9601500D02*
X2859500Y-9631500D01*
X2859500Y-9901500D02*
X2889500Y-9931500D01*
X2889500Y-9901500D02*
X2859500Y-9931500D01*
X2859500Y-10201500D02*
X2889500Y-10231500D01*
X2889500Y-10201500D02*
X2859500Y-10231500D01*
X2859500Y-10501500D02*
X2889500Y-10531500D01*
X2889500Y-10501500D02*
X2859500Y-10531500D01*
X2859500Y-10801500D02*
X2889500Y-10831500D01*
X2889500Y-10801500D02*
X2859500Y-10831500D01*
X2889500Y-2861500D02*
X2919500Y-2891500D01*
X2919500Y-2861500D02*
X2889500Y-2891500D01*
X2889500Y-3161500D02*
X2919500Y-3191500D01*
X2919500Y-3161500D02*
X2889500Y-3191500D01*
X2889500Y-3461500D02*
X2919500Y-3491500D01*
X2919500Y-3461500D02*
X2889500Y-3491500D01*
X2889500Y-3761500D02*
X2919500Y-3791500D01*
X2919500Y-3761500D02*
X2889500Y-3791500D01*
X2889500Y-4061500D02*
X2919500Y-4091500D01*
X2919500Y-4061500D02*
X2889500Y-4091500D01*
X2889500Y-4361500D02*
X2919500Y-4391500D01*
X2919500Y-4361500D02*
X2889500Y-4391500D01*
X2985000Y-6222500D02*
X3015000Y-6252500D01*
X3015000Y-6222500D02*
X2985000Y-6252500D01*
X3079500Y-8101500D02*
X3109500Y-8131500D01*
X3109500Y-8101500D02*
X3079500Y-8131500D01*
X3079500Y-8401500D02*
X3109500Y-8431500D01*
X3109500Y-8401500D02*
X3079500Y-8431500D01*
X3079500Y-8701500D02*
X3109500Y-8731500D01*
X3109500Y-8701500D02*
X3079500Y-8731500D01*
X3079500Y-9001500D02*
X3109500Y-9031500D01*
X3109500Y-9001500D02*
X3079500Y-9031500D01*
X3079500Y-9301500D02*
X3109500Y-9331500D01*
X3109500Y-9301500D02*
X3079500Y-9331500D01*
X3079500Y-9601500D02*
X3109500Y-9631500D01*
X3109500Y-9601500D02*
X3079500Y-9631500D01*
X3079500Y-9901500D02*
X3109500Y-9931500D01*
X3109500Y-9901500D02*
X3079500Y-9931500D01*
X3079500Y-10201500D02*
X3109500Y-10231500D01*
X3109500Y-10201500D02*
X3079500Y-10231500D01*
X3079500Y-10501500D02*
X3109500Y-10531500D01*
X3109500Y-10501500D02*
X3079500Y-10531500D01*
X3079500Y-10801500D02*
X3109500Y-10831500D01*
X3109500Y-10801500D02*
X3079500Y-10831500D01*
X3089500Y-2861500D02*
X3119500Y-2891500D01*
X3119500Y-2861500D02*
X3089500Y-2891500D01*
X3089500Y-3161500D02*
X3119500Y-3191500D01*
X3119500Y-3161500D02*
X3089500Y-3191500D01*
X3089500Y-3461500D02*
X3119500Y-3491500D01*
X3119500Y-3461500D02*
X3089500Y-3491500D01*
X3089500Y-3761500D02*
X3119500Y-3791500D01*
X3119500Y-3761500D02*
X3089500Y-3791500D01*
X3089500Y-4061500D02*
X3119500Y-4091500D01*
X3119500Y-4061500D02*
X3089500Y-4091500D01*
X3089500Y-4361500D02*
X3119500Y-4391500D01*
X3119500Y-4361500D02*
X3089500Y-4391500D01*
X3259500Y-11431500D02*
X3289500Y-11461500D01*
X3289500Y-11431500D02*
X3259500Y-11461500D01*
X3259500Y-11731500D02*
X3289500Y-11761500D01*
X3289500Y-11731500D02*
X3259500Y-11761500D01*
X3259500Y-12031500D02*
X3289500Y-12061500D01*
X3289500Y-12031500D02*
X3259500Y-12061500D01*
X3319500Y-8111500D02*
X3349500Y-8141500D01*
X3349500Y-8111500D02*
X3319500Y-8141500D01*
X3319500Y-8411500D02*
X3349500Y-8441500D01*
X3349500Y-8411500D02*
X3319500Y-8441500D01*
X3319500Y-8711500D02*
X3349500Y-8741500D01*
X3349500Y-8711500D02*
X3319500Y-8741500D01*
X3319500Y-9011500D02*
X3349500Y-9041500D01*
X3349500Y-9011500D02*
X3319500Y-9041500D01*
X3319500Y-9311500D02*
X3349500Y-9341500D01*
X3349500Y-9311500D02*
X3319500Y-9341500D01*
X3319500Y-9611500D02*
X3349500Y-9641500D01*
X3349500Y-9611500D02*
X3319500Y-9641500D01*
X3319500Y-9911500D02*
X3349500Y-9941500D01*
X3349500Y-9911500D02*
X3319500Y-9941500D01*
X3319500Y-10211500D02*
X3349500Y-10241500D01*
X3349500Y-10211500D02*
X3319500Y-10241500D01*
X3319500Y-10511500D02*
X3349500Y-10541500D01*
X3349500Y-10511500D02*
X3319500Y-10541500D01*
X3319500Y-10811500D02*
X3349500Y-10841500D01*
X3349500Y-10811500D02*
X3319500Y-10841500D01*
X3359500Y-1601500D02*
X3389500Y-1631500D01*
X3389500Y-1601500D02*
X3359500Y-1631500D01*
X3359500Y-1901500D02*
X3389500Y-1931500D01*
X3389500Y-1901500D02*
X3359500Y-1931500D01*
X3359500Y-2201500D02*
X3389500Y-2231500D01*
X3389500Y-2201500D02*
X3359500Y-2231500D01*
X3539500Y-8111500D02*
X3569500Y-8141500D01*
X3569500Y-8111500D02*
X3539500Y-8141500D01*
X3539500Y-8411500D02*
X3569500Y-8441500D01*
X3569500Y-8411500D02*
X3539500Y-8441500D01*
X3539500Y-8711500D02*
X3569500Y-8741500D01*
X3569500Y-8711500D02*
X3539500Y-8741500D01*
X3539500Y-9011500D02*
X3569500Y-9041500D01*
X3569500Y-9011500D02*
X3539500Y-9041500D01*
X3539500Y-9311500D02*
X3569500Y-9341500D01*
X3569500Y-9311500D02*
X3539500Y-9341500D01*
X3539500Y-9611500D02*
X3569500Y-9641500D01*
X3569500Y-9611500D02*
X3539500Y-9641500D01*
X3539500Y-9911500D02*
X3569500Y-9941500D01*
X3569500Y-9911500D02*
X3539500Y-9941500D01*
X3539500Y-10211500D02*
X3569500Y-10241500D01*
X3569500Y-10211500D02*
X3539500Y-10241500D01*
X3539500Y-10511500D02*
X3569500Y-10541500D01*
X3569500Y-10511500D02*
X3539500Y-10541500D01*
X3539500Y-10811500D02*
X3569500Y-10841500D01*
X3569500Y-10811500D02*
X3539500Y-10841500D01*
X3639500Y-2781500D02*
X3669500Y-2811500D01*
X3669500Y-2781500D02*
X3639500Y-2811500D01*
X3639500Y-3081500D02*
X3669500Y-3111500D01*
X3669500Y-3081500D02*
X3639500Y-3111500D01*
X3639500Y-3381500D02*
X3669500Y-3411500D01*
X3669500Y-3381500D02*
X3639500Y-3411500D01*
X3639500Y-3681500D02*
X3669500Y-3711500D01*
X3669500Y-3681500D02*
X3639500Y-3711500D01*
X3639500Y-3981500D02*
X3669500Y-4011500D01*
X3669500Y-3981500D02*
X3639500Y-4011500D01*
X3639500Y-4281500D02*
X3669500Y-4311500D01*
X3669500Y-4281500D02*
X3639500Y-4311500D01*
X3839500Y-2781500D02*
X3869500Y-2811500D01*
X3869500Y-2781500D02*
X3839500Y-2811500D01*
X3839500Y-3081500D02*
X3869500Y-3111500D01*
X3869500Y-3081500D02*
X3839500Y-3111500D01*
X3839500Y-3381500D02*
X3869500Y-3411500D01*
X3869500Y-3381500D02*
X3839500Y-3411500D01*
X3839500Y-3681500D02*
X3869500Y-3711500D01*
X3869500Y-3681500D02*
X3839500Y-3711500D01*
X3839500Y-3981500D02*
X3869500Y-4011500D01*
X3869500Y-3981500D02*
X3839500Y-4011500D01*
X3839500Y-4281500D02*
X3869500Y-4311500D01*
X3869500Y-4281500D02*
X3839500Y-4311500D01*
X3916500Y-8022500D02*
X3946500Y-8052500D01*
X3946500Y-8022500D02*
X3916500Y-8052500D01*
X3993500Y-4559500D02*
X4023500Y-4589500D01*
X4023500Y-4559500D02*
X3993500Y-4589500D01*
X4159500Y-2841500D02*
X4189500Y-2871500D01*
X4189500Y-2841500D02*
X4159500Y-2871500D01*
X4159500Y-3141500D02*
X4189500Y-3171500D01*
X4189500Y-3141500D02*
X4159500Y-3171500D01*
X4159500Y-3441500D02*
X4189500Y-3471500D01*
X4189500Y-3441500D02*
X4159500Y-3471500D01*
X4159500Y-3741500D02*
X4189500Y-3771500D01*
X4189500Y-3741500D02*
X4159500Y-3771500D01*
X4159500Y-4041500D02*
X4189500Y-4071500D01*
X4189500Y-4041500D02*
X4159500Y-4071500D01*
X4159500Y-4341500D02*
X4189500Y-4371500D01*
X4189500Y-4341500D02*
X4159500Y-4371500D01*
X4159500Y-8162500D02*
X4189500Y-8192500D01*
X4189500Y-8162500D02*
X4159500Y-8192500D01*
X4159500Y-8451500D02*
X4189500Y-8481500D01*
X4189500Y-8451500D02*
X4159500Y-8481500D01*
X4159500Y-8751500D02*
X4189500Y-8781500D01*
X4189500Y-8751500D02*
X4159500Y-8781500D01*
X4159500Y-9051500D02*
X4189500Y-9081500D01*
X4189500Y-9051500D02*
X4159500Y-9081500D01*
X4159500Y-9351500D02*
X4189500Y-9381500D01*
X4189500Y-9351500D02*
X4159500Y-9381500D01*
X4159500Y-9651500D02*
X4189500Y-9681500D01*
X4189500Y-9651500D02*
X4159500Y-9681500D01*
X4159500Y-9951500D02*
X4189500Y-9981500D01*
X4189500Y-9951500D02*
X4159500Y-9981500D01*
X4159500Y-10251500D02*
X4189500Y-10281500D01*
X4189500Y-10251500D02*
X4159500Y-10281500D01*
X4159500Y-10551500D02*
X4189500Y-10581500D01*
X4189500Y-10551500D02*
X4159500Y-10581500D01*
X4159500Y-10851500D02*
X4189500Y-10881500D01*
X4189500Y-10851500D02*
X4159500Y-10881500D01*
X4359500Y-2841500D02*
X4389500Y-2871500D01*
X4389500Y-2841500D02*
X4359500Y-2871500D01*
X4359500Y-3141500D02*
X4389500Y-3171500D01*
X4389500Y-3141500D02*
X4359500Y-3171500D01*
X4359500Y-3441500D02*
X4389500Y-3471500D01*
X4389500Y-3441500D02*
X4359500Y-3471500D01*
X4359500Y-3741500D02*
X4389500Y-3771500D01*
X4389500Y-3741500D02*
X4359500Y-3771500D01*
X4359500Y-4041500D02*
X4389500Y-4071500D01*
X4389500Y-4041500D02*
X4359500Y-4071500D01*
X4359500Y-4341500D02*
X4389500Y-4371500D01*
X4389500Y-4341500D02*
X4359500Y-4371500D01*
X4389500Y-8161500D02*
X4419500Y-8191500D01*
X4419500Y-8161500D02*
X4389500Y-8191500D01*
X4389500Y-8461500D02*
X4419500Y-8491500D01*
X4419500Y-8461500D02*
X4389500Y-8491500D01*
X4389500Y-8761500D02*
X4419500Y-8791500D01*
X4419500Y-8761500D02*
X4389500Y-8791500D01*
X4389500Y-9061500D02*
X4419500Y-9091500D01*
X4419500Y-9061500D02*
X4389500Y-9091500D01*
X4389500Y-9361500D02*
X4419500Y-9391500D01*
X4419500Y-9361500D02*
X4389500Y-9391500D01*
X4389500Y-9661500D02*
X4419500Y-9691500D01*
X4419500Y-9661500D02*
X4389500Y-9691500D01*
X4389500Y-9961500D02*
X4419500Y-9991500D01*
X4419500Y-9961500D02*
X4389500Y-9991500D01*
X4389500Y-10261500D02*
X4419500Y-10291500D01*
X4419500Y-10261500D02*
X4389500Y-10291500D01*
X4389500Y-10561500D02*
X4419500Y-10591500D01*
X4419500Y-10561500D02*
X4389500Y-10591500D01*
X4389500Y-10861500D02*
X4419500Y-10891500D01*
X4419500Y-10861500D02*
X4389500Y-10891500D01*
X4539500Y-11431500D02*
X4569500Y-11461500D01*
X4569500Y-11431500D02*
X4539500Y-11461500D01*
X4539500Y-11731500D02*
X4569500Y-11761500D01*
X4569500Y-11731500D02*
X4539500Y-11761500D01*
X4539500Y-12031500D02*
X4569500Y-12061500D01*
X4569500Y-12031500D02*
X4539500Y-12061500D01*
X4619500Y-8161500D02*
X4649500Y-8191500D01*
X4649500Y-8161500D02*
X4619500Y-8191500D01*
X4619500Y-8461500D02*
X4649500Y-8491500D01*
X4649500Y-8461500D02*
X4619500Y-8491500D01*
X4619500Y-8761500D02*
X4649500Y-8791500D01*
X4649500Y-8761500D02*
X4619500Y-8791500D01*
X4619500Y-9061500D02*
X4649500Y-9091500D01*
X4649500Y-9061500D02*
X4619500Y-9091500D01*
X4619500Y-9361500D02*
X4649500Y-9391500D01*
X4649500Y-9361500D02*
X4619500Y-9391500D01*
X4619500Y-9661500D02*
X4649500Y-9691500D01*
X4649500Y-9661500D02*
X4619500Y-9691500D01*
X4619500Y-9961500D02*
X4649500Y-9991500D01*
X4649500Y-9961500D02*
X4619500Y-9991500D01*
X4619500Y-10261500D02*
X4649500Y-10291500D01*
X4649500Y-10261500D02*
X4619500Y-10291500D01*
X4619500Y-10561500D02*
X4649500Y-10591500D01*
X4649500Y-10561500D02*
X4619500Y-10591500D01*
X4619500Y-10861500D02*
X4649500Y-10891500D01*
X4649500Y-10861500D02*
X4619500Y-10891500D01*
X4659500Y-1591500D02*
X4689500Y-1621500D01*
X4689500Y-1591500D02*
X4659500Y-1621500D01*
X4659500Y-1891500D02*
X4689500Y-1921500D01*
X4689500Y-1891500D02*
X4659500Y-1921500D01*
X4659500Y-2191500D02*
X4689500Y-2221500D01*
X4689500Y-2191500D02*
X4659500Y-2221500D01*
X4785000Y-6084000D02*
X4815000Y-6114000D01*
X4815000Y-6084000D02*
X4785000Y-6114000D01*
X4839500Y-8161500D02*
X4869500Y-8191500D01*
X4869500Y-8161500D02*
X4839500Y-8191500D01*
X4839500Y-8461500D02*
X4869500Y-8491500D01*
X4869500Y-8461500D02*
X4839500Y-8491500D01*
X4839500Y-8761500D02*
X4869500Y-8791500D01*
X4869500Y-8761500D02*
X4839500Y-8791500D01*
X4839500Y-9061500D02*
X4869500Y-9091500D01*
X4869500Y-9061500D02*
X4839500Y-9091500D01*
X4839500Y-9361500D02*
X4869500Y-9391500D01*
X4869500Y-9361500D02*
X4839500Y-9391500D01*
X4839500Y-9661500D02*
X4869500Y-9691500D01*
X4869500Y-9661500D02*
X4839500Y-9691500D01*
X4839500Y-9961500D02*
X4869500Y-9991500D01*
X4869500Y-9961500D02*
X4839500Y-9991500D01*
X4839500Y-10261500D02*
X4869500Y-10291500D01*
X4869500Y-10261500D02*
X4839500Y-10291500D01*
X4839500Y-10561500D02*
X4869500Y-10591500D01*
X4869500Y-10561500D02*
X4839500Y-10591500D01*
X4839500Y-10861500D02*
X4869500Y-10891500D01*
X4869500Y-10861500D02*
X4839500Y-10891500D01*
X4869500Y-2841500D02*
X4899500Y-2871500D01*
X4899500Y-2841500D02*
X4869500Y-2871500D01*
X4869500Y-3141500D02*
X4899500Y-3171500D01*
X4899500Y-3141500D02*
X4869500Y-3171500D01*
X4869500Y-3441500D02*
X4899500Y-3471500D01*
X4899500Y-3441500D02*
X4869500Y-3471500D01*
X4869500Y-3741500D02*
X4899500Y-3771500D01*
X4899500Y-3741500D02*
X4869500Y-3771500D01*
X4869500Y-4041500D02*
X4899500Y-4071500D01*
X4899500Y-4041500D02*
X4869500Y-4071500D01*
X4869500Y-4341500D02*
X4899500Y-4371500D01*
X4899500Y-4341500D02*
X4869500Y-4371500D01*
X5069500Y-2841500D02*
X5099500Y-2871500D01*
X5099500Y-2841500D02*
X5069500Y-2871500D01*
X5069500Y-3141500D02*
X5099500Y-3171500D01*
X5099500Y-3141500D02*
X5069500Y-3171500D01*
X5069500Y-3441500D02*
X5099500Y-3471500D01*
X5099500Y-3441500D02*
X5069500Y-3471500D01*
X5069500Y-3741500D02*
X5099500Y-3771500D01*
X5099500Y-3741500D02*
X5069500Y-3771500D01*
X5069500Y-4041500D02*
X5099500Y-4071500D01*
X5099500Y-4041500D02*
X5069500Y-4071500D01*
X5069500Y-4341500D02*
X5099500Y-4371500D01*
X5099500Y-4341500D02*
X5069500Y-4371500D01*
X5216500Y-8161000D02*
X5246500Y-8191000D01*
X5246500Y-8161000D02*
X5216500Y-8191000D01*
X5305000Y-4699000D02*
X5335000Y-4729000D01*
X5335000Y-4699000D02*
X5305000Y-4729000D01*
X5469500Y-8381500D02*
X5499500Y-8411500D01*
X5499500Y-8381500D02*
X5469500Y-8411500D01*
X5469500Y-8681500D02*
X5499500Y-8711500D01*
X5499500Y-8681500D02*
X5469500Y-8711500D01*
X5469500Y-8981500D02*
X5499500Y-9011500D01*
X5499500Y-8981500D02*
X5469500Y-9011500D01*
X5469500Y-9281500D02*
X5499500Y-9311500D01*
X5499500Y-9281500D02*
X5469500Y-9311500D01*
X5469500Y-9581500D02*
X5499500Y-9611500D01*
X5499500Y-9581500D02*
X5469500Y-9611500D01*
X5469500Y-9881500D02*
X5499500Y-9911500D01*
X5499500Y-9881500D02*
X5469500Y-9911500D01*
X5469500Y-10181500D02*
X5499500Y-10211500D01*
X5499500Y-10181500D02*
X5469500Y-10211500D01*
X5469500Y-10481500D02*
X5499500Y-10511500D01*
X5499500Y-10481500D02*
X5469500Y-10511500D01*
X5469500Y-10781500D02*
X5499500Y-10811500D01*
X5499500Y-10781500D02*
X5469500Y-10811500D01*
X5469500Y-11081500D02*
X5499500Y-11111500D01*
X5499500Y-11081500D02*
X5469500Y-11111500D01*
X5769500Y-8371500D02*
X5799500Y-8401500D01*
X5799500Y-8371500D02*
X5769500Y-8401500D01*
X5769500Y-8671500D02*
X5799500Y-8701500D01*
X5799500Y-8671500D02*
X5769500Y-8701500D01*
X5769500Y-8971500D02*
X5799500Y-9001500D01*
X5799500Y-8971500D02*
X5769500Y-9001500D01*
X5769500Y-9271500D02*
X5799500Y-9301500D01*
X5799500Y-9271500D02*
X5769500Y-9301500D01*
X5769500Y-9571500D02*
X5799500Y-9601500D01*
X5799500Y-9571500D02*
X5769500Y-9601500D01*
X5769500Y-9871500D02*
X5799500Y-9901500D01*
X5799500Y-9871500D02*
X5769500Y-9901500D01*
X5769500Y-10171500D02*
X5799500Y-10201500D01*
X5799500Y-10171500D02*
X5769500Y-10201500D01*
X5769500Y-10471500D02*
X5799500Y-10501500D01*
X5799500Y-10471500D02*
X5769500Y-10501500D01*
X5769500Y-10771500D02*
X5799500Y-10801500D01*
X5799500Y-10771500D02*
X5769500Y-10801500D01*
X5769500Y-11071500D02*
X5799500Y-11101500D01*
X5799500Y-11071500D02*
X5769500Y-11101500D01*
X5809500Y-11431500D02*
X5839500Y-11461500D01*
X5839500Y-11431500D02*
X5809500Y-11461500D01*
X5809500Y-11731500D02*
X5839500Y-11761500D01*
X5839500Y-11731500D02*
X5809500Y-11761500D01*
X5809500Y-12031500D02*
X5839500Y-12061500D01*
X5839500Y-12031500D02*
X5809500Y-12061500D01*
X6049500Y-1621500D02*
X6079500Y-1651500D01*
X6079500Y-1621500D02*
X6049500Y-1651500D01*
X6049500Y-1921500D02*
X6079500Y-1951500D01*
X6079500Y-1921500D02*
X6049500Y-1951500D01*
X6049500Y-2221500D02*
X6079500Y-2251500D01*
X6079500Y-2221500D02*
X6049500Y-2251500D01*
X6059500Y-8371500D02*
X6089500Y-8401500D01*
X6089500Y-8371500D02*
X6059500Y-8401500D01*
X6059500Y-8671500D02*
X6089500Y-8701500D01*
X6089500Y-8671500D02*
X6059500Y-8701500D01*
X6059500Y-8971500D02*
X6089500Y-9001500D01*
X6089500Y-8971500D02*
X6059500Y-9001500D01*
X6059500Y-9271500D02*
X6089500Y-9301500D01*
X6089500Y-9271500D02*
X6059500Y-9301500D01*
X6059500Y-9571500D02*
X6089500Y-9601500D01*
X6089500Y-9571500D02*
X6059500Y-9601500D01*
X6059500Y-9871500D02*
X6089500Y-9901500D01*
X6089500Y-9871500D02*
X6059500Y-9901500D01*
X6059500Y-10171500D02*
X6089500Y-10201500D01*
X6089500Y-10171500D02*
X6059500Y-10201500D01*
X6059500Y-10471500D02*
X6089500Y-10501500D01*
X6089500Y-10471500D02*
X6059500Y-10501500D01*
X6059500Y-10771500D02*
X6089500Y-10801500D01*
X6089500Y-10771500D02*
X6059500Y-10801500D01*
X6059500Y-11071500D02*
X6089500Y-11101500D01*
X6089500Y-11071500D02*
X6059500Y-11101500D01*
X6319500Y-1621500D02*
X6349500Y-1651500D01*
X6349500Y-1621500D02*
X6319500Y-1651500D01*
X6319500Y-1921500D02*
X6349500Y-1951500D01*
X6349500Y-1921500D02*
X6319500Y-1951500D01*
X6319500Y-2221500D02*
X6349500Y-2251500D01*
X6349500Y-2221500D02*
X6319500Y-2251500D01*
X6395500Y-8299500D02*
X6425500Y-8329500D01*
X6425500Y-8299500D02*
X6395500Y-8329500D01*
X6585000Y-6083500D02*
X6615000Y-6113500D01*
X6615000Y-6083500D02*
X6585000Y-6113500D01*
X6589500Y-8561500D02*
X6619500Y-8591500D01*
X6619500Y-8561500D02*
X6589500Y-8591500D01*
X6589500Y-8861500D02*
X6619500Y-8891500D01*
X6619500Y-8861500D02*
X6589500Y-8891500D01*
X6589500Y-9161500D02*
X6619500Y-9191500D01*
X6619500Y-9161500D02*
X6589500Y-9191500D01*
X6589500Y-9461500D02*
X6619500Y-9491500D01*
X6619500Y-9461500D02*
X6589500Y-9491500D01*
X6589500Y-9761500D02*
X6619500Y-9791500D01*
X6619500Y-9761500D02*
X6589500Y-9791500D01*
X6589500Y-10061500D02*
X6619500Y-10091500D01*
X6619500Y-10061500D02*
X6589500Y-10091500D01*
X6589500Y-10361500D02*
X6619500Y-10391500D01*
X6619500Y-10361500D02*
X6589500Y-10391500D01*
X6589500Y-10661500D02*
X6619500Y-10691500D01*
X6619500Y-10661500D02*
X6589500Y-10691500D01*
X6589500Y-10961500D02*
X6619500Y-10991500D01*
X6619500Y-10961500D02*
X6589500Y-10991500D01*
X6589500Y-11261500D02*
X6619500Y-11291500D01*
X6619500Y-11261500D02*
X6589500Y-11291500D01*
X6795500Y-8438000D02*
X6825500Y-8468000D01*
X6825500Y-8438000D02*
X6795500Y-8468000D01*
X6957500Y-4837500D02*
X6987500Y-4867500D01*
X6987500Y-4837500D02*
X6957500Y-4867500D01*
X7029500Y-8571500D02*
X7059500Y-8601500D01*
X7059500Y-8571500D02*
X7029500Y-8601500D01*
X7029500Y-8871500D02*
X7059500Y-8901500D01*
X7059500Y-8871500D02*
X7029500Y-8901500D01*
X7029500Y-9171500D02*
X7059500Y-9201500D01*
X7059500Y-9171500D02*
X7029500Y-9201500D01*
X7029500Y-9471500D02*
X7059500Y-9501500D01*
X7059500Y-9471500D02*
X7029500Y-9501500D01*
X7029500Y-9771500D02*
X7059500Y-9801500D01*
X7059500Y-9771500D02*
X7029500Y-9801500D01*
X7029500Y-10071500D02*
X7059500Y-10101500D01*
X7059500Y-10071500D02*
X7029500Y-10101500D01*
X7029500Y-10371500D02*
X7059500Y-10401500D01*
X7059500Y-10371500D02*
X7029500Y-10401500D01*
X7029500Y-10671500D02*
X7059500Y-10701500D01*
X7059500Y-10671500D02*
X7029500Y-10701500D01*
X7029500Y-10971500D02*
X7059500Y-11001500D01*
X7059500Y-10971500D02*
X7029500Y-11001500D01*
X7169500Y-2861500D02*
X7199500Y-2891500D01*
X7199500Y-2861500D02*
X7169500Y-2891500D01*
X7169500Y-3161500D02*
X7199500Y-3191500D01*
X7199500Y-3161500D02*
X7169500Y-3191500D01*
X7169500Y-3461500D02*
X7199500Y-3491500D01*
X7199500Y-3461500D02*
X7169500Y-3491500D01*
X7169500Y-3761500D02*
X7199500Y-3791500D01*
X7199500Y-3761500D02*
X7169500Y-3791500D01*
X7169500Y-4061500D02*
X7199500Y-4091500D01*
X7199500Y-4061500D02*
X7169500Y-4091500D01*
X7169500Y-4361500D02*
X7199500Y-4391500D01*
X7199500Y-4361500D02*
X7169500Y-4391500D01*
X7169500Y-4661500D02*
X7199500Y-4691500D01*
X7199500Y-4661500D02*
X7169500Y-4691500D01*
X7349500Y-8671500D02*
X7379500Y-8701500D01*
X7379500Y-8671500D02*
X7349500Y-8701500D01*
X7349500Y-8971500D02*
X7379500Y-9001500D01*
X7379500Y-8971500D02*
X7349500Y-9001500D01*
X7349500Y-9271500D02*
X7379500Y-9301500D01*
X7379500Y-9271500D02*
X7349500Y-9301500D01*
X7349500Y-9571500D02*
X7379500Y-9601500D01*
X7379500Y-9571500D02*
X7349500Y-9601500D01*
X7349500Y-9871500D02*
X7379500Y-9901500D01*
X7379500Y-9871500D02*
X7349500Y-9901500D01*
X7349500Y-10171500D02*
X7379500Y-10201500D01*
X7379500Y-10171500D02*
X7349500Y-10201500D01*
X7349500Y-10471500D02*
X7379500Y-10501500D01*
X7379500Y-10471500D02*
X7349500Y-10501500D01*
X7349500Y-10771500D02*
X7379500Y-10801500D01*
X7379500Y-10771500D02*
X7349500Y-10801500D01*
X7349500Y-11071500D02*
X7379500Y-11101500D01*
X7379500Y-11071500D02*
X7349500Y-11101500D01*
X7369500Y-2861500D02*
X7399500Y-2891500D01*
X7399500Y-2861500D02*
X7369500Y-2891500D01*
X7369500Y-3161500D02*
X7399500Y-3191500D01*
X7399500Y-3161500D02*
X7369500Y-3191500D01*
X7369500Y-3461500D02*
X7399500Y-3491500D01*
X7399500Y-3461500D02*
X7369500Y-3491500D01*
X7369500Y-3761500D02*
X7399500Y-3791500D01*
X7399500Y-3761500D02*
X7369500Y-3791500D01*
X7369500Y-4061500D02*
X7399500Y-4091500D01*
X7399500Y-4061500D02*
X7369500Y-4091500D01*
X7369500Y-4361500D02*
X7399500Y-4391500D01*
X7399500Y-4361500D02*
X7369500Y-4391500D01*
X7369500Y-4661500D02*
X7399500Y-4691500D01*
X7399500Y-4661500D02*
X7369500Y-4691500D01*
X7489500Y-11451500D02*
X7519500Y-11481500D01*
X7519500Y-11451500D02*
X7489500Y-11481500D01*
X7489500Y-11751500D02*
X7519500Y-11781500D01*
X7519500Y-11751500D02*
X7489500Y-11781500D01*
X7489500Y-12051500D02*
X7519500Y-12081500D01*
X7519500Y-12051500D02*
X7489500Y-12081500D01*
X7639500Y-8571500D02*
X7669500Y-8601500D01*
X7669500Y-8571500D02*
X7639500Y-8601500D01*
X7639500Y-8871500D02*
X7669500Y-8901500D01*
X7669500Y-8871500D02*
X7639500Y-8901500D01*
X7639500Y-9171500D02*
X7669500Y-9201500D01*
X7669500Y-9171500D02*
X7639500Y-9201500D01*
X7639500Y-9471500D02*
X7669500Y-9501500D01*
X7669500Y-9471500D02*
X7639500Y-9501500D01*
X7639500Y-9771500D02*
X7669500Y-9801500D01*
X7669500Y-9771500D02*
X7639500Y-9801500D01*
X7639500Y-10071500D02*
X7669500Y-10101500D01*
X7669500Y-10071500D02*
X7639500Y-10101500D01*
X7639500Y-10371500D02*
X7669500Y-10401500D01*
X7669500Y-10371500D02*
X7639500Y-10401500D01*
X7639500Y-10671500D02*
X7669500Y-10701500D01*
X7669500Y-10671500D02*
X7639500Y-10701500D01*
X7639500Y-10971500D02*
X7669500Y-11001500D01*
X7669500Y-10971500D02*
X7639500Y-11001500D01*
X7757500Y-4976000D02*
X7787500Y-5006000D01*
X7787500Y-4976000D02*
X7757500Y-5006000D01*
X7919500Y-8701500D02*
X7949500Y-8731500D01*
X7949500Y-8701500D02*
X7919500Y-8731500D01*
X7919500Y-9001500D02*
X7949500Y-9031500D01*
X7949500Y-9001500D02*
X7919500Y-9031500D01*
X7919500Y-9301500D02*
X7949500Y-9331500D01*
X7949500Y-9301500D02*
X7919500Y-9331500D01*
X7919500Y-9601500D02*
X7949500Y-9631500D01*
X7949500Y-9601500D02*
X7919500Y-9631500D01*
X7919500Y-9901500D02*
X7949500Y-9931500D01*
X7949500Y-9901500D02*
X7919500Y-9931500D01*
X7919500Y-10201500D02*
X7949500Y-10231500D01*
X7949500Y-10201500D02*
X7919500Y-10231500D01*
X7919500Y-10501500D02*
X7949500Y-10531500D01*
X7949500Y-10501500D02*
X7919500Y-10531500D01*
X7919500Y-10801500D02*
X7949500Y-10831500D01*
X7949500Y-10801500D02*
X7919500Y-10831500D01*
X7919500Y-11101500D02*
X7949500Y-11131500D01*
X7949500Y-11101500D02*
X7919500Y-11131500D01*
X7959500Y-2861500D02*
X7989500Y-2891500D01*
X7989500Y-2861500D02*
X7959500Y-2891500D01*
X7959500Y-3161500D02*
X7989500Y-3191500D01*
X7989500Y-3161500D02*
X7959500Y-3191500D01*
X7959500Y-3461500D02*
X7989500Y-3491500D01*
X7989500Y-3461500D02*
X7959500Y-3491500D01*
X7959500Y-3761500D02*
X7989500Y-3791500D01*
X7989500Y-3761500D02*
X7959500Y-3791500D01*
X7959500Y-4061500D02*
X7989500Y-4091500D01*
X7989500Y-4061500D02*
X7959500Y-4091500D01*
X7959500Y-4361500D02*
X7989500Y-4391500D01*
X7989500Y-4361500D02*
X7959500Y-4391500D01*
X8139500Y-2861500D02*
X8169500Y-2891500D01*
X8169500Y-2861500D02*
X8139500Y-2891500D01*
X8139500Y-3161500D02*
X8169500Y-3191500D01*
X8169500Y-3161500D02*
X8139500Y-3191500D01*
X8139500Y-3461500D02*
X8169500Y-3491500D01*
X8169500Y-3461500D02*
X8139500Y-3491500D01*
X8139500Y-3761500D02*
X8169500Y-3791500D01*
X8169500Y-3761500D02*
X8139500Y-3791500D01*
X8139500Y-4061500D02*
X8169500Y-4091500D01*
X8169500Y-4061500D02*
X8139500Y-4091500D01*
X8139500Y-4361500D02*
X8169500Y-4391500D01*
X8169500Y-4361500D02*
X8139500Y-4391500D01*
X8207500Y-8576500D02*
X8237500Y-8606500D01*
X8237500Y-8576500D02*
X8207500Y-8606500D01*
X8385000Y-6222000D02*
X8415000Y-6252000D01*
X8415000Y-6222000D02*
X8385000Y-6252000D01*
X8429500Y-1621500D02*
X8459500Y-1651500D01*
X8459500Y-1621500D02*
X8429500Y-1651500D01*
X8429500Y-1921500D02*
X8459500Y-1951500D01*
X8459500Y-1921500D02*
X8429500Y-1951500D01*
X8429500Y-2221500D02*
X8459500Y-2251500D01*
X8459500Y-2221500D02*
X8429500Y-2251500D01*
X8607500Y-8715000D02*
X8637500Y-8745000D01*
X8637500Y-8715000D02*
X8607500Y-8745000D01*
X8669500Y-1621500D02*
X8699500Y-1651500D01*
X8699500Y-1621500D02*
X8669500Y-1651500D01*
X8669500Y-1921500D02*
X8699500Y-1951500D01*
X8699500Y-1921500D02*
X8669500Y-1951500D01*
X8669500Y-2221500D02*
X8699500Y-2251500D01*
X8699500Y-2221500D02*
X8669500Y-2251500D01*
X8719500Y-2861500D02*
X8749500Y-2891500D01*
X8749500Y-2861500D02*
X8719500Y-2891500D01*
X8719500Y-3161500D02*
X8749500Y-3191500D01*
X8749500Y-3161500D02*
X8719500Y-3191500D01*
X8719500Y-3461500D02*
X8749500Y-3491500D01*
X8749500Y-3461500D02*
X8719500Y-3491500D01*
X8719500Y-3761500D02*
X8749500Y-3791500D01*
X8749500Y-3761500D02*
X8719500Y-3791500D01*
X8719500Y-4061500D02*
X8749500Y-4091500D01*
X8749500Y-4061500D02*
X8719500Y-4091500D01*
X8719500Y-4361500D02*
X8749500Y-4391500D01*
X8749500Y-4361500D02*
X8719500Y-4391500D01*
X8882500Y-5114500D02*
X8912500Y-5144500D01*
X8912500Y-5114500D02*
X8882500Y-5144500D01*
X9157500Y-5253000D02*
X9187500Y-5283000D01*
X9187500Y-5253000D02*
X9157500Y-5283000D01*
X9237500Y-8992000D02*
X9267500Y-9022000D01*
X9267500Y-8992000D02*
X9237500Y-9022000D01*
X9237500Y-11779500D02*
X9267500Y-11809500D01*
X9267500Y-11779500D02*
X9237500Y-11809500D01*
X9329500Y-3551500D02*
X9359500Y-3581500D01*
X9359500Y-3551500D02*
X9329500Y-3581500D01*
X9329500Y-3851500D02*
X9359500Y-3881500D01*
X9359500Y-3851500D02*
X9329500Y-3881500D01*
X9329500Y-4151500D02*
X9359500Y-4181500D01*
X9359500Y-4151500D02*
X9329500Y-4181500D01*
X9329500Y-4451500D02*
X9359500Y-4481500D01*
X9359500Y-4451500D02*
X9329500Y-4481500D01*
X9329500Y-4751500D02*
X9359500Y-4781500D01*
X9359500Y-4751500D02*
X9329500Y-4781500D01*
X9329500Y-5051500D02*
X9359500Y-5081500D01*
X9359500Y-5051500D02*
X9329500Y-5081500D01*
X9337500Y-9269500D02*
X9367500Y-9299500D01*
X9367500Y-9269500D02*
X9337500Y-9299500D01*
X9337500Y-11379500D02*
X9367500Y-11409500D01*
X9367500Y-11379500D02*
X9337500Y-11409500D01*
X10329500Y-10541500D02*
X10359500Y-10571500D01*
X10359500Y-10541500D02*
X10329500Y-10571500D01*
X10329500Y-10841500D02*
X10359500Y-10871500D01*
X10359500Y-10841500D02*
X10329500Y-10871500D01*
X10619500Y-10741500D02*
X10649500Y-10771500D01*
X10649500Y-10741500D02*
X10619500Y-10771500D01*
X10839500Y-1621500D02*
X10869500Y-1651500D01*
X10869500Y-1621500D02*
X10839500Y-1651500D01*
X10839500Y-1921500D02*
X10869500Y-1951500D01*
X10869500Y-1921500D02*
X10839500Y-1951500D01*
X10839500Y-2221500D02*
X10869500Y-2251500D01*
X10869500Y-2221500D02*
X10839500Y-2251500D01*
X10887500Y-9130500D02*
X10917500Y-9160500D01*
X10917500Y-9130500D02*
X10887500Y-9160500D01*
X10887500Y-11779500D02*
X10917500Y-11809500D01*
X10917500Y-11779500D02*
X10887500Y-11809500D01*
X10987500Y-8853500D02*
X11017500Y-8883500D01*
X11017500Y-8853500D02*
X10987500Y-8883500D01*
X10987500Y-11379500D02*
X11017500Y-11409500D01*
X11017500Y-11379500D02*
X10987500Y-11409500D01*
X9983000Y-11394500D02*
G75*
G02*
X9908000Y-11394500I-37500J0D01*
G01*
X9908000Y-11394500D02*
G75*
G02*
X9983000Y-11394500I37500J0D01*
G01*
X9983000Y-11794500D02*
G75*
G02*
X9908000Y-11794500I-37500J0D01*
G01*
X9908000Y-11794500D02*
G75*
G02*
X9983000Y-11794500I37500J0D01*
G01*
X10383000Y-11394500D02*
G75*
G02*
X10308000Y-11394500I-37500J0D01*
G01*
X10308000Y-11394500D02*
G75*
G02*
X10383000Y-11394500I37500J0D01*
G01*
X10383000Y-11794500D02*
G75*
G02*
X10308000Y-11794500I-37500J0D01*
G01*
X10308000Y-11794500D02*
G75*
G02*
X10383000Y-11794500I37500J0D01*
G01*
X1300500Y-4387000D02*
X1300500Y-4487000D01*
X1250500Y-4437000D02*
X1350500Y-4437000D01*
X1300500Y-4664000D02*
X1300500Y-4764000D01*
X1250500Y-4714000D02*
X1350500Y-4714000D01*
X1300500Y-4941000D02*
X1300500Y-5041000D01*
X1250500Y-4991000D02*
X1350500Y-4991000D01*
X1300500Y-5218000D02*
X1300500Y-5318000D01*
X1250500Y-5268000D02*
X1350500Y-5268000D01*
X1300500Y-5495000D02*
X1300500Y-5595000D01*
X1250500Y-5545000D02*
X1350500Y-5545000D01*
X1300500Y-5772000D02*
X1300500Y-5872000D01*
X1250500Y-5822000D02*
X1350500Y-5822000D01*
X1300500Y-6049000D02*
X1300500Y-6149000D01*
X1250500Y-6099000D02*
X1350500Y-6099000D01*
X1300500Y-6326000D02*
X1300500Y-6426000D01*
X1250500Y-6376000D02*
X1350500Y-6376000D01*
X1300500Y-6603000D02*
X1300500Y-6703000D01*
X1250500Y-6653000D02*
X1350500Y-6653000D01*
X1300500Y-6880000D02*
X1300500Y-6980000D01*
X1250500Y-6930000D02*
X1350500Y-6930000D01*
X1300500Y-7157000D02*
X1300500Y-7257000D01*
X1250500Y-7207000D02*
X1350500Y-7207000D01*
X1300500Y-7434000D02*
X1300500Y-7534000D01*
X1250500Y-7484000D02*
X1350500Y-7484000D01*
X1300500Y-7711000D02*
X1300500Y-7811000D01*
X1250500Y-7761000D02*
X1350500Y-7761000D01*
X1300500Y-7988000D02*
X1300500Y-8088000D01*
X1250500Y-8038000D02*
X1350500Y-8038000D01*
X1300500Y-8265000D02*
X1300500Y-8365000D01*
X1250500Y-8315000D02*
X1350500Y-8315000D01*
X1300500Y-8542000D02*
X1300500Y-8642000D01*
X1250500Y-8592000D02*
X1350500Y-8592000D01*
X1300500Y-8819000D02*
X1300500Y-8919000D01*
X1250500Y-8869000D02*
X1350500Y-8869000D01*
X1300500Y-9096000D02*
X1300500Y-9196000D01*
X1250500Y-9146000D02*
X1350500Y-9146000D01*
X1584500Y-4248500D02*
X1584500Y-4348500D01*
X1534500Y-4298500D02*
X1634500Y-4298500D01*
X1584500Y-4525500D02*
X1584500Y-4625500D01*
X1534500Y-4575500D02*
X1634500Y-4575500D01*
X1584500Y-4802500D02*
X1584500Y-4902500D01*
X1534500Y-4852500D02*
X1634500Y-4852500D01*
X1584500Y-5079500D02*
X1584500Y-5179500D01*
X1534500Y-5129500D02*
X1634500Y-5129500D01*
X1584500Y-5356500D02*
X1584500Y-5456500D01*
X1534500Y-5406500D02*
X1634500Y-5406500D01*
X1584500Y-5633500D02*
X1584500Y-5733500D01*
X1534500Y-5683500D02*
X1634500Y-5683500D01*
X1584500Y-5910500D02*
X1584500Y-6010500D01*
X1534500Y-5960500D02*
X1634500Y-5960500D01*
X1584500Y-6187500D02*
X1584500Y-6287500D01*
X1534500Y-6237500D02*
X1634500Y-6237500D01*
X1584500Y-6464500D02*
X1584500Y-6564500D01*
X1534500Y-6514500D02*
X1634500Y-6514500D01*
X1584500Y-6741500D02*
X1584500Y-6841500D01*
X1534500Y-6791500D02*
X1634500Y-6791500D01*
X1584500Y-7018500D02*
X1584500Y-7118500D01*
X1534500Y-7068500D02*
X1634500Y-7068500D01*
X1584500Y-7295500D02*
X1584500Y-7395500D01*
X1534500Y-7345500D02*
X1634500Y-7345500D01*
X1584500Y-7572500D02*
X1584500Y-7672500D01*
X1534500Y-7622500D02*
X1634500Y-7622500D01*
X1584500Y-7849500D02*
X1584500Y-7949500D01*
X1534500Y-7899500D02*
X1634500Y-7899500D01*
X1584500Y-8126500D02*
X1584500Y-8226500D01*
X1534500Y-8176500D02*
X1634500Y-8176500D01*
X1584500Y-8403500D02*
X1584500Y-8503500D01*
X1534500Y-8453500D02*
X1634500Y-8453500D01*
X1584500Y-8680500D02*
X1584500Y-8780500D01*
X1534500Y-8730500D02*
X1634500Y-8730500D01*
X1584500Y-8957500D02*
X1584500Y-9057500D01*
X1534500Y-9007500D02*
X1634500Y-9007500D01*
X1584500Y-9234500D02*
X1584500Y-9334500D01*
X1534500Y-9284500D02*
X1634500Y-9284500D01*
X9944500Y-4248000D02*
X9944500Y-4348000D01*
X9894500Y-4298000D02*
X9994500Y-4298000D01*
X9944500Y-4525000D02*
X9944500Y-4625000D01*
X9894500Y-4575000D02*
X9994500Y-4575000D01*
X9944500Y-4802000D02*
X9944500Y-4902000D01*
X9894500Y-4852000D02*
X9994500Y-4852000D01*
X9944500Y-5079000D02*
X9944500Y-5179000D01*
X9894500Y-5129000D02*
X9994500Y-5129000D01*
X9944500Y-5356000D02*
X9944500Y-5456000D01*
X9894500Y-5406000D02*
X9994500Y-5406000D01*
X9944500Y-5633000D02*
X9944500Y-5733000D01*
X9894500Y-5683000D02*
X9994500Y-5683000D01*
X9944500Y-5910000D02*
X9944500Y-6010000D01*
X9894500Y-5960000D02*
X9994500Y-5960000D01*
X9944500Y-6187000D02*
X9944500Y-6287000D01*
X9894500Y-6237000D02*
X9994500Y-6237000D01*
X9944500Y-6464000D02*
X9944500Y-6564000D01*
X9894500Y-6514000D02*
X9994500Y-6514000D01*
X9944500Y-6741000D02*
X9944500Y-6841000D01*
X9894500Y-6791000D02*
X9994500Y-6791000D01*
X9944500Y-7018000D02*
X9944500Y-7118000D01*
X9894500Y-7068000D02*
X9994500Y-7068000D01*
X9944500Y-7295000D02*
X9944500Y-7395000D01*
X9894500Y-7345000D02*
X9994500Y-7345000D01*
X9944500Y-7572000D02*
X9944500Y-7672000D01*
X9894500Y-7622000D02*
X9994500Y-7622000D01*
X9944500Y-7849000D02*
X9944500Y-7949000D01*
X9894500Y-7899000D02*
X9994500Y-7899000D01*
X9944500Y-8126000D02*
X9944500Y-8226000D01*
X9894500Y-8176000D02*
X9994500Y-8176000D01*
X9944500Y-8403000D02*
X9944500Y-8503000D01*
X9894500Y-8453000D02*
X9994500Y-8453000D01*
X9944500Y-8680000D02*
X9944500Y-8780000D01*
X9894500Y-8730000D02*
X9994500Y-8730000D01*
X9944500Y-8957000D02*
X9944500Y-9057000D01*
X9894500Y-9007000D02*
X9994500Y-9007000D01*
X9944500Y-9234000D02*
X9944500Y-9334000D01*
X9894500Y-9284000D02*
X9994500Y-9284000D01*
X10228500Y-4386500D02*
X10228500Y-4486500D01*
X10178500Y-4436500D02*
X10278500Y-4436500D01*
X10228500Y-4663500D02*
X10228500Y-4763500D01*
X10178500Y-4713500D02*
X10278500Y-4713500D01*
X10228500Y-4940500D02*
X10228500Y-5040500D01*
X10178500Y-4990500D02*
X10278500Y-4990500D01*
X10228500Y-5217500D02*
X10228500Y-5317500D01*
X10178500Y-5267500D02*
X10278500Y-5267500D01*
X10228500Y-5494500D02*
X10228500Y-5594500D01*
X10178500Y-5544500D02*
X10278500Y-5544500D01*
X10228500Y-5771500D02*
X10228500Y-5871500D01*
X10178500Y-5821500D02*
X10278500Y-5821500D01*
X10228500Y-6048500D02*
X10228500Y-6148500D01*
X10178500Y-6098500D02*
X10278500Y-6098500D01*
X10228500Y-6325500D02*
X10228500Y-6425500D01*
X10178500Y-6375500D02*
X10278500Y-6375500D01*
X10228500Y-6602500D02*
X10228500Y-6702500D01*
X10178500Y-6652500D02*
X10278500Y-6652500D01*
X10228500Y-6879500D02*
X10228500Y-6979500D01*
X10178500Y-6929500D02*
X10278500Y-6929500D01*
X10228500Y-7156500D02*
X10228500Y-7256500D01*
X10178500Y-7206500D02*
X10278500Y-7206500D01*
X10228500Y-7433500D02*
X10228500Y-7533500D01*
X10178500Y-7483500D02*
X10278500Y-7483500D01*
X10228500Y-7710500D02*
X10228500Y-7810500D01*
X10178500Y-7760500D02*
X10278500Y-7760500D01*
X10228500Y-7987500D02*
X10228500Y-8087500D01*
X10178500Y-8037500D02*
X10278500Y-8037500D01*
X10228500Y-8264500D02*
X10228500Y-8364500D01*
X10178500Y-8314500D02*
X10278500Y-8314500D01*
X10228500Y-8541500D02*
X10228500Y-8641500D01*
X10178500Y-8591500D02*
X10278500Y-8591500D01*
X10228500Y-8818500D02*
X10228500Y-8918500D01*
X10178500Y-8868500D02*
X10278500Y-8868500D01*
X10228500Y-9095500D02*
X10228500Y-9195500D01*
X10178500Y-9145500D02*
X10278500Y-9145500D01*
D13*
X1370391Y-11828891D02*
X1370391Y-11751109D01*
X1292609Y-11751109D01*
X1292609Y-11828891D01*
X1370391Y-11828891D01*
X2670391Y-11828891D02*
X2670391Y-11751109D01*
X2592609Y-11751109D01*
X2592609Y-11828891D01*
X2670391Y-11828891D01*
X3970391Y-11828891D02*
X3970391Y-11751109D01*
X3892609Y-11751109D01*
X3892609Y-11828891D01*
X3970391Y-11828891D01*
X5270391Y-11828891D02*
X5270391Y-11751109D01*
X5192609Y-11751109D01*
X5192609Y-11828891D01*
X5270391Y-11828891D01*
X6449391Y-11822391D02*
X6449391Y-11744609D01*
X6371609Y-11744609D01*
X6371609Y-11822391D01*
X6449391Y-11822391D01*
X6849391Y-11822391D02*
X6849391Y-11744609D01*
X6771609Y-11744609D01*
X6771609Y-11822391D01*
X6849391Y-11822391D01*
X8261391Y-11824391D02*
X8261391Y-11746609D01*
X8183609Y-11746609D01*
X8183609Y-11824391D01*
X8261391Y-11824391D01*
X8661391Y-11824391D02*
X8661391Y-11746609D01*
X8583609Y-11746609D01*
X8583609Y-11824391D01*
X8661391Y-11824391D01*
D14*
X6972500Y-2052000D02*
X7045000Y-1979500D01*
X6972500Y-1907000D01*
X6900000Y-1979500D01*
X6972500Y-2052000D01*
X7772500Y-2052000D02*
X7845000Y-1979500D01*
X7772500Y-1907000D01*
X7700000Y-1979500D01*
X7772500Y-2052000D01*
X9319500Y-2052000D02*
X9392000Y-1979500D01*
X9319500Y-1907000D01*
X9247000Y-1979500D01*
X9319500Y-2052000D01*
X10119500Y-2052000D02*
X10192000Y-1979500D01*
X10119500Y-1907000D01*
X10047000Y-1979500D01*
X10119500Y-2052000D01*
X10145500Y-11658000D02*
X10218000Y-11585500D01*
X10145500Y-11513000D01*
X10073000Y-11585500D01*
X10145500Y-11658000D01*
D15*
X2925000Y-6825000D02*
X3075000Y-6975000D01*
X3075000Y-6825000D02*
X2925000Y-6975000D01*
X3075000Y-6900000D02*
G75*
G02*
X2925000Y-6900000I-75000J0D01*
G01*
X2925000Y-6900000D02*
G75*
G02*
X3075000Y-6900000I75000J0D01*
G01*
X4725000Y-6825000D02*
X4875000Y-6975000D01*
X4875000Y-6825000D02*
X4725000Y-6975000D01*
X4875000Y-6900000D02*
G75*
G02*
X4725000Y-6900000I-75000J0D01*
G01*
X4725000Y-6900000D02*
G75*
G02*
X4875000Y-6900000I75000J0D01*
G01*
X6525000Y-6825000D02*
X6675000Y-6975000D01*
X6675000Y-6825000D02*
X6525000Y-6975000D01*
X6675000Y-6900000D02*
G75*
G02*
X6525000Y-6900000I-75000J0D01*
G01*
X6525000Y-6900000D02*
G75*
G02*
X6675000Y-6900000I75000J0D01*
G01*
X8325000Y-6825000D02*
X8475000Y-6975000D01*
X8475000Y-6825000D02*
X8325000Y-6975000D01*
X8475000Y-6900000D02*
G75*
G02*
X8325000Y-6900000I-75000J0D01*
G01*
X8325000Y-6900000D02*
G75*
G02*
X8475000Y-6900000I75000J0D01*
G01*
D16*
X1038000Y-1520000D02*
X1203000Y-1685000D01*
X1203000Y-1520000D02*
X1038000Y-1685000D01*
X1120500Y-1520000D02*
X1120500Y-1685000D01*
X1038000Y-1602500D02*
X1203000Y-1602500D01*
X1038000Y-2220000D02*
X1203000Y-2385000D01*
X1203000Y-2220000D02*
X1038000Y-2385000D01*
X1120500Y-2220000D02*
X1120500Y-2385000D01*
X1038000Y-2302500D02*
X1203000Y-2302500D01*
X1638000Y-1520000D02*
X1803000Y-1685000D01*
X1803000Y-1520000D02*
X1638000Y-1685000D01*
X1720500Y-1520000D02*
X1720500Y-1685000D01*
X1638000Y-1602500D02*
X1803000Y-1602500D01*
X1638000Y-2220000D02*
X1803000Y-2385000D01*
X1803000Y-2220000D02*
X1638000Y-2385000D01*
X1720500Y-2220000D02*
X1720500Y-2385000D01*
X1638000Y-2302500D02*
X1803000Y-2302500D01*
X2338000Y-1520000D02*
X2503000Y-1685000D01*
X2503000Y-1520000D02*
X2338000Y-1685000D01*
X2420500Y-1520000D02*
X2420500Y-1685000D01*
X2338000Y-1602500D02*
X2503000Y-1602500D01*
X2338000Y-2220000D02*
X2503000Y-2385000D01*
X2503000Y-2220000D02*
X2338000Y-2385000D01*
X2420500Y-2220000D02*
X2420500Y-2385000D01*
X2338000Y-2302500D02*
X2503000Y-2302500D01*
X2938000Y-1520000D02*
X3103000Y-1685000D01*
X3103000Y-1520000D02*
X2938000Y-1685000D01*
X3020500Y-1520000D02*
X3020500Y-1685000D01*
X2938000Y-1602500D02*
X3103000Y-1602500D01*
X2938000Y-2220000D02*
X3103000Y-2385000D01*
X3103000Y-2220000D02*
X2938000Y-2385000D01*
X3020500Y-2220000D02*
X3020500Y-2385000D01*
X2938000Y-2302500D02*
X3103000Y-2302500D01*
X3638000Y-1520000D02*
X3803000Y-1685000D01*
X3803000Y-1520000D02*
X3638000Y-1685000D01*
X3720500Y-1520000D02*
X3720500Y-1685000D01*
X3638000Y-1602500D02*
X3803000Y-1602500D01*
X3638000Y-2220000D02*
X3803000Y-2385000D01*
X3803000Y-2220000D02*
X3638000Y-2385000D01*
X3720500Y-2220000D02*
X3720500Y-2385000D01*
X3638000Y-2302500D02*
X3803000Y-2302500D01*
X4238000Y-1520000D02*
X4403000Y-1685000D01*
X4403000Y-1520000D02*
X4238000Y-1685000D01*
X4320500Y-1520000D02*
X4320500Y-1685000D01*
X4238000Y-1602500D02*
X4403000Y-1602500D01*
X4238000Y-2220000D02*
X4403000Y-2385000D01*
X4403000Y-2220000D02*
X4238000Y-2385000D01*
X4320500Y-2220000D02*
X4320500Y-2385000D01*
X4238000Y-2302500D02*
X4403000Y-2302500D01*
X4938000Y-1520000D02*
X5103000Y-1685000D01*
X5103000Y-1520000D02*
X4938000Y-1685000D01*
X5020500Y-1520000D02*
X5020500Y-1685000D01*
X4938000Y-1602500D02*
X5103000Y-1602500D01*
X4938000Y-2220000D02*
X5103000Y-2385000D01*
X5103000Y-2220000D02*
X4938000Y-2385000D01*
X5020500Y-2220000D02*
X5020500Y-2385000D01*
X4938000Y-2302500D02*
X5103000Y-2302500D01*
X5538000Y-1520000D02*
X5703000Y-1685000D01*
X5703000Y-1520000D02*
X5538000Y-1685000D01*
X5620500Y-1520000D02*
X5620500Y-1685000D01*
X5538000Y-1602500D02*
X5703000Y-1602500D01*
X5538000Y-2220000D02*
X5703000Y-2385000D01*
X5703000Y-2220000D02*
X5538000Y-2385000D01*
X5620500Y-2220000D02*
X5620500Y-2385000D01*
X5538000Y-2302500D02*
X5703000Y-2302500D01*
X6636000Y-1643000D02*
X6801000Y-1808000D01*
X6801000Y-1643000D02*
X6636000Y-1808000D01*
X6718500Y-1643000D02*
X6718500Y-1808000D01*
X6636000Y-1725500D02*
X6801000Y-1725500D01*
X6636000Y-2151000D02*
X6801000Y-2316000D01*
X6801000Y-2151000D02*
X6636000Y-2316000D01*
X6718500Y-2151000D02*
X6718500Y-2316000D01*
X6636000Y-2233500D02*
X6801000Y-2233500D01*
X7944000Y-1643000D02*
X8109000Y-1808000D01*
X8109000Y-1643000D02*
X7944000Y-1808000D01*
X8026500Y-1643000D02*
X8026500Y-1808000D01*
X7944000Y-1725500D02*
X8109000Y-1725500D01*
X7944000Y-2151000D02*
X8109000Y-2316000D01*
X8109000Y-2151000D02*
X7944000Y-2316000D01*
X8026500Y-2151000D02*
X8026500Y-2316000D01*
X7944000Y-2233500D02*
X8109000Y-2233500D01*
X8983000Y-1643000D02*
X9148000Y-1808000D01*
X9148000Y-1643000D02*
X8983000Y-1808000D01*
X9065500Y-1643000D02*
X9065500Y-1808000D01*
X8983000Y-1725500D02*
X9148000Y-1725500D01*
X8983000Y-2151000D02*
X9148000Y-2316000D01*
X9148000Y-2151000D02*
X8983000Y-2316000D01*
X9065500Y-2151000D02*
X9065500Y-2316000D01*
X8983000Y-2233500D02*
X9148000Y-2233500D01*
X10291000Y-1643000D02*
X10456000Y-1808000D01*
X10456000Y-1643000D02*
X10291000Y-1808000D01*
X10373500Y-1643000D02*
X10373500Y-1808000D01*
X10291000Y-1725500D02*
X10456000Y-1725500D01*
X10291000Y-2151000D02*
X10456000Y-2316000D01*
X10456000Y-2151000D02*
X10291000Y-2316000D01*
X10373500Y-2151000D02*
X10373500Y-2316000D01*
X10291000Y-2233500D02*
X10456000Y-2233500D01*
D17*
X994000Y-11403500D02*
X1169000Y-11578500D01*
X1169000Y-11403500D02*
X994000Y-11578500D01*
X1143372Y-11552872D02*
X1143372Y-11429128D01*
X1019628Y-11429128D01*
X1019628Y-11552872D01*
X1143372Y-11552872D01*
X994000Y-11953500D02*
X1169000Y-12128500D01*
X1169000Y-11953500D02*
X994000Y-12128500D01*
X1143372Y-12102872D02*
X1143372Y-11979128D01*
X1019628Y-11979128D01*
X1019628Y-12102872D01*
X1143372Y-12102872D01*
X1494000Y-11403500D02*
X1669000Y-11578500D01*
X1669000Y-11403500D02*
X1494000Y-11578500D01*
X1643372Y-11552872D02*
X1643372Y-11429128D01*
X1519628Y-11429128D01*
X1519628Y-11552872D01*
X1643372Y-11552872D01*
X1494000Y-11953500D02*
X1669000Y-12128500D01*
X1669000Y-11953500D02*
X1494000Y-12128500D01*
X1643372Y-12102872D02*
X1643372Y-11979128D01*
X1519628Y-11979128D01*
X1519628Y-12102872D01*
X1643372Y-12102872D01*
X2294000Y-11403500D02*
X2469000Y-11578500D01*
X2469000Y-11403500D02*
X2294000Y-11578500D01*
X2443372Y-11552872D02*
X2443372Y-11429128D01*
X2319628Y-11429128D01*
X2319628Y-11552872D01*
X2443372Y-11552872D01*
X2294000Y-11953500D02*
X2469000Y-12128500D01*
X2469000Y-11953500D02*
X2294000Y-12128500D01*
X2443372Y-12102872D02*
X2443372Y-11979128D01*
X2319628Y-11979128D01*
X2319628Y-12102872D01*
X2443372Y-12102872D01*
X2794000Y-11403500D02*
X2969000Y-11578500D01*
X2969000Y-11403500D02*
X2794000Y-11578500D01*
X2943372Y-11552872D02*
X2943372Y-11429128D01*
X2819628Y-11429128D01*
X2819628Y-11552872D01*
X2943372Y-11552872D01*
X2794000Y-11953500D02*
X2969000Y-12128500D01*
X2969000Y-11953500D02*
X2794000Y-12128500D01*
X2943372Y-12102872D02*
X2943372Y-11979128D01*
X2819628Y-11979128D01*
X2819628Y-12102872D01*
X2943372Y-12102872D01*
X3594000Y-11403500D02*
X3769000Y-11578500D01*
X3769000Y-11403500D02*
X3594000Y-11578500D01*
X3743372Y-11552872D02*
X3743372Y-11429128D01*
X3619628Y-11429128D01*
X3619628Y-11552872D01*
X3743372Y-11552872D01*
X3594000Y-11953500D02*
X3769000Y-12128500D01*
X3769000Y-11953500D02*
X3594000Y-12128500D01*
X3743372Y-12102872D02*
X3743372Y-11979128D01*
X3619628Y-11979128D01*
X3619628Y-12102872D01*
X3743372Y-12102872D01*
X4094000Y-11403500D02*
X4269000Y-11578500D01*
X4269000Y-11403500D02*
X4094000Y-11578500D01*
X4243372Y-11552872D02*
X4243372Y-11429128D01*
X4119628Y-11429128D01*
X4119628Y-11552872D01*
X4243372Y-11552872D01*
X4094000Y-11953500D02*
X4269000Y-12128500D01*
X4269000Y-11953500D02*
X4094000Y-12128500D01*
X4243372Y-12102872D02*
X4243372Y-11979128D01*
X4119628Y-11979128D01*
X4119628Y-12102872D01*
X4243372Y-12102872D01*
X4894000Y-11403500D02*
X5069000Y-11578500D01*
X5069000Y-11403500D02*
X4894000Y-11578500D01*
X5043372Y-11552872D02*
X5043372Y-11429128D01*
X4919628Y-11429128D01*
X4919628Y-11552872D01*
X5043372Y-11552872D01*
X4894000Y-11953500D02*
X5069000Y-12128500D01*
X5069000Y-11953500D02*
X4894000Y-12128500D01*
X5043372Y-12102872D02*
X5043372Y-11979128D01*
X4919628Y-11979128D01*
X4919628Y-12102872D01*
X5043372Y-12102872D01*
X5394000Y-11403500D02*
X5569000Y-11578500D01*
X5569000Y-11403500D02*
X5394000Y-11578500D01*
X5543372Y-11552872D02*
X5543372Y-11429128D01*
X5419628Y-11429128D01*
X5419628Y-11552872D01*
X5543372Y-11552872D01*
X5394000Y-11953500D02*
X5569000Y-12128500D01*
X5569000Y-11953500D02*
X5394000Y-12128500D01*
X5543372Y-12102872D02*
X5543372Y-11979128D01*
X5419628Y-11979128D01*
X5419628Y-12102872D01*
X5543372Y-12102872D01*
X6093000Y-11397000D02*
X6268000Y-11572000D01*
X6268000Y-11397000D02*
X6093000Y-11572000D01*
X6242372Y-11546372D02*
X6242372Y-11422628D01*
X6118628Y-11422628D01*
X6118628Y-11546372D01*
X6242372Y-11546372D01*
X6093000Y-11947000D02*
X6268000Y-12122000D01*
X6268000Y-11947000D02*
X6093000Y-12122000D01*
X6242372Y-12096372D02*
X6242372Y-11972628D01*
X6118628Y-11972628D01*
X6118628Y-12096372D01*
X6242372Y-12096372D01*
X6953000Y-11397000D02*
X7128000Y-11572000D01*
X7128000Y-11397000D02*
X6953000Y-11572000D01*
X7102372Y-11546372D02*
X7102372Y-11422628D01*
X6978628Y-11422628D01*
X6978628Y-11546372D01*
X7102372Y-11546372D01*
X6953000Y-11947000D02*
X7128000Y-12122000D01*
X7128000Y-11947000D02*
X6953000Y-12122000D01*
X7102372Y-12096372D02*
X7102372Y-11972628D01*
X6978628Y-11972628D01*
X6978628Y-12096372D01*
X7102372Y-12096372D01*
X7905000Y-11399000D02*
X8080000Y-11574000D01*
X8080000Y-11399000D02*
X7905000Y-11574000D01*
X8054372Y-11548372D02*
X8054372Y-11424628D01*
X7930628Y-11424628D01*
X7930628Y-11548372D01*
X8054372Y-11548372D01*
X7905000Y-11949000D02*
X8080000Y-12124000D01*
X8080000Y-11949000D02*
X7905000Y-12124000D01*
X8054372Y-12098372D02*
X8054372Y-11974628D01*
X7930628Y-11974628D01*
X7930628Y-12098372D01*
X8054372Y-12098372D01*
X8765000Y-11399000D02*
X8940000Y-11574000D01*
X8940000Y-11399000D02*
X8765000Y-11574000D01*
X8914372Y-11548372D02*
X8914372Y-11424628D01*
X8790628Y-11424628D01*
X8790628Y-11548372D01*
X8914372Y-11548372D01*
X8765000Y-11949000D02*
X8940000Y-12124000D01*
X8940000Y-11949000D02*
X8765000Y-12124000D01*
X8914372Y-12098372D02*
X8914372Y-11974628D01*
X8790628Y-11974628D01*
X8790628Y-12098372D01*
X8914372Y-12098372D01*
X9600500Y-11148000D02*
X9775500Y-11323000D01*
X9775500Y-11148000D02*
X9600500Y-11323000D01*
X9749872Y-11297372D02*
X9749872Y-11173628D01*
X9626128Y-11173628D01*
X9626128Y-11297372D01*
X9749872Y-11297372D01*
X9600500Y-11958000D02*
X9775500Y-12133000D01*
X9775500Y-11958000D02*
X9600500Y-12133000D01*
X9749872Y-12107372D02*
X9749872Y-11983628D01*
X9626128Y-11983628D01*
X9626128Y-12107372D01*
X9749872Y-12107372D01*
X10515500Y-11148000D02*
X10690500Y-11323000D01*
X10690500Y-11148000D02*
X10515500Y-11323000D01*
X10664872Y-11297372D02*
X10664872Y-11173628D01*
X10541128Y-11173628D01*
X10541128Y-11297372D01*
X10664872Y-11297372D01*
X10515500Y-11958000D02*
X10690500Y-12133000D01*
X10690500Y-11958000D02*
X10515500Y-12133000D01*
X10664872Y-12107372D02*
X10664872Y-11983628D01*
X10541128Y-11983628D01*
X10541128Y-12107372D01*
X10664872Y-12107372D01*
D18*
X2547000Y-6447000D02*
X2767000Y-6667000D01*
X2767000Y-6447000D02*
X2547000Y-6667000D01*
X2657000Y-6667000D02*
X2767000Y-6557000D01*
X2657000Y-6447000D01*
X2547000Y-6557000D01*
X2657000Y-6667000D01*
X2547000Y-7133000D02*
X2767000Y-7353000D01*
X2767000Y-7133000D02*
X2547000Y-7353000D01*
X2657000Y-7353000D02*
X2767000Y-7243000D01*
X2657000Y-7133000D01*
X2547000Y-7243000D01*
X2657000Y-7353000D01*
X3233000Y-6447000D02*
X3453000Y-6667000D01*
X3453000Y-6447000D02*
X3233000Y-6667000D01*
X3343000Y-6667000D02*
X3453000Y-6557000D01*
X3343000Y-6447000D01*
X3233000Y-6557000D01*
X3343000Y-6667000D01*
X3233000Y-7133000D02*
X3453000Y-7353000D01*
X3453000Y-7133000D02*
X3233000Y-7353000D01*
X3343000Y-7353000D02*
X3453000Y-7243000D01*
X3343000Y-7133000D01*
X3233000Y-7243000D01*
X3343000Y-7353000D01*
X4347000Y-6447000D02*
X4567000Y-6667000D01*
X4567000Y-6447000D02*
X4347000Y-6667000D01*
X4457000Y-6667000D02*
X4567000Y-6557000D01*
X4457000Y-6447000D01*
X4347000Y-6557000D01*
X4457000Y-6667000D01*
X4347000Y-7133000D02*
X4567000Y-7353000D01*
X4567000Y-7133000D02*
X4347000Y-7353000D01*
X4457000Y-7353000D02*
X4567000Y-7243000D01*
X4457000Y-7133000D01*
X4347000Y-7243000D01*
X4457000Y-7353000D01*
X5033000Y-6447000D02*
X5253000Y-6667000D01*
X5253000Y-6447000D02*
X5033000Y-6667000D01*
X5143000Y-6667000D02*
X5253000Y-6557000D01*
X5143000Y-6447000D01*
X5033000Y-6557000D01*
X5143000Y-6667000D01*
X5033000Y-7133000D02*
X5253000Y-7353000D01*
X5253000Y-7133000D02*
X5033000Y-7353000D01*
X5143000Y-7353000D02*
X5253000Y-7243000D01*
X5143000Y-7133000D01*
X5033000Y-7243000D01*
X5143000Y-7353000D01*
X6147000Y-6447000D02*
X6367000Y-6667000D01*
X6367000Y-6447000D02*
X6147000Y-6667000D01*
X6257000Y-6667000D02*
X6367000Y-6557000D01*
X6257000Y-6447000D01*
X6147000Y-6557000D01*
X6257000Y-6667000D01*
X6147000Y-7133000D02*
X6367000Y-7353000D01*
X6367000Y-7133000D02*
X6147000Y-7353000D01*
X6257000Y-7353000D02*
X6367000Y-7243000D01*
X6257000Y-7133000D01*
X6147000Y-7243000D01*
X6257000Y-7353000D01*
X6833000Y-6447000D02*
X7053000Y-6667000D01*
X7053000Y-6447000D02*
X6833000Y-6667000D01*
X6943000Y-6667000D02*
X7053000Y-6557000D01*
X6943000Y-6447000D01*
X6833000Y-6557000D01*
X6943000Y-6667000D01*
X6833000Y-7133000D02*
X7053000Y-7353000D01*
X7053000Y-7133000D02*
X6833000Y-7353000D01*
X6943000Y-7353000D02*
X7053000Y-7243000D01*
X6943000Y-7133000D01*
X6833000Y-7243000D01*
X6943000Y-7353000D01*
X7947000Y-6447000D02*
X8167000Y-6667000D01*
X8167000Y-6447000D02*
X7947000Y-6667000D01*
X8057000Y-6667000D02*
X8167000Y-6557000D01*
X8057000Y-6447000D01*
X7947000Y-6557000D01*
X8057000Y-6667000D01*
X7947000Y-7133000D02*
X8167000Y-7353000D01*
X8167000Y-7133000D02*
X7947000Y-7353000D01*
X8057000Y-7353000D02*
X8167000Y-7243000D01*
X8057000Y-7133000D01*
X7947000Y-7243000D01*
X8057000Y-7353000D01*
X8633000Y-6447000D02*
X8853000Y-6667000D01*
X8853000Y-6447000D02*
X8633000Y-6667000D01*
X8743000Y-6667000D02*
X8853000Y-6557000D01*
X8743000Y-6447000D01*
X8633000Y-6557000D01*
X8743000Y-6667000D01*
X8633000Y-7133000D02*
X8853000Y-7353000D01*
X8853000Y-7133000D02*
X8633000Y-7353000D01*
X8743000Y-7353000D02*
X8853000Y-7243000D01*
X8743000Y-7133000D01*
X8633000Y-7243000D01*
X8743000Y-7353000D01*
D19*
X1442500Y-3451500D02*
X1442500Y-3781500D01*
X1277500Y-3616500D02*
X1607500Y-3616500D01*
X1607500Y-3616500D02*
G75*
G02*
X1277500Y-3616500I-165000J0D01*
G01*
X1277500Y-3616500D02*
G75*
G02*
X1607500Y-3616500I165000J0D01*
G01*
X1442500Y-9801500D02*
X1442500Y-10131500D01*
X1277500Y-9966500D02*
X1607500Y-9966500D01*
X1607500Y-9966500D02*
G75*
G02*
X1277500Y-9966500I-165000J0D01*
G01*
X1277500Y-9966500D02*
G75*
G02*
X1607500Y-9966500I165000J0D01*
G01*
X10086500Y-3451000D02*
X10086500Y-3781000D01*
X9921500Y-3616000D02*
X10251500Y-3616000D01*
X10251500Y-3616000D02*
G75*
G02*
X9921500Y-3616000I-165000J0D01*
G01*
X9921500Y-3616000D02*
G75*
G02*
X10251500Y-3616000I165000J0D01*
G01*
X10086500Y-9801000D02*
X10086500Y-10131000D01*
X9921500Y-9966000D02*
X10251500Y-9966000D01*
X10251500Y-9966000D02*
G75*
G02*
X9921500Y-9966000I-165000J0D01*
G01*
X9921500Y-9966000D02*
G75*
G02*
X10251500Y-9966000I165000J0D01*
G01*
D11*
X570777Y-12555484D02*
X570777Y-12355484D01*
X570777Y-12355484D02*
X618396Y-12355484D01*
X618396Y-12355484D02*
X646967Y-12365007D01*
X646967Y-12365007D02*
X666015Y-12384055D01*
X666015Y-12384055D02*
X675539Y-12403103D01*
X675539Y-12403103D02*
X685063Y-12441198D01*
X685063Y-12441198D02*
X685063Y-12469769D01*
X685063Y-12469769D02*
X675539Y-12507865D01*
X675539Y-12507865D02*
X666015Y-12526912D01*
X666015Y-12526912D02*
X646967Y-12545960D01*
X646967Y-12545960D02*
X618396Y-12555484D01*
X618396Y-12555484D02*
X570777Y-12555484D01*
X770777Y-12555484D02*
X770777Y-12422150D01*
X770777Y-12460246D02*
X780301Y-12441198D01*
X780301Y-12441198D02*
X789824Y-12431674D01*
X789824Y-12431674D02*
X808872Y-12422150D01*
X808872Y-12422150D02*
X827920Y-12422150D01*
X894586Y-12555484D02*
X894586Y-12422150D01*
X894586Y-12355484D02*
X885062Y-12365007D01*
X885062Y-12365007D02*
X894586Y-12374531D01*
X894586Y-12374531D02*
X904110Y-12365007D01*
X904110Y-12365007D02*
X894586Y-12355484D01*
X894586Y-12355484D02*
X894586Y-12374531D01*
X1018396Y-12555484D02*
X999348Y-12545960D01*
X999348Y-12545960D02*
X989824Y-12526912D01*
X989824Y-12526912D02*
X989824Y-12355484D01*
X1123158Y-12555484D02*
X1104110Y-12545960D01*
X1104110Y-12545960D02*
X1094586Y-12526912D01*
X1094586Y-12526912D02*
X1094586Y-12355484D01*
X1351729Y-12555484D02*
X1351729Y-12355484D01*
X1351729Y-12355484D02*
X1418396Y-12498341D01*
X1418396Y-12498341D02*
X1485062Y-12355484D01*
X1485062Y-12355484D02*
X1485062Y-12555484D01*
X1666015Y-12555484D02*
X1666015Y-12450722D01*
X1666015Y-12450722D02*
X1656491Y-12431674D01*
X1656491Y-12431674D02*
X1637443Y-12422150D01*
X1637443Y-12422150D02*
X1599348Y-12422150D01*
X1599348Y-12422150D02*
X1580301Y-12431674D01*
X1666015Y-12545960D02*
X1646967Y-12555484D01*
X1646967Y-12555484D02*
X1599348Y-12555484D01*
X1599348Y-12555484D02*
X1580301Y-12545960D01*
X1580301Y-12545960D02*
X1570777Y-12526912D01*
X1570777Y-12526912D02*
X1570777Y-12507865D01*
X1570777Y-12507865D02*
X1580301Y-12488817D01*
X1580301Y-12488817D02*
X1599348Y-12479293D01*
X1599348Y-12479293D02*
X1646967Y-12479293D01*
X1646967Y-12479293D02*
X1666015Y-12469769D01*
X1761253Y-12422150D02*
X1761253Y-12622150D01*
X1761253Y-12431674D02*
X1780301Y-12422150D01*
X1780301Y-12422150D02*
X1818396Y-12422150D01*
X1818396Y-12422150D02*
X1837443Y-12431674D01*
X1837443Y-12431674D02*
X1846967Y-12441198D01*
X1846967Y-12441198D02*
X1856491Y-12460246D01*
X1856491Y-12460246D02*
X1856491Y-12517388D01*
X1856491Y-12517388D02*
X1846967Y-12536436D01*
X1846967Y-12536436D02*
X1837443Y-12545960D01*
X1837443Y-12545960D02*
X1818396Y-12555484D01*
X1818396Y-12555484D02*
X1780301Y-12555484D01*
X1780301Y-12555484D02*
X1761253Y-12545960D01*
X1942205Y-12536436D02*
X1951729Y-12545960D01*
X1951729Y-12545960D02*
X1942205Y-12555484D01*
X1942205Y-12555484D02*
X1932682Y-12545960D01*
X1932682Y-12545960D02*
X1942205Y-12536436D01*
X1942205Y-12536436D02*
X1942205Y-12555484D01*
X1942205Y-12431674D02*
X1951729Y-12441198D01*
X1951729Y-12441198D02*
X1942205Y-12450722D01*
X1942205Y-12450722D02*
X1932682Y-12441198D01*
X1932682Y-12441198D02*
X1942205Y-12431674D01*
X1942205Y-12431674D02*
X1942205Y-12450722D01*
D12*
X280000Y-12869000D02*
X310000Y-12899000D01*
X310000Y-12869000D02*
X280000Y-12899000D01*
D11*
X608872Y-12775484D02*
X627920Y-12775484D01*
X627920Y-12775484D02*
X646967Y-12785007D01*
X646967Y-12785007D02*
X656491Y-12794531D01*
X656491Y-12794531D02*
X666015Y-12813579D01*
X666015Y-12813579D02*
X675539Y-12851674D01*
X675539Y-12851674D02*
X675539Y-12899293D01*
X675539Y-12899293D02*
X666015Y-12937388D01*
X666015Y-12937388D02*
X656491Y-12956436D01*
X656491Y-12956436D02*
X646967Y-12965960D01*
X646967Y-12965960D02*
X627920Y-12975484D01*
X627920Y-12975484D02*
X608872Y-12975484D01*
X608872Y-12975484D02*
X589824Y-12965960D01*
X589824Y-12965960D02*
X580301Y-12956436D01*
X580301Y-12956436D02*
X570777Y-12937388D01*
X570777Y-12937388D02*
X561253Y-12899293D01*
X561253Y-12899293D02*
X561253Y-12851674D01*
X561253Y-12851674D02*
X570777Y-12813579D01*
X570777Y-12813579D02*
X580301Y-12794531D01*
X580301Y-12794531D02*
X589824Y-12785007D01*
X589824Y-12785007D02*
X608872Y-12775484D01*
X761253Y-12956436D02*
X770777Y-12965960D01*
X770777Y-12965960D02*
X761253Y-12975484D01*
X761253Y-12975484D02*
X751729Y-12965960D01*
X751729Y-12965960D02*
X761253Y-12956436D01*
X761253Y-12956436D02*
X761253Y-12975484D01*
X837443Y-12775484D02*
X961253Y-12775484D01*
X961253Y-12775484D02*
X894586Y-12851674D01*
X894586Y-12851674D02*
X923158Y-12851674D01*
X923158Y-12851674D02*
X942205Y-12861198D01*
X942205Y-12861198D02*
X951729Y-12870722D01*
X951729Y-12870722D02*
X961253Y-12889769D01*
X961253Y-12889769D02*
X961253Y-12937388D01*
X961253Y-12937388D02*
X951729Y-12956436D01*
X951729Y-12956436D02*
X942205Y-12965960D01*
X942205Y-12965960D02*
X923158Y-12975484D01*
X923158Y-12975484D02*
X866015Y-12975484D01*
X866015Y-12975484D02*
X846967Y-12965960D01*
X846967Y-12965960D02*
X837443Y-12956436D01*
X1085063Y-12775484D02*
X1104110Y-12775484D01*
X1104110Y-12775484D02*
X1123158Y-12785007D01*
X1123158Y-12785007D02*
X1132682Y-12794531D01*
X1132682Y-12794531D02*
X1142205Y-12813579D01*
X1142205Y-12813579D02*
X1151729Y-12851674D01*
X1151729Y-12851674D02*
X1151729Y-12899293D01*
X1151729Y-12899293D02*
X1142205Y-12937388D01*
X1142205Y-12937388D02*
X1132682Y-12956436D01*
X1132682Y-12956436D02*
X1123158Y-12965960D01*
X1123158Y-12965960D02*
X1104110Y-12975484D01*
X1104110Y-12975484D02*
X1085063Y-12975484D01*
X1085063Y-12975484D02*
X1066015Y-12965960D01*
X1066015Y-12965960D02*
X1056491Y-12956436D01*
X1056491Y-12956436D02*
X1046967Y-12937388D01*
X1046967Y-12937388D02*
X1037443Y-12899293D01*
X1037443Y-12899293D02*
X1037443Y-12851674D01*
X1037443Y-12851674D02*
X1046967Y-12813579D01*
X1046967Y-12813579D02*
X1056491Y-12794531D01*
X1056491Y-12794531D02*
X1066015Y-12785007D01*
X1066015Y-12785007D02*
X1085063Y-12775484D01*
X1275539Y-12775484D02*
X1294586Y-12775484D01*
X1294586Y-12775484D02*
X1313634Y-12785007D01*
X1313634Y-12785007D02*
X1323158Y-12794531D01*
X1323158Y-12794531D02*
X1332682Y-12813579D01*
X1332682Y-12813579D02*
X1342205Y-12851674D01*
X1342205Y-12851674D02*
X1342205Y-12899293D01*
X1342205Y-12899293D02*
X1332682Y-12937388D01*
X1332682Y-12937388D02*
X1323158Y-12956436D01*
X1323158Y-12956436D02*
X1313634Y-12965960D01*
X1313634Y-12965960D02*
X1294586Y-12975484D01*
X1294586Y-12975484D02*
X1275539Y-12975484D01*
X1275539Y-12975484D02*
X1256491Y-12965960D01*
X1256491Y-12965960D02*
X1246967Y-12956436D01*
X1246967Y-12956436D02*
X1237444Y-12937388D01*
X1237444Y-12937388D02*
X1227920Y-12899293D01*
X1227920Y-12899293D02*
X1227920Y-12851674D01*
X1227920Y-12851674D02*
X1237444Y-12813579D01*
X1237444Y-12813579D02*
X1246967Y-12794531D01*
X1246967Y-12794531D02*
X1256491Y-12785007D01*
X1256491Y-12785007D02*
X1275539Y-12775484D01*
X1427920Y-12975484D02*
X1427920Y-12842150D01*
X1427920Y-12861198D02*
X1437443Y-12851674D01*
X1437443Y-12851674D02*
X1456491Y-12842150D01*
X1456491Y-12842150D02*
X1485063Y-12842150D01*
X1485063Y-12842150D02*
X1504110Y-12851674D01*
X1504110Y-12851674D02*
X1513634Y-12870722D01*
X1513634Y-12870722D02*
X1513634Y-12975484D01*
X1513634Y-12870722D02*
X1523158Y-12851674D01*
X1523158Y-12851674D02*
X1542205Y-12842150D01*
X1542205Y-12842150D02*
X1570777Y-12842150D01*
X1570777Y-12842150D02*
X1589824Y-12851674D01*
X1589824Y-12851674D02*
X1599348Y-12870722D01*
X1599348Y-12870722D02*
X1599348Y-12975484D01*
X1694586Y-12975484D02*
X1694586Y-12842150D01*
X1694586Y-12861198D02*
X1704110Y-12851674D01*
X1704110Y-12851674D02*
X1723158Y-12842150D01*
X1723158Y-12842150D02*
X1751729Y-12842150D01*
X1751729Y-12842150D02*
X1770777Y-12851674D01*
X1770777Y-12851674D02*
X1780301Y-12870722D01*
X1780301Y-12870722D02*
X1780301Y-12975484D01*
X1780301Y-12870722D02*
X1789824Y-12851674D01*
X1789824Y-12851674D02*
X1808872Y-12842150D01*
X1808872Y-12842150D02*
X1837443Y-12842150D01*
X1837443Y-12842150D02*
X1856491Y-12851674D01*
X1856491Y-12851674D02*
X1866015Y-12870722D01*
X1866015Y-12870722D02*
X1866015Y-12975484D01*
X2256491Y-12765960D02*
X2085063Y-13023103D01*
X2513634Y-12775484D02*
X2532682Y-12775484D01*
X2532682Y-12775484D02*
X2551729Y-12785007D01*
X2551729Y-12785007D02*
X2561253Y-12794531D01*
X2561253Y-12794531D02*
X2570777Y-12813579D01*
X2570777Y-12813579D02*
X2580301Y-12851674D01*
X2580301Y-12851674D02*
X2580301Y-12899293D01*
X2580301Y-12899293D02*
X2570777Y-12937388D01*
X2570777Y-12937388D02*
X2561253Y-12956436D01*
X2561253Y-12956436D02*
X2551729Y-12965960D01*
X2551729Y-12965960D02*
X2532682Y-12975484D01*
X2532682Y-12975484D02*
X2513634Y-12975484D01*
X2513634Y-12975484D02*
X2494587Y-12965960D01*
X2494587Y-12965960D02*
X2485063Y-12956436D01*
X2485063Y-12956436D02*
X2475539Y-12937388D01*
X2475539Y-12937388D02*
X2466015Y-12899293D01*
X2466015Y-12899293D02*
X2466015Y-12851674D01*
X2466015Y-12851674D02*
X2475539Y-12813579D01*
X2475539Y-12813579D02*
X2485063Y-12794531D01*
X2485063Y-12794531D02*
X2494587Y-12785007D01*
X2494587Y-12785007D02*
X2513634Y-12775484D01*
X2666015Y-12956436D02*
X2675539Y-12965960D01*
X2675539Y-12965960D02*
X2666015Y-12975484D01*
X2666015Y-12975484D02*
X2656491Y-12965960D01*
X2656491Y-12965960D02*
X2666015Y-12956436D01*
X2666015Y-12956436D02*
X2666015Y-12975484D01*
X2799348Y-12775484D02*
X2818396Y-12775484D01*
X2818396Y-12775484D02*
X2837444Y-12785007D01*
X2837444Y-12785007D02*
X2846967Y-12794531D01*
X2846967Y-12794531D02*
X2856491Y-12813579D01*
X2856491Y-12813579D02*
X2866015Y-12851674D01*
X2866015Y-12851674D02*
X2866015Y-12899293D01*
X2866015Y-12899293D02*
X2856491Y-12937388D01*
X2856491Y-12937388D02*
X2846967Y-12956436D01*
X2846967Y-12956436D02*
X2837444Y-12965960D01*
X2837444Y-12965960D02*
X2818396Y-12975484D01*
X2818396Y-12975484D02*
X2799348Y-12975484D01*
X2799348Y-12975484D02*
X2780301Y-12965960D01*
X2780301Y-12965960D02*
X2770777Y-12956436D01*
X2770777Y-12956436D02*
X2761253Y-12937388D01*
X2761253Y-12937388D02*
X2751729Y-12899293D01*
X2751729Y-12899293D02*
X2751729Y-12851674D01*
X2751729Y-12851674D02*
X2761253Y-12813579D01*
X2761253Y-12813579D02*
X2770777Y-12794531D01*
X2770777Y-12794531D02*
X2780301Y-12785007D01*
X2780301Y-12785007D02*
X2799348Y-12775484D01*
X3056491Y-12975484D02*
X2942206Y-12975484D01*
X2999348Y-12975484D02*
X2999348Y-12775484D01*
X2999348Y-12775484D02*
X2980301Y-12804055D01*
X2980301Y-12804055D02*
X2961253Y-12823103D01*
X2961253Y-12823103D02*
X2942206Y-12832626D01*
X3246967Y-12975484D02*
X3132682Y-12975484D01*
X3189825Y-12975484D02*
X3189825Y-12775484D01*
X3189825Y-12775484D02*
X3170777Y-12804055D01*
X3170777Y-12804055D02*
X3151729Y-12823103D01*
X3151729Y-12823103D02*
X3132682Y-12832626D01*
X3361253Y-12861198D02*
X3342206Y-12851674D01*
X3342206Y-12851674D02*
X3332682Y-12842150D01*
X3332682Y-12842150D02*
X3323158Y-12823103D01*
X3323158Y-12823103D02*
X3323158Y-12813579D01*
X3323158Y-12813579D02*
X3332682Y-12794531D01*
X3332682Y-12794531D02*
X3342206Y-12785007D01*
X3342206Y-12785007D02*
X3361253Y-12775484D01*
X3361253Y-12775484D02*
X3399348Y-12775484D01*
X3399348Y-12775484D02*
X3418396Y-12785007D01*
X3418396Y-12785007D02*
X3427920Y-12794531D01*
X3427920Y-12794531D02*
X3437444Y-12813579D01*
X3437444Y-12813579D02*
X3437444Y-12823103D01*
X3437444Y-12823103D02*
X3427920Y-12842150D01*
X3427920Y-12842150D02*
X3418396Y-12851674D01*
X3418396Y-12851674D02*
X3399348Y-12861198D01*
X3399348Y-12861198D02*
X3361253Y-12861198D01*
X3361253Y-12861198D02*
X3342206Y-12870722D01*
X3342206Y-12870722D02*
X3332682Y-12880246D01*
X3332682Y-12880246D02*
X3323158Y-12899293D01*
X3323158Y-12899293D02*
X3323158Y-12937388D01*
X3323158Y-12937388D02*
X3332682Y-12956436D01*
X3332682Y-12956436D02*
X3342206Y-12965960D01*
X3342206Y-12965960D02*
X3361253Y-12975484D01*
X3361253Y-12975484D02*
X3399348Y-12975484D01*
X3399348Y-12975484D02*
X3418396Y-12965960D01*
X3418396Y-12965960D02*
X3427920Y-12956436D01*
X3427920Y-12956436D02*
X3437444Y-12937388D01*
X3437444Y-12937388D02*
X3437444Y-12899293D01*
X3437444Y-12899293D02*
X3427920Y-12880246D01*
X3427920Y-12880246D02*
X3418396Y-12870722D01*
X3418396Y-12870722D02*
X3399348Y-12861198D01*
X3513634Y-12775484D02*
X3513634Y-12813579D01*
X3589825Y-12775484D02*
X3589825Y-12813579D01*
X3885063Y-13051674D02*
X3875539Y-13042150D01*
X3875539Y-13042150D02*
X3856491Y-13013579D01*
X3856491Y-13013579D02*
X3846968Y-12994531D01*
X3846968Y-12994531D02*
X3837444Y-12965960D01*
X3837444Y-12965960D02*
X3827920Y-12918341D01*
X3827920Y-12918341D02*
X3827920Y-12880246D01*
X3827920Y-12880246D02*
X3837444Y-12832626D01*
X3837444Y-12832626D02*
X3846968Y-12804055D01*
X3846968Y-12804055D02*
X3856491Y-12785007D01*
X3856491Y-12785007D02*
X3875539Y-12756436D01*
X3875539Y-12756436D02*
X3885063Y-12746912D01*
X3942206Y-12775484D02*
X4066015Y-12775484D01*
X4066015Y-12775484D02*
X3999348Y-12851674D01*
X3999348Y-12851674D02*
X4027920Y-12851674D01*
X4027920Y-12851674D02*
X4046968Y-12861198D01*
X4046968Y-12861198D02*
X4056491Y-12870722D01*
X4056491Y-12870722D02*
X4066015Y-12889769D01*
X4066015Y-12889769D02*
X4066015Y-12937388D01*
X4066015Y-12937388D02*
X4056491Y-12956436D01*
X4056491Y-12956436D02*
X4046968Y-12965960D01*
X4046968Y-12965960D02*
X4027920Y-12975484D01*
X4027920Y-12975484D02*
X3970777Y-12975484D01*
X3970777Y-12975484D02*
X3951729Y-12965960D01*
X3951729Y-12965960D02*
X3942206Y-12956436D01*
X4237444Y-12842150D02*
X4237444Y-12975484D01*
X4189825Y-12765960D02*
X4142206Y-12908817D01*
X4142206Y-12908817D02*
X4266015Y-12908817D01*
X4427920Y-12842150D02*
X4427920Y-12975484D01*
X4380301Y-12765960D02*
X4332682Y-12908817D01*
X4332682Y-12908817D02*
X4456491Y-12908817D01*
X4685063Y-12975484D02*
X4685063Y-12775484D01*
X4770777Y-12975484D02*
X4770777Y-12870722D01*
X4770777Y-12870722D02*
X4761253Y-12851674D01*
X4761253Y-12851674D02*
X4742206Y-12842150D01*
X4742206Y-12842150D02*
X4713634Y-12842150D01*
X4713634Y-12842150D02*
X4694587Y-12851674D01*
X4694587Y-12851674D02*
X4685063Y-12861198D01*
X4894587Y-12975484D02*
X4875539Y-12965960D01*
X4875539Y-12965960D02*
X4866015Y-12956436D01*
X4866015Y-12956436D02*
X4856492Y-12937388D01*
X4856492Y-12937388D02*
X4856492Y-12880246D01*
X4856492Y-12880246D02*
X4866015Y-12861198D01*
X4866015Y-12861198D02*
X4875539Y-12851674D01*
X4875539Y-12851674D02*
X4894587Y-12842150D01*
X4894587Y-12842150D02*
X4923158Y-12842150D01*
X4923158Y-12842150D02*
X4942206Y-12851674D01*
X4942206Y-12851674D02*
X4951730Y-12861198D01*
X4951730Y-12861198D02*
X4961253Y-12880246D01*
X4961253Y-12880246D02*
X4961253Y-12937388D01*
X4961253Y-12937388D02*
X4951730Y-12956436D01*
X4951730Y-12956436D02*
X4942206Y-12965960D01*
X4942206Y-12965960D02*
X4923158Y-12975484D01*
X4923158Y-12975484D02*
X4894587Y-12975484D01*
X5075539Y-12975484D02*
X5056492Y-12965960D01*
X5056492Y-12965960D02*
X5046968Y-12946912D01*
X5046968Y-12946912D02*
X5046968Y-12775484D01*
X5227920Y-12965960D02*
X5208873Y-12975484D01*
X5208873Y-12975484D02*
X5170777Y-12975484D01*
X5170777Y-12975484D02*
X5151730Y-12965960D01*
X5151730Y-12965960D02*
X5142206Y-12946912D01*
X5142206Y-12946912D02*
X5142206Y-12870722D01*
X5142206Y-12870722D02*
X5151730Y-12851674D01*
X5151730Y-12851674D02*
X5170777Y-12842150D01*
X5170777Y-12842150D02*
X5208873Y-12842150D01*
X5208873Y-12842150D02*
X5227920Y-12851674D01*
X5227920Y-12851674D02*
X5237444Y-12870722D01*
X5237444Y-12870722D02*
X5237444Y-12889769D01*
X5237444Y-12889769D02*
X5142206Y-12908817D01*
X5313634Y-12965960D02*
X5332682Y-12975484D01*
X5332682Y-12975484D02*
X5370777Y-12975484D01*
X5370777Y-12975484D02*
X5389825Y-12965960D01*
X5389825Y-12965960D02*
X5399349Y-12946912D01*
X5399349Y-12946912D02*
X5399349Y-12937388D01*
X5399349Y-12937388D02*
X5389825Y-12918341D01*
X5389825Y-12918341D02*
X5370777Y-12908817D01*
X5370777Y-12908817D02*
X5342206Y-12908817D01*
X5342206Y-12908817D02*
X5323158Y-12899293D01*
X5323158Y-12899293D02*
X5313634Y-12880246D01*
X5313634Y-12880246D02*
X5313634Y-12870722D01*
X5313634Y-12870722D02*
X5323158Y-12851674D01*
X5323158Y-12851674D02*
X5342206Y-12842150D01*
X5342206Y-12842150D02*
X5370777Y-12842150D01*
X5370777Y-12842150D02*
X5389825Y-12851674D01*
X5466015Y-13051674D02*
X5475539Y-13042150D01*
X5475539Y-13042150D02*
X5494587Y-13013579D01*
X5494587Y-13013579D02*
X5504111Y-12994531D01*
X5504111Y-12994531D02*
X5513634Y-12965960D01*
X5513634Y-12965960D02*
X5523158Y-12918341D01*
X5523158Y-12918341D02*
X5523158Y-12880246D01*
X5523158Y-12880246D02*
X5513634Y-12832626D01*
X5513634Y-12832626D02*
X5504111Y-12804055D01*
X5504111Y-12804055D02*
X5494587Y-12785007D01*
X5494587Y-12785007D02*
X5475539Y-12756436D01*
X5475539Y-12756436D02*
X5466015Y-12746912D01*
D12*
X310000Y-13148000D02*
G75*
G02*
X235000Y-13148000I-37500J0D01*
G01*
X235000Y-13148000D02*
G75*
G02*
X310000Y-13148000I37500J0D01*
G01*
D11*
X608872Y-13039484D02*
X627920Y-13039484D01*
X627920Y-13039484D02*
X646967Y-13049007D01*
X646967Y-13049007D02*
X656491Y-13058531D01*
X656491Y-13058531D02*
X666015Y-13077579D01*
X666015Y-13077579D02*
X675539Y-13115674D01*
X675539Y-13115674D02*
X675539Y-13163293D01*
X675539Y-13163293D02*
X666015Y-13201388D01*
X666015Y-13201388D02*
X656491Y-13220436D01*
X656491Y-13220436D02*
X646967Y-13229960D01*
X646967Y-13229960D02*
X627920Y-13239484D01*
X627920Y-13239484D02*
X608872Y-13239484D01*
X608872Y-13239484D02*
X589824Y-13229960D01*
X589824Y-13229960D02*
X580301Y-13220436D01*
X580301Y-13220436D02*
X570777Y-13201388D01*
X570777Y-13201388D02*
X561253Y-13163293D01*
X561253Y-13163293D02*
X561253Y-13115674D01*
X561253Y-13115674D02*
X570777Y-13077579D01*
X570777Y-13077579D02*
X580301Y-13058531D01*
X580301Y-13058531D02*
X589824Y-13049007D01*
X589824Y-13049007D02*
X608872Y-13039484D01*
X761253Y-13220436D02*
X770777Y-13229960D01*
X770777Y-13229960D02*
X761253Y-13239484D01*
X761253Y-13239484D02*
X751729Y-13229960D01*
X751729Y-13229960D02*
X761253Y-13220436D01*
X761253Y-13220436D02*
X761253Y-13239484D01*
X837443Y-13039484D02*
X970777Y-13039484D01*
X970777Y-13039484D02*
X885062Y-13239484D01*
X1142205Y-13039484D02*
X1046967Y-13039484D01*
X1046967Y-13039484D02*
X1037443Y-13134722D01*
X1037443Y-13134722D02*
X1046967Y-13125198D01*
X1046967Y-13125198D02*
X1066015Y-13115674D01*
X1066015Y-13115674D02*
X1113634Y-13115674D01*
X1113634Y-13115674D02*
X1132682Y-13125198D01*
X1132682Y-13125198D02*
X1142205Y-13134722D01*
X1142205Y-13134722D02*
X1151729Y-13153769D01*
X1151729Y-13153769D02*
X1151729Y-13201388D01*
X1151729Y-13201388D02*
X1142205Y-13220436D01*
X1142205Y-13220436D02*
X1132682Y-13229960D01*
X1132682Y-13229960D02*
X1113634Y-13239484D01*
X1113634Y-13239484D02*
X1066015Y-13239484D01*
X1066015Y-13239484D02*
X1046967Y-13229960D01*
X1046967Y-13229960D02*
X1037443Y-13220436D01*
X1275539Y-13039484D02*
X1294586Y-13039484D01*
X1294586Y-13039484D02*
X1313634Y-13049007D01*
X1313634Y-13049007D02*
X1323158Y-13058531D01*
X1323158Y-13058531D02*
X1332682Y-13077579D01*
X1332682Y-13077579D02*
X1342205Y-13115674D01*
X1342205Y-13115674D02*
X1342205Y-13163293D01*
X1342205Y-13163293D02*
X1332682Y-13201388D01*
X1332682Y-13201388D02*
X1323158Y-13220436D01*
X1323158Y-13220436D02*
X1313634Y-13229960D01*
X1313634Y-13229960D02*
X1294586Y-13239484D01*
X1294586Y-13239484D02*
X1275539Y-13239484D01*
X1275539Y-13239484D02*
X1256491Y-13229960D01*
X1256491Y-13229960D02*
X1246967Y-13220436D01*
X1246967Y-13220436D02*
X1237444Y-13201388D01*
X1237444Y-13201388D02*
X1227920Y-13163293D01*
X1227920Y-13163293D02*
X1227920Y-13115674D01*
X1227920Y-13115674D02*
X1237444Y-13077579D01*
X1237444Y-13077579D02*
X1246967Y-13058531D01*
X1246967Y-13058531D02*
X1256491Y-13049007D01*
X1256491Y-13049007D02*
X1275539Y-13039484D01*
X1427920Y-13239484D02*
X1427920Y-13106150D01*
X1427920Y-13125198D02*
X1437443Y-13115674D01*
X1437443Y-13115674D02*
X1456491Y-13106150D01*
X1456491Y-13106150D02*
X1485063Y-13106150D01*
X1485063Y-13106150D02*
X1504110Y-13115674D01*
X1504110Y-13115674D02*
X1513634Y-13134722D01*
X1513634Y-13134722D02*
X1513634Y-13239484D01*
X1513634Y-13134722D02*
X1523158Y-13115674D01*
X1523158Y-13115674D02*
X1542205Y-13106150D01*
X1542205Y-13106150D02*
X1570777Y-13106150D01*
X1570777Y-13106150D02*
X1589824Y-13115674D01*
X1589824Y-13115674D02*
X1599348Y-13134722D01*
X1599348Y-13134722D02*
X1599348Y-13239484D01*
X1694586Y-13239484D02*
X1694586Y-13106150D01*
X1694586Y-13125198D02*
X1704110Y-13115674D01*
X1704110Y-13115674D02*
X1723158Y-13106150D01*
X1723158Y-13106150D02*
X1751729Y-13106150D01*
X1751729Y-13106150D02*
X1770777Y-13115674D01*
X1770777Y-13115674D02*
X1780301Y-13134722D01*
X1780301Y-13134722D02*
X1780301Y-13239484D01*
X1780301Y-13134722D02*
X1789824Y-13115674D01*
X1789824Y-13115674D02*
X1808872Y-13106150D01*
X1808872Y-13106150D02*
X1837443Y-13106150D01*
X1837443Y-13106150D02*
X1856491Y-13115674D01*
X1856491Y-13115674D02*
X1866015Y-13134722D01*
X1866015Y-13134722D02*
X1866015Y-13239484D01*
X2256491Y-13029960D02*
X2085063Y-13287103D01*
X2513634Y-13039484D02*
X2532682Y-13039484D01*
X2532682Y-13039484D02*
X2551729Y-13049007D01*
X2551729Y-13049007D02*
X2561253Y-13058531D01*
X2561253Y-13058531D02*
X2570777Y-13077579D01*
X2570777Y-13077579D02*
X2580301Y-13115674D01*
X2580301Y-13115674D02*
X2580301Y-13163293D01*
X2580301Y-13163293D02*
X2570777Y-13201388D01*
X2570777Y-13201388D02*
X2561253Y-13220436D01*
X2561253Y-13220436D02*
X2551729Y-13229960D01*
X2551729Y-13229960D02*
X2532682Y-13239484D01*
X2532682Y-13239484D02*
X2513634Y-13239484D01*
X2513634Y-13239484D02*
X2494587Y-13229960D01*
X2494587Y-13229960D02*
X2485063Y-13220436D01*
X2485063Y-13220436D02*
X2475539Y-13201388D01*
X2475539Y-13201388D02*
X2466015Y-13163293D01*
X2466015Y-13163293D02*
X2466015Y-13115674D01*
X2466015Y-13115674D02*
X2475539Y-13077579D01*
X2475539Y-13077579D02*
X2485063Y-13058531D01*
X2485063Y-13058531D02*
X2494587Y-13049007D01*
X2494587Y-13049007D02*
X2513634Y-13039484D01*
X2666015Y-13220436D02*
X2675539Y-13229960D01*
X2675539Y-13229960D02*
X2666015Y-13239484D01*
X2666015Y-13239484D02*
X2656491Y-13229960D01*
X2656491Y-13229960D02*
X2666015Y-13220436D01*
X2666015Y-13220436D02*
X2666015Y-13239484D01*
X2799348Y-13039484D02*
X2818396Y-13039484D01*
X2818396Y-13039484D02*
X2837444Y-13049007D01*
X2837444Y-13049007D02*
X2846967Y-13058531D01*
X2846967Y-13058531D02*
X2856491Y-13077579D01*
X2856491Y-13077579D02*
X2866015Y-13115674D01*
X2866015Y-13115674D02*
X2866015Y-13163293D01*
X2866015Y-13163293D02*
X2856491Y-13201388D01*
X2856491Y-13201388D02*
X2846967Y-13220436D01*
X2846967Y-13220436D02*
X2837444Y-13229960D01*
X2837444Y-13229960D02*
X2818396Y-13239484D01*
X2818396Y-13239484D02*
X2799348Y-13239484D01*
X2799348Y-13239484D02*
X2780301Y-13229960D01*
X2780301Y-13229960D02*
X2770777Y-13220436D01*
X2770777Y-13220436D02*
X2761253Y-13201388D01*
X2761253Y-13201388D02*
X2751729Y-13163293D01*
X2751729Y-13163293D02*
X2751729Y-13115674D01*
X2751729Y-13115674D02*
X2761253Y-13077579D01*
X2761253Y-13077579D02*
X2770777Y-13058531D01*
X2770777Y-13058531D02*
X2780301Y-13049007D01*
X2780301Y-13049007D02*
X2799348Y-13039484D01*
X2942206Y-13058531D02*
X2951729Y-13049007D01*
X2951729Y-13049007D02*
X2970777Y-13039484D01*
X2970777Y-13039484D02*
X3018396Y-13039484D01*
X3018396Y-13039484D02*
X3037444Y-13049007D01*
X3037444Y-13049007D02*
X3046967Y-13058531D01*
X3046967Y-13058531D02*
X3056491Y-13077579D01*
X3056491Y-13077579D02*
X3056491Y-13096626D01*
X3056491Y-13096626D02*
X3046967Y-13125198D01*
X3046967Y-13125198D02*
X2932682Y-13239484D01*
X2932682Y-13239484D02*
X3056491Y-13239484D01*
X3151729Y-13239484D02*
X3189825Y-13239484D01*
X3189825Y-13239484D02*
X3208872Y-13229960D01*
X3208872Y-13229960D02*
X3218396Y-13220436D01*
X3218396Y-13220436D02*
X3237444Y-13191865D01*
X3237444Y-13191865D02*
X3246967Y-13153769D01*
X3246967Y-13153769D02*
X3246967Y-13077579D01*
X3246967Y-13077579D02*
X3237444Y-13058531D01*
X3237444Y-13058531D02*
X3227920Y-13049007D01*
X3227920Y-13049007D02*
X3208872Y-13039484D01*
X3208872Y-13039484D02*
X3170777Y-13039484D01*
X3170777Y-13039484D02*
X3151729Y-13049007D01*
X3151729Y-13049007D02*
X3142206Y-13058531D01*
X3142206Y-13058531D02*
X3132682Y-13077579D01*
X3132682Y-13077579D02*
X3132682Y-13125198D01*
X3132682Y-13125198D02*
X3142206Y-13144246D01*
X3142206Y-13144246D02*
X3151729Y-13153769D01*
X3151729Y-13153769D02*
X3170777Y-13163293D01*
X3170777Y-13163293D02*
X3208872Y-13163293D01*
X3208872Y-13163293D02*
X3227920Y-13153769D01*
X3227920Y-13153769D02*
X3237444Y-13144246D01*
X3237444Y-13144246D02*
X3246967Y-13125198D01*
X3427920Y-13039484D02*
X3332682Y-13039484D01*
X3332682Y-13039484D02*
X3323158Y-13134722D01*
X3323158Y-13134722D02*
X3332682Y-13125198D01*
X3332682Y-13125198D02*
X3351729Y-13115674D01*
X3351729Y-13115674D02*
X3399348Y-13115674D01*
X3399348Y-13115674D02*
X3418396Y-13125198D01*
X3418396Y-13125198D02*
X3427920Y-13134722D01*
X3427920Y-13134722D02*
X3437444Y-13153769D01*
X3437444Y-13153769D02*
X3437444Y-13201388D01*
X3437444Y-13201388D02*
X3427920Y-13220436D01*
X3427920Y-13220436D02*
X3418396Y-13229960D01*
X3418396Y-13229960D02*
X3399348Y-13239484D01*
X3399348Y-13239484D02*
X3351729Y-13239484D01*
X3351729Y-13239484D02*
X3332682Y-13229960D01*
X3332682Y-13229960D02*
X3323158Y-13220436D01*
X3513634Y-13039484D02*
X3513634Y-13077579D01*
X3589825Y-13039484D02*
X3589825Y-13077579D01*
X3885063Y-13315674D02*
X3875539Y-13306150D01*
X3875539Y-13306150D02*
X3856491Y-13277579D01*
X3856491Y-13277579D02*
X3846968Y-13258531D01*
X3846968Y-13258531D02*
X3837444Y-13229960D01*
X3837444Y-13229960D02*
X3827920Y-13182341D01*
X3827920Y-13182341D02*
X3827920Y-13144246D01*
X3827920Y-13144246D02*
X3837444Y-13096626D01*
X3837444Y-13096626D02*
X3846968Y-13068055D01*
X3846968Y-13068055D02*
X3856491Y-13049007D01*
X3856491Y-13049007D02*
X3875539Y-13020436D01*
X3875539Y-13020436D02*
X3885063Y-13010912D01*
X4046968Y-13106150D02*
X4046968Y-13239484D01*
X3999348Y-13029960D02*
X3951729Y-13172817D01*
X3951729Y-13172817D02*
X4075539Y-13172817D01*
X4304111Y-13239484D02*
X4304111Y-13039484D01*
X4389825Y-13239484D02*
X4389825Y-13134722D01*
X4389825Y-13134722D02*
X4380301Y-13115674D01*
X4380301Y-13115674D02*
X4361253Y-13106150D01*
X4361253Y-13106150D02*
X4332682Y-13106150D01*
X4332682Y-13106150D02*
X4313634Y-13115674D01*
X4313634Y-13115674D02*
X4304111Y-13125198D01*
X4513634Y-13239484D02*
X4494587Y-13229960D01*
X4494587Y-13229960D02*
X4485063Y-13220436D01*
X4485063Y-13220436D02*
X4475539Y-13201388D01*
X4475539Y-13201388D02*
X4475539Y-13144246D01*
X4475539Y-13144246D02*
X4485063Y-13125198D01*
X4485063Y-13125198D02*
X4494587Y-13115674D01*
X4494587Y-13115674D02*
X4513634Y-13106150D01*
X4513634Y-13106150D02*
X4542206Y-13106150D01*
X4542206Y-13106150D02*
X4561253Y-13115674D01*
X4561253Y-13115674D02*
X4570777Y-13125198D01*
X4570777Y-13125198D02*
X4580301Y-13144246D01*
X4580301Y-13144246D02*
X4580301Y-13201388D01*
X4580301Y-13201388D02*
X4570777Y-13220436D01*
X4570777Y-13220436D02*
X4561253Y-13229960D01*
X4561253Y-13229960D02*
X4542206Y-13239484D01*
X4542206Y-13239484D02*
X4513634Y-13239484D01*
X4694587Y-13239484D02*
X4675539Y-13229960D01*
X4675539Y-13229960D02*
X4666015Y-13210912D01*
X4666015Y-13210912D02*
X4666015Y-13039484D01*
X4846968Y-13229960D02*
X4827920Y-13239484D01*
X4827920Y-13239484D02*
X4789825Y-13239484D01*
X4789825Y-13239484D02*
X4770777Y-13229960D01*
X4770777Y-13229960D02*
X4761253Y-13210912D01*
X4761253Y-13210912D02*
X4761253Y-13134722D01*
X4761253Y-13134722D02*
X4770777Y-13115674D01*
X4770777Y-13115674D02*
X4789825Y-13106150D01*
X4789825Y-13106150D02*
X4827920Y-13106150D01*
X4827920Y-13106150D02*
X4846968Y-13115674D01*
X4846968Y-13115674D02*
X4856492Y-13134722D01*
X4856492Y-13134722D02*
X4856492Y-13153769D01*
X4856492Y-13153769D02*
X4761253Y-13172817D01*
X4932682Y-13229960D02*
X4951730Y-13239484D01*
X4951730Y-13239484D02*
X4989825Y-13239484D01*
X4989825Y-13239484D02*
X5008873Y-13229960D01*
X5008873Y-13229960D02*
X5018396Y-13210912D01*
X5018396Y-13210912D02*
X5018396Y-13201388D01*
X5018396Y-13201388D02*
X5008873Y-13182341D01*
X5008873Y-13182341D02*
X4989825Y-13172817D01*
X4989825Y-13172817D02*
X4961253Y-13172817D01*
X4961253Y-13172817D02*
X4942206Y-13163293D01*
X4942206Y-13163293D02*
X4932682Y-13144246D01*
X4932682Y-13144246D02*
X4932682Y-13134722D01*
X4932682Y-13134722D02*
X4942206Y-13115674D01*
X4942206Y-13115674D02*
X4961253Y-13106150D01*
X4961253Y-13106150D02*
X4989825Y-13106150D01*
X4989825Y-13106150D02*
X5008873Y-13115674D01*
X5085063Y-13315674D02*
X5094587Y-13306150D01*
X5094587Y-13306150D02*
X5113634Y-13277579D01*
X5113634Y-13277579D02*
X5123158Y-13258531D01*
X5123158Y-13258531D02*
X5132682Y-13229960D01*
X5132682Y-13229960D02*
X5142206Y-13182341D01*
X5142206Y-13182341D02*
X5142206Y-13144246D01*
X5142206Y-13144246D02*
X5132682Y-13096626D01*
X5132682Y-13096626D02*
X5123158Y-13068055D01*
X5123158Y-13068055D02*
X5113634Y-13049007D01*
X5113634Y-13049007D02*
X5094587Y-13020436D01*
X5094587Y-13020436D02*
X5085063Y-13010912D01*
D12*
X260000Y-13362000D02*
X260000Y-13462000D01*
X210000Y-13412000D02*
X310000Y-13412000D01*
D11*
X675539Y-13503484D02*
X561253Y-13503484D01*
X618396Y-13503484D02*
X618396Y-13303484D01*
X618396Y-13303484D02*
X599348Y-13332055D01*
X599348Y-13332055D02*
X580301Y-13351103D01*
X580301Y-13351103D02*
X561253Y-13360626D01*
X761253Y-13484436D02*
X770777Y-13493960D01*
X770777Y-13493960D02*
X761253Y-13503484D01*
X761253Y-13503484D02*
X751729Y-13493960D01*
X751729Y-13493960D02*
X761253Y-13484436D01*
X761253Y-13484436D02*
X761253Y-13503484D01*
X894586Y-13303484D02*
X913634Y-13303484D01*
X913634Y-13303484D02*
X932682Y-13313007D01*
X932682Y-13313007D02*
X942205Y-13322531D01*
X942205Y-13322531D02*
X951729Y-13341579D01*
X951729Y-13341579D02*
X961253Y-13379674D01*
X961253Y-13379674D02*
X961253Y-13427293D01*
X961253Y-13427293D02*
X951729Y-13465388D01*
X951729Y-13465388D02*
X942205Y-13484436D01*
X942205Y-13484436D02*
X932682Y-13493960D01*
X932682Y-13493960D02*
X913634Y-13503484D01*
X913634Y-13503484D02*
X894586Y-13503484D01*
X894586Y-13503484D02*
X875539Y-13493960D01*
X875539Y-13493960D02*
X866015Y-13484436D01*
X866015Y-13484436D02*
X856491Y-13465388D01*
X856491Y-13465388D02*
X846967Y-13427293D01*
X846967Y-13427293D02*
X846967Y-13379674D01*
X846967Y-13379674D02*
X856491Y-13341579D01*
X856491Y-13341579D02*
X866015Y-13322531D01*
X866015Y-13322531D02*
X875539Y-13313007D01*
X875539Y-13313007D02*
X894586Y-13303484D01*
X1085063Y-13303484D02*
X1104110Y-13303484D01*
X1104110Y-13303484D02*
X1123158Y-13313007D01*
X1123158Y-13313007D02*
X1132682Y-13322531D01*
X1132682Y-13322531D02*
X1142205Y-13341579D01*
X1142205Y-13341579D02*
X1151729Y-13379674D01*
X1151729Y-13379674D02*
X1151729Y-13427293D01*
X1151729Y-13427293D02*
X1142205Y-13465388D01*
X1142205Y-13465388D02*
X1132682Y-13484436D01*
X1132682Y-13484436D02*
X1123158Y-13493960D01*
X1123158Y-13493960D02*
X1104110Y-13503484D01*
X1104110Y-13503484D02*
X1085063Y-13503484D01*
X1085063Y-13503484D02*
X1066015Y-13493960D01*
X1066015Y-13493960D02*
X1056491Y-13484436D01*
X1056491Y-13484436D02*
X1046967Y-13465388D01*
X1046967Y-13465388D02*
X1037443Y-13427293D01*
X1037443Y-13427293D02*
X1037443Y-13379674D01*
X1037443Y-13379674D02*
X1046967Y-13341579D01*
X1046967Y-13341579D02*
X1056491Y-13322531D01*
X1056491Y-13322531D02*
X1066015Y-13313007D01*
X1066015Y-13313007D02*
X1085063Y-13303484D01*
X1275539Y-13303484D02*
X1294586Y-13303484D01*
X1294586Y-13303484D02*
X1313634Y-13313007D01*
X1313634Y-13313007D02*
X1323158Y-13322531D01*
X1323158Y-13322531D02*
X1332682Y-13341579D01*
X1332682Y-13341579D02*
X1342205Y-13379674D01*
X1342205Y-13379674D02*
X1342205Y-13427293D01*
X1342205Y-13427293D02*
X1332682Y-13465388D01*
X1332682Y-13465388D02*
X1323158Y-13484436D01*
X1323158Y-13484436D02*
X1313634Y-13493960D01*
X1313634Y-13493960D02*
X1294586Y-13503484D01*
X1294586Y-13503484D02*
X1275539Y-13503484D01*
X1275539Y-13503484D02*
X1256491Y-13493960D01*
X1256491Y-13493960D02*
X1246967Y-13484436D01*
X1246967Y-13484436D02*
X1237444Y-13465388D01*
X1237444Y-13465388D02*
X1227920Y-13427293D01*
X1227920Y-13427293D02*
X1227920Y-13379674D01*
X1227920Y-13379674D02*
X1237444Y-13341579D01*
X1237444Y-13341579D02*
X1246967Y-13322531D01*
X1246967Y-13322531D02*
X1256491Y-13313007D01*
X1256491Y-13313007D02*
X1275539Y-13303484D01*
X1427920Y-13503484D02*
X1427920Y-13370150D01*
X1427920Y-13389198D02*
X1437443Y-13379674D01*
X1437443Y-13379674D02*
X1456491Y-13370150D01*
X1456491Y-13370150D02*
X1485063Y-13370150D01*
X1485063Y-13370150D02*
X1504110Y-13379674D01*
X1504110Y-13379674D02*
X1513634Y-13398722D01*
X1513634Y-13398722D02*
X1513634Y-13503484D01*
X1513634Y-13398722D02*
X1523158Y-13379674D01*
X1523158Y-13379674D02*
X1542205Y-13370150D01*
X1542205Y-13370150D02*
X1570777Y-13370150D01*
X1570777Y-13370150D02*
X1589824Y-13379674D01*
X1589824Y-13379674D02*
X1599348Y-13398722D01*
X1599348Y-13398722D02*
X1599348Y-13503484D01*
X1694586Y-13503484D02*
X1694586Y-13370150D01*
X1694586Y-13389198D02*
X1704110Y-13379674D01*
X1704110Y-13379674D02*
X1723158Y-13370150D01*
X1723158Y-13370150D02*
X1751729Y-13370150D01*
X1751729Y-13370150D02*
X1770777Y-13379674D01*
X1770777Y-13379674D02*
X1780301Y-13398722D01*
X1780301Y-13398722D02*
X1780301Y-13503484D01*
X1780301Y-13398722D02*
X1789824Y-13379674D01*
X1789824Y-13379674D02*
X1808872Y-13370150D01*
X1808872Y-13370150D02*
X1837443Y-13370150D01*
X1837443Y-13370150D02*
X1856491Y-13379674D01*
X1856491Y-13379674D02*
X1866015Y-13398722D01*
X1866015Y-13398722D02*
X1866015Y-13503484D01*
X2256491Y-13293960D02*
X2085063Y-13551103D01*
X2513634Y-13303484D02*
X2532682Y-13303484D01*
X2532682Y-13303484D02*
X2551729Y-13313007D01*
X2551729Y-13313007D02*
X2561253Y-13322531D01*
X2561253Y-13322531D02*
X2570777Y-13341579D01*
X2570777Y-13341579D02*
X2580301Y-13379674D01*
X2580301Y-13379674D02*
X2580301Y-13427293D01*
X2580301Y-13427293D02*
X2570777Y-13465388D01*
X2570777Y-13465388D02*
X2561253Y-13484436D01*
X2561253Y-13484436D02*
X2551729Y-13493960D01*
X2551729Y-13493960D02*
X2532682Y-13503484D01*
X2532682Y-13503484D02*
X2513634Y-13503484D01*
X2513634Y-13503484D02*
X2494587Y-13493960D01*
X2494587Y-13493960D02*
X2485063Y-13484436D01*
X2485063Y-13484436D02*
X2475539Y-13465388D01*
X2475539Y-13465388D02*
X2466015Y-13427293D01*
X2466015Y-13427293D02*
X2466015Y-13379674D01*
X2466015Y-13379674D02*
X2475539Y-13341579D01*
X2475539Y-13341579D02*
X2485063Y-13322531D01*
X2485063Y-13322531D02*
X2494587Y-13313007D01*
X2494587Y-13313007D02*
X2513634Y-13303484D01*
X2666015Y-13484436D02*
X2675539Y-13493960D01*
X2675539Y-13493960D02*
X2666015Y-13503484D01*
X2666015Y-13503484D02*
X2656491Y-13493960D01*
X2656491Y-13493960D02*
X2666015Y-13484436D01*
X2666015Y-13484436D02*
X2666015Y-13503484D01*
X2799348Y-13303484D02*
X2818396Y-13303484D01*
X2818396Y-13303484D02*
X2837444Y-13313007D01*
X2837444Y-13313007D02*
X2846967Y-13322531D01*
X2846967Y-13322531D02*
X2856491Y-13341579D01*
X2856491Y-13341579D02*
X2866015Y-13379674D01*
X2866015Y-13379674D02*
X2866015Y-13427293D01*
X2866015Y-13427293D02*
X2856491Y-13465388D01*
X2856491Y-13465388D02*
X2846967Y-13484436D01*
X2846967Y-13484436D02*
X2837444Y-13493960D01*
X2837444Y-13493960D02*
X2818396Y-13503484D01*
X2818396Y-13503484D02*
X2799348Y-13503484D01*
X2799348Y-13503484D02*
X2780301Y-13493960D01*
X2780301Y-13493960D02*
X2770777Y-13484436D01*
X2770777Y-13484436D02*
X2761253Y-13465388D01*
X2761253Y-13465388D02*
X2751729Y-13427293D01*
X2751729Y-13427293D02*
X2751729Y-13379674D01*
X2751729Y-13379674D02*
X2761253Y-13341579D01*
X2761253Y-13341579D02*
X2770777Y-13322531D01*
X2770777Y-13322531D02*
X2780301Y-13313007D01*
X2780301Y-13313007D02*
X2799348Y-13303484D01*
X2932682Y-13303484D02*
X3056491Y-13303484D01*
X3056491Y-13303484D02*
X2989825Y-13379674D01*
X2989825Y-13379674D02*
X3018396Y-13379674D01*
X3018396Y-13379674D02*
X3037444Y-13389198D01*
X3037444Y-13389198D02*
X3046967Y-13398722D01*
X3046967Y-13398722D02*
X3056491Y-13417769D01*
X3056491Y-13417769D02*
X3056491Y-13465388D01*
X3056491Y-13465388D02*
X3046967Y-13484436D01*
X3046967Y-13484436D02*
X3037444Y-13493960D01*
X3037444Y-13493960D02*
X3018396Y-13503484D01*
X3018396Y-13503484D02*
X2961253Y-13503484D01*
X2961253Y-13503484D02*
X2942206Y-13493960D01*
X2942206Y-13493960D02*
X2932682Y-13484436D01*
X3151729Y-13503484D02*
X3189825Y-13503484D01*
X3189825Y-13503484D02*
X3208872Y-13493960D01*
X3208872Y-13493960D02*
X3218396Y-13484436D01*
X3218396Y-13484436D02*
X3237444Y-13455865D01*
X3237444Y-13455865D02*
X3246967Y-13417769D01*
X3246967Y-13417769D02*
X3246967Y-13341579D01*
X3246967Y-13341579D02*
X3237444Y-13322531D01*
X3237444Y-13322531D02*
X3227920Y-13313007D01*
X3227920Y-13313007D02*
X3208872Y-13303484D01*
X3208872Y-13303484D02*
X3170777Y-13303484D01*
X3170777Y-13303484D02*
X3151729Y-13313007D01*
X3151729Y-13313007D02*
X3142206Y-13322531D01*
X3142206Y-13322531D02*
X3132682Y-13341579D01*
X3132682Y-13341579D02*
X3132682Y-13389198D01*
X3132682Y-13389198D02*
X3142206Y-13408246D01*
X3142206Y-13408246D02*
X3151729Y-13417769D01*
X3151729Y-13417769D02*
X3170777Y-13427293D01*
X3170777Y-13427293D02*
X3208872Y-13427293D01*
X3208872Y-13427293D02*
X3227920Y-13417769D01*
X3227920Y-13417769D02*
X3237444Y-13408246D01*
X3237444Y-13408246D02*
X3246967Y-13389198D01*
X3418396Y-13370150D02*
X3418396Y-13503484D01*
X3370777Y-13293960D02*
X3323158Y-13436817D01*
X3323158Y-13436817D02*
X3446967Y-13436817D01*
X3513634Y-13303484D02*
X3513634Y-13341579D01*
X3589825Y-13303484D02*
X3589825Y-13341579D01*
X3885063Y-13579674D02*
X3875539Y-13570150D01*
X3875539Y-13570150D02*
X3856491Y-13541579D01*
X3856491Y-13541579D02*
X3846968Y-13522531D01*
X3846968Y-13522531D02*
X3837444Y-13493960D01*
X3837444Y-13493960D02*
X3827920Y-13446341D01*
X3827920Y-13446341D02*
X3827920Y-13408246D01*
X3827920Y-13408246D02*
X3837444Y-13360626D01*
X3837444Y-13360626D02*
X3846968Y-13332055D01*
X3846968Y-13332055D02*
X3856491Y-13313007D01*
X3856491Y-13313007D02*
X3875539Y-13284436D01*
X3875539Y-13284436D02*
X3885063Y-13274912D01*
X3942206Y-13303484D02*
X4075539Y-13303484D01*
X4075539Y-13303484D02*
X3989825Y-13503484D01*
X4237444Y-13370150D02*
X4237444Y-13503484D01*
X4189825Y-13293960D02*
X4142206Y-13436817D01*
X4142206Y-13436817D02*
X4266015Y-13436817D01*
X4494587Y-13503484D02*
X4494587Y-13303484D01*
X4580301Y-13503484D02*
X4580301Y-13398722D01*
X4580301Y-13398722D02*
X4570777Y-13379674D01*
X4570777Y-13379674D02*
X4551730Y-13370150D01*
X4551730Y-13370150D02*
X4523158Y-13370150D01*
X4523158Y-13370150D02*
X4504111Y-13379674D01*
X4504111Y-13379674D02*
X4494587Y-13389198D01*
X4704111Y-13503484D02*
X4685063Y-13493960D01*
X4685063Y-13493960D02*
X4675539Y-13484436D01*
X4675539Y-13484436D02*
X4666015Y-13465388D01*
X4666015Y-13465388D02*
X4666015Y-13408246D01*
X4666015Y-13408246D02*
X4675539Y-13389198D01*
X4675539Y-13389198D02*
X4685063Y-13379674D01*
X4685063Y-13379674D02*
X4704111Y-13370150D01*
X4704111Y-13370150D02*
X4732682Y-13370150D01*
X4732682Y-13370150D02*
X4751730Y-13379674D01*
X4751730Y-13379674D02*
X4761253Y-13389198D01*
X4761253Y-13389198D02*
X4770777Y-13408246D01*
X4770777Y-13408246D02*
X4770777Y-13465388D01*
X4770777Y-13465388D02*
X4761253Y-13484436D01*
X4761253Y-13484436D02*
X4751730Y-13493960D01*
X4751730Y-13493960D02*
X4732682Y-13503484D01*
X4732682Y-13503484D02*
X4704111Y-13503484D01*
X4885063Y-13503484D02*
X4866015Y-13493960D01*
X4866015Y-13493960D02*
X4856492Y-13474912D01*
X4856492Y-13474912D02*
X4856492Y-13303484D01*
X5037444Y-13493960D02*
X5018396Y-13503484D01*
X5018396Y-13503484D02*
X4980301Y-13503484D01*
X4980301Y-13503484D02*
X4961253Y-13493960D01*
X4961253Y-13493960D02*
X4951730Y-13474912D01*
X4951730Y-13474912D02*
X4951730Y-13398722D01*
X4951730Y-13398722D02*
X4961253Y-13379674D01*
X4961253Y-13379674D02*
X4980301Y-13370150D01*
X4980301Y-13370150D02*
X5018396Y-13370150D01*
X5018396Y-13370150D02*
X5037444Y-13379674D01*
X5037444Y-13379674D02*
X5046968Y-13398722D01*
X5046968Y-13398722D02*
X5046968Y-13417769D01*
X5046968Y-13417769D02*
X4951730Y-13436817D01*
X5123158Y-13493960D02*
X5142206Y-13503484D01*
X5142206Y-13503484D02*
X5180301Y-13503484D01*
X5180301Y-13503484D02*
X5199349Y-13493960D01*
X5199349Y-13493960D02*
X5208873Y-13474912D01*
X5208873Y-13474912D02*
X5208873Y-13465388D01*
X5208873Y-13465388D02*
X5199349Y-13446341D01*
X5199349Y-13446341D02*
X5180301Y-13436817D01*
X5180301Y-13436817D02*
X5151730Y-13436817D01*
X5151730Y-13436817D02*
X5132682Y-13427293D01*
X5132682Y-13427293D02*
X5123158Y-13408246D01*
X5123158Y-13408246D02*
X5123158Y-13398722D01*
X5123158Y-13398722D02*
X5132682Y-13379674D01*
X5132682Y-13379674D02*
X5151730Y-13370150D01*
X5151730Y-13370150D02*
X5180301Y-13370150D01*
X5180301Y-13370150D02*
X5199349Y-13379674D01*
X5275539Y-13579674D02*
X5285063Y-13570150D01*
X5285063Y-13570150D02*
X5304111Y-13541579D01*
X5304111Y-13541579D02*
X5313634Y-13522531D01*
X5313634Y-13522531D02*
X5323158Y-13493960D01*
X5323158Y-13493960D02*
X5332682Y-13446341D01*
X5332682Y-13446341D02*
X5332682Y-13408246D01*
X5332682Y-13408246D02*
X5323158Y-13360626D01*
X5323158Y-13360626D02*
X5313634Y-13332055D01*
X5313634Y-13332055D02*
X5304111Y-13313007D01*
X5304111Y-13313007D02*
X5285063Y-13284436D01*
X5285063Y-13284436D02*
X5275539Y-13274912D01*
D13*
X293891Y-13714891D02*
X293891Y-13637109D01*
X216109Y-13637109D01*
X216109Y-13714891D01*
X293891Y-13714891D01*
D11*
X675539Y-13767484D02*
X561253Y-13767484D01*
X618396Y-13767484D02*
X618396Y-13567484D01*
X618396Y-13567484D02*
X599348Y-13596055D01*
X599348Y-13596055D02*
X580301Y-13615103D01*
X580301Y-13615103D02*
X561253Y-13624626D01*
X761253Y-13748436D02*
X770777Y-13757960D01*
X770777Y-13757960D02*
X761253Y-13767484D01*
X761253Y-13767484D02*
X751729Y-13757960D01*
X751729Y-13757960D02*
X761253Y-13748436D01*
X761253Y-13748436D02*
X761253Y-13767484D01*
X961253Y-13767484D02*
X846967Y-13767484D01*
X904110Y-13767484D02*
X904110Y-13567484D01*
X904110Y-13567484D02*
X885062Y-13596055D01*
X885062Y-13596055D02*
X866015Y-13615103D01*
X866015Y-13615103D02*
X846967Y-13624626D01*
X1085063Y-13567484D02*
X1104110Y-13567484D01*
X1104110Y-13567484D02*
X1123158Y-13577007D01*
X1123158Y-13577007D02*
X1132682Y-13586531D01*
X1132682Y-13586531D02*
X1142205Y-13605579D01*
X1142205Y-13605579D02*
X1151729Y-13643674D01*
X1151729Y-13643674D02*
X1151729Y-13691293D01*
X1151729Y-13691293D02*
X1142205Y-13729388D01*
X1142205Y-13729388D02*
X1132682Y-13748436D01*
X1132682Y-13748436D02*
X1123158Y-13757960D01*
X1123158Y-13757960D02*
X1104110Y-13767484D01*
X1104110Y-13767484D02*
X1085063Y-13767484D01*
X1085063Y-13767484D02*
X1066015Y-13757960D01*
X1066015Y-13757960D02*
X1056491Y-13748436D01*
X1056491Y-13748436D02*
X1046967Y-13729388D01*
X1046967Y-13729388D02*
X1037443Y-13691293D01*
X1037443Y-13691293D02*
X1037443Y-13643674D01*
X1037443Y-13643674D02*
X1046967Y-13605579D01*
X1046967Y-13605579D02*
X1056491Y-13586531D01*
X1056491Y-13586531D02*
X1066015Y-13577007D01*
X1066015Y-13577007D02*
X1085063Y-13567484D01*
X1275539Y-13567484D02*
X1294586Y-13567484D01*
X1294586Y-13567484D02*
X1313634Y-13577007D01*
X1313634Y-13577007D02*
X1323158Y-13586531D01*
X1323158Y-13586531D02*
X1332682Y-13605579D01*
X1332682Y-13605579D02*
X1342205Y-13643674D01*
X1342205Y-13643674D02*
X1342205Y-13691293D01*
X1342205Y-13691293D02*
X1332682Y-13729388D01*
X1332682Y-13729388D02*
X1323158Y-13748436D01*
X1323158Y-13748436D02*
X1313634Y-13757960D01*
X1313634Y-13757960D02*
X1294586Y-13767484D01*
X1294586Y-13767484D02*
X1275539Y-13767484D01*
X1275539Y-13767484D02*
X1256491Y-13757960D01*
X1256491Y-13757960D02*
X1246967Y-13748436D01*
X1246967Y-13748436D02*
X1237444Y-13729388D01*
X1237444Y-13729388D02*
X1227920Y-13691293D01*
X1227920Y-13691293D02*
X1227920Y-13643674D01*
X1227920Y-13643674D02*
X1237444Y-13605579D01*
X1237444Y-13605579D02*
X1246967Y-13586531D01*
X1246967Y-13586531D02*
X1256491Y-13577007D01*
X1256491Y-13577007D02*
X1275539Y-13567484D01*
X1427920Y-13767484D02*
X1427920Y-13634150D01*
X1427920Y-13653198D02*
X1437443Y-13643674D01*
X1437443Y-13643674D02*
X1456491Y-13634150D01*
X1456491Y-13634150D02*
X1485063Y-13634150D01*
X1485063Y-13634150D02*
X1504110Y-13643674D01*
X1504110Y-13643674D02*
X1513634Y-13662722D01*
X1513634Y-13662722D02*
X1513634Y-13767484D01*
X1513634Y-13662722D02*
X1523158Y-13643674D01*
X1523158Y-13643674D02*
X1542205Y-13634150D01*
X1542205Y-13634150D02*
X1570777Y-13634150D01*
X1570777Y-13634150D02*
X1589824Y-13643674D01*
X1589824Y-13643674D02*
X1599348Y-13662722D01*
X1599348Y-13662722D02*
X1599348Y-13767484D01*
X1694586Y-13767484D02*
X1694586Y-13634150D01*
X1694586Y-13653198D02*
X1704110Y-13643674D01*
X1704110Y-13643674D02*
X1723158Y-13634150D01*
X1723158Y-13634150D02*
X1751729Y-13634150D01*
X1751729Y-13634150D02*
X1770777Y-13643674D01*
X1770777Y-13643674D02*
X1780301Y-13662722D01*
X1780301Y-13662722D02*
X1780301Y-13767484D01*
X1780301Y-13662722D02*
X1789824Y-13643674D01*
X1789824Y-13643674D02*
X1808872Y-13634150D01*
X1808872Y-13634150D02*
X1837443Y-13634150D01*
X1837443Y-13634150D02*
X1856491Y-13643674D01*
X1856491Y-13643674D02*
X1866015Y-13662722D01*
X1866015Y-13662722D02*
X1866015Y-13767484D01*
X2256491Y-13557960D02*
X2085063Y-13815103D01*
X2513634Y-13567484D02*
X2532682Y-13567484D01*
X2532682Y-13567484D02*
X2551729Y-13577007D01*
X2551729Y-13577007D02*
X2561253Y-13586531D01*
X2561253Y-13586531D02*
X2570777Y-13605579D01*
X2570777Y-13605579D02*
X2580301Y-13643674D01*
X2580301Y-13643674D02*
X2580301Y-13691293D01*
X2580301Y-13691293D02*
X2570777Y-13729388D01*
X2570777Y-13729388D02*
X2561253Y-13748436D01*
X2561253Y-13748436D02*
X2551729Y-13757960D01*
X2551729Y-13757960D02*
X2532682Y-13767484D01*
X2532682Y-13767484D02*
X2513634Y-13767484D01*
X2513634Y-13767484D02*
X2494587Y-13757960D01*
X2494587Y-13757960D02*
X2485063Y-13748436D01*
X2485063Y-13748436D02*
X2475539Y-13729388D01*
X2475539Y-13729388D02*
X2466015Y-13691293D01*
X2466015Y-13691293D02*
X2466015Y-13643674D01*
X2466015Y-13643674D02*
X2475539Y-13605579D01*
X2475539Y-13605579D02*
X2485063Y-13586531D01*
X2485063Y-13586531D02*
X2494587Y-13577007D01*
X2494587Y-13577007D02*
X2513634Y-13567484D01*
X2666015Y-13748436D02*
X2675539Y-13757960D01*
X2675539Y-13757960D02*
X2666015Y-13767484D01*
X2666015Y-13767484D02*
X2656491Y-13757960D01*
X2656491Y-13757960D02*
X2666015Y-13748436D01*
X2666015Y-13748436D02*
X2666015Y-13767484D01*
X2799348Y-13567484D02*
X2818396Y-13567484D01*
X2818396Y-13567484D02*
X2837444Y-13577007D01*
X2837444Y-13577007D02*
X2846967Y-13586531D01*
X2846967Y-13586531D02*
X2856491Y-13605579D01*
X2856491Y-13605579D02*
X2866015Y-13643674D01*
X2866015Y-13643674D02*
X2866015Y-13691293D01*
X2866015Y-13691293D02*
X2856491Y-13729388D01*
X2856491Y-13729388D02*
X2846967Y-13748436D01*
X2846967Y-13748436D02*
X2837444Y-13757960D01*
X2837444Y-13757960D02*
X2818396Y-13767484D01*
X2818396Y-13767484D02*
X2799348Y-13767484D01*
X2799348Y-13767484D02*
X2780301Y-13757960D01*
X2780301Y-13757960D02*
X2770777Y-13748436D01*
X2770777Y-13748436D02*
X2761253Y-13729388D01*
X2761253Y-13729388D02*
X2751729Y-13691293D01*
X2751729Y-13691293D02*
X2751729Y-13643674D01*
X2751729Y-13643674D02*
X2761253Y-13605579D01*
X2761253Y-13605579D02*
X2770777Y-13586531D01*
X2770777Y-13586531D02*
X2780301Y-13577007D01*
X2780301Y-13577007D02*
X2799348Y-13567484D01*
X3037444Y-13634150D02*
X3037444Y-13767484D01*
X2989825Y-13557960D02*
X2942206Y-13700817D01*
X2942206Y-13700817D02*
X3066015Y-13700817D01*
X3123158Y-13567484D02*
X3246967Y-13567484D01*
X3246967Y-13567484D02*
X3180301Y-13643674D01*
X3180301Y-13643674D02*
X3208872Y-13643674D01*
X3208872Y-13643674D02*
X3227920Y-13653198D01*
X3227920Y-13653198D02*
X3237444Y-13662722D01*
X3237444Y-13662722D02*
X3246967Y-13681769D01*
X3246967Y-13681769D02*
X3246967Y-13729388D01*
X3246967Y-13729388D02*
X3237444Y-13748436D01*
X3237444Y-13748436D02*
X3227920Y-13757960D01*
X3227920Y-13757960D02*
X3208872Y-13767484D01*
X3208872Y-13767484D02*
X3151729Y-13767484D01*
X3151729Y-13767484D02*
X3132682Y-13757960D01*
X3132682Y-13757960D02*
X3123158Y-13748436D01*
X3313634Y-13567484D02*
X3437444Y-13567484D01*
X3437444Y-13567484D02*
X3370777Y-13643674D01*
X3370777Y-13643674D02*
X3399348Y-13643674D01*
X3399348Y-13643674D02*
X3418396Y-13653198D01*
X3418396Y-13653198D02*
X3427920Y-13662722D01*
X3427920Y-13662722D02*
X3437444Y-13681769D01*
X3437444Y-13681769D02*
X3437444Y-13729388D01*
X3437444Y-13729388D02*
X3427920Y-13748436D01*
X3427920Y-13748436D02*
X3418396Y-13757960D01*
X3418396Y-13757960D02*
X3399348Y-13767484D01*
X3399348Y-13767484D02*
X3342206Y-13767484D01*
X3342206Y-13767484D02*
X3323158Y-13757960D01*
X3323158Y-13757960D02*
X3313634Y-13748436D01*
X3513634Y-13567484D02*
X3513634Y-13605579D01*
X3589825Y-13567484D02*
X3589825Y-13605579D01*
X3885063Y-13843674D02*
X3875539Y-13834150D01*
X3875539Y-13834150D02*
X3856491Y-13805579D01*
X3856491Y-13805579D02*
X3846968Y-13786531D01*
X3846968Y-13786531D02*
X3837444Y-13757960D01*
X3837444Y-13757960D02*
X3827920Y-13710341D01*
X3827920Y-13710341D02*
X3827920Y-13672246D01*
X3827920Y-13672246D02*
X3837444Y-13624626D01*
X3837444Y-13624626D02*
X3846968Y-13596055D01*
X3846968Y-13596055D02*
X3856491Y-13577007D01*
X3856491Y-13577007D02*
X3875539Y-13548436D01*
X3875539Y-13548436D02*
X3885063Y-13538912D01*
X3989825Y-13653198D02*
X3970777Y-13643674D01*
X3970777Y-13643674D02*
X3961253Y-13634150D01*
X3961253Y-13634150D02*
X3951729Y-13615103D01*
X3951729Y-13615103D02*
X3951729Y-13605579D01*
X3951729Y-13605579D02*
X3961253Y-13586531D01*
X3961253Y-13586531D02*
X3970777Y-13577007D01*
X3970777Y-13577007D02*
X3989825Y-13567484D01*
X3989825Y-13567484D02*
X4027920Y-13567484D01*
X4027920Y-13567484D02*
X4046968Y-13577007D01*
X4046968Y-13577007D02*
X4056491Y-13586531D01*
X4056491Y-13586531D02*
X4066015Y-13605579D01*
X4066015Y-13605579D02*
X4066015Y-13615103D01*
X4066015Y-13615103D02*
X4056491Y-13634150D01*
X4056491Y-13634150D02*
X4046968Y-13643674D01*
X4046968Y-13643674D02*
X4027920Y-13653198D01*
X4027920Y-13653198D02*
X3989825Y-13653198D01*
X3989825Y-13653198D02*
X3970777Y-13662722D01*
X3970777Y-13662722D02*
X3961253Y-13672246D01*
X3961253Y-13672246D02*
X3951729Y-13691293D01*
X3951729Y-13691293D02*
X3951729Y-13729388D01*
X3951729Y-13729388D02*
X3961253Y-13748436D01*
X3961253Y-13748436D02*
X3970777Y-13757960D01*
X3970777Y-13757960D02*
X3989825Y-13767484D01*
X3989825Y-13767484D02*
X4027920Y-13767484D01*
X4027920Y-13767484D02*
X4046968Y-13757960D01*
X4046968Y-13757960D02*
X4056491Y-13748436D01*
X4056491Y-13748436D02*
X4066015Y-13729388D01*
X4066015Y-13729388D02*
X4066015Y-13691293D01*
X4066015Y-13691293D02*
X4056491Y-13672246D01*
X4056491Y-13672246D02*
X4046968Y-13662722D01*
X4046968Y-13662722D02*
X4027920Y-13653198D01*
X4304111Y-13767484D02*
X4304111Y-13567484D01*
X4389825Y-13767484D02*
X4389825Y-13662722D01*
X4389825Y-13662722D02*
X4380301Y-13643674D01*
X4380301Y-13643674D02*
X4361253Y-13634150D01*
X4361253Y-13634150D02*
X4332682Y-13634150D01*
X4332682Y-13634150D02*
X4313634Y-13643674D01*
X4313634Y-13643674D02*
X4304111Y-13653198D01*
X4513634Y-13767484D02*
X4494587Y-13757960D01*
X4494587Y-13757960D02*
X4485063Y-13748436D01*
X4485063Y-13748436D02*
X4475539Y-13729388D01*
X4475539Y-13729388D02*
X4475539Y-13672246D01*
X4475539Y-13672246D02*
X4485063Y-13653198D01*
X4485063Y-13653198D02*
X4494587Y-13643674D01*
X4494587Y-13643674D02*
X4513634Y-13634150D01*
X4513634Y-13634150D02*
X4542206Y-13634150D01*
X4542206Y-13634150D02*
X4561253Y-13643674D01*
X4561253Y-13643674D02*
X4570777Y-13653198D01*
X4570777Y-13653198D02*
X4580301Y-13672246D01*
X4580301Y-13672246D02*
X4580301Y-13729388D01*
X4580301Y-13729388D02*
X4570777Y-13748436D01*
X4570777Y-13748436D02*
X4561253Y-13757960D01*
X4561253Y-13757960D02*
X4542206Y-13767484D01*
X4542206Y-13767484D02*
X4513634Y-13767484D01*
X4694587Y-13767484D02*
X4675539Y-13757960D01*
X4675539Y-13757960D02*
X4666015Y-13738912D01*
X4666015Y-13738912D02*
X4666015Y-13567484D01*
X4846968Y-13757960D02*
X4827920Y-13767484D01*
X4827920Y-13767484D02*
X4789825Y-13767484D01*
X4789825Y-13767484D02*
X4770777Y-13757960D01*
X4770777Y-13757960D02*
X4761253Y-13738912D01*
X4761253Y-13738912D02*
X4761253Y-13662722D01*
X4761253Y-13662722D02*
X4770777Y-13643674D01*
X4770777Y-13643674D02*
X4789825Y-13634150D01*
X4789825Y-13634150D02*
X4827920Y-13634150D01*
X4827920Y-13634150D02*
X4846968Y-13643674D01*
X4846968Y-13643674D02*
X4856492Y-13662722D01*
X4856492Y-13662722D02*
X4856492Y-13681769D01*
X4856492Y-13681769D02*
X4761253Y-13700817D01*
X4932682Y-13757960D02*
X4951730Y-13767484D01*
X4951730Y-13767484D02*
X4989825Y-13767484D01*
X4989825Y-13767484D02*
X5008873Y-13757960D01*
X5008873Y-13757960D02*
X5018396Y-13738912D01*
X5018396Y-13738912D02*
X5018396Y-13729388D01*
X5018396Y-13729388D02*
X5008873Y-13710341D01*
X5008873Y-13710341D02*
X4989825Y-13700817D01*
X4989825Y-13700817D02*
X4961253Y-13700817D01*
X4961253Y-13700817D02*
X4942206Y-13691293D01*
X4942206Y-13691293D02*
X4932682Y-13672246D01*
X4932682Y-13672246D02*
X4932682Y-13662722D01*
X4932682Y-13662722D02*
X4942206Y-13643674D01*
X4942206Y-13643674D02*
X4961253Y-13634150D01*
X4961253Y-13634150D02*
X4989825Y-13634150D01*
X4989825Y-13634150D02*
X5008873Y-13643674D01*
X5085063Y-13843674D02*
X5094587Y-13834150D01*
X5094587Y-13834150D02*
X5113634Y-13805579D01*
X5113634Y-13805579D02*
X5123158Y-13786531D01*
X5123158Y-13786531D02*
X5132682Y-13757960D01*
X5132682Y-13757960D02*
X5142206Y-13710341D01*
X5142206Y-13710341D02*
X5142206Y-13672246D01*
X5142206Y-13672246D02*
X5132682Y-13624626D01*
X5132682Y-13624626D02*
X5123158Y-13596055D01*
X5123158Y-13596055D02*
X5113634Y-13577007D01*
X5113634Y-13577007D02*
X5094587Y-13548436D01*
X5094587Y-13548436D02*
X5085063Y-13538912D01*
D14*
X237500Y-14012500D02*
X310000Y-13940000D01*
X237500Y-13867500D01*
X165000Y-13940000D01*
X237500Y-14012500D01*
D11*
X675539Y-14031484D02*
X561253Y-14031484D01*
X618396Y-14031484D02*
X618396Y-13831484D01*
X618396Y-13831484D02*
X599348Y-13860055D01*
X599348Y-13860055D02*
X580301Y-13879103D01*
X580301Y-13879103D02*
X561253Y-13888626D01*
X761253Y-14012436D02*
X770777Y-14021960D01*
X770777Y-14021960D02*
X761253Y-14031484D01*
X761253Y-14031484D02*
X751729Y-14021960D01*
X751729Y-14021960D02*
X761253Y-14012436D01*
X761253Y-14012436D02*
X761253Y-14031484D01*
X942205Y-13898150D02*
X942205Y-14031484D01*
X894586Y-13821960D02*
X846967Y-13964817D01*
X846967Y-13964817D02*
X970777Y-13964817D01*
X1142205Y-13831484D02*
X1046967Y-13831484D01*
X1046967Y-13831484D02*
X1037443Y-13926722D01*
X1037443Y-13926722D02*
X1046967Y-13917198D01*
X1046967Y-13917198D02*
X1066015Y-13907674D01*
X1066015Y-13907674D02*
X1113634Y-13907674D01*
X1113634Y-13907674D02*
X1132682Y-13917198D01*
X1132682Y-13917198D02*
X1142205Y-13926722D01*
X1142205Y-13926722D02*
X1151729Y-13945769D01*
X1151729Y-13945769D02*
X1151729Y-13993388D01*
X1151729Y-13993388D02*
X1142205Y-14012436D01*
X1142205Y-14012436D02*
X1132682Y-14021960D01*
X1132682Y-14021960D02*
X1113634Y-14031484D01*
X1113634Y-14031484D02*
X1066015Y-14031484D01*
X1066015Y-14031484D02*
X1046967Y-14021960D01*
X1046967Y-14021960D02*
X1037443Y-14012436D01*
X1275539Y-13831484D02*
X1294586Y-13831484D01*
X1294586Y-13831484D02*
X1313634Y-13841007D01*
X1313634Y-13841007D02*
X1323158Y-13850531D01*
X1323158Y-13850531D02*
X1332682Y-13869579D01*
X1332682Y-13869579D02*
X1342205Y-13907674D01*
X1342205Y-13907674D02*
X1342205Y-13955293D01*
X1342205Y-13955293D02*
X1332682Y-13993388D01*
X1332682Y-13993388D02*
X1323158Y-14012436D01*
X1323158Y-14012436D02*
X1313634Y-14021960D01*
X1313634Y-14021960D02*
X1294586Y-14031484D01*
X1294586Y-14031484D02*
X1275539Y-14031484D01*
X1275539Y-14031484D02*
X1256491Y-14021960D01*
X1256491Y-14021960D02*
X1246967Y-14012436D01*
X1246967Y-14012436D02*
X1237444Y-13993388D01*
X1237444Y-13993388D02*
X1227920Y-13955293D01*
X1227920Y-13955293D02*
X1227920Y-13907674D01*
X1227920Y-13907674D02*
X1237444Y-13869579D01*
X1237444Y-13869579D02*
X1246967Y-13850531D01*
X1246967Y-13850531D02*
X1256491Y-13841007D01*
X1256491Y-13841007D02*
X1275539Y-13831484D01*
X1427920Y-14031484D02*
X1427920Y-13898150D01*
X1427920Y-13917198D02*
X1437443Y-13907674D01*
X1437443Y-13907674D02*
X1456491Y-13898150D01*
X1456491Y-13898150D02*
X1485063Y-13898150D01*
X1485063Y-13898150D02*
X1504110Y-13907674D01*
X1504110Y-13907674D02*
X1513634Y-13926722D01*
X1513634Y-13926722D02*
X1513634Y-14031484D01*
X1513634Y-13926722D02*
X1523158Y-13907674D01*
X1523158Y-13907674D02*
X1542205Y-13898150D01*
X1542205Y-13898150D02*
X1570777Y-13898150D01*
X1570777Y-13898150D02*
X1589824Y-13907674D01*
X1589824Y-13907674D02*
X1599348Y-13926722D01*
X1599348Y-13926722D02*
X1599348Y-14031484D01*
X1694586Y-14031484D02*
X1694586Y-13898150D01*
X1694586Y-13917198D02*
X1704110Y-13907674D01*
X1704110Y-13907674D02*
X1723158Y-13898150D01*
X1723158Y-13898150D02*
X1751729Y-13898150D01*
X1751729Y-13898150D02*
X1770777Y-13907674D01*
X1770777Y-13907674D02*
X1780301Y-13926722D01*
X1780301Y-13926722D02*
X1780301Y-14031484D01*
X1780301Y-13926722D02*
X1789824Y-13907674D01*
X1789824Y-13907674D02*
X1808872Y-13898150D01*
X1808872Y-13898150D02*
X1837443Y-13898150D01*
X1837443Y-13898150D02*
X1856491Y-13907674D01*
X1856491Y-13907674D02*
X1866015Y-13926722D01*
X1866015Y-13926722D02*
X1866015Y-14031484D01*
X2256491Y-13821960D02*
X2085063Y-14079103D01*
X2513634Y-13831484D02*
X2532682Y-13831484D01*
X2532682Y-13831484D02*
X2551729Y-13841007D01*
X2551729Y-13841007D02*
X2561253Y-13850531D01*
X2561253Y-13850531D02*
X2570777Y-13869579D01*
X2570777Y-13869579D02*
X2580301Y-13907674D01*
X2580301Y-13907674D02*
X2580301Y-13955293D01*
X2580301Y-13955293D02*
X2570777Y-13993388D01*
X2570777Y-13993388D02*
X2561253Y-14012436D01*
X2561253Y-14012436D02*
X2551729Y-14021960D01*
X2551729Y-14021960D02*
X2532682Y-14031484D01*
X2532682Y-14031484D02*
X2513634Y-14031484D01*
X2513634Y-14031484D02*
X2494587Y-14021960D01*
X2494587Y-14021960D02*
X2485063Y-14012436D01*
X2485063Y-14012436D02*
X2475539Y-13993388D01*
X2475539Y-13993388D02*
X2466015Y-13955293D01*
X2466015Y-13955293D02*
X2466015Y-13907674D01*
X2466015Y-13907674D02*
X2475539Y-13869579D01*
X2475539Y-13869579D02*
X2485063Y-13850531D01*
X2485063Y-13850531D02*
X2494587Y-13841007D01*
X2494587Y-13841007D02*
X2513634Y-13831484D01*
X2666015Y-14012436D02*
X2675539Y-14021960D01*
X2675539Y-14021960D02*
X2666015Y-14031484D01*
X2666015Y-14031484D02*
X2656491Y-14021960D01*
X2656491Y-14021960D02*
X2666015Y-14012436D01*
X2666015Y-14012436D02*
X2666015Y-14031484D01*
X2799348Y-13831484D02*
X2818396Y-13831484D01*
X2818396Y-13831484D02*
X2837444Y-13841007D01*
X2837444Y-13841007D02*
X2846967Y-13850531D01*
X2846967Y-13850531D02*
X2856491Y-13869579D01*
X2856491Y-13869579D02*
X2866015Y-13907674D01*
X2866015Y-13907674D02*
X2866015Y-13955293D01*
X2866015Y-13955293D02*
X2856491Y-13993388D01*
X2856491Y-13993388D02*
X2846967Y-14012436D01*
X2846967Y-14012436D02*
X2837444Y-14021960D01*
X2837444Y-14021960D02*
X2818396Y-14031484D01*
X2818396Y-14031484D02*
X2799348Y-14031484D01*
X2799348Y-14031484D02*
X2780301Y-14021960D01*
X2780301Y-14021960D02*
X2770777Y-14012436D01*
X2770777Y-14012436D02*
X2761253Y-13993388D01*
X2761253Y-13993388D02*
X2751729Y-13955293D01*
X2751729Y-13955293D02*
X2751729Y-13907674D01*
X2751729Y-13907674D02*
X2761253Y-13869579D01*
X2761253Y-13869579D02*
X2770777Y-13850531D01*
X2770777Y-13850531D02*
X2780301Y-13841007D01*
X2780301Y-13841007D02*
X2799348Y-13831484D01*
X3046967Y-13831484D02*
X2951729Y-13831484D01*
X2951729Y-13831484D02*
X2942206Y-13926722D01*
X2942206Y-13926722D02*
X2951729Y-13917198D01*
X2951729Y-13917198D02*
X2970777Y-13907674D01*
X2970777Y-13907674D02*
X3018396Y-13907674D01*
X3018396Y-13907674D02*
X3037444Y-13917198D01*
X3037444Y-13917198D02*
X3046967Y-13926722D01*
X3046967Y-13926722D02*
X3056491Y-13945769D01*
X3056491Y-13945769D02*
X3056491Y-13993388D01*
X3056491Y-13993388D02*
X3046967Y-14012436D01*
X3046967Y-14012436D02*
X3037444Y-14021960D01*
X3037444Y-14021960D02*
X3018396Y-14031484D01*
X3018396Y-14031484D02*
X2970777Y-14031484D01*
X2970777Y-14031484D02*
X2951729Y-14021960D01*
X2951729Y-14021960D02*
X2942206Y-14012436D01*
X3123158Y-13831484D02*
X3256491Y-13831484D01*
X3256491Y-13831484D02*
X3170777Y-14031484D01*
X3437444Y-14031484D02*
X3323158Y-14031484D01*
X3380301Y-14031484D02*
X3380301Y-13831484D01*
X3380301Y-13831484D02*
X3361253Y-13860055D01*
X3361253Y-13860055D02*
X3342206Y-13879103D01*
X3342206Y-13879103D02*
X3323158Y-13888626D01*
X3513634Y-13831484D02*
X3513634Y-13869579D01*
X3589825Y-13831484D02*
X3589825Y-13869579D01*
X3885063Y-14107674D02*
X3875539Y-14098150D01*
X3875539Y-14098150D02*
X3856491Y-14069579D01*
X3856491Y-14069579D02*
X3846968Y-14050531D01*
X3846968Y-14050531D02*
X3837444Y-14021960D01*
X3837444Y-14021960D02*
X3827920Y-13974341D01*
X3827920Y-13974341D02*
X3827920Y-13936246D01*
X3827920Y-13936246D02*
X3837444Y-13888626D01*
X3837444Y-13888626D02*
X3846968Y-13860055D01*
X3846968Y-13860055D02*
X3856491Y-13841007D01*
X3856491Y-13841007D02*
X3875539Y-13812436D01*
X3875539Y-13812436D02*
X3885063Y-13802912D01*
X4056491Y-13831484D02*
X3961253Y-13831484D01*
X3961253Y-13831484D02*
X3951729Y-13926722D01*
X3951729Y-13926722D02*
X3961253Y-13917198D01*
X3961253Y-13917198D02*
X3980301Y-13907674D01*
X3980301Y-13907674D02*
X4027920Y-13907674D01*
X4027920Y-13907674D02*
X4046968Y-13917198D01*
X4046968Y-13917198D02*
X4056491Y-13926722D01*
X4056491Y-13926722D02*
X4066015Y-13945769D01*
X4066015Y-13945769D02*
X4066015Y-13993388D01*
X4066015Y-13993388D02*
X4056491Y-14012436D01*
X4056491Y-14012436D02*
X4046968Y-14021960D01*
X4046968Y-14021960D02*
X4027920Y-14031484D01*
X4027920Y-14031484D02*
X3980301Y-14031484D01*
X3980301Y-14031484D02*
X3961253Y-14021960D01*
X3961253Y-14021960D02*
X3951729Y-14012436D01*
X4304111Y-14031484D02*
X4304111Y-13831484D01*
X4389825Y-14031484D02*
X4389825Y-13926722D01*
X4389825Y-13926722D02*
X4380301Y-13907674D01*
X4380301Y-13907674D02*
X4361253Y-13898150D01*
X4361253Y-13898150D02*
X4332682Y-13898150D01*
X4332682Y-13898150D02*
X4313634Y-13907674D01*
X4313634Y-13907674D02*
X4304111Y-13917198D01*
X4513634Y-14031484D02*
X4494587Y-14021960D01*
X4494587Y-14021960D02*
X4485063Y-14012436D01*
X4485063Y-14012436D02*
X4475539Y-13993388D01*
X4475539Y-13993388D02*
X4475539Y-13936246D01*
X4475539Y-13936246D02*
X4485063Y-13917198D01*
X4485063Y-13917198D02*
X4494587Y-13907674D01*
X4494587Y-13907674D02*
X4513634Y-13898150D01*
X4513634Y-13898150D02*
X4542206Y-13898150D01*
X4542206Y-13898150D02*
X4561253Y-13907674D01*
X4561253Y-13907674D02*
X4570777Y-13917198D01*
X4570777Y-13917198D02*
X4580301Y-13936246D01*
X4580301Y-13936246D02*
X4580301Y-13993388D01*
X4580301Y-13993388D02*
X4570777Y-14012436D01*
X4570777Y-14012436D02*
X4561253Y-14021960D01*
X4561253Y-14021960D02*
X4542206Y-14031484D01*
X4542206Y-14031484D02*
X4513634Y-14031484D01*
X4694587Y-14031484D02*
X4675539Y-14021960D01*
X4675539Y-14021960D02*
X4666015Y-14002912D01*
X4666015Y-14002912D02*
X4666015Y-13831484D01*
X4846968Y-14021960D02*
X4827920Y-14031484D01*
X4827920Y-14031484D02*
X4789825Y-14031484D01*
X4789825Y-14031484D02*
X4770777Y-14021960D01*
X4770777Y-14021960D02*
X4761253Y-14002912D01*
X4761253Y-14002912D02*
X4761253Y-13926722D01*
X4761253Y-13926722D02*
X4770777Y-13907674D01*
X4770777Y-13907674D02*
X4789825Y-13898150D01*
X4789825Y-13898150D02*
X4827920Y-13898150D01*
X4827920Y-13898150D02*
X4846968Y-13907674D01*
X4846968Y-13907674D02*
X4856492Y-13926722D01*
X4856492Y-13926722D02*
X4856492Y-13945769D01*
X4856492Y-13945769D02*
X4761253Y-13964817D01*
X4932682Y-14021960D02*
X4951730Y-14031484D01*
X4951730Y-14031484D02*
X4989825Y-14031484D01*
X4989825Y-14031484D02*
X5008873Y-14021960D01*
X5008873Y-14021960D02*
X5018396Y-14002912D01*
X5018396Y-14002912D02*
X5018396Y-13993388D01*
X5018396Y-13993388D02*
X5008873Y-13974341D01*
X5008873Y-13974341D02*
X4989825Y-13964817D01*
X4989825Y-13964817D02*
X4961253Y-13964817D01*
X4961253Y-13964817D02*
X4942206Y-13955293D01*
X4942206Y-13955293D02*
X4932682Y-13936246D01*
X4932682Y-13936246D02*
X4932682Y-13926722D01*
X4932682Y-13926722D02*
X4942206Y-13907674D01*
X4942206Y-13907674D02*
X4961253Y-13898150D01*
X4961253Y-13898150D02*
X4989825Y-13898150D01*
X4989825Y-13898150D02*
X5008873Y-13907674D01*
X5085063Y-14107674D02*
X5094587Y-14098150D01*
X5094587Y-14098150D02*
X5113634Y-14069579D01*
X5113634Y-14069579D02*
X5123158Y-14050531D01*
X5123158Y-14050531D02*
X5132682Y-14021960D01*
X5132682Y-14021960D02*
X5142206Y-13974341D01*
X5142206Y-13974341D02*
X5142206Y-13936246D01*
X5142206Y-13936246D02*
X5132682Y-13888626D01*
X5132682Y-13888626D02*
X5123158Y-13860055D01*
X5123158Y-13860055D02*
X5113634Y-13841007D01*
X5113634Y-13841007D02*
X5094587Y-13812436D01*
X5094587Y-13812436D02*
X5085063Y-13802912D01*
D15*
X160000Y-14130000D02*
X310000Y-14280000D01*
X310000Y-14130000D02*
X160000Y-14280000D01*
X310000Y-14205000D02*
G75*
G02*
X160000Y-14205000I-75000J0D01*
G01*
X160000Y-14205000D02*
G75*
G02*
X310000Y-14205000I75000J0D01*
G01*
D11*
X675539Y-14296484D02*
X561253Y-14296484D01*
X618396Y-14296484D02*
X618396Y-14096484D01*
X618396Y-14096484D02*
X599348Y-14125055D01*
X599348Y-14125055D02*
X580301Y-14144103D01*
X580301Y-14144103D02*
X561253Y-14153626D01*
X761253Y-14277436D02*
X770777Y-14286960D01*
X770777Y-14286960D02*
X761253Y-14296484D01*
X761253Y-14296484D02*
X751729Y-14286960D01*
X751729Y-14286960D02*
X761253Y-14277436D01*
X761253Y-14277436D02*
X761253Y-14296484D01*
X951729Y-14096484D02*
X856491Y-14096484D01*
X856491Y-14096484D02*
X846967Y-14191722D01*
X846967Y-14191722D02*
X856491Y-14182198D01*
X856491Y-14182198D02*
X875539Y-14172674D01*
X875539Y-14172674D02*
X923158Y-14172674D01*
X923158Y-14172674D02*
X942205Y-14182198D01*
X942205Y-14182198D02*
X951729Y-14191722D01*
X951729Y-14191722D02*
X961253Y-14210769D01*
X961253Y-14210769D02*
X961253Y-14258388D01*
X961253Y-14258388D02*
X951729Y-14277436D01*
X951729Y-14277436D02*
X942205Y-14286960D01*
X942205Y-14286960D02*
X923158Y-14296484D01*
X923158Y-14296484D02*
X875539Y-14296484D01*
X875539Y-14296484D02*
X856491Y-14286960D01*
X856491Y-14286960D02*
X846967Y-14277436D01*
X1085063Y-14096484D02*
X1104110Y-14096484D01*
X1104110Y-14096484D02*
X1123158Y-14106007D01*
X1123158Y-14106007D02*
X1132682Y-14115531D01*
X1132682Y-14115531D02*
X1142205Y-14134579D01*
X1142205Y-14134579D02*
X1151729Y-14172674D01*
X1151729Y-14172674D02*
X1151729Y-14220293D01*
X1151729Y-14220293D02*
X1142205Y-14258388D01*
X1142205Y-14258388D02*
X1132682Y-14277436D01*
X1132682Y-14277436D02*
X1123158Y-14286960D01*
X1123158Y-14286960D02*
X1104110Y-14296484D01*
X1104110Y-14296484D02*
X1085063Y-14296484D01*
X1085063Y-14296484D02*
X1066015Y-14286960D01*
X1066015Y-14286960D02*
X1056491Y-14277436D01*
X1056491Y-14277436D02*
X1046967Y-14258388D01*
X1046967Y-14258388D02*
X1037443Y-14220293D01*
X1037443Y-14220293D02*
X1037443Y-14172674D01*
X1037443Y-14172674D02*
X1046967Y-14134579D01*
X1046967Y-14134579D02*
X1056491Y-14115531D01*
X1056491Y-14115531D02*
X1066015Y-14106007D01*
X1066015Y-14106007D02*
X1085063Y-14096484D01*
X1275539Y-14096484D02*
X1294586Y-14096484D01*
X1294586Y-14096484D02*
X1313634Y-14106007D01*
X1313634Y-14106007D02*
X1323158Y-14115531D01*
X1323158Y-14115531D02*
X1332682Y-14134579D01*
X1332682Y-14134579D02*
X1342205Y-14172674D01*
X1342205Y-14172674D02*
X1342205Y-14220293D01*
X1342205Y-14220293D02*
X1332682Y-14258388D01*
X1332682Y-14258388D02*
X1323158Y-14277436D01*
X1323158Y-14277436D02*
X1313634Y-14286960D01*
X1313634Y-14286960D02*
X1294586Y-14296484D01*
X1294586Y-14296484D02*
X1275539Y-14296484D01*
X1275539Y-14296484D02*
X1256491Y-14286960D01*
X1256491Y-14286960D02*
X1246967Y-14277436D01*
X1246967Y-14277436D02*
X1237444Y-14258388D01*
X1237444Y-14258388D02*
X1227920Y-14220293D01*
X1227920Y-14220293D02*
X1227920Y-14172674D01*
X1227920Y-14172674D02*
X1237444Y-14134579D01*
X1237444Y-14134579D02*
X1246967Y-14115531D01*
X1246967Y-14115531D02*
X1256491Y-14106007D01*
X1256491Y-14106007D02*
X1275539Y-14096484D01*
X1427920Y-14296484D02*
X1427920Y-14163150D01*
X1427920Y-14182198D02*
X1437443Y-14172674D01*
X1437443Y-14172674D02*
X1456491Y-14163150D01*
X1456491Y-14163150D02*
X1485063Y-14163150D01*
X1485063Y-14163150D02*
X1504110Y-14172674D01*
X1504110Y-14172674D02*
X1513634Y-14191722D01*
X1513634Y-14191722D02*
X1513634Y-14296484D01*
X1513634Y-14191722D02*
X1523158Y-14172674D01*
X1523158Y-14172674D02*
X1542205Y-14163150D01*
X1542205Y-14163150D02*
X1570777Y-14163150D01*
X1570777Y-14163150D02*
X1589824Y-14172674D01*
X1589824Y-14172674D02*
X1599348Y-14191722D01*
X1599348Y-14191722D02*
X1599348Y-14296484D01*
X1694586Y-14296484D02*
X1694586Y-14163150D01*
X1694586Y-14182198D02*
X1704110Y-14172674D01*
X1704110Y-14172674D02*
X1723158Y-14163150D01*
X1723158Y-14163150D02*
X1751729Y-14163150D01*
X1751729Y-14163150D02*
X1770777Y-14172674D01*
X1770777Y-14172674D02*
X1780301Y-14191722D01*
X1780301Y-14191722D02*
X1780301Y-14296484D01*
X1780301Y-14191722D02*
X1789824Y-14172674D01*
X1789824Y-14172674D02*
X1808872Y-14163150D01*
X1808872Y-14163150D02*
X1837443Y-14163150D01*
X1837443Y-14163150D02*
X1856491Y-14172674D01*
X1856491Y-14172674D02*
X1866015Y-14191722D01*
X1866015Y-14191722D02*
X1866015Y-14296484D01*
X2256491Y-14086960D02*
X2085063Y-14344103D01*
X2513634Y-14096484D02*
X2532682Y-14096484D01*
X2532682Y-14096484D02*
X2551729Y-14106007D01*
X2551729Y-14106007D02*
X2561253Y-14115531D01*
X2561253Y-14115531D02*
X2570777Y-14134579D01*
X2570777Y-14134579D02*
X2580301Y-14172674D01*
X2580301Y-14172674D02*
X2580301Y-14220293D01*
X2580301Y-14220293D02*
X2570777Y-14258388D01*
X2570777Y-14258388D02*
X2561253Y-14277436D01*
X2561253Y-14277436D02*
X2551729Y-14286960D01*
X2551729Y-14286960D02*
X2532682Y-14296484D01*
X2532682Y-14296484D02*
X2513634Y-14296484D01*
X2513634Y-14296484D02*
X2494587Y-14286960D01*
X2494587Y-14286960D02*
X2485063Y-14277436D01*
X2485063Y-14277436D02*
X2475539Y-14258388D01*
X2475539Y-14258388D02*
X2466015Y-14220293D01*
X2466015Y-14220293D02*
X2466015Y-14172674D01*
X2466015Y-14172674D02*
X2475539Y-14134579D01*
X2475539Y-14134579D02*
X2485063Y-14115531D01*
X2485063Y-14115531D02*
X2494587Y-14106007D01*
X2494587Y-14106007D02*
X2513634Y-14096484D01*
X2666015Y-14277436D02*
X2675539Y-14286960D01*
X2675539Y-14286960D02*
X2666015Y-14296484D01*
X2666015Y-14296484D02*
X2656491Y-14286960D01*
X2656491Y-14286960D02*
X2666015Y-14277436D01*
X2666015Y-14277436D02*
X2666015Y-14296484D01*
X2799348Y-14096484D02*
X2818396Y-14096484D01*
X2818396Y-14096484D02*
X2837444Y-14106007D01*
X2837444Y-14106007D02*
X2846967Y-14115531D01*
X2846967Y-14115531D02*
X2856491Y-14134579D01*
X2856491Y-14134579D02*
X2866015Y-14172674D01*
X2866015Y-14172674D02*
X2866015Y-14220293D01*
X2866015Y-14220293D02*
X2856491Y-14258388D01*
X2856491Y-14258388D02*
X2846967Y-14277436D01*
X2846967Y-14277436D02*
X2837444Y-14286960D01*
X2837444Y-14286960D02*
X2818396Y-14296484D01*
X2818396Y-14296484D02*
X2799348Y-14296484D01*
X2799348Y-14296484D02*
X2780301Y-14286960D01*
X2780301Y-14286960D02*
X2770777Y-14277436D01*
X2770777Y-14277436D02*
X2761253Y-14258388D01*
X2761253Y-14258388D02*
X2751729Y-14220293D01*
X2751729Y-14220293D02*
X2751729Y-14172674D01*
X2751729Y-14172674D02*
X2761253Y-14134579D01*
X2761253Y-14134579D02*
X2770777Y-14115531D01*
X2770777Y-14115531D02*
X2780301Y-14106007D01*
X2780301Y-14106007D02*
X2799348Y-14096484D01*
X3046967Y-14096484D02*
X2951729Y-14096484D01*
X2951729Y-14096484D02*
X2942206Y-14191722D01*
X2942206Y-14191722D02*
X2951729Y-14182198D01*
X2951729Y-14182198D02*
X2970777Y-14172674D01*
X2970777Y-14172674D02*
X3018396Y-14172674D01*
X3018396Y-14172674D02*
X3037444Y-14182198D01*
X3037444Y-14182198D02*
X3046967Y-14191722D01*
X3046967Y-14191722D02*
X3056491Y-14210769D01*
X3056491Y-14210769D02*
X3056491Y-14258388D01*
X3056491Y-14258388D02*
X3046967Y-14277436D01*
X3046967Y-14277436D02*
X3037444Y-14286960D01*
X3037444Y-14286960D02*
X3018396Y-14296484D01*
X3018396Y-14296484D02*
X2970777Y-14296484D01*
X2970777Y-14296484D02*
X2951729Y-14286960D01*
X2951729Y-14286960D02*
X2942206Y-14277436D01*
X3151729Y-14296484D02*
X3189825Y-14296484D01*
X3189825Y-14296484D02*
X3208872Y-14286960D01*
X3208872Y-14286960D02*
X3218396Y-14277436D01*
X3218396Y-14277436D02*
X3237444Y-14248865D01*
X3237444Y-14248865D02*
X3246967Y-14210769D01*
X3246967Y-14210769D02*
X3246967Y-14134579D01*
X3246967Y-14134579D02*
X3237444Y-14115531D01*
X3237444Y-14115531D02*
X3227920Y-14106007D01*
X3227920Y-14106007D02*
X3208872Y-14096484D01*
X3208872Y-14096484D02*
X3170777Y-14096484D01*
X3170777Y-14096484D02*
X3151729Y-14106007D01*
X3151729Y-14106007D02*
X3142206Y-14115531D01*
X3142206Y-14115531D02*
X3132682Y-14134579D01*
X3132682Y-14134579D02*
X3132682Y-14182198D01*
X3132682Y-14182198D02*
X3142206Y-14201246D01*
X3142206Y-14201246D02*
X3151729Y-14210769D01*
X3151729Y-14210769D02*
X3170777Y-14220293D01*
X3170777Y-14220293D02*
X3208872Y-14220293D01*
X3208872Y-14220293D02*
X3227920Y-14210769D01*
X3227920Y-14210769D02*
X3237444Y-14201246D01*
X3237444Y-14201246D02*
X3246967Y-14182198D01*
X3437444Y-14296484D02*
X3323158Y-14296484D01*
X3380301Y-14296484D02*
X3380301Y-14096484D01*
X3380301Y-14096484D02*
X3361253Y-14125055D01*
X3361253Y-14125055D02*
X3342206Y-14144103D01*
X3342206Y-14144103D02*
X3323158Y-14153626D01*
X3513634Y-14096484D02*
X3513634Y-14134579D01*
X3589825Y-14096484D02*
X3589825Y-14134579D01*
X3885063Y-14372674D02*
X3875539Y-14363150D01*
X3875539Y-14363150D02*
X3856491Y-14334579D01*
X3856491Y-14334579D02*
X3846968Y-14315531D01*
X3846968Y-14315531D02*
X3837444Y-14286960D01*
X3837444Y-14286960D02*
X3827920Y-14239341D01*
X3827920Y-14239341D02*
X3827920Y-14201246D01*
X3827920Y-14201246D02*
X3837444Y-14153626D01*
X3837444Y-14153626D02*
X3846968Y-14125055D01*
X3846968Y-14125055D02*
X3856491Y-14106007D01*
X3856491Y-14106007D02*
X3875539Y-14077436D01*
X3875539Y-14077436D02*
X3885063Y-14067912D01*
X4046968Y-14163150D02*
X4046968Y-14296484D01*
X3999348Y-14086960D02*
X3951729Y-14229817D01*
X3951729Y-14229817D02*
X4075539Y-14229817D01*
X4304111Y-14296484D02*
X4304111Y-14096484D01*
X4389825Y-14296484D02*
X4389825Y-14191722D01*
X4389825Y-14191722D02*
X4380301Y-14172674D01*
X4380301Y-14172674D02*
X4361253Y-14163150D01*
X4361253Y-14163150D02*
X4332682Y-14163150D01*
X4332682Y-14163150D02*
X4313634Y-14172674D01*
X4313634Y-14172674D02*
X4304111Y-14182198D01*
X4513634Y-14296484D02*
X4494587Y-14286960D01*
X4494587Y-14286960D02*
X4485063Y-14277436D01*
X4485063Y-14277436D02*
X4475539Y-14258388D01*
X4475539Y-14258388D02*
X4475539Y-14201246D01*
X4475539Y-14201246D02*
X4485063Y-14182198D01*
X4485063Y-14182198D02*
X4494587Y-14172674D01*
X4494587Y-14172674D02*
X4513634Y-14163150D01*
X4513634Y-14163150D02*
X4542206Y-14163150D01*
X4542206Y-14163150D02*
X4561253Y-14172674D01*
X4561253Y-14172674D02*
X4570777Y-14182198D01*
X4570777Y-14182198D02*
X4580301Y-14201246D01*
X4580301Y-14201246D02*
X4580301Y-14258388D01*
X4580301Y-14258388D02*
X4570777Y-14277436D01*
X4570777Y-14277436D02*
X4561253Y-14286960D01*
X4561253Y-14286960D02*
X4542206Y-14296484D01*
X4542206Y-14296484D02*
X4513634Y-14296484D01*
X4694587Y-14296484D02*
X4675539Y-14286960D01*
X4675539Y-14286960D02*
X4666015Y-14267912D01*
X4666015Y-14267912D02*
X4666015Y-14096484D01*
X4846968Y-14286960D02*
X4827920Y-14296484D01*
X4827920Y-14296484D02*
X4789825Y-14296484D01*
X4789825Y-14296484D02*
X4770777Y-14286960D01*
X4770777Y-14286960D02*
X4761253Y-14267912D01*
X4761253Y-14267912D02*
X4761253Y-14191722D01*
X4761253Y-14191722D02*
X4770777Y-14172674D01*
X4770777Y-14172674D02*
X4789825Y-14163150D01*
X4789825Y-14163150D02*
X4827920Y-14163150D01*
X4827920Y-14163150D02*
X4846968Y-14172674D01*
X4846968Y-14172674D02*
X4856492Y-14191722D01*
X4856492Y-14191722D02*
X4856492Y-14210769D01*
X4856492Y-14210769D02*
X4761253Y-14229817D01*
X4932682Y-14286960D02*
X4951730Y-14296484D01*
X4951730Y-14296484D02*
X4989825Y-14296484D01*
X4989825Y-14296484D02*
X5008873Y-14286960D01*
X5008873Y-14286960D02*
X5018396Y-14267912D01*
X5018396Y-14267912D02*
X5018396Y-14258388D01*
X5018396Y-14258388D02*
X5008873Y-14239341D01*
X5008873Y-14239341D02*
X4989825Y-14229817D01*
X4989825Y-14229817D02*
X4961253Y-14229817D01*
X4961253Y-14229817D02*
X4942206Y-14220293D01*
X4942206Y-14220293D02*
X4932682Y-14201246D01*
X4932682Y-14201246D02*
X4932682Y-14191722D01*
X4932682Y-14191722D02*
X4942206Y-14172674D01*
X4942206Y-14172674D02*
X4961253Y-14163150D01*
X4961253Y-14163150D02*
X4989825Y-14163150D01*
X4989825Y-14163150D02*
X5008873Y-14172674D01*
X5085063Y-14372674D02*
X5094587Y-14363150D01*
X5094587Y-14363150D02*
X5113634Y-14334579D01*
X5113634Y-14334579D02*
X5123158Y-14315531D01*
X5123158Y-14315531D02*
X5132682Y-14286960D01*
X5132682Y-14286960D02*
X5142206Y-14239341D01*
X5142206Y-14239341D02*
X5142206Y-14201246D01*
X5142206Y-14201246D02*
X5132682Y-14153626D01*
X5132682Y-14153626D02*
X5123158Y-14125055D01*
X5123158Y-14125055D02*
X5113634Y-14106007D01*
X5113634Y-14106007D02*
X5094587Y-14077436D01*
X5094587Y-14077436D02*
X5085063Y-14067912D01*
D16*
X145000Y-14392500D02*
X310000Y-14557500D01*
X310000Y-14392500D02*
X145000Y-14557500D01*
X227500Y-14392500D02*
X227500Y-14557500D01*
X145000Y-14475000D02*
X310000Y-14475000D01*
D11*
X675539Y-14566484D02*
X561253Y-14566484D01*
X618396Y-14566484D02*
X618396Y-14366484D01*
X618396Y-14366484D02*
X599348Y-14395055D01*
X599348Y-14395055D02*
X580301Y-14414103D01*
X580301Y-14414103D02*
X561253Y-14423626D01*
X761253Y-14547436D02*
X770777Y-14556960D01*
X770777Y-14556960D02*
X761253Y-14566484D01*
X761253Y-14566484D02*
X751729Y-14556960D01*
X751729Y-14556960D02*
X761253Y-14547436D01*
X761253Y-14547436D02*
X761253Y-14566484D01*
X942205Y-14366484D02*
X904110Y-14366484D01*
X904110Y-14366484D02*
X885062Y-14376007D01*
X885062Y-14376007D02*
X875539Y-14385531D01*
X875539Y-14385531D02*
X856491Y-14414103D01*
X856491Y-14414103D02*
X846967Y-14452198D01*
X846967Y-14452198D02*
X846967Y-14528388D01*
X846967Y-14528388D02*
X856491Y-14547436D01*
X856491Y-14547436D02*
X866015Y-14556960D01*
X866015Y-14556960D02*
X885062Y-14566484D01*
X885062Y-14566484D02*
X923158Y-14566484D01*
X923158Y-14566484D02*
X942205Y-14556960D01*
X942205Y-14556960D02*
X951729Y-14547436D01*
X951729Y-14547436D02*
X961253Y-14528388D01*
X961253Y-14528388D02*
X961253Y-14480769D01*
X961253Y-14480769D02*
X951729Y-14461722D01*
X951729Y-14461722D02*
X942205Y-14452198D01*
X942205Y-14452198D02*
X923158Y-14442674D01*
X923158Y-14442674D02*
X885062Y-14442674D01*
X885062Y-14442674D02*
X866015Y-14452198D01*
X866015Y-14452198D02*
X856491Y-14461722D01*
X856491Y-14461722D02*
X846967Y-14480769D01*
X1142205Y-14366484D02*
X1046967Y-14366484D01*
X1046967Y-14366484D02*
X1037443Y-14461722D01*
X1037443Y-14461722D02*
X1046967Y-14452198D01*
X1046967Y-14452198D02*
X1066015Y-14442674D01*
X1066015Y-14442674D02*
X1113634Y-14442674D01*
X1113634Y-14442674D02*
X1132682Y-14452198D01*
X1132682Y-14452198D02*
X1142205Y-14461722D01*
X1142205Y-14461722D02*
X1151729Y-14480769D01*
X1151729Y-14480769D02*
X1151729Y-14528388D01*
X1151729Y-14528388D02*
X1142205Y-14547436D01*
X1142205Y-14547436D02*
X1132682Y-14556960D01*
X1132682Y-14556960D02*
X1113634Y-14566484D01*
X1113634Y-14566484D02*
X1066015Y-14566484D01*
X1066015Y-14566484D02*
X1046967Y-14556960D01*
X1046967Y-14556960D02*
X1037443Y-14547436D01*
X1275539Y-14366484D02*
X1294586Y-14366484D01*
X1294586Y-14366484D02*
X1313634Y-14376007D01*
X1313634Y-14376007D02*
X1323158Y-14385531D01*
X1323158Y-14385531D02*
X1332682Y-14404579D01*
X1332682Y-14404579D02*
X1342205Y-14442674D01*
X1342205Y-14442674D02*
X1342205Y-14490293D01*
X1342205Y-14490293D02*
X1332682Y-14528388D01*
X1332682Y-14528388D02*
X1323158Y-14547436D01*
X1323158Y-14547436D02*
X1313634Y-14556960D01*
X1313634Y-14556960D02*
X1294586Y-14566484D01*
X1294586Y-14566484D02*
X1275539Y-14566484D01*
X1275539Y-14566484D02*
X1256491Y-14556960D01*
X1256491Y-14556960D02*
X1246967Y-14547436D01*
X1246967Y-14547436D02*
X1237444Y-14528388D01*
X1237444Y-14528388D02*
X1227920Y-14490293D01*
X1227920Y-14490293D02*
X1227920Y-14442674D01*
X1227920Y-14442674D02*
X1237444Y-14404579D01*
X1237444Y-14404579D02*
X1246967Y-14385531D01*
X1246967Y-14385531D02*
X1256491Y-14376007D01*
X1256491Y-14376007D02*
X1275539Y-14366484D01*
X1427920Y-14566484D02*
X1427920Y-14433150D01*
X1427920Y-14452198D02*
X1437443Y-14442674D01*
X1437443Y-14442674D02*
X1456491Y-14433150D01*
X1456491Y-14433150D02*
X1485063Y-14433150D01*
X1485063Y-14433150D02*
X1504110Y-14442674D01*
X1504110Y-14442674D02*
X1513634Y-14461722D01*
X1513634Y-14461722D02*
X1513634Y-14566484D01*
X1513634Y-14461722D02*
X1523158Y-14442674D01*
X1523158Y-14442674D02*
X1542205Y-14433150D01*
X1542205Y-14433150D02*
X1570777Y-14433150D01*
X1570777Y-14433150D02*
X1589824Y-14442674D01*
X1589824Y-14442674D02*
X1599348Y-14461722D01*
X1599348Y-14461722D02*
X1599348Y-14566484D01*
X1694586Y-14566484D02*
X1694586Y-14433150D01*
X1694586Y-14452198D02*
X1704110Y-14442674D01*
X1704110Y-14442674D02*
X1723158Y-14433150D01*
X1723158Y-14433150D02*
X1751729Y-14433150D01*
X1751729Y-14433150D02*
X1770777Y-14442674D01*
X1770777Y-14442674D02*
X1780301Y-14461722D01*
X1780301Y-14461722D02*
X1780301Y-14566484D01*
X1780301Y-14461722D02*
X1789824Y-14442674D01*
X1789824Y-14442674D02*
X1808872Y-14433150D01*
X1808872Y-14433150D02*
X1837443Y-14433150D01*
X1837443Y-14433150D02*
X1856491Y-14442674D01*
X1856491Y-14442674D02*
X1866015Y-14461722D01*
X1866015Y-14461722D02*
X1866015Y-14566484D01*
X2256491Y-14356960D02*
X2085063Y-14614103D01*
X2513634Y-14366484D02*
X2532682Y-14366484D01*
X2532682Y-14366484D02*
X2551729Y-14376007D01*
X2551729Y-14376007D02*
X2561253Y-14385531D01*
X2561253Y-14385531D02*
X2570777Y-14404579D01*
X2570777Y-14404579D02*
X2580301Y-14442674D01*
X2580301Y-14442674D02*
X2580301Y-14490293D01*
X2580301Y-14490293D02*
X2570777Y-14528388D01*
X2570777Y-14528388D02*
X2561253Y-14547436D01*
X2561253Y-14547436D02*
X2551729Y-14556960D01*
X2551729Y-14556960D02*
X2532682Y-14566484D01*
X2532682Y-14566484D02*
X2513634Y-14566484D01*
X2513634Y-14566484D02*
X2494587Y-14556960D01*
X2494587Y-14556960D02*
X2485063Y-14547436D01*
X2485063Y-14547436D02*
X2475539Y-14528388D01*
X2475539Y-14528388D02*
X2466015Y-14490293D01*
X2466015Y-14490293D02*
X2466015Y-14442674D01*
X2466015Y-14442674D02*
X2475539Y-14404579D01*
X2475539Y-14404579D02*
X2485063Y-14385531D01*
X2485063Y-14385531D02*
X2494587Y-14376007D01*
X2494587Y-14376007D02*
X2513634Y-14366484D01*
X2666015Y-14547436D02*
X2675539Y-14556960D01*
X2675539Y-14556960D02*
X2666015Y-14566484D01*
X2666015Y-14566484D02*
X2656491Y-14556960D01*
X2656491Y-14556960D02*
X2666015Y-14547436D01*
X2666015Y-14547436D02*
X2666015Y-14566484D01*
X2799348Y-14366484D02*
X2818396Y-14366484D01*
X2818396Y-14366484D02*
X2837444Y-14376007D01*
X2837444Y-14376007D02*
X2846967Y-14385531D01*
X2846967Y-14385531D02*
X2856491Y-14404579D01*
X2856491Y-14404579D02*
X2866015Y-14442674D01*
X2866015Y-14442674D02*
X2866015Y-14490293D01*
X2866015Y-14490293D02*
X2856491Y-14528388D01*
X2856491Y-14528388D02*
X2846967Y-14547436D01*
X2846967Y-14547436D02*
X2837444Y-14556960D01*
X2837444Y-14556960D02*
X2818396Y-14566484D01*
X2818396Y-14566484D02*
X2799348Y-14566484D01*
X2799348Y-14566484D02*
X2780301Y-14556960D01*
X2780301Y-14556960D02*
X2770777Y-14547436D01*
X2770777Y-14547436D02*
X2761253Y-14528388D01*
X2761253Y-14528388D02*
X2751729Y-14490293D01*
X2751729Y-14490293D02*
X2751729Y-14442674D01*
X2751729Y-14442674D02*
X2761253Y-14404579D01*
X2761253Y-14404579D02*
X2770777Y-14385531D01*
X2770777Y-14385531D02*
X2780301Y-14376007D01*
X2780301Y-14376007D02*
X2799348Y-14366484D01*
X3037444Y-14366484D02*
X2999348Y-14366484D01*
X2999348Y-14366484D02*
X2980301Y-14376007D01*
X2980301Y-14376007D02*
X2970777Y-14385531D01*
X2970777Y-14385531D02*
X2951729Y-14414103D01*
X2951729Y-14414103D02*
X2942206Y-14452198D01*
X2942206Y-14452198D02*
X2942206Y-14528388D01*
X2942206Y-14528388D02*
X2951729Y-14547436D01*
X2951729Y-14547436D02*
X2961253Y-14556960D01*
X2961253Y-14556960D02*
X2980301Y-14566484D01*
X2980301Y-14566484D02*
X3018396Y-14566484D01*
X3018396Y-14566484D02*
X3037444Y-14556960D01*
X3037444Y-14556960D02*
X3046967Y-14547436D01*
X3046967Y-14547436D02*
X3056491Y-14528388D01*
X3056491Y-14528388D02*
X3056491Y-14480769D01*
X3056491Y-14480769D02*
X3046967Y-14461722D01*
X3046967Y-14461722D02*
X3037444Y-14452198D01*
X3037444Y-14452198D02*
X3018396Y-14442674D01*
X3018396Y-14442674D02*
X2980301Y-14442674D01*
X2980301Y-14442674D02*
X2961253Y-14452198D01*
X2961253Y-14452198D02*
X2951729Y-14461722D01*
X2951729Y-14461722D02*
X2942206Y-14480769D01*
X3237444Y-14366484D02*
X3142206Y-14366484D01*
X3142206Y-14366484D02*
X3132682Y-14461722D01*
X3132682Y-14461722D02*
X3142206Y-14452198D01*
X3142206Y-14452198D02*
X3161253Y-14442674D01*
X3161253Y-14442674D02*
X3208872Y-14442674D01*
X3208872Y-14442674D02*
X3227920Y-14452198D01*
X3227920Y-14452198D02*
X3237444Y-14461722D01*
X3237444Y-14461722D02*
X3246967Y-14480769D01*
X3246967Y-14480769D02*
X3246967Y-14528388D01*
X3246967Y-14528388D02*
X3237444Y-14547436D01*
X3237444Y-14547436D02*
X3227920Y-14556960D01*
X3227920Y-14556960D02*
X3208872Y-14566484D01*
X3208872Y-14566484D02*
X3161253Y-14566484D01*
X3161253Y-14566484D02*
X3142206Y-14556960D01*
X3142206Y-14556960D02*
X3132682Y-14547436D01*
X3370777Y-14366484D02*
X3389825Y-14366484D01*
X3389825Y-14366484D02*
X3408872Y-14376007D01*
X3408872Y-14376007D02*
X3418396Y-14385531D01*
X3418396Y-14385531D02*
X3427920Y-14404579D01*
X3427920Y-14404579D02*
X3437444Y-14442674D01*
X3437444Y-14442674D02*
X3437444Y-14490293D01*
X3437444Y-14490293D02*
X3427920Y-14528388D01*
X3427920Y-14528388D02*
X3418396Y-14547436D01*
X3418396Y-14547436D02*
X3408872Y-14556960D01*
X3408872Y-14556960D02*
X3389825Y-14566484D01*
X3389825Y-14566484D02*
X3370777Y-14566484D01*
X3370777Y-14566484D02*
X3351729Y-14556960D01*
X3351729Y-14556960D02*
X3342206Y-14547436D01*
X3342206Y-14547436D02*
X3332682Y-14528388D01*
X3332682Y-14528388D02*
X3323158Y-14490293D01*
X3323158Y-14490293D02*
X3323158Y-14442674D01*
X3323158Y-14442674D02*
X3332682Y-14404579D01*
X3332682Y-14404579D02*
X3342206Y-14385531D01*
X3342206Y-14385531D02*
X3351729Y-14376007D01*
X3351729Y-14376007D02*
X3370777Y-14366484D01*
X3513634Y-14366484D02*
X3513634Y-14404579D01*
X3589825Y-14366484D02*
X3589825Y-14404579D01*
X3885063Y-14642674D02*
X3875539Y-14633150D01*
X3875539Y-14633150D02*
X3856491Y-14604579D01*
X3856491Y-14604579D02*
X3846968Y-14585531D01*
X3846968Y-14585531D02*
X3837444Y-14556960D01*
X3837444Y-14556960D02*
X3827920Y-14509341D01*
X3827920Y-14509341D02*
X3827920Y-14471246D01*
X3827920Y-14471246D02*
X3837444Y-14423626D01*
X3837444Y-14423626D02*
X3846968Y-14395055D01*
X3846968Y-14395055D02*
X3856491Y-14376007D01*
X3856491Y-14376007D02*
X3875539Y-14347436D01*
X3875539Y-14347436D02*
X3885063Y-14337912D01*
X3951729Y-14385531D02*
X3961253Y-14376007D01*
X3961253Y-14376007D02*
X3980301Y-14366484D01*
X3980301Y-14366484D02*
X4027920Y-14366484D01*
X4027920Y-14366484D02*
X4046968Y-14376007D01*
X4046968Y-14376007D02*
X4056491Y-14385531D01*
X4056491Y-14385531D02*
X4066015Y-14404579D01*
X4066015Y-14404579D02*
X4066015Y-14423626D01*
X4066015Y-14423626D02*
X4056491Y-14452198D01*
X4056491Y-14452198D02*
X3942206Y-14566484D01*
X3942206Y-14566484D02*
X4066015Y-14566484D01*
X4237444Y-14433150D02*
X4237444Y-14566484D01*
X4189825Y-14356960D02*
X4142206Y-14499817D01*
X4142206Y-14499817D02*
X4266015Y-14499817D01*
X4494587Y-14566484D02*
X4494587Y-14366484D01*
X4580301Y-14566484D02*
X4580301Y-14461722D01*
X4580301Y-14461722D02*
X4570777Y-14442674D01*
X4570777Y-14442674D02*
X4551730Y-14433150D01*
X4551730Y-14433150D02*
X4523158Y-14433150D01*
X4523158Y-14433150D02*
X4504111Y-14442674D01*
X4504111Y-14442674D02*
X4494587Y-14452198D01*
X4704111Y-14566484D02*
X4685063Y-14556960D01*
X4685063Y-14556960D02*
X4675539Y-14547436D01*
X4675539Y-14547436D02*
X4666015Y-14528388D01*
X4666015Y-14528388D02*
X4666015Y-14471246D01*
X4666015Y-14471246D02*
X4675539Y-14452198D01*
X4675539Y-14452198D02*
X4685063Y-14442674D01*
X4685063Y-14442674D02*
X4704111Y-14433150D01*
X4704111Y-14433150D02*
X4732682Y-14433150D01*
X4732682Y-14433150D02*
X4751730Y-14442674D01*
X4751730Y-14442674D02*
X4761253Y-14452198D01*
X4761253Y-14452198D02*
X4770777Y-14471246D01*
X4770777Y-14471246D02*
X4770777Y-14528388D01*
X4770777Y-14528388D02*
X4761253Y-14547436D01*
X4761253Y-14547436D02*
X4751730Y-14556960D01*
X4751730Y-14556960D02*
X4732682Y-14566484D01*
X4732682Y-14566484D02*
X4704111Y-14566484D01*
X4885063Y-14566484D02*
X4866015Y-14556960D01*
X4866015Y-14556960D02*
X4856492Y-14537912D01*
X4856492Y-14537912D02*
X4856492Y-14366484D01*
X5037444Y-14556960D02*
X5018396Y-14566484D01*
X5018396Y-14566484D02*
X4980301Y-14566484D01*
X4980301Y-14566484D02*
X4961253Y-14556960D01*
X4961253Y-14556960D02*
X4951730Y-14537912D01*
X4951730Y-14537912D02*
X4951730Y-14461722D01*
X4951730Y-14461722D02*
X4961253Y-14442674D01*
X4961253Y-14442674D02*
X4980301Y-14433150D01*
X4980301Y-14433150D02*
X5018396Y-14433150D01*
X5018396Y-14433150D02*
X5037444Y-14442674D01*
X5037444Y-14442674D02*
X5046968Y-14461722D01*
X5046968Y-14461722D02*
X5046968Y-14480769D01*
X5046968Y-14480769D02*
X4951730Y-14499817D01*
X5123158Y-14556960D02*
X5142206Y-14566484D01*
X5142206Y-14566484D02*
X5180301Y-14566484D01*
X5180301Y-14566484D02*
X5199349Y-14556960D01*
X5199349Y-14556960D02*
X5208873Y-14537912D01*
X5208873Y-14537912D02*
X5208873Y-14528388D01*
X5208873Y-14528388D02*
X5199349Y-14509341D01*
X5199349Y-14509341D02*
X5180301Y-14499817D01*
X5180301Y-14499817D02*
X5151730Y-14499817D01*
X5151730Y-14499817D02*
X5132682Y-14490293D01*
X5132682Y-14490293D02*
X5123158Y-14471246D01*
X5123158Y-14471246D02*
X5123158Y-14461722D01*
X5123158Y-14461722D02*
X5132682Y-14442674D01*
X5132682Y-14442674D02*
X5151730Y-14433150D01*
X5151730Y-14433150D02*
X5180301Y-14433150D01*
X5180301Y-14433150D02*
X5199349Y-14442674D01*
X5275539Y-14642674D02*
X5285063Y-14633150D01*
X5285063Y-14633150D02*
X5304111Y-14604579D01*
X5304111Y-14604579D02*
X5313634Y-14585531D01*
X5313634Y-14585531D02*
X5323158Y-14556960D01*
X5323158Y-14556960D02*
X5332682Y-14509341D01*
X5332682Y-14509341D02*
X5332682Y-14471246D01*
X5332682Y-14471246D02*
X5323158Y-14423626D01*
X5323158Y-14423626D02*
X5313634Y-14395055D01*
X5313634Y-14395055D02*
X5304111Y-14376007D01*
X5304111Y-14376007D02*
X5285063Y-14347436D01*
X5285063Y-14347436D02*
X5275539Y-14337912D01*
D17*
X135000Y-14672500D02*
X310000Y-14847500D01*
X310000Y-14672500D02*
X135000Y-14847500D01*
X284372Y-14821872D02*
X284372Y-14698127D01*
X160628Y-14698127D01*
X160628Y-14821872D01*
X284372Y-14821872D01*
D11*
X675539Y-14851484D02*
X561253Y-14851484D01*
X618396Y-14851484D02*
X618396Y-14651484D01*
X618396Y-14651484D02*
X599348Y-14680055D01*
X599348Y-14680055D02*
X580301Y-14699103D01*
X580301Y-14699103D02*
X561253Y-14708626D01*
X761253Y-14832436D02*
X770777Y-14841960D01*
X770777Y-14841960D02*
X761253Y-14851484D01*
X761253Y-14851484D02*
X751729Y-14841960D01*
X751729Y-14841960D02*
X761253Y-14832436D01*
X761253Y-14832436D02*
X761253Y-14851484D01*
X837443Y-14651484D02*
X970777Y-14651484D01*
X970777Y-14651484D02*
X885062Y-14851484D01*
X1142205Y-14651484D02*
X1046967Y-14651484D01*
X1046967Y-14651484D02*
X1037443Y-14746722D01*
X1037443Y-14746722D02*
X1046967Y-14737198D01*
X1046967Y-14737198D02*
X1066015Y-14727674D01*
X1066015Y-14727674D02*
X1113634Y-14727674D01*
X1113634Y-14727674D02*
X1132682Y-14737198D01*
X1132682Y-14737198D02*
X1142205Y-14746722D01*
X1142205Y-14746722D02*
X1151729Y-14765769D01*
X1151729Y-14765769D02*
X1151729Y-14813388D01*
X1151729Y-14813388D02*
X1142205Y-14832436D01*
X1142205Y-14832436D02*
X1132682Y-14841960D01*
X1132682Y-14841960D02*
X1113634Y-14851484D01*
X1113634Y-14851484D02*
X1066015Y-14851484D01*
X1066015Y-14851484D02*
X1046967Y-14841960D01*
X1046967Y-14841960D02*
X1037443Y-14832436D01*
X1275539Y-14651484D02*
X1294586Y-14651484D01*
X1294586Y-14651484D02*
X1313634Y-14661007D01*
X1313634Y-14661007D02*
X1323158Y-14670531D01*
X1323158Y-14670531D02*
X1332682Y-14689579D01*
X1332682Y-14689579D02*
X1342205Y-14727674D01*
X1342205Y-14727674D02*
X1342205Y-14775293D01*
X1342205Y-14775293D02*
X1332682Y-14813388D01*
X1332682Y-14813388D02*
X1323158Y-14832436D01*
X1323158Y-14832436D02*
X1313634Y-14841960D01*
X1313634Y-14841960D02*
X1294586Y-14851484D01*
X1294586Y-14851484D02*
X1275539Y-14851484D01*
X1275539Y-14851484D02*
X1256491Y-14841960D01*
X1256491Y-14841960D02*
X1246967Y-14832436D01*
X1246967Y-14832436D02*
X1237444Y-14813388D01*
X1237444Y-14813388D02*
X1227920Y-14775293D01*
X1227920Y-14775293D02*
X1227920Y-14727674D01*
X1227920Y-14727674D02*
X1237444Y-14689579D01*
X1237444Y-14689579D02*
X1246967Y-14670531D01*
X1246967Y-14670531D02*
X1256491Y-14661007D01*
X1256491Y-14661007D02*
X1275539Y-14651484D01*
X1427920Y-14851484D02*
X1427920Y-14718150D01*
X1427920Y-14737198D02*
X1437443Y-14727674D01*
X1437443Y-14727674D02*
X1456491Y-14718150D01*
X1456491Y-14718150D02*
X1485063Y-14718150D01*
X1485063Y-14718150D02*
X1504110Y-14727674D01*
X1504110Y-14727674D02*
X1513634Y-14746722D01*
X1513634Y-14746722D02*
X1513634Y-14851484D01*
X1513634Y-14746722D02*
X1523158Y-14727674D01*
X1523158Y-14727674D02*
X1542205Y-14718150D01*
X1542205Y-14718150D02*
X1570777Y-14718150D01*
X1570777Y-14718150D02*
X1589824Y-14727674D01*
X1589824Y-14727674D02*
X1599348Y-14746722D01*
X1599348Y-14746722D02*
X1599348Y-14851484D01*
X1694586Y-14851484D02*
X1694586Y-14718150D01*
X1694586Y-14737198D02*
X1704110Y-14727674D01*
X1704110Y-14727674D02*
X1723158Y-14718150D01*
X1723158Y-14718150D02*
X1751729Y-14718150D01*
X1751729Y-14718150D02*
X1770777Y-14727674D01*
X1770777Y-14727674D02*
X1780301Y-14746722D01*
X1780301Y-14746722D02*
X1780301Y-14851484D01*
X1780301Y-14746722D02*
X1789824Y-14727674D01*
X1789824Y-14727674D02*
X1808872Y-14718150D01*
X1808872Y-14718150D02*
X1837443Y-14718150D01*
X1837443Y-14718150D02*
X1856491Y-14727674D01*
X1856491Y-14727674D02*
X1866015Y-14746722D01*
X1866015Y-14746722D02*
X1866015Y-14851484D01*
X2256491Y-14641960D02*
X2085063Y-14899103D01*
X2513634Y-14651484D02*
X2532682Y-14651484D01*
X2532682Y-14651484D02*
X2551729Y-14661007D01*
X2551729Y-14661007D02*
X2561253Y-14670531D01*
X2561253Y-14670531D02*
X2570777Y-14689579D01*
X2570777Y-14689579D02*
X2580301Y-14727674D01*
X2580301Y-14727674D02*
X2580301Y-14775293D01*
X2580301Y-14775293D02*
X2570777Y-14813388D01*
X2570777Y-14813388D02*
X2561253Y-14832436D01*
X2561253Y-14832436D02*
X2551729Y-14841960D01*
X2551729Y-14841960D02*
X2532682Y-14851484D01*
X2532682Y-14851484D02*
X2513634Y-14851484D01*
X2513634Y-14851484D02*
X2494587Y-14841960D01*
X2494587Y-14841960D02*
X2485063Y-14832436D01*
X2485063Y-14832436D02*
X2475539Y-14813388D01*
X2475539Y-14813388D02*
X2466015Y-14775293D01*
X2466015Y-14775293D02*
X2466015Y-14727674D01*
X2466015Y-14727674D02*
X2475539Y-14689579D01*
X2475539Y-14689579D02*
X2485063Y-14670531D01*
X2485063Y-14670531D02*
X2494587Y-14661007D01*
X2494587Y-14661007D02*
X2513634Y-14651484D01*
X2666015Y-14832436D02*
X2675539Y-14841960D01*
X2675539Y-14841960D02*
X2666015Y-14851484D01*
X2666015Y-14851484D02*
X2656491Y-14841960D01*
X2656491Y-14841960D02*
X2666015Y-14832436D01*
X2666015Y-14832436D02*
X2666015Y-14851484D01*
X2799348Y-14651484D02*
X2818396Y-14651484D01*
X2818396Y-14651484D02*
X2837444Y-14661007D01*
X2837444Y-14661007D02*
X2846967Y-14670531D01*
X2846967Y-14670531D02*
X2856491Y-14689579D01*
X2856491Y-14689579D02*
X2866015Y-14727674D01*
X2866015Y-14727674D02*
X2866015Y-14775293D01*
X2866015Y-14775293D02*
X2856491Y-14813388D01*
X2856491Y-14813388D02*
X2846967Y-14832436D01*
X2846967Y-14832436D02*
X2837444Y-14841960D01*
X2837444Y-14841960D02*
X2818396Y-14851484D01*
X2818396Y-14851484D02*
X2799348Y-14851484D01*
X2799348Y-14851484D02*
X2780301Y-14841960D01*
X2780301Y-14841960D02*
X2770777Y-14832436D01*
X2770777Y-14832436D02*
X2761253Y-14813388D01*
X2761253Y-14813388D02*
X2751729Y-14775293D01*
X2751729Y-14775293D02*
X2751729Y-14727674D01*
X2751729Y-14727674D02*
X2761253Y-14689579D01*
X2761253Y-14689579D02*
X2770777Y-14670531D01*
X2770777Y-14670531D02*
X2780301Y-14661007D01*
X2780301Y-14661007D02*
X2799348Y-14651484D01*
X3037444Y-14651484D02*
X2999348Y-14651484D01*
X2999348Y-14651484D02*
X2980301Y-14661007D01*
X2980301Y-14661007D02*
X2970777Y-14670531D01*
X2970777Y-14670531D02*
X2951729Y-14699103D01*
X2951729Y-14699103D02*
X2942206Y-14737198D01*
X2942206Y-14737198D02*
X2942206Y-14813388D01*
X2942206Y-14813388D02*
X2951729Y-14832436D01*
X2951729Y-14832436D02*
X2961253Y-14841960D01*
X2961253Y-14841960D02*
X2980301Y-14851484D01*
X2980301Y-14851484D02*
X3018396Y-14851484D01*
X3018396Y-14851484D02*
X3037444Y-14841960D01*
X3037444Y-14841960D02*
X3046967Y-14832436D01*
X3046967Y-14832436D02*
X3056491Y-14813388D01*
X3056491Y-14813388D02*
X3056491Y-14765769D01*
X3056491Y-14765769D02*
X3046967Y-14746722D01*
X3046967Y-14746722D02*
X3037444Y-14737198D01*
X3037444Y-14737198D02*
X3018396Y-14727674D01*
X3018396Y-14727674D02*
X2980301Y-14727674D01*
X2980301Y-14727674D02*
X2961253Y-14737198D01*
X2961253Y-14737198D02*
X2951729Y-14746722D01*
X2951729Y-14746722D02*
X2942206Y-14765769D01*
X3170777Y-14737198D02*
X3151729Y-14727674D01*
X3151729Y-14727674D02*
X3142206Y-14718150D01*
X3142206Y-14718150D02*
X3132682Y-14699103D01*
X3132682Y-14699103D02*
X3132682Y-14689579D01*
X3132682Y-14689579D02*
X3142206Y-14670531D01*
X3142206Y-14670531D02*
X3151729Y-14661007D01*
X3151729Y-14661007D02*
X3170777Y-14651484D01*
X3170777Y-14651484D02*
X3208872Y-14651484D01*
X3208872Y-14651484D02*
X3227920Y-14661007D01*
X3227920Y-14661007D02*
X3237444Y-14670531D01*
X3237444Y-14670531D02*
X3246967Y-14689579D01*
X3246967Y-14689579D02*
X3246967Y-14699103D01*
X3246967Y-14699103D02*
X3237444Y-14718150D01*
X3237444Y-14718150D02*
X3227920Y-14727674D01*
X3227920Y-14727674D02*
X3208872Y-14737198D01*
X3208872Y-14737198D02*
X3170777Y-14737198D01*
X3170777Y-14737198D02*
X3151729Y-14746722D01*
X3151729Y-14746722D02*
X3142206Y-14756246D01*
X3142206Y-14756246D02*
X3132682Y-14775293D01*
X3132682Y-14775293D02*
X3132682Y-14813388D01*
X3132682Y-14813388D02*
X3142206Y-14832436D01*
X3142206Y-14832436D02*
X3151729Y-14841960D01*
X3151729Y-14841960D02*
X3170777Y-14851484D01*
X3170777Y-14851484D02*
X3208872Y-14851484D01*
X3208872Y-14851484D02*
X3227920Y-14841960D01*
X3227920Y-14841960D02*
X3237444Y-14832436D01*
X3237444Y-14832436D02*
X3246967Y-14813388D01*
X3246967Y-14813388D02*
X3246967Y-14775293D01*
X3246967Y-14775293D02*
X3237444Y-14756246D01*
X3237444Y-14756246D02*
X3227920Y-14746722D01*
X3227920Y-14746722D02*
X3208872Y-14737198D01*
X3342206Y-14851484D02*
X3380301Y-14851484D01*
X3380301Y-14851484D02*
X3399348Y-14841960D01*
X3399348Y-14841960D02*
X3408872Y-14832436D01*
X3408872Y-14832436D02*
X3427920Y-14803865D01*
X3427920Y-14803865D02*
X3437444Y-14765769D01*
X3437444Y-14765769D02*
X3437444Y-14689579D01*
X3437444Y-14689579D02*
X3427920Y-14670531D01*
X3427920Y-14670531D02*
X3418396Y-14661007D01*
X3418396Y-14661007D02*
X3399348Y-14651484D01*
X3399348Y-14651484D02*
X3361253Y-14651484D01*
X3361253Y-14651484D02*
X3342206Y-14661007D01*
X3342206Y-14661007D02*
X3332682Y-14670531D01*
X3332682Y-14670531D02*
X3323158Y-14689579D01*
X3323158Y-14689579D02*
X3323158Y-14737198D01*
X3323158Y-14737198D02*
X3332682Y-14756246D01*
X3332682Y-14756246D02*
X3342206Y-14765769D01*
X3342206Y-14765769D02*
X3361253Y-14775293D01*
X3361253Y-14775293D02*
X3399348Y-14775293D01*
X3399348Y-14775293D02*
X3418396Y-14765769D01*
X3418396Y-14765769D02*
X3427920Y-14756246D01*
X3427920Y-14756246D02*
X3437444Y-14737198D01*
X3513634Y-14651484D02*
X3513634Y-14689579D01*
X3589825Y-14651484D02*
X3589825Y-14689579D01*
X3885063Y-14927674D02*
X3875539Y-14918150D01*
X3875539Y-14918150D02*
X3856491Y-14889579D01*
X3856491Y-14889579D02*
X3846968Y-14870531D01*
X3846968Y-14870531D02*
X3837444Y-14841960D01*
X3837444Y-14841960D02*
X3827920Y-14794341D01*
X3827920Y-14794341D02*
X3827920Y-14756246D01*
X3827920Y-14756246D02*
X3837444Y-14708626D01*
X3837444Y-14708626D02*
X3846968Y-14680055D01*
X3846968Y-14680055D02*
X3856491Y-14661007D01*
X3856491Y-14661007D02*
X3875539Y-14632436D01*
X3875539Y-14632436D02*
X3885063Y-14622912D01*
X3951729Y-14670531D02*
X3961253Y-14661007D01*
X3961253Y-14661007D02*
X3980301Y-14651484D01*
X3980301Y-14651484D02*
X4027920Y-14651484D01*
X4027920Y-14651484D02*
X4046968Y-14661007D01*
X4046968Y-14661007D02*
X4056491Y-14670531D01*
X4056491Y-14670531D02*
X4066015Y-14689579D01*
X4066015Y-14689579D02*
X4066015Y-14708626D01*
X4066015Y-14708626D02*
X4056491Y-14737198D01*
X4056491Y-14737198D02*
X3942206Y-14851484D01*
X3942206Y-14851484D02*
X4066015Y-14851484D01*
X4180301Y-14737198D02*
X4161253Y-14727674D01*
X4161253Y-14727674D02*
X4151729Y-14718150D01*
X4151729Y-14718150D02*
X4142206Y-14699103D01*
X4142206Y-14699103D02*
X4142206Y-14689579D01*
X4142206Y-14689579D02*
X4151729Y-14670531D01*
X4151729Y-14670531D02*
X4161253Y-14661007D01*
X4161253Y-14661007D02*
X4180301Y-14651484D01*
X4180301Y-14651484D02*
X4218396Y-14651484D01*
X4218396Y-14651484D02*
X4237444Y-14661007D01*
X4237444Y-14661007D02*
X4246968Y-14670531D01*
X4246968Y-14670531D02*
X4256491Y-14689579D01*
X4256491Y-14689579D02*
X4256491Y-14699103D01*
X4256491Y-14699103D02*
X4246968Y-14718150D01*
X4246968Y-14718150D02*
X4237444Y-14727674D01*
X4237444Y-14727674D02*
X4218396Y-14737198D01*
X4218396Y-14737198D02*
X4180301Y-14737198D01*
X4180301Y-14737198D02*
X4161253Y-14746722D01*
X4161253Y-14746722D02*
X4151729Y-14756246D01*
X4151729Y-14756246D02*
X4142206Y-14775293D01*
X4142206Y-14775293D02*
X4142206Y-14813388D01*
X4142206Y-14813388D02*
X4151729Y-14832436D01*
X4151729Y-14832436D02*
X4161253Y-14841960D01*
X4161253Y-14841960D02*
X4180301Y-14851484D01*
X4180301Y-14851484D02*
X4218396Y-14851484D01*
X4218396Y-14851484D02*
X4237444Y-14841960D01*
X4237444Y-14841960D02*
X4246968Y-14832436D01*
X4246968Y-14832436D02*
X4256491Y-14813388D01*
X4256491Y-14813388D02*
X4256491Y-14775293D01*
X4256491Y-14775293D02*
X4246968Y-14756246D01*
X4246968Y-14756246D02*
X4237444Y-14746722D01*
X4237444Y-14746722D02*
X4218396Y-14737198D01*
X4494587Y-14851484D02*
X4494587Y-14651484D01*
X4580301Y-14851484D02*
X4580301Y-14746722D01*
X4580301Y-14746722D02*
X4570777Y-14727674D01*
X4570777Y-14727674D02*
X4551730Y-14718150D01*
X4551730Y-14718150D02*
X4523158Y-14718150D01*
X4523158Y-14718150D02*
X4504111Y-14727674D01*
X4504111Y-14727674D02*
X4494587Y-14737198D01*
X4704111Y-14851484D02*
X4685063Y-14841960D01*
X4685063Y-14841960D02*
X4675539Y-14832436D01*
X4675539Y-14832436D02*
X4666015Y-14813388D01*
X4666015Y-14813388D02*
X4666015Y-14756246D01*
X4666015Y-14756246D02*
X4675539Y-14737198D01*
X4675539Y-14737198D02*
X4685063Y-14727674D01*
X4685063Y-14727674D02*
X4704111Y-14718150D01*
X4704111Y-14718150D02*
X4732682Y-14718150D01*
X4732682Y-14718150D02*
X4751730Y-14727674D01*
X4751730Y-14727674D02*
X4761253Y-14737198D01*
X4761253Y-14737198D02*
X4770777Y-14756246D01*
X4770777Y-14756246D02*
X4770777Y-14813388D01*
X4770777Y-14813388D02*
X4761253Y-14832436D01*
X4761253Y-14832436D02*
X4751730Y-14841960D01*
X4751730Y-14841960D02*
X4732682Y-14851484D01*
X4732682Y-14851484D02*
X4704111Y-14851484D01*
X4885063Y-14851484D02*
X4866015Y-14841960D01*
X4866015Y-14841960D02*
X4856492Y-14822912D01*
X4856492Y-14822912D02*
X4856492Y-14651484D01*
X5037444Y-14841960D02*
X5018396Y-14851484D01*
X5018396Y-14851484D02*
X4980301Y-14851484D01*
X4980301Y-14851484D02*
X4961253Y-14841960D01*
X4961253Y-14841960D02*
X4951730Y-14822912D01*
X4951730Y-14822912D02*
X4951730Y-14746722D01*
X4951730Y-14746722D02*
X4961253Y-14727674D01*
X4961253Y-14727674D02*
X4980301Y-14718150D01*
X4980301Y-14718150D02*
X5018396Y-14718150D01*
X5018396Y-14718150D02*
X5037444Y-14727674D01*
X5037444Y-14727674D02*
X5046968Y-14746722D01*
X5046968Y-14746722D02*
X5046968Y-14765769D01*
X5046968Y-14765769D02*
X4951730Y-14784817D01*
X5123158Y-14841960D02*
X5142206Y-14851484D01*
X5142206Y-14851484D02*
X5180301Y-14851484D01*
X5180301Y-14851484D02*
X5199349Y-14841960D01*
X5199349Y-14841960D02*
X5208873Y-14822912D01*
X5208873Y-14822912D02*
X5208873Y-14813388D01*
X5208873Y-14813388D02*
X5199349Y-14794341D01*
X5199349Y-14794341D02*
X5180301Y-14784817D01*
X5180301Y-14784817D02*
X5151730Y-14784817D01*
X5151730Y-14784817D02*
X5132682Y-14775293D01*
X5132682Y-14775293D02*
X5123158Y-14756246D01*
X5123158Y-14756246D02*
X5123158Y-14746722D01*
X5123158Y-14746722D02*
X5132682Y-14727674D01*
X5132682Y-14727674D02*
X5151730Y-14718150D01*
X5151730Y-14718150D02*
X5180301Y-14718150D01*
X5180301Y-14718150D02*
X5199349Y-14727674D01*
X5275539Y-14927674D02*
X5285063Y-14918150D01*
X5285063Y-14918150D02*
X5304111Y-14889579D01*
X5304111Y-14889579D02*
X5313634Y-14870531D01*
X5313634Y-14870531D02*
X5323158Y-14841960D01*
X5323158Y-14841960D02*
X5332682Y-14794341D01*
X5332682Y-14794341D02*
X5332682Y-14756246D01*
X5332682Y-14756246D02*
X5323158Y-14708626D01*
X5323158Y-14708626D02*
X5313634Y-14680055D01*
X5313634Y-14680055D02*
X5304111Y-14661007D01*
X5304111Y-14661007D02*
X5285063Y-14632436D01*
X5285063Y-14632436D02*
X5275539Y-14622912D01*
X110000Y-14955000D02*
X310000Y-15155000D01*
X310000Y-14955000D02*
X110000Y-15155000D01*
X210000Y-15155000D02*
X310000Y-15055000D01*
X210000Y-14955000D01*
X110000Y-15055000D01*
X210000Y-15155000D01*
X561253Y-14965531D02*
X570777Y-14956007D01*
X570777Y-14956007D02*
X589824Y-14946484D01*
X589824Y-14946484D02*
X637444Y-14946484D01*
X637444Y-14946484D02*
X656491Y-14956007D01*
X656491Y-14956007D02*
X666015Y-14965531D01*
X666015Y-14965531D02*
X675539Y-14984579D01*
X675539Y-14984579D02*
X675539Y-15003626D01*
X675539Y-15003626D02*
X666015Y-15032198D01*
X666015Y-15032198D02*
X551729Y-15146484D01*
X551729Y-15146484D02*
X675539Y-15146484D01*
X761253Y-15127436D02*
X770777Y-15136960D01*
X770777Y-15136960D02*
X761253Y-15146484D01*
X761253Y-15146484D02*
X751729Y-15136960D01*
X751729Y-15136960D02*
X761253Y-15127436D01*
X761253Y-15127436D02*
X761253Y-15146484D01*
X846967Y-14965531D02*
X856491Y-14956007D01*
X856491Y-14956007D02*
X875539Y-14946484D01*
X875539Y-14946484D02*
X923158Y-14946484D01*
X923158Y-14946484D02*
X942205Y-14956007D01*
X942205Y-14956007D02*
X951729Y-14965531D01*
X951729Y-14965531D02*
X961253Y-14984579D01*
X961253Y-14984579D02*
X961253Y-15003626D01*
X961253Y-15003626D02*
X951729Y-15032198D01*
X951729Y-15032198D02*
X837443Y-15146484D01*
X837443Y-15146484D02*
X961253Y-15146484D01*
X1085063Y-14946484D02*
X1104110Y-14946484D01*
X1104110Y-14946484D02*
X1123158Y-14956007D01*
X1123158Y-14956007D02*
X1132682Y-14965531D01*
X1132682Y-14965531D02*
X1142205Y-14984579D01*
X1142205Y-14984579D02*
X1151729Y-15022674D01*
X1151729Y-15022674D02*
X1151729Y-15070293D01*
X1151729Y-15070293D02*
X1142205Y-15108388D01*
X1142205Y-15108388D02*
X1132682Y-15127436D01*
X1132682Y-15127436D02*
X1123158Y-15136960D01*
X1123158Y-15136960D02*
X1104110Y-15146484D01*
X1104110Y-15146484D02*
X1085063Y-15146484D01*
X1085063Y-15146484D02*
X1066015Y-15136960D01*
X1066015Y-15136960D02*
X1056491Y-15127436D01*
X1056491Y-15127436D02*
X1046967Y-15108388D01*
X1046967Y-15108388D02*
X1037443Y-15070293D01*
X1037443Y-15070293D02*
X1037443Y-15022674D01*
X1037443Y-15022674D02*
X1046967Y-14984579D01*
X1046967Y-14984579D02*
X1056491Y-14965531D01*
X1056491Y-14965531D02*
X1066015Y-14956007D01*
X1066015Y-14956007D02*
X1085063Y-14946484D01*
X1275539Y-14946484D02*
X1294586Y-14946484D01*
X1294586Y-14946484D02*
X1313634Y-14956007D01*
X1313634Y-14956007D02*
X1323158Y-14965531D01*
X1323158Y-14965531D02*
X1332682Y-14984579D01*
X1332682Y-14984579D02*
X1342205Y-15022674D01*
X1342205Y-15022674D02*
X1342205Y-15070293D01*
X1342205Y-15070293D02*
X1332682Y-15108388D01*
X1332682Y-15108388D02*
X1323158Y-15127436D01*
X1323158Y-15127436D02*
X1313634Y-15136960D01*
X1313634Y-15136960D02*
X1294586Y-15146484D01*
X1294586Y-15146484D02*
X1275539Y-15146484D01*
X1275539Y-15146484D02*
X1256491Y-15136960D01*
X1256491Y-15136960D02*
X1246967Y-15127436D01*
X1246967Y-15127436D02*
X1237444Y-15108388D01*
X1237444Y-15108388D02*
X1227920Y-15070293D01*
X1227920Y-15070293D02*
X1227920Y-15022674D01*
X1227920Y-15022674D02*
X1237444Y-14984579D01*
X1237444Y-14984579D02*
X1246967Y-14965531D01*
X1246967Y-14965531D02*
X1256491Y-14956007D01*
X1256491Y-14956007D02*
X1275539Y-14946484D01*
X1427920Y-15146484D02*
X1427920Y-15013150D01*
X1427920Y-15032198D02*
X1437443Y-15022674D01*
X1437443Y-15022674D02*
X1456491Y-15013150D01*
X1456491Y-15013150D02*
X1485063Y-15013150D01*
X1485063Y-15013150D02*
X1504110Y-15022674D01*
X1504110Y-15022674D02*
X1513634Y-15041722D01*
X1513634Y-15041722D02*
X1513634Y-15146484D01*
X1513634Y-15041722D02*
X1523158Y-15022674D01*
X1523158Y-15022674D02*
X1542205Y-15013150D01*
X1542205Y-15013150D02*
X1570777Y-15013150D01*
X1570777Y-15013150D02*
X1589824Y-15022674D01*
X1589824Y-15022674D02*
X1599348Y-15041722D01*
X1599348Y-15041722D02*
X1599348Y-15146484D01*
X1694586Y-15146484D02*
X1694586Y-15013150D01*
X1694586Y-15032198D02*
X1704110Y-15022674D01*
X1704110Y-15022674D02*
X1723158Y-15013150D01*
X1723158Y-15013150D02*
X1751729Y-15013150D01*
X1751729Y-15013150D02*
X1770777Y-15022674D01*
X1770777Y-15022674D02*
X1780301Y-15041722D01*
X1780301Y-15041722D02*
X1780301Y-15146484D01*
X1780301Y-15041722D02*
X1789824Y-15022674D01*
X1789824Y-15022674D02*
X1808872Y-15013150D01*
X1808872Y-15013150D02*
X1837443Y-15013150D01*
X1837443Y-15013150D02*
X1856491Y-15022674D01*
X1856491Y-15022674D02*
X1866015Y-15041722D01*
X1866015Y-15041722D02*
X1866015Y-15146484D01*
X2256491Y-14936960D02*
X2085063Y-15194103D01*
X2513634Y-14946484D02*
X2532682Y-14946484D01*
X2532682Y-14946484D02*
X2551729Y-14956007D01*
X2551729Y-14956007D02*
X2561253Y-14965531D01*
X2561253Y-14965531D02*
X2570777Y-14984579D01*
X2570777Y-14984579D02*
X2580301Y-15022674D01*
X2580301Y-15022674D02*
X2580301Y-15070293D01*
X2580301Y-15070293D02*
X2570777Y-15108388D01*
X2570777Y-15108388D02*
X2561253Y-15127436D01*
X2561253Y-15127436D02*
X2551729Y-15136960D01*
X2551729Y-15136960D02*
X2532682Y-15146484D01*
X2532682Y-15146484D02*
X2513634Y-15146484D01*
X2513634Y-15146484D02*
X2494587Y-15136960D01*
X2494587Y-15136960D02*
X2485063Y-15127436D01*
X2485063Y-15127436D02*
X2475539Y-15108388D01*
X2475539Y-15108388D02*
X2466015Y-15070293D01*
X2466015Y-15070293D02*
X2466015Y-15022674D01*
X2466015Y-15022674D02*
X2475539Y-14984579D01*
X2475539Y-14984579D02*
X2485063Y-14965531D01*
X2485063Y-14965531D02*
X2494587Y-14956007D01*
X2494587Y-14956007D02*
X2513634Y-14946484D01*
X2666015Y-15127436D02*
X2675539Y-15136960D01*
X2675539Y-15136960D02*
X2666015Y-15146484D01*
X2666015Y-15146484D02*
X2656491Y-15136960D01*
X2656491Y-15136960D02*
X2666015Y-15127436D01*
X2666015Y-15127436D02*
X2666015Y-15146484D01*
X2799348Y-14946484D02*
X2818396Y-14946484D01*
X2818396Y-14946484D02*
X2837444Y-14956007D01*
X2837444Y-14956007D02*
X2846967Y-14965531D01*
X2846967Y-14965531D02*
X2856491Y-14984579D01*
X2856491Y-14984579D02*
X2866015Y-15022674D01*
X2866015Y-15022674D02*
X2866015Y-15070293D01*
X2866015Y-15070293D02*
X2856491Y-15108388D01*
X2856491Y-15108388D02*
X2846967Y-15127436D01*
X2846967Y-15127436D02*
X2837444Y-15136960D01*
X2837444Y-15136960D02*
X2818396Y-15146484D01*
X2818396Y-15146484D02*
X2799348Y-15146484D01*
X2799348Y-15146484D02*
X2780301Y-15136960D01*
X2780301Y-15136960D02*
X2770777Y-15127436D01*
X2770777Y-15127436D02*
X2761253Y-15108388D01*
X2761253Y-15108388D02*
X2751729Y-15070293D01*
X2751729Y-15070293D02*
X2751729Y-15022674D01*
X2751729Y-15022674D02*
X2761253Y-14984579D01*
X2761253Y-14984579D02*
X2770777Y-14965531D01*
X2770777Y-14965531D02*
X2780301Y-14956007D01*
X2780301Y-14956007D02*
X2799348Y-14946484D01*
X2980301Y-15032198D02*
X2961253Y-15022674D01*
X2961253Y-15022674D02*
X2951729Y-15013150D01*
X2951729Y-15013150D02*
X2942206Y-14994103D01*
X2942206Y-14994103D02*
X2942206Y-14984579D01*
X2942206Y-14984579D02*
X2951729Y-14965531D01*
X2951729Y-14965531D02*
X2961253Y-14956007D01*
X2961253Y-14956007D02*
X2980301Y-14946484D01*
X2980301Y-14946484D02*
X3018396Y-14946484D01*
X3018396Y-14946484D02*
X3037444Y-14956007D01*
X3037444Y-14956007D02*
X3046967Y-14965531D01*
X3046967Y-14965531D02*
X3056491Y-14984579D01*
X3056491Y-14984579D02*
X3056491Y-14994103D01*
X3056491Y-14994103D02*
X3046967Y-15013150D01*
X3046967Y-15013150D02*
X3037444Y-15022674D01*
X3037444Y-15022674D02*
X3018396Y-15032198D01*
X3018396Y-15032198D02*
X2980301Y-15032198D01*
X2980301Y-15032198D02*
X2961253Y-15041722D01*
X2961253Y-15041722D02*
X2951729Y-15051246D01*
X2951729Y-15051246D02*
X2942206Y-15070293D01*
X2942206Y-15070293D02*
X2942206Y-15108388D01*
X2942206Y-15108388D02*
X2951729Y-15127436D01*
X2951729Y-15127436D02*
X2961253Y-15136960D01*
X2961253Y-15136960D02*
X2980301Y-15146484D01*
X2980301Y-15146484D02*
X3018396Y-15146484D01*
X3018396Y-15146484D02*
X3037444Y-15136960D01*
X3037444Y-15136960D02*
X3046967Y-15127436D01*
X3046967Y-15127436D02*
X3056491Y-15108388D01*
X3056491Y-15108388D02*
X3056491Y-15070293D01*
X3056491Y-15070293D02*
X3046967Y-15051246D01*
X3046967Y-15051246D02*
X3037444Y-15041722D01*
X3037444Y-15041722D02*
X3018396Y-15032198D01*
X3227920Y-14946484D02*
X3189825Y-14946484D01*
X3189825Y-14946484D02*
X3170777Y-14956007D01*
X3170777Y-14956007D02*
X3161253Y-14965531D01*
X3161253Y-14965531D02*
X3142206Y-14994103D01*
X3142206Y-14994103D02*
X3132682Y-15032198D01*
X3132682Y-15032198D02*
X3132682Y-15108388D01*
X3132682Y-15108388D02*
X3142206Y-15127436D01*
X3142206Y-15127436D02*
X3151729Y-15136960D01*
X3151729Y-15136960D02*
X3170777Y-15146484D01*
X3170777Y-15146484D02*
X3208872Y-15146484D01*
X3208872Y-15146484D02*
X3227920Y-15136960D01*
X3227920Y-15136960D02*
X3237444Y-15127436D01*
X3237444Y-15127436D02*
X3246967Y-15108388D01*
X3246967Y-15108388D02*
X3246967Y-15060769D01*
X3246967Y-15060769D02*
X3237444Y-15041722D01*
X3237444Y-15041722D02*
X3227920Y-15032198D01*
X3227920Y-15032198D02*
X3208872Y-15022674D01*
X3208872Y-15022674D02*
X3170777Y-15022674D01*
X3170777Y-15022674D02*
X3151729Y-15032198D01*
X3151729Y-15032198D02*
X3142206Y-15041722D01*
X3142206Y-15041722D02*
X3132682Y-15060769D01*
X3418396Y-14946484D02*
X3380301Y-14946484D01*
X3380301Y-14946484D02*
X3361253Y-14956007D01*
X3361253Y-14956007D02*
X3351729Y-14965531D01*
X3351729Y-14965531D02*
X3332682Y-14994103D01*
X3332682Y-14994103D02*
X3323158Y-15032198D01*
X3323158Y-15032198D02*
X3323158Y-15108388D01*
X3323158Y-15108388D02*
X3332682Y-15127436D01*
X3332682Y-15127436D02*
X3342206Y-15136960D01*
X3342206Y-15136960D02*
X3361253Y-15146484D01*
X3361253Y-15146484D02*
X3399348Y-15146484D01*
X3399348Y-15146484D02*
X3418396Y-15136960D01*
X3418396Y-15136960D02*
X3427920Y-15127436D01*
X3427920Y-15127436D02*
X3437444Y-15108388D01*
X3437444Y-15108388D02*
X3437444Y-15060769D01*
X3437444Y-15060769D02*
X3427920Y-15041722D01*
X3427920Y-15041722D02*
X3418396Y-15032198D01*
X3418396Y-15032198D02*
X3399348Y-15022674D01*
X3399348Y-15022674D02*
X3361253Y-15022674D01*
X3361253Y-15022674D02*
X3342206Y-15032198D01*
X3342206Y-15032198D02*
X3332682Y-15041722D01*
X3332682Y-15041722D02*
X3323158Y-15060769D01*
X3513634Y-14946484D02*
X3513634Y-14984579D01*
X3589825Y-14946484D02*
X3589825Y-14984579D01*
X3885063Y-15222674D02*
X3875539Y-15213150D01*
X3875539Y-15213150D02*
X3856491Y-15184579D01*
X3856491Y-15184579D02*
X3846968Y-15165531D01*
X3846968Y-15165531D02*
X3837444Y-15136960D01*
X3837444Y-15136960D02*
X3827920Y-15089341D01*
X3827920Y-15089341D02*
X3827920Y-15051246D01*
X3827920Y-15051246D02*
X3837444Y-15003626D01*
X3837444Y-15003626D02*
X3846968Y-14975055D01*
X3846968Y-14975055D02*
X3856491Y-14956007D01*
X3856491Y-14956007D02*
X3875539Y-14927436D01*
X3875539Y-14927436D02*
X3885063Y-14917912D01*
X4066015Y-15146484D02*
X3951729Y-15146484D01*
X4008872Y-15146484D02*
X4008872Y-14946484D01*
X4008872Y-14946484D02*
X3989825Y-14975055D01*
X3989825Y-14975055D02*
X3970777Y-14994103D01*
X3970777Y-14994103D02*
X3951729Y-15003626D01*
X4237444Y-14946484D02*
X4199349Y-14946484D01*
X4199349Y-14946484D02*
X4180301Y-14956007D01*
X4180301Y-14956007D02*
X4170777Y-14965531D01*
X4170777Y-14965531D02*
X4151729Y-14994103D01*
X4151729Y-14994103D02*
X4142206Y-15032198D01*
X4142206Y-15032198D02*
X4142206Y-15108388D01*
X4142206Y-15108388D02*
X4151729Y-15127436D01*
X4151729Y-15127436D02*
X4161253Y-15136960D01*
X4161253Y-15136960D02*
X4180301Y-15146484D01*
X4180301Y-15146484D02*
X4218396Y-15146484D01*
X4218396Y-15146484D02*
X4237444Y-15136960D01*
X4237444Y-15136960D02*
X4246968Y-15127436D01*
X4246968Y-15127436D02*
X4256491Y-15108388D01*
X4256491Y-15108388D02*
X4256491Y-15060769D01*
X4256491Y-15060769D02*
X4246968Y-15041722D01*
X4246968Y-15041722D02*
X4237444Y-15032198D01*
X4237444Y-15032198D02*
X4218396Y-15022674D01*
X4218396Y-15022674D02*
X4180301Y-15022674D01*
X4180301Y-15022674D02*
X4161253Y-15032198D01*
X4161253Y-15032198D02*
X4151729Y-15041722D01*
X4151729Y-15041722D02*
X4142206Y-15060769D01*
X4494587Y-15146484D02*
X4494587Y-14946484D01*
X4580301Y-15146484D02*
X4580301Y-15041722D01*
X4580301Y-15041722D02*
X4570777Y-15022674D01*
X4570777Y-15022674D02*
X4551730Y-15013150D01*
X4551730Y-15013150D02*
X4523158Y-15013150D01*
X4523158Y-15013150D02*
X4504111Y-15022674D01*
X4504111Y-15022674D02*
X4494587Y-15032198D01*
X4704111Y-15146484D02*
X4685063Y-15136960D01*
X4685063Y-15136960D02*
X4675539Y-15127436D01*
X4675539Y-15127436D02*
X4666015Y-15108388D01*
X4666015Y-15108388D02*
X4666015Y-15051246D01*
X4666015Y-15051246D02*
X4675539Y-15032198D01*
X4675539Y-15032198D02*
X4685063Y-15022674D01*
X4685063Y-15022674D02*
X4704111Y-15013150D01*
X4704111Y-15013150D02*
X4732682Y-15013150D01*
X4732682Y-15013150D02*
X4751730Y-15022674D01*
X4751730Y-15022674D02*
X4761253Y-15032198D01*
X4761253Y-15032198D02*
X4770777Y-15051246D01*
X4770777Y-15051246D02*
X4770777Y-15108388D01*
X4770777Y-15108388D02*
X4761253Y-15127436D01*
X4761253Y-15127436D02*
X4751730Y-15136960D01*
X4751730Y-15136960D02*
X4732682Y-15146484D01*
X4732682Y-15146484D02*
X4704111Y-15146484D01*
X4885063Y-15146484D02*
X4866015Y-15136960D01*
X4866015Y-15136960D02*
X4856492Y-15117912D01*
X4856492Y-15117912D02*
X4856492Y-14946484D01*
X5037444Y-15136960D02*
X5018396Y-15146484D01*
X5018396Y-15146484D02*
X4980301Y-15146484D01*
X4980301Y-15146484D02*
X4961253Y-15136960D01*
X4961253Y-15136960D02*
X4951730Y-15117912D01*
X4951730Y-15117912D02*
X4951730Y-15041722D01*
X4951730Y-15041722D02*
X4961253Y-15022674D01*
X4961253Y-15022674D02*
X4980301Y-15013150D01*
X4980301Y-15013150D02*
X5018396Y-15013150D01*
X5018396Y-15013150D02*
X5037444Y-15022674D01*
X5037444Y-15022674D02*
X5046968Y-15041722D01*
X5046968Y-15041722D02*
X5046968Y-15060769D01*
X5046968Y-15060769D02*
X4951730Y-15079817D01*
X5123158Y-15136960D02*
X5142206Y-15146484D01*
X5142206Y-15146484D02*
X5180301Y-15146484D01*
X5180301Y-15146484D02*
X5199349Y-15136960D01*
X5199349Y-15136960D02*
X5208873Y-15117912D01*
X5208873Y-15117912D02*
X5208873Y-15108388D01*
X5208873Y-15108388D02*
X5199349Y-15089341D01*
X5199349Y-15089341D02*
X5180301Y-15079817D01*
X5180301Y-15079817D02*
X5151730Y-15079817D01*
X5151730Y-15079817D02*
X5132682Y-15070293D01*
X5132682Y-15070293D02*
X5123158Y-15051246D01*
X5123158Y-15051246D02*
X5123158Y-15041722D01*
X5123158Y-15041722D02*
X5132682Y-15022674D01*
X5132682Y-15022674D02*
X5151730Y-15013150D01*
X5151730Y-15013150D02*
X5180301Y-15013150D01*
X5180301Y-15013150D02*
X5199349Y-15022674D01*
X5275539Y-15222674D02*
X5285063Y-15213150D01*
X5285063Y-15213150D02*
X5304111Y-15184579D01*
X5304111Y-15184579D02*
X5313634Y-15165531D01*
X5313634Y-15165531D02*
X5323158Y-15136960D01*
X5323158Y-15136960D02*
X5332682Y-15089341D01*
X5332682Y-15089341D02*
X5332682Y-15051246D01*
X5332682Y-15051246D02*
X5323158Y-15003626D01*
X5323158Y-15003626D02*
X5313634Y-14975055D01*
X5313634Y-14975055D02*
X5304111Y-14956007D01*
X5304111Y-14956007D02*
X5285063Y-14927436D01*
X5285063Y-14927436D02*
X5275539Y-14917912D01*
X210000Y-15275000D02*
X210000Y-15475000D01*
X110000Y-15375000D02*
X310000Y-15375000D01*
X310000Y-15375000D02*
G75*
G02*
X110000Y-15375000I-100000J0D01*
G01*
X110000Y-15375000D02*
G75*
G02*
X310000Y-15375000I100000J0D01*
G01*
X551729Y-15266484D02*
X675539Y-15266484D01*
X675539Y-15266484D02*
X608872Y-15342674D01*
X608872Y-15342674D02*
X637444Y-15342674D01*
X637444Y-15342674D02*
X656491Y-15352198D01*
X656491Y-15352198D02*
X666015Y-15361722D01*
X666015Y-15361722D02*
X675539Y-15380769D01*
X675539Y-15380769D02*
X675539Y-15428388D01*
X675539Y-15428388D02*
X666015Y-15447436D01*
X666015Y-15447436D02*
X656491Y-15456960D01*
X656491Y-15456960D02*
X637444Y-15466484D01*
X637444Y-15466484D02*
X580301Y-15466484D01*
X580301Y-15466484D02*
X561253Y-15456960D01*
X561253Y-15456960D02*
X551729Y-15447436D01*
X761253Y-15447436D02*
X770777Y-15456960D01*
X770777Y-15456960D02*
X761253Y-15466484D01*
X761253Y-15466484D02*
X751729Y-15456960D01*
X751729Y-15456960D02*
X761253Y-15447436D01*
X761253Y-15447436D02*
X761253Y-15466484D01*
X837443Y-15266484D02*
X961253Y-15266484D01*
X961253Y-15266484D02*
X894586Y-15342674D01*
X894586Y-15342674D02*
X923158Y-15342674D01*
X923158Y-15342674D02*
X942205Y-15352198D01*
X942205Y-15352198D02*
X951729Y-15361722D01*
X951729Y-15361722D02*
X961253Y-15380769D01*
X961253Y-15380769D02*
X961253Y-15428388D01*
X961253Y-15428388D02*
X951729Y-15447436D01*
X951729Y-15447436D02*
X942205Y-15456960D01*
X942205Y-15456960D02*
X923158Y-15466484D01*
X923158Y-15466484D02*
X866015Y-15466484D01*
X866015Y-15466484D02*
X846967Y-15456960D01*
X846967Y-15456960D02*
X837443Y-15447436D01*
X1085063Y-15266484D02*
X1104110Y-15266484D01*
X1104110Y-15266484D02*
X1123158Y-15276007D01*
X1123158Y-15276007D02*
X1132682Y-15285531D01*
X1132682Y-15285531D02*
X1142205Y-15304579D01*
X1142205Y-15304579D02*
X1151729Y-15342674D01*
X1151729Y-15342674D02*
X1151729Y-15390293D01*
X1151729Y-15390293D02*
X1142205Y-15428388D01*
X1142205Y-15428388D02*
X1132682Y-15447436D01*
X1132682Y-15447436D02*
X1123158Y-15456960D01*
X1123158Y-15456960D02*
X1104110Y-15466484D01*
X1104110Y-15466484D02*
X1085063Y-15466484D01*
X1085063Y-15466484D02*
X1066015Y-15456960D01*
X1066015Y-15456960D02*
X1056491Y-15447436D01*
X1056491Y-15447436D02*
X1046967Y-15428388D01*
X1046967Y-15428388D02*
X1037443Y-15390293D01*
X1037443Y-15390293D02*
X1037443Y-15342674D01*
X1037443Y-15342674D02*
X1046967Y-15304579D01*
X1046967Y-15304579D02*
X1056491Y-15285531D01*
X1056491Y-15285531D02*
X1066015Y-15276007D01*
X1066015Y-15276007D02*
X1085063Y-15266484D01*
X1275539Y-15266484D02*
X1294586Y-15266484D01*
X1294586Y-15266484D02*
X1313634Y-15276007D01*
X1313634Y-15276007D02*
X1323158Y-15285531D01*
X1323158Y-15285531D02*
X1332682Y-15304579D01*
X1332682Y-15304579D02*
X1342205Y-15342674D01*
X1342205Y-15342674D02*
X1342205Y-15390293D01*
X1342205Y-15390293D02*
X1332682Y-15428388D01*
X1332682Y-15428388D02*
X1323158Y-15447436D01*
X1323158Y-15447436D02*
X1313634Y-15456960D01*
X1313634Y-15456960D02*
X1294586Y-15466484D01*
X1294586Y-15466484D02*
X1275539Y-15466484D01*
X1275539Y-15466484D02*
X1256491Y-15456960D01*
X1256491Y-15456960D02*
X1246967Y-15447436D01*
X1246967Y-15447436D02*
X1237444Y-15428388D01*
X1237444Y-15428388D02*
X1227920Y-15390293D01*
X1227920Y-15390293D02*
X1227920Y-15342674D01*
X1227920Y-15342674D02*
X1237444Y-15304579D01*
X1237444Y-15304579D02*
X1246967Y-15285531D01*
X1246967Y-15285531D02*
X1256491Y-15276007D01*
X1256491Y-15276007D02*
X1275539Y-15266484D01*
X1427920Y-15466484D02*
X1427920Y-15333150D01*
X1427920Y-15352198D02*
X1437443Y-15342674D01*
X1437443Y-15342674D02*
X1456491Y-15333150D01*
X1456491Y-15333150D02*
X1485063Y-15333150D01*
X1485063Y-15333150D02*
X1504110Y-15342674D01*
X1504110Y-15342674D02*
X1513634Y-15361722D01*
X1513634Y-15361722D02*
X1513634Y-15466484D01*
X1513634Y-15361722D02*
X1523158Y-15342674D01*
X1523158Y-15342674D02*
X1542205Y-15333150D01*
X1542205Y-15333150D02*
X1570777Y-15333150D01*
X1570777Y-15333150D02*
X1589824Y-15342674D01*
X1589824Y-15342674D02*
X1599348Y-15361722D01*
X1599348Y-15361722D02*
X1599348Y-15466484D01*
X1694586Y-15466484D02*
X1694586Y-15333150D01*
X1694586Y-15352198D02*
X1704110Y-15342674D01*
X1704110Y-15342674D02*
X1723158Y-15333150D01*
X1723158Y-15333150D02*
X1751729Y-15333150D01*
X1751729Y-15333150D02*
X1770777Y-15342674D01*
X1770777Y-15342674D02*
X1780301Y-15361722D01*
X1780301Y-15361722D02*
X1780301Y-15466484D01*
X1780301Y-15361722D02*
X1789824Y-15342674D01*
X1789824Y-15342674D02*
X1808872Y-15333150D01*
X1808872Y-15333150D02*
X1837443Y-15333150D01*
X1837443Y-15333150D02*
X1856491Y-15342674D01*
X1856491Y-15342674D02*
X1866015Y-15361722D01*
X1866015Y-15361722D02*
X1866015Y-15466484D01*
X2256491Y-15256960D02*
X2085063Y-15514103D01*
X2513634Y-15266484D02*
X2532682Y-15266484D01*
X2532682Y-15266484D02*
X2551729Y-15276007D01*
X2551729Y-15276007D02*
X2561253Y-15285531D01*
X2561253Y-15285531D02*
X2570777Y-15304579D01*
X2570777Y-15304579D02*
X2580301Y-15342674D01*
X2580301Y-15342674D02*
X2580301Y-15390293D01*
X2580301Y-15390293D02*
X2570777Y-15428388D01*
X2570777Y-15428388D02*
X2561253Y-15447436D01*
X2561253Y-15447436D02*
X2551729Y-15456960D01*
X2551729Y-15456960D02*
X2532682Y-15466484D01*
X2532682Y-15466484D02*
X2513634Y-15466484D01*
X2513634Y-15466484D02*
X2494587Y-15456960D01*
X2494587Y-15456960D02*
X2485063Y-15447436D01*
X2485063Y-15447436D02*
X2475539Y-15428388D01*
X2475539Y-15428388D02*
X2466015Y-15390293D01*
X2466015Y-15390293D02*
X2466015Y-15342674D01*
X2466015Y-15342674D02*
X2475539Y-15304579D01*
X2475539Y-15304579D02*
X2485063Y-15285531D01*
X2485063Y-15285531D02*
X2494587Y-15276007D01*
X2494587Y-15276007D02*
X2513634Y-15266484D01*
X2666015Y-15447436D02*
X2675539Y-15456960D01*
X2675539Y-15456960D02*
X2666015Y-15466484D01*
X2666015Y-15466484D02*
X2656491Y-15456960D01*
X2656491Y-15456960D02*
X2666015Y-15447436D01*
X2666015Y-15447436D02*
X2666015Y-15466484D01*
X2866015Y-15466484D02*
X2751729Y-15466484D01*
X2808872Y-15466484D02*
X2808872Y-15266484D01*
X2808872Y-15266484D02*
X2789825Y-15295055D01*
X2789825Y-15295055D02*
X2770777Y-15314103D01*
X2770777Y-15314103D02*
X2751729Y-15323626D01*
X2942206Y-15285531D02*
X2951729Y-15276007D01*
X2951729Y-15276007D02*
X2970777Y-15266484D01*
X2970777Y-15266484D02*
X3018396Y-15266484D01*
X3018396Y-15266484D02*
X3037444Y-15276007D01*
X3037444Y-15276007D02*
X3046967Y-15285531D01*
X3046967Y-15285531D02*
X3056491Y-15304579D01*
X3056491Y-15304579D02*
X3056491Y-15323626D01*
X3056491Y-15323626D02*
X3046967Y-15352198D01*
X3046967Y-15352198D02*
X2932682Y-15466484D01*
X2932682Y-15466484D02*
X3056491Y-15466484D01*
X3151729Y-15466484D02*
X3189825Y-15466484D01*
X3189825Y-15466484D02*
X3208872Y-15456960D01*
X3208872Y-15456960D02*
X3218396Y-15447436D01*
X3218396Y-15447436D02*
X3237444Y-15418865D01*
X3237444Y-15418865D02*
X3246967Y-15380769D01*
X3246967Y-15380769D02*
X3246967Y-15304579D01*
X3246967Y-15304579D02*
X3237444Y-15285531D01*
X3237444Y-15285531D02*
X3227920Y-15276007D01*
X3227920Y-15276007D02*
X3208872Y-15266484D01*
X3208872Y-15266484D02*
X3170777Y-15266484D01*
X3170777Y-15266484D02*
X3151729Y-15276007D01*
X3151729Y-15276007D02*
X3142206Y-15285531D01*
X3142206Y-15285531D02*
X3132682Y-15304579D01*
X3132682Y-15304579D02*
X3132682Y-15352198D01*
X3132682Y-15352198D02*
X3142206Y-15371246D01*
X3142206Y-15371246D02*
X3151729Y-15380769D01*
X3151729Y-15380769D02*
X3170777Y-15390293D01*
X3170777Y-15390293D02*
X3208872Y-15390293D01*
X3208872Y-15390293D02*
X3227920Y-15380769D01*
X3227920Y-15380769D02*
X3237444Y-15371246D01*
X3237444Y-15371246D02*
X3246967Y-15352198D01*
X3342206Y-15466484D02*
X3380301Y-15466484D01*
X3380301Y-15466484D02*
X3399348Y-15456960D01*
X3399348Y-15456960D02*
X3408872Y-15447436D01*
X3408872Y-15447436D02*
X3427920Y-15418865D01*
X3427920Y-15418865D02*
X3437444Y-15380769D01*
X3437444Y-15380769D02*
X3437444Y-15304579D01*
X3437444Y-15304579D02*
X3427920Y-15285531D01*
X3427920Y-15285531D02*
X3418396Y-15276007D01*
X3418396Y-15276007D02*
X3399348Y-15266484D01*
X3399348Y-15266484D02*
X3361253Y-15266484D01*
X3361253Y-15266484D02*
X3342206Y-15276007D01*
X3342206Y-15276007D02*
X3332682Y-15285531D01*
X3332682Y-15285531D02*
X3323158Y-15304579D01*
X3323158Y-15304579D02*
X3323158Y-15352198D01*
X3323158Y-15352198D02*
X3332682Y-15371246D01*
X3332682Y-15371246D02*
X3342206Y-15380769D01*
X3342206Y-15380769D02*
X3361253Y-15390293D01*
X3361253Y-15390293D02*
X3399348Y-15390293D01*
X3399348Y-15390293D02*
X3418396Y-15380769D01*
X3418396Y-15380769D02*
X3427920Y-15371246D01*
X3427920Y-15371246D02*
X3437444Y-15352198D01*
X3513634Y-15266484D02*
X3513634Y-15304579D01*
X3589825Y-15266484D02*
X3589825Y-15304579D01*
X3885063Y-15542674D02*
X3875539Y-15533150D01*
X3875539Y-15533150D02*
X3856491Y-15504579D01*
X3856491Y-15504579D02*
X3846968Y-15485531D01*
X3846968Y-15485531D02*
X3837444Y-15456960D01*
X3837444Y-15456960D02*
X3827920Y-15409341D01*
X3827920Y-15409341D02*
X3827920Y-15371246D01*
X3827920Y-15371246D02*
X3837444Y-15323626D01*
X3837444Y-15323626D02*
X3846968Y-15295055D01*
X3846968Y-15295055D02*
X3856491Y-15276007D01*
X3856491Y-15276007D02*
X3875539Y-15247436D01*
X3875539Y-15247436D02*
X3885063Y-15237912D01*
X4046968Y-15333150D02*
X4046968Y-15466484D01*
X3999348Y-15256960D02*
X3951729Y-15399817D01*
X3951729Y-15399817D02*
X4075539Y-15399817D01*
X4304111Y-15466484D02*
X4304111Y-15266484D01*
X4389825Y-15466484D02*
X4389825Y-15361722D01*
X4389825Y-15361722D02*
X4380301Y-15342674D01*
X4380301Y-15342674D02*
X4361253Y-15333150D01*
X4361253Y-15333150D02*
X4332682Y-15333150D01*
X4332682Y-15333150D02*
X4313634Y-15342674D01*
X4313634Y-15342674D02*
X4304111Y-15352198D01*
X4513634Y-15466484D02*
X4494587Y-15456960D01*
X4494587Y-15456960D02*
X4485063Y-15447436D01*
X4485063Y-15447436D02*
X4475539Y-15428388D01*
X4475539Y-15428388D02*
X4475539Y-15371246D01*
X4475539Y-15371246D02*
X4485063Y-15352198D01*
X4485063Y-15352198D02*
X4494587Y-15342674D01*
X4494587Y-15342674D02*
X4513634Y-15333150D01*
X4513634Y-15333150D02*
X4542206Y-15333150D01*
X4542206Y-15333150D02*
X4561253Y-15342674D01*
X4561253Y-15342674D02*
X4570777Y-15352198D01*
X4570777Y-15352198D02*
X4580301Y-15371246D01*
X4580301Y-15371246D02*
X4580301Y-15428388D01*
X4580301Y-15428388D02*
X4570777Y-15447436D01*
X4570777Y-15447436D02*
X4561253Y-15456960D01*
X4561253Y-15456960D02*
X4542206Y-15466484D01*
X4542206Y-15466484D02*
X4513634Y-15466484D01*
X4694587Y-15466484D02*
X4675539Y-15456960D01*
X4675539Y-15456960D02*
X4666015Y-15437912D01*
X4666015Y-15437912D02*
X4666015Y-15266484D01*
X4846968Y-15456960D02*
X4827920Y-15466484D01*
X4827920Y-15466484D02*
X4789825Y-15466484D01*
X4789825Y-15466484D02*
X4770777Y-15456960D01*
X4770777Y-15456960D02*
X4761253Y-15437912D01*
X4761253Y-15437912D02*
X4761253Y-15361722D01*
X4761253Y-15361722D02*
X4770777Y-15342674D01*
X4770777Y-15342674D02*
X4789825Y-15333150D01*
X4789825Y-15333150D02*
X4827920Y-15333150D01*
X4827920Y-15333150D02*
X4846968Y-15342674D01*
X4846968Y-15342674D02*
X4856492Y-15361722D01*
X4856492Y-15361722D02*
X4856492Y-15380769D01*
X4856492Y-15380769D02*
X4761253Y-15399817D01*
X4932682Y-15456960D02*
X4951730Y-15466484D01*
X4951730Y-15466484D02*
X4989825Y-15466484D01*
X4989825Y-15466484D02*
X5008873Y-15456960D01*
X5008873Y-15456960D02*
X5018396Y-15437912D01*
X5018396Y-15437912D02*
X5018396Y-15428388D01*
X5018396Y-15428388D02*
X5008873Y-15409341D01*
X5008873Y-15409341D02*
X4989825Y-15399817D01*
X4989825Y-15399817D02*
X4961253Y-15399817D01*
X4961253Y-15399817D02*
X4942206Y-15390293D01*
X4942206Y-15390293D02*
X4932682Y-15371246D01*
X4932682Y-15371246D02*
X4932682Y-15361722D01*
X4932682Y-15361722D02*
X4942206Y-15342674D01*
X4942206Y-15342674D02*
X4961253Y-15333150D01*
X4961253Y-15333150D02*
X4989825Y-15333150D01*
X4989825Y-15333150D02*
X5008873Y-15342674D01*
X5085063Y-15542674D02*
X5094587Y-15533150D01*
X5094587Y-15533150D02*
X5113634Y-15504579D01*
X5113634Y-15504579D02*
X5123158Y-15485531D01*
X5123158Y-15485531D02*
X5132682Y-15456960D01*
X5132682Y-15456960D02*
X5142206Y-15409341D01*
X5142206Y-15409341D02*
X5142206Y-15371246D01*
X5142206Y-15371246D02*
X5132682Y-15323626D01*
X5132682Y-15323626D02*
X5123158Y-15295055D01*
X5123158Y-15295055D02*
X5113634Y-15276007D01*
X5113634Y-15276007D02*
X5094587Y-15247436D01*
X5094587Y-15247436D02*
X5085063Y-15237912D01*
M02*
