%TF.GenerationSoftware,KiCad,Pcbnew,9.0.0*%
%TF.CreationDate,2025-03-27T10:42:41+01:00*%
%TF.ProjectId,Cabletester_CB_Fakra,4361626c-6574-4657-9374-65725f43425f,rev?*%
%TF.SameCoordinates,PX2160ec0PY280de80*%
%TF.FileFunction,Plated,1,2,PTH,Drill*%
%TF.FilePolarity,Positive*%
%FSLAX46Y46*%
G04 Gerber Fmt 4.6, Leading zero omitted, Abs format (unit mm)*
G04 Created by KiCad (PCBNEW 9.0.0) date 2025-03-27 10:42:41*
%MOMM*%
%LPD*%
G01*
G04 APERTURE LIST*
%TA.AperFunction,ViaDrill*%
%ADD10C,0.300000*%
%TD*%
%TA.AperFunction,ComponentDrill*%
%ADD11C,0.750000*%
%TD*%
%TA.AperFunction,ComponentDrill*%
%ADD12C,1.000000*%
%TD*%
%TA.AperFunction,ComponentDrill*%
%ADD13C,1.100000*%
%TD*%
%TA.AperFunction,ComponentDrill*%
%ADD14C,1.450000*%
%TD*%
%TA.AperFunction,ComponentDrill*%
%ADD15C,1.500000*%
%TD*%
%TA.AperFunction,ComponentDrill*%
%ADD16C,1.650000*%
%TD*%
%TA.AperFunction,ComponentDrill*%
%ADD17C,1.750000*%
%TD*%
%TA.AperFunction,ComponentDrill*%
%ADD18C,2.200000*%
%TD*%
%TA.AperFunction,ComponentDrill*%
%ADD19C,3.300000*%
%TD*%
G04 APERTURE END LIST*
D10*
X6845000Y-16165000D03*
X6845000Y-19165000D03*
X6845000Y-22165000D03*
X8945000Y-33665000D03*
X8945000Y-36665000D03*
X8945000Y-39665000D03*
X8945000Y-42665000D03*
X8945000Y-45665000D03*
X8945000Y-48665000D03*
X8945000Y-51665000D03*
X8945000Y-54665000D03*
X8945000Y-57665000D03*
X8945000Y-60665000D03*
X8945000Y-63665000D03*
X8945000Y-66665000D03*
X8945000Y-69665000D03*
X8945000Y-72665000D03*
X8945000Y-75665000D03*
X8945000Y-78665000D03*
X8945000Y-81665000D03*
X8945000Y-84665000D03*
X8945000Y-87665000D03*
X8945000Y-90665000D03*
X8945000Y-93665000D03*
X8945000Y-96665000D03*
X8945000Y-99665000D03*
X19545000Y-114465000D03*
X19545000Y-117465000D03*
X19545000Y-120465000D03*
X20845000Y-16165000D03*
X20845000Y-19165000D03*
X20845000Y-22165000D03*
X23195000Y-42984999D03*
X23425000Y-77604999D03*
X25345000Y-27065000D03*
X25345000Y-30065000D03*
X25345000Y-33065000D03*
X25345000Y-36065000D03*
X25345000Y-39065000D03*
X25345000Y-42065000D03*
X26315000Y-78989999D03*
X27235000Y-44365000D03*
X28745000Y-81165000D03*
X28745000Y-84165000D03*
X28745000Y-87165000D03*
X28745000Y-90165000D03*
X28745000Y-93165000D03*
X28745000Y-96165000D03*
X28745000Y-99165000D03*
X28745000Y-102165000D03*
X28745000Y-105165000D03*
X28745000Y-108165000D03*
X29045000Y-28765000D03*
X29045000Y-31765000D03*
X29045000Y-34765000D03*
X29045000Y-37765000D03*
X29045000Y-40765000D03*
X29045000Y-43765000D03*
X30000000Y-62374999D03*
X30945000Y-81165000D03*
X30945000Y-84165000D03*
X30945000Y-87165000D03*
X30945000Y-90165000D03*
X30945000Y-93165000D03*
X30945000Y-96165000D03*
X30945000Y-99165000D03*
X30945000Y-102165000D03*
X30945000Y-105165000D03*
X30945000Y-108165000D03*
X31045000Y-28765000D03*
X31045000Y-31765000D03*
X31045000Y-34765000D03*
X31045000Y-37765000D03*
X31045000Y-40765000D03*
X31045000Y-43765000D03*
X32745000Y-114465000D03*
X32745000Y-117465000D03*
X32745000Y-120465000D03*
X33345000Y-81265000D03*
X33345000Y-84265000D03*
X33345000Y-87265000D03*
X33345000Y-90265000D03*
X33345000Y-93265000D03*
X33345000Y-96265000D03*
X33345000Y-99265000D03*
X33345000Y-102265000D03*
X33345000Y-105265000D03*
X33345000Y-108265000D03*
X33745000Y-16165000D03*
X33745000Y-19165000D03*
X33745000Y-22165000D03*
X35545000Y-81265000D03*
X35545000Y-84265000D03*
X35545000Y-87265000D03*
X35545000Y-90265000D03*
X35545000Y-93265000D03*
X35545000Y-96265000D03*
X35545000Y-99265000D03*
X35545000Y-102265000D03*
X35545000Y-105265000D03*
X35545000Y-108265000D03*
X36545000Y-27965000D03*
X36545000Y-30965000D03*
X36545000Y-33965000D03*
X36545000Y-36965000D03*
X36545000Y-39965000D03*
X36545000Y-42965000D03*
X38545000Y-27965000D03*
X38545000Y-30965000D03*
X38545000Y-33965000D03*
X38545000Y-36965000D03*
X38545000Y-39965000D03*
X38545000Y-42965000D03*
X39315000Y-80374999D03*
X40085000Y-45745000D03*
X41745000Y-28565000D03*
X41745000Y-31565000D03*
X41745000Y-34565000D03*
X41745000Y-37565000D03*
X41745000Y-40565000D03*
X41745000Y-43565000D03*
X41745000Y-81775000D03*
X41745000Y-84665000D03*
X41745000Y-87665000D03*
X41745000Y-90665000D03*
X41745000Y-93665000D03*
X41745000Y-96665000D03*
X41745000Y-99665000D03*
X41745000Y-102665000D03*
X41745000Y-105665000D03*
X41745000Y-108665000D03*
X43745000Y-28565000D03*
X43745000Y-31565000D03*
X43745000Y-34565000D03*
X43745000Y-37565000D03*
X43745000Y-40565000D03*
X43745000Y-43565000D03*
X44045000Y-81765000D03*
X44045000Y-84765000D03*
X44045000Y-87765000D03*
X44045000Y-90765000D03*
X44045000Y-93765000D03*
X44045000Y-96765000D03*
X44045000Y-99765000D03*
X44045000Y-102765000D03*
X44045000Y-105765000D03*
X44045000Y-108765000D03*
X45545000Y-114465000D03*
X45545000Y-117465000D03*
X45545000Y-120465000D03*
X46345000Y-81765000D03*
X46345000Y-84765000D03*
X46345000Y-87765000D03*
X46345000Y-90765000D03*
X46345000Y-93765000D03*
X46345000Y-96765000D03*
X46345000Y-99765000D03*
X46345000Y-102765000D03*
X46345000Y-105765000D03*
X46345000Y-108765000D03*
X46745000Y-16065000D03*
X46745000Y-19065000D03*
X46745000Y-22065000D03*
X48000000Y-60989999D03*
X48545000Y-81765000D03*
X48545000Y-84765000D03*
X48545000Y-87765000D03*
X48545000Y-90765000D03*
X48545000Y-93765000D03*
X48545000Y-96765000D03*
X48545000Y-99765000D03*
X48545000Y-102765000D03*
X48545000Y-105765000D03*
X48545000Y-108765000D03*
X48845000Y-28565000D03*
X48845000Y-31565000D03*
X48845000Y-34565000D03*
X48845000Y-37565000D03*
X48845000Y-40565000D03*
X48845000Y-43565000D03*
X50845000Y-28565000D03*
X50845000Y-31565000D03*
X50845000Y-34565000D03*
X50845000Y-37565000D03*
X50845000Y-40565000D03*
X50845000Y-43565000D03*
X52315000Y-81759999D03*
X53199999Y-47139999D03*
X54845000Y-83965000D03*
X54845000Y-86965000D03*
X54845000Y-89965000D03*
X54845000Y-92965000D03*
X54845000Y-95965000D03*
X54845000Y-98965000D03*
X54845000Y-101965000D03*
X54845000Y-104965000D03*
X54845000Y-107965000D03*
X54845000Y-110965000D03*
X57845000Y-83865000D03*
X57845000Y-86865000D03*
X57845000Y-89865000D03*
X57845000Y-92865000D03*
X57845000Y-95865000D03*
X57845000Y-98865000D03*
X57845000Y-101865000D03*
X57845000Y-104865000D03*
X57845000Y-107865000D03*
X57845000Y-110865000D03*
X58245000Y-114465000D03*
X58245000Y-117465000D03*
X58245000Y-120465000D03*
X60645000Y-16365000D03*
X60645000Y-19365000D03*
X60645000Y-22365000D03*
X60745000Y-83865000D03*
X60745000Y-86865000D03*
X60745000Y-89865000D03*
X60745000Y-92865000D03*
X60745000Y-95865000D03*
X60745000Y-98865000D03*
X60745000Y-101865000D03*
X60745000Y-104865000D03*
X60745000Y-107865000D03*
X60745000Y-110865000D03*
X63345000Y-16365000D03*
X63345000Y-19365000D03*
X63345000Y-22365000D03*
X64105000Y-83144999D03*
X66000000Y-60984999D03*
X66045000Y-85765000D03*
X66045000Y-88765000D03*
X66045000Y-91765000D03*
X66045000Y-94765000D03*
X66045000Y-97765000D03*
X66045000Y-100765000D03*
X66045000Y-103765000D03*
X66045000Y-106765000D03*
X66045000Y-109765000D03*
X66045000Y-112765000D03*
X68105000Y-84529999D03*
X69725000Y-48524999D03*
X70445000Y-85865000D03*
X70445000Y-88865000D03*
X70445000Y-91865000D03*
X70445000Y-94865000D03*
X70445000Y-97865000D03*
X70445000Y-100865000D03*
X70445000Y-103865000D03*
X70445000Y-106865000D03*
X70445000Y-109865000D03*
X71845000Y-28765000D03*
X71845000Y-31765000D03*
X71845000Y-34765000D03*
X71845000Y-37765000D03*
X71845000Y-40765000D03*
X71845000Y-43765000D03*
X71845000Y-46765000D03*
X73645000Y-86865000D03*
X73645000Y-89865000D03*
X73645000Y-92865000D03*
X73645000Y-95865000D03*
X73645000Y-98865000D03*
X73645000Y-101865000D03*
X73645000Y-104865000D03*
X73645000Y-107865000D03*
X73645000Y-110865000D03*
X73845000Y-28765000D03*
X73845000Y-31765000D03*
X73845000Y-34765000D03*
X73845000Y-37765000D03*
X73845000Y-40765000D03*
X73845000Y-43765000D03*
X73845000Y-46765000D03*
X75045000Y-114665000D03*
X75045000Y-117665000D03*
X75045000Y-120665000D03*
X76545000Y-85865000D03*
X76545000Y-88865000D03*
X76545000Y-91865000D03*
X76545000Y-94865000D03*
X76545000Y-97865000D03*
X76545000Y-100865000D03*
X76545000Y-103865000D03*
X76545000Y-106865000D03*
X76545000Y-109865000D03*
X77725000Y-49909999D03*
X79345000Y-87165000D03*
X79345000Y-90165000D03*
X79345000Y-93165000D03*
X79345000Y-96165000D03*
X79345000Y-99165000D03*
X79345000Y-102165000D03*
X79345000Y-105165000D03*
X79345000Y-108165000D03*
X79345000Y-111165000D03*
X79745000Y-28765000D03*
X79745000Y-31765000D03*
X79745000Y-34765000D03*
X79745000Y-37765000D03*
X79745000Y-40765000D03*
X79745000Y-43765000D03*
X81545000Y-28765000D03*
X81545000Y-31765000D03*
X81545000Y-34765000D03*
X81545000Y-37765000D03*
X81545000Y-40765000D03*
X81545000Y-43765000D03*
X82225000Y-85915000D03*
X84000000Y-62369999D03*
X84445000Y-16365000D03*
X84445000Y-19365000D03*
X84445000Y-22365000D03*
X86225000Y-87299999D03*
X86845000Y-16365000D03*
X86845000Y-19365000D03*
X86845000Y-22365000D03*
X87345000Y-28765000D03*
X87345000Y-31765000D03*
X87345000Y-34765000D03*
X87345000Y-37765000D03*
X87345000Y-40765000D03*
X87345000Y-43765000D03*
X88975001Y-51294999D03*
X91725000Y-52679999D03*
X92525000Y-90069999D03*
X92525000Y-117945000D03*
X93445000Y-35665000D03*
X93445000Y-38665000D03*
X93445000Y-41665000D03*
X93445000Y-44665000D03*
X93445000Y-47665000D03*
X93445000Y-50665000D03*
X93525000Y-92845000D03*
X93525000Y-113945000D03*
X103445000Y-105565000D03*
X103445000Y-108565000D03*
X106345000Y-107565000D03*
X108545000Y-16365000D03*
X108545000Y-19365000D03*
X108545000Y-22365000D03*
X109025000Y-91454999D03*
X109025000Y-117945000D03*
X110025000Y-88684999D03*
X110025000Y-113945000D03*
D11*
%TO.C,J5*%
X99455000Y-113945000D03*
X99455000Y-117945000D03*
X103455000Y-113945000D03*
X103455000Y-117945000D03*
D12*
%TO.C,J1*%
X13005001Y-44369999D03*
X13005001Y-47139999D03*
X13005001Y-49909999D03*
X13005001Y-52679999D03*
X13005001Y-55449999D03*
X13005001Y-58219999D03*
X13005001Y-60989999D03*
X13005001Y-63759999D03*
X13005001Y-66529999D03*
X13005001Y-69299999D03*
X13005001Y-72069999D03*
X13005001Y-74839999D03*
X13005001Y-77609999D03*
X13005001Y-80379999D03*
X13005001Y-83149999D03*
X13005001Y-85919999D03*
X13005001Y-88689999D03*
X13005001Y-91459999D03*
X15845001Y-42984999D03*
X15845001Y-45754999D03*
X15845001Y-48524999D03*
X15845001Y-51294999D03*
X15845001Y-54064999D03*
X15845001Y-56834999D03*
X15845001Y-59604999D03*
X15845001Y-62374999D03*
X15845001Y-65144999D03*
X15845001Y-67914999D03*
X15845001Y-70684999D03*
X15845001Y-73454999D03*
X15845001Y-76224999D03*
X15845001Y-78994999D03*
X15845001Y-81764999D03*
X15845001Y-84534999D03*
X15845001Y-87304999D03*
X15845001Y-90074999D03*
X15845001Y-92844999D03*
%TO.C,J2*%
X99445001Y-42979999D03*
X99445001Y-45749999D03*
X99445001Y-48519999D03*
X99445001Y-51289999D03*
X99445001Y-54059999D03*
X99445001Y-56829999D03*
X99445001Y-59599999D03*
X99445001Y-62369999D03*
X99445001Y-65139999D03*
X99445001Y-67909999D03*
X99445001Y-70679999D03*
X99445001Y-73449999D03*
X99445001Y-76219999D03*
X99445001Y-78989999D03*
X99445001Y-81759999D03*
X99445001Y-84529999D03*
X99445001Y-87299999D03*
X99445001Y-90069999D03*
X99445001Y-92839999D03*
X102285001Y-44364999D03*
X102285001Y-47134999D03*
X102285001Y-49904999D03*
X102285001Y-52674999D03*
X102285001Y-55444999D03*
X102285001Y-58214999D03*
X102285001Y-60984999D03*
X102285001Y-63754999D03*
X102285001Y-66524999D03*
X102285001Y-69294999D03*
X102285001Y-72064999D03*
X102285001Y-74834999D03*
X102285001Y-77604999D03*
X102285001Y-80374999D03*
X102285001Y-83144999D03*
X102285001Y-85914999D03*
X102285001Y-88684999D03*
X102285001Y-91454999D03*
D13*
%TO.C,J7*%
X13315000Y-117900000D03*
%TO.C,J13*%
X26315000Y-117900000D03*
%TO.C,J14*%
X39315000Y-117900000D03*
%TO.C,J15*%
X52315000Y-117900000D03*
%TO.C,J6*%
X64105000Y-117835000D03*
X68105000Y-117835000D03*
%TO.C,J16*%
X82225000Y-117855000D03*
X86225000Y-117855000D03*
D14*
%TO.C,J3*%
X69725000Y-19795000D03*
X77725000Y-19795000D03*
%TO.C,J12*%
X93195000Y-19795000D03*
X101195000Y-19795000D03*
%TO.C,J5*%
X101455000Y-115855000D03*
D15*
%TO.C,J17*%
X30000000Y-69000000D03*
%TO.C,J4*%
X48000000Y-69000000D03*
%TO.C,J18*%
X66000000Y-69000000D03*
%TO.C,J19*%
X84000000Y-69000000D03*
D16*
%TO.C,J11*%
X11205000Y-16025000D03*
X11205000Y-23025000D03*
X17205000Y-16025000D03*
X17205000Y-23025000D03*
%TO.C,J10*%
X24205000Y-16025000D03*
X24205000Y-23025000D03*
X30205000Y-16025000D03*
X30205000Y-23025000D03*
%TO.C,J9*%
X37205000Y-16025000D03*
X37205000Y-23025000D03*
X43205000Y-16025000D03*
X43205000Y-23025000D03*
%TO.C,J8*%
X50205000Y-16025000D03*
X50205000Y-23025000D03*
X56205000Y-16025000D03*
X56205000Y-23025000D03*
%TO.C,J3*%
X67185000Y-17255000D03*
X67185000Y-22335000D03*
X80265000Y-17255000D03*
X80265000Y-22335000D03*
%TO.C,J12*%
X90655000Y-17255000D03*
X90655000Y-22335000D03*
X103735000Y-17255000D03*
X103735000Y-22335000D03*
D17*
%TO.C,J7*%
X10815000Y-114910000D03*
X10815000Y-120410000D03*
X15815000Y-114910000D03*
X15815000Y-120410000D03*
%TO.C,J13*%
X23815000Y-114910000D03*
X23815000Y-120410000D03*
X28815000Y-114910000D03*
X28815000Y-120410000D03*
%TO.C,J14*%
X36815000Y-114910000D03*
X36815000Y-120410000D03*
X41815000Y-114910000D03*
X41815000Y-120410000D03*
%TO.C,J15*%
X49815000Y-114910000D03*
X49815000Y-120410000D03*
X54815000Y-114910000D03*
X54815000Y-120410000D03*
%TO.C,J6*%
X61805000Y-114845000D03*
X61805000Y-120345000D03*
X70405000Y-114845000D03*
X70405000Y-120345000D03*
%TO.C,J16*%
X79925000Y-114865000D03*
X79925000Y-120365000D03*
X88525000Y-114865000D03*
X88525000Y-120365000D03*
%TO.C,J5*%
X96880000Y-112355000D03*
X96880000Y-120455000D03*
X106030000Y-112355000D03*
X106030000Y-120455000D03*
D18*
%TO.C,J17*%
X26570000Y-65570000D03*
X26570000Y-72430000D03*
X33430000Y-65570000D03*
X33430000Y-72430000D03*
%TO.C,J4*%
X44570000Y-65570000D03*
X44570000Y-72430000D03*
X51430000Y-65570000D03*
X51430000Y-72430000D03*
%TO.C,J18*%
X62570000Y-65570000D03*
X62570000Y-72430000D03*
X69430000Y-65570000D03*
X69430000Y-72430000D03*
%TO.C,J19*%
X80570000Y-65570000D03*
X80570000Y-72430000D03*
X87430000Y-65570000D03*
X87430000Y-72430000D03*
D19*
%TO.C,J1*%
X14425001Y-36164999D03*
X14425001Y-99664999D03*
%TO.C,J2*%
X100865001Y-36159999D03*
X100865001Y-99659999D03*
M02*
