G04 #@! TF.GenerationSoftware,KiCad,Pcbnew,9.0.0*
G04 #@! TF.CreationDate,2025-03-27T10:42:46+01:00*
G04 #@! TF.ProjectId,Cabletester_CB_Fakra,4361626c-6574-4657-9374-65725f43425f,rev?*
G04 #@! TF.SameCoordinates,PX2160ec0PY280de80*
G04 #@! TF.FileFunction,Legend,Bot*
G04 #@! TF.FilePolarity,Positive*
%FSLAX46Y46*%
G04 Gerber Fmt 4.6, Leading zero omitted, Abs format (unit mm)*
G04 Created by KiCad (PCBNEW 9.0.0) date 2025-03-27 10:42:46*
%MOMM*%
%LPD*%
G01*
G04 APERTURE LIST*
%ADD10C,0.150000*%
%ADD11C,0.120000*%
G04 #@! TA.AperFunction,Profile*
%ADD12C,0.050000*%
G04 #@! TD*
G04 APERTURE END LIST*
D10*
X93009820Y-67576665D02*
X93724105Y-67576665D01*
X93724105Y-67576665D02*
X93866962Y-67529046D01*
X93866962Y-67529046D02*
X93962201Y-67433808D01*
X93962201Y-67433808D02*
X94009820Y-67290951D01*
X94009820Y-67290951D02*
X94009820Y-67195713D01*
X93105058Y-68005237D02*
X93057439Y-68052856D01*
X93057439Y-68052856D02*
X93009820Y-68148094D01*
X93009820Y-68148094D02*
X93009820Y-68386189D01*
X93009820Y-68386189D02*
X93057439Y-68481427D01*
X93057439Y-68481427D02*
X93105058Y-68529046D01*
X93105058Y-68529046D02*
X93200296Y-68576665D01*
X93200296Y-68576665D02*
X93295534Y-68576665D01*
X93295534Y-68576665D02*
X93438391Y-68529046D01*
X93438391Y-68529046D02*
X94009820Y-67957618D01*
X94009820Y-67957618D02*
X94009820Y-68576665D01*
X21189820Y-67581665D02*
X21904105Y-67581665D01*
X21904105Y-67581665D02*
X22046962Y-67534046D01*
X22046962Y-67534046D02*
X22142201Y-67438808D01*
X22142201Y-67438808D02*
X22189820Y-67295951D01*
X22189820Y-67295951D02*
X22189820Y-67200713D01*
X22189820Y-68581665D02*
X22189820Y-68010237D01*
X22189820Y-68295951D02*
X21189820Y-68295951D01*
X21189820Y-68295951D02*
X21332677Y-68200713D01*
X21332677Y-68200713D02*
X21427915Y-68105475D01*
X21427915Y-68105475D02*
X21475534Y-68010237D01*
D11*
G04 #@! TO.C,J2*
X93660663Y-92589999D02*
X94093676Y-92839999D01*
X93660663Y-93089999D02*
X93660663Y-92589999D01*
X94093676Y-92839999D02*
X93660663Y-93089999D01*
X94555001Y-101609999D02*
X94555001Y-34209999D01*
X95615001Y-33149999D02*
X106115001Y-33149999D01*
X96855001Y-93391688D02*
X96855001Y-42428310D01*
X103503257Y-41622266D02*
X98803257Y-40793529D01*
X103503257Y-94197732D02*
X98803257Y-95026469D01*
X104875001Y-92562951D02*
X104875001Y-43257047D01*
X106115001Y-102669999D02*
X95615001Y-102669999D01*
X107175001Y-34209999D02*
X107175001Y-101609999D01*
X94555001Y-34209999D02*
G75*
G02*
X95615001Y-33149999I1060001J-1D01*
G01*
X95615001Y-102669999D02*
G75*
G02*
X94555001Y-101609999I0J1060000D01*
G01*
X96855001Y-42428310D02*
G75*
G02*
X98803257Y-40793529I1659999J1D01*
G01*
X98803257Y-95026469D02*
G75*
G02*
X96855012Y-93391688I-288256J1634770D01*
G01*
X103503257Y-41622266D02*
G75*
G02*
X104875001Y-43257047I-288259J-1634783D01*
G01*
X104875001Y-92562951D02*
G75*
G02*
X103503265Y-94197778I-1660000J-48D01*
G01*
X106115001Y-33149999D02*
G75*
G02*
X107175001Y-34209999I-1J-1060001D01*
G01*
X107175001Y-101609999D02*
G75*
G02*
X106115001Y-102669999I-1060000J0D01*
G01*
G04 #@! TO.C,J1*
X8115001Y-101614999D02*
X8115001Y-34214999D01*
X9175001Y-33154999D02*
X19675001Y-33154999D01*
X10415001Y-43262047D02*
X10415001Y-92567951D01*
X11786745Y-41627266D02*
X16486745Y-40798529D01*
X11786745Y-94202732D02*
X16486745Y-95031469D01*
X18435001Y-42433310D02*
X18435001Y-93396688D01*
X19675001Y-102674999D02*
X9175001Y-102674999D01*
X20735001Y-34214999D02*
X20735001Y-101614999D01*
X21196326Y-42984999D02*
X21629339Y-42734999D01*
X21629339Y-42734999D02*
X21629339Y-43234999D01*
X21629339Y-43234999D02*
X21196326Y-42984999D01*
X8115001Y-34214999D02*
G75*
G02*
X9175001Y-33154999I1060000J0D01*
G01*
X9175001Y-102674999D02*
G75*
G02*
X8115001Y-101614999I1J1060001D01*
G01*
X10415001Y-43262047D02*
G75*
G02*
X11786751Y-41627301I1659900J48D01*
G01*
X11786745Y-94202732D02*
G75*
G02*
X10415001Y-92567951I288259J1634783D01*
G01*
X16486745Y-40798529D02*
G75*
G02*
X18434990Y-42433310I288256J-1634770D01*
G01*
X18435001Y-93396688D02*
G75*
G02*
X16486745Y-95031469I-1659999J-1D01*
G01*
X19675001Y-33154999D02*
G75*
G02*
X20735001Y-34214999I0J-1060000D01*
G01*
X20735001Y-101614999D02*
G75*
G02*
X19675001Y-102674999I-1060001J1D01*
G01*
G04 #@! TD*
D12*
X3805005Y-13405000D02*
X111404205Y-13405833D01*
X111404167Y-122414999D02*
X3805000Y-122414999D01*
X112084167Y-14085800D02*
X112084167Y-121734200D01*
X3125000Y-14085000D02*
G75*
G02*
X3805005Y-13405000I680000J0D01*
G01*
X3125000Y-121735000D02*
X3125000Y-14085000D01*
X3805000Y-122414999D02*
G75*
G02*
X3125001Y-121735000I0J679999D01*
G01*
X111404205Y-13405833D02*
G75*
G02*
X112084167Y-14085800I-5J-679967D01*
G01*
X112084167Y-121734200D02*
G75*
G02*
X111404167Y-122414167I-679967J0D01*
G01*
M02*
