%TF.GenerationSoftware,KiCad,Pcbnew,9.0.0*%
%TF.CreationDate,2025-03-27T10:42:41+01:00*%
%TF.ProjectId,Cabletester_CB_Fakra,4361626c-6574-4657-9374-65725f43425f,rev?*%
%TF.SameCoordinates,PX2160ec0PY280de80*%
%TF.FileFunction,Drillmap*%
%TF.FilePolarity,Positive*%
%FSLAX45Y45*%
G04 Gerber Fmt 4.5, Leading zero omitted, Abs format (unit mm)*
G04 Created by KiCad (PCBNEW 9.0.0) date 2025-03-27 10:42:41*
%MOMM*%
%LPD*%
G01*
G04 APERTURE LIST*
%ADD10C,0.050000*%
%ADD11C,0.200000*%
G04 APERTURE END LIST*
D10*
X380500Y-1340500D02*
X11140421Y-1340583D01*
X11140417Y-12241500D02*
X380500Y-12241500D01*
X11208417Y-1408580D02*
X11208417Y-12173420D01*
X312500Y-1408500D02*
G75*
G02*
X380500Y-1340500I68000J0D01*
G01*
X312500Y-12173500D02*
X312500Y-1408500D01*
X380500Y-12241500D02*
G75*
G02*
X312500Y-12173500I0J68000D01*
G01*
X11140421Y-1340583D02*
G75*
G02*
X11208417Y-1408580I-1J-67997D01*
G01*
X11208417Y-12173420D02*
G75*
G02*
X11140417Y-12241417I-67997J0D01*
G01*
D11*
X570777Y-12555484D02*
X570777Y-12355484D01*
X570777Y-12355484D02*
X618396Y-12355484D01*
X618396Y-12355484D02*
X646967Y-12365007D01*
X646967Y-12365007D02*
X666015Y-12384055D01*
X666015Y-12384055D02*
X675539Y-12403103D01*
X675539Y-12403103D02*
X685063Y-12441198D01*
X685063Y-12441198D02*
X685063Y-12469769D01*
X685063Y-12469769D02*
X675539Y-12507865D01*
X675539Y-12507865D02*
X666015Y-12526912D01*
X666015Y-12526912D02*
X646967Y-12545960D01*
X646967Y-12545960D02*
X618396Y-12555484D01*
X618396Y-12555484D02*
X570777Y-12555484D01*
X770777Y-12555484D02*
X770777Y-12422150D01*
X770777Y-12460246D02*
X780301Y-12441198D01*
X780301Y-12441198D02*
X789824Y-12431674D01*
X789824Y-12431674D02*
X808872Y-12422150D01*
X808872Y-12422150D02*
X827920Y-12422150D01*
X894586Y-12555484D02*
X894586Y-12422150D01*
X894586Y-12355484D02*
X885062Y-12365007D01*
X885062Y-12365007D02*
X894586Y-12374531D01*
X894586Y-12374531D02*
X904110Y-12365007D01*
X904110Y-12365007D02*
X894586Y-12355484D01*
X894586Y-12355484D02*
X894586Y-12374531D01*
X1018396Y-12555484D02*
X999348Y-12545960D01*
X999348Y-12545960D02*
X989824Y-12526912D01*
X989824Y-12526912D02*
X989824Y-12355484D01*
X1123158Y-12555484D02*
X1104110Y-12545960D01*
X1104110Y-12545960D02*
X1094586Y-12526912D01*
X1094586Y-12526912D02*
X1094586Y-12355484D01*
X1351729Y-12555484D02*
X1351729Y-12355484D01*
X1351729Y-12355484D02*
X1418396Y-12498341D01*
X1418396Y-12498341D02*
X1485062Y-12355484D01*
X1485062Y-12355484D02*
X1485062Y-12555484D01*
X1666015Y-12555484D02*
X1666015Y-12450722D01*
X1666015Y-12450722D02*
X1656491Y-12431674D01*
X1656491Y-12431674D02*
X1637443Y-12422150D01*
X1637443Y-12422150D02*
X1599348Y-12422150D01*
X1599348Y-12422150D02*
X1580301Y-12431674D01*
X1666015Y-12545960D02*
X1646967Y-12555484D01*
X1646967Y-12555484D02*
X1599348Y-12555484D01*
X1599348Y-12555484D02*
X1580301Y-12545960D01*
X1580301Y-12545960D02*
X1570777Y-12526912D01*
X1570777Y-12526912D02*
X1570777Y-12507865D01*
X1570777Y-12507865D02*
X1580301Y-12488817D01*
X1580301Y-12488817D02*
X1599348Y-12479293D01*
X1599348Y-12479293D02*
X1646967Y-12479293D01*
X1646967Y-12479293D02*
X1666015Y-12469769D01*
X1761253Y-12422150D02*
X1761253Y-12622150D01*
X1761253Y-12431674D02*
X1780301Y-12422150D01*
X1780301Y-12422150D02*
X1818396Y-12422150D01*
X1818396Y-12422150D02*
X1837443Y-12431674D01*
X1837443Y-12431674D02*
X1846967Y-12441198D01*
X1846967Y-12441198D02*
X1856491Y-12460246D01*
X1856491Y-12460246D02*
X1856491Y-12517388D01*
X1856491Y-12517388D02*
X1846967Y-12536436D01*
X1846967Y-12536436D02*
X1837443Y-12545960D01*
X1837443Y-12545960D02*
X1818396Y-12555484D01*
X1818396Y-12555484D02*
X1780301Y-12555484D01*
X1780301Y-12555484D02*
X1761253Y-12545960D01*
X1942205Y-12536436D02*
X1951729Y-12545960D01*
X1951729Y-12545960D02*
X1942205Y-12555484D01*
X1942205Y-12555484D02*
X1932682Y-12545960D01*
X1932682Y-12545960D02*
X1942205Y-12536436D01*
X1942205Y-12536436D02*
X1942205Y-12555484D01*
X1942205Y-12431674D02*
X1951729Y-12441198D01*
X1951729Y-12441198D02*
X1942205Y-12450722D01*
X1942205Y-12450722D02*
X1932682Y-12441198D01*
X1932682Y-12441198D02*
X1942205Y-12431674D01*
X1942205Y-12431674D02*
X1942205Y-12450722D01*
M02*
