%TF.GenerationSoftware,KiCad,Pcbnew,9.0.0*%
%TF.CreationDate,2025-03-27T10:29:21+01:00*%
%TF.ProjectId,CB_DSUB,43425f44-5355-4422-9e6b-696361645f70,rev?*%
%TF.SameCoordinates,PX2639280PY2349340*%
%TF.FileFunction,Drillmap*%
%TF.FilePolarity,Positive*%
%FSLAX45Y45*%
G04 Gerber Fmt 4.5, Leading zero omitted, Abs format (unit mm)*
G04 Created by KiCad (PCBNEW 9.0.0) date 2025-03-27 10:29:21*
%MOMM*%
%LPD*%
G01*
G04 APERTURE LIST*
%ADD10C,0.050000*%
%ADD11C,0.200000*%
G04 APERTURE END LIST*
D10*
X959000Y-1028000D02*
G75*
G02*
X1359000Y-628000I400000J0D01*
G01*
X959000Y-11128000D02*
X959000Y-1028000D01*
X11859000Y-1028000D02*
X11859000Y-11128000D01*
X11459000Y-11528000D02*
X1359000Y-11528000D01*
X11459000Y-628000D02*
G75*
G02*
X11859000Y-1028000I0J-400000D01*
G01*
X1359000Y-11528000D02*
G75*
G02*
X959000Y-11128000I0J400000D01*
G01*
X1359000Y-628000D02*
X11459000Y-628000D01*
X11859000Y-11128000D02*
G75*
G02*
X11459000Y-11528000I-400000J0D01*
G01*
D11*
X1217277Y-11841984D02*
X1217277Y-11641984D01*
X1217277Y-11641984D02*
X1264896Y-11641984D01*
X1264896Y-11641984D02*
X1293467Y-11651508D01*
X1293467Y-11651508D02*
X1312515Y-11670555D01*
X1312515Y-11670555D02*
X1322039Y-11689603D01*
X1322039Y-11689603D02*
X1331563Y-11727698D01*
X1331563Y-11727698D02*
X1331563Y-11756269D01*
X1331563Y-11756269D02*
X1322039Y-11794365D01*
X1322039Y-11794365D02*
X1312515Y-11813412D01*
X1312515Y-11813412D02*
X1293467Y-11832460D01*
X1293467Y-11832460D02*
X1264896Y-11841984D01*
X1264896Y-11841984D02*
X1217277Y-11841984D01*
X1417277Y-11841984D02*
X1417277Y-11708650D01*
X1417277Y-11746746D02*
X1426801Y-11727698D01*
X1426801Y-11727698D02*
X1436324Y-11718174D01*
X1436324Y-11718174D02*
X1455372Y-11708650D01*
X1455372Y-11708650D02*
X1474420Y-11708650D01*
X1541086Y-11841984D02*
X1541086Y-11708650D01*
X1541086Y-11641984D02*
X1531562Y-11651508D01*
X1531562Y-11651508D02*
X1541086Y-11661031D01*
X1541086Y-11661031D02*
X1550610Y-11651508D01*
X1550610Y-11651508D02*
X1541086Y-11641984D01*
X1541086Y-11641984D02*
X1541086Y-11661031D01*
X1664896Y-11841984D02*
X1645848Y-11832460D01*
X1645848Y-11832460D02*
X1636324Y-11813412D01*
X1636324Y-11813412D02*
X1636324Y-11641984D01*
X1769658Y-11841984D02*
X1750610Y-11832460D01*
X1750610Y-11832460D02*
X1741086Y-11813412D01*
X1741086Y-11813412D02*
X1741086Y-11641984D01*
X1998229Y-11841984D02*
X1998229Y-11641984D01*
X1998229Y-11641984D02*
X2064896Y-11784841D01*
X2064896Y-11784841D02*
X2131563Y-11641984D01*
X2131563Y-11641984D02*
X2131563Y-11841984D01*
X2312515Y-11841984D02*
X2312515Y-11737222D01*
X2312515Y-11737222D02*
X2302991Y-11718174D01*
X2302991Y-11718174D02*
X2283944Y-11708650D01*
X2283944Y-11708650D02*
X2245848Y-11708650D01*
X2245848Y-11708650D02*
X2226801Y-11718174D01*
X2312515Y-11832460D02*
X2293467Y-11841984D01*
X2293467Y-11841984D02*
X2245848Y-11841984D01*
X2245848Y-11841984D02*
X2226801Y-11832460D01*
X2226801Y-11832460D02*
X2217277Y-11813412D01*
X2217277Y-11813412D02*
X2217277Y-11794365D01*
X2217277Y-11794365D02*
X2226801Y-11775317D01*
X2226801Y-11775317D02*
X2245848Y-11765793D01*
X2245848Y-11765793D02*
X2293467Y-11765793D01*
X2293467Y-11765793D02*
X2312515Y-11756269D01*
X2407753Y-11708650D02*
X2407753Y-11908650D01*
X2407753Y-11718174D02*
X2426801Y-11708650D01*
X2426801Y-11708650D02*
X2464896Y-11708650D01*
X2464896Y-11708650D02*
X2483944Y-11718174D01*
X2483944Y-11718174D02*
X2493467Y-11727698D01*
X2493467Y-11727698D02*
X2502991Y-11746746D01*
X2502991Y-11746746D02*
X2502991Y-11803888D01*
X2502991Y-11803888D02*
X2493467Y-11822936D01*
X2493467Y-11822936D02*
X2483944Y-11832460D01*
X2483944Y-11832460D02*
X2464896Y-11841984D01*
X2464896Y-11841984D02*
X2426801Y-11841984D01*
X2426801Y-11841984D02*
X2407753Y-11832460D01*
X2588705Y-11822936D02*
X2598229Y-11832460D01*
X2598229Y-11832460D02*
X2588705Y-11841984D01*
X2588705Y-11841984D02*
X2579182Y-11832460D01*
X2579182Y-11832460D02*
X2588705Y-11822936D01*
X2588705Y-11822936D02*
X2588705Y-11841984D01*
X2588705Y-11718174D02*
X2598229Y-11727698D01*
X2598229Y-11727698D02*
X2588705Y-11737222D01*
X2588705Y-11737222D02*
X2579182Y-11727698D01*
X2579182Y-11727698D02*
X2588705Y-11718174D01*
X2588705Y-11718174D02*
X2588705Y-11737222D01*
M02*
