G04 #@! TF.GenerationSoftware,KiCad,Pcbnew,9.0.0*
G04 #@! TF.CreationDate,2025-03-27T10:29:31+01:00*
G04 #@! TF.ProjectId,CB_DSUB,43425f44-5355-4422-9e6b-696361645f70,rev?*
G04 #@! TF.SameCoordinates,PX2639280PY2349340*
G04 #@! TF.FileFunction,Soldermask,Bot*
G04 #@! TF.FilePolarity,Negative*
%FSLAX46Y46*%
G04 Gerber Fmt 4.6, Leading zero omitted, Abs format (unit mm)*
G04 Created by KiCad (PCBNEW 9.0.0) date 2025-03-27 10:29:31*
%MOMM*%
%LPD*%
G01*
G04 APERTURE LIST*
%ADD10C,0.000000*%
%ADD11R,2.000000X2.600000*%
%ADD12O,2.000000X2.600000*%
%ADD13C,4.000000*%
%ADD14R,1.600000X1.600000*%
%ADD15C,1.600000*%
G04 #@! TA.AperFunction,Profile*
%ADD16C,0.050000*%
G04 #@! TD*
G04 APERTURE END LIST*
D10*
G04 #@! TO.C,Logo3*
G36*
X63129375Y-16114679D02*
G01*
X62383250Y-16400429D01*
X63129375Y-16678242D01*
X63129375Y-17075117D01*
X61851437Y-16559179D01*
X61851437Y-16241679D01*
X63129375Y-15725742D01*
X63129375Y-16114679D01*
G37*
G36*
X59280747Y-17600110D02*
G01*
X59300434Y-17601510D01*
X59319669Y-17603472D01*
X59338457Y-17605998D01*
X59356801Y-17609090D01*
X59374706Y-17612748D01*
X59392176Y-17616975D01*
X59409217Y-17621772D01*
X59425831Y-17627139D01*
X59442024Y-17633080D01*
X59457800Y-17639594D01*
X59473163Y-17646684D01*
X59488118Y-17654351D01*
X59502669Y-17662596D01*
X59516820Y-17671421D01*
X59530575Y-17680828D01*
X59543940Y-17690818D01*
X59556918Y-17701391D01*
X59569514Y-17712551D01*
X59581732Y-17724297D01*
X59593576Y-17736633D01*
X59605051Y-17749558D01*
X59616162Y-17763075D01*
X59626912Y-17777185D01*
X59637306Y-17791889D01*
X59647348Y-17807189D01*
X59657043Y-17823087D01*
X59675408Y-17856680D01*
X59692436Y-17892679D01*
X59692436Y-17614867D01*
X60113125Y-17614867D01*
X60113125Y-19115054D01*
X59692436Y-19115054D01*
X59692436Y-18345117D01*
X59691949Y-18322511D01*
X59690495Y-18300823D01*
X59688080Y-18280039D01*
X59684716Y-18260145D01*
X59680409Y-18241130D01*
X59675170Y-18222979D01*
X59669006Y-18205680D01*
X59661927Y-18189219D01*
X59653940Y-18173584D01*
X59645056Y-18158762D01*
X59635282Y-18144739D01*
X59624627Y-18131502D01*
X59613100Y-18119038D01*
X59600710Y-18107335D01*
X59587465Y-18096378D01*
X59573374Y-18086156D01*
X59558446Y-18076654D01*
X59542690Y-18067861D01*
X59526114Y-18059761D01*
X59508727Y-18052344D01*
X59471555Y-18039502D01*
X59431244Y-18029229D01*
X59387863Y-18021421D01*
X59341482Y-18015974D01*
X59292171Y-18012782D01*
X59240000Y-18011742D01*
X59240000Y-17598992D01*
X59280747Y-17600110D01*
G37*
G36*
X62700749Y-17337054D02*
G01*
X62700749Y-17614867D01*
X62875374Y-17614867D01*
X62875374Y-17924429D01*
X62700749Y-17924429D01*
X62700749Y-18678492D01*
X62698976Y-18733279D01*
X62696753Y-18759347D01*
X62693633Y-18784532D01*
X62689613Y-18808832D01*
X62684686Y-18832250D01*
X62678850Y-18854783D01*
X62672100Y-18876433D01*
X62664431Y-18897199D01*
X62655839Y-18917082D01*
X62646320Y-18936080D01*
X62635870Y-18954196D01*
X62624483Y-18971427D01*
X62612156Y-18987775D01*
X62598884Y-19003239D01*
X62584663Y-19017820D01*
X62569489Y-19031517D01*
X62553357Y-19044330D01*
X62536263Y-19056259D01*
X62518202Y-19067305D01*
X62499171Y-19077467D01*
X62479164Y-19086746D01*
X62458178Y-19095141D01*
X62436207Y-19102652D01*
X62413249Y-19109279D01*
X62389297Y-19115023D01*
X62364349Y-19119883D01*
X62338399Y-19123860D01*
X62311444Y-19126953D01*
X62283478Y-19129162D01*
X62224499Y-19130929D01*
X62205344Y-19130747D01*
X62186595Y-19130216D01*
X62168288Y-19129360D01*
X62150457Y-19128201D01*
X62133138Y-19126763D01*
X62116366Y-19125069D01*
X62100175Y-19123143D01*
X62084601Y-19121007D01*
X62069677Y-19118686D01*
X62055440Y-19116201D01*
X62029162Y-19110837D01*
X62006047Y-19105101D01*
X61995763Y-19102152D01*
X61986374Y-19099179D01*
X61986374Y-18773742D01*
X62001303Y-18779323D01*
X62008855Y-18781834D01*
X62016512Y-18784160D01*
X62024308Y-18786299D01*
X62032278Y-18788252D01*
X62040458Y-18790020D01*
X62048882Y-18791601D01*
X62057585Y-18792996D01*
X62066602Y-18794205D01*
X62075968Y-18795229D01*
X62085717Y-18796066D01*
X62095885Y-18796717D01*
X62106507Y-18797182D01*
X62129250Y-18797554D01*
X62138761Y-18797391D01*
X62147948Y-18796903D01*
X62156813Y-18796089D01*
X62165356Y-18794949D01*
X62173580Y-18793484D01*
X62181485Y-18791694D01*
X62189073Y-18789578D01*
X62196347Y-18787136D01*
X62203306Y-18784369D01*
X62209952Y-18781276D01*
X62216288Y-18777858D01*
X62222314Y-18774114D01*
X62228032Y-18770044D01*
X62233443Y-18765649D01*
X62238549Y-18760928D01*
X62243351Y-18755882D01*
X62247851Y-18750510D01*
X62252050Y-18744813D01*
X62255950Y-18738790D01*
X62259552Y-18732442D01*
X62262857Y-18725768D01*
X62265867Y-18718768D01*
X62268584Y-18711443D01*
X62271009Y-18703792D01*
X62273142Y-18695816D01*
X62274987Y-18687514D01*
X62276544Y-18678887D01*
X62277814Y-18669934D01*
X62279502Y-18651052D01*
X62280062Y-18630867D01*
X62280062Y-17924429D01*
X61994312Y-17924429D01*
X61994312Y-17614867D01*
X62280062Y-17614867D01*
X62280062Y-17162429D01*
X62700749Y-17337054D01*
G37*
G36*
X60843375Y-18543554D02*
G01*
X60843721Y-18560414D01*
X60844747Y-18576760D01*
X60846436Y-18592591D01*
X60848770Y-18607907D01*
X60851732Y-18622705D01*
X60855305Y-18636985D01*
X60859470Y-18650744D01*
X60864211Y-18663981D01*
X60869510Y-18676695D01*
X60875350Y-18688885D01*
X60881713Y-18700548D01*
X60888582Y-18711684D01*
X60895939Y-18722290D01*
X60903767Y-18732366D01*
X60912048Y-18741911D01*
X60920766Y-18750922D01*
X60929902Y-18759397D01*
X60939439Y-18767337D01*
X60949360Y-18774739D01*
X60959647Y-18781602D01*
X60970283Y-18787924D01*
X60981250Y-18793704D01*
X60992532Y-18798940D01*
X61004109Y-18803631D01*
X61015966Y-18807776D01*
X61028085Y-18811373D01*
X61040447Y-18814421D01*
X61053037Y-18816917D01*
X61065835Y-18818862D01*
X61078826Y-18820253D01*
X61091991Y-18821088D01*
X61105312Y-18821367D01*
X61131264Y-18820433D01*
X61143612Y-18819261D01*
X61155542Y-18817615D01*
X61167053Y-18815493D01*
X61178145Y-18812891D01*
X61188819Y-18809806D01*
X61199074Y-18806236D01*
X61208911Y-18802178D01*
X61218329Y-18797628D01*
X61227328Y-18792584D01*
X61235909Y-18787043D01*
X61244071Y-18781003D01*
X61251815Y-18774459D01*
X61259140Y-18767409D01*
X61266047Y-18759851D01*
X61272535Y-18751781D01*
X61278604Y-18743197D01*
X61284255Y-18734095D01*
X61289487Y-18724474D01*
X61294301Y-18714328D01*
X61298696Y-18703657D01*
X61302672Y-18692457D01*
X61306230Y-18680724D01*
X61309370Y-18668457D01*
X61312090Y-18655652D01*
X61316276Y-18628417D01*
X61318788Y-18598997D01*
X61319625Y-18567367D01*
X61319625Y-17614867D01*
X61740312Y-17614867D01*
X61740312Y-18622929D01*
X61739735Y-18655137D01*
X61738018Y-18686278D01*
X61735185Y-18716355D01*
X61731259Y-18745372D01*
X61726263Y-18773330D01*
X61720221Y-18800233D01*
X61713155Y-18826083D01*
X61705090Y-18850884D01*
X61696048Y-18874639D01*
X61686052Y-18897351D01*
X61675127Y-18919021D01*
X61663294Y-18939654D01*
X61650578Y-18959252D01*
X61637001Y-18977819D01*
X61622587Y-18995356D01*
X61607359Y-19011867D01*
X61591341Y-19027355D01*
X61574555Y-19041822D01*
X61557025Y-19055273D01*
X61538775Y-19067708D01*
X61519826Y-19079133D01*
X61500203Y-19089548D01*
X61479929Y-19098958D01*
X61459028Y-19107365D01*
X61437521Y-19114772D01*
X61415433Y-19121182D01*
X61392787Y-19126598D01*
X61369607Y-19131022D01*
X61345914Y-19134459D01*
X61321734Y-19136910D01*
X61297088Y-19138378D01*
X61272000Y-19138867D01*
X61251397Y-19138544D01*
X61231257Y-19137584D01*
X61211579Y-19136002D01*
X61192362Y-19133813D01*
X61173604Y-19131031D01*
X61155304Y-19127670D01*
X61137460Y-19123745D01*
X61120072Y-19119271D01*
X61103136Y-19114262D01*
X61086653Y-19108733D01*
X61070620Y-19102698D01*
X61055037Y-19096172D01*
X61039901Y-19089169D01*
X61025211Y-19081704D01*
X61010966Y-19073791D01*
X60997164Y-19065445D01*
X60983804Y-19056680D01*
X60970885Y-19047512D01*
X60958404Y-19037954D01*
X60946361Y-19028021D01*
X60934754Y-19017727D01*
X60923582Y-19007088D01*
X60912842Y-18996117D01*
X60902534Y-18984830D01*
X60892657Y-18973240D01*
X60883208Y-18961362D01*
X60865591Y-18936801D01*
X60849671Y-18911264D01*
X60835438Y-18884867D01*
X60835438Y-19107117D01*
X60422687Y-19107117D01*
X60422687Y-17614867D01*
X60843375Y-17614867D01*
X60843375Y-18543554D01*
G37*
G36*
X63523785Y-17583440D02*
G01*
X63544667Y-17584400D01*
X63565084Y-17585981D01*
X63585037Y-17588171D01*
X63604524Y-17590953D01*
X63623546Y-17594314D01*
X63642103Y-17598238D01*
X63660195Y-17602712D01*
X63677821Y-17607721D01*
X63694983Y-17613251D01*
X63711680Y-17619286D01*
X63727911Y-17625812D01*
X63743678Y-17632815D01*
X63758979Y-17640280D01*
X63773816Y-17648193D01*
X63788187Y-17656539D01*
X63802093Y-17665303D01*
X63815534Y-17674472D01*
X63828510Y-17684030D01*
X63841021Y-17693963D01*
X63853067Y-17704256D01*
X63864647Y-17714896D01*
X63875763Y-17725866D01*
X63886413Y-17737154D01*
X63896599Y-17748744D01*
X63906319Y-17760621D01*
X63915575Y-17772772D01*
X63924365Y-17785182D01*
X63932690Y-17797836D01*
X63940550Y-17810719D01*
X63954875Y-17837117D01*
X63954875Y-17614867D01*
X64375563Y-17614867D01*
X64375563Y-19107117D01*
X63954876Y-19107117D01*
X63954876Y-18194304D01*
X63954530Y-18176747D01*
X63953504Y-18159791D01*
X63951815Y-18143434D01*
X63949481Y-18127673D01*
X63946519Y-18112504D01*
X63942946Y-18097926D01*
X63938781Y-18083935D01*
X63934040Y-18070529D01*
X63928741Y-18057704D01*
X63922901Y-18045457D01*
X63916538Y-18033785D01*
X63909669Y-18022687D01*
X63902312Y-18012158D01*
X63894484Y-18002196D01*
X63886203Y-17992798D01*
X63877485Y-17983961D01*
X63868349Y-17975681D01*
X63858812Y-17967958D01*
X63848891Y-17960786D01*
X63838604Y-17954164D01*
X63827968Y-17948088D01*
X63817000Y-17942556D01*
X63805719Y-17937565D01*
X63794141Y-17933111D01*
X63782284Y-17929192D01*
X63770166Y-17925805D01*
X63757803Y-17922947D01*
X63745214Y-17920616D01*
X63732415Y-17918807D01*
X63719425Y-17917519D01*
X63692938Y-17916492D01*
X63665589Y-17917426D01*
X63652608Y-17918598D01*
X63640088Y-17920243D01*
X63628028Y-17922366D01*
X63616425Y-17924968D01*
X63605279Y-17928053D01*
X63594587Y-17931623D01*
X63584349Y-17935681D01*
X63574563Y-17940231D01*
X63565228Y-17945274D01*
X63556341Y-17950815D01*
X63547903Y-17956856D01*
X63539910Y-17963400D01*
X63532362Y-17970449D01*
X63525258Y-17978007D01*
X63518595Y-17986077D01*
X63512373Y-17994661D01*
X63506590Y-18003763D01*
X63501244Y-18013385D01*
X63496334Y-18023530D01*
X63491859Y-18034202D01*
X63487817Y-18045402D01*
X63484206Y-18057134D01*
X63481026Y-18069402D01*
X63478274Y-18082206D01*
X63474052Y-18109441D01*
X63471527Y-18138862D01*
X63470688Y-18170492D01*
X63470688Y-19107117D01*
X63050000Y-19107117D01*
X63050000Y-18106992D01*
X63050532Y-18074063D01*
X63052116Y-18042246D01*
X63054735Y-18011536D01*
X63058372Y-17981930D01*
X63063008Y-17953422D01*
X63068627Y-17926009D01*
X63075211Y-17899685D01*
X63082742Y-17874448D01*
X63091204Y-17850292D01*
X63100578Y-17827212D01*
X63110848Y-17805206D01*
X63121995Y-17784267D01*
X63134003Y-17764393D01*
X63146854Y-17745578D01*
X63160531Y-17727818D01*
X63175015Y-17711109D01*
X63190291Y-17695446D01*
X63206339Y-17680826D01*
X63223143Y-17667243D01*
X63240686Y-17654694D01*
X63258949Y-17643173D01*
X63277916Y-17632678D01*
X63297569Y-17623202D01*
X63317890Y-17614743D01*
X63338863Y-17607295D01*
X63360469Y-17600854D01*
X63382691Y-17595416D01*
X63405513Y-17590977D01*
X63428915Y-17587531D01*
X63452882Y-17585076D01*
X63477395Y-17583606D01*
X63502437Y-17583117D01*
X63523785Y-17583440D01*
G37*
G36*
X59105014Y-18218318D02*
G01*
X59109425Y-18261911D01*
X59112100Y-18306826D01*
X59113000Y-18353054D01*
X59113000Y-18384804D01*
X59112145Y-18430964D01*
X59109597Y-18475681D01*
X59105387Y-18518952D01*
X59099544Y-18560778D01*
X59092095Y-18601156D01*
X59083072Y-18640085D01*
X59072502Y-18677564D01*
X59060414Y-18713590D01*
X59046838Y-18748164D01*
X59031803Y-18781282D01*
X59015338Y-18812944D01*
X58997472Y-18843148D01*
X58978234Y-18871894D01*
X58957653Y-18899178D01*
X58935758Y-18925000D01*
X58912578Y-18949359D01*
X58888142Y-18972253D01*
X58862480Y-18993680D01*
X58835620Y-19013639D01*
X58807592Y-19032129D01*
X58778424Y-19049148D01*
X58748146Y-19064695D01*
X58716786Y-19078768D01*
X58684374Y-19091366D01*
X58650939Y-19102487D01*
X58616510Y-19112130D01*
X58581116Y-19120294D01*
X58544786Y-19126976D01*
X58507549Y-19132176D01*
X58469434Y-19135892D01*
X58430470Y-19138123D01*
X58390687Y-19138867D01*
X58354689Y-19138244D01*
X58319624Y-19136392D01*
X58285491Y-19133340D01*
X58252292Y-19129116D01*
X58220030Y-19123745D01*
X58188705Y-19117258D01*
X58158319Y-19109680D01*
X58128874Y-19101040D01*
X58100370Y-19091365D01*
X58072810Y-19080682D01*
X58046194Y-19069021D01*
X58020524Y-19056407D01*
X57995802Y-19042869D01*
X57972029Y-19028434D01*
X57949207Y-19013130D01*
X57927336Y-18996984D01*
X57906419Y-18980024D01*
X57886457Y-18962279D01*
X57867451Y-18943774D01*
X57849403Y-18924539D01*
X57832314Y-18904600D01*
X57816186Y-18883985D01*
X57801020Y-18862722D01*
X57786818Y-18840838D01*
X57773580Y-18818362D01*
X57761309Y-18795320D01*
X57750007Y-18771740D01*
X57739673Y-18747650D01*
X57730311Y-18723078D01*
X57721920Y-18698050D01*
X57714504Y-18672596D01*
X57708063Y-18646741D01*
X58097001Y-18646741D01*
X58103609Y-18665886D01*
X58111542Y-18684553D01*
X58120824Y-18702639D01*
X58131479Y-18720039D01*
X58143528Y-18736649D01*
X58156996Y-18752363D01*
X58171906Y-18767077D01*
X58188281Y-18780687D01*
X58206145Y-18793087D01*
X58225519Y-18804174D01*
X58235781Y-18809192D01*
X58246429Y-18813842D01*
X58257467Y-18818111D01*
X58268897Y-18821987D01*
X58280722Y-18825455D01*
X58292946Y-18828504D01*
X58305570Y-18831119D01*
X58318599Y-18833288D01*
X58332035Y-18834998D01*
X58345880Y-18836236D01*
X58360139Y-18836988D01*
X58374813Y-18837242D01*
X58406892Y-18836017D01*
X58437599Y-18832281D01*
X58466865Y-18825940D01*
X58480935Y-18821764D01*
X58494619Y-18816902D01*
X58507907Y-18811342D01*
X58520792Y-18805073D01*
X58533263Y-18798083D01*
X58545314Y-18790361D01*
X58556934Y-18781894D01*
X58568115Y-18772672D01*
X58578848Y-18762682D01*
X58589125Y-18751913D01*
X58598937Y-18740354D01*
X58608275Y-18727992D01*
X58617130Y-18714817D01*
X58625495Y-18700816D01*
X58633359Y-18685978D01*
X58640715Y-18670290D01*
X58647553Y-18653743D01*
X58653865Y-18636324D01*
X58659642Y-18618020D01*
X58664876Y-18598822D01*
X58673678Y-18557693D01*
X58680200Y-18512843D01*
X58684374Y-18464179D01*
X57716000Y-18464179D01*
X57716000Y-18281617D01*
X57716900Y-18235593D01*
X57719568Y-18191275D01*
X57720074Y-18186367D01*
X58128750Y-18186367D01*
X58692313Y-18186367D01*
X58688362Y-18164528D01*
X58683959Y-18143647D01*
X58679117Y-18123704D01*
X58673849Y-18104682D01*
X58668168Y-18086561D01*
X58662088Y-18069322D01*
X58655621Y-18052946D01*
X58648781Y-18037415D01*
X58641580Y-18022709D01*
X58634031Y-18008810D01*
X58626149Y-17995698D01*
X58617945Y-17983356D01*
X58609433Y-17971763D01*
X58600626Y-17960902D01*
X58591538Y-17950753D01*
X58582180Y-17941297D01*
X58572566Y-17932515D01*
X58562710Y-17924389D01*
X58552624Y-17916899D01*
X58542322Y-17910027D01*
X58531816Y-17903754D01*
X58521120Y-17898061D01*
X58510246Y-17892929D01*
X58499208Y-17888339D01*
X58488019Y-17884272D01*
X58476692Y-17880709D01*
X58453676Y-17875022D01*
X58430264Y-17871125D01*
X58406562Y-17868867D01*
X58376060Y-17869991D01*
X58347093Y-17873394D01*
X58333199Y-17875964D01*
X58319707Y-17879122D01*
X58306621Y-17882873D01*
X58293949Y-17887222D01*
X58281695Y-17892177D01*
X58269865Y-17897741D01*
X58258466Y-17903922D01*
X58247502Y-17910725D01*
X58236980Y-17918156D01*
X58226906Y-17926220D01*
X58217286Y-17934924D01*
X58208125Y-17944273D01*
X58199429Y-17954274D01*
X58191203Y-17964931D01*
X58183455Y-17976251D01*
X58176189Y-17988239D01*
X58169411Y-18000902D01*
X58163128Y-18014246D01*
X58157344Y-18028275D01*
X58152066Y-18042996D01*
X58147300Y-18058414D01*
X58143051Y-18074536D01*
X58139326Y-18091368D01*
X58136129Y-18108914D01*
X58131347Y-18146175D01*
X58128750Y-18186367D01*
X57720074Y-18186367D01*
X57723960Y-18148646D01*
X57730031Y-18107689D01*
X57737735Y-18068390D01*
X57747028Y-18030731D01*
X57757864Y-17994697D01*
X57770199Y-17960272D01*
X57783987Y-17927440D01*
X57799183Y-17896185D01*
X57815743Y-17866491D01*
X57833621Y-17838341D01*
X57852772Y-17811721D01*
X57873152Y-17786614D01*
X57894714Y-17763004D01*
X57917415Y-17740875D01*
X57941208Y-17720210D01*
X57966049Y-17700995D01*
X57991893Y-17683213D01*
X58018695Y-17666848D01*
X58046410Y-17651884D01*
X58074992Y-17638305D01*
X58104397Y-17626096D01*
X58134580Y-17615239D01*
X58165495Y-17605719D01*
X58197097Y-17597521D01*
X58229342Y-17590628D01*
X58262184Y-17585024D01*
X58329481Y-17577619D01*
X58398626Y-17575179D01*
X58436291Y-17575992D01*
X58473360Y-17578421D01*
X58509791Y-17582459D01*
X58545547Y-17588093D01*
X58580588Y-17595315D01*
X58614874Y-17604114D01*
X58648367Y-17614479D01*
X58681027Y-17626401D01*
X58712815Y-17639869D01*
X58743692Y-17654874D01*
X58773618Y-17671405D01*
X58802555Y-17689451D01*
X58830462Y-17709004D01*
X58857301Y-17730052D01*
X58883033Y-17752585D01*
X58907618Y-17776593D01*
X58931017Y-17802067D01*
X58953191Y-17828995D01*
X58974100Y-17857368D01*
X58993705Y-17887176D01*
X59011968Y-17918408D01*
X59028849Y-17951054D01*
X59044308Y-17985104D01*
X59058306Y-18020547D01*
X59070804Y-18057375D01*
X59081764Y-18095576D01*
X59091145Y-18135140D01*
X59098908Y-18176057D01*
X59100398Y-18186367D01*
X59105014Y-18218318D01*
G37*
G36*
X66018577Y-18218318D02*
G01*
X66022987Y-18261911D01*
X66025662Y-18306826D01*
X66026562Y-18353054D01*
X66026562Y-18384804D01*
X66025707Y-18430964D01*
X66023159Y-18475681D01*
X66018949Y-18518952D01*
X66013106Y-18560778D01*
X66005658Y-18601156D01*
X65996634Y-18640085D01*
X65986064Y-18677564D01*
X65973976Y-18713590D01*
X65960401Y-18748164D01*
X65945366Y-18781282D01*
X65928901Y-18812944D01*
X65911035Y-18843148D01*
X65891796Y-18871894D01*
X65871215Y-18899178D01*
X65849320Y-18925000D01*
X65826141Y-18949359D01*
X65801705Y-18972253D01*
X65776043Y-18993680D01*
X65749183Y-19013639D01*
X65721155Y-19032129D01*
X65691987Y-19049148D01*
X65661709Y-19064695D01*
X65630349Y-19078768D01*
X65597937Y-19091366D01*
X65564502Y-19102487D01*
X65530073Y-19112130D01*
X65494679Y-19120294D01*
X65458349Y-19126976D01*
X65421112Y-19132176D01*
X65382997Y-19135892D01*
X65344033Y-19138123D01*
X65304250Y-19138867D01*
X65268230Y-19138244D01*
X65233101Y-19136392D01*
X65198870Y-19133340D01*
X65165545Y-19129116D01*
X65133133Y-19123745D01*
X65101640Y-19117258D01*
X65071075Y-19109680D01*
X65041444Y-19101040D01*
X65012755Y-19091365D01*
X64985016Y-19080682D01*
X64958232Y-19069021D01*
X64932412Y-19056407D01*
X64907563Y-19042869D01*
X64883692Y-19028434D01*
X64860807Y-19013130D01*
X64838914Y-18996984D01*
X64818021Y-18980024D01*
X64798135Y-18962279D01*
X64779264Y-18943774D01*
X64761415Y-18924539D01*
X64744594Y-18904600D01*
X64728810Y-18883985D01*
X64714069Y-18862722D01*
X64700380Y-18840838D01*
X64687748Y-18818362D01*
X64676181Y-18795320D01*
X64665687Y-18771740D01*
X64656273Y-18747650D01*
X64647947Y-18723078D01*
X64640714Y-18698050D01*
X64634583Y-18672596D01*
X64629562Y-18646741D01*
X65018499Y-18646741D01*
X65025108Y-18665886D01*
X65033041Y-18684553D01*
X65042324Y-18702639D01*
X65052978Y-18720039D01*
X65065028Y-18736649D01*
X65078496Y-18752363D01*
X65093406Y-18767077D01*
X65109781Y-18780687D01*
X65127644Y-18793087D01*
X65147019Y-18804174D01*
X65157280Y-18809192D01*
X65167929Y-18813842D01*
X65178966Y-18818111D01*
X65190396Y-18821987D01*
X65202221Y-18825455D01*
X65214445Y-18828504D01*
X65227070Y-18831119D01*
X65240099Y-18833288D01*
X65253534Y-18834998D01*
X65267380Y-18836236D01*
X65281638Y-18836988D01*
X65296312Y-18837242D01*
X65328392Y-18836017D01*
X65359099Y-18832281D01*
X65388365Y-18825940D01*
X65402435Y-18821764D01*
X65416119Y-18816902D01*
X65429407Y-18811342D01*
X65442292Y-18805073D01*
X65454763Y-18798083D01*
X65466814Y-18790361D01*
X65478434Y-18781894D01*
X65489615Y-18772672D01*
X65500348Y-18762682D01*
X65510625Y-18751913D01*
X65520437Y-18740354D01*
X65529775Y-18727992D01*
X65538630Y-18714817D01*
X65546995Y-18700816D01*
X65554859Y-18685978D01*
X65562215Y-18670290D01*
X65569053Y-18653743D01*
X65575365Y-18636324D01*
X65581142Y-18618020D01*
X65586376Y-18598822D01*
X65595178Y-18557693D01*
X65601701Y-18512843D01*
X65605875Y-18464179D01*
X64629563Y-18464179D01*
X64629563Y-18281617D01*
X64630462Y-18235593D01*
X64633130Y-18191275D01*
X64633636Y-18186367D01*
X65042312Y-18186367D01*
X65597937Y-18186367D01*
X65594707Y-18164528D01*
X65590980Y-18143647D01*
X65586771Y-18123704D01*
X65582093Y-18104682D01*
X65576962Y-18086561D01*
X65571392Y-18069322D01*
X65565398Y-18052946D01*
X65558994Y-18037415D01*
X65552194Y-18022709D01*
X65545014Y-18008810D01*
X65537468Y-17995698D01*
X65529569Y-17983356D01*
X65521334Y-17971763D01*
X65512776Y-17960902D01*
X65503910Y-17950753D01*
X65494750Y-17941297D01*
X65485311Y-17932515D01*
X65475607Y-17924389D01*
X65465654Y-17916899D01*
X65455465Y-17910027D01*
X65445056Y-17903754D01*
X65434439Y-17898061D01*
X65423631Y-17892929D01*
X65412646Y-17888339D01*
X65401498Y-17884272D01*
X65390202Y-17880709D01*
X65367222Y-17875022D01*
X65343825Y-17871125D01*
X65320124Y-17868867D01*
X65289623Y-17869991D01*
X65260655Y-17873394D01*
X65246762Y-17875964D01*
X65233269Y-17879122D01*
X65220184Y-17882873D01*
X65207511Y-17887222D01*
X65195257Y-17892177D01*
X65183428Y-17897741D01*
X65172028Y-17903922D01*
X65161065Y-17910725D01*
X65150543Y-17918156D01*
X65140469Y-17926220D01*
X65130849Y-17934924D01*
X65121687Y-17944273D01*
X65112991Y-17954274D01*
X65104766Y-17964931D01*
X65097017Y-17976251D01*
X65089751Y-17988239D01*
X65082974Y-18000902D01*
X65076690Y-18014246D01*
X65070907Y-18028275D01*
X65065629Y-18042996D01*
X65060863Y-18058414D01*
X65056614Y-18074536D01*
X65052888Y-18091368D01*
X65049692Y-18108914D01*
X65044909Y-18146175D01*
X65042312Y-18186367D01*
X64633636Y-18186367D01*
X64637522Y-18148646D01*
X64643593Y-18107689D01*
X64651297Y-18068390D01*
X64660590Y-18030731D01*
X64671426Y-17994697D01*
X64683761Y-17960272D01*
X64697549Y-17927440D01*
X64712746Y-17896185D01*
X64729305Y-17866491D01*
X64747183Y-17838341D01*
X64766335Y-17811721D01*
X64786714Y-17786614D01*
X64808276Y-17763004D01*
X64830977Y-17740875D01*
X64854770Y-17720210D01*
X64879611Y-17700995D01*
X64905455Y-17683213D01*
X64932257Y-17666848D01*
X64959972Y-17651884D01*
X64988554Y-17638305D01*
X65017959Y-17626096D01*
X65048142Y-17615239D01*
X65079057Y-17605719D01*
X65110659Y-17597521D01*
X65142904Y-17590628D01*
X65175746Y-17585024D01*
X65243042Y-17577619D01*
X65312187Y-17575179D01*
X65349853Y-17575992D01*
X65386921Y-17578421D01*
X65423353Y-17582459D01*
X65459109Y-17588093D01*
X65494149Y-17595315D01*
X65528436Y-17604114D01*
X65561929Y-17614479D01*
X65594589Y-17626401D01*
X65626377Y-17639869D01*
X65657254Y-17654874D01*
X65687180Y-17671405D01*
X65716116Y-17689451D01*
X65744024Y-17709004D01*
X65770863Y-17730052D01*
X65796595Y-17752585D01*
X65821180Y-17776593D01*
X65844579Y-17802067D01*
X65866752Y-17828995D01*
X65887662Y-17857368D01*
X65907267Y-17887176D01*
X65925530Y-17918408D01*
X65942410Y-17951054D01*
X65957870Y-17985104D01*
X65971868Y-18020547D01*
X65984366Y-18057375D01*
X65995326Y-18095576D01*
X66004707Y-18135140D01*
X66012470Y-18176057D01*
X66013960Y-18186367D01*
X66018577Y-18218318D01*
G37*
G36*
X66904905Y-17575969D02*
G01*
X66941363Y-17578334D01*
X66977269Y-17582269D01*
X67012580Y-17587768D01*
X67047250Y-17594825D01*
X67081238Y-17603434D01*
X67114499Y-17613589D01*
X67146990Y-17625285D01*
X67178667Y-17638516D01*
X67209486Y-17653276D01*
X67239404Y-17669559D01*
X67268378Y-17687359D01*
X67296363Y-17706671D01*
X67323316Y-17727488D01*
X67349194Y-17749806D01*
X67373953Y-17773617D01*
X67397549Y-17798917D01*
X67419938Y-17825699D01*
X67441078Y-17853958D01*
X67460924Y-17883688D01*
X67479433Y-17914883D01*
X67496562Y-17947537D01*
X67512266Y-17981644D01*
X67526502Y-18017199D01*
X67539226Y-18054196D01*
X67550396Y-18092629D01*
X67559966Y-18132491D01*
X67567894Y-18173779D01*
X67574137Y-18216484D01*
X67578650Y-18260603D01*
X67581389Y-18306128D01*
X67582312Y-18353055D01*
X67582312Y-18376867D01*
X67581434Y-18423748D01*
X67578824Y-18469140D01*
X67574516Y-18513045D01*
X67568546Y-18555461D01*
X67560947Y-18596388D01*
X67551756Y-18635828D01*
X67541007Y-18673779D01*
X67528734Y-18710242D01*
X67514973Y-18745216D01*
X67499759Y-18778703D01*
X67483126Y-18810701D01*
X67465110Y-18841211D01*
X67445745Y-18870232D01*
X67425066Y-18897765D01*
X67403108Y-18923810D01*
X67379906Y-18948367D01*
X67355495Y-18971435D01*
X67329909Y-18993015D01*
X67303184Y-19013107D01*
X67275354Y-19031711D01*
X67246455Y-19048826D01*
X67216521Y-19064453D01*
X67185586Y-19078591D01*
X67153687Y-19091242D01*
X67120858Y-19102404D01*
X67087133Y-19112078D01*
X67052548Y-19120263D01*
X67017137Y-19126961D01*
X66980936Y-19132170D01*
X66943979Y-19135890D01*
X66906301Y-19138123D01*
X66867937Y-19138867D01*
X66830499Y-19138173D01*
X66794089Y-19136107D01*
X66758714Y-19132693D01*
X66724380Y-19127953D01*
X66691093Y-19121911D01*
X66658857Y-19114589D01*
X66627680Y-19106012D01*
X66597566Y-19096203D01*
X66568522Y-19085184D01*
X66540554Y-19072979D01*
X66513667Y-19059612D01*
X66487868Y-19045105D01*
X66463161Y-19029482D01*
X66439553Y-19012766D01*
X66417049Y-18994980D01*
X66395656Y-18976148D01*
X66375379Y-18956293D01*
X66356224Y-18935437D01*
X66338197Y-18913605D01*
X66321304Y-18890820D01*
X66305550Y-18867104D01*
X66290941Y-18842482D01*
X66277484Y-18816976D01*
X66265183Y-18790609D01*
X66254045Y-18763405D01*
X66244076Y-18735388D01*
X66235281Y-18706579D01*
X66227666Y-18677003D01*
X66221237Y-18646684D01*
X66216000Y-18615643D01*
X66211961Y-18583904D01*
X66209124Y-18551492D01*
X66590124Y-18551492D01*
X66592588Y-18566931D01*
X66595510Y-18581992D01*
X66598882Y-18596666D01*
X66602697Y-18610946D01*
X66606949Y-18624824D01*
X66611629Y-18638295D01*
X66616731Y-18651349D01*
X66622247Y-18663981D01*
X66628169Y-18676183D01*
X66634492Y-18687947D01*
X66641207Y-18699266D01*
X66648307Y-18710133D01*
X66655785Y-18720541D01*
X66663634Y-18730483D01*
X66671846Y-18739951D01*
X66680414Y-18748937D01*
X66689330Y-18757435D01*
X66698589Y-18765438D01*
X66708182Y-18772938D01*
X66718101Y-18779928D01*
X66728341Y-18786400D01*
X66738893Y-18792347D01*
X66749750Y-18797763D01*
X66760905Y-18802639D01*
X66772351Y-18806969D01*
X66784080Y-18810745D01*
X66796085Y-18813961D01*
X66808359Y-18816607D01*
X66820895Y-18818679D01*
X66833685Y-18820167D01*
X66846722Y-18821066D01*
X66859999Y-18821367D01*
X66894780Y-18819778D01*
X66927654Y-18814980D01*
X66943362Y-18811363D01*
X66958575Y-18806926D01*
X66973288Y-18801664D01*
X66987495Y-18795570D01*
X67001191Y-18788639D01*
X67014370Y-18780865D01*
X67027025Y-18772243D01*
X67039151Y-18762766D01*
X67050743Y-18752428D01*
X67061793Y-18741224D01*
X67072297Y-18729149D01*
X67082249Y-18716195D01*
X67091643Y-18702358D01*
X67100473Y-18687631D01*
X67108733Y-18672009D01*
X67116418Y-18655485D01*
X67123521Y-18638055D01*
X67130037Y-18619712D01*
X67141285Y-18580265D01*
X67150114Y-18537097D01*
X67156478Y-18490162D01*
X67160330Y-18439414D01*
X67161624Y-18384804D01*
X67161624Y-18337180D01*
X67161255Y-18310088D01*
X67160156Y-18283879D01*
X67158341Y-18258550D01*
X67155826Y-18234101D01*
X67152626Y-18210529D01*
X67148753Y-18187834D01*
X67144224Y-18166014D01*
X67139052Y-18145067D01*
X67133253Y-18124993D01*
X67126840Y-18105789D01*
X67119828Y-18087454D01*
X67112232Y-18069987D01*
X67104066Y-18053386D01*
X67095346Y-18037649D01*
X67086084Y-18022777D01*
X67076296Y-18008766D01*
X67065997Y-17995615D01*
X67055201Y-17983323D01*
X67043922Y-17971889D01*
X67032175Y-17961311D01*
X67019975Y-17951588D01*
X67007335Y-17942717D01*
X66994272Y-17934699D01*
X66980798Y-17927530D01*
X66966929Y-17921211D01*
X66952680Y-17915738D01*
X66938064Y-17911112D01*
X66923096Y-17907330D01*
X66907792Y-17904391D01*
X66892164Y-17902293D01*
X66876229Y-17901036D01*
X66859999Y-17900617D01*
X66846791Y-17900895D01*
X66833953Y-17901722D01*
X66821484Y-17903089D01*
X66809382Y-17904989D01*
X66797647Y-17907412D01*
X66786277Y-17910349D01*
X66775270Y-17913792D01*
X66764625Y-17917732D01*
X66754341Y-17922161D01*
X66744415Y-17927069D01*
X66734847Y-17932448D01*
X66725636Y-17938289D01*
X66716778Y-17944584D01*
X66708274Y-17951323D01*
X66700122Y-17958499D01*
X66692320Y-17966102D01*
X66684867Y-17974123D01*
X66677761Y-17982554D01*
X66671001Y-17991386D01*
X66664585Y-18000611D01*
X66658513Y-18010219D01*
X66652782Y-18020203D01*
X66642338Y-18041260D01*
X66633244Y-18063712D01*
X66625487Y-18087489D01*
X66619055Y-18112523D01*
X66613937Y-18138742D01*
X66217062Y-18138742D01*
X66220754Y-18102906D01*
X66225854Y-18068318D01*
X66232329Y-18034972D01*
X66240146Y-18002859D01*
X66249271Y-17971973D01*
X66259670Y-17942307D01*
X66271311Y-17913852D01*
X66284159Y-17886603D01*
X66298182Y-17860551D01*
X66313345Y-17835689D01*
X66329616Y-17812010D01*
X66346961Y-17789508D01*
X66365347Y-17768173D01*
X66384740Y-17748001D01*
X66405107Y-17728982D01*
X66426414Y-17711109D01*
X66448628Y-17694377D01*
X66471715Y-17678776D01*
X66495643Y-17664300D01*
X66520377Y-17650942D01*
X66545884Y-17638695D01*
X66572132Y-17627550D01*
X66599085Y-17617502D01*
X66626712Y-17608542D01*
X66683850Y-17593859D01*
X66743278Y-17583443D01*
X66804730Y-17577236D01*
X66867937Y-17575180D01*
X66904905Y-17575969D01*
G37*
G36*
X68460654Y-17575969D02*
G01*
X68497113Y-17578334D01*
X68533019Y-17582269D01*
X68568329Y-17587768D01*
X68603000Y-17594825D01*
X68636988Y-17603434D01*
X68670249Y-17613589D01*
X68702740Y-17625285D01*
X68734417Y-17638516D01*
X68765236Y-17653276D01*
X68795154Y-17669559D01*
X68824128Y-17687359D01*
X68852113Y-17706671D01*
X68879066Y-17727488D01*
X68904944Y-17749806D01*
X68929703Y-17773617D01*
X68953299Y-17798917D01*
X68975688Y-17825699D01*
X68996828Y-17853958D01*
X69016674Y-17883688D01*
X69035183Y-17914883D01*
X69052312Y-17947537D01*
X69068015Y-17981644D01*
X69082252Y-18017199D01*
X69094976Y-18054196D01*
X69106145Y-18092629D01*
X69115716Y-18132491D01*
X69123644Y-18173779D01*
X69129887Y-18216484D01*
X69134399Y-18260603D01*
X69137139Y-18306128D01*
X69138062Y-18353055D01*
X69138062Y-18376867D01*
X69137184Y-18423748D01*
X69134574Y-18469140D01*
X69130266Y-18513045D01*
X69124295Y-18555461D01*
X69116697Y-18596388D01*
X69107506Y-18635828D01*
X69096756Y-18673779D01*
X69084484Y-18710242D01*
X69070723Y-18745216D01*
X69055509Y-18778703D01*
X69038876Y-18810701D01*
X69020860Y-18841211D01*
X69001495Y-18870232D01*
X68980816Y-18897765D01*
X68958858Y-18923810D01*
X68935656Y-18948367D01*
X68911244Y-18971435D01*
X68885659Y-18993015D01*
X68858934Y-19013107D01*
X68831104Y-19031711D01*
X68802205Y-19048826D01*
X68772270Y-19064453D01*
X68741336Y-19078591D01*
X68709437Y-19091242D01*
X68676608Y-19102404D01*
X68642883Y-19112078D01*
X68608298Y-19120263D01*
X68572887Y-19126961D01*
X68536686Y-19132170D01*
X68499729Y-19135890D01*
X68462051Y-19138123D01*
X68423687Y-19138867D01*
X68386248Y-19138173D01*
X68349839Y-19136107D01*
X68314464Y-19132693D01*
X68280130Y-19127953D01*
X68246842Y-19121911D01*
X68214607Y-19114589D01*
X68183429Y-19106012D01*
X68153316Y-19096203D01*
X68124272Y-19085184D01*
X68096304Y-19072979D01*
X68069417Y-19059612D01*
X68043617Y-19045105D01*
X68018910Y-19029482D01*
X67995302Y-19012766D01*
X67972799Y-18994980D01*
X67951406Y-18976148D01*
X67931129Y-18956293D01*
X67911974Y-18935437D01*
X67893947Y-18913605D01*
X67877054Y-18890820D01*
X67861300Y-18867104D01*
X67846691Y-18842482D01*
X67833234Y-18816976D01*
X67820933Y-18790609D01*
X67809795Y-18763405D01*
X67799826Y-18735388D01*
X67791031Y-18706579D01*
X67783416Y-18677003D01*
X67776987Y-18646684D01*
X67771750Y-18615643D01*
X67767711Y-18583904D01*
X67764875Y-18551492D01*
X68145875Y-18551492D01*
X68148339Y-18566931D01*
X68151260Y-18581992D01*
X68154632Y-18596666D01*
X68158448Y-18610946D01*
X68162699Y-18624824D01*
X68167379Y-18638295D01*
X68172481Y-18651349D01*
X68177997Y-18663981D01*
X68183920Y-18676183D01*
X68190242Y-18687947D01*
X68196957Y-18699266D01*
X68204057Y-18710133D01*
X68211535Y-18720541D01*
X68219384Y-18730483D01*
X68227596Y-18739951D01*
X68236164Y-18748937D01*
X68245081Y-18757435D01*
X68254339Y-18765438D01*
X68263932Y-18772938D01*
X68273851Y-18779928D01*
X68284091Y-18786400D01*
X68294643Y-18792347D01*
X68305500Y-18797763D01*
X68316655Y-18802639D01*
X68328101Y-18806969D01*
X68339830Y-18810745D01*
X68351835Y-18813961D01*
X68364109Y-18816607D01*
X68376645Y-18818679D01*
X68389435Y-18820167D01*
X68402473Y-18821066D01*
X68415750Y-18821367D01*
X68450531Y-18819778D01*
X68483405Y-18814980D01*
X68499112Y-18811363D01*
X68514325Y-18806926D01*
X68529038Y-18801664D01*
X68543246Y-18795570D01*
X68556942Y-18788639D01*
X68570120Y-18780865D01*
X68582775Y-18772243D01*
X68594902Y-18762766D01*
X68606493Y-18752428D01*
X68617544Y-18741224D01*
X68628048Y-18729149D01*
X68638000Y-18716195D01*
X68647393Y-18702358D01*
X68656223Y-18687631D01*
X68664484Y-18672009D01*
X68672168Y-18655485D01*
X68679271Y-18638055D01*
X68685787Y-18619712D01*
X68697035Y-18580265D01*
X68705864Y-18537097D01*
X68712228Y-18490162D01*
X68716080Y-18439414D01*
X68717375Y-18384804D01*
X68717375Y-18337180D01*
X68717005Y-18310088D01*
X68715906Y-18283879D01*
X68714091Y-18258550D01*
X68711577Y-18234101D01*
X68708376Y-18210529D01*
X68704503Y-18187834D01*
X68699974Y-18166014D01*
X68694802Y-18145067D01*
X68689003Y-18124993D01*
X68682590Y-18105789D01*
X68675578Y-18087454D01*
X68667982Y-18069987D01*
X68659817Y-18053386D01*
X68651096Y-18037649D01*
X68641834Y-18022777D01*
X68632047Y-18008766D01*
X68621747Y-17995615D01*
X68610951Y-17983323D01*
X68599672Y-17971889D01*
X68587925Y-17961311D01*
X68575725Y-17951588D01*
X68563086Y-17942717D01*
X68550022Y-17934699D01*
X68536549Y-17927530D01*
X68522680Y-17921211D01*
X68508430Y-17915738D01*
X68493814Y-17911112D01*
X68478847Y-17907330D01*
X68463542Y-17904391D01*
X68447914Y-17902293D01*
X68431979Y-17901036D01*
X68415750Y-17900617D01*
X68402541Y-17900895D01*
X68389703Y-17901722D01*
X68377234Y-17903089D01*
X68365133Y-17904989D01*
X68353398Y-17907412D01*
X68342027Y-17910349D01*
X68331021Y-17913792D01*
X68320376Y-17917732D01*
X68310091Y-17922161D01*
X68300166Y-17927069D01*
X68290598Y-17932448D01*
X68281386Y-17938289D01*
X68272529Y-17944584D01*
X68264024Y-17951323D01*
X68255872Y-17958499D01*
X68248070Y-17966102D01*
X68240617Y-17974123D01*
X68233511Y-17982554D01*
X68226751Y-17991386D01*
X68220335Y-18000611D01*
X68214263Y-18010219D01*
X68208532Y-18020203D01*
X68198089Y-18041260D01*
X68188994Y-18063712D01*
X68181237Y-18087489D01*
X68174805Y-18112523D01*
X68169687Y-18138742D01*
X67772812Y-18138742D01*
X67776504Y-18102906D01*
X67781604Y-18068318D01*
X67788079Y-18034972D01*
X67795896Y-18002859D01*
X67805021Y-17971973D01*
X67815420Y-17942307D01*
X67827061Y-17913852D01*
X67839909Y-17886603D01*
X67853932Y-17860551D01*
X67869095Y-17835689D01*
X67885366Y-17812010D01*
X67902711Y-17789508D01*
X67921097Y-17768173D01*
X67940490Y-17748001D01*
X67960857Y-17728982D01*
X67982164Y-17711109D01*
X68004378Y-17694377D01*
X68027465Y-17678776D01*
X68051393Y-17664300D01*
X68076127Y-17650942D01*
X68101634Y-17638695D01*
X68127882Y-17627550D01*
X68154835Y-17617502D01*
X68182462Y-17608542D01*
X68239600Y-17593859D01*
X68299028Y-17583443D01*
X68360480Y-17577236D01*
X68423687Y-17575180D01*
X68460654Y-17575969D01*
G37*
G36*
X70677937Y-18686429D02*
G01*
X70677937Y-18702304D01*
X70677291Y-18730094D01*
X70675375Y-18756913D01*
X70672221Y-18782767D01*
X70667860Y-18807662D01*
X70662325Y-18831604D01*
X70655648Y-18854597D01*
X70647860Y-18876649D01*
X70638994Y-18897765D01*
X70629081Y-18917951D01*
X70618154Y-18937212D01*
X70606244Y-18955555D01*
X70593384Y-18972985D01*
X70579605Y-18989509D01*
X70564940Y-19005131D01*
X70549420Y-19019858D01*
X70533078Y-19033695D01*
X70515944Y-19046649D01*
X70498053Y-19058724D01*
X70479434Y-19069928D01*
X70460121Y-19080266D01*
X70440145Y-19089743D01*
X70419538Y-19098365D01*
X70376560Y-19113070D01*
X70331443Y-19124426D01*
X70284442Y-19132480D01*
X70235813Y-19137278D01*
X70185812Y-19138867D01*
X70167394Y-19138590D01*
X70149347Y-19137770D01*
X70131669Y-19136421D01*
X70114359Y-19134557D01*
X70097415Y-19132193D01*
X70080836Y-19129344D01*
X70064620Y-19126024D01*
X70048766Y-19122248D01*
X70033273Y-19118029D01*
X70018138Y-19113384D01*
X70003361Y-19108326D01*
X69988940Y-19102869D01*
X69974874Y-19097029D01*
X69961161Y-19090819D01*
X69947800Y-19084255D01*
X69934789Y-19077351D01*
X69922126Y-19070121D01*
X69909811Y-19062581D01*
X69886218Y-19046624D01*
X69863996Y-19029598D01*
X69843135Y-19011619D01*
X69823623Y-18992802D01*
X69805448Y-18973264D01*
X69788598Y-18953122D01*
X69773062Y-18932492D01*
X69773062Y-19107117D01*
X69368250Y-19107117D01*
X69368250Y-18472117D01*
X69788937Y-18472117D01*
X69788937Y-18614992D01*
X69789306Y-18628921D01*
X69790398Y-18642432D01*
X69792194Y-18655524D01*
X69794673Y-18668198D01*
X69797815Y-18680453D01*
X69801599Y-18692290D01*
X69806005Y-18703707D01*
X69811013Y-18714707D01*
X69816603Y-18725288D01*
X69822753Y-18735450D01*
X69829444Y-18745193D01*
X69836655Y-18754518D01*
X69844366Y-18763425D01*
X69852557Y-18771913D01*
X69861207Y-18779982D01*
X69870296Y-18787633D01*
X69879804Y-18794865D01*
X69889710Y-18801678D01*
X69899994Y-18808073D01*
X69910635Y-18814050D01*
X69932909Y-18824747D01*
X69956369Y-18833769D01*
X69980852Y-18841118D01*
X70006195Y-18846792D01*
X70032236Y-18850792D01*
X70058812Y-18853117D01*
X70071974Y-18852909D01*
X70084675Y-18852290D01*
X70096916Y-18851266D01*
X70108700Y-18849846D01*
X70120032Y-18848036D01*
X70130912Y-18845844D01*
X70141345Y-18843278D01*
X70151333Y-18840343D01*
X70160880Y-18837048D01*
X70169987Y-18833399D01*
X70178659Y-18829405D01*
X70186897Y-18825072D01*
X70194705Y-18820408D01*
X70202086Y-18815420D01*
X70209043Y-18810115D01*
X70215578Y-18804500D01*
X70221694Y-18798583D01*
X70227395Y-18792371D01*
X70232683Y-18785871D01*
X70237561Y-18779091D01*
X70242032Y-18772037D01*
X70246099Y-18764718D01*
X70249765Y-18757139D01*
X70253033Y-18749310D01*
X70255905Y-18741236D01*
X70258385Y-18732925D01*
X70260476Y-18724384D01*
X70262179Y-18715622D01*
X70263500Y-18706644D01*
X70264439Y-18697458D01*
X70265000Y-18688072D01*
X70265187Y-18678492D01*
X70265187Y-18662617D01*
X70264885Y-18650199D01*
X70263978Y-18638241D01*
X70262466Y-18626739D01*
X70260350Y-18615690D01*
X70257629Y-18605088D01*
X70254304Y-18594929D01*
X70250374Y-18585210D01*
X70245839Y-18575925D01*
X70240700Y-18567070D01*
X70234956Y-18558641D01*
X70228608Y-18550633D01*
X70221655Y-18543043D01*
X70214097Y-18535865D01*
X70205935Y-18529096D01*
X70197168Y-18522731D01*
X70187796Y-18516766D01*
X70177820Y-18511195D01*
X70167239Y-18506016D01*
X70144264Y-18496813D01*
X70118870Y-18489122D01*
X70091058Y-18482907D01*
X70060827Y-18478134D01*
X70028178Y-18474768D01*
X69993111Y-18472774D01*
X69955624Y-18472117D01*
X69788937Y-18472117D01*
X69368250Y-18472117D01*
X69368250Y-18106992D01*
X69369012Y-18072666D01*
X69371278Y-18039630D01*
X69375019Y-18007869D01*
X69380202Y-17977372D01*
X69386799Y-17948124D01*
X69394777Y-17920114D01*
X69404107Y-17893327D01*
X69414758Y-17867750D01*
X69426700Y-17843372D01*
X69439902Y-17820178D01*
X69454334Y-17798155D01*
X69469964Y-17777291D01*
X69486763Y-17757572D01*
X69504701Y-17738985D01*
X69523745Y-17721517D01*
X69543867Y-17705156D01*
X69565035Y-17689887D01*
X69587219Y-17675698D01*
X69610388Y-17662576D01*
X69634512Y-17650508D01*
X69659561Y-17639480D01*
X69685503Y-17629480D01*
X69739948Y-17612510D01*
X69797601Y-17599494D01*
X69858220Y-17590326D01*
X69921559Y-17584901D01*
X69987375Y-17583117D01*
X70051801Y-17584981D01*
X70083181Y-17587316D01*
X70113971Y-17590589D01*
X70144146Y-17594804D01*
X70173677Y-17599964D01*
X70202540Y-17606072D01*
X70230709Y-17613130D01*
X70258156Y-17621142D01*
X70284856Y-17630110D01*
X70310784Y-17640037D01*
X70335911Y-17650926D01*
X70360214Y-17662781D01*
X70383664Y-17675603D01*
X70406237Y-17689397D01*
X70427906Y-17704164D01*
X70448644Y-17719907D01*
X70468427Y-17736631D01*
X70487226Y-17754336D01*
X70505017Y-17773028D01*
X70521774Y-17792707D01*
X70537469Y-17813378D01*
X70552077Y-17835043D01*
X70565572Y-17857705D01*
X70577927Y-17881366D01*
X70589117Y-17906031D01*
X70599115Y-17931702D01*
X70607895Y-17958381D01*
X70615431Y-17986071D01*
X70621696Y-18014776D01*
X70626665Y-18044499D01*
X70630312Y-18075242D01*
X70233437Y-18075242D01*
X70231203Y-18054790D01*
X70227468Y-18035151D01*
X70222223Y-18016397D01*
X70219029Y-18007372D01*
X70215454Y-17998595D01*
X70211494Y-17990074D01*
X70207150Y-17981817D01*
X70202419Y-17973834D01*
X70197300Y-17966132D01*
X70191791Y-17958721D01*
X70185892Y-17951610D01*
X70179600Y-17944806D01*
X70172914Y-17938320D01*
X70165832Y-17932159D01*
X70158354Y-17926332D01*
X70150478Y-17920849D01*
X70142202Y-17915717D01*
X70133525Y-17910945D01*
X70124446Y-17906543D01*
X70114962Y-17902518D01*
X70105073Y-17898880D01*
X70094777Y-17895638D01*
X70084072Y-17892799D01*
X70072958Y-17890374D01*
X70061432Y-17888369D01*
X70049494Y-17886795D01*
X70037141Y-17885660D01*
X70024373Y-17884973D01*
X70011187Y-17884742D01*
X69996582Y-17884997D01*
X69982530Y-17885759D01*
X69969024Y-17887024D01*
X69956059Y-17888788D01*
X69943628Y-17891046D01*
X69931727Y-17893794D01*
X69920349Y-17897027D01*
X69909488Y-17900741D01*
X69899139Y-17904932D01*
X69889295Y-17909595D01*
X69879952Y-17914726D01*
X69871103Y-17920321D01*
X69862742Y-17926375D01*
X69854863Y-17932884D01*
X69847462Y-17939844D01*
X69840531Y-17947250D01*
X69834065Y-17955097D01*
X69828059Y-17963382D01*
X69822506Y-17972101D01*
X69817400Y-17981248D01*
X69812737Y-17990819D01*
X69808510Y-18000810D01*
X69804712Y-18011217D01*
X69801339Y-18022036D01*
X69798385Y-18033261D01*
X69795844Y-18044889D01*
X69791976Y-18069335D01*
X69789689Y-18095339D01*
X69788937Y-18122867D01*
X69788937Y-18194304D01*
X69971500Y-18194304D01*
X70043528Y-18195820D01*
X70113522Y-18200474D01*
X70181120Y-18208431D01*
X70213909Y-18213699D01*
X70245963Y-18219853D01*
X70277239Y-18226914D01*
X70307690Y-18234902D01*
X70337273Y-18243838D01*
X70365941Y-18253742D01*
X70393649Y-18264635D01*
X70420354Y-18276536D01*
X70446009Y-18289466D01*
X70470570Y-18303445D01*
X70493991Y-18318494D01*
X70516228Y-18334633D01*
X70537235Y-18351882D01*
X70556968Y-18370263D01*
X70575381Y-18389794D01*
X70592429Y-18410496D01*
X70608067Y-18432391D01*
X70622250Y-18455498D01*
X70634934Y-18479837D01*
X70646073Y-18505429D01*
X70655621Y-18532294D01*
X70663535Y-18560452D01*
X70669768Y-18589925D01*
X70674276Y-18620732D01*
X70677014Y-18652893D01*
X70677719Y-18678492D01*
X70677937Y-18686429D01*
G37*
G04 #@! TD*
D11*
G04 #@! TO.C,J7*
X110860000Y-100897000D03*
D12*
X113400000Y-100897000D03*
G04 #@! TD*
D13*
G04 #@! TO.C,J2*
X74920000Y-44125000D03*
X74920000Y-77425000D03*
D14*
X76340000Y-70470000D03*
D15*
X76340000Y-67700000D03*
X76340000Y-64930000D03*
X76340000Y-62160000D03*
X76340000Y-59390000D03*
X76340000Y-56620000D03*
X76340000Y-53850000D03*
X76340000Y-51080000D03*
X73500000Y-69085000D03*
X73500000Y-66315000D03*
X73500000Y-63545000D03*
X73500000Y-60775000D03*
X73500000Y-58005000D03*
X73500000Y-55235000D03*
X73500000Y-52465000D03*
G04 #@! TD*
D13*
G04 #@! TO.C,J1*
X94920000Y-48275000D03*
X94920000Y-73275000D03*
D14*
X96340000Y-66315000D03*
D15*
X96340000Y-63545000D03*
X96340000Y-60775000D03*
X96340000Y-58005000D03*
X96340000Y-55235000D03*
X93500000Y-64930000D03*
X93500000Y-62160000D03*
X93500000Y-59390000D03*
X93500000Y-56620000D03*
G04 #@! TD*
D13*
G04 #@! TO.C,J6*
X34920000Y-92525000D03*
X34920000Y-29025000D03*
D14*
X33500000Y-35845000D03*
D15*
X33500000Y-38615000D03*
X33500000Y-41385000D03*
X33500000Y-44155000D03*
X33500000Y-46925000D03*
X33500000Y-49695000D03*
X33500000Y-52465000D03*
X33500000Y-55235000D03*
X33500000Y-58005000D03*
X33500000Y-60775000D03*
X33500000Y-63545000D03*
X33500000Y-66315000D03*
X33500000Y-69085000D03*
X33500000Y-71855000D03*
X33500000Y-74625000D03*
X33500000Y-77395000D03*
X33500000Y-80165000D03*
X33500000Y-82935000D03*
X33500000Y-85705000D03*
X36340000Y-37230000D03*
X36340000Y-40000000D03*
X36340000Y-42770000D03*
X36340000Y-45540000D03*
X36340000Y-48310000D03*
X36340000Y-51080000D03*
X36340000Y-53850000D03*
X36340000Y-56620000D03*
X36340000Y-59390000D03*
X36340000Y-62160000D03*
X36340000Y-64930000D03*
X36340000Y-67700000D03*
X36340000Y-70470000D03*
X36340000Y-73240000D03*
X36340000Y-76010000D03*
X36340000Y-78780000D03*
X36340000Y-81550000D03*
X36340000Y-84320000D03*
G04 #@! TD*
D13*
G04 #@! TO.C,J3*
X54920000Y-37225000D03*
X54920000Y-84325000D03*
D14*
X56340000Y-77395000D03*
D15*
X56340000Y-74625000D03*
X56340000Y-71855000D03*
X56340000Y-69085000D03*
X56340000Y-66315000D03*
X56340000Y-63545000D03*
X56340000Y-60775000D03*
X56340000Y-58005000D03*
X56340000Y-55235000D03*
X56340000Y-52465000D03*
X56340000Y-49695000D03*
X56340000Y-46925000D03*
X56340000Y-44155000D03*
X53500000Y-76010000D03*
X53500000Y-73240000D03*
X53500000Y-70470000D03*
X53500000Y-67700000D03*
X53500000Y-64930000D03*
X53500000Y-62160000D03*
X53500000Y-59390000D03*
X53500000Y-56620000D03*
X53500000Y-53850000D03*
X53500000Y-51080000D03*
X53500000Y-48310000D03*
X53500000Y-45540000D03*
G04 #@! TD*
D13*
G04 #@! TO.C,J5*
X107480000Y-29025000D03*
X107480000Y-92525000D03*
D14*
X106060000Y-85705000D03*
D15*
X106060000Y-82935000D03*
X106060000Y-80165000D03*
X106060000Y-77395000D03*
X106060000Y-74625000D03*
X106060000Y-71855000D03*
X106060000Y-69085000D03*
X106060000Y-66315000D03*
X106060000Y-63545000D03*
X106060000Y-60775000D03*
X106060000Y-58005000D03*
X106060000Y-55235000D03*
X106060000Y-52465000D03*
X106060000Y-49695000D03*
X106060000Y-46925000D03*
X106060000Y-44155000D03*
X106060000Y-41385000D03*
X106060000Y-38615000D03*
X106060000Y-35845000D03*
X108900000Y-84320000D03*
X108900000Y-81550000D03*
X108900000Y-78780000D03*
X108900000Y-76010000D03*
X108900000Y-73240000D03*
X108900000Y-70470000D03*
X108900000Y-67700000D03*
X108900000Y-64930000D03*
X108900000Y-62160000D03*
X108900000Y-59390000D03*
X108900000Y-56620000D03*
X108900000Y-53850000D03*
X108900000Y-51080000D03*
X108900000Y-48310000D03*
X108900000Y-45540000D03*
X108900000Y-42770000D03*
X108900000Y-40000000D03*
X108900000Y-37230000D03*
G04 #@! TD*
D13*
G04 #@! TO.C,J4*
X20700000Y-92525000D03*
X20700000Y-29025000D03*
D14*
X22120000Y-35845000D03*
D15*
X22120000Y-38615000D03*
X22120000Y-41385000D03*
X22120000Y-44155000D03*
X22120000Y-46925000D03*
X22120000Y-49695000D03*
X22120000Y-52465000D03*
X22120000Y-55235000D03*
X22120000Y-58005000D03*
X22120000Y-60775000D03*
X22120000Y-63545000D03*
X22120000Y-66315000D03*
X22120000Y-69085000D03*
X22120000Y-71855000D03*
X22120000Y-74625000D03*
X22120000Y-77395000D03*
X22120000Y-80165000D03*
X22120000Y-82935000D03*
X22120000Y-85705000D03*
X19280000Y-37230000D03*
X19280000Y-40000000D03*
X19280000Y-42770000D03*
X19280000Y-45540000D03*
X19280000Y-48310000D03*
X19280000Y-51080000D03*
X19280000Y-53850000D03*
X19280000Y-56620000D03*
X19280000Y-59390000D03*
X19280000Y-62160000D03*
X19280000Y-64930000D03*
X19280000Y-67700000D03*
X19280000Y-70470000D03*
X19280000Y-73240000D03*
X19280000Y-76010000D03*
X19280000Y-78780000D03*
X19280000Y-81550000D03*
X19280000Y-84320000D03*
G04 #@! TD*
D16*
X9590000Y-10280000D02*
G75*
G02*
X13590000Y-6280000I4000000J0D01*
G01*
X9590000Y-111280000D02*
X9590000Y-10280000D01*
X118590000Y-10280000D02*
X118590000Y-111280000D01*
X114590000Y-115280000D02*
X13590000Y-115280000D01*
X114590000Y-6280000D02*
G75*
G02*
X118590000Y-10280000I0J-4000000D01*
G01*
X13590000Y-115280000D02*
G75*
G02*
X9590000Y-111280000I0J4000000D01*
G01*
X13590000Y-6280000D02*
X114590000Y-6280000D01*
X118590000Y-111280000D02*
G75*
G02*
X114590000Y-115280000I-4000000J0D01*
G01*
M02*
