G04 #@! TF.GenerationSoftware,KiCad,Pcbnew,9.0.0*
G04 #@! TF.CreationDate,2025-03-27T10:29:31+01:00*
G04 #@! TF.ProjectId,CB_DSUB,43425f44-5355-4422-9e6b-696361645f70,rev?*
G04 #@! TF.SameCoordinates,PX2639280PY2349340*
G04 #@! TF.FileFunction,Legend,Top*
G04 #@! TF.FilePolarity,Positive*
%FSLAX46Y46*%
G04 Gerber Fmt 4.6, Leading zero omitted, Abs format (unit mm)*
G04 Created by KiCad (PCBNEW 9.0.0) date 2025-03-27 10:29:31*
%MOMM*%
%LPD*%
G01*
G04 APERTURE LIST*
%ADD10C,0.100000*%
%ADD11C,0.600000*%
%ADD12C,0.150000*%
%ADD13C,0.254000*%
%ADD14C,0.120000*%
G04 #@! TA.AperFunction,Profile*
%ADD15C,0.050000*%
G04 #@! TD*
G04 APERTURE END LIST*
D10*
X107057217Y-107243721D02*
X107200074Y-107291340D01*
X107200074Y-107291340D02*
X107247693Y-107338959D01*
X107247693Y-107338959D02*
X107295312Y-107434197D01*
X107295312Y-107434197D02*
X107295312Y-107577054D01*
X107295312Y-107577054D02*
X107247693Y-107672292D01*
X107247693Y-107672292D02*
X107200074Y-107719912D01*
X107200074Y-107719912D02*
X107104836Y-107767531D01*
X107104836Y-107767531D02*
X106723884Y-107767531D01*
X106723884Y-107767531D02*
X106723884Y-106767531D01*
X106723884Y-106767531D02*
X107057217Y-106767531D01*
X107057217Y-106767531D02*
X107152455Y-106815150D01*
X107152455Y-106815150D02*
X107200074Y-106862769D01*
X107200074Y-106862769D02*
X107247693Y-106958007D01*
X107247693Y-106958007D02*
X107247693Y-107053245D01*
X107247693Y-107053245D02*
X107200074Y-107148483D01*
X107200074Y-107148483D02*
X107152455Y-107196102D01*
X107152455Y-107196102D02*
X107057217Y-107243721D01*
X107057217Y-107243721D02*
X106723884Y-107243721D01*
X107866741Y-107767531D02*
X107771503Y-107719912D01*
X107771503Y-107719912D02*
X107723884Y-107672292D01*
X107723884Y-107672292D02*
X107676265Y-107577054D01*
X107676265Y-107577054D02*
X107676265Y-107291340D01*
X107676265Y-107291340D02*
X107723884Y-107196102D01*
X107723884Y-107196102D02*
X107771503Y-107148483D01*
X107771503Y-107148483D02*
X107866741Y-107100864D01*
X107866741Y-107100864D02*
X108009598Y-107100864D01*
X108009598Y-107100864D02*
X108104836Y-107148483D01*
X108104836Y-107148483D02*
X108152455Y-107196102D01*
X108152455Y-107196102D02*
X108200074Y-107291340D01*
X108200074Y-107291340D02*
X108200074Y-107577054D01*
X108200074Y-107577054D02*
X108152455Y-107672292D01*
X108152455Y-107672292D02*
X108104836Y-107719912D01*
X108104836Y-107719912D02*
X108009598Y-107767531D01*
X108009598Y-107767531D02*
X107866741Y-107767531D01*
X109057217Y-107767531D02*
X109057217Y-107243721D01*
X109057217Y-107243721D02*
X109009598Y-107148483D01*
X109009598Y-107148483D02*
X108914360Y-107100864D01*
X108914360Y-107100864D02*
X108723884Y-107100864D01*
X108723884Y-107100864D02*
X108628646Y-107148483D01*
X109057217Y-107719912D02*
X108961979Y-107767531D01*
X108961979Y-107767531D02*
X108723884Y-107767531D01*
X108723884Y-107767531D02*
X108628646Y-107719912D01*
X108628646Y-107719912D02*
X108581027Y-107624673D01*
X108581027Y-107624673D02*
X108581027Y-107529435D01*
X108581027Y-107529435D02*
X108628646Y-107434197D01*
X108628646Y-107434197D02*
X108723884Y-107386578D01*
X108723884Y-107386578D02*
X108961979Y-107386578D01*
X108961979Y-107386578D02*
X109057217Y-107338959D01*
X109533408Y-107767531D02*
X109533408Y-107100864D01*
X109533408Y-107291340D02*
X109581027Y-107196102D01*
X109581027Y-107196102D02*
X109628646Y-107148483D01*
X109628646Y-107148483D02*
X109723884Y-107100864D01*
X109723884Y-107100864D02*
X109819122Y-107100864D01*
X110581027Y-107767531D02*
X110581027Y-106767531D01*
X110581027Y-107719912D02*
X110485789Y-107767531D01*
X110485789Y-107767531D02*
X110295313Y-107767531D01*
X110295313Y-107767531D02*
X110200075Y-107719912D01*
X110200075Y-107719912D02*
X110152456Y-107672292D01*
X110152456Y-107672292D02*
X110104837Y-107577054D01*
X110104837Y-107577054D02*
X110104837Y-107291340D01*
X110104837Y-107291340D02*
X110152456Y-107196102D01*
X110152456Y-107196102D02*
X110200075Y-107148483D01*
X110200075Y-107148483D02*
X110295313Y-107100864D01*
X110295313Y-107100864D02*
X110485789Y-107100864D01*
X110485789Y-107100864D02*
X110581027Y-107148483D01*
X106723884Y-109377475D02*
X106723884Y-108377475D01*
X107628645Y-109377475D02*
X107628645Y-108377475D01*
X107628645Y-109329856D02*
X107533407Y-109377475D01*
X107533407Y-109377475D02*
X107342931Y-109377475D01*
X107342931Y-109377475D02*
X107247693Y-109329856D01*
X107247693Y-109329856D02*
X107200074Y-109282236D01*
X107200074Y-109282236D02*
X107152455Y-109186998D01*
X107152455Y-109186998D02*
X107152455Y-108901284D01*
X107152455Y-108901284D02*
X107200074Y-108806046D01*
X107200074Y-108806046D02*
X107247693Y-108758427D01*
X107247693Y-108758427D02*
X107342931Y-108710808D01*
X107342931Y-108710808D02*
X107533407Y-108710808D01*
X107533407Y-108710808D02*
X107628645Y-108758427D01*
X108485788Y-109329856D02*
X108390550Y-109377475D01*
X108390550Y-109377475D02*
X108200074Y-109377475D01*
X108200074Y-109377475D02*
X108104836Y-109329856D01*
X108104836Y-109329856D02*
X108057217Y-109234617D01*
X108057217Y-109234617D02*
X108057217Y-108853665D01*
X108057217Y-108853665D02*
X108104836Y-108758427D01*
X108104836Y-108758427D02*
X108200074Y-108710808D01*
X108200074Y-108710808D02*
X108390550Y-108710808D01*
X108390550Y-108710808D02*
X108485788Y-108758427D01*
X108485788Y-108758427D02*
X108533407Y-108853665D01*
X108533407Y-108853665D02*
X108533407Y-108948903D01*
X108533407Y-108948903D02*
X108057217Y-109044141D01*
X108961979Y-108710808D02*
X108961979Y-109377475D01*
X108961979Y-108806046D02*
X109009598Y-108758427D01*
X109009598Y-108758427D02*
X109104836Y-108710808D01*
X109104836Y-108710808D02*
X109247693Y-108710808D01*
X109247693Y-108710808D02*
X109342931Y-108758427D01*
X109342931Y-108758427D02*
X109390550Y-108853665D01*
X109390550Y-108853665D02*
X109390550Y-109377475D01*
X109723884Y-108710808D02*
X110104836Y-108710808D01*
X109866741Y-108377475D02*
X109866741Y-109234617D01*
X109866741Y-109234617D02*
X109914360Y-109329856D01*
X109914360Y-109329856D02*
X110009598Y-109377475D01*
X110009598Y-109377475D02*
X110104836Y-109377475D01*
X110438170Y-109377475D02*
X110438170Y-108710808D01*
X110438170Y-108377475D02*
X110390551Y-108425094D01*
X110390551Y-108425094D02*
X110438170Y-108472713D01*
X110438170Y-108472713D02*
X110485789Y-108425094D01*
X110485789Y-108425094D02*
X110438170Y-108377475D01*
X110438170Y-108377475D02*
X110438170Y-108472713D01*
X110771503Y-108710808D02*
X111152455Y-108710808D01*
X110914360Y-109377475D02*
X110914360Y-108520332D01*
X110914360Y-108520332D02*
X110961979Y-108425094D01*
X110961979Y-108425094D02*
X111057217Y-108377475D01*
X111057217Y-108377475D02*
X111152455Y-108377475D01*
X111485789Y-109377475D02*
X111485789Y-108710808D01*
X111485789Y-108377475D02*
X111438170Y-108425094D01*
X111438170Y-108425094D02*
X111485789Y-108472713D01*
X111485789Y-108472713D02*
X111533408Y-108425094D01*
X111533408Y-108425094D02*
X111485789Y-108377475D01*
X111485789Y-108377475D02*
X111485789Y-108472713D01*
X112390550Y-109329856D02*
X112295312Y-109377475D01*
X112295312Y-109377475D02*
X112104836Y-109377475D01*
X112104836Y-109377475D02*
X112009598Y-109329856D01*
X112009598Y-109329856D02*
X111961979Y-109282236D01*
X111961979Y-109282236D02*
X111914360Y-109186998D01*
X111914360Y-109186998D02*
X111914360Y-108901284D01*
X111914360Y-108901284D02*
X111961979Y-108806046D01*
X111961979Y-108806046D02*
X112009598Y-108758427D01*
X112009598Y-108758427D02*
X112104836Y-108710808D01*
X112104836Y-108710808D02*
X112295312Y-108710808D01*
X112295312Y-108710808D02*
X112390550Y-108758427D01*
X113247693Y-109377475D02*
X113247693Y-108853665D01*
X113247693Y-108853665D02*
X113200074Y-108758427D01*
X113200074Y-108758427D02*
X113104836Y-108710808D01*
X113104836Y-108710808D02*
X112914360Y-108710808D01*
X112914360Y-108710808D02*
X112819122Y-108758427D01*
X113247693Y-109329856D02*
X113152455Y-109377475D01*
X113152455Y-109377475D02*
X112914360Y-109377475D01*
X112914360Y-109377475D02*
X112819122Y-109329856D01*
X112819122Y-109329856D02*
X112771503Y-109234617D01*
X112771503Y-109234617D02*
X112771503Y-109139379D01*
X112771503Y-109139379D02*
X112819122Y-109044141D01*
X112819122Y-109044141D02*
X112914360Y-108996522D01*
X112914360Y-108996522D02*
X113152455Y-108996522D01*
X113152455Y-108996522D02*
X113247693Y-108948903D01*
X113581027Y-108710808D02*
X113961979Y-108710808D01*
X113723884Y-108377475D02*
X113723884Y-109234617D01*
X113723884Y-109234617D02*
X113771503Y-109329856D01*
X113771503Y-109329856D02*
X113866741Y-109377475D01*
X113866741Y-109377475D02*
X113961979Y-109377475D01*
X114295313Y-109377475D02*
X114295313Y-108710808D01*
X114295313Y-108377475D02*
X114247694Y-108425094D01*
X114247694Y-108425094D02*
X114295313Y-108472713D01*
X114295313Y-108472713D02*
X114342932Y-108425094D01*
X114342932Y-108425094D02*
X114295313Y-108377475D01*
X114295313Y-108377475D02*
X114295313Y-108472713D01*
X114914360Y-109377475D02*
X114819122Y-109329856D01*
X114819122Y-109329856D02*
X114771503Y-109282236D01*
X114771503Y-109282236D02*
X114723884Y-109186998D01*
X114723884Y-109186998D02*
X114723884Y-108901284D01*
X114723884Y-108901284D02*
X114771503Y-108806046D01*
X114771503Y-108806046D02*
X114819122Y-108758427D01*
X114819122Y-108758427D02*
X114914360Y-108710808D01*
X114914360Y-108710808D02*
X115057217Y-108710808D01*
X115057217Y-108710808D02*
X115152455Y-108758427D01*
X115152455Y-108758427D02*
X115200074Y-108806046D01*
X115200074Y-108806046D02*
X115247693Y-108901284D01*
X115247693Y-108901284D02*
X115247693Y-109186998D01*
X115247693Y-109186998D02*
X115200074Y-109282236D01*
X115200074Y-109282236D02*
X115152455Y-109329856D01*
X115152455Y-109329856D02*
X115057217Y-109377475D01*
X115057217Y-109377475D02*
X114914360Y-109377475D01*
X115676265Y-108710808D02*
X115676265Y-109377475D01*
X115676265Y-108806046D02*
X115723884Y-108758427D01*
X115723884Y-108758427D02*
X115819122Y-108710808D01*
X115819122Y-108710808D02*
X115961979Y-108710808D01*
X115961979Y-108710808D02*
X116057217Y-108758427D01*
X116057217Y-108758427D02*
X116104836Y-108853665D01*
X116104836Y-108853665D02*
X116104836Y-109377475D01*
X107009598Y-111368371D02*
X106961979Y-111320752D01*
X106961979Y-111320752D02*
X106866741Y-111177895D01*
X106866741Y-111177895D02*
X106819122Y-111082657D01*
X106819122Y-111082657D02*
X106771503Y-110939800D01*
X106771503Y-110939800D02*
X106723884Y-110701704D01*
X106723884Y-110701704D02*
X106723884Y-110511228D01*
X106723884Y-110511228D02*
X106771503Y-110273133D01*
X106771503Y-110273133D02*
X106819122Y-110130276D01*
X106819122Y-110130276D02*
X106866741Y-110035038D01*
X106866741Y-110035038D02*
X106961979Y-109892180D01*
X106961979Y-109892180D02*
X107009598Y-109844561D01*
X107819122Y-109987419D02*
X107628646Y-109987419D01*
X107628646Y-109987419D02*
X107533408Y-110035038D01*
X107533408Y-110035038D02*
X107485789Y-110082657D01*
X107485789Y-110082657D02*
X107390551Y-110225514D01*
X107390551Y-110225514D02*
X107342932Y-110415990D01*
X107342932Y-110415990D02*
X107342932Y-110796942D01*
X107342932Y-110796942D02*
X107390551Y-110892180D01*
X107390551Y-110892180D02*
X107438170Y-110939800D01*
X107438170Y-110939800D02*
X107533408Y-110987419D01*
X107533408Y-110987419D02*
X107723884Y-110987419D01*
X107723884Y-110987419D02*
X107819122Y-110939800D01*
X107819122Y-110939800D02*
X107866741Y-110892180D01*
X107866741Y-110892180D02*
X107914360Y-110796942D01*
X107914360Y-110796942D02*
X107914360Y-110558847D01*
X107914360Y-110558847D02*
X107866741Y-110463609D01*
X107866741Y-110463609D02*
X107819122Y-110415990D01*
X107819122Y-110415990D02*
X107723884Y-110368371D01*
X107723884Y-110368371D02*
X107533408Y-110368371D01*
X107533408Y-110368371D02*
X107438170Y-110415990D01*
X107438170Y-110415990D02*
X107390551Y-110463609D01*
X107390551Y-110463609D02*
X107342932Y-110558847D01*
X108247694Y-109987419D02*
X108866741Y-109987419D01*
X108866741Y-109987419D02*
X108533408Y-110368371D01*
X108533408Y-110368371D02*
X108676265Y-110368371D01*
X108676265Y-110368371D02*
X108771503Y-110415990D01*
X108771503Y-110415990D02*
X108819122Y-110463609D01*
X108819122Y-110463609D02*
X108866741Y-110558847D01*
X108866741Y-110558847D02*
X108866741Y-110796942D01*
X108866741Y-110796942D02*
X108819122Y-110892180D01*
X108819122Y-110892180D02*
X108771503Y-110939800D01*
X108771503Y-110939800D02*
X108676265Y-110987419D01*
X108676265Y-110987419D02*
X108390551Y-110987419D01*
X108390551Y-110987419D02*
X108295313Y-110939800D01*
X108295313Y-110939800D02*
X108247694Y-110892180D01*
X109295313Y-110606466D02*
X110057218Y-110606466D01*
X110961979Y-109987419D02*
X110771503Y-109987419D01*
X110771503Y-109987419D02*
X110676265Y-110035038D01*
X110676265Y-110035038D02*
X110628646Y-110082657D01*
X110628646Y-110082657D02*
X110533408Y-110225514D01*
X110533408Y-110225514D02*
X110485789Y-110415990D01*
X110485789Y-110415990D02*
X110485789Y-110796942D01*
X110485789Y-110796942D02*
X110533408Y-110892180D01*
X110533408Y-110892180D02*
X110581027Y-110939800D01*
X110581027Y-110939800D02*
X110676265Y-110987419D01*
X110676265Y-110987419D02*
X110866741Y-110987419D01*
X110866741Y-110987419D02*
X110961979Y-110939800D01*
X110961979Y-110939800D02*
X111009598Y-110892180D01*
X111009598Y-110892180D02*
X111057217Y-110796942D01*
X111057217Y-110796942D02*
X111057217Y-110558847D01*
X111057217Y-110558847D02*
X111009598Y-110463609D01*
X111009598Y-110463609D02*
X110961979Y-110415990D01*
X110961979Y-110415990D02*
X110866741Y-110368371D01*
X110866741Y-110368371D02*
X110676265Y-110368371D01*
X110676265Y-110368371D02*
X110581027Y-110415990D01*
X110581027Y-110415990D02*
X110533408Y-110463609D01*
X110533408Y-110463609D02*
X110485789Y-110558847D01*
X111914360Y-110320752D02*
X111914360Y-110987419D01*
X111676265Y-109939800D02*
X111438170Y-110654085D01*
X111438170Y-110654085D02*
X112057217Y-110654085D01*
X112342932Y-111368371D02*
X112390551Y-111320752D01*
X112390551Y-111320752D02*
X112485789Y-111177895D01*
X112485789Y-111177895D02*
X112533408Y-111082657D01*
X112533408Y-111082657D02*
X112581027Y-110939800D01*
X112581027Y-110939800D02*
X112628646Y-110701704D01*
X112628646Y-110701704D02*
X112628646Y-110511228D01*
X112628646Y-110511228D02*
X112581027Y-110273133D01*
X112581027Y-110273133D02*
X112533408Y-110130276D01*
X112533408Y-110130276D02*
X112485789Y-110035038D01*
X112485789Y-110035038D02*
X112390551Y-109892180D01*
X112390551Y-109892180D02*
X112342932Y-109844561D01*
X52800000Y-98735000D02*
X104680000Y-98735000D01*
X104680000Y-111115000D01*
X52800000Y-111115000D01*
X52800000Y-98735000D01*
X53650000Y-103410000D02*
X103650000Y-103410000D01*
X103650000Y-110500000D01*
X53650000Y-110500000D01*
X53650000Y-103410000D01*
G36*
X53650000Y-103410000D02*
G01*
X103650000Y-103410000D01*
X103650000Y-110500000D01*
X53650000Y-110500000D01*
X53650000Y-103410000D01*
G37*
D11*
X55288545Y-101989752D02*
X55169497Y-102108800D01*
X55169497Y-102108800D02*
X54812355Y-102227847D01*
X54812355Y-102227847D02*
X54574259Y-102227847D01*
X54574259Y-102227847D02*
X54217116Y-102108800D01*
X54217116Y-102108800D02*
X53979021Y-101870704D01*
X53979021Y-101870704D02*
X53859974Y-101632609D01*
X53859974Y-101632609D02*
X53740926Y-101156419D01*
X53740926Y-101156419D02*
X53740926Y-100799276D01*
X53740926Y-100799276D02*
X53859974Y-100323085D01*
X53859974Y-100323085D02*
X53979021Y-100084990D01*
X53979021Y-100084990D02*
X54217116Y-99846895D01*
X54217116Y-99846895D02*
X54574259Y-99727847D01*
X54574259Y-99727847D02*
X54812355Y-99727847D01*
X54812355Y-99727847D02*
X55169497Y-99846895D01*
X55169497Y-99846895D02*
X55288545Y-99965942D01*
X57193307Y-100918323D02*
X57550450Y-101037371D01*
X57550450Y-101037371D02*
X57669497Y-101156419D01*
X57669497Y-101156419D02*
X57788545Y-101394514D01*
X57788545Y-101394514D02*
X57788545Y-101751657D01*
X57788545Y-101751657D02*
X57669497Y-101989752D01*
X57669497Y-101989752D02*
X57550450Y-102108800D01*
X57550450Y-102108800D02*
X57312355Y-102227847D01*
X57312355Y-102227847D02*
X56359974Y-102227847D01*
X56359974Y-102227847D02*
X56359974Y-99727847D01*
X56359974Y-99727847D02*
X57193307Y-99727847D01*
X57193307Y-99727847D02*
X57431402Y-99846895D01*
X57431402Y-99846895D02*
X57550450Y-99965942D01*
X57550450Y-99965942D02*
X57669497Y-100204038D01*
X57669497Y-100204038D02*
X57669497Y-100442133D01*
X57669497Y-100442133D02*
X57550450Y-100680228D01*
X57550450Y-100680228D02*
X57431402Y-100799276D01*
X57431402Y-100799276D02*
X57193307Y-100918323D01*
X57193307Y-100918323D02*
X56359974Y-100918323D01*
X58264736Y-102465942D02*
X60169497Y-102465942D01*
X60764736Y-102227847D02*
X60764736Y-99727847D01*
X60764736Y-99727847D02*
X61359974Y-99727847D01*
X61359974Y-99727847D02*
X61717117Y-99846895D01*
X61717117Y-99846895D02*
X61955212Y-100084990D01*
X61955212Y-100084990D02*
X62074259Y-100323085D01*
X62074259Y-100323085D02*
X62193307Y-100799276D01*
X62193307Y-100799276D02*
X62193307Y-101156419D01*
X62193307Y-101156419D02*
X62074259Y-101632609D01*
X62074259Y-101632609D02*
X61955212Y-101870704D01*
X61955212Y-101870704D02*
X61717117Y-102108800D01*
X61717117Y-102108800D02*
X61359974Y-102227847D01*
X61359974Y-102227847D02*
X60764736Y-102227847D01*
X63145688Y-102108800D02*
X63502831Y-102227847D01*
X63502831Y-102227847D02*
X64098069Y-102227847D01*
X64098069Y-102227847D02*
X64336164Y-102108800D01*
X64336164Y-102108800D02*
X64455212Y-101989752D01*
X64455212Y-101989752D02*
X64574259Y-101751657D01*
X64574259Y-101751657D02*
X64574259Y-101513561D01*
X64574259Y-101513561D02*
X64455212Y-101275466D01*
X64455212Y-101275466D02*
X64336164Y-101156419D01*
X64336164Y-101156419D02*
X64098069Y-101037371D01*
X64098069Y-101037371D02*
X63621878Y-100918323D01*
X63621878Y-100918323D02*
X63383783Y-100799276D01*
X63383783Y-100799276D02*
X63264736Y-100680228D01*
X63264736Y-100680228D02*
X63145688Y-100442133D01*
X63145688Y-100442133D02*
X63145688Y-100204038D01*
X63145688Y-100204038D02*
X63264736Y-99965942D01*
X63264736Y-99965942D02*
X63383783Y-99846895D01*
X63383783Y-99846895D02*
X63621878Y-99727847D01*
X63621878Y-99727847D02*
X64217117Y-99727847D01*
X64217117Y-99727847D02*
X64574259Y-99846895D01*
X65645688Y-99727847D02*
X65645688Y-101751657D01*
X65645688Y-101751657D02*
X65764735Y-101989752D01*
X65764735Y-101989752D02*
X65883783Y-102108800D01*
X65883783Y-102108800D02*
X66121878Y-102227847D01*
X66121878Y-102227847D02*
X66598069Y-102227847D01*
X66598069Y-102227847D02*
X66836164Y-102108800D01*
X66836164Y-102108800D02*
X66955211Y-101989752D01*
X66955211Y-101989752D02*
X67074259Y-101751657D01*
X67074259Y-101751657D02*
X67074259Y-99727847D01*
X69098069Y-100918323D02*
X69455212Y-101037371D01*
X69455212Y-101037371D02*
X69574259Y-101156419D01*
X69574259Y-101156419D02*
X69693307Y-101394514D01*
X69693307Y-101394514D02*
X69693307Y-101751657D01*
X69693307Y-101751657D02*
X69574259Y-101989752D01*
X69574259Y-101989752D02*
X69455212Y-102108800D01*
X69455212Y-102108800D02*
X69217117Y-102227847D01*
X69217117Y-102227847D02*
X68264736Y-102227847D01*
X68264736Y-102227847D02*
X68264736Y-99727847D01*
X68264736Y-99727847D02*
X69098069Y-99727847D01*
X69098069Y-99727847D02*
X69336164Y-99846895D01*
X69336164Y-99846895D02*
X69455212Y-99965942D01*
X69455212Y-99965942D02*
X69574259Y-100204038D01*
X69574259Y-100204038D02*
X69574259Y-100442133D01*
X69574259Y-100442133D02*
X69455212Y-100680228D01*
X69455212Y-100680228D02*
X69336164Y-100799276D01*
X69336164Y-100799276D02*
X69098069Y-100918323D01*
X69098069Y-100918323D02*
X68264736Y-100918323D01*
D12*
X111497713Y-103546200D02*
X111611999Y-103584295D01*
X111611999Y-103584295D02*
X111802475Y-103584295D01*
X111802475Y-103584295D02*
X111878666Y-103546200D01*
X111878666Y-103546200D02*
X111916761Y-103508104D01*
X111916761Y-103508104D02*
X111954856Y-103431914D01*
X111954856Y-103431914D02*
X111954856Y-103355723D01*
X111954856Y-103355723D02*
X111916761Y-103279533D01*
X111916761Y-103279533D02*
X111878666Y-103241438D01*
X111878666Y-103241438D02*
X111802475Y-103203342D01*
X111802475Y-103203342D02*
X111650094Y-103165247D01*
X111650094Y-103165247D02*
X111573904Y-103127152D01*
X111573904Y-103127152D02*
X111535809Y-103089057D01*
X111535809Y-103089057D02*
X111497713Y-103012866D01*
X111497713Y-103012866D02*
X111497713Y-102936676D01*
X111497713Y-102936676D02*
X111535809Y-102860485D01*
X111535809Y-102860485D02*
X111573904Y-102822390D01*
X111573904Y-102822390D02*
X111650094Y-102784295D01*
X111650094Y-102784295D02*
X111840571Y-102784295D01*
X111840571Y-102784295D02*
X111954856Y-102822390D01*
X112526285Y-102784295D02*
X112526285Y-103355723D01*
X112526285Y-103355723D02*
X112488190Y-103470009D01*
X112488190Y-103470009D02*
X112411999Y-103546200D01*
X112411999Y-103546200D02*
X112297714Y-103584295D01*
X112297714Y-103584295D02*
X112221523Y-103584295D01*
X113326285Y-103584295D02*
X112869142Y-103584295D01*
X113097714Y-103584295D02*
X113097714Y-102784295D01*
X113097714Y-102784295D02*
X113021523Y-102898580D01*
X113021523Y-102898580D02*
X112945333Y-102974771D01*
X112945333Y-102974771D02*
X112869142Y-103012866D01*
X111863333Y-97919295D02*
X111863333Y-98490723D01*
X111863333Y-98490723D02*
X111825238Y-98605009D01*
X111825238Y-98605009D02*
X111749047Y-98681200D01*
X111749047Y-98681200D02*
X111634762Y-98719295D01*
X111634762Y-98719295D02*
X111558571Y-98719295D01*
X112168095Y-97919295D02*
X112701429Y-97919295D01*
X112701429Y-97919295D02*
X112358571Y-98719295D01*
X81684819Y-61108333D02*
X82399104Y-61108333D01*
X82399104Y-61108333D02*
X82541961Y-61155952D01*
X82541961Y-61155952D02*
X82637200Y-61251190D01*
X82637200Y-61251190D02*
X82684819Y-61394047D01*
X82684819Y-61394047D02*
X82684819Y-61489285D01*
X81780057Y-60679761D02*
X81732438Y-60632142D01*
X81732438Y-60632142D02*
X81684819Y-60536904D01*
X81684819Y-60536904D02*
X81684819Y-60298809D01*
X81684819Y-60298809D02*
X81732438Y-60203571D01*
X81732438Y-60203571D02*
X81780057Y-60155952D01*
X81780057Y-60155952D02*
X81875295Y-60108333D01*
X81875295Y-60108333D02*
X81970533Y-60108333D01*
X81970533Y-60108333D02*
X82113390Y-60155952D01*
X82113390Y-60155952D02*
X82684819Y-60727380D01*
X82684819Y-60727380D02*
X82684819Y-60108333D01*
X102894819Y-61108333D02*
X103609104Y-61108333D01*
X103609104Y-61108333D02*
X103751961Y-61155952D01*
X103751961Y-61155952D02*
X103847200Y-61251190D01*
X103847200Y-61251190D02*
X103894819Y-61394047D01*
X103894819Y-61394047D02*
X103894819Y-61489285D01*
X103894819Y-60108333D02*
X103894819Y-60679761D01*
X103894819Y-60394047D02*
X102894819Y-60394047D01*
X102894819Y-60394047D02*
X103037676Y-60489285D01*
X103037676Y-60489285D02*
X103132914Y-60584523D01*
X103132914Y-60584523D02*
X103180533Y-60679761D01*
X25854819Y-61108333D02*
X26569104Y-61108333D01*
X26569104Y-61108333D02*
X26711961Y-61155952D01*
X26711961Y-61155952D02*
X26807200Y-61251190D01*
X26807200Y-61251190D02*
X26854819Y-61394047D01*
X26854819Y-61394047D02*
X26854819Y-61489285D01*
X25854819Y-60203571D02*
X25854819Y-60394047D01*
X25854819Y-60394047D02*
X25902438Y-60489285D01*
X25902438Y-60489285D02*
X25950057Y-60536904D01*
X25950057Y-60536904D02*
X26092914Y-60632142D01*
X26092914Y-60632142D02*
X26283390Y-60679761D01*
X26283390Y-60679761D02*
X26664342Y-60679761D01*
X26664342Y-60679761D02*
X26759580Y-60632142D01*
X26759580Y-60632142D02*
X26807200Y-60584523D01*
X26807200Y-60584523D02*
X26854819Y-60489285D01*
X26854819Y-60489285D02*
X26854819Y-60298809D01*
X26854819Y-60298809D02*
X26807200Y-60203571D01*
X26807200Y-60203571D02*
X26759580Y-60155952D01*
X26759580Y-60155952D02*
X26664342Y-60108333D01*
X26664342Y-60108333D02*
X26426247Y-60108333D01*
X26426247Y-60108333D02*
X26331009Y-60155952D01*
X26331009Y-60155952D02*
X26283390Y-60203571D01*
X26283390Y-60203571D02*
X26235771Y-60298809D01*
X26235771Y-60298809D02*
X26235771Y-60489285D01*
X26235771Y-60489285D02*
X26283390Y-60584523D01*
X26283390Y-60584523D02*
X26331009Y-60632142D01*
X26331009Y-60632142D02*
X26426247Y-60679761D01*
X61684819Y-61108333D02*
X62399104Y-61108333D01*
X62399104Y-61108333D02*
X62541961Y-61155952D01*
X62541961Y-61155952D02*
X62637200Y-61251190D01*
X62637200Y-61251190D02*
X62684819Y-61394047D01*
X62684819Y-61394047D02*
X62684819Y-61489285D01*
X61684819Y-60727380D02*
X61684819Y-60108333D01*
X61684819Y-60108333D02*
X62065771Y-60441666D01*
X62065771Y-60441666D02*
X62065771Y-60298809D01*
X62065771Y-60298809D02*
X62113390Y-60203571D01*
X62113390Y-60203571D02*
X62161009Y-60155952D01*
X62161009Y-60155952D02*
X62256247Y-60108333D01*
X62256247Y-60108333D02*
X62494342Y-60108333D01*
X62494342Y-60108333D02*
X62589580Y-60155952D01*
X62589580Y-60155952D02*
X62637200Y-60203571D01*
X62637200Y-60203571D02*
X62684819Y-60298809D01*
X62684819Y-60298809D02*
X62684819Y-60584523D01*
X62684819Y-60584523D02*
X62637200Y-60679761D01*
X62637200Y-60679761D02*
X62589580Y-60727380D01*
D13*
G04 #@! TO.C,SJ1*
X110507000Y-105762000D02*
X110507000Y-104238000D01*
X110761000Y-103984000D02*
X113555000Y-103984000D01*
X113555000Y-106016000D02*
X110761000Y-106016000D01*
X113809000Y-105762000D02*
X113809000Y-104238000D01*
X110507000Y-104238000D02*
G75*
G02*
X110761000Y-103984000I254000J0D01*
G01*
X110761000Y-106016000D02*
G75*
G02*
X110507000Y-105762000I0J254000D01*
G01*
X113555000Y-103984000D02*
G75*
G02*
X113809000Y-104238000I0J-254000D01*
G01*
X113809000Y-105762000D02*
G75*
G02*
X113555000Y-106016000I-254000J0D01*
G01*
D14*
G04 #@! TO.C,J7*
X109590000Y-99097000D02*
X109590000Y-102697000D01*
X109590000Y-102697000D02*
X114670000Y-102697000D01*
X114670000Y-99097000D02*
X109590000Y-99097000D01*
X114670000Y-102697000D02*
X114670000Y-99097000D01*
G04 #@! TO.C,J2*
X68610000Y-79375000D02*
X68610000Y-42175000D01*
X69670000Y-41115000D02*
X80170000Y-41115000D01*
X70910000Y-51222048D02*
X70910000Y-70327952D01*
X76981744Y-48758530D02*
X72281744Y-49587267D01*
X76981744Y-72791470D02*
X72281744Y-71962733D01*
X78930000Y-50393311D02*
X78930000Y-71156689D01*
X80170000Y-80435000D02*
X69670000Y-80435000D01*
X81230000Y-42175000D02*
X81230000Y-79375000D01*
X81691325Y-70470000D02*
X82124338Y-70220000D01*
X82124338Y-70220000D02*
X82124338Y-70720000D01*
X82124338Y-70720000D02*
X81691325Y-70470000D01*
X68610000Y-42175000D02*
G75*
G02*
X69670000Y-41115000I1060001J-1D01*
G01*
X69670000Y-80435000D02*
G75*
G02*
X68610000Y-79375000I0J1060000D01*
G01*
X70910000Y-51222048D02*
G75*
G02*
X72281744Y-49587266I1660001J0D01*
G01*
X72281744Y-71962733D02*
G75*
G02*
X70909998Y-70327952I288256J1634783D01*
G01*
X76981744Y-48758530D02*
G75*
G02*
X78930000Y-50393311I288257J-1634780D01*
G01*
X78930000Y-71156689D02*
G75*
G02*
X76981742Y-72791481I-1660000J-11D01*
G01*
X80170000Y-41115000D02*
G75*
G02*
X81230000Y-42175000I-1J-1060001D01*
G01*
X81230000Y-79375000D02*
G75*
G02*
X80170000Y-80435000I-1060000J0D01*
G01*
G04 #@! TO.C,J1*
X88610000Y-75200000D02*
X88610000Y-46350000D01*
X89670000Y-45290000D02*
X100170000Y-45290000D01*
X90910000Y-55372048D02*
X90910000Y-66177952D01*
X96981744Y-52908530D02*
X92281744Y-53737267D01*
X96981744Y-68641470D02*
X92281744Y-67812733D01*
X98930000Y-54543311D02*
X98930000Y-67006689D01*
X99693494Y-66240000D02*
X100126507Y-65990000D01*
X100126507Y-65990000D02*
X100126507Y-66490000D01*
X100126507Y-66490000D02*
X99693494Y-66240000D01*
X100170000Y-76260000D02*
X89670000Y-76260000D01*
X101230000Y-46350000D02*
X101230000Y-75200000D01*
X88610000Y-46350000D02*
G75*
G02*
X89670000Y-45290000I1060001J-1D01*
G01*
X89670000Y-76260000D02*
G75*
G02*
X88610000Y-75200000I0J1060000D01*
G01*
X90910000Y-55372048D02*
G75*
G02*
X92281744Y-53737266I1660001J0D01*
G01*
X92281744Y-67812733D02*
G75*
G02*
X90909998Y-66177952I288256J1634783D01*
G01*
X96981744Y-52908530D02*
G75*
G02*
X98930000Y-54543311I288257J-1634780D01*
G01*
X98930000Y-67006689D02*
G75*
G02*
X96981742Y-68641481I-1660000J-11D01*
G01*
X100170000Y-45290000D02*
G75*
G02*
X101230000Y-46350000I-1J-1060001D01*
G01*
X101230000Y-75200000D02*
G75*
G02*
X100170000Y-76260000I-1060000J0D01*
G01*
G04 #@! TO.C,J6*
X27715662Y-35595000D02*
X28148675Y-35845000D01*
X27715662Y-36095000D02*
X27715662Y-35595000D01*
X28148675Y-35845000D02*
X27715662Y-36095000D01*
X28610000Y-94475000D02*
X28610000Y-27075000D01*
X29670000Y-26015000D02*
X40170000Y-26015000D01*
X30910000Y-86256689D02*
X30910000Y-35293311D01*
X32858256Y-33658530D02*
X37558256Y-34487267D01*
X32858256Y-87891470D02*
X37558256Y-87062733D01*
X38930000Y-85427952D02*
X38930000Y-36122048D01*
X40170000Y-95535000D02*
X29670000Y-95535000D01*
X41230000Y-27075000D02*
X41230000Y-94475000D01*
X28610000Y-27075000D02*
G75*
G02*
X29670000Y-26015000I1060000J0D01*
G01*
X29670000Y-95535000D02*
G75*
G02*
X28610000Y-94475000I1J1060001D01*
G01*
X30910000Y-35293311D02*
G75*
G02*
X32858258Y-33658519I1660000J11D01*
G01*
X32858256Y-87891470D02*
G75*
G02*
X30910000Y-86256689I-288257J1634780D01*
G01*
X37558256Y-34487267D02*
G75*
G02*
X38929953Y-36122048I-288256J-1634733D01*
G01*
X38930000Y-85427952D02*
G75*
G02*
X37558256Y-87062734I-1660001J0D01*
G01*
X40170000Y-26015000D02*
G75*
G02*
X41230000Y-27075000I0J-1060000D01*
G01*
X41230000Y-94475000D02*
G75*
G02*
X40170000Y-95535000I-1060001J1D01*
G01*
G04 #@! TO.C,J3*
X48610000Y-86325000D02*
X48610000Y-35225000D01*
X49670000Y-34165000D02*
X60170000Y-34165000D01*
X50910000Y-44372048D02*
X50910000Y-77177952D01*
X56981744Y-41908530D02*
X52281744Y-42737267D01*
X56981744Y-79641470D02*
X52281744Y-78812733D01*
X58930000Y-43543311D02*
X58930000Y-78006689D01*
X60170000Y-87385000D02*
X49670000Y-87385000D01*
X61230000Y-35225000D02*
X61230000Y-86325000D01*
X61691325Y-77395000D02*
X62124338Y-77145000D01*
X62124338Y-77145000D02*
X62124338Y-77645000D01*
X62124338Y-77645000D02*
X61691325Y-77395000D01*
X48610000Y-35225000D02*
G75*
G02*
X49670000Y-34165000I1060001J-1D01*
G01*
X49670000Y-87385000D02*
G75*
G02*
X48610000Y-86325000I0J1060000D01*
G01*
X50910000Y-44372048D02*
G75*
G02*
X52281744Y-42737266I1660001J0D01*
G01*
X52281744Y-78812733D02*
G75*
G02*
X50909998Y-77177952I288256J1634783D01*
G01*
X56981744Y-41908530D02*
G75*
G02*
X58930000Y-43543311I288257J-1634780D01*
G01*
X58930000Y-78006689D02*
G75*
G02*
X56981742Y-79641481I-1660000J-11D01*
G01*
X60170000Y-34165000D02*
G75*
G02*
X61230000Y-35225000I-1J-1060001D01*
G01*
X61230000Y-86325000D02*
G75*
G02*
X60170000Y-87385000I-1060000J0D01*
G01*
G04 #@! TD*
D15*
X9590000Y-10280000D02*
G75*
G02*
X13590000Y-6280000I4000000J0D01*
G01*
X9590000Y-111280000D02*
X9590000Y-10280000D01*
X118590000Y-10280000D02*
X118590000Y-111280000D01*
X114590000Y-115280000D02*
X13590000Y-115280000D01*
X114590000Y-6280000D02*
G75*
G02*
X118590000Y-10280000I0J-4000000D01*
G01*
X13590000Y-115280000D02*
G75*
G02*
X9590000Y-111280000I0J4000000D01*
G01*
X13590000Y-6280000D02*
X114590000Y-6280000D01*
X118590000Y-111280000D02*
G75*
G02*
X114590000Y-115280000I-4000000J0D01*
G01*
M02*
