%TF.GenerationSoftware,KiCad,Pcbnew,9.0.0*%
%TF.CreationDate,2025-03-27T10:29:21+01:00*%
%TF.ProjectId,CB_DSUB,43425f44-5355-4422-9e6b-696361645f70,rev?*%
%TF.SameCoordinates,PX2639280PY2349340*%
%TF.FileFunction,Plated,1,2,PTH,Drill*%
%TF.FilePolarity,Positive*%
%FSLAX46Y46*%
G04 Gerber Fmt 4.6, Leading zero omitted, Abs format (unit mm)*
G04 Created by KiCad (PCBNEW 9.0.0) date 2025-03-27 10:29:21*
%MOMM*%
%LPD*%
G01*
G04 APERTURE LIST*
%TA.AperFunction,ViaDrill*%
%ADD10C,0.300000*%
%TD*%
%TA.AperFunction,ComponentDrill*%
%ADD11C,1.000000*%
%TD*%
%TA.AperFunction,ComponentDrill*%
%ADD12C,1.200000*%
%TD*%
%TA.AperFunction,ComponentDrill*%
%ADD13C,3.200000*%
%TD*%
G04 APERTURE END LIST*
D10*
X13340000Y-101740000D03*
X13340000Y-105290000D03*
X13340000Y-109100000D03*
X13350000Y-99760000D03*
X13350000Y-103570000D03*
X13350000Y-107120000D03*
X13350000Y-110930000D03*
X13920000Y-78800000D03*
X13920000Y-97329000D03*
X14330000Y-16920000D03*
X14330000Y-20730000D03*
X14340000Y-18750000D03*
X14340000Y-22560000D03*
X14460000Y-9310000D03*
X14460000Y-13120000D03*
X14470000Y-11140000D03*
X14470000Y-14950000D03*
X15340000Y-101740000D03*
X15340000Y-105290000D03*
X15340000Y-109100000D03*
X15350000Y-99760000D03*
X15350000Y-103570000D03*
X15350000Y-107120000D03*
X15350000Y-110930000D03*
X16330000Y-16920000D03*
X16330000Y-20730000D03*
X16340000Y-18750000D03*
X16340000Y-22560000D03*
X16460000Y-9310000D03*
X16460000Y-13120000D03*
X16470000Y-11140000D03*
X16470000Y-14950000D03*
X17400000Y-101740000D03*
X17400000Y-105290000D03*
X17400000Y-109100000D03*
X17410000Y-99760000D03*
X17410000Y-103570000D03*
X17410000Y-107120000D03*
X17410000Y-110930000D03*
X18390000Y-16920000D03*
X18390000Y-20730000D03*
X18400000Y-18750000D03*
X18400000Y-22560000D03*
X18520000Y-9310000D03*
X18520000Y-13120000D03*
X18530000Y-11140000D03*
X18530000Y-14950000D03*
X19400000Y-101740000D03*
X19400000Y-105290000D03*
X19400000Y-109100000D03*
X19410000Y-99760000D03*
X19410000Y-103570000D03*
X19410000Y-107120000D03*
X19410000Y-110930000D03*
X20390000Y-16920000D03*
X20390000Y-20730000D03*
X20400000Y-18750000D03*
X20400000Y-22560000D03*
X20520000Y-9310000D03*
X20520000Y-13120000D03*
X20530000Y-11140000D03*
X20530000Y-14950000D03*
X21350000Y-101740000D03*
X21350000Y-105290000D03*
X21350000Y-109100000D03*
X21360000Y-99760000D03*
X21360000Y-103570000D03*
X21360000Y-107120000D03*
X21360000Y-110930000D03*
X22340000Y-16920000D03*
X22340000Y-20730000D03*
X22350000Y-18750000D03*
X22350000Y-22560000D03*
X22470000Y-9310000D03*
X22470000Y-13120000D03*
X22480000Y-11140000D03*
X22480000Y-14950000D03*
X23350000Y-101740000D03*
X23350000Y-105290000D03*
X23350000Y-109100000D03*
X23360000Y-99760000D03*
X23360000Y-103570000D03*
X23360000Y-107120000D03*
X23360000Y-110930000D03*
X24340000Y-16920000D03*
X24340000Y-20730000D03*
X24350000Y-18750000D03*
X24350000Y-22560000D03*
X24470000Y-9310000D03*
X24470000Y-13120000D03*
X24480000Y-11140000D03*
X24480000Y-14950000D03*
X25410000Y-101740000D03*
X25410000Y-105290000D03*
X25410000Y-109100000D03*
X25420000Y-99760000D03*
X25420000Y-103570000D03*
X25420000Y-107120000D03*
X25420000Y-110930000D03*
X26400000Y-16920000D03*
X26400000Y-20730000D03*
X26410000Y-18750000D03*
X26410000Y-22560000D03*
X26530000Y-9310000D03*
X26530000Y-13120000D03*
X26540000Y-11140000D03*
X26540000Y-14950000D03*
X27410000Y-101740000D03*
X27410000Y-105290000D03*
X27410000Y-109100000D03*
X27420000Y-99760000D03*
X27420000Y-103570000D03*
X27420000Y-107120000D03*
X27420000Y-110930000D03*
X28400000Y-16920000D03*
X28400000Y-20730000D03*
X28410000Y-18750000D03*
X28410000Y-22560000D03*
X28530000Y-9310000D03*
X28530000Y-13120000D03*
X28540000Y-11140000D03*
X28540000Y-14950000D03*
X29400000Y-101740000D03*
X29400000Y-105290000D03*
X29400000Y-109100000D03*
X29410000Y-99760000D03*
X29410000Y-103570000D03*
X29410000Y-107120000D03*
X29410000Y-110930000D03*
X30390000Y-16920000D03*
X30390000Y-20730000D03*
X30400000Y-18750000D03*
X30400000Y-22560000D03*
X30520000Y-9310000D03*
X30520000Y-13120000D03*
X30530000Y-11140000D03*
X30530000Y-14950000D03*
X31400000Y-101740000D03*
X31400000Y-105290000D03*
X31400000Y-109100000D03*
X31410000Y-99760000D03*
X31410000Y-103570000D03*
X31410000Y-107120000D03*
X31410000Y-110930000D03*
X32390000Y-16920000D03*
X32390000Y-20730000D03*
X32400000Y-18750000D03*
X32400000Y-22560000D03*
X32520000Y-9310000D03*
X32520000Y-13120000D03*
X32530000Y-11140000D03*
X32530000Y-14950000D03*
X33460000Y-101740000D03*
X33460000Y-105290000D03*
X33460000Y-109100000D03*
X33470000Y-99760000D03*
X33470000Y-103570000D03*
X33470000Y-107120000D03*
X33470000Y-110930000D03*
X34450000Y-16920000D03*
X34450000Y-20730000D03*
X34460000Y-18750000D03*
X34460000Y-22560000D03*
X34580000Y-9310000D03*
X34580000Y-13120000D03*
X34590000Y-11140000D03*
X34590000Y-14950000D03*
X35460000Y-101740000D03*
X35460000Y-105290000D03*
X35460000Y-109100000D03*
X35470000Y-99760000D03*
X35470000Y-103570000D03*
X35470000Y-107120000D03*
X35470000Y-110930000D03*
X36450000Y-16920000D03*
X36450000Y-20730000D03*
X36460000Y-18750000D03*
X36460000Y-22560000D03*
X36580000Y-9310000D03*
X36580000Y-13120000D03*
X36590000Y-11140000D03*
X36590000Y-14950000D03*
X37290000Y-101740000D03*
X37290000Y-105290000D03*
X37290000Y-109100000D03*
X37300000Y-99760000D03*
X37300000Y-103570000D03*
X37300000Y-107120000D03*
X37300000Y-110930000D03*
X38280000Y-16920000D03*
X38280000Y-20730000D03*
X38290000Y-18750000D03*
X38290000Y-22560000D03*
X38410000Y-9310000D03*
X38410000Y-13120000D03*
X38420000Y-11140000D03*
X38420000Y-14950000D03*
X39290000Y-101740000D03*
X39290000Y-105290000D03*
X39290000Y-109100000D03*
X39300000Y-99760000D03*
X39300000Y-103570000D03*
X39300000Y-107120000D03*
X39300000Y-110930000D03*
X40280000Y-16920000D03*
X40280000Y-20730000D03*
X40290000Y-18750000D03*
X40290000Y-22560000D03*
X40410000Y-9310000D03*
X40410000Y-13120000D03*
X40420000Y-11140000D03*
X40420000Y-14950000D03*
X41350000Y-101740000D03*
X41350000Y-105290000D03*
X41350000Y-109100000D03*
X41360000Y-99760000D03*
X41360000Y-103570000D03*
X41360000Y-107120000D03*
X41360000Y-110930000D03*
X42260000Y-95000000D03*
X42340000Y-16920000D03*
X42340000Y-20730000D03*
X42350000Y-18750000D03*
X42350000Y-22560000D03*
X42470000Y-9310000D03*
X42470000Y-13120000D03*
X42480000Y-11140000D03*
X42480000Y-14950000D03*
X42820000Y-26580000D03*
X42820000Y-28410000D03*
X42820000Y-30390000D03*
X42820000Y-32220000D03*
X42820000Y-34190000D03*
X42820000Y-36020000D03*
X42820000Y-38000000D03*
X42820000Y-39830000D03*
X42820000Y-47760000D03*
X42820000Y-49590000D03*
X42820000Y-51570000D03*
X42820000Y-53400000D03*
X42820000Y-55370000D03*
X42820000Y-57200000D03*
X42820000Y-59180000D03*
X42820000Y-61010000D03*
X42820000Y-65570000D03*
X42820000Y-67400000D03*
X42820000Y-69380000D03*
X42820000Y-71210000D03*
X42820000Y-73180000D03*
X42820000Y-75010000D03*
X42820000Y-76990000D03*
X42820000Y-78820000D03*
X42860000Y-94370215D03*
X43350000Y-101740000D03*
X43350000Y-105290000D03*
X43350000Y-109100000D03*
X43360000Y-99760000D03*
X43360000Y-103570000D03*
X43360000Y-107120000D03*
X43360000Y-110930000D03*
X43477054Y-93800000D03*
X44114558Y-93200000D03*
X44340000Y-16920000D03*
X44340000Y-20730000D03*
X44350000Y-18750000D03*
X44350000Y-22560000D03*
X44470000Y-9310000D03*
X44470000Y-13120000D03*
X44480000Y-11140000D03*
X44480000Y-14950000D03*
X44720000Y-92510000D03*
X45320000Y-91910000D03*
X45710000Y-41790000D03*
X45710000Y-45600000D03*
X45720000Y-43620000D03*
X45720000Y-47430000D03*
X45840000Y-34180000D03*
X45840000Y-37990000D03*
X45850000Y-36010000D03*
X45850000Y-39820000D03*
X46050000Y-101750000D03*
X46050000Y-105300000D03*
X46050000Y-109110000D03*
X46060000Y-99770000D03*
X46060000Y-103580000D03*
X46060000Y-107130000D03*
X46060000Y-110940000D03*
X46200000Y-16900000D03*
X46200000Y-20710000D03*
X46210000Y-18730000D03*
X46210000Y-22540000D03*
X46330000Y-9290000D03*
X46330000Y-13100000D03*
X46340000Y-11120000D03*
X46340000Y-14930000D03*
X46430000Y-68590000D03*
X46430000Y-72400000D03*
X46440000Y-70420000D03*
X46440000Y-74230000D03*
X46560000Y-60980000D03*
X46560000Y-64790000D03*
X46570000Y-62810000D03*
X46570000Y-66620000D03*
X48110000Y-101750000D03*
X48110000Y-105300000D03*
X48110000Y-109110000D03*
X48120000Y-99770000D03*
X48120000Y-103580000D03*
X48120000Y-107130000D03*
X48120000Y-110940000D03*
X48200000Y-16900000D03*
X48200000Y-20710000D03*
X48210000Y-18730000D03*
X48210000Y-22540000D03*
X48330000Y-9290000D03*
X48330000Y-13100000D03*
X48340000Y-11120000D03*
X48340000Y-14930000D03*
X50110000Y-101750000D03*
X50110000Y-105300000D03*
X50110000Y-109110000D03*
X50120000Y-99770000D03*
X50120000Y-103580000D03*
X50120000Y-107130000D03*
X50120000Y-110940000D03*
X50260000Y-16900000D03*
X50260000Y-20710000D03*
X50270000Y-18730000D03*
X50270000Y-22540000D03*
X50390000Y-9290000D03*
X50390000Y-13100000D03*
X50400000Y-11120000D03*
X50400000Y-14930000D03*
X52260000Y-16900000D03*
X52260000Y-20710000D03*
X52270000Y-18730000D03*
X52270000Y-22540000D03*
X52390000Y-9290000D03*
X52390000Y-13100000D03*
X52400000Y-11120000D03*
X52400000Y-14930000D03*
X62090000Y-35850000D03*
X62890000Y-84780000D03*
X62900000Y-36430000D03*
X62920000Y-86750000D03*
X62930000Y-88580000D03*
X63450000Y-84180000D03*
X63680000Y-37096434D03*
X64188464Y-83580000D03*
X64670000Y-37850000D03*
X64788464Y-82971652D03*
X64920000Y-86750000D03*
X64930000Y-88580000D03*
X65388464Y-82371652D03*
X66130000Y-81750000D03*
X66980000Y-86750000D03*
X66990000Y-88580000D03*
X68980000Y-86750000D03*
X68990000Y-88580000D03*
X70930000Y-86750000D03*
X70940000Y-88580000D03*
X72930000Y-86750000D03*
X72940000Y-88580000D03*
X74450000Y-16990000D03*
X74450000Y-20800000D03*
X74460000Y-18820000D03*
X74460000Y-22630000D03*
X74580000Y-9380000D03*
X74580000Y-13190000D03*
X74590000Y-11210000D03*
X74590000Y-15020000D03*
X74990000Y-86750000D03*
X75000000Y-88580000D03*
X76450000Y-16990000D03*
X76450000Y-20800000D03*
X76460000Y-18820000D03*
X76460000Y-22630000D03*
X76580000Y-9380000D03*
X76580000Y-13190000D03*
X76590000Y-11210000D03*
X76590000Y-15020000D03*
X76990000Y-86750000D03*
X77000000Y-88580000D03*
X78510000Y-16990000D03*
X78510000Y-20800000D03*
X78520000Y-18820000D03*
X78520000Y-22630000D03*
X78640000Y-9380000D03*
X78640000Y-13190000D03*
X78650000Y-11210000D03*
X78650000Y-15020000D03*
X78980000Y-86750000D03*
X78990000Y-88580000D03*
X80510000Y-16990000D03*
X80510000Y-20800000D03*
X80520000Y-18820000D03*
X80520000Y-22630000D03*
X80640000Y-9380000D03*
X80640000Y-13190000D03*
X80650000Y-11210000D03*
X80650000Y-15020000D03*
X80980000Y-86750000D03*
X80990000Y-88580000D03*
X82640000Y-71650000D03*
X82650000Y-73480000D03*
X82760000Y-75310000D03*
X82760000Y-78650000D03*
X82770000Y-77140000D03*
X82770000Y-80480000D03*
X82920000Y-9310000D03*
X82920000Y-13120000D03*
X82920000Y-16920000D03*
X82920000Y-20730000D03*
X82930000Y-11140000D03*
X82930000Y-14950000D03*
X82930000Y-18750000D03*
X82930000Y-22560000D03*
X83040000Y-86750000D03*
X83050000Y-88580000D03*
X84470000Y-71650000D03*
X84480000Y-73480000D03*
X84590000Y-75310000D03*
X84590000Y-78650000D03*
X84600000Y-77140000D03*
X84600000Y-80480000D03*
X84920000Y-9310000D03*
X84920000Y-13120000D03*
X84920000Y-16920000D03*
X84920000Y-20730000D03*
X84930000Y-11140000D03*
X84930000Y-14950000D03*
X84930000Y-18750000D03*
X84930000Y-22560000D03*
X85040000Y-86750000D03*
X85050000Y-88580000D03*
X86470000Y-71650000D03*
X86480000Y-73480000D03*
X86590000Y-75310000D03*
X86590000Y-78650000D03*
X86600000Y-77140000D03*
X86600000Y-80480000D03*
X86870000Y-86750000D03*
X86880000Y-88580000D03*
X86980000Y-9310000D03*
X86980000Y-13120000D03*
X86980000Y-16920000D03*
X86980000Y-20730000D03*
X86990000Y-11140000D03*
X86990000Y-14950000D03*
X86990000Y-18750000D03*
X86990000Y-22560000D03*
X88870000Y-86750000D03*
X88880000Y-88580000D03*
X88980000Y-9310000D03*
X88980000Y-13120000D03*
X88980000Y-16920000D03*
X88980000Y-20730000D03*
X88990000Y-11140000D03*
X88990000Y-14950000D03*
X88990000Y-18750000D03*
X88990000Y-22560000D03*
X90930000Y-9310000D03*
X90930000Y-13120000D03*
X90930000Y-16920000D03*
X90930000Y-20730000D03*
X90930000Y-86750000D03*
X90940000Y-11140000D03*
X90940000Y-14950000D03*
X90940000Y-18750000D03*
X90940000Y-22560000D03*
X90940000Y-88580000D03*
X92930000Y-9310000D03*
X92930000Y-13120000D03*
X92930000Y-16920000D03*
X92930000Y-20730000D03*
X92930000Y-86750000D03*
X92940000Y-11140000D03*
X92940000Y-14950000D03*
X92940000Y-18750000D03*
X92940000Y-22560000D03*
X92940000Y-88580000D03*
X93570875Y-81780000D03*
X94170875Y-82380000D03*
X94800000Y-82980000D03*
X94990000Y-9310000D03*
X94990000Y-13120000D03*
X94990000Y-16920000D03*
X94990000Y-20730000D03*
X95000000Y-11140000D03*
X95000000Y-14950000D03*
X95000000Y-18750000D03*
X95000000Y-22560000D03*
X95427109Y-83580000D03*
X96137853Y-84180000D03*
X96737853Y-84770000D03*
X96990000Y-9310000D03*
X96990000Y-13120000D03*
X96990000Y-16920000D03*
X96990000Y-20730000D03*
X97000000Y-11140000D03*
X97000000Y-14950000D03*
X97000000Y-18750000D03*
X97000000Y-22560000D03*
X97470000Y-91910000D03*
X98070000Y-92510000D03*
X98201824Y-37840000D03*
X98670000Y-93124143D03*
X98840000Y-37096434D03*
X98980000Y-9310000D03*
X98980000Y-13120000D03*
X98980000Y-16920000D03*
X98980000Y-20730000D03*
X98990000Y-11140000D03*
X98990000Y-14950000D03*
X98990000Y-18750000D03*
X98990000Y-22560000D03*
X99270000Y-93800000D03*
X99440000Y-36430000D03*
X99870000Y-94400000D03*
X100040000Y-35730000D03*
X100470000Y-95000000D03*
X100980000Y-9310000D03*
X100980000Y-13120000D03*
X100980000Y-16920000D03*
X100980000Y-20730000D03*
X100990000Y-11140000D03*
X100990000Y-14950000D03*
X100990000Y-18750000D03*
X100990000Y-22560000D03*
X103040000Y-9310000D03*
X103040000Y-13120000D03*
X103040000Y-16920000D03*
X103040000Y-20730000D03*
X103050000Y-11140000D03*
X103050000Y-14950000D03*
X103050000Y-18750000D03*
X103050000Y-22560000D03*
X105040000Y-9310000D03*
X105040000Y-13120000D03*
X105040000Y-16920000D03*
X105040000Y-20730000D03*
X105050000Y-11140000D03*
X105050000Y-14950000D03*
X105050000Y-18750000D03*
X105050000Y-22560000D03*
X106870000Y-9310000D03*
X106870000Y-13120000D03*
X106870000Y-16920000D03*
X106870000Y-20730000D03*
X106880000Y-11140000D03*
X106880000Y-14950000D03*
X106880000Y-18750000D03*
X106880000Y-22560000D03*
X108870000Y-9310000D03*
X108870000Y-13120000D03*
X108870000Y-16920000D03*
X108870000Y-20730000D03*
X108880000Y-11140000D03*
X108880000Y-14950000D03*
X108880000Y-18750000D03*
X108880000Y-22560000D03*
X110860000Y-97380000D03*
X110930000Y-9310000D03*
X110930000Y-13120000D03*
X110930000Y-16920000D03*
X110930000Y-20730000D03*
X110940000Y-11140000D03*
X110940000Y-14950000D03*
X110940000Y-18750000D03*
X110940000Y-22560000D03*
X112930000Y-9310000D03*
X112930000Y-13120000D03*
X112930000Y-16920000D03*
X112930000Y-20730000D03*
X112940000Y-11140000D03*
X112940000Y-14950000D03*
X112940000Y-18750000D03*
X112940000Y-22560000D03*
D11*
%TO.C,J4*%
X19280000Y-37230000D03*
X19280000Y-40000000D03*
X19280000Y-42770000D03*
X19280000Y-45540000D03*
X19280000Y-48310000D03*
X19280000Y-51080000D03*
X19280000Y-53850000D03*
X19280000Y-56620000D03*
X19280000Y-59390000D03*
X19280000Y-62160000D03*
X19280000Y-64930000D03*
X19280000Y-67700000D03*
X19280000Y-70470000D03*
X19280000Y-73240000D03*
X19280000Y-76010000D03*
X19280000Y-78780000D03*
X19280000Y-81550000D03*
X19280000Y-84320000D03*
X22120000Y-35845000D03*
X22120000Y-38615000D03*
X22120000Y-41385000D03*
X22120000Y-44155000D03*
X22120000Y-46925000D03*
X22120000Y-49695000D03*
X22120000Y-52465000D03*
X22120000Y-55235000D03*
X22120000Y-58005000D03*
X22120000Y-60775000D03*
X22120000Y-63545000D03*
X22120000Y-66315000D03*
X22120000Y-69085000D03*
X22120000Y-71855000D03*
X22120000Y-74625000D03*
X22120000Y-77395000D03*
X22120000Y-80165000D03*
X22120000Y-82935000D03*
X22120000Y-85705000D03*
%TO.C,J6*%
X33500000Y-35845000D03*
X33500000Y-38615000D03*
X33500000Y-41385000D03*
X33500000Y-44155000D03*
X33500000Y-46925000D03*
X33500000Y-49695000D03*
X33500000Y-52465000D03*
X33500000Y-55235000D03*
X33500000Y-58005000D03*
X33500000Y-60775000D03*
X33500000Y-63545000D03*
X33500000Y-66315000D03*
X33500000Y-69085000D03*
X33500000Y-71855000D03*
X33500000Y-74625000D03*
X33500000Y-77395000D03*
X33500000Y-80165000D03*
X33500000Y-82935000D03*
X33500000Y-85705000D03*
X36340000Y-37230000D03*
X36340000Y-40000000D03*
X36340000Y-42770000D03*
X36340000Y-45540000D03*
X36340000Y-48310000D03*
X36340000Y-51080000D03*
X36340000Y-53850000D03*
X36340000Y-56620000D03*
X36340000Y-59390000D03*
X36340000Y-62160000D03*
X36340000Y-64930000D03*
X36340000Y-67700000D03*
X36340000Y-70470000D03*
X36340000Y-73240000D03*
X36340000Y-76010000D03*
X36340000Y-78780000D03*
X36340000Y-81550000D03*
X36340000Y-84320000D03*
%TO.C,J3*%
X53500000Y-45540000D03*
X53500000Y-48310000D03*
X53500000Y-51080000D03*
X53500000Y-53850000D03*
X53500000Y-56620000D03*
X53500000Y-59390000D03*
X53500000Y-62160000D03*
X53500000Y-64930000D03*
X53500000Y-67700000D03*
X53500000Y-70470000D03*
X53500000Y-73240000D03*
X53500000Y-76010000D03*
X56340000Y-44155000D03*
X56340000Y-46925000D03*
X56340000Y-49695000D03*
X56340000Y-52465000D03*
X56340000Y-55235000D03*
X56340000Y-58005000D03*
X56340000Y-60775000D03*
X56340000Y-63545000D03*
X56340000Y-66315000D03*
X56340000Y-69085000D03*
X56340000Y-71855000D03*
X56340000Y-74625000D03*
X56340000Y-77395000D03*
%TO.C,J2*%
X73500000Y-52465000D03*
X73500000Y-55235000D03*
X73500000Y-58005000D03*
X73500000Y-60775000D03*
X73500000Y-63545000D03*
X73500000Y-66315000D03*
X73500000Y-69085000D03*
X76340000Y-51080000D03*
X76340000Y-53850000D03*
X76340000Y-56620000D03*
X76340000Y-59390000D03*
X76340000Y-62160000D03*
X76340000Y-64930000D03*
X76340000Y-67700000D03*
X76340000Y-70470000D03*
%TO.C,J1*%
X93500000Y-56620000D03*
X93500000Y-59390000D03*
X93500000Y-62160000D03*
X93500000Y-64930000D03*
X96340000Y-55235000D03*
X96340000Y-58005000D03*
X96340000Y-60775000D03*
X96340000Y-63545000D03*
X96340000Y-66315000D03*
%TO.C,J5*%
X106060000Y-35845000D03*
X106060000Y-38615000D03*
X106060000Y-41385000D03*
X106060000Y-44155000D03*
X106060000Y-46925000D03*
X106060000Y-49695000D03*
X106060000Y-52465000D03*
X106060000Y-55235000D03*
X106060000Y-58005000D03*
X106060000Y-60775000D03*
X106060000Y-63545000D03*
X106060000Y-66315000D03*
X106060000Y-69085000D03*
X106060000Y-71855000D03*
X106060000Y-74625000D03*
X106060000Y-77395000D03*
X106060000Y-80165000D03*
X106060000Y-82935000D03*
X106060000Y-85705000D03*
X108900000Y-37230000D03*
X108900000Y-40000000D03*
X108900000Y-42770000D03*
X108900000Y-45540000D03*
X108900000Y-48310000D03*
X108900000Y-51080000D03*
X108900000Y-53850000D03*
X108900000Y-56620000D03*
X108900000Y-59390000D03*
X108900000Y-62160000D03*
X108900000Y-64930000D03*
X108900000Y-67700000D03*
X108900000Y-70470000D03*
X108900000Y-73240000D03*
X108900000Y-76010000D03*
X108900000Y-78780000D03*
X108900000Y-81550000D03*
X108900000Y-84320000D03*
D12*
%TO.C,J7*%
X110860000Y-100897000D03*
X113400000Y-100897000D03*
D13*
%TO.C,J4*%
X20700000Y-29025000D03*
X20700000Y-92525000D03*
%TO.C,J6*%
X34920000Y-29025000D03*
X34920000Y-92525000D03*
%TO.C,J3*%
X54920000Y-37225000D03*
X54920000Y-84325000D03*
%TO.C,J2*%
X74920000Y-44125000D03*
X74920000Y-77425000D03*
%TO.C,J1*%
X94920000Y-48275000D03*
X94920000Y-73275000D03*
%TO.C,J5*%
X107480000Y-29025000D03*
X107480000Y-92525000D03*
M02*
