G04 #@! TF.GenerationSoftware,KiCad,Pcbnew,9.0.0*
G04 #@! TF.CreationDate,2025-03-27T09:57:21+01:00*
G04 #@! TF.ProjectId,Cabletester_Base_Board_v1,4361626c-6574-4657-9374-65725f426173,v1*
G04 #@! TF.SameCoordinates,PX121eac0PY1312d00*
G04 #@! TF.FileFunction,Soldermask,Bot*
G04 #@! TF.FilePolarity,Negative*
%FSLAX46Y46*%
G04 Gerber Fmt 4.6, Leading zero omitted, Abs format (unit mm)*
G04 Created by KiCad (PCBNEW 9.0.0) date 2025-03-27 09:57:21*
%MOMM*%
%LPD*%
G01*
G04 APERTURE LIST*
%ADD10C,0.000000*%
%ADD11C,4.000000*%
%ADD12R,1.600000X1.600000*%
%ADD13C,1.600000*%
%ADD14R,1.800000X2.000000*%
%ADD15C,1.800000*%
G04 #@! TA.AperFunction,Profile*
%ADD16C,0.050000*%
G04 #@! TD*
G04 APERTURE END LIST*
D10*
G04 #@! TO.C,Logo1*
G36*
X68254865Y-10822852D02*
G01*
X67508740Y-11108602D01*
X68254865Y-11386415D01*
X68254865Y-11783290D01*
X66976927Y-11267352D01*
X66976927Y-10949852D01*
X68254865Y-10433915D01*
X68254865Y-10822852D01*
G37*
G36*
X64406237Y-12308283D02*
G01*
X64425924Y-12309683D01*
X64445159Y-12311645D01*
X64463947Y-12314171D01*
X64482291Y-12317263D01*
X64500196Y-12320921D01*
X64517666Y-12325148D01*
X64534707Y-12329945D01*
X64551321Y-12335312D01*
X64567514Y-12341253D01*
X64583290Y-12347767D01*
X64598653Y-12354857D01*
X64613608Y-12362524D01*
X64628159Y-12370769D01*
X64642310Y-12379594D01*
X64656065Y-12389001D01*
X64669430Y-12398991D01*
X64682408Y-12409564D01*
X64695004Y-12420724D01*
X64707222Y-12432470D01*
X64719066Y-12444806D01*
X64730541Y-12457731D01*
X64741652Y-12471248D01*
X64752402Y-12485358D01*
X64762796Y-12500062D01*
X64772838Y-12515362D01*
X64782533Y-12531260D01*
X64800898Y-12564853D01*
X64817926Y-12600852D01*
X64817926Y-12323040D01*
X65238615Y-12323040D01*
X65238615Y-13823227D01*
X64817926Y-13823227D01*
X64817926Y-13053290D01*
X64817439Y-13030684D01*
X64815985Y-13008996D01*
X64813570Y-12988212D01*
X64810206Y-12968318D01*
X64805899Y-12949303D01*
X64800660Y-12931152D01*
X64794496Y-12913853D01*
X64787417Y-12897392D01*
X64779430Y-12881757D01*
X64770546Y-12866935D01*
X64760772Y-12852912D01*
X64750117Y-12839675D01*
X64738590Y-12827211D01*
X64726200Y-12815508D01*
X64712955Y-12804551D01*
X64698864Y-12794329D01*
X64683936Y-12784827D01*
X64668180Y-12776034D01*
X64651604Y-12767934D01*
X64634217Y-12760517D01*
X64597045Y-12747675D01*
X64556734Y-12737402D01*
X64513353Y-12729594D01*
X64466972Y-12724147D01*
X64417661Y-12720955D01*
X64365490Y-12719915D01*
X64365490Y-12307165D01*
X64406237Y-12308283D01*
G37*
G36*
X67826239Y-12045227D02*
G01*
X67826239Y-12323040D01*
X68000864Y-12323040D01*
X68000864Y-12632602D01*
X67826239Y-12632602D01*
X67826239Y-13386665D01*
X67824466Y-13441452D01*
X67822243Y-13467520D01*
X67819123Y-13492705D01*
X67815103Y-13517005D01*
X67810176Y-13540423D01*
X67804340Y-13562956D01*
X67797590Y-13584606D01*
X67789921Y-13605372D01*
X67781329Y-13625255D01*
X67771810Y-13644253D01*
X67761360Y-13662369D01*
X67749973Y-13679600D01*
X67737646Y-13695948D01*
X67724374Y-13711412D01*
X67710153Y-13725993D01*
X67694979Y-13739690D01*
X67678847Y-13752503D01*
X67661753Y-13764432D01*
X67643692Y-13775478D01*
X67624661Y-13785640D01*
X67604654Y-13794919D01*
X67583668Y-13803314D01*
X67561697Y-13810825D01*
X67538739Y-13817452D01*
X67514787Y-13823196D01*
X67489839Y-13828056D01*
X67463889Y-13832033D01*
X67436934Y-13835126D01*
X67408968Y-13837335D01*
X67349989Y-13839102D01*
X67330834Y-13838920D01*
X67312085Y-13838389D01*
X67293778Y-13837533D01*
X67275947Y-13836374D01*
X67258628Y-13834936D01*
X67241856Y-13833242D01*
X67225665Y-13831316D01*
X67210091Y-13829180D01*
X67195167Y-13826859D01*
X67180930Y-13824374D01*
X67154652Y-13819010D01*
X67131537Y-13813274D01*
X67121253Y-13810325D01*
X67111864Y-13807352D01*
X67111864Y-13481915D01*
X67126793Y-13487496D01*
X67134345Y-13490007D01*
X67142002Y-13492333D01*
X67149798Y-13494472D01*
X67157768Y-13496425D01*
X67165948Y-13498193D01*
X67174372Y-13499774D01*
X67183075Y-13501169D01*
X67192092Y-13502378D01*
X67201458Y-13503402D01*
X67211207Y-13504239D01*
X67221375Y-13504890D01*
X67231997Y-13505355D01*
X67254740Y-13505727D01*
X67264251Y-13505564D01*
X67273438Y-13505076D01*
X67282303Y-13504262D01*
X67290846Y-13503122D01*
X67299070Y-13501657D01*
X67306975Y-13499867D01*
X67314563Y-13497751D01*
X67321837Y-13495309D01*
X67328796Y-13492542D01*
X67335442Y-13489449D01*
X67341778Y-13486031D01*
X67347804Y-13482287D01*
X67353522Y-13478217D01*
X67358933Y-13473822D01*
X67364039Y-13469101D01*
X67368841Y-13464055D01*
X67373341Y-13458683D01*
X67377540Y-13452986D01*
X67381440Y-13446963D01*
X67385042Y-13440615D01*
X67388347Y-13433941D01*
X67391357Y-13426941D01*
X67394074Y-13419616D01*
X67396499Y-13411965D01*
X67398632Y-13403989D01*
X67400477Y-13395687D01*
X67402034Y-13387060D01*
X67403304Y-13378107D01*
X67404992Y-13359225D01*
X67405552Y-13339040D01*
X67405552Y-12632602D01*
X67119802Y-12632602D01*
X67119802Y-12323040D01*
X67405552Y-12323040D01*
X67405552Y-11870602D01*
X67826239Y-12045227D01*
G37*
G36*
X65968865Y-13251727D02*
G01*
X65969211Y-13268587D01*
X65970237Y-13284933D01*
X65971926Y-13300764D01*
X65974260Y-13316080D01*
X65977222Y-13330878D01*
X65980795Y-13345158D01*
X65984960Y-13358917D01*
X65989701Y-13372154D01*
X65995000Y-13384868D01*
X66000840Y-13397058D01*
X66007203Y-13408721D01*
X66014072Y-13419857D01*
X66021429Y-13430463D01*
X66029257Y-13440539D01*
X66037538Y-13450084D01*
X66046256Y-13459095D01*
X66055392Y-13467570D01*
X66064929Y-13475510D01*
X66074850Y-13482912D01*
X66085137Y-13489775D01*
X66095773Y-13496097D01*
X66106740Y-13501877D01*
X66118022Y-13507113D01*
X66129599Y-13511804D01*
X66141456Y-13515949D01*
X66153575Y-13519546D01*
X66165937Y-13522594D01*
X66178527Y-13525090D01*
X66191325Y-13527035D01*
X66204316Y-13528426D01*
X66217481Y-13529261D01*
X66230802Y-13529540D01*
X66256754Y-13528606D01*
X66269102Y-13527434D01*
X66281032Y-13525788D01*
X66292543Y-13523666D01*
X66303635Y-13521064D01*
X66314309Y-13517979D01*
X66324564Y-13514409D01*
X66334401Y-13510351D01*
X66343819Y-13505801D01*
X66352818Y-13500757D01*
X66361399Y-13495216D01*
X66369561Y-13489176D01*
X66377305Y-13482632D01*
X66384630Y-13475582D01*
X66391537Y-13468024D01*
X66398025Y-13459954D01*
X66404094Y-13451370D01*
X66409745Y-13442268D01*
X66414977Y-13432647D01*
X66419791Y-13422501D01*
X66424186Y-13411830D01*
X66428162Y-13400630D01*
X66431720Y-13388897D01*
X66434860Y-13376630D01*
X66437580Y-13363825D01*
X66441766Y-13336590D01*
X66444278Y-13307170D01*
X66445115Y-13275540D01*
X66445115Y-12323040D01*
X66865802Y-12323040D01*
X66865802Y-13331102D01*
X66865225Y-13363310D01*
X66863508Y-13394451D01*
X66860675Y-13424528D01*
X66856749Y-13453545D01*
X66851753Y-13481503D01*
X66845711Y-13508406D01*
X66838645Y-13534256D01*
X66830580Y-13559057D01*
X66821538Y-13582812D01*
X66811542Y-13605524D01*
X66800617Y-13627194D01*
X66788784Y-13647827D01*
X66776068Y-13667425D01*
X66762491Y-13685992D01*
X66748077Y-13703529D01*
X66732849Y-13720040D01*
X66716831Y-13735528D01*
X66700045Y-13749995D01*
X66682515Y-13763446D01*
X66664265Y-13775881D01*
X66645316Y-13787306D01*
X66625693Y-13797721D01*
X66605419Y-13807131D01*
X66584518Y-13815538D01*
X66563011Y-13822945D01*
X66540923Y-13829355D01*
X66518277Y-13834771D01*
X66495097Y-13839195D01*
X66471404Y-13842632D01*
X66447224Y-13845083D01*
X66422578Y-13846551D01*
X66397490Y-13847040D01*
X66376887Y-13846717D01*
X66356747Y-13845757D01*
X66337069Y-13844175D01*
X66317852Y-13841986D01*
X66299094Y-13839204D01*
X66280794Y-13835843D01*
X66262950Y-13831918D01*
X66245562Y-13827444D01*
X66228626Y-13822435D01*
X66212143Y-13816906D01*
X66196110Y-13810871D01*
X66180527Y-13804345D01*
X66165391Y-13797342D01*
X66150701Y-13789877D01*
X66136456Y-13781964D01*
X66122654Y-13773618D01*
X66109294Y-13764853D01*
X66096375Y-13755685D01*
X66083894Y-13746127D01*
X66071851Y-13736194D01*
X66060244Y-13725900D01*
X66049072Y-13715261D01*
X66038332Y-13704290D01*
X66028024Y-13693003D01*
X66018147Y-13681413D01*
X66008698Y-13669535D01*
X65991081Y-13644974D01*
X65975161Y-13619437D01*
X65960928Y-13593040D01*
X65960928Y-13815290D01*
X65548177Y-13815290D01*
X65548177Y-12323040D01*
X65968865Y-12323040D01*
X65968865Y-13251727D01*
G37*
G36*
X68649275Y-12291613D02*
G01*
X68670157Y-12292573D01*
X68690574Y-12294154D01*
X68710527Y-12296344D01*
X68730014Y-12299126D01*
X68749036Y-12302487D01*
X68767593Y-12306411D01*
X68785685Y-12310885D01*
X68803311Y-12315894D01*
X68820473Y-12321424D01*
X68837170Y-12327459D01*
X68853401Y-12333985D01*
X68869168Y-12340988D01*
X68884469Y-12348453D01*
X68899306Y-12356366D01*
X68913677Y-12364712D01*
X68927583Y-12373476D01*
X68941024Y-12382645D01*
X68954000Y-12392203D01*
X68966511Y-12402136D01*
X68978557Y-12412429D01*
X68990137Y-12423069D01*
X69001253Y-12434039D01*
X69011903Y-12445327D01*
X69022089Y-12456917D01*
X69031809Y-12468794D01*
X69041065Y-12480945D01*
X69049855Y-12493355D01*
X69058180Y-12506009D01*
X69066040Y-12518892D01*
X69080365Y-12545290D01*
X69080365Y-12323040D01*
X69501053Y-12323040D01*
X69501053Y-13815290D01*
X69080366Y-13815290D01*
X69080366Y-12902477D01*
X69080020Y-12884920D01*
X69078994Y-12867964D01*
X69077305Y-12851607D01*
X69074971Y-12835846D01*
X69072009Y-12820677D01*
X69068436Y-12806099D01*
X69064271Y-12792108D01*
X69059530Y-12778702D01*
X69054231Y-12765877D01*
X69048391Y-12753630D01*
X69042028Y-12741958D01*
X69035159Y-12730860D01*
X69027802Y-12720331D01*
X69019974Y-12710369D01*
X69011693Y-12700971D01*
X69002975Y-12692134D01*
X68993839Y-12683854D01*
X68984302Y-12676131D01*
X68974381Y-12668959D01*
X68964094Y-12662337D01*
X68953458Y-12656261D01*
X68942490Y-12650729D01*
X68931209Y-12645738D01*
X68919631Y-12641284D01*
X68907774Y-12637365D01*
X68895656Y-12633978D01*
X68883293Y-12631120D01*
X68870704Y-12628789D01*
X68857905Y-12626980D01*
X68844915Y-12625692D01*
X68818428Y-12624665D01*
X68791079Y-12625599D01*
X68778098Y-12626771D01*
X68765578Y-12628416D01*
X68753518Y-12630539D01*
X68741915Y-12633141D01*
X68730769Y-12636226D01*
X68720077Y-12639796D01*
X68709839Y-12643854D01*
X68700053Y-12648404D01*
X68690718Y-12653447D01*
X68681831Y-12658988D01*
X68673393Y-12665029D01*
X68665400Y-12671573D01*
X68657852Y-12678622D01*
X68650748Y-12686180D01*
X68644085Y-12694250D01*
X68637863Y-12702834D01*
X68632080Y-12711936D01*
X68626734Y-12721558D01*
X68621824Y-12731703D01*
X68617349Y-12742375D01*
X68613307Y-12753575D01*
X68609696Y-12765307D01*
X68606516Y-12777575D01*
X68603764Y-12790379D01*
X68599542Y-12817614D01*
X68597017Y-12847035D01*
X68596178Y-12878665D01*
X68596178Y-13815290D01*
X68175490Y-13815290D01*
X68175490Y-12815165D01*
X68176022Y-12782236D01*
X68177606Y-12750419D01*
X68180225Y-12719709D01*
X68183862Y-12690103D01*
X68188498Y-12661595D01*
X68194117Y-12634182D01*
X68200701Y-12607858D01*
X68208232Y-12582621D01*
X68216694Y-12558465D01*
X68226068Y-12535385D01*
X68236338Y-12513379D01*
X68247485Y-12492440D01*
X68259493Y-12472566D01*
X68272344Y-12453751D01*
X68286021Y-12435991D01*
X68300505Y-12419282D01*
X68315781Y-12403619D01*
X68331829Y-12388999D01*
X68348633Y-12375416D01*
X68366176Y-12362867D01*
X68384439Y-12351346D01*
X68403406Y-12340851D01*
X68423059Y-12331375D01*
X68443380Y-12322916D01*
X68464353Y-12315468D01*
X68485959Y-12309027D01*
X68508181Y-12303589D01*
X68531003Y-12299150D01*
X68554405Y-12295704D01*
X68578372Y-12293249D01*
X68602885Y-12291779D01*
X68627927Y-12291290D01*
X68649275Y-12291613D01*
G37*
G36*
X64230504Y-12926491D02*
G01*
X64234915Y-12970084D01*
X64237590Y-13014999D01*
X64238490Y-13061227D01*
X64238490Y-13092977D01*
X64237635Y-13139137D01*
X64235087Y-13183854D01*
X64230877Y-13227125D01*
X64225034Y-13268951D01*
X64217585Y-13309329D01*
X64208562Y-13348258D01*
X64197992Y-13385737D01*
X64185904Y-13421763D01*
X64172328Y-13456337D01*
X64157293Y-13489455D01*
X64140828Y-13521117D01*
X64122962Y-13551321D01*
X64103724Y-13580067D01*
X64083143Y-13607351D01*
X64061248Y-13633173D01*
X64038068Y-13657532D01*
X64013632Y-13680426D01*
X63987970Y-13701853D01*
X63961110Y-13721812D01*
X63933082Y-13740302D01*
X63903914Y-13757321D01*
X63873636Y-13772868D01*
X63842276Y-13786941D01*
X63809864Y-13799539D01*
X63776429Y-13810660D01*
X63742000Y-13820303D01*
X63706606Y-13828467D01*
X63670276Y-13835149D01*
X63633039Y-13840349D01*
X63594924Y-13844065D01*
X63555960Y-13846296D01*
X63516177Y-13847040D01*
X63480179Y-13846417D01*
X63445114Y-13844565D01*
X63410981Y-13841513D01*
X63377782Y-13837289D01*
X63345520Y-13831918D01*
X63314195Y-13825431D01*
X63283809Y-13817853D01*
X63254364Y-13809213D01*
X63225860Y-13799538D01*
X63198300Y-13788855D01*
X63171684Y-13777194D01*
X63146014Y-13764580D01*
X63121292Y-13751042D01*
X63097519Y-13736607D01*
X63074697Y-13721303D01*
X63052826Y-13705157D01*
X63031909Y-13688197D01*
X63011947Y-13670452D01*
X62992941Y-13651947D01*
X62974893Y-13632712D01*
X62957804Y-13612773D01*
X62941676Y-13592158D01*
X62926510Y-13570895D01*
X62912308Y-13549011D01*
X62899070Y-13526535D01*
X62886799Y-13503493D01*
X62875497Y-13479913D01*
X62865163Y-13455823D01*
X62855801Y-13431251D01*
X62847410Y-13406223D01*
X62839994Y-13380769D01*
X62833553Y-13354914D01*
X63222491Y-13354914D01*
X63229099Y-13374059D01*
X63237032Y-13392726D01*
X63246314Y-13410812D01*
X63256969Y-13428212D01*
X63269018Y-13444822D01*
X63282486Y-13460536D01*
X63297396Y-13475250D01*
X63313771Y-13488860D01*
X63331635Y-13501260D01*
X63351009Y-13512347D01*
X63361271Y-13517365D01*
X63371919Y-13522015D01*
X63382957Y-13526284D01*
X63394387Y-13530160D01*
X63406212Y-13533628D01*
X63418436Y-13536677D01*
X63431060Y-13539292D01*
X63444089Y-13541461D01*
X63457525Y-13543171D01*
X63471370Y-13544409D01*
X63485629Y-13545161D01*
X63500303Y-13545415D01*
X63532382Y-13544190D01*
X63563089Y-13540454D01*
X63592355Y-13534113D01*
X63606425Y-13529937D01*
X63620109Y-13525075D01*
X63633397Y-13519515D01*
X63646282Y-13513246D01*
X63658753Y-13506256D01*
X63670804Y-13498534D01*
X63682424Y-13490067D01*
X63693605Y-13480845D01*
X63704338Y-13470855D01*
X63714615Y-13460086D01*
X63724427Y-13448527D01*
X63733765Y-13436165D01*
X63742620Y-13422990D01*
X63750985Y-13408989D01*
X63758849Y-13394151D01*
X63766205Y-13378463D01*
X63773043Y-13361916D01*
X63779355Y-13344497D01*
X63785132Y-13326193D01*
X63790366Y-13306995D01*
X63799168Y-13265866D01*
X63805690Y-13221016D01*
X63809864Y-13172352D01*
X62841490Y-13172352D01*
X62841490Y-12989790D01*
X62842390Y-12943766D01*
X62845058Y-12899448D01*
X62845564Y-12894540D01*
X63254240Y-12894540D01*
X63817803Y-12894540D01*
X63813852Y-12872701D01*
X63809449Y-12851820D01*
X63804607Y-12831877D01*
X63799339Y-12812855D01*
X63793658Y-12794734D01*
X63787578Y-12777495D01*
X63781111Y-12761119D01*
X63774271Y-12745588D01*
X63767070Y-12730882D01*
X63759521Y-12716983D01*
X63751639Y-12703871D01*
X63743435Y-12691529D01*
X63734923Y-12679936D01*
X63726116Y-12669075D01*
X63717028Y-12658926D01*
X63707670Y-12649470D01*
X63698056Y-12640688D01*
X63688200Y-12632562D01*
X63678114Y-12625072D01*
X63667812Y-12618200D01*
X63657306Y-12611927D01*
X63646610Y-12606234D01*
X63635736Y-12601102D01*
X63624698Y-12596512D01*
X63613509Y-12592445D01*
X63602182Y-12588882D01*
X63579166Y-12583195D01*
X63555754Y-12579298D01*
X63532052Y-12577040D01*
X63501550Y-12578164D01*
X63472583Y-12581567D01*
X63458689Y-12584137D01*
X63445197Y-12587295D01*
X63432111Y-12591046D01*
X63419439Y-12595395D01*
X63407185Y-12600350D01*
X63395355Y-12605914D01*
X63383956Y-12612095D01*
X63372992Y-12618898D01*
X63362470Y-12626329D01*
X63352396Y-12634393D01*
X63342776Y-12643097D01*
X63333615Y-12652446D01*
X63324919Y-12662447D01*
X63316693Y-12673104D01*
X63308945Y-12684424D01*
X63301679Y-12696412D01*
X63294901Y-12709075D01*
X63288618Y-12722419D01*
X63282834Y-12736448D01*
X63277556Y-12751169D01*
X63272790Y-12766587D01*
X63268541Y-12782709D01*
X63264816Y-12799541D01*
X63261619Y-12817087D01*
X63256837Y-12854348D01*
X63254240Y-12894540D01*
X62845564Y-12894540D01*
X62849450Y-12856819D01*
X62855521Y-12815862D01*
X62863225Y-12776563D01*
X62872518Y-12738904D01*
X62883354Y-12702870D01*
X62895689Y-12668445D01*
X62909477Y-12635613D01*
X62924673Y-12604358D01*
X62941233Y-12574664D01*
X62959111Y-12546514D01*
X62978262Y-12519894D01*
X62998642Y-12494787D01*
X63020204Y-12471177D01*
X63042905Y-12449048D01*
X63066698Y-12428383D01*
X63091539Y-12409168D01*
X63117383Y-12391386D01*
X63144185Y-12375021D01*
X63171900Y-12360057D01*
X63200482Y-12346478D01*
X63229887Y-12334269D01*
X63260070Y-12323412D01*
X63290985Y-12313892D01*
X63322587Y-12305694D01*
X63354832Y-12298801D01*
X63387674Y-12293197D01*
X63454971Y-12285792D01*
X63524116Y-12283352D01*
X63561781Y-12284165D01*
X63598850Y-12286594D01*
X63635281Y-12290632D01*
X63671037Y-12296266D01*
X63706078Y-12303488D01*
X63740364Y-12312287D01*
X63773857Y-12322652D01*
X63806517Y-12334574D01*
X63838305Y-12348042D01*
X63869182Y-12363047D01*
X63899108Y-12379578D01*
X63928045Y-12397624D01*
X63955952Y-12417177D01*
X63982791Y-12438225D01*
X64008523Y-12460758D01*
X64033108Y-12484766D01*
X64056507Y-12510240D01*
X64078681Y-12537168D01*
X64099590Y-12565541D01*
X64119195Y-12595349D01*
X64137458Y-12626581D01*
X64154339Y-12659227D01*
X64169798Y-12693277D01*
X64183796Y-12728720D01*
X64196294Y-12765548D01*
X64207254Y-12803749D01*
X64216635Y-12843313D01*
X64224398Y-12884230D01*
X64225888Y-12894540D01*
X64230504Y-12926491D01*
G37*
G36*
X71144067Y-12926491D02*
G01*
X71148477Y-12970084D01*
X71151152Y-13014999D01*
X71152052Y-13061227D01*
X71152052Y-13092977D01*
X71151197Y-13139137D01*
X71148649Y-13183854D01*
X71144439Y-13227125D01*
X71138596Y-13268951D01*
X71131148Y-13309329D01*
X71122124Y-13348258D01*
X71111554Y-13385737D01*
X71099466Y-13421763D01*
X71085891Y-13456337D01*
X71070856Y-13489455D01*
X71054391Y-13521117D01*
X71036525Y-13551321D01*
X71017286Y-13580067D01*
X70996705Y-13607351D01*
X70974810Y-13633173D01*
X70951631Y-13657532D01*
X70927195Y-13680426D01*
X70901533Y-13701853D01*
X70874673Y-13721812D01*
X70846645Y-13740302D01*
X70817477Y-13757321D01*
X70787199Y-13772868D01*
X70755839Y-13786941D01*
X70723427Y-13799539D01*
X70689992Y-13810660D01*
X70655563Y-13820303D01*
X70620169Y-13828467D01*
X70583839Y-13835149D01*
X70546602Y-13840349D01*
X70508487Y-13844065D01*
X70469523Y-13846296D01*
X70429740Y-13847040D01*
X70393720Y-13846417D01*
X70358591Y-13844565D01*
X70324360Y-13841513D01*
X70291035Y-13837289D01*
X70258623Y-13831918D01*
X70227130Y-13825431D01*
X70196565Y-13817853D01*
X70166934Y-13809213D01*
X70138245Y-13799538D01*
X70110506Y-13788855D01*
X70083722Y-13777194D01*
X70057902Y-13764580D01*
X70033053Y-13751042D01*
X70009182Y-13736607D01*
X69986297Y-13721303D01*
X69964404Y-13705157D01*
X69943511Y-13688197D01*
X69923625Y-13670452D01*
X69904754Y-13651947D01*
X69886905Y-13632712D01*
X69870084Y-13612773D01*
X69854300Y-13592158D01*
X69839559Y-13570895D01*
X69825870Y-13549011D01*
X69813238Y-13526535D01*
X69801671Y-13503493D01*
X69791177Y-13479913D01*
X69781763Y-13455823D01*
X69773437Y-13431251D01*
X69766204Y-13406223D01*
X69760073Y-13380769D01*
X69755052Y-13354914D01*
X70143989Y-13354914D01*
X70150598Y-13374059D01*
X70158531Y-13392726D01*
X70167814Y-13410812D01*
X70178468Y-13428212D01*
X70190518Y-13444822D01*
X70203986Y-13460536D01*
X70218896Y-13475250D01*
X70235271Y-13488860D01*
X70253134Y-13501260D01*
X70272509Y-13512347D01*
X70282770Y-13517365D01*
X70293419Y-13522015D01*
X70304456Y-13526284D01*
X70315886Y-13530160D01*
X70327711Y-13533628D01*
X70339935Y-13536677D01*
X70352560Y-13539292D01*
X70365589Y-13541461D01*
X70379024Y-13543171D01*
X70392870Y-13544409D01*
X70407128Y-13545161D01*
X70421802Y-13545415D01*
X70453882Y-13544190D01*
X70484589Y-13540454D01*
X70513855Y-13534113D01*
X70527925Y-13529937D01*
X70541609Y-13525075D01*
X70554897Y-13519515D01*
X70567782Y-13513246D01*
X70580253Y-13506256D01*
X70592304Y-13498534D01*
X70603924Y-13490067D01*
X70615105Y-13480845D01*
X70625838Y-13470855D01*
X70636115Y-13460086D01*
X70645927Y-13448527D01*
X70655265Y-13436165D01*
X70664120Y-13422990D01*
X70672485Y-13408989D01*
X70680349Y-13394151D01*
X70687705Y-13378463D01*
X70694543Y-13361916D01*
X70700855Y-13344497D01*
X70706632Y-13326193D01*
X70711866Y-13306995D01*
X70720668Y-13265866D01*
X70727191Y-13221016D01*
X70731365Y-13172352D01*
X69755053Y-13172352D01*
X69755053Y-12989790D01*
X69755952Y-12943766D01*
X69758620Y-12899448D01*
X69759126Y-12894540D01*
X70167802Y-12894540D01*
X70723427Y-12894540D01*
X70720197Y-12872701D01*
X70716470Y-12851820D01*
X70712261Y-12831877D01*
X70707583Y-12812855D01*
X70702452Y-12794734D01*
X70696882Y-12777495D01*
X70690888Y-12761119D01*
X70684484Y-12745588D01*
X70677684Y-12730882D01*
X70670504Y-12716983D01*
X70662958Y-12703871D01*
X70655059Y-12691529D01*
X70646824Y-12679936D01*
X70638266Y-12669075D01*
X70629400Y-12658926D01*
X70620240Y-12649470D01*
X70610801Y-12640688D01*
X70601097Y-12632562D01*
X70591144Y-12625072D01*
X70580955Y-12618200D01*
X70570546Y-12611927D01*
X70559929Y-12606234D01*
X70549121Y-12601102D01*
X70538136Y-12596512D01*
X70526988Y-12592445D01*
X70515692Y-12588882D01*
X70492712Y-12583195D01*
X70469315Y-12579298D01*
X70445614Y-12577040D01*
X70415113Y-12578164D01*
X70386145Y-12581567D01*
X70372252Y-12584137D01*
X70358759Y-12587295D01*
X70345674Y-12591046D01*
X70333001Y-12595395D01*
X70320747Y-12600350D01*
X70308918Y-12605914D01*
X70297518Y-12612095D01*
X70286555Y-12618898D01*
X70276033Y-12626329D01*
X70265959Y-12634393D01*
X70256339Y-12643097D01*
X70247177Y-12652446D01*
X70238481Y-12662447D01*
X70230256Y-12673104D01*
X70222507Y-12684424D01*
X70215241Y-12696412D01*
X70208464Y-12709075D01*
X70202180Y-12722419D01*
X70196397Y-12736448D01*
X70191119Y-12751169D01*
X70186353Y-12766587D01*
X70182104Y-12782709D01*
X70178378Y-12799541D01*
X70175182Y-12817087D01*
X70170399Y-12854348D01*
X70167802Y-12894540D01*
X69759126Y-12894540D01*
X69763012Y-12856819D01*
X69769083Y-12815862D01*
X69776787Y-12776563D01*
X69786080Y-12738904D01*
X69796916Y-12702870D01*
X69809251Y-12668445D01*
X69823039Y-12635613D01*
X69838236Y-12604358D01*
X69854795Y-12574664D01*
X69872673Y-12546514D01*
X69891825Y-12519894D01*
X69912204Y-12494787D01*
X69933766Y-12471177D01*
X69956467Y-12449048D01*
X69980260Y-12428383D01*
X70005101Y-12409168D01*
X70030945Y-12391386D01*
X70057747Y-12375021D01*
X70085462Y-12360057D01*
X70114044Y-12346478D01*
X70143449Y-12334269D01*
X70173632Y-12323412D01*
X70204547Y-12313892D01*
X70236149Y-12305694D01*
X70268394Y-12298801D01*
X70301236Y-12293197D01*
X70368532Y-12285792D01*
X70437677Y-12283352D01*
X70475343Y-12284165D01*
X70512411Y-12286594D01*
X70548843Y-12290632D01*
X70584599Y-12296266D01*
X70619639Y-12303488D01*
X70653926Y-12312287D01*
X70687419Y-12322652D01*
X70720079Y-12334574D01*
X70751867Y-12348042D01*
X70782744Y-12363047D01*
X70812670Y-12379578D01*
X70841606Y-12397624D01*
X70869514Y-12417177D01*
X70896353Y-12438225D01*
X70922085Y-12460758D01*
X70946670Y-12484766D01*
X70970069Y-12510240D01*
X70992242Y-12537168D01*
X71013152Y-12565541D01*
X71032757Y-12595349D01*
X71051020Y-12626581D01*
X71067900Y-12659227D01*
X71083360Y-12693277D01*
X71097358Y-12728720D01*
X71109856Y-12765548D01*
X71120816Y-12803749D01*
X71130197Y-12843313D01*
X71137960Y-12884230D01*
X71139450Y-12894540D01*
X71144067Y-12926491D01*
G37*
G36*
X72030395Y-12284142D02*
G01*
X72066853Y-12286507D01*
X72102759Y-12290442D01*
X72138070Y-12295941D01*
X72172740Y-12302998D01*
X72206728Y-12311607D01*
X72239989Y-12321762D01*
X72272480Y-12333458D01*
X72304157Y-12346689D01*
X72334976Y-12361449D01*
X72364894Y-12377732D01*
X72393868Y-12395532D01*
X72421853Y-12414844D01*
X72448806Y-12435661D01*
X72474684Y-12457979D01*
X72499443Y-12481790D01*
X72523039Y-12507090D01*
X72545428Y-12533872D01*
X72566568Y-12562131D01*
X72586414Y-12591861D01*
X72604923Y-12623056D01*
X72622052Y-12655710D01*
X72637756Y-12689817D01*
X72651992Y-12725372D01*
X72664716Y-12762369D01*
X72675886Y-12800802D01*
X72685456Y-12840664D01*
X72693384Y-12881952D01*
X72699627Y-12924657D01*
X72704140Y-12968776D01*
X72706879Y-13014301D01*
X72707802Y-13061228D01*
X72707802Y-13085040D01*
X72706924Y-13131921D01*
X72704314Y-13177313D01*
X72700006Y-13221218D01*
X72694036Y-13263634D01*
X72686437Y-13304561D01*
X72677246Y-13344001D01*
X72666497Y-13381952D01*
X72654224Y-13418415D01*
X72640463Y-13453389D01*
X72625249Y-13486876D01*
X72608616Y-13518874D01*
X72590600Y-13549384D01*
X72571235Y-13578405D01*
X72550556Y-13605938D01*
X72528598Y-13631983D01*
X72505396Y-13656540D01*
X72480985Y-13679608D01*
X72455399Y-13701188D01*
X72428674Y-13721280D01*
X72400844Y-13739884D01*
X72371945Y-13756999D01*
X72342011Y-13772626D01*
X72311076Y-13786764D01*
X72279177Y-13799415D01*
X72246348Y-13810577D01*
X72212623Y-13820251D01*
X72178038Y-13828436D01*
X72142627Y-13835134D01*
X72106426Y-13840343D01*
X72069469Y-13844063D01*
X72031791Y-13846296D01*
X71993427Y-13847040D01*
X71955989Y-13846346D01*
X71919579Y-13844280D01*
X71884204Y-13840866D01*
X71849870Y-13836126D01*
X71816583Y-13830084D01*
X71784347Y-13822762D01*
X71753170Y-13814185D01*
X71723056Y-13804376D01*
X71694012Y-13793357D01*
X71666044Y-13781152D01*
X71639157Y-13767785D01*
X71613358Y-13753278D01*
X71588651Y-13737655D01*
X71565043Y-13720939D01*
X71542539Y-13703153D01*
X71521146Y-13684321D01*
X71500869Y-13664466D01*
X71481714Y-13643610D01*
X71463687Y-13621778D01*
X71446794Y-13598993D01*
X71431040Y-13575277D01*
X71416431Y-13550655D01*
X71402974Y-13525149D01*
X71390673Y-13498782D01*
X71379535Y-13471578D01*
X71369566Y-13443561D01*
X71360771Y-13414752D01*
X71353156Y-13385176D01*
X71346727Y-13354857D01*
X71341490Y-13323816D01*
X71337451Y-13292077D01*
X71334614Y-13259665D01*
X71715614Y-13259665D01*
X71718078Y-13275104D01*
X71721000Y-13290165D01*
X71724372Y-13304839D01*
X71728187Y-13319119D01*
X71732439Y-13332997D01*
X71737119Y-13346468D01*
X71742221Y-13359522D01*
X71747737Y-13372154D01*
X71753659Y-13384356D01*
X71759982Y-13396120D01*
X71766697Y-13407439D01*
X71773797Y-13418306D01*
X71781275Y-13428714D01*
X71789124Y-13438656D01*
X71797336Y-13448124D01*
X71805904Y-13457110D01*
X71814820Y-13465608D01*
X71824079Y-13473611D01*
X71833672Y-13481111D01*
X71843591Y-13488101D01*
X71853831Y-13494573D01*
X71864383Y-13500520D01*
X71875240Y-13505936D01*
X71886395Y-13510812D01*
X71897841Y-13515142D01*
X71909570Y-13518918D01*
X71921575Y-13522134D01*
X71933849Y-13524780D01*
X71946385Y-13526852D01*
X71959175Y-13528340D01*
X71972212Y-13529239D01*
X71985489Y-13529540D01*
X72020270Y-13527951D01*
X72053144Y-13523153D01*
X72068852Y-13519536D01*
X72084065Y-13515099D01*
X72098778Y-13509837D01*
X72112985Y-13503743D01*
X72126681Y-13496812D01*
X72139860Y-13489038D01*
X72152515Y-13480416D01*
X72164641Y-13470939D01*
X72176233Y-13460601D01*
X72187283Y-13449397D01*
X72197787Y-13437322D01*
X72207739Y-13424368D01*
X72217133Y-13410531D01*
X72225963Y-13395804D01*
X72234223Y-13380182D01*
X72241908Y-13363658D01*
X72249011Y-13346228D01*
X72255527Y-13327885D01*
X72266775Y-13288438D01*
X72275604Y-13245270D01*
X72281968Y-13198335D01*
X72285820Y-13147587D01*
X72287114Y-13092977D01*
X72287114Y-13045353D01*
X72286745Y-13018261D01*
X72285646Y-12992052D01*
X72283831Y-12966723D01*
X72281316Y-12942274D01*
X72278116Y-12918702D01*
X72274243Y-12896007D01*
X72269714Y-12874187D01*
X72264542Y-12853240D01*
X72258743Y-12833166D01*
X72252330Y-12813962D01*
X72245318Y-12795627D01*
X72237722Y-12778160D01*
X72229556Y-12761559D01*
X72220836Y-12745822D01*
X72211574Y-12730950D01*
X72201786Y-12716939D01*
X72191487Y-12703788D01*
X72180691Y-12691496D01*
X72169412Y-12680062D01*
X72157665Y-12669484D01*
X72145465Y-12659761D01*
X72132825Y-12650890D01*
X72119762Y-12642872D01*
X72106288Y-12635703D01*
X72092419Y-12629384D01*
X72078170Y-12623911D01*
X72063554Y-12619285D01*
X72048586Y-12615503D01*
X72033282Y-12612564D01*
X72017654Y-12610466D01*
X72001719Y-12609209D01*
X71985489Y-12608790D01*
X71972281Y-12609068D01*
X71959443Y-12609895D01*
X71946974Y-12611262D01*
X71934872Y-12613162D01*
X71923137Y-12615585D01*
X71911767Y-12618522D01*
X71900760Y-12621965D01*
X71890115Y-12625905D01*
X71879831Y-12630334D01*
X71869905Y-12635242D01*
X71860337Y-12640621D01*
X71851126Y-12646462D01*
X71842268Y-12652757D01*
X71833764Y-12659496D01*
X71825612Y-12666672D01*
X71817810Y-12674275D01*
X71810357Y-12682296D01*
X71803251Y-12690727D01*
X71796491Y-12699559D01*
X71790075Y-12708784D01*
X71784003Y-12718392D01*
X71778272Y-12728376D01*
X71767828Y-12749433D01*
X71758734Y-12771885D01*
X71750977Y-12795662D01*
X71744545Y-12820696D01*
X71739427Y-12846915D01*
X71342552Y-12846915D01*
X71346244Y-12811079D01*
X71351344Y-12776491D01*
X71357819Y-12743145D01*
X71365636Y-12711032D01*
X71374761Y-12680146D01*
X71385160Y-12650480D01*
X71396801Y-12622025D01*
X71409649Y-12594776D01*
X71423672Y-12568724D01*
X71438835Y-12543862D01*
X71455106Y-12520183D01*
X71472451Y-12497681D01*
X71490837Y-12476346D01*
X71510230Y-12456174D01*
X71530597Y-12437155D01*
X71551904Y-12419282D01*
X71574118Y-12402550D01*
X71597205Y-12386949D01*
X71621133Y-12372473D01*
X71645867Y-12359115D01*
X71671374Y-12346868D01*
X71697622Y-12335723D01*
X71724575Y-12325675D01*
X71752202Y-12316715D01*
X71809340Y-12302032D01*
X71868768Y-12291616D01*
X71930220Y-12285409D01*
X71993427Y-12283353D01*
X72030395Y-12284142D01*
G37*
G36*
X73586144Y-12284142D02*
G01*
X73622603Y-12286507D01*
X73658509Y-12290442D01*
X73693819Y-12295941D01*
X73728490Y-12302998D01*
X73762478Y-12311607D01*
X73795739Y-12321762D01*
X73828230Y-12333458D01*
X73859907Y-12346689D01*
X73890726Y-12361449D01*
X73920644Y-12377732D01*
X73949618Y-12395532D01*
X73977603Y-12414844D01*
X74004556Y-12435661D01*
X74030434Y-12457979D01*
X74055193Y-12481790D01*
X74078789Y-12507090D01*
X74101178Y-12533872D01*
X74122318Y-12562131D01*
X74142164Y-12591861D01*
X74160673Y-12623056D01*
X74177802Y-12655710D01*
X74193505Y-12689817D01*
X74207742Y-12725372D01*
X74220466Y-12762369D01*
X74231635Y-12800802D01*
X74241206Y-12840664D01*
X74249134Y-12881952D01*
X74255377Y-12924657D01*
X74259889Y-12968776D01*
X74262629Y-13014301D01*
X74263552Y-13061228D01*
X74263552Y-13085040D01*
X74262674Y-13131921D01*
X74260064Y-13177313D01*
X74255756Y-13221218D01*
X74249785Y-13263634D01*
X74242187Y-13304561D01*
X74232996Y-13344001D01*
X74222246Y-13381952D01*
X74209974Y-13418415D01*
X74196213Y-13453389D01*
X74180999Y-13486876D01*
X74164366Y-13518874D01*
X74146350Y-13549384D01*
X74126985Y-13578405D01*
X74106306Y-13605938D01*
X74084348Y-13631983D01*
X74061146Y-13656540D01*
X74036734Y-13679608D01*
X74011149Y-13701188D01*
X73984424Y-13721280D01*
X73956594Y-13739884D01*
X73927695Y-13756999D01*
X73897760Y-13772626D01*
X73866826Y-13786764D01*
X73834927Y-13799415D01*
X73802098Y-13810577D01*
X73768373Y-13820251D01*
X73733788Y-13828436D01*
X73698377Y-13835134D01*
X73662176Y-13840343D01*
X73625219Y-13844063D01*
X73587541Y-13846296D01*
X73549177Y-13847040D01*
X73511738Y-13846346D01*
X73475329Y-13844280D01*
X73439954Y-13840866D01*
X73405620Y-13836126D01*
X73372332Y-13830084D01*
X73340097Y-13822762D01*
X73308919Y-13814185D01*
X73278806Y-13804376D01*
X73249762Y-13793357D01*
X73221794Y-13781152D01*
X73194907Y-13767785D01*
X73169107Y-13753278D01*
X73144400Y-13737655D01*
X73120792Y-13720939D01*
X73098289Y-13703153D01*
X73076896Y-13684321D01*
X73056619Y-13664466D01*
X73037464Y-13643610D01*
X73019437Y-13621778D01*
X73002544Y-13598993D01*
X72986790Y-13575277D01*
X72972181Y-13550655D01*
X72958724Y-13525149D01*
X72946423Y-13498782D01*
X72935285Y-13471578D01*
X72925316Y-13443561D01*
X72916521Y-13414752D01*
X72908906Y-13385176D01*
X72902477Y-13354857D01*
X72897240Y-13323816D01*
X72893201Y-13292077D01*
X72890365Y-13259665D01*
X73271365Y-13259665D01*
X73273829Y-13275104D01*
X73276750Y-13290165D01*
X73280122Y-13304839D01*
X73283938Y-13319119D01*
X73288189Y-13332997D01*
X73292869Y-13346468D01*
X73297971Y-13359522D01*
X73303487Y-13372154D01*
X73309410Y-13384356D01*
X73315732Y-13396120D01*
X73322447Y-13407439D01*
X73329547Y-13418306D01*
X73337025Y-13428714D01*
X73344874Y-13438656D01*
X73353086Y-13448124D01*
X73361654Y-13457110D01*
X73370571Y-13465608D01*
X73379829Y-13473611D01*
X73389422Y-13481111D01*
X73399341Y-13488101D01*
X73409581Y-13494573D01*
X73420133Y-13500520D01*
X73430990Y-13505936D01*
X73442145Y-13510812D01*
X73453591Y-13515142D01*
X73465320Y-13518918D01*
X73477325Y-13522134D01*
X73489599Y-13524780D01*
X73502135Y-13526852D01*
X73514925Y-13528340D01*
X73527963Y-13529239D01*
X73541240Y-13529540D01*
X73576021Y-13527951D01*
X73608895Y-13523153D01*
X73624602Y-13519536D01*
X73639815Y-13515099D01*
X73654528Y-13509837D01*
X73668736Y-13503743D01*
X73682432Y-13496812D01*
X73695610Y-13489038D01*
X73708265Y-13480416D01*
X73720392Y-13470939D01*
X73731983Y-13460601D01*
X73743034Y-13449397D01*
X73753538Y-13437322D01*
X73763490Y-13424368D01*
X73772883Y-13410531D01*
X73781713Y-13395804D01*
X73789974Y-13380182D01*
X73797658Y-13363658D01*
X73804761Y-13346228D01*
X73811277Y-13327885D01*
X73822525Y-13288438D01*
X73831354Y-13245270D01*
X73837718Y-13198335D01*
X73841570Y-13147587D01*
X73842865Y-13092977D01*
X73842865Y-13045353D01*
X73842495Y-13018261D01*
X73841396Y-12992052D01*
X73839581Y-12966723D01*
X73837067Y-12942274D01*
X73833866Y-12918702D01*
X73829993Y-12896007D01*
X73825464Y-12874187D01*
X73820292Y-12853240D01*
X73814493Y-12833166D01*
X73808080Y-12813962D01*
X73801068Y-12795627D01*
X73793472Y-12778160D01*
X73785307Y-12761559D01*
X73776586Y-12745822D01*
X73767324Y-12730950D01*
X73757537Y-12716939D01*
X73747237Y-12703788D01*
X73736441Y-12691496D01*
X73725162Y-12680062D01*
X73713415Y-12669484D01*
X73701215Y-12659761D01*
X73688576Y-12650890D01*
X73675512Y-12642872D01*
X73662039Y-12635703D01*
X73648170Y-12629384D01*
X73633920Y-12623911D01*
X73619304Y-12619285D01*
X73604337Y-12615503D01*
X73589032Y-12612564D01*
X73573404Y-12610466D01*
X73557469Y-12609209D01*
X73541240Y-12608790D01*
X73528031Y-12609068D01*
X73515193Y-12609895D01*
X73502724Y-12611262D01*
X73490623Y-12613162D01*
X73478888Y-12615585D01*
X73467517Y-12618522D01*
X73456511Y-12621965D01*
X73445866Y-12625905D01*
X73435581Y-12630334D01*
X73425656Y-12635242D01*
X73416088Y-12640621D01*
X73406876Y-12646462D01*
X73398019Y-12652757D01*
X73389514Y-12659496D01*
X73381362Y-12666672D01*
X73373560Y-12674275D01*
X73366107Y-12682296D01*
X73359001Y-12690727D01*
X73352241Y-12699559D01*
X73345825Y-12708784D01*
X73339753Y-12718392D01*
X73334022Y-12728376D01*
X73323579Y-12749433D01*
X73314484Y-12771885D01*
X73306727Y-12795662D01*
X73300295Y-12820696D01*
X73295177Y-12846915D01*
X72898302Y-12846915D01*
X72901994Y-12811079D01*
X72907094Y-12776491D01*
X72913569Y-12743145D01*
X72921386Y-12711032D01*
X72930511Y-12680146D01*
X72940910Y-12650480D01*
X72952551Y-12622025D01*
X72965399Y-12594776D01*
X72979422Y-12568724D01*
X72994585Y-12543862D01*
X73010856Y-12520183D01*
X73028201Y-12497681D01*
X73046587Y-12476346D01*
X73065980Y-12456174D01*
X73086347Y-12437155D01*
X73107654Y-12419282D01*
X73129868Y-12402550D01*
X73152955Y-12386949D01*
X73176883Y-12372473D01*
X73201617Y-12359115D01*
X73227124Y-12346868D01*
X73253372Y-12335723D01*
X73280325Y-12325675D01*
X73307952Y-12316715D01*
X73365090Y-12302032D01*
X73424518Y-12291616D01*
X73485970Y-12285409D01*
X73549177Y-12283353D01*
X73586144Y-12284142D01*
G37*
G36*
X75803427Y-13394602D02*
G01*
X75803427Y-13410477D01*
X75802781Y-13438267D01*
X75800865Y-13465086D01*
X75797711Y-13490940D01*
X75793350Y-13515835D01*
X75787815Y-13539777D01*
X75781138Y-13562770D01*
X75773350Y-13584822D01*
X75764484Y-13605938D01*
X75754571Y-13626124D01*
X75743644Y-13645385D01*
X75731734Y-13663728D01*
X75718874Y-13681158D01*
X75705095Y-13697682D01*
X75690430Y-13713304D01*
X75674910Y-13728031D01*
X75658568Y-13741868D01*
X75641434Y-13754822D01*
X75623543Y-13766897D01*
X75604924Y-13778101D01*
X75585611Y-13788439D01*
X75565635Y-13797916D01*
X75545028Y-13806538D01*
X75502050Y-13821243D01*
X75456933Y-13832599D01*
X75409932Y-13840653D01*
X75361303Y-13845451D01*
X75311302Y-13847040D01*
X75292884Y-13846763D01*
X75274837Y-13845943D01*
X75257159Y-13844594D01*
X75239849Y-13842730D01*
X75222905Y-13840366D01*
X75206326Y-13837517D01*
X75190110Y-13834197D01*
X75174256Y-13830421D01*
X75158763Y-13826202D01*
X75143628Y-13821557D01*
X75128851Y-13816499D01*
X75114430Y-13811042D01*
X75100364Y-13805202D01*
X75086651Y-13798992D01*
X75073290Y-13792428D01*
X75060279Y-13785524D01*
X75047616Y-13778294D01*
X75035301Y-13770754D01*
X75011708Y-13754797D01*
X74989486Y-13737771D01*
X74968625Y-13719792D01*
X74949113Y-13700975D01*
X74930938Y-13681437D01*
X74914088Y-13661295D01*
X74898552Y-13640665D01*
X74898552Y-13815290D01*
X74493740Y-13815290D01*
X74493740Y-13180290D01*
X74914427Y-13180290D01*
X74914427Y-13323165D01*
X74914796Y-13337094D01*
X74915888Y-13350605D01*
X74917684Y-13363697D01*
X74920163Y-13376371D01*
X74923305Y-13388626D01*
X74927089Y-13400463D01*
X74931495Y-13411880D01*
X74936503Y-13422880D01*
X74942093Y-13433461D01*
X74948243Y-13443623D01*
X74954934Y-13453366D01*
X74962145Y-13462691D01*
X74969856Y-13471598D01*
X74978047Y-13480086D01*
X74986697Y-13488155D01*
X74995786Y-13495806D01*
X75005294Y-13503038D01*
X75015200Y-13509851D01*
X75025484Y-13516246D01*
X75036125Y-13522223D01*
X75058399Y-13532920D01*
X75081859Y-13541942D01*
X75106342Y-13549291D01*
X75131685Y-13554965D01*
X75157726Y-13558965D01*
X75184302Y-13561290D01*
X75197464Y-13561082D01*
X75210165Y-13560463D01*
X75222406Y-13559439D01*
X75234190Y-13558019D01*
X75245522Y-13556209D01*
X75256402Y-13554017D01*
X75266835Y-13551451D01*
X75276823Y-13548516D01*
X75286370Y-13545221D01*
X75295477Y-13541572D01*
X75304149Y-13537578D01*
X75312387Y-13533245D01*
X75320195Y-13528581D01*
X75327576Y-13523593D01*
X75334533Y-13518288D01*
X75341068Y-13512673D01*
X75347184Y-13506756D01*
X75352885Y-13500544D01*
X75358173Y-13494044D01*
X75363051Y-13487264D01*
X75367522Y-13480210D01*
X75371589Y-13472891D01*
X75375255Y-13465312D01*
X75378523Y-13457483D01*
X75381395Y-13449409D01*
X75383875Y-13441098D01*
X75385966Y-13432557D01*
X75387669Y-13423795D01*
X75388990Y-13414817D01*
X75389929Y-13405631D01*
X75390490Y-13396245D01*
X75390677Y-13386665D01*
X75390677Y-13370790D01*
X75390375Y-13358372D01*
X75389468Y-13346414D01*
X75387956Y-13334912D01*
X75385840Y-13323863D01*
X75383119Y-13313261D01*
X75379794Y-13303102D01*
X75375864Y-13293383D01*
X75371329Y-13284098D01*
X75366190Y-13275243D01*
X75360446Y-13266814D01*
X75354098Y-13258806D01*
X75347145Y-13251216D01*
X75339587Y-13244038D01*
X75331425Y-13237269D01*
X75322658Y-13230904D01*
X75313286Y-13224939D01*
X75303310Y-13219368D01*
X75292729Y-13214189D01*
X75269754Y-13204986D01*
X75244360Y-13197295D01*
X75216548Y-13191080D01*
X75186317Y-13186307D01*
X75153668Y-13182941D01*
X75118601Y-13180947D01*
X75081114Y-13180290D01*
X74914427Y-13180290D01*
X74493740Y-13180290D01*
X74493740Y-12815165D01*
X74494502Y-12780839D01*
X74496768Y-12747803D01*
X74500509Y-12716042D01*
X74505692Y-12685545D01*
X74512289Y-12656297D01*
X74520267Y-12628287D01*
X74529597Y-12601500D01*
X74540248Y-12575923D01*
X74552190Y-12551545D01*
X74565392Y-12528351D01*
X74579824Y-12506328D01*
X74595454Y-12485464D01*
X74612253Y-12465745D01*
X74630191Y-12447158D01*
X74649235Y-12429690D01*
X74669357Y-12413329D01*
X74690525Y-12398060D01*
X74712709Y-12383871D01*
X74735878Y-12370749D01*
X74760002Y-12358681D01*
X74785051Y-12347653D01*
X74810993Y-12337653D01*
X74865438Y-12320683D01*
X74923091Y-12307667D01*
X74983710Y-12298499D01*
X75047049Y-12293074D01*
X75112865Y-12291290D01*
X75177291Y-12293154D01*
X75208671Y-12295489D01*
X75239461Y-12298762D01*
X75269636Y-12302977D01*
X75299167Y-12308137D01*
X75328030Y-12314245D01*
X75356199Y-12321303D01*
X75383646Y-12329315D01*
X75410346Y-12338283D01*
X75436274Y-12348210D01*
X75461401Y-12359099D01*
X75485704Y-12370954D01*
X75509154Y-12383776D01*
X75531727Y-12397570D01*
X75553396Y-12412337D01*
X75574134Y-12428080D01*
X75593917Y-12444804D01*
X75612716Y-12462509D01*
X75630507Y-12481201D01*
X75647264Y-12500880D01*
X75662959Y-12521551D01*
X75677567Y-12543216D01*
X75691062Y-12565878D01*
X75703417Y-12589539D01*
X75714607Y-12614204D01*
X75724605Y-12639875D01*
X75733385Y-12666554D01*
X75740921Y-12694244D01*
X75747186Y-12722949D01*
X75752155Y-12752672D01*
X75755802Y-12783415D01*
X75358927Y-12783415D01*
X75356693Y-12762963D01*
X75352958Y-12743324D01*
X75347713Y-12724570D01*
X75344519Y-12715545D01*
X75340944Y-12706768D01*
X75336984Y-12698247D01*
X75332640Y-12689990D01*
X75327909Y-12682007D01*
X75322790Y-12674305D01*
X75317281Y-12666894D01*
X75311382Y-12659783D01*
X75305090Y-12652979D01*
X75298404Y-12646493D01*
X75291322Y-12640332D01*
X75283844Y-12634505D01*
X75275968Y-12629022D01*
X75267692Y-12623890D01*
X75259015Y-12619118D01*
X75249936Y-12614716D01*
X75240452Y-12610691D01*
X75230563Y-12607053D01*
X75220267Y-12603811D01*
X75209562Y-12600972D01*
X75198448Y-12598547D01*
X75186922Y-12596542D01*
X75174984Y-12594968D01*
X75162631Y-12593833D01*
X75149863Y-12593146D01*
X75136677Y-12592915D01*
X75122072Y-12593170D01*
X75108020Y-12593932D01*
X75094514Y-12595197D01*
X75081549Y-12596961D01*
X75069118Y-12599219D01*
X75057217Y-12601967D01*
X75045839Y-12605200D01*
X75034978Y-12608914D01*
X75024629Y-12613105D01*
X75014785Y-12617768D01*
X75005442Y-12622899D01*
X74996593Y-12628494D01*
X74988232Y-12634548D01*
X74980353Y-12641057D01*
X74972952Y-12648017D01*
X74966021Y-12655423D01*
X74959555Y-12663270D01*
X74953549Y-12671555D01*
X74947996Y-12680274D01*
X74942890Y-12689421D01*
X74938227Y-12698992D01*
X74934000Y-12708983D01*
X74930202Y-12719390D01*
X74926829Y-12730209D01*
X74923875Y-12741434D01*
X74921334Y-12753062D01*
X74917466Y-12777508D01*
X74915179Y-12803512D01*
X74914427Y-12831040D01*
X74914427Y-12902477D01*
X75096990Y-12902477D01*
X75169018Y-12903993D01*
X75239012Y-12908647D01*
X75306610Y-12916604D01*
X75339399Y-12921872D01*
X75371453Y-12928026D01*
X75402729Y-12935087D01*
X75433180Y-12943075D01*
X75462763Y-12952011D01*
X75491431Y-12961915D01*
X75519139Y-12972808D01*
X75545844Y-12984709D01*
X75571499Y-12997639D01*
X75596060Y-13011618D01*
X75619481Y-13026667D01*
X75641718Y-13042806D01*
X75662725Y-13060055D01*
X75682458Y-13078436D01*
X75700871Y-13097967D01*
X75717919Y-13118669D01*
X75733557Y-13140564D01*
X75747740Y-13163671D01*
X75760424Y-13188010D01*
X75771563Y-13213602D01*
X75781111Y-13240467D01*
X75789025Y-13268625D01*
X75795258Y-13298098D01*
X75799766Y-13328905D01*
X75802504Y-13361066D01*
X75803209Y-13386665D01*
X75803427Y-13394602D01*
G37*
G04 #@! TD*
D11*
G04 #@! TO.C,J4*
X109825821Y-100250495D03*
X109825821Y-36750495D03*
D12*
X108405821Y-93430495D03*
D13*
X108405821Y-90660495D03*
X108405821Y-87890495D03*
X108405821Y-85120495D03*
X108405821Y-82350495D03*
X108405821Y-79580495D03*
X108405821Y-76810495D03*
X108405821Y-74040495D03*
X108405821Y-71270495D03*
X108405821Y-68500495D03*
X108405821Y-65730495D03*
X108405821Y-62960495D03*
X108405821Y-60190495D03*
X108405821Y-57420495D03*
X108405821Y-54650495D03*
X108405821Y-51880495D03*
X108405821Y-49110495D03*
X108405821Y-46340495D03*
X108405821Y-43570495D03*
X111245821Y-92045495D03*
X111245821Y-89275495D03*
X111245821Y-86505495D03*
X111245821Y-83735495D03*
X111245821Y-80965495D03*
X111245821Y-78195495D03*
X111245821Y-75425495D03*
X111245821Y-72655495D03*
X111245821Y-69885495D03*
X111245821Y-67115495D03*
X111245821Y-64345495D03*
X111245821Y-61575495D03*
X111245821Y-58805495D03*
X111245821Y-56035495D03*
X111245821Y-53265495D03*
X111245821Y-50495495D03*
X111245821Y-47725495D03*
X111245821Y-44955495D03*
G04 #@! TD*
D11*
G04 #@! TO.C,J2*
X34851764Y-111625000D03*
X98351764Y-111625000D03*
D12*
X41671764Y-110205000D03*
D13*
X44441764Y-110205000D03*
X47211764Y-110205000D03*
X49981764Y-110205000D03*
X52751764Y-110205000D03*
X55521764Y-110205000D03*
X58291764Y-110205000D03*
X61061764Y-110205000D03*
X63831764Y-110205000D03*
X66601764Y-110205000D03*
X69371764Y-110205000D03*
X72141764Y-110205000D03*
X74911764Y-110205000D03*
X77681764Y-110205000D03*
X80451764Y-110205000D03*
X83221764Y-110205000D03*
X85991764Y-110205000D03*
X88761764Y-110205000D03*
X91531764Y-110205000D03*
X43056764Y-113045000D03*
X45826764Y-113045000D03*
X48596764Y-113045000D03*
X51366764Y-113045000D03*
X54136764Y-113045000D03*
X56906764Y-113045000D03*
X59676764Y-113045000D03*
X62446764Y-113045000D03*
X65216764Y-113045000D03*
X67986764Y-113045000D03*
X70756764Y-113045000D03*
X73526764Y-113045000D03*
X76296764Y-113045000D03*
X79066764Y-113045000D03*
X81836764Y-113045000D03*
X84606764Y-113045000D03*
X87376764Y-113045000D03*
X90146764Y-113045000D03*
G04 #@! TD*
D11*
G04 #@! TO.C,J3*
X23385821Y-36750495D03*
X23385821Y-100250495D03*
D12*
X24805821Y-43570495D03*
D13*
X24805821Y-46340495D03*
X24805821Y-49110495D03*
X24805821Y-51880495D03*
X24805821Y-54650495D03*
X24805821Y-57420495D03*
X24805821Y-60190495D03*
X24805821Y-62960495D03*
X24805821Y-65730495D03*
X24805821Y-68500495D03*
X24805821Y-71270495D03*
X24805821Y-74040495D03*
X24805821Y-76810495D03*
X24805821Y-79580495D03*
X24805821Y-82350495D03*
X24805821Y-85120495D03*
X24805821Y-87890495D03*
X24805821Y-90660495D03*
X24805821Y-93430495D03*
X21965821Y-44955495D03*
X21965821Y-47725495D03*
X21965821Y-50495495D03*
X21965821Y-53265495D03*
X21965821Y-56035495D03*
X21965821Y-58805495D03*
X21965821Y-61575495D03*
X21965821Y-64345495D03*
X21965821Y-67115495D03*
X21965821Y-69885495D03*
X21965821Y-72655495D03*
X21965821Y-75425495D03*
X21965821Y-78195495D03*
X21965821Y-80965495D03*
X21965821Y-83735495D03*
X21965821Y-86505495D03*
X21965821Y-89275495D03*
X21965821Y-92045495D03*
G04 #@! TD*
D11*
G04 #@! TO.C,J1*
X98351764Y-25185000D03*
X34851764Y-25185000D03*
D12*
X91531764Y-26605000D03*
D13*
X88761764Y-26605000D03*
X85991764Y-26605000D03*
X83221764Y-26605000D03*
X80451764Y-26605000D03*
X77681764Y-26605000D03*
X74911764Y-26605000D03*
X72141764Y-26605000D03*
X69371764Y-26605000D03*
X66601764Y-26605000D03*
X63831764Y-26605000D03*
X61061764Y-26605000D03*
X58291764Y-26605000D03*
X55521764Y-26605000D03*
X52751764Y-26605000D03*
X49981764Y-26605000D03*
X47211764Y-26605000D03*
X44441764Y-26605000D03*
X41671764Y-26605000D03*
X90146764Y-23765000D03*
X87376764Y-23765000D03*
X84606764Y-23765000D03*
X81836764Y-23765000D03*
X79066764Y-23765000D03*
X76296764Y-23765000D03*
X73526764Y-23765000D03*
X70756764Y-23765000D03*
X67986764Y-23765000D03*
X65216764Y-23765000D03*
X62446764Y-23765000D03*
X59676764Y-23765000D03*
X56906764Y-23765000D03*
X54136764Y-23765000D03*
X51366764Y-23765000D03*
X48596764Y-23765000D03*
X45826764Y-23765000D03*
X43056764Y-23765000D03*
G04 #@! TD*
D14*
G04 #@! TO.C,J5*
X27291714Y-139048772D03*
D15*
X27291714Y-136508772D03*
X29831714Y-139048772D03*
X29831714Y-136508772D03*
X32371714Y-139048772D03*
X32371714Y-136508772D03*
X34911714Y-139048772D03*
X34921714Y-136508772D03*
X37451714Y-139048772D03*
X37451714Y-136508772D03*
X39991714Y-139048772D03*
X39991714Y-136508772D03*
X42531714Y-139048772D03*
X42531714Y-136508772D03*
X45071714Y-139048772D03*
X45071714Y-136508772D03*
X47611714Y-139048772D03*
X47611714Y-136508772D03*
X50151714Y-139048772D03*
X50151714Y-136508772D03*
X52691714Y-139048772D03*
X52691714Y-136508772D03*
X55231714Y-139048772D03*
X55231714Y-136508772D03*
X57771714Y-139048772D03*
X57771714Y-136508772D03*
X60311714Y-139048772D03*
X60321714Y-136508772D03*
X62851714Y-139048772D03*
X62851714Y-136508772D03*
X65391714Y-139048772D03*
X65391714Y-136508772D03*
X67931714Y-139048772D03*
X67931714Y-136508772D03*
X70471714Y-139048772D03*
X70471714Y-136508772D03*
X73011714Y-139048772D03*
X73011714Y-136508772D03*
X75551714Y-139048772D03*
X75551714Y-136508772D03*
X78091714Y-139048772D03*
X78091714Y-136508772D03*
X80631714Y-139048772D03*
X80631714Y-136508772D03*
X83171714Y-139048772D03*
X83171714Y-136508772D03*
X85711714Y-139048772D03*
X85721714Y-136508772D03*
X88251714Y-139048772D03*
X88251714Y-136508772D03*
X90791714Y-139048772D03*
X90791714Y-136508772D03*
X93331714Y-139048772D03*
X93331714Y-136508772D03*
X95871714Y-139048772D03*
X95871714Y-136508772D03*
X98411714Y-139048772D03*
X98411714Y-136508772D03*
X100951714Y-139048772D03*
X100951714Y-136508772D03*
X103491714Y-139048772D03*
X103491714Y-136508772D03*
X106031714Y-139048772D03*
X106031714Y-136508772D03*
G04 #@! TD*
D16*
X13590000Y-7226525D02*
X13583864Y-7226525D01*
X20667463Y-7231600D02*
X20667464Y-7226525D01*
X12001384Y-8798284D02*
G75*
G02*
X13583864Y-7226547I1582516J-10816D01*
G01*
X22111652Y-131428821D02*
G75*
G02*
X23685735Y-133016309I-13352J-1587379D01*
G01*
X121203864Y-130078688D02*
G75*
G02*
X119610615Y-131428754I-1569864J237488D01*
G01*
X25285385Y-144128719D02*
X107973806Y-144128737D01*
X103216897Y-9531047D02*
X99406897Y-7232347D01*
X29799096Y-9530300D02*
X33609096Y-7231600D01*
X13590000Y-7226525D02*
X20667464Y-7226525D01*
X12001764Y-129831446D02*
X12001384Y-8798284D01*
X119616649Y-7231655D02*
X112348530Y-7232347D01*
X109537711Y-133016301D02*
X109537715Y-142541199D01*
X103217250Y-11830094D02*
X103216897Y-9531047D01*
X20667463Y-7231600D02*
X24477463Y-9530300D01*
X25285385Y-144128719D02*
G75*
G02*
X23685764Y-142550794I-12085J1587519D01*
G01*
X33609096Y-7231601D02*
X99406897Y-7232347D01*
X121203864Y-8831722D02*
X121203864Y-130078688D01*
X109537711Y-133016301D02*
G75*
G02*
X111125145Y-131428911I1587389J1D01*
G01*
X108538530Y-9531047D02*
X108538530Y-11829700D01*
X23685768Y-133016309D02*
X23685764Y-142550794D01*
X119610615Y-131428737D02*
X111125145Y-131428839D01*
X112348530Y-7232347D02*
X108538530Y-9531047D01*
X109537715Y-142541199D02*
G75*
G02*
X107973806Y-144128737I-1587715J-1D01*
G01*
X13601496Y-131428719D02*
X22111652Y-131428821D01*
X29798743Y-11829389D02*
G75*
G02*
X24477462Y-11834138I-2660643J409D01*
G01*
X29798743Y-11829389D02*
X29799096Y-9530300D01*
X108538530Y-11829700D02*
G75*
G02*
X103217270Y-11830094I-2660630J0D01*
G01*
X24477463Y-9530300D02*
X24477463Y-11834138D01*
X13601496Y-131428719D02*
G75*
G02*
X12001764Y-129831446I-12196J1587519D01*
G01*
X119616649Y-7231985D02*
G75*
G02*
X121203865Y-8831722I151J-1587115D01*
G01*
M02*
