G04 #@! TF.GenerationSoftware,KiCad,Pcbnew,9.0.0*
G04 #@! TF.CreationDate,2025-03-27T09:57:21+01:00*
G04 #@! TF.ProjectId,Cabletester_Base_Board_v1,4361626c-6574-4657-9374-65725f426173,v1*
G04 #@! TF.SameCoordinates,PX121eac0PY1312d00*
G04 #@! TF.FileFunction,Paste,Top*
G04 #@! TF.FilePolarity,Positive*
%FSLAX46Y46*%
G04 Gerber Fmt 4.6, Leading zero omitted, Abs format (unit mm)*
G04 Created by KiCad (PCBNEW 9.0.0) date 2025-03-27 09:57:21*
%MOMM*%
%LPD*%
G01*
G04 APERTURE LIST*
G04 #@! TA.AperFunction,Profile*
%ADD10C,0.050000*%
G04 #@! TD*
G04 APERTURE END LIST*
D10*
X13590000Y-7226525D02*
X13583864Y-7226525D01*
X20667463Y-7231600D02*
X20667464Y-7226525D01*
X12001384Y-8798284D02*
G75*
G02*
X13583864Y-7226547I1582516J-10816D01*
G01*
X22111652Y-131428821D02*
G75*
G02*
X23685735Y-133016309I-13352J-1587379D01*
G01*
X121203864Y-130078688D02*
G75*
G02*
X119610615Y-131428754I-1569864J237488D01*
G01*
X25285385Y-144128719D02*
X107973806Y-144128737D01*
X103216897Y-9531047D02*
X99406897Y-7232347D01*
X29799096Y-9530300D02*
X33609096Y-7231600D01*
X13590000Y-7226525D02*
X20667464Y-7226525D01*
X12001764Y-129831446D02*
X12001384Y-8798284D01*
X119616649Y-7231655D02*
X112348530Y-7232347D01*
X109537711Y-133016301D02*
X109537715Y-142541199D01*
X103217250Y-11830094D02*
X103216897Y-9531047D01*
X20667463Y-7231600D02*
X24477463Y-9530300D01*
X25285385Y-144128719D02*
G75*
G02*
X23685764Y-142550794I-12085J1587519D01*
G01*
X33609096Y-7231601D02*
X99406897Y-7232347D01*
X121203864Y-8831722D02*
X121203864Y-130078688D01*
X109537711Y-133016301D02*
G75*
G02*
X111125145Y-131428911I1587389J1D01*
G01*
X108538530Y-9531047D02*
X108538530Y-11829700D01*
X23685768Y-133016309D02*
X23685764Y-142550794D01*
X119610615Y-131428737D02*
X111125145Y-131428839D01*
X112348530Y-7232347D02*
X108538530Y-9531047D01*
X109537715Y-142541199D02*
G75*
G02*
X107973806Y-144128737I-1587715J-1D01*
G01*
X13601496Y-131428719D02*
X22111652Y-131428821D01*
X29798743Y-11829389D02*
G75*
G02*
X24477462Y-11834138I-2660643J409D01*
G01*
X29798743Y-11829389D02*
X29799096Y-9530300D01*
X108538530Y-11829700D02*
G75*
G02*
X103217270Y-11830094I-2660630J0D01*
G01*
X24477463Y-9530300D02*
X24477463Y-11834138D01*
X13601496Y-131428719D02*
G75*
G02*
X12001764Y-129831446I-12196J1587519D01*
G01*
X119616649Y-7231985D02*
G75*
G02*
X121203865Y-8831722I151J-1587115D01*
G01*
M02*
