%TF.GenerationSoftware,KiCad,Pcbnew,9.0.0*%
%TF.CreationDate,2025-03-27T09:57:11+01:00*%
%TF.ProjectId,Cabletester_Base_Board_v1,4361626c-6574-4657-9374-65725f426173,v1*%
%TF.SameCoordinates,PX121eac0PY1312d00*%
%TF.FileFunction,Drillmap*%
%TF.FilePolarity,Positive*%
%FSLAX45Y45*%
G04 Gerber Fmt 4.5, Leading zero omitted, Abs format (unit mm)*
G04 Created by KiCad (PCBNEW 9.0.0) date 2025-03-27 09:57:11*
%MOMM*%
%LPD*%
G01*
G04 APERTURE LIST*
%ADD10C,0.050000*%
%ADD11C,0.200000*%
G04 APERTURE END LIST*
D10*
X1359000Y-722652D02*
X1358386Y-722652D01*
X2066746Y-723160D02*
X2066746Y-722652D01*
X1200138Y-879828D02*
G75*
G02*
X1358386Y-722655I158252J-1082D01*
G01*
X2211165Y-13142882D02*
G75*
G02*
X2368574Y-13301631I-1335J-158738D01*
G01*
X12120386Y-13007869D02*
G75*
G02*
X11961061Y-13142875I-156986J23749D01*
G01*
X2528539Y-14412872D02*
X10797381Y-14412874D01*
X10321690Y-953105D02*
X9940690Y-723235D01*
X2979910Y-953030D02*
X3360910Y-723160D01*
X1359000Y-722652D02*
X2066746Y-722652D01*
X1200176Y-12983145D02*
X1200138Y-879828D01*
X11961665Y-723165D02*
X11234853Y-723235D01*
X10953771Y-13301630D02*
X10953772Y-14254120D01*
X10321725Y-1183009D02*
X10321690Y-953105D01*
X2066746Y-723160D02*
X2447746Y-953030D01*
X2528539Y-14412872D02*
G75*
G02*
X2368576Y-14255079I-1209J158752D01*
G01*
X3360910Y-723160D02*
X9940690Y-723235D01*
X12120386Y-883172D02*
X12120386Y-13007869D01*
X10953771Y-13301630D02*
G75*
G02*
X11112515Y-13142891I158739J0D01*
G01*
X10853853Y-953105D02*
X10853853Y-1182970D01*
X2368577Y-13301631D02*
X2368576Y-14255079D01*
X11961061Y-13142874D02*
X11112515Y-13142884D01*
X11234853Y-723235D02*
X10853853Y-953105D01*
X10953772Y-14254120D02*
G75*
G02*
X10797381Y-14412874I-158772J0D01*
G01*
X1360150Y-13142872D02*
X2211165Y-13142882D01*
X2979874Y-1182939D02*
G75*
G02*
X2447746Y-1183414I-266064J41D01*
G01*
X2979874Y-1182939D02*
X2979910Y-953030D01*
X10853853Y-1182970D02*
G75*
G02*
X10321727Y-1183009I-266063J0D01*
G01*
X2447746Y-953030D02*
X2447746Y-1183414D01*
X1360150Y-13142872D02*
G75*
G02*
X1200176Y-12983145I-1220J158752D01*
G01*
X11961665Y-723198D02*
G75*
G02*
X12120386Y-883172I15J-158712D01*
G01*
D11*
X1458415Y-14726860D02*
X1458415Y-14526860D01*
X1458415Y-14526860D02*
X1506034Y-14526860D01*
X1506034Y-14526860D02*
X1534606Y-14536384D01*
X1534606Y-14536384D02*
X1553653Y-14555432D01*
X1553653Y-14555432D02*
X1563177Y-14574479D01*
X1563177Y-14574479D02*
X1572701Y-14612574D01*
X1572701Y-14612574D02*
X1572701Y-14641146D01*
X1572701Y-14641146D02*
X1563177Y-14679241D01*
X1563177Y-14679241D02*
X1553653Y-14698289D01*
X1553653Y-14698289D02*
X1534606Y-14717336D01*
X1534606Y-14717336D02*
X1506034Y-14726860D01*
X1506034Y-14726860D02*
X1458415Y-14726860D01*
X1658415Y-14726860D02*
X1658415Y-14593527D01*
X1658415Y-14631622D02*
X1667939Y-14612574D01*
X1667939Y-14612574D02*
X1677463Y-14603051D01*
X1677463Y-14603051D02*
X1696510Y-14593527D01*
X1696510Y-14593527D02*
X1715558Y-14593527D01*
X1782225Y-14726860D02*
X1782225Y-14593527D01*
X1782225Y-14526860D02*
X1772701Y-14536384D01*
X1772701Y-14536384D02*
X1782225Y-14545908D01*
X1782225Y-14545908D02*
X1791748Y-14536384D01*
X1791748Y-14536384D02*
X1782225Y-14526860D01*
X1782225Y-14526860D02*
X1782225Y-14545908D01*
X1906034Y-14726860D02*
X1886987Y-14717336D01*
X1886987Y-14717336D02*
X1877463Y-14698289D01*
X1877463Y-14698289D02*
X1877463Y-14526860D01*
X2010796Y-14726860D02*
X1991748Y-14717336D01*
X1991748Y-14717336D02*
X1982225Y-14698289D01*
X1982225Y-14698289D02*
X1982225Y-14526860D01*
X2239368Y-14726860D02*
X2239368Y-14526860D01*
X2239368Y-14526860D02*
X2306034Y-14669717D01*
X2306034Y-14669717D02*
X2372701Y-14526860D01*
X2372701Y-14526860D02*
X2372701Y-14726860D01*
X2553653Y-14726860D02*
X2553653Y-14622098D01*
X2553653Y-14622098D02*
X2544130Y-14603051D01*
X2544130Y-14603051D02*
X2525082Y-14593527D01*
X2525082Y-14593527D02*
X2486987Y-14593527D01*
X2486987Y-14593527D02*
X2467939Y-14603051D01*
X2553653Y-14717336D02*
X2534606Y-14726860D01*
X2534606Y-14726860D02*
X2486987Y-14726860D01*
X2486987Y-14726860D02*
X2467939Y-14717336D01*
X2467939Y-14717336D02*
X2458415Y-14698289D01*
X2458415Y-14698289D02*
X2458415Y-14679241D01*
X2458415Y-14679241D02*
X2467939Y-14660194D01*
X2467939Y-14660194D02*
X2486987Y-14650670D01*
X2486987Y-14650670D02*
X2534606Y-14650670D01*
X2534606Y-14650670D02*
X2553653Y-14641146D01*
X2648891Y-14593527D02*
X2648891Y-14793527D01*
X2648891Y-14603051D02*
X2667939Y-14593527D01*
X2667939Y-14593527D02*
X2706034Y-14593527D01*
X2706034Y-14593527D02*
X2725082Y-14603051D01*
X2725082Y-14603051D02*
X2734606Y-14612574D01*
X2734606Y-14612574D02*
X2744130Y-14631622D01*
X2744130Y-14631622D02*
X2744130Y-14688765D01*
X2744130Y-14688765D02*
X2734606Y-14707813D01*
X2734606Y-14707813D02*
X2725082Y-14717336D01*
X2725082Y-14717336D02*
X2706034Y-14726860D01*
X2706034Y-14726860D02*
X2667939Y-14726860D01*
X2667939Y-14726860D02*
X2648891Y-14717336D01*
X2829844Y-14707813D02*
X2839368Y-14717336D01*
X2839368Y-14717336D02*
X2829844Y-14726860D01*
X2829844Y-14726860D02*
X2820320Y-14717336D01*
X2820320Y-14717336D02*
X2829844Y-14707813D01*
X2829844Y-14707813D02*
X2829844Y-14726860D01*
X2829844Y-14603051D02*
X2839368Y-14612574D01*
X2839368Y-14612574D02*
X2829844Y-14622098D01*
X2829844Y-14622098D02*
X2820320Y-14612574D01*
X2820320Y-14612574D02*
X2829844Y-14603051D01*
X2829844Y-14603051D02*
X2829844Y-14622098D01*
M02*
