%TF.GenerationSoftware,KiCad,Pcbnew,9.0.0*%
%TF.CreationDate,2025-03-27T09:57:11+01:00*%
%TF.ProjectId,Cabletester_Base_Board_v1,4361626c-6574-4657-9374-65725f426173,v1*%
%TF.SameCoordinates,PX121eac0PY1312d00*%
%TF.FileFunction,Plated,1,2,PTH,Drill*%
%TF.FilePolarity,Positive*%
%FSLAX46Y46*%
G04 Gerber Fmt 4.6, Leading zero omitted, Abs format (unit mm)*
G04 Created by KiCad (PCBNEW 9.0.0) date 2025-03-27 09:57:11*
%MOMM*%
%LPD*%
G01*
G04 APERTURE LIST*
%TA.AperFunction,ViaDrill*%
%ADD10C,0.300000*%
%TD*%
%TA.AperFunction,ComponentDrill*%
%ADD11C,1.000000*%
%TD*%
%TA.AperFunction,ComponentDrill*%
%ADD12C,1.100000*%
%TD*%
%TA.AperFunction,ComponentDrill*%
%ADD13C,3.200000*%
%TD*%
G04 APERTURE END LIST*
D10*
X20000000Y-128000000D03*
X21000000Y-126000000D03*
X22000000Y-26000000D03*
X22000000Y-124000000D03*
X22000000Y-128000000D03*
X23000000Y-24000000D03*
X23000000Y-126000000D03*
X24000000Y-22000000D03*
X24000000Y-26000000D03*
X24000000Y-128000000D03*
X25000000Y-24000000D03*
X26000000Y-26000000D03*
X32465490Y-38570000D03*
X33120490Y-39475000D03*
X33707990Y-40237500D03*
X34315490Y-41070000D03*
X34895490Y-41775000D03*
X35471740Y-42601250D03*
X36007990Y-43337500D03*
X36045490Y-121050000D03*
X36591137Y-120387500D03*
X36625490Y-44180000D03*
X37120286Y-119787500D03*
X37220490Y-44975000D03*
X37625806Y-119167457D03*
X38162467Y-118550000D03*
X38698620Y-117950000D03*
X39223639Y-117346379D03*
X39263864Y-114947936D03*
X39770490Y-116750000D03*
X40320490Y-116150000D03*
X40847296Y-115547936D03*
X41664755Y-78789265D03*
X41715490Y-102210000D03*
X43029755Y-76064265D03*
X43035490Y-101640000D03*
X44405490Y-100900000D03*
X44449755Y-73304265D03*
X45824755Y-70529265D03*
X45935490Y-100300000D03*
X47214755Y-67709265D03*
X47335490Y-99700000D03*
X48605392Y-64958628D03*
X48715490Y-99080000D03*
X49915490Y-98480000D03*
X49981764Y-28450000D03*
X49994755Y-62189265D03*
X51000000Y-84000000D03*
X51000000Y-87820000D03*
X51314755Y-59509265D03*
X51315490Y-29050000D03*
X51405490Y-97880000D03*
X52000000Y-82000000D03*
X52000000Y-89820000D03*
X52751764Y-29650000D03*
X52754755Y-56649265D03*
X52785490Y-97280000D03*
X53000000Y-80000000D03*
X53000000Y-84000000D03*
X53000000Y-87820000D03*
X53000000Y-91820000D03*
X54000000Y-63000000D03*
X54000000Y-82000000D03*
X54000000Y-89820000D03*
X54134755Y-53929265D03*
X54135490Y-96680000D03*
X54136764Y-30250000D03*
X55000000Y-61000000D03*
X55000000Y-84000000D03*
X55000000Y-87820000D03*
X55515490Y-96080000D03*
X55521764Y-30850000D03*
X55521764Y-52170000D03*
X56000000Y-59000000D03*
X56000000Y-63000000D03*
X56906764Y-31450000D03*
X56906764Y-51570000D03*
X57000000Y-61000000D03*
X57045490Y-95480000D03*
X57750000Y-87760000D03*
X58000000Y-63000000D03*
X58000000Y-80000000D03*
X58291764Y-32050000D03*
X58291764Y-50970000D03*
X58425490Y-94880000D03*
X58750000Y-89760000D03*
X59000000Y-82000000D03*
X59676764Y-32675000D03*
X59676764Y-50370000D03*
X59685490Y-94280000D03*
X59750000Y-87760000D03*
X59750000Y-91760000D03*
X60000000Y-80000000D03*
X60000000Y-84000000D03*
X60750000Y-89760000D03*
X61000000Y-59000000D03*
X61000000Y-82000000D03*
X61055490Y-93670000D03*
X61061764Y-33275000D03*
X61061764Y-49770000D03*
X61750000Y-87760000D03*
X62000000Y-61000000D03*
X62000000Y-80000000D03*
X62446764Y-33875000D03*
X62446764Y-49170000D03*
X62555490Y-93060000D03*
X63000000Y-59000000D03*
X63000000Y-63000000D03*
X63831764Y-34475000D03*
X63831764Y-48570000D03*
X63831764Y-92460000D03*
X64000000Y-61000000D03*
X65000000Y-59000000D03*
X65000000Y-84000000D03*
X65215490Y-91860000D03*
X65216764Y-35075000D03*
X65216764Y-47970000D03*
X66000000Y-82000000D03*
X66601764Y-47370000D03*
X66601764Y-91260000D03*
X67000000Y-80000000D03*
X67000000Y-84000000D03*
X67986764Y-46790000D03*
X67986764Y-90660000D03*
X68000000Y-63000000D03*
X68000000Y-82000000D03*
X69000000Y-61000000D03*
X69000000Y-84000000D03*
X69371764Y-46190000D03*
X69505490Y-90060000D03*
X70000000Y-59000000D03*
X70000000Y-63000000D03*
X70756764Y-45590000D03*
X70756764Y-89460000D03*
X71000000Y-61000000D03*
X72000000Y-63000000D03*
X72000000Y-80000000D03*
X72141764Y-44980000D03*
X72141764Y-88860000D03*
X73000000Y-82000000D03*
X73526764Y-44380000D03*
X73526764Y-88260000D03*
X74000000Y-80000000D03*
X74000000Y-84000000D03*
X74911764Y-43780000D03*
X74911764Y-87660000D03*
X75000000Y-59000000D03*
X75000000Y-82000000D03*
X76000000Y-61000000D03*
X76000000Y-80000000D03*
X76296764Y-43180000D03*
X76316225Y-86580735D03*
X77000000Y-59000000D03*
X77000000Y-63000000D03*
X77679362Y-83777598D03*
X77681764Y-42590000D03*
X78000000Y-61000000D03*
X79000000Y-59000000D03*
X79066764Y-41990000D03*
X79066764Y-80970000D03*
X80451764Y-41390000D03*
X80451764Y-78240000D03*
X81836764Y-40790000D03*
X81836764Y-75130000D03*
X83219362Y-72717598D03*
X83221764Y-40190000D03*
X84606764Y-39590000D03*
X84606764Y-69976470D03*
X85989362Y-67217598D03*
X85991764Y-39000000D03*
X87371225Y-64635735D03*
X87376764Y-38400000D03*
X87563864Y-114947936D03*
X88759999Y-61708235D03*
X88762120Y-37800000D03*
X90146764Y-37195000D03*
X90146764Y-58850000D03*
X91524362Y-56182598D03*
X91531764Y-36595000D03*
X95095490Y-35075000D03*
X95718684Y-34477064D03*
X96245490Y-33875000D03*
X97145490Y-33275000D03*
X98070490Y-32675000D03*
X99020490Y-32050000D03*
X99945490Y-31450000D03*
X100945490Y-30850000D03*
X101820490Y-30250000D03*
X102820490Y-29650000D03*
X103720490Y-29050000D03*
X104645490Y-28450000D03*
X107000000Y-26000000D03*
X108000000Y-24000000D03*
X109000000Y-22000000D03*
X109000000Y-26000000D03*
X109000000Y-128000000D03*
X110000000Y-24000000D03*
X110000000Y-126000000D03*
X111000000Y-26000000D03*
X111000000Y-124000000D03*
X111000000Y-128000000D03*
X112000000Y-126000000D03*
X113000000Y-128000000D03*
D11*
%TO.C,J3*%
X21965821Y-44955495D03*
X21965821Y-47725495D03*
X21965821Y-50495495D03*
X21965821Y-53265495D03*
X21965821Y-56035495D03*
X21965821Y-58805495D03*
X21965821Y-61575495D03*
X21965821Y-64345495D03*
X21965821Y-67115495D03*
X21965821Y-69885495D03*
X21965821Y-72655495D03*
X21965821Y-75425495D03*
X21965821Y-78195495D03*
X21965821Y-80965495D03*
X21965821Y-83735495D03*
X21965821Y-86505495D03*
X21965821Y-89275495D03*
X21965821Y-92045495D03*
X24805821Y-43570495D03*
X24805821Y-46340495D03*
X24805821Y-49110495D03*
X24805821Y-51880495D03*
X24805821Y-54650495D03*
X24805821Y-57420495D03*
X24805821Y-60190495D03*
X24805821Y-62960495D03*
X24805821Y-65730495D03*
X24805821Y-68500495D03*
X24805821Y-71270495D03*
X24805821Y-74040495D03*
X24805821Y-76810495D03*
X24805821Y-79580495D03*
X24805821Y-82350495D03*
X24805821Y-85120495D03*
X24805821Y-87890495D03*
X24805821Y-90660495D03*
X24805821Y-93430495D03*
%TO.C,J1*%
X41671764Y-26605000D03*
%TO.C,J2*%
X41671764Y-110205000D03*
%TO.C,J1*%
X43056764Y-23765000D03*
%TO.C,J2*%
X43056764Y-113045000D03*
%TO.C,J1*%
X44441764Y-26605000D03*
%TO.C,J2*%
X44441764Y-110205000D03*
%TO.C,J1*%
X45826764Y-23765000D03*
%TO.C,J2*%
X45826764Y-113045000D03*
%TO.C,J1*%
X47211764Y-26605000D03*
%TO.C,J2*%
X47211764Y-110205000D03*
%TO.C,J1*%
X48596764Y-23765000D03*
%TO.C,J2*%
X48596764Y-113045000D03*
%TO.C,J1*%
X49981764Y-26605000D03*
%TO.C,J2*%
X49981764Y-110205000D03*
%TO.C,J1*%
X51366764Y-23765000D03*
%TO.C,J2*%
X51366764Y-113045000D03*
%TO.C,J1*%
X52751764Y-26605000D03*
%TO.C,J2*%
X52751764Y-110205000D03*
%TO.C,J1*%
X54136764Y-23765000D03*
%TO.C,J2*%
X54136764Y-113045000D03*
%TO.C,J1*%
X55521764Y-26605000D03*
%TO.C,J2*%
X55521764Y-110205000D03*
%TO.C,J1*%
X56906764Y-23765000D03*
%TO.C,J2*%
X56906764Y-113045000D03*
%TO.C,J1*%
X58291764Y-26605000D03*
%TO.C,J2*%
X58291764Y-110205000D03*
%TO.C,J1*%
X59676764Y-23765000D03*
%TO.C,J2*%
X59676764Y-113045000D03*
%TO.C,J1*%
X61061764Y-26605000D03*
%TO.C,J2*%
X61061764Y-110205000D03*
%TO.C,J1*%
X62446764Y-23765000D03*
%TO.C,J2*%
X62446764Y-113045000D03*
%TO.C,J1*%
X63831764Y-26605000D03*
%TO.C,J2*%
X63831764Y-110205000D03*
%TO.C,J1*%
X65216764Y-23765000D03*
%TO.C,J2*%
X65216764Y-113045000D03*
%TO.C,J1*%
X66601764Y-26605000D03*
%TO.C,J2*%
X66601764Y-110205000D03*
%TO.C,J1*%
X67986764Y-23765000D03*
%TO.C,J2*%
X67986764Y-113045000D03*
%TO.C,J1*%
X69371764Y-26605000D03*
%TO.C,J2*%
X69371764Y-110205000D03*
%TO.C,J1*%
X70756764Y-23765000D03*
%TO.C,J2*%
X70756764Y-113045000D03*
%TO.C,J1*%
X72141764Y-26605000D03*
%TO.C,J2*%
X72141764Y-110205000D03*
%TO.C,J1*%
X73526764Y-23765000D03*
%TO.C,J2*%
X73526764Y-113045000D03*
%TO.C,J1*%
X74911764Y-26605000D03*
%TO.C,J2*%
X74911764Y-110205000D03*
%TO.C,J1*%
X76296764Y-23765000D03*
%TO.C,J2*%
X76296764Y-113045000D03*
%TO.C,J1*%
X77681764Y-26605000D03*
%TO.C,J2*%
X77681764Y-110205000D03*
%TO.C,J1*%
X79066764Y-23765000D03*
%TO.C,J2*%
X79066764Y-113045000D03*
%TO.C,J1*%
X80451764Y-26605000D03*
%TO.C,J2*%
X80451764Y-110205000D03*
%TO.C,J1*%
X81836764Y-23765000D03*
%TO.C,J2*%
X81836764Y-113045000D03*
%TO.C,J1*%
X83221764Y-26605000D03*
%TO.C,J2*%
X83221764Y-110205000D03*
%TO.C,J1*%
X84606764Y-23765000D03*
%TO.C,J2*%
X84606764Y-113045000D03*
%TO.C,J1*%
X85991764Y-26605000D03*
%TO.C,J2*%
X85991764Y-110205000D03*
%TO.C,J1*%
X87376764Y-23765000D03*
%TO.C,J2*%
X87376764Y-113045000D03*
%TO.C,J1*%
X88761764Y-26605000D03*
%TO.C,J2*%
X88761764Y-110205000D03*
%TO.C,J1*%
X90146764Y-23765000D03*
%TO.C,J2*%
X90146764Y-113045000D03*
%TO.C,J1*%
X91531764Y-26605000D03*
%TO.C,J2*%
X91531764Y-110205000D03*
%TO.C,J4*%
X108405821Y-43570495D03*
X108405821Y-46340495D03*
X108405821Y-49110495D03*
X108405821Y-51880495D03*
X108405821Y-54650495D03*
X108405821Y-57420495D03*
X108405821Y-60190495D03*
X108405821Y-62960495D03*
X108405821Y-65730495D03*
X108405821Y-68500495D03*
X108405821Y-71270495D03*
X108405821Y-74040495D03*
X108405821Y-76810495D03*
X108405821Y-79580495D03*
X108405821Y-82350495D03*
X108405821Y-85120495D03*
X108405821Y-87890495D03*
X108405821Y-90660495D03*
X108405821Y-93430495D03*
X111245821Y-44955495D03*
X111245821Y-47725495D03*
X111245821Y-50495495D03*
X111245821Y-53265495D03*
X111245821Y-56035495D03*
X111245821Y-58805495D03*
X111245821Y-61575495D03*
X111245821Y-64345495D03*
X111245821Y-67115495D03*
X111245821Y-69885495D03*
X111245821Y-72655495D03*
X111245821Y-75425495D03*
X111245821Y-78195495D03*
X111245821Y-80965495D03*
X111245821Y-83735495D03*
X111245821Y-86505495D03*
X111245821Y-89275495D03*
X111245821Y-92045495D03*
D12*
%TO.C,J5*%
X27291714Y-136508772D03*
X27291714Y-139048772D03*
X29831714Y-136508772D03*
X29831714Y-139048772D03*
X32371714Y-136508772D03*
X32371714Y-139048772D03*
X34911714Y-139048772D03*
X34921714Y-136508772D03*
X37451714Y-136508772D03*
X37451714Y-139048772D03*
X39991714Y-136508772D03*
X39991714Y-139048772D03*
X42531714Y-136508772D03*
X42531714Y-139048772D03*
X45071714Y-136508772D03*
X45071714Y-139048772D03*
X47611714Y-136508772D03*
X47611714Y-139048772D03*
X50151714Y-136508772D03*
X50151714Y-139048772D03*
X52691714Y-136508772D03*
X52691714Y-139048772D03*
X55231714Y-136508772D03*
X55231714Y-139048772D03*
X57771714Y-136508772D03*
X57771714Y-139048772D03*
X60311714Y-139048772D03*
X60321714Y-136508772D03*
X62851714Y-136508772D03*
X62851714Y-139048772D03*
X65391714Y-136508772D03*
X65391714Y-139048772D03*
X67931714Y-136508772D03*
X67931714Y-139048772D03*
X70471714Y-136508772D03*
X70471714Y-139048772D03*
X73011714Y-136508772D03*
X73011714Y-139048772D03*
X75551714Y-136508772D03*
X75551714Y-139048772D03*
X78091714Y-136508772D03*
X78091714Y-139048772D03*
X80631714Y-136508772D03*
X80631714Y-139048772D03*
X83171714Y-136508772D03*
X83171714Y-139048772D03*
X85711714Y-139048772D03*
X85721714Y-136508772D03*
X88251714Y-136508772D03*
X88251714Y-139048772D03*
X90791714Y-136508772D03*
X90791714Y-139048772D03*
X93331714Y-136508772D03*
X93331714Y-139048772D03*
X95871714Y-136508772D03*
X95871714Y-139048772D03*
X98411714Y-136508772D03*
X98411714Y-139048772D03*
X100951714Y-136508772D03*
X100951714Y-139048772D03*
X103491714Y-136508772D03*
X103491714Y-139048772D03*
X106031714Y-136508772D03*
X106031714Y-139048772D03*
D13*
%TO.C,J3*%
X23385821Y-36750495D03*
X23385821Y-100250495D03*
%TO.C,J1*%
X34851764Y-25185000D03*
%TO.C,J2*%
X34851764Y-111625000D03*
%TO.C,J1*%
X98351764Y-25185000D03*
%TO.C,J2*%
X98351764Y-111625000D03*
%TO.C,J4*%
X109825821Y-36750495D03*
X109825821Y-100250495D03*
M02*
