%TF.GenerationSoftware,KiCad,Pcbnew,9.0.0*%
%TF.CreationDate,2025-03-27T09:57:11+01:00*%
%TF.ProjectId,Cabletester_Base_Board_v1,4361626c-6574-4657-9374-65725f426173,v1*%
%TF.SameCoordinates,PX121eac0PY1312d00*%
%TF.FileFunction,Drillmap*%
%TF.FilePolarity,Positive*%
%FSLAX45Y45*%
G04 Gerber Fmt 4.5, Leading zero omitted, Abs format (unit mm)*
G04 Created by KiCad (PCBNEW 9.0.0) date 2025-03-27 09:57:11*
%MOMM*%
%LPD*%
G01*
G04 APERTURE LIST*
%ADD10C,0.050000*%
%ADD11C,0.200000*%
%ADD12C,0.100000*%
%ADD13C,0.110000*%
%ADD14C,0.320000*%
G04 APERTURE END LIST*
D10*
X1359000Y-722652D02*
X1358386Y-722652D01*
X2066746Y-723160D02*
X2066746Y-722652D01*
X1200138Y-879828D02*
G75*
G02*
X1358386Y-722655I158252J-1082D01*
G01*
X2211165Y-13142882D02*
G75*
G02*
X2368574Y-13301631I-1335J-158738D01*
G01*
X12120386Y-13007869D02*
G75*
G02*
X11961061Y-13142875I-156986J23749D01*
G01*
X2528539Y-14412872D02*
X10797381Y-14412874D01*
X10321690Y-953105D02*
X9940690Y-723235D01*
X2979910Y-953030D02*
X3360910Y-723160D01*
X1359000Y-722652D02*
X2066746Y-722652D01*
X1200176Y-12983145D02*
X1200138Y-879828D01*
X11961665Y-723165D02*
X11234853Y-723235D01*
X10953771Y-13301630D02*
X10953772Y-14254120D01*
X10321725Y-1183009D02*
X10321690Y-953105D01*
X2066746Y-723160D02*
X2447746Y-953030D01*
X2528539Y-14412872D02*
G75*
G02*
X2368576Y-14255079I-1209J158752D01*
G01*
X3360910Y-723160D02*
X9940690Y-723235D01*
X12120386Y-883172D02*
X12120386Y-13007869D01*
X10953771Y-13301630D02*
G75*
G02*
X11112515Y-13142891I158739J0D01*
G01*
X10853853Y-953105D02*
X10853853Y-1182970D01*
X2368577Y-13301631D02*
X2368576Y-14255079D01*
X11961061Y-13142874D02*
X11112515Y-13142884D01*
X11234853Y-723235D02*
X10853853Y-953105D01*
X10953772Y-14254120D02*
G75*
G02*
X10797381Y-14412874I-158772J0D01*
G01*
X1360150Y-13142872D02*
X2211165Y-13142882D01*
X2979874Y-1182939D02*
G75*
G02*
X2447746Y-1183414I-266064J41D01*
G01*
X2979874Y-1182939D02*
X2979910Y-953030D01*
X10853853Y-1182970D02*
G75*
G02*
X10321727Y-1183009I-266063J0D01*
G01*
X2447746Y-953030D02*
X2447746Y-1183414D01*
X1360150Y-13142872D02*
G75*
G02*
X1200176Y-12983145I-1220J158752D01*
G01*
X11961665Y-723198D02*
G75*
G02*
X12120386Y-883172I15J-158712D01*
G01*
D11*
D12*
X1985000Y-12785000D02*
X2015000Y-12815000D01*
X2015000Y-12785000D02*
X1985000Y-12815000D01*
X2085000Y-12585000D02*
X2115000Y-12615000D01*
X2115000Y-12585000D02*
X2085000Y-12615000D01*
X2185000Y-2585000D02*
X2215000Y-2615000D01*
X2215000Y-2585000D02*
X2185000Y-2615000D01*
X2185000Y-12385000D02*
X2215000Y-12415000D01*
X2215000Y-12385000D02*
X2185000Y-12415000D01*
X2185000Y-12785000D02*
X2215000Y-12815000D01*
X2215000Y-12785000D02*
X2185000Y-12815000D01*
X2285000Y-2385000D02*
X2315000Y-2415000D01*
X2315000Y-2385000D02*
X2285000Y-2415000D01*
X2285000Y-12585000D02*
X2315000Y-12615000D01*
X2315000Y-12585000D02*
X2285000Y-12615000D01*
X2385000Y-2185000D02*
X2415000Y-2215000D01*
X2415000Y-2185000D02*
X2385000Y-2215000D01*
X2385000Y-2585000D02*
X2415000Y-2615000D01*
X2415000Y-2585000D02*
X2385000Y-2615000D01*
X2385000Y-12785000D02*
X2415000Y-12815000D01*
X2415000Y-12785000D02*
X2385000Y-12815000D01*
X2485000Y-2385000D02*
X2515000Y-2415000D01*
X2515000Y-2385000D02*
X2485000Y-2415000D01*
X2585000Y-2585000D02*
X2615000Y-2615000D01*
X2615000Y-2585000D02*
X2585000Y-2615000D01*
X3231549Y-3842000D02*
X3261549Y-3872000D01*
X3261549Y-3842000D02*
X3231549Y-3872000D01*
X3297049Y-3932500D02*
X3327049Y-3962500D01*
X3327049Y-3932500D02*
X3297049Y-3962500D01*
X3355799Y-4008750D02*
X3385799Y-4038750D01*
X3385799Y-4008750D02*
X3355799Y-4038750D01*
X3416549Y-4092000D02*
X3446549Y-4122000D01*
X3446549Y-4092000D02*
X3416549Y-4122000D01*
X3474549Y-4162500D02*
X3504549Y-4192500D01*
X3504549Y-4162500D02*
X3474549Y-4192500D01*
X3532174Y-4245125D02*
X3562174Y-4275125D01*
X3562174Y-4245125D02*
X3532174Y-4275125D01*
X3585799Y-4318750D02*
X3615799Y-4348750D01*
X3615799Y-4318750D02*
X3585799Y-4348750D01*
X3589549Y-12090000D02*
X3619549Y-12120000D01*
X3619549Y-12090000D02*
X3589549Y-12120000D01*
X3644114Y-12023750D02*
X3674114Y-12053750D01*
X3674114Y-12023750D02*
X3644114Y-12053750D01*
X3647549Y-4403000D02*
X3677549Y-4433000D01*
X3677549Y-4403000D02*
X3647549Y-4433000D01*
X3697029Y-11963750D02*
X3727029Y-11993750D01*
X3727029Y-11963750D02*
X3697029Y-11993750D01*
X3707049Y-4482500D02*
X3737049Y-4512500D01*
X3737049Y-4482500D02*
X3707049Y-4512500D01*
X3747581Y-11901746D02*
X3777581Y-11931746D01*
X3777581Y-11901746D02*
X3747581Y-11931746D01*
X3801247Y-11840000D02*
X3831247Y-11870000D01*
X3831247Y-11840000D02*
X3801247Y-11870000D01*
X3854862Y-11780000D02*
X3884862Y-11810000D01*
X3884862Y-11780000D02*
X3854862Y-11810000D01*
X3907364Y-11719638D02*
X3937364Y-11749638D01*
X3937364Y-11719638D02*
X3907364Y-11749638D01*
X3911386Y-11479794D02*
X3941386Y-11509794D01*
X3941386Y-11479794D02*
X3911386Y-11509794D01*
X3962049Y-11660000D02*
X3992049Y-11690000D01*
X3992049Y-11660000D02*
X3962049Y-11690000D01*
X4017049Y-11600000D02*
X4047049Y-11630000D01*
X4047049Y-11600000D02*
X4017049Y-11630000D01*
X4069730Y-11539794D02*
X4099730Y-11569794D01*
X4099730Y-11539794D02*
X4069730Y-11569794D01*
X4151475Y-7863926D02*
X4181475Y-7893926D01*
X4181475Y-7863926D02*
X4151475Y-7893926D01*
X4156549Y-10206000D02*
X4186549Y-10236000D01*
X4186549Y-10206000D02*
X4156549Y-10236000D01*
X4287976Y-7591426D02*
X4317976Y-7621426D01*
X4317976Y-7591426D02*
X4287976Y-7621426D01*
X4288549Y-10149000D02*
X4318549Y-10179000D01*
X4318549Y-10149000D02*
X4288549Y-10179000D01*
X4425549Y-10075000D02*
X4455549Y-10105000D01*
X4455549Y-10075000D02*
X4425549Y-10105000D01*
X4429976Y-7315426D02*
X4459976Y-7345426D01*
X4459976Y-7315426D02*
X4429976Y-7345426D01*
X4567476Y-7037926D02*
X4597476Y-7067926D01*
X4597476Y-7037926D02*
X4567476Y-7067926D01*
X4578549Y-10015000D02*
X4608549Y-10045000D01*
X4608549Y-10015000D02*
X4578549Y-10045000D01*
X4706476Y-6755926D02*
X4736476Y-6785926D01*
X4736476Y-6755926D02*
X4706476Y-6785926D01*
X4718549Y-9955000D02*
X4748549Y-9985000D01*
X4748549Y-9955000D02*
X4718549Y-9985000D01*
X4845539Y-6480863D02*
X4875539Y-6510863D01*
X4875539Y-6480863D02*
X4845539Y-6510863D01*
X4856549Y-9893000D02*
X4886549Y-9923000D01*
X4886549Y-9893000D02*
X4856549Y-9923000D01*
X4976549Y-9833000D02*
X5006549Y-9863000D01*
X5006549Y-9833000D02*
X4976549Y-9863000D01*
X4983176Y-2830000D02*
X5013176Y-2860000D01*
X5013176Y-2830000D02*
X4983176Y-2860000D01*
X4984476Y-6203926D02*
X5014476Y-6233926D01*
X5014476Y-6203926D02*
X4984476Y-6233926D01*
X5085000Y-8385000D02*
X5115000Y-8415000D01*
X5115000Y-8385000D02*
X5085000Y-8415000D01*
X5085000Y-8767000D02*
X5115000Y-8797000D01*
X5115000Y-8767000D02*
X5085000Y-8797000D01*
X5116476Y-5935926D02*
X5146476Y-5965926D01*
X5146476Y-5935926D02*
X5116476Y-5965926D01*
X5116549Y-2890000D02*
X5146549Y-2920000D01*
X5146549Y-2890000D02*
X5116549Y-2920000D01*
X5125549Y-9773000D02*
X5155549Y-9803000D01*
X5155549Y-9773000D02*
X5125549Y-9803000D01*
X5185000Y-8185000D02*
X5215000Y-8215000D01*
X5215000Y-8185000D02*
X5185000Y-8215000D01*
X5185000Y-8967000D02*
X5215000Y-8997000D01*
X5215000Y-8967000D02*
X5185000Y-8997000D01*
X5260176Y-2950000D02*
X5290176Y-2980000D01*
X5290176Y-2950000D02*
X5260176Y-2980000D01*
X5260476Y-5649926D02*
X5290476Y-5679926D01*
X5290476Y-5649926D02*
X5260476Y-5679926D01*
X5263549Y-9713000D02*
X5293549Y-9743000D01*
X5293549Y-9713000D02*
X5263549Y-9743000D01*
X5285000Y-7985000D02*
X5315000Y-8015000D01*
X5315000Y-7985000D02*
X5285000Y-8015000D01*
X5285000Y-8385000D02*
X5315000Y-8415000D01*
X5315000Y-8385000D02*
X5285000Y-8415000D01*
X5285000Y-8767000D02*
X5315000Y-8797000D01*
X5315000Y-8767000D02*
X5285000Y-8797000D01*
X5285000Y-9167000D02*
X5315000Y-9197000D01*
X5315000Y-9167000D02*
X5285000Y-9197000D01*
X5385000Y-6285000D02*
X5415000Y-6315000D01*
X5415000Y-6285000D02*
X5385000Y-6315000D01*
X5385000Y-8185000D02*
X5415000Y-8215000D01*
X5415000Y-8185000D02*
X5385000Y-8215000D01*
X5385000Y-8967000D02*
X5415000Y-8997000D01*
X5415000Y-8967000D02*
X5385000Y-8997000D01*
X5398476Y-5377927D02*
X5428476Y-5407927D01*
X5428476Y-5377927D02*
X5398476Y-5407927D01*
X5398549Y-9653000D02*
X5428549Y-9683000D01*
X5428549Y-9653000D02*
X5398549Y-9683000D01*
X5398676Y-3010000D02*
X5428676Y-3040000D01*
X5428676Y-3010000D02*
X5398676Y-3040000D01*
X5485000Y-6085000D02*
X5515000Y-6115000D01*
X5515000Y-6085000D02*
X5485000Y-6115000D01*
X5485000Y-8385000D02*
X5515000Y-8415000D01*
X5515000Y-8385000D02*
X5485000Y-8415000D01*
X5485000Y-8767000D02*
X5515000Y-8797000D01*
X5515000Y-8767000D02*
X5485000Y-8797000D01*
X5536549Y-9593000D02*
X5566549Y-9623000D01*
X5566549Y-9593000D02*
X5536549Y-9623000D01*
X5537176Y-3070000D02*
X5567176Y-3100000D01*
X5567176Y-3070000D02*
X5537176Y-3100000D01*
X5537176Y-5202000D02*
X5567176Y-5232000D01*
X5567176Y-5202000D02*
X5537176Y-5232000D01*
X5585000Y-5885000D02*
X5615000Y-5915000D01*
X5615000Y-5885000D02*
X5585000Y-5915000D01*
X5585000Y-6285000D02*
X5615000Y-6315000D01*
X5615000Y-6285000D02*
X5585000Y-6315000D01*
X5675676Y-3130000D02*
X5705676Y-3160000D01*
X5705676Y-3130000D02*
X5675676Y-3160000D01*
X5675676Y-5142000D02*
X5705676Y-5172000D01*
X5705676Y-5142000D02*
X5675676Y-5172000D01*
X5685000Y-6085000D02*
X5715000Y-6115000D01*
X5715000Y-6085000D02*
X5685000Y-6115000D01*
X5689549Y-9533000D02*
X5719549Y-9563000D01*
X5719549Y-9533000D02*
X5689549Y-9563000D01*
X5760000Y-8761000D02*
X5790000Y-8791000D01*
X5790000Y-8761000D02*
X5760000Y-8791000D01*
X5785000Y-6285000D02*
X5815000Y-6315000D01*
X5815000Y-6285000D02*
X5785000Y-6315000D01*
X5785000Y-7985000D02*
X5815000Y-8015000D01*
X5815000Y-7985000D02*
X5785000Y-8015000D01*
X5814176Y-3190000D02*
X5844176Y-3220000D01*
X5844176Y-3190000D02*
X5814176Y-3220000D01*
X5814176Y-5082000D02*
X5844176Y-5112000D01*
X5844176Y-5082000D02*
X5814176Y-5112000D01*
X5827549Y-9473000D02*
X5857549Y-9503000D01*
X5857549Y-9473000D02*
X5827549Y-9503000D01*
X5860000Y-8961000D02*
X5890000Y-8991000D01*
X5890000Y-8961000D02*
X5860000Y-8991000D01*
X5885000Y-8185000D02*
X5915000Y-8215000D01*
X5915000Y-8185000D02*
X5885000Y-8215000D01*
X5952676Y-3252500D02*
X5982676Y-3282500D01*
X5982676Y-3252500D02*
X5952676Y-3282500D01*
X5952676Y-5022000D02*
X5982676Y-5052000D01*
X5982676Y-5022000D02*
X5952676Y-5052000D01*
X5953549Y-9413000D02*
X5983549Y-9443000D01*
X5983549Y-9413000D02*
X5953549Y-9443000D01*
X5960000Y-8761000D02*
X5990000Y-8791000D01*
X5990000Y-8761000D02*
X5960000Y-8791000D01*
X5960000Y-9161000D02*
X5990000Y-9191000D01*
X5990000Y-9161000D02*
X5960000Y-9191000D01*
X5985000Y-7985000D02*
X6015000Y-8015000D01*
X6015000Y-7985000D02*
X5985000Y-8015000D01*
X5985000Y-8385000D02*
X6015000Y-8415000D01*
X6015000Y-8385000D02*
X5985000Y-8415000D01*
X6060000Y-8961000D02*
X6090000Y-8991000D01*
X6090000Y-8961000D02*
X6060000Y-8991000D01*
X6085000Y-5885000D02*
X6115000Y-5915000D01*
X6115000Y-5885000D02*
X6085000Y-5915000D01*
X6085000Y-8185000D02*
X6115000Y-8215000D01*
X6115000Y-8185000D02*
X6085000Y-8215000D01*
X6090549Y-9352000D02*
X6120549Y-9382000D01*
X6120549Y-9352000D02*
X6090549Y-9382000D01*
X6091176Y-3312500D02*
X6121176Y-3342500D01*
X6121176Y-3312500D02*
X6091176Y-3342500D01*
X6091176Y-4962000D02*
X6121176Y-4992000D01*
X6121176Y-4962000D02*
X6091176Y-4992000D01*
X6160000Y-8761000D02*
X6190000Y-8791000D01*
X6190000Y-8761000D02*
X6160000Y-8791000D01*
X6185000Y-6085000D02*
X6215000Y-6115000D01*
X6215000Y-6085000D02*
X6185000Y-6115000D01*
X6185000Y-7985000D02*
X6215000Y-8015000D01*
X6215000Y-7985000D02*
X6185000Y-8015000D01*
X6229676Y-3372500D02*
X6259676Y-3402500D01*
X6259676Y-3372500D02*
X6229676Y-3402500D01*
X6229676Y-4902000D02*
X6259676Y-4932000D01*
X6259676Y-4902000D02*
X6229676Y-4932000D01*
X6240549Y-9291000D02*
X6270549Y-9321000D01*
X6270549Y-9291000D02*
X6240549Y-9321000D01*
X6285000Y-5885000D02*
X6315000Y-5915000D01*
X6315000Y-5885000D02*
X6285000Y-5915000D01*
X6285000Y-6285000D02*
X6315000Y-6315000D01*
X6315000Y-6285000D02*
X6285000Y-6315000D01*
X6368176Y-3432500D02*
X6398176Y-3462500D01*
X6398176Y-3432500D02*
X6368176Y-3462500D01*
X6368176Y-4842000D02*
X6398176Y-4872000D01*
X6398176Y-4842000D02*
X6368176Y-4872000D01*
X6368176Y-9231000D02*
X6398176Y-9261000D01*
X6398176Y-9231000D02*
X6368176Y-9261000D01*
X6385000Y-6085000D02*
X6415000Y-6115000D01*
X6415000Y-6085000D02*
X6385000Y-6115000D01*
X6485000Y-5885000D02*
X6515000Y-5915000D01*
X6515000Y-5885000D02*
X6485000Y-5915000D01*
X6485000Y-8385000D02*
X6515000Y-8415000D01*
X6515000Y-8385000D02*
X6485000Y-8415000D01*
X6506549Y-9171000D02*
X6536549Y-9201000D01*
X6536549Y-9171000D02*
X6506549Y-9201000D01*
X6506676Y-3492500D02*
X6536676Y-3522500D01*
X6536676Y-3492500D02*
X6506676Y-3522500D01*
X6506676Y-4782000D02*
X6536676Y-4812000D01*
X6536676Y-4782000D02*
X6506676Y-4812000D01*
X6585000Y-8185000D02*
X6615000Y-8215000D01*
X6615000Y-8185000D02*
X6585000Y-8215000D01*
X6645176Y-4722000D02*
X6675176Y-4752000D01*
X6675176Y-4722000D02*
X6645176Y-4752000D01*
X6645176Y-9111000D02*
X6675176Y-9141000D01*
X6675176Y-9111000D02*
X6645176Y-9141000D01*
X6685000Y-7985000D02*
X6715000Y-8015000D01*
X6715000Y-7985000D02*
X6685000Y-8015000D01*
X6685000Y-8385000D02*
X6715000Y-8415000D01*
X6715000Y-8385000D02*
X6685000Y-8415000D01*
X6783676Y-4664000D02*
X6813676Y-4694000D01*
X6813676Y-4664000D02*
X6783676Y-4694000D01*
X6783676Y-9051000D02*
X6813676Y-9081000D01*
X6813676Y-9051000D02*
X6783676Y-9081000D01*
X6785000Y-6285000D02*
X6815000Y-6315000D01*
X6815000Y-6285000D02*
X6785000Y-6315000D01*
X6785000Y-8185000D02*
X6815000Y-8215000D01*
X6815000Y-8185000D02*
X6785000Y-8215000D01*
X6885000Y-6085000D02*
X6915000Y-6115000D01*
X6915000Y-6085000D02*
X6885000Y-6115000D01*
X6885000Y-8385000D02*
X6915000Y-8415000D01*
X6915000Y-8385000D02*
X6885000Y-8415000D01*
X6922176Y-4604000D02*
X6952176Y-4634000D01*
X6952176Y-4604000D02*
X6922176Y-4634000D01*
X6935549Y-8991000D02*
X6965549Y-9021000D01*
X6965549Y-8991000D02*
X6935549Y-9021000D01*
X6985000Y-5885000D02*
X7015000Y-5915000D01*
X7015000Y-5885000D02*
X6985000Y-5915000D01*
X6985000Y-6285000D02*
X7015000Y-6315000D01*
X7015000Y-6285000D02*
X6985000Y-6315000D01*
X7060676Y-4544000D02*
X7090676Y-4574000D01*
X7090676Y-4544000D02*
X7060676Y-4574000D01*
X7060676Y-8931000D02*
X7090676Y-8961000D01*
X7090676Y-8931000D02*
X7060676Y-8961000D01*
X7085000Y-6085000D02*
X7115000Y-6115000D01*
X7115000Y-6085000D02*
X7085000Y-6115000D01*
X7185000Y-6285000D02*
X7215000Y-6315000D01*
X7215000Y-6285000D02*
X7185000Y-6315000D01*
X7185000Y-7985000D02*
X7215000Y-8015000D01*
X7215000Y-7985000D02*
X7185000Y-8015000D01*
X7199176Y-4483000D02*
X7229176Y-4513000D01*
X7229176Y-4483000D02*
X7199176Y-4513000D01*
X7199176Y-8871000D02*
X7229176Y-8901000D01*
X7229176Y-8871000D02*
X7199176Y-8901000D01*
X7285000Y-8185000D02*
X7315000Y-8215000D01*
X7315000Y-8185000D02*
X7285000Y-8215000D01*
X7337676Y-4423000D02*
X7367676Y-4453000D01*
X7367676Y-4423000D02*
X7337676Y-4453000D01*
X7337676Y-8811000D02*
X7367676Y-8841000D01*
X7367676Y-8811000D02*
X7337676Y-8841000D01*
X7385000Y-7985000D02*
X7415000Y-8015000D01*
X7415000Y-7985000D02*
X7385000Y-8015000D01*
X7385000Y-8385000D02*
X7415000Y-8415000D01*
X7415000Y-8385000D02*
X7385000Y-8415000D01*
X7476176Y-4363000D02*
X7506176Y-4393000D01*
X7506176Y-4363000D02*
X7476176Y-4393000D01*
X7476176Y-8751000D02*
X7506176Y-8781000D01*
X7506176Y-8751000D02*
X7476176Y-8781000D01*
X7485000Y-5885000D02*
X7515000Y-5915000D01*
X7515000Y-5885000D02*
X7485000Y-5915000D01*
X7485000Y-8185000D02*
X7515000Y-8215000D01*
X7515000Y-8185000D02*
X7485000Y-8215000D01*
X7585000Y-6085000D02*
X7615000Y-6115000D01*
X7615000Y-6085000D02*
X7585000Y-6115000D01*
X7585000Y-7985000D02*
X7615000Y-8015000D01*
X7615000Y-7985000D02*
X7585000Y-8015000D01*
X7614676Y-4303000D02*
X7644676Y-4333000D01*
X7644676Y-4303000D02*
X7614676Y-4333000D01*
X7616622Y-8643074D02*
X7646622Y-8673074D01*
X7646622Y-8643074D02*
X7616622Y-8673074D01*
X7685000Y-5885000D02*
X7715000Y-5915000D01*
X7715000Y-5885000D02*
X7685000Y-5915000D01*
X7685000Y-6285000D02*
X7715000Y-6315000D01*
X7715000Y-6285000D02*
X7685000Y-6315000D01*
X7752936Y-8362760D02*
X7782936Y-8392760D01*
X7782936Y-8362760D02*
X7752936Y-8392760D01*
X7753176Y-4244000D02*
X7783176Y-4274000D01*
X7783176Y-4244000D02*
X7753176Y-4274000D01*
X7785000Y-6085000D02*
X7815000Y-6115000D01*
X7815000Y-6085000D02*
X7785000Y-6115000D01*
X7885000Y-5885000D02*
X7915000Y-5915000D01*
X7915000Y-5885000D02*
X7885000Y-5915000D01*
X7891676Y-4184000D02*
X7921676Y-4214000D01*
X7921676Y-4184000D02*
X7891676Y-4214000D01*
X7891676Y-8082000D02*
X7921676Y-8112000D01*
X7921676Y-8082000D02*
X7891676Y-8112000D01*
X8030176Y-4124000D02*
X8060176Y-4154000D01*
X8060176Y-4124000D02*
X8030176Y-4154000D01*
X8030176Y-7809000D02*
X8060176Y-7839000D01*
X8060176Y-7809000D02*
X8030176Y-7839000D01*
X8168676Y-4064000D02*
X8198676Y-4094000D01*
X8198676Y-4064000D02*
X8168676Y-4094000D01*
X8168676Y-7498000D02*
X8198676Y-7528000D01*
X8198676Y-7498000D02*
X8168676Y-7528000D01*
X8306936Y-7256760D02*
X8336936Y-7286760D01*
X8336936Y-7256760D02*
X8306936Y-7286760D01*
X8307176Y-4004000D02*
X8337176Y-4034000D01*
X8337176Y-4004000D02*
X8307176Y-4034000D01*
X8445676Y-3944000D02*
X8475676Y-3974000D01*
X8475676Y-3944000D02*
X8445676Y-3974000D01*
X8445676Y-6982647D02*
X8475676Y-7012647D01*
X8475676Y-6982647D02*
X8445676Y-7012647D01*
X8583936Y-6706760D02*
X8613936Y-6736760D01*
X8613936Y-6706760D02*
X8583936Y-6736760D01*
X8584176Y-3885000D02*
X8614176Y-3915000D01*
X8614176Y-3885000D02*
X8584176Y-3915000D01*
X8722123Y-6448573D02*
X8752123Y-6478573D01*
X8752123Y-6448573D02*
X8722123Y-6478573D01*
X8722676Y-3825000D02*
X8752676Y-3855000D01*
X8752676Y-3825000D02*
X8722676Y-3855000D01*
X8741386Y-11479794D02*
X8771386Y-11509794D01*
X8771386Y-11479794D02*
X8741386Y-11509794D01*
X8861000Y-6155823D02*
X8891000Y-6185823D01*
X8891000Y-6155823D02*
X8861000Y-6185823D01*
X8861212Y-3765000D02*
X8891212Y-3795000D01*
X8891212Y-3765000D02*
X8861212Y-3795000D01*
X8999676Y-3704500D02*
X9029676Y-3734500D01*
X9029676Y-3704500D02*
X8999676Y-3734500D01*
X8999676Y-5870000D02*
X9029676Y-5900000D01*
X9029676Y-5870000D02*
X8999676Y-5900000D01*
X9137436Y-5603260D02*
X9167436Y-5633260D01*
X9167436Y-5603260D02*
X9137436Y-5633260D01*
X9138176Y-3644500D02*
X9168176Y-3674500D01*
X9168176Y-3644500D02*
X9138176Y-3674500D01*
X9494549Y-3492500D02*
X9524549Y-3522500D01*
X9524549Y-3492500D02*
X9494549Y-3522500D01*
X9556868Y-3432706D02*
X9586868Y-3462706D01*
X9586868Y-3432706D02*
X9556868Y-3462706D01*
X9609549Y-3372500D02*
X9639549Y-3402500D01*
X9639549Y-3372500D02*
X9609549Y-3402500D01*
X9699549Y-3312500D02*
X9729549Y-3342500D01*
X9729549Y-3312500D02*
X9699549Y-3342500D01*
X9792049Y-3252500D02*
X9822049Y-3282500D01*
X9822049Y-3252500D02*
X9792049Y-3282500D01*
X9887049Y-3190000D02*
X9917049Y-3220000D01*
X9917049Y-3190000D02*
X9887049Y-3220000D01*
X9979549Y-3130000D02*
X10009549Y-3160000D01*
X10009549Y-3130000D02*
X9979549Y-3160000D01*
X10079549Y-3070000D02*
X10109549Y-3100000D01*
X10109549Y-3070000D02*
X10079549Y-3100000D01*
X10167049Y-3010000D02*
X10197049Y-3040000D01*
X10197049Y-3010000D02*
X10167049Y-3040000D01*
X10267049Y-2950000D02*
X10297049Y-2980000D01*
X10297049Y-2950000D02*
X10267049Y-2980000D01*
X10357049Y-2890000D02*
X10387049Y-2920000D01*
X10387049Y-2890000D02*
X10357049Y-2920000D01*
X10449549Y-2830000D02*
X10479549Y-2860000D01*
X10479549Y-2830000D02*
X10449549Y-2860000D01*
X10685000Y-2585000D02*
X10715000Y-2615000D01*
X10715000Y-2585000D02*
X10685000Y-2615000D01*
X10785000Y-2385000D02*
X10815000Y-2415000D01*
X10815000Y-2385000D02*
X10785000Y-2415000D01*
X10885000Y-2185000D02*
X10915000Y-2215000D01*
X10915000Y-2185000D02*
X10885000Y-2215000D01*
X10885000Y-2585000D02*
X10915000Y-2615000D01*
X10915000Y-2585000D02*
X10885000Y-2615000D01*
X10885000Y-12785000D02*
X10915000Y-12815000D01*
X10915000Y-12785000D02*
X10885000Y-12815000D01*
X10985000Y-2385000D02*
X11015000Y-2415000D01*
X11015000Y-2385000D02*
X10985000Y-2415000D01*
X10985000Y-12585000D02*
X11015000Y-12615000D01*
X11015000Y-12585000D02*
X10985000Y-12615000D01*
X11085000Y-2585000D02*
X11115000Y-2615000D01*
X11115000Y-2585000D02*
X11085000Y-2615000D01*
X11085000Y-12385000D02*
X11115000Y-12415000D01*
X11115000Y-12385000D02*
X11085000Y-12415000D01*
X11085000Y-12785000D02*
X11115000Y-12815000D01*
X11115000Y-12785000D02*
X11085000Y-12815000D01*
X11185000Y-12585000D02*
X11215000Y-12615000D01*
X11215000Y-12585000D02*
X11185000Y-12615000D01*
X11285000Y-12785000D02*
X11315000Y-12815000D01*
X11315000Y-12785000D02*
X11285000Y-12815000D01*
X2246582Y-4495550D02*
G75*
G02*
X2146582Y-4495550I-50000J0D01*
G01*
X2146582Y-4495550D02*
G75*
G02*
X2246582Y-4495550I50000J0D01*
G01*
X2246582Y-4772550D02*
G75*
G02*
X2146582Y-4772550I-50000J0D01*
G01*
X2146582Y-4772550D02*
G75*
G02*
X2246582Y-4772550I50000J0D01*
G01*
X2246582Y-5049550D02*
G75*
G02*
X2146582Y-5049550I-50000J0D01*
G01*
X2146582Y-5049550D02*
G75*
G02*
X2246582Y-5049550I50000J0D01*
G01*
X2246582Y-5326550D02*
G75*
G02*
X2146582Y-5326550I-50000J0D01*
G01*
X2146582Y-5326550D02*
G75*
G02*
X2246582Y-5326550I50000J0D01*
G01*
X2246582Y-5603549D02*
G75*
G02*
X2146582Y-5603549I-50000J0D01*
G01*
X2146582Y-5603549D02*
G75*
G02*
X2246582Y-5603549I50000J0D01*
G01*
X2246582Y-5880549D02*
G75*
G02*
X2146582Y-5880549I-50000J0D01*
G01*
X2146582Y-5880549D02*
G75*
G02*
X2246582Y-5880549I50000J0D01*
G01*
X2246582Y-6157549D02*
G75*
G02*
X2146582Y-6157549I-50000J0D01*
G01*
X2146582Y-6157549D02*
G75*
G02*
X2246582Y-6157549I50000J0D01*
G01*
X2246582Y-6434549D02*
G75*
G02*
X2146582Y-6434549I-50000J0D01*
G01*
X2146582Y-6434549D02*
G75*
G02*
X2246582Y-6434549I50000J0D01*
G01*
X2246582Y-6711549D02*
G75*
G02*
X2146582Y-6711549I-50000J0D01*
G01*
X2146582Y-6711549D02*
G75*
G02*
X2246582Y-6711549I50000J0D01*
G01*
X2246582Y-6988549D02*
G75*
G02*
X2146582Y-6988549I-50000J0D01*
G01*
X2146582Y-6988549D02*
G75*
G02*
X2246582Y-6988549I50000J0D01*
G01*
X2246582Y-7265549D02*
G75*
G02*
X2146582Y-7265549I-50000J0D01*
G01*
X2146582Y-7265549D02*
G75*
G02*
X2246582Y-7265549I50000J0D01*
G01*
X2246582Y-7542549D02*
G75*
G02*
X2146582Y-7542549I-50000J0D01*
G01*
X2146582Y-7542549D02*
G75*
G02*
X2246582Y-7542549I50000J0D01*
G01*
X2246582Y-7819549D02*
G75*
G02*
X2146582Y-7819549I-50000J0D01*
G01*
X2146582Y-7819549D02*
G75*
G02*
X2246582Y-7819549I50000J0D01*
G01*
X2246582Y-8096549D02*
G75*
G02*
X2146582Y-8096549I-50000J0D01*
G01*
X2146582Y-8096549D02*
G75*
G02*
X2246582Y-8096549I50000J0D01*
G01*
X2246582Y-8373549D02*
G75*
G02*
X2146582Y-8373549I-50000J0D01*
G01*
X2146582Y-8373549D02*
G75*
G02*
X2246582Y-8373549I50000J0D01*
G01*
X2246582Y-8650550D02*
G75*
G02*
X2146582Y-8650550I-50000J0D01*
G01*
X2146582Y-8650550D02*
G75*
G02*
X2246582Y-8650550I50000J0D01*
G01*
X2246582Y-8927550D02*
G75*
G02*
X2146582Y-8927550I-50000J0D01*
G01*
X2146582Y-8927550D02*
G75*
G02*
X2246582Y-8927550I50000J0D01*
G01*
X2246582Y-9204550D02*
G75*
G02*
X2146582Y-9204550I-50000J0D01*
G01*
X2146582Y-9204550D02*
G75*
G02*
X2246582Y-9204550I50000J0D01*
G01*
X2530582Y-4357050D02*
G75*
G02*
X2430582Y-4357050I-50000J0D01*
G01*
X2430582Y-4357050D02*
G75*
G02*
X2530582Y-4357050I50000J0D01*
G01*
X2530582Y-4634050D02*
G75*
G02*
X2430582Y-4634050I-50000J0D01*
G01*
X2430582Y-4634050D02*
G75*
G02*
X2530582Y-4634050I50000J0D01*
G01*
X2530582Y-4911050D02*
G75*
G02*
X2430582Y-4911050I-50000J0D01*
G01*
X2430582Y-4911050D02*
G75*
G02*
X2530582Y-4911050I50000J0D01*
G01*
X2530582Y-5188050D02*
G75*
G02*
X2430582Y-5188050I-50000J0D01*
G01*
X2430582Y-5188050D02*
G75*
G02*
X2530582Y-5188050I50000J0D01*
G01*
X2530582Y-5465050D02*
G75*
G02*
X2430582Y-5465050I-50000J0D01*
G01*
X2430582Y-5465050D02*
G75*
G02*
X2530582Y-5465050I50000J0D01*
G01*
X2530582Y-5742049D02*
G75*
G02*
X2430582Y-5742049I-50000J0D01*
G01*
X2430582Y-5742049D02*
G75*
G02*
X2530582Y-5742049I50000J0D01*
G01*
X2530582Y-6019049D02*
G75*
G02*
X2430582Y-6019049I-50000J0D01*
G01*
X2430582Y-6019049D02*
G75*
G02*
X2530582Y-6019049I50000J0D01*
G01*
X2530582Y-6296049D02*
G75*
G02*
X2430582Y-6296049I-50000J0D01*
G01*
X2430582Y-6296049D02*
G75*
G02*
X2530582Y-6296049I50000J0D01*
G01*
X2530582Y-6573049D02*
G75*
G02*
X2430582Y-6573049I-50000J0D01*
G01*
X2430582Y-6573049D02*
G75*
G02*
X2530582Y-6573049I50000J0D01*
G01*
X2530582Y-6850049D02*
G75*
G02*
X2430582Y-6850049I-50000J0D01*
G01*
X2430582Y-6850049D02*
G75*
G02*
X2530582Y-6850049I50000J0D01*
G01*
X2530582Y-7127049D02*
G75*
G02*
X2430582Y-7127049I-50000J0D01*
G01*
X2430582Y-7127049D02*
G75*
G02*
X2530582Y-7127049I50000J0D01*
G01*
X2530582Y-7404049D02*
G75*
G02*
X2430582Y-7404049I-50000J0D01*
G01*
X2430582Y-7404049D02*
G75*
G02*
X2530582Y-7404049I50000J0D01*
G01*
X2530582Y-7681049D02*
G75*
G02*
X2430582Y-7681049I-50000J0D01*
G01*
X2430582Y-7681049D02*
G75*
G02*
X2530582Y-7681049I50000J0D01*
G01*
X2530582Y-7958049D02*
G75*
G02*
X2430582Y-7958049I-50000J0D01*
G01*
X2430582Y-7958049D02*
G75*
G02*
X2530582Y-7958049I50000J0D01*
G01*
X2530582Y-8235049D02*
G75*
G02*
X2430582Y-8235049I-50000J0D01*
G01*
X2430582Y-8235049D02*
G75*
G02*
X2530582Y-8235049I50000J0D01*
G01*
X2530582Y-8512050D02*
G75*
G02*
X2430582Y-8512050I-50000J0D01*
G01*
X2430582Y-8512050D02*
G75*
G02*
X2530582Y-8512050I50000J0D01*
G01*
X2530582Y-8789050D02*
G75*
G02*
X2430582Y-8789050I-50000J0D01*
G01*
X2430582Y-8789050D02*
G75*
G02*
X2530582Y-8789050I50000J0D01*
G01*
X2530582Y-9066050D02*
G75*
G02*
X2430582Y-9066050I-50000J0D01*
G01*
X2430582Y-9066050D02*
G75*
G02*
X2530582Y-9066050I50000J0D01*
G01*
X2530582Y-9343050D02*
G75*
G02*
X2430582Y-9343050I-50000J0D01*
G01*
X2430582Y-9343050D02*
G75*
G02*
X2530582Y-9343050I50000J0D01*
G01*
X4217176Y-2660500D02*
G75*
G02*
X4117176Y-2660500I-50000J0D01*
G01*
X4117176Y-2660500D02*
G75*
G02*
X4217176Y-2660500I50000J0D01*
G01*
X4217176Y-11020500D02*
G75*
G02*
X4117176Y-11020500I-50000J0D01*
G01*
X4117176Y-11020500D02*
G75*
G02*
X4217176Y-11020500I50000J0D01*
G01*
X4355676Y-2376500D02*
G75*
G02*
X4255676Y-2376500I-50000J0D01*
G01*
X4255676Y-2376500D02*
G75*
G02*
X4355676Y-2376500I50000J0D01*
G01*
X4355676Y-11304500D02*
G75*
G02*
X4255676Y-11304500I-50000J0D01*
G01*
X4255676Y-11304500D02*
G75*
G02*
X4355676Y-11304500I50000J0D01*
G01*
X4494176Y-2660500D02*
G75*
G02*
X4394176Y-2660500I-50000J0D01*
G01*
X4394176Y-2660500D02*
G75*
G02*
X4494176Y-2660500I50000J0D01*
G01*
X4494176Y-11020500D02*
G75*
G02*
X4394176Y-11020500I-50000J0D01*
G01*
X4394176Y-11020500D02*
G75*
G02*
X4494176Y-11020500I50000J0D01*
G01*
X4632676Y-2376500D02*
G75*
G02*
X4532676Y-2376500I-50000J0D01*
G01*
X4532676Y-2376500D02*
G75*
G02*
X4632676Y-2376500I50000J0D01*
G01*
X4632676Y-11304500D02*
G75*
G02*
X4532676Y-11304500I-50000J0D01*
G01*
X4532676Y-11304500D02*
G75*
G02*
X4632676Y-11304500I50000J0D01*
G01*
X4771176Y-2660500D02*
G75*
G02*
X4671176Y-2660500I-50000J0D01*
G01*
X4671176Y-2660500D02*
G75*
G02*
X4771176Y-2660500I50000J0D01*
G01*
X4771176Y-11020500D02*
G75*
G02*
X4671176Y-11020500I-50000J0D01*
G01*
X4671176Y-11020500D02*
G75*
G02*
X4771176Y-11020500I50000J0D01*
G01*
X4909676Y-2376500D02*
G75*
G02*
X4809676Y-2376500I-50000J0D01*
G01*
X4809676Y-2376500D02*
G75*
G02*
X4909676Y-2376500I50000J0D01*
G01*
X4909676Y-11304500D02*
G75*
G02*
X4809676Y-11304500I-50000J0D01*
G01*
X4809676Y-11304500D02*
G75*
G02*
X4909676Y-11304500I50000J0D01*
G01*
X5048176Y-2660500D02*
G75*
G02*
X4948176Y-2660500I-50000J0D01*
G01*
X4948176Y-2660500D02*
G75*
G02*
X5048176Y-2660500I50000J0D01*
G01*
X5048176Y-11020500D02*
G75*
G02*
X4948176Y-11020500I-50000J0D01*
G01*
X4948176Y-11020500D02*
G75*
G02*
X5048176Y-11020500I50000J0D01*
G01*
X5186676Y-2376500D02*
G75*
G02*
X5086676Y-2376500I-50000J0D01*
G01*
X5086676Y-2376500D02*
G75*
G02*
X5186676Y-2376500I50000J0D01*
G01*
X5186676Y-11304500D02*
G75*
G02*
X5086676Y-11304500I-50000J0D01*
G01*
X5086676Y-11304500D02*
G75*
G02*
X5186676Y-11304500I50000J0D01*
G01*
X5325176Y-2660500D02*
G75*
G02*
X5225176Y-2660500I-50000J0D01*
G01*
X5225176Y-2660500D02*
G75*
G02*
X5325176Y-2660500I50000J0D01*
G01*
X5325176Y-11020500D02*
G75*
G02*
X5225176Y-11020500I-50000J0D01*
G01*
X5225176Y-11020500D02*
G75*
G02*
X5325176Y-11020500I50000J0D01*
G01*
X5463676Y-2376500D02*
G75*
G02*
X5363676Y-2376500I-50000J0D01*
G01*
X5363676Y-2376500D02*
G75*
G02*
X5463676Y-2376500I50000J0D01*
G01*
X5463676Y-11304500D02*
G75*
G02*
X5363676Y-11304500I-50000J0D01*
G01*
X5363676Y-11304500D02*
G75*
G02*
X5463676Y-11304500I50000J0D01*
G01*
X5602176Y-2660500D02*
G75*
G02*
X5502176Y-2660500I-50000J0D01*
G01*
X5502176Y-2660500D02*
G75*
G02*
X5602176Y-2660500I50000J0D01*
G01*
X5602176Y-11020500D02*
G75*
G02*
X5502176Y-11020500I-50000J0D01*
G01*
X5502176Y-11020500D02*
G75*
G02*
X5602176Y-11020500I50000J0D01*
G01*
X5740676Y-2376500D02*
G75*
G02*
X5640676Y-2376500I-50000J0D01*
G01*
X5640676Y-2376500D02*
G75*
G02*
X5740676Y-2376500I50000J0D01*
G01*
X5740676Y-11304500D02*
G75*
G02*
X5640676Y-11304500I-50000J0D01*
G01*
X5640676Y-11304500D02*
G75*
G02*
X5740676Y-11304500I50000J0D01*
G01*
X5879176Y-2660500D02*
G75*
G02*
X5779176Y-2660500I-50000J0D01*
G01*
X5779176Y-2660500D02*
G75*
G02*
X5879176Y-2660500I50000J0D01*
G01*
X5879176Y-11020500D02*
G75*
G02*
X5779176Y-11020500I-50000J0D01*
G01*
X5779176Y-11020500D02*
G75*
G02*
X5879176Y-11020500I50000J0D01*
G01*
X6017676Y-2376500D02*
G75*
G02*
X5917676Y-2376500I-50000J0D01*
G01*
X5917676Y-2376500D02*
G75*
G02*
X6017676Y-2376500I50000J0D01*
G01*
X6017676Y-11304500D02*
G75*
G02*
X5917676Y-11304500I-50000J0D01*
G01*
X5917676Y-11304500D02*
G75*
G02*
X6017676Y-11304500I50000J0D01*
G01*
X6156176Y-2660500D02*
G75*
G02*
X6056176Y-2660500I-50000J0D01*
G01*
X6056176Y-2660500D02*
G75*
G02*
X6156176Y-2660500I50000J0D01*
G01*
X6156176Y-11020500D02*
G75*
G02*
X6056176Y-11020500I-50000J0D01*
G01*
X6056176Y-11020500D02*
G75*
G02*
X6156176Y-11020500I50000J0D01*
G01*
X6294676Y-2376500D02*
G75*
G02*
X6194676Y-2376500I-50000J0D01*
G01*
X6194676Y-2376500D02*
G75*
G02*
X6294676Y-2376500I50000J0D01*
G01*
X6294676Y-11304500D02*
G75*
G02*
X6194676Y-11304500I-50000J0D01*
G01*
X6194676Y-11304500D02*
G75*
G02*
X6294676Y-11304500I50000J0D01*
G01*
X6433176Y-2660500D02*
G75*
G02*
X6333176Y-2660500I-50000J0D01*
G01*
X6333176Y-2660500D02*
G75*
G02*
X6433176Y-2660500I50000J0D01*
G01*
X6433176Y-11020500D02*
G75*
G02*
X6333176Y-11020500I-50000J0D01*
G01*
X6333176Y-11020500D02*
G75*
G02*
X6433176Y-11020500I50000J0D01*
G01*
X6571676Y-2376500D02*
G75*
G02*
X6471676Y-2376500I-50000J0D01*
G01*
X6471676Y-2376500D02*
G75*
G02*
X6571676Y-2376500I50000J0D01*
G01*
X6571676Y-11304500D02*
G75*
G02*
X6471676Y-11304500I-50000J0D01*
G01*
X6471676Y-11304500D02*
G75*
G02*
X6571676Y-11304500I50000J0D01*
G01*
X6710176Y-2660500D02*
G75*
G02*
X6610176Y-2660500I-50000J0D01*
G01*
X6610176Y-2660500D02*
G75*
G02*
X6710176Y-2660500I50000J0D01*
G01*
X6710176Y-11020500D02*
G75*
G02*
X6610176Y-11020500I-50000J0D01*
G01*
X6610176Y-11020500D02*
G75*
G02*
X6710176Y-11020500I50000J0D01*
G01*
X6848676Y-2376500D02*
G75*
G02*
X6748676Y-2376500I-50000J0D01*
G01*
X6748676Y-2376500D02*
G75*
G02*
X6848676Y-2376500I50000J0D01*
G01*
X6848676Y-11304500D02*
G75*
G02*
X6748676Y-11304500I-50000J0D01*
G01*
X6748676Y-11304500D02*
G75*
G02*
X6848676Y-11304500I50000J0D01*
G01*
X6987176Y-2660500D02*
G75*
G02*
X6887176Y-2660500I-50000J0D01*
G01*
X6887176Y-2660500D02*
G75*
G02*
X6987176Y-2660500I50000J0D01*
G01*
X6987176Y-11020500D02*
G75*
G02*
X6887176Y-11020500I-50000J0D01*
G01*
X6887176Y-11020500D02*
G75*
G02*
X6987176Y-11020500I50000J0D01*
G01*
X7125676Y-2376500D02*
G75*
G02*
X7025676Y-2376500I-50000J0D01*
G01*
X7025676Y-2376500D02*
G75*
G02*
X7125676Y-2376500I50000J0D01*
G01*
X7125676Y-11304500D02*
G75*
G02*
X7025676Y-11304500I-50000J0D01*
G01*
X7025676Y-11304500D02*
G75*
G02*
X7125676Y-11304500I50000J0D01*
G01*
X7264176Y-2660500D02*
G75*
G02*
X7164176Y-2660500I-50000J0D01*
G01*
X7164176Y-2660500D02*
G75*
G02*
X7264176Y-2660500I50000J0D01*
G01*
X7264176Y-11020500D02*
G75*
G02*
X7164176Y-11020500I-50000J0D01*
G01*
X7164176Y-11020500D02*
G75*
G02*
X7264176Y-11020500I50000J0D01*
G01*
X7402676Y-2376500D02*
G75*
G02*
X7302676Y-2376500I-50000J0D01*
G01*
X7302676Y-2376500D02*
G75*
G02*
X7402676Y-2376500I50000J0D01*
G01*
X7402676Y-11304500D02*
G75*
G02*
X7302676Y-11304500I-50000J0D01*
G01*
X7302676Y-11304500D02*
G75*
G02*
X7402676Y-11304500I50000J0D01*
G01*
X7541176Y-2660500D02*
G75*
G02*
X7441176Y-2660500I-50000J0D01*
G01*
X7441176Y-2660500D02*
G75*
G02*
X7541176Y-2660500I50000J0D01*
G01*
X7541176Y-11020500D02*
G75*
G02*
X7441176Y-11020500I-50000J0D01*
G01*
X7441176Y-11020500D02*
G75*
G02*
X7541176Y-11020500I50000J0D01*
G01*
X7679676Y-2376500D02*
G75*
G02*
X7579676Y-2376500I-50000J0D01*
G01*
X7579676Y-2376500D02*
G75*
G02*
X7679676Y-2376500I50000J0D01*
G01*
X7679676Y-11304500D02*
G75*
G02*
X7579676Y-11304500I-50000J0D01*
G01*
X7579676Y-11304500D02*
G75*
G02*
X7679676Y-11304500I50000J0D01*
G01*
X7818176Y-2660500D02*
G75*
G02*
X7718176Y-2660500I-50000J0D01*
G01*
X7718176Y-2660500D02*
G75*
G02*
X7818176Y-2660500I50000J0D01*
G01*
X7818176Y-11020500D02*
G75*
G02*
X7718176Y-11020500I-50000J0D01*
G01*
X7718176Y-11020500D02*
G75*
G02*
X7818176Y-11020500I50000J0D01*
G01*
X7956676Y-2376500D02*
G75*
G02*
X7856676Y-2376500I-50000J0D01*
G01*
X7856676Y-2376500D02*
G75*
G02*
X7956676Y-2376500I50000J0D01*
G01*
X7956676Y-11304500D02*
G75*
G02*
X7856676Y-11304500I-50000J0D01*
G01*
X7856676Y-11304500D02*
G75*
G02*
X7956676Y-11304500I50000J0D01*
G01*
X8095176Y-2660500D02*
G75*
G02*
X7995176Y-2660500I-50000J0D01*
G01*
X7995176Y-2660500D02*
G75*
G02*
X8095176Y-2660500I50000J0D01*
G01*
X8095176Y-11020500D02*
G75*
G02*
X7995176Y-11020500I-50000J0D01*
G01*
X7995176Y-11020500D02*
G75*
G02*
X8095176Y-11020500I50000J0D01*
G01*
X8233676Y-2376500D02*
G75*
G02*
X8133676Y-2376500I-50000J0D01*
G01*
X8133676Y-2376500D02*
G75*
G02*
X8233676Y-2376500I50000J0D01*
G01*
X8233676Y-11304500D02*
G75*
G02*
X8133676Y-11304500I-50000J0D01*
G01*
X8133676Y-11304500D02*
G75*
G02*
X8233676Y-11304500I50000J0D01*
G01*
X8372176Y-2660500D02*
G75*
G02*
X8272176Y-2660500I-50000J0D01*
G01*
X8272176Y-2660500D02*
G75*
G02*
X8372176Y-2660500I50000J0D01*
G01*
X8372176Y-11020500D02*
G75*
G02*
X8272176Y-11020500I-50000J0D01*
G01*
X8272176Y-11020500D02*
G75*
G02*
X8372176Y-11020500I50000J0D01*
G01*
X8510676Y-2376500D02*
G75*
G02*
X8410676Y-2376500I-50000J0D01*
G01*
X8410676Y-2376500D02*
G75*
G02*
X8510676Y-2376500I50000J0D01*
G01*
X8510676Y-11304500D02*
G75*
G02*
X8410676Y-11304500I-50000J0D01*
G01*
X8410676Y-11304500D02*
G75*
G02*
X8510676Y-11304500I50000J0D01*
G01*
X8649176Y-2660500D02*
G75*
G02*
X8549176Y-2660500I-50000J0D01*
G01*
X8549176Y-2660500D02*
G75*
G02*
X8649176Y-2660500I50000J0D01*
G01*
X8649176Y-11020500D02*
G75*
G02*
X8549176Y-11020500I-50000J0D01*
G01*
X8549176Y-11020500D02*
G75*
G02*
X8649176Y-11020500I50000J0D01*
G01*
X8787676Y-2376500D02*
G75*
G02*
X8687676Y-2376500I-50000J0D01*
G01*
X8687676Y-2376500D02*
G75*
G02*
X8787676Y-2376500I50000J0D01*
G01*
X8787676Y-11304500D02*
G75*
G02*
X8687676Y-11304500I-50000J0D01*
G01*
X8687676Y-11304500D02*
G75*
G02*
X8787676Y-11304500I50000J0D01*
G01*
X8926176Y-2660500D02*
G75*
G02*
X8826176Y-2660500I-50000J0D01*
G01*
X8826176Y-2660500D02*
G75*
G02*
X8926176Y-2660500I50000J0D01*
G01*
X8926176Y-11020500D02*
G75*
G02*
X8826176Y-11020500I-50000J0D01*
G01*
X8826176Y-11020500D02*
G75*
G02*
X8926176Y-11020500I50000J0D01*
G01*
X9064676Y-2376500D02*
G75*
G02*
X8964676Y-2376500I-50000J0D01*
G01*
X8964676Y-2376500D02*
G75*
G02*
X9064676Y-2376500I50000J0D01*
G01*
X9064676Y-11304500D02*
G75*
G02*
X8964676Y-11304500I-50000J0D01*
G01*
X8964676Y-11304500D02*
G75*
G02*
X9064676Y-11304500I50000J0D01*
G01*
X9203176Y-2660500D02*
G75*
G02*
X9103176Y-2660500I-50000J0D01*
G01*
X9103176Y-2660500D02*
G75*
G02*
X9203176Y-2660500I50000J0D01*
G01*
X9203176Y-11020500D02*
G75*
G02*
X9103176Y-11020500I-50000J0D01*
G01*
X9103176Y-11020500D02*
G75*
G02*
X9203176Y-11020500I50000J0D01*
G01*
X10890582Y-4357050D02*
G75*
G02*
X10790582Y-4357050I-50000J0D01*
G01*
X10790582Y-4357050D02*
G75*
G02*
X10890582Y-4357050I50000J0D01*
G01*
X10890582Y-4634050D02*
G75*
G02*
X10790582Y-4634050I-50000J0D01*
G01*
X10790582Y-4634050D02*
G75*
G02*
X10890582Y-4634050I50000J0D01*
G01*
X10890582Y-4911050D02*
G75*
G02*
X10790582Y-4911050I-50000J0D01*
G01*
X10790582Y-4911050D02*
G75*
G02*
X10890582Y-4911050I50000J0D01*
G01*
X10890582Y-5188050D02*
G75*
G02*
X10790582Y-5188050I-50000J0D01*
G01*
X10790582Y-5188050D02*
G75*
G02*
X10890582Y-5188050I50000J0D01*
G01*
X10890582Y-5465050D02*
G75*
G02*
X10790582Y-5465050I-50000J0D01*
G01*
X10790582Y-5465050D02*
G75*
G02*
X10890582Y-5465050I50000J0D01*
G01*
X10890582Y-5742049D02*
G75*
G02*
X10790582Y-5742049I-50000J0D01*
G01*
X10790582Y-5742049D02*
G75*
G02*
X10890582Y-5742049I50000J0D01*
G01*
X10890582Y-6019049D02*
G75*
G02*
X10790582Y-6019049I-50000J0D01*
G01*
X10790582Y-6019049D02*
G75*
G02*
X10890582Y-6019049I50000J0D01*
G01*
X10890582Y-6296049D02*
G75*
G02*
X10790582Y-6296049I-50000J0D01*
G01*
X10790582Y-6296049D02*
G75*
G02*
X10890582Y-6296049I50000J0D01*
G01*
X10890582Y-6573049D02*
G75*
G02*
X10790582Y-6573049I-50000J0D01*
G01*
X10790582Y-6573049D02*
G75*
G02*
X10890582Y-6573049I50000J0D01*
G01*
X10890582Y-6850049D02*
G75*
G02*
X10790582Y-6850049I-50000J0D01*
G01*
X10790582Y-6850049D02*
G75*
G02*
X10890582Y-6850049I50000J0D01*
G01*
X10890582Y-7127049D02*
G75*
G02*
X10790582Y-7127049I-50000J0D01*
G01*
X10790582Y-7127049D02*
G75*
G02*
X10890582Y-7127049I50000J0D01*
G01*
X10890582Y-7404049D02*
G75*
G02*
X10790582Y-7404049I-50000J0D01*
G01*
X10790582Y-7404049D02*
G75*
G02*
X10890582Y-7404049I50000J0D01*
G01*
X10890582Y-7681049D02*
G75*
G02*
X10790582Y-7681049I-50000J0D01*
G01*
X10790582Y-7681049D02*
G75*
G02*
X10890582Y-7681049I50000J0D01*
G01*
X10890582Y-7958049D02*
G75*
G02*
X10790582Y-7958049I-50000J0D01*
G01*
X10790582Y-7958049D02*
G75*
G02*
X10890582Y-7958049I50000J0D01*
G01*
X10890582Y-8235049D02*
G75*
G02*
X10790582Y-8235049I-50000J0D01*
G01*
X10790582Y-8235049D02*
G75*
G02*
X10890582Y-8235049I50000J0D01*
G01*
X10890582Y-8512050D02*
G75*
G02*
X10790582Y-8512050I-50000J0D01*
G01*
X10790582Y-8512050D02*
G75*
G02*
X10890582Y-8512050I50000J0D01*
G01*
X10890582Y-8789050D02*
G75*
G02*
X10790582Y-8789050I-50000J0D01*
G01*
X10790582Y-8789050D02*
G75*
G02*
X10890582Y-8789050I50000J0D01*
G01*
X10890582Y-9066050D02*
G75*
G02*
X10790582Y-9066050I-50000J0D01*
G01*
X10790582Y-9066050D02*
G75*
G02*
X10890582Y-9066050I50000J0D01*
G01*
X10890582Y-9343050D02*
G75*
G02*
X10790582Y-9343050I-50000J0D01*
G01*
X10790582Y-9343050D02*
G75*
G02*
X10890582Y-9343050I50000J0D01*
G01*
X11174582Y-4495550D02*
G75*
G02*
X11074582Y-4495550I-50000J0D01*
G01*
X11074582Y-4495550D02*
G75*
G02*
X11174582Y-4495550I50000J0D01*
G01*
X11174582Y-4772550D02*
G75*
G02*
X11074582Y-4772550I-50000J0D01*
G01*
X11074582Y-4772550D02*
G75*
G02*
X11174582Y-4772550I50000J0D01*
G01*
X11174582Y-5049550D02*
G75*
G02*
X11074582Y-5049550I-50000J0D01*
G01*
X11074582Y-5049550D02*
G75*
G02*
X11174582Y-5049550I50000J0D01*
G01*
X11174582Y-5326550D02*
G75*
G02*
X11074582Y-5326550I-50000J0D01*
G01*
X11074582Y-5326550D02*
G75*
G02*
X11174582Y-5326550I50000J0D01*
G01*
X11174582Y-5603549D02*
G75*
G02*
X11074582Y-5603549I-50000J0D01*
G01*
X11074582Y-5603549D02*
G75*
G02*
X11174582Y-5603549I50000J0D01*
G01*
X11174582Y-5880549D02*
G75*
G02*
X11074582Y-5880549I-50000J0D01*
G01*
X11074582Y-5880549D02*
G75*
G02*
X11174582Y-5880549I50000J0D01*
G01*
X11174582Y-6157549D02*
G75*
G02*
X11074582Y-6157549I-50000J0D01*
G01*
X11074582Y-6157549D02*
G75*
G02*
X11174582Y-6157549I50000J0D01*
G01*
X11174582Y-6434549D02*
G75*
G02*
X11074582Y-6434549I-50000J0D01*
G01*
X11074582Y-6434549D02*
G75*
G02*
X11174582Y-6434549I50000J0D01*
G01*
X11174582Y-6711549D02*
G75*
G02*
X11074582Y-6711549I-50000J0D01*
G01*
X11074582Y-6711549D02*
G75*
G02*
X11174582Y-6711549I50000J0D01*
G01*
X11174582Y-6988549D02*
G75*
G02*
X11074582Y-6988549I-50000J0D01*
G01*
X11074582Y-6988549D02*
G75*
G02*
X11174582Y-6988549I50000J0D01*
G01*
X11174582Y-7265549D02*
G75*
G02*
X11074582Y-7265549I-50000J0D01*
G01*
X11074582Y-7265549D02*
G75*
G02*
X11174582Y-7265549I50000J0D01*
G01*
X11174582Y-7542549D02*
G75*
G02*
X11074582Y-7542549I-50000J0D01*
G01*
X11074582Y-7542549D02*
G75*
G02*
X11174582Y-7542549I50000J0D01*
G01*
X11174582Y-7819549D02*
G75*
G02*
X11074582Y-7819549I-50000J0D01*
G01*
X11074582Y-7819549D02*
G75*
G02*
X11174582Y-7819549I50000J0D01*
G01*
X11174582Y-8096549D02*
G75*
G02*
X11074582Y-8096549I-50000J0D01*
G01*
X11074582Y-8096549D02*
G75*
G02*
X11174582Y-8096549I50000J0D01*
G01*
X11174582Y-8373549D02*
G75*
G02*
X11074582Y-8373549I-50000J0D01*
G01*
X11074582Y-8373549D02*
G75*
G02*
X11174582Y-8373549I50000J0D01*
G01*
X11174582Y-8650550D02*
G75*
G02*
X11074582Y-8650550I-50000J0D01*
G01*
X11074582Y-8650550D02*
G75*
G02*
X11174582Y-8650550I50000J0D01*
G01*
X11174582Y-8927550D02*
G75*
G02*
X11074582Y-8927550I-50000J0D01*
G01*
X11074582Y-8927550D02*
G75*
G02*
X11174582Y-8927550I50000J0D01*
G01*
X11174582Y-9204550D02*
G75*
G02*
X11074582Y-9204550I-50000J0D01*
G01*
X11074582Y-9204550D02*
G75*
G02*
X11174582Y-9204550I50000J0D01*
G01*
D13*
X2729171Y-13595877D02*
X2729171Y-13705877D01*
X2674171Y-13650877D02*
X2784171Y-13650877D01*
X2729171Y-13849877D02*
X2729171Y-13959877D01*
X2674171Y-13904877D02*
X2784171Y-13904877D01*
X2983171Y-13595877D02*
X2983171Y-13705877D01*
X2928171Y-13650877D02*
X3038171Y-13650877D01*
X2983171Y-13849877D02*
X2983171Y-13959877D01*
X2928171Y-13904877D02*
X3038171Y-13904877D01*
X3237171Y-13595877D02*
X3237171Y-13705877D01*
X3182171Y-13650877D02*
X3292171Y-13650877D01*
X3237171Y-13849877D02*
X3237171Y-13959877D01*
X3182171Y-13904877D02*
X3292171Y-13904877D01*
X3491171Y-13849877D02*
X3491171Y-13959877D01*
X3436171Y-13904877D02*
X3546171Y-13904877D01*
X3492171Y-13595877D02*
X3492171Y-13705877D01*
X3437171Y-13650877D02*
X3547171Y-13650877D01*
X3745171Y-13595877D02*
X3745171Y-13705877D01*
X3690171Y-13650877D02*
X3800171Y-13650877D01*
X3745171Y-13849877D02*
X3745171Y-13959877D01*
X3690171Y-13904877D02*
X3800171Y-13904877D01*
X3999171Y-13595877D02*
X3999171Y-13705877D01*
X3944171Y-13650877D02*
X4054171Y-13650877D01*
X3999171Y-13849877D02*
X3999171Y-13959877D01*
X3944171Y-13904877D02*
X4054171Y-13904877D01*
X4253171Y-13595877D02*
X4253171Y-13705877D01*
X4198171Y-13650877D02*
X4308171Y-13650877D01*
X4253171Y-13849877D02*
X4253171Y-13959877D01*
X4198171Y-13904877D02*
X4308171Y-13904877D01*
X4507171Y-13595877D02*
X4507171Y-13705877D01*
X4452171Y-13650877D02*
X4562171Y-13650877D01*
X4507171Y-13849877D02*
X4507171Y-13959877D01*
X4452171Y-13904877D02*
X4562171Y-13904877D01*
X4761171Y-13595877D02*
X4761171Y-13705877D01*
X4706171Y-13650877D02*
X4816171Y-13650877D01*
X4761171Y-13849877D02*
X4761171Y-13959877D01*
X4706171Y-13904877D02*
X4816171Y-13904877D01*
X5015171Y-13595877D02*
X5015171Y-13705877D01*
X4960171Y-13650877D02*
X5070171Y-13650877D01*
X5015171Y-13849877D02*
X5015171Y-13959877D01*
X4960171Y-13904877D02*
X5070171Y-13904877D01*
X5269171Y-13595877D02*
X5269171Y-13705877D01*
X5214171Y-13650877D02*
X5324171Y-13650877D01*
X5269171Y-13849877D02*
X5269171Y-13959877D01*
X5214171Y-13904877D02*
X5324171Y-13904877D01*
X5523171Y-13595877D02*
X5523171Y-13705877D01*
X5468171Y-13650877D02*
X5578171Y-13650877D01*
X5523171Y-13849877D02*
X5523171Y-13959877D01*
X5468171Y-13904877D02*
X5578171Y-13904877D01*
X5777171Y-13595877D02*
X5777171Y-13705877D01*
X5722171Y-13650877D02*
X5832171Y-13650877D01*
X5777171Y-13849877D02*
X5777171Y-13959877D01*
X5722171Y-13904877D02*
X5832171Y-13904877D01*
X6031171Y-13849877D02*
X6031171Y-13959877D01*
X5976171Y-13904877D02*
X6086171Y-13904877D01*
X6032171Y-13595877D02*
X6032171Y-13705877D01*
X5977171Y-13650877D02*
X6087171Y-13650877D01*
X6285171Y-13595877D02*
X6285171Y-13705877D01*
X6230171Y-13650877D02*
X6340171Y-13650877D01*
X6285171Y-13849877D02*
X6285171Y-13959877D01*
X6230171Y-13904877D02*
X6340171Y-13904877D01*
X6539171Y-13595877D02*
X6539171Y-13705877D01*
X6484171Y-13650877D02*
X6594171Y-13650877D01*
X6539171Y-13849877D02*
X6539171Y-13959877D01*
X6484171Y-13904877D02*
X6594171Y-13904877D01*
X6793171Y-13595877D02*
X6793171Y-13705877D01*
X6738171Y-13650877D02*
X6848171Y-13650877D01*
X6793171Y-13849877D02*
X6793171Y-13959877D01*
X6738171Y-13904877D02*
X6848171Y-13904877D01*
X7047171Y-13595877D02*
X7047171Y-13705877D01*
X6992171Y-13650877D02*
X7102171Y-13650877D01*
X7047171Y-13849877D02*
X7047171Y-13959877D01*
X6992171Y-13904877D02*
X7102171Y-13904877D01*
X7301171Y-13595877D02*
X7301171Y-13705877D01*
X7246171Y-13650877D02*
X7356171Y-13650877D01*
X7301171Y-13849877D02*
X7301171Y-13959877D01*
X7246171Y-13904877D02*
X7356171Y-13904877D01*
X7555171Y-13595877D02*
X7555171Y-13705877D01*
X7500171Y-13650877D02*
X7610171Y-13650877D01*
X7555171Y-13849877D02*
X7555171Y-13959877D01*
X7500171Y-13904877D02*
X7610171Y-13904877D01*
X7809171Y-13595877D02*
X7809171Y-13705877D01*
X7754171Y-13650877D02*
X7864171Y-13650877D01*
X7809171Y-13849877D02*
X7809171Y-13959877D01*
X7754171Y-13904877D02*
X7864171Y-13904877D01*
X8063171Y-13595877D02*
X8063171Y-13705877D01*
X8008171Y-13650877D02*
X8118171Y-13650877D01*
X8063171Y-13849877D02*
X8063171Y-13959877D01*
X8008171Y-13904877D02*
X8118171Y-13904877D01*
X8317171Y-13595877D02*
X8317171Y-13705877D01*
X8262171Y-13650877D02*
X8372171Y-13650877D01*
X8317171Y-13849877D02*
X8317171Y-13959877D01*
X8262171Y-13904877D02*
X8372171Y-13904877D01*
X8571171Y-13849877D02*
X8571171Y-13959877D01*
X8516171Y-13904877D02*
X8626171Y-13904877D01*
X8572171Y-13595877D02*
X8572171Y-13705877D01*
X8517171Y-13650877D02*
X8627171Y-13650877D01*
X8825171Y-13595877D02*
X8825171Y-13705877D01*
X8770171Y-13650877D02*
X8880171Y-13650877D01*
X8825171Y-13849877D02*
X8825171Y-13959877D01*
X8770171Y-13904877D02*
X8880171Y-13904877D01*
X9079171Y-13595877D02*
X9079171Y-13705877D01*
X9024171Y-13650877D02*
X9134171Y-13650877D01*
X9079171Y-13849877D02*
X9079171Y-13959877D01*
X9024171Y-13904877D02*
X9134171Y-13904877D01*
X9333171Y-13595877D02*
X9333171Y-13705877D01*
X9278171Y-13650877D02*
X9388171Y-13650877D01*
X9333171Y-13849877D02*
X9333171Y-13959877D01*
X9278171Y-13904877D02*
X9388171Y-13904877D01*
X9587171Y-13595877D02*
X9587171Y-13705877D01*
X9532171Y-13650877D02*
X9642171Y-13650877D01*
X9587171Y-13849877D02*
X9587171Y-13959877D01*
X9532171Y-13904877D02*
X9642171Y-13904877D01*
X9841171Y-13595877D02*
X9841171Y-13705877D01*
X9786171Y-13650877D02*
X9896171Y-13650877D01*
X9841171Y-13849877D02*
X9841171Y-13959877D01*
X9786171Y-13904877D02*
X9896171Y-13904877D01*
X10095171Y-13595877D02*
X10095171Y-13705877D01*
X10040171Y-13650877D02*
X10150171Y-13650877D01*
X10095171Y-13849877D02*
X10095171Y-13959877D01*
X10040171Y-13904877D02*
X10150171Y-13904877D01*
X10349171Y-13595877D02*
X10349171Y-13705877D01*
X10294171Y-13650877D02*
X10404171Y-13650877D01*
X10349171Y-13849877D02*
X10349171Y-13959877D01*
X10294171Y-13904877D02*
X10404171Y-13904877D01*
X10603171Y-13595877D02*
X10603171Y-13705877D01*
X10548171Y-13650877D02*
X10658171Y-13650877D01*
X10603171Y-13849877D02*
X10603171Y-13959877D01*
X10548171Y-13904877D02*
X10658171Y-13904877D01*
D14*
X2451720Y-3788188D02*
X2451720Y-3561911D01*
X2225444Y-3561911D01*
X2225444Y-3788188D01*
X2451720Y-3788188D01*
X2451720Y-10138188D02*
X2451720Y-9911911D01*
X2225444Y-9911911D01*
X2225444Y-10138188D01*
X2451720Y-10138188D01*
X3598315Y-2631638D02*
X3598315Y-2405362D01*
X3372038Y-2405362D01*
X3372038Y-2631638D01*
X3598315Y-2631638D01*
X3598315Y-11275638D02*
X3598315Y-11049362D01*
X3372038Y-11049362D01*
X3372038Y-11275638D01*
X3598315Y-11275638D01*
X9948315Y-2631638D02*
X9948315Y-2405362D01*
X9722038Y-2405362D01*
X9722038Y-2631638D01*
X9948315Y-2631638D01*
X9948315Y-11275638D02*
X9948315Y-11049362D01*
X9722038Y-11049362D01*
X9722038Y-11275638D01*
X9948315Y-11275638D01*
X11095720Y-3788188D02*
X11095720Y-3561911D01*
X10869444Y-3561911D01*
X10869444Y-3788188D01*
X11095720Y-3788188D01*
X11095720Y-10138188D02*
X11095720Y-9911911D01*
X10869444Y-9911911D01*
X10869444Y-10138188D01*
X11095720Y-10138188D01*
D11*
X1458415Y-14726860D02*
X1458415Y-14526860D01*
X1458415Y-14526860D02*
X1506034Y-14526860D01*
X1506034Y-14526860D02*
X1534606Y-14536384D01*
X1534606Y-14536384D02*
X1553653Y-14555432D01*
X1553653Y-14555432D02*
X1563177Y-14574479D01*
X1563177Y-14574479D02*
X1572701Y-14612574D01*
X1572701Y-14612574D02*
X1572701Y-14641146D01*
X1572701Y-14641146D02*
X1563177Y-14679241D01*
X1563177Y-14679241D02*
X1553653Y-14698289D01*
X1553653Y-14698289D02*
X1534606Y-14717336D01*
X1534606Y-14717336D02*
X1506034Y-14726860D01*
X1506034Y-14726860D02*
X1458415Y-14726860D01*
X1658415Y-14726860D02*
X1658415Y-14593527D01*
X1658415Y-14631622D02*
X1667939Y-14612574D01*
X1667939Y-14612574D02*
X1677463Y-14603051D01*
X1677463Y-14603051D02*
X1696510Y-14593527D01*
X1696510Y-14593527D02*
X1715558Y-14593527D01*
X1782225Y-14726860D02*
X1782225Y-14593527D01*
X1782225Y-14526860D02*
X1772701Y-14536384D01*
X1772701Y-14536384D02*
X1782225Y-14545908D01*
X1782225Y-14545908D02*
X1791748Y-14536384D01*
X1791748Y-14536384D02*
X1782225Y-14526860D01*
X1782225Y-14526860D02*
X1782225Y-14545908D01*
X1906034Y-14726860D02*
X1886987Y-14717336D01*
X1886987Y-14717336D02*
X1877463Y-14698289D01*
X1877463Y-14698289D02*
X1877463Y-14526860D01*
X2010796Y-14726860D02*
X1991748Y-14717336D01*
X1991748Y-14717336D02*
X1982225Y-14698289D01*
X1982225Y-14698289D02*
X1982225Y-14526860D01*
X2239368Y-14726860D02*
X2239368Y-14526860D01*
X2239368Y-14526860D02*
X2306034Y-14669717D01*
X2306034Y-14669717D02*
X2372701Y-14526860D01*
X2372701Y-14526860D02*
X2372701Y-14726860D01*
X2553653Y-14726860D02*
X2553653Y-14622098D01*
X2553653Y-14622098D02*
X2544130Y-14603051D01*
X2544130Y-14603051D02*
X2525082Y-14593527D01*
X2525082Y-14593527D02*
X2486987Y-14593527D01*
X2486987Y-14593527D02*
X2467939Y-14603051D01*
X2553653Y-14717336D02*
X2534606Y-14726860D01*
X2534606Y-14726860D02*
X2486987Y-14726860D01*
X2486987Y-14726860D02*
X2467939Y-14717336D01*
X2467939Y-14717336D02*
X2458415Y-14698289D01*
X2458415Y-14698289D02*
X2458415Y-14679241D01*
X2458415Y-14679241D02*
X2467939Y-14660194D01*
X2467939Y-14660194D02*
X2486987Y-14650670D01*
X2486987Y-14650670D02*
X2534606Y-14650670D01*
X2534606Y-14650670D02*
X2553653Y-14641146D01*
X2648891Y-14593527D02*
X2648891Y-14793527D01*
X2648891Y-14603051D02*
X2667939Y-14593527D01*
X2667939Y-14593527D02*
X2706034Y-14593527D01*
X2706034Y-14593527D02*
X2725082Y-14603051D01*
X2725082Y-14603051D02*
X2734606Y-14612574D01*
X2734606Y-14612574D02*
X2744130Y-14631622D01*
X2744130Y-14631622D02*
X2744130Y-14688765D01*
X2744130Y-14688765D02*
X2734606Y-14707813D01*
X2734606Y-14707813D02*
X2725082Y-14717336D01*
X2725082Y-14717336D02*
X2706034Y-14726860D01*
X2706034Y-14726860D02*
X2667939Y-14726860D01*
X2667939Y-14726860D02*
X2648891Y-14717336D01*
X2829844Y-14707813D02*
X2839368Y-14717336D01*
X2839368Y-14717336D02*
X2829844Y-14726860D01*
X2829844Y-14726860D02*
X2820320Y-14717336D01*
X2820320Y-14717336D02*
X2829844Y-14707813D01*
X2829844Y-14707813D02*
X2829844Y-14726860D01*
X2829844Y-14603051D02*
X2839368Y-14612574D01*
X2839368Y-14612574D02*
X2829844Y-14622098D01*
X2829844Y-14622098D02*
X2820320Y-14612574D01*
X2820320Y-14612574D02*
X2829844Y-14603051D01*
X2829844Y-14603051D02*
X2829844Y-14622098D01*
D12*
X1167638Y-15040376D02*
X1197638Y-15070376D01*
X1197638Y-15040376D02*
X1167638Y-15070376D01*
D11*
X1496510Y-14946860D02*
X1515558Y-14946860D01*
X1515558Y-14946860D02*
X1534606Y-14956384D01*
X1534606Y-14956384D02*
X1544129Y-14965908D01*
X1544129Y-14965908D02*
X1553653Y-14984955D01*
X1553653Y-14984955D02*
X1563177Y-15023051D01*
X1563177Y-15023051D02*
X1563177Y-15070670D01*
X1563177Y-15070670D02*
X1553653Y-15108765D01*
X1553653Y-15108765D02*
X1544129Y-15127813D01*
X1544129Y-15127813D02*
X1534606Y-15137336D01*
X1534606Y-15137336D02*
X1515558Y-15146860D01*
X1515558Y-15146860D02*
X1496510Y-15146860D01*
X1496510Y-15146860D02*
X1477463Y-15137336D01*
X1477463Y-15137336D02*
X1467939Y-15127813D01*
X1467939Y-15127813D02*
X1458415Y-15108765D01*
X1458415Y-15108765D02*
X1448891Y-15070670D01*
X1448891Y-15070670D02*
X1448891Y-15023051D01*
X1448891Y-15023051D02*
X1458415Y-14984955D01*
X1458415Y-14984955D02*
X1467939Y-14965908D01*
X1467939Y-14965908D02*
X1477463Y-14956384D01*
X1477463Y-14956384D02*
X1496510Y-14946860D01*
X1648891Y-15127813D02*
X1658415Y-15137336D01*
X1658415Y-15137336D02*
X1648891Y-15146860D01*
X1648891Y-15146860D02*
X1639368Y-15137336D01*
X1639368Y-15137336D02*
X1648891Y-15127813D01*
X1648891Y-15127813D02*
X1648891Y-15146860D01*
X1725082Y-14946860D02*
X1848891Y-14946860D01*
X1848891Y-14946860D02*
X1782225Y-15023051D01*
X1782225Y-15023051D02*
X1810796Y-15023051D01*
X1810796Y-15023051D02*
X1829844Y-15032574D01*
X1829844Y-15032574D02*
X1839368Y-15042098D01*
X1839368Y-15042098D02*
X1848891Y-15061146D01*
X1848891Y-15061146D02*
X1848891Y-15108765D01*
X1848891Y-15108765D02*
X1839368Y-15127813D01*
X1839368Y-15127813D02*
X1829844Y-15137336D01*
X1829844Y-15137336D02*
X1810796Y-15146860D01*
X1810796Y-15146860D02*
X1753653Y-15146860D01*
X1753653Y-15146860D02*
X1734606Y-15137336D01*
X1734606Y-15137336D02*
X1725082Y-15127813D01*
X1972701Y-14946860D02*
X1991749Y-14946860D01*
X1991749Y-14946860D02*
X2010796Y-14956384D01*
X2010796Y-14956384D02*
X2020320Y-14965908D01*
X2020320Y-14965908D02*
X2029844Y-14984955D01*
X2029844Y-14984955D02*
X2039368Y-15023051D01*
X2039368Y-15023051D02*
X2039368Y-15070670D01*
X2039368Y-15070670D02*
X2029844Y-15108765D01*
X2029844Y-15108765D02*
X2020320Y-15127813D01*
X2020320Y-15127813D02*
X2010796Y-15137336D01*
X2010796Y-15137336D02*
X1991749Y-15146860D01*
X1991749Y-15146860D02*
X1972701Y-15146860D01*
X1972701Y-15146860D02*
X1953653Y-15137336D01*
X1953653Y-15137336D02*
X1944129Y-15127813D01*
X1944129Y-15127813D02*
X1934606Y-15108765D01*
X1934606Y-15108765D02*
X1925082Y-15070670D01*
X1925082Y-15070670D02*
X1925082Y-15023051D01*
X1925082Y-15023051D02*
X1934606Y-14984955D01*
X1934606Y-14984955D02*
X1944129Y-14965908D01*
X1944129Y-14965908D02*
X1953653Y-14956384D01*
X1953653Y-14956384D02*
X1972701Y-14946860D01*
X2163177Y-14946860D02*
X2182225Y-14946860D01*
X2182225Y-14946860D02*
X2201272Y-14956384D01*
X2201272Y-14956384D02*
X2210796Y-14965908D01*
X2210796Y-14965908D02*
X2220320Y-14984955D01*
X2220320Y-14984955D02*
X2229844Y-15023051D01*
X2229844Y-15023051D02*
X2229844Y-15070670D01*
X2229844Y-15070670D02*
X2220320Y-15108765D01*
X2220320Y-15108765D02*
X2210796Y-15127813D01*
X2210796Y-15127813D02*
X2201272Y-15137336D01*
X2201272Y-15137336D02*
X2182225Y-15146860D01*
X2182225Y-15146860D02*
X2163177Y-15146860D01*
X2163177Y-15146860D02*
X2144130Y-15137336D01*
X2144130Y-15137336D02*
X2134606Y-15127813D01*
X2134606Y-15127813D02*
X2125082Y-15108765D01*
X2125082Y-15108765D02*
X2115558Y-15070670D01*
X2115558Y-15070670D02*
X2115558Y-15023051D01*
X2115558Y-15023051D02*
X2125082Y-14984955D01*
X2125082Y-14984955D02*
X2134606Y-14965908D01*
X2134606Y-14965908D02*
X2144130Y-14956384D01*
X2144130Y-14956384D02*
X2163177Y-14946860D01*
X2315558Y-15146860D02*
X2315558Y-15013527D01*
X2315558Y-15032574D02*
X2325082Y-15023051D01*
X2325082Y-15023051D02*
X2344130Y-15013527D01*
X2344130Y-15013527D02*
X2372701Y-15013527D01*
X2372701Y-15013527D02*
X2391749Y-15023051D01*
X2391749Y-15023051D02*
X2401272Y-15042098D01*
X2401272Y-15042098D02*
X2401272Y-15146860D01*
X2401272Y-15042098D02*
X2410796Y-15023051D01*
X2410796Y-15023051D02*
X2429844Y-15013527D01*
X2429844Y-15013527D02*
X2458415Y-15013527D01*
X2458415Y-15013527D02*
X2477463Y-15023051D01*
X2477463Y-15023051D02*
X2486987Y-15042098D01*
X2486987Y-15042098D02*
X2486987Y-15146860D01*
X2582225Y-15146860D02*
X2582225Y-15013527D01*
X2582225Y-15032574D02*
X2591749Y-15023051D01*
X2591749Y-15023051D02*
X2610796Y-15013527D01*
X2610796Y-15013527D02*
X2639368Y-15013527D01*
X2639368Y-15013527D02*
X2658415Y-15023051D01*
X2658415Y-15023051D02*
X2667939Y-15042098D01*
X2667939Y-15042098D02*
X2667939Y-15146860D01*
X2667939Y-15042098D02*
X2677463Y-15023051D01*
X2677463Y-15023051D02*
X2696511Y-15013527D01*
X2696511Y-15013527D02*
X2725082Y-15013527D01*
X2725082Y-15013527D02*
X2744130Y-15023051D01*
X2744130Y-15023051D02*
X2753653Y-15042098D01*
X2753653Y-15042098D02*
X2753653Y-15146860D01*
X3144130Y-14937336D02*
X2972701Y-15194479D01*
X3401272Y-14946860D02*
X3420320Y-14946860D01*
X3420320Y-14946860D02*
X3439368Y-14956384D01*
X3439368Y-14956384D02*
X3448892Y-14965908D01*
X3448892Y-14965908D02*
X3458415Y-14984955D01*
X3458415Y-14984955D02*
X3467939Y-15023051D01*
X3467939Y-15023051D02*
X3467939Y-15070670D01*
X3467939Y-15070670D02*
X3458415Y-15108765D01*
X3458415Y-15108765D02*
X3448892Y-15127813D01*
X3448892Y-15127813D02*
X3439368Y-15137336D01*
X3439368Y-15137336D02*
X3420320Y-15146860D01*
X3420320Y-15146860D02*
X3401272Y-15146860D01*
X3401272Y-15146860D02*
X3382225Y-15137336D01*
X3382225Y-15137336D02*
X3372701Y-15127813D01*
X3372701Y-15127813D02*
X3363177Y-15108765D01*
X3363177Y-15108765D02*
X3353653Y-15070670D01*
X3353653Y-15070670D02*
X3353653Y-15023051D01*
X3353653Y-15023051D02*
X3363177Y-14984955D01*
X3363177Y-14984955D02*
X3372701Y-14965908D01*
X3372701Y-14965908D02*
X3382225Y-14956384D01*
X3382225Y-14956384D02*
X3401272Y-14946860D01*
X3553653Y-15127813D02*
X3563177Y-15137336D01*
X3563177Y-15137336D02*
X3553653Y-15146860D01*
X3553653Y-15146860D02*
X3544130Y-15137336D01*
X3544130Y-15137336D02*
X3553653Y-15127813D01*
X3553653Y-15127813D02*
X3553653Y-15146860D01*
X3686987Y-14946860D02*
X3706034Y-14946860D01*
X3706034Y-14946860D02*
X3725082Y-14956384D01*
X3725082Y-14956384D02*
X3734606Y-14965908D01*
X3734606Y-14965908D02*
X3744130Y-14984955D01*
X3744130Y-14984955D02*
X3753653Y-15023051D01*
X3753653Y-15023051D02*
X3753653Y-15070670D01*
X3753653Y-15070670D02*
X3744130Y-15108765D01*
X3744130Y-15108765D02*
X3734606Y-15127813D01*
X3734606Y-15127813D02*
X3725082Y-15137336D01*
X3725082Y-15137336D02*
X3706034Y-15146860D01*
X3706034Y-15146860D02*
X3686987Y-15146860D01*
X3686987Y-15146860D02*
X3667939Y-15137336D01*
X3667939Y-15137336D02*
X3658415Y-15127813D01*
X3658415Y-15127813D02*
X3648892Y-15108765D01*
X3648892Y-15108765D02*
X3639368Y-15070670D01*
X3639368Y-15070670D02*
X3639368Y-15023051D01*
X3639368Y-15023051D02*
X3648892Y-14984955D01*
X3648892Y-14984955D02*
X3658415Y-14965908D01*
X3658415Y-14965908D02*
X3667939Y-14956384D01*
X3667939Y-14956384D02*
X3686987Y-14946860D01*
X3944130Y-15146860D02*
X3829844Y-15146860D01*
X3886987Y-15146860D02*
X3886987Y-14946860D01*
X3886987Y-14946860D02*
X3867939Y-14975432D01*
X3867939Y-14975432D02*
X3848892Y-14994479D01*
X3848892Y-14994479D02*
X3829844Y-15004003D01*
X4134606Y-15146860D02*
X4020320Y-15146860D01*
X4077463Y-15146860D02*
X4077463Y-14946860D01*
X4077463Y-14946860D02*
X4058415Y-14975432D01*
X4058415Y-14975432D02*
X4039368Y-14994479D01*
X4039368Y-14994479D02*
X4020320Y-15004003D01*
X4248892Y-15032574D02*
X4229844Y-15023051D01*
X4229844Y-15023051D02*
X4220320Y-15013527D01*
X4220320Y-15013527D02*
X4210796Y-14994479D01*
X4210796Y-14994479D02*
X4210796Y-14984955D01*
X4210796Y-14984955D02*
X4220320Y-14965908D01*
X4220320Y-14965908D02*
X4229844Y-14956384D01*
X4229844Y-14956384D02*
X4248892Y-14946860D01*
X4248892Y-14946860D02*
X4286987Y-14946860D01*
X4286987Y-14946860D02*
X4306035Y-14956384D01*
X4306035Y-14956384D02*
X4315558Y-14965908D01*
X4315558Y-14965908D02*
X4325082Y-14984955D01*
X4325082Y-14984955D02*
X4325082Y-14994479D01*
X4325082Y-14994479D02*
X4315558Y-15013527D01*
X4315558Y-15013527D02*
X4306035Y-15023051D01*
X4306035Y-15023051D02*
X4286987Y-15032574D01*
X4286987Y-15032574D02*
X4248892Y-15032574D01*
X4248892Y-15032574D02*
X4229844Y-15042098D01*
X4229844Y-15042098D02*
X4220320Y-15051622D01*
X4220320Y-15051622D02*
X4210796Y-15070670D01*
X4210796Y-15070670D02*
X4210796Y-15108765D01*
X4210796Y-15108765D02*
X4220320Y-15127813D01*
X4220320Y-15127813D02*
X4229844Y-15137336D01*
X4229844Y-15137336D02*
X4248892Y-15146860D01*
X4248892Y-15146860D02*
X4286987Y-15146860D01*
X4286987Y-15146860D02*
X4306035Y-15137336D01*
X4306035Y-15137336D02*
X4315558Y-15127813D01*
X4315558Y-15127813D02*
X4325082Y-15108765D01*
X4325082Y-15108765D02*
X4325082Y-15070670D01*
X4325082Y-15070670D02*
X4315558Y-15051622D01*
X4315558Y-15051622D02*
X4306035Y-15042098D01*
X4306035Y-15042098D02*
X4286987Y-15032574D01*
X4401273Y-14946860D02*
X4401273Y-14984955D01*
X4477463Y-14946860D02*
X4477463Y-14984955D01*
X4772701Y-15223051D02*
X4763177Y-15213527D01*
X4763177Y-15213527D02*
X4744130Y-15184955D01*
X4744130Y-15184955D02*
X4734606Y-15165908D01*
X4734606Y-15165908D02*
X4725082Y-15137336D01*
X4725082Y-15137336D02*
X4715558Y-15089717D01*
X4715558Y-15089717D02*
X4715558Y-15051622D01*
X4715558Y-15051622D02*
X4725082Y-15004003D01*
X4725082Y-15004003D02*
X4734606Y-14975432D01*
X4734606Y-14975432D02*
X4744130Y-14956384D01*
X4744130Y-14956384D02*
X4763177Y-14927813D01*
X4763177Y-14927813D02*
X4772701Y-14918289D01*
X4839368Y-14965908D02*
X4848892Y-14956384D01*
X4848892Y-14956384D02*
X4867939Y-14946860D01*
X4867939Y-14946860D02*
X4915558Y-14946860D01*
X4915558Y-14946860D02*
X4934606Y-14956384D01*
X4934606Y-14956384D02*
X4944130Y-14965908D01*
X4944130Y-14965908D02*
X4953654Y-14984955D01*
X4953654Y-14984955D02*
X4953654Y-15004003D01*
X4953654Y-15004003D02*
X4944130Y-15032574D01*
X4944130Y-15032574D02*
X4829844Y-15146860D01*
X4829844Y-15146860D02*
X4953654Y-15146860D01*
X5077463Y-14946860D02*
X5096511Y-14946860D01*
X5096511Y-14946860D02*
X5115558Y-14956384D01*
X5115558Y-14956384D02*
X5125082Y-14965908D01*
X5125082Y-14965908D02*
X5134606Y-14984955D01*
X5134606Y-14984955D02*
X5144130Y-15023051D01*
X5144130Y-15023051D02*
X5144130Y-15070670D01*
X5144130Y-15070670D02*
X5134606Y-15108765D01*
X5134606Y-15108765D02*
X5125082Y-15127813D01*
X5125082Y-15127813D02*
X5115558Y-15137336D01*
X5115558Y-15137336D02*
X5096511Y-15146860D01*
X5096511Y-15146860D02*
X5077463Y-15146860D01*
X5077463Y-15146860D02*
X5058416Y-15137336D01*
X5058416Y-15137336D02*
X5048892Y-15127813D01*
X5048892Y-15127813D02*
X5039368Y-15108765D01*
X5039368Y-15108765D02*
X5029844Y-15070670D01*
X5029844Y-15070670D02*
X5029844Y-15023051D01*
X5029844Y-15023051D02*
X5039368Y-14984955D01*
X5039368Y-14984955D02*
X5048892Y-14965908D01*
X5048892Y-14965908D02*
X5058416Y-14956384D01*
X5058416Y-14956384D02*
X5077463Y-14946860D01*
X5210797Y-14946860D02*
X5334606Y-14946860D01*
X5334606Y-14946860D02*
X5267939Y-15023051D01*
X5267939Y-15023051D02*
X5296511Y-15023051D01*
X5296511Y-15023051D02*
X5315558Y-15032574D01*
X5315558Y-15032574D02*
X5325082Y-15042098D01*
X5325082Y-15042098D02*
X5334606Y-15061146D01*
X5334606Y-15061146D02*
X5334606Y-15108765D01*
X5334606Y-15108765D02*
X5325082Y-15127813D01*
X5325082Y-15127813D02*
X5315558Y-15137336D01*
X5315558Y-15137336D02*
X5296511Y-15146860D01*
X5296511Y-15146860D02*
X5239368Y-15146860D01*
X5239368Y-15146860D02*
X5220320Y-15137336D01*
X5220320Y-15137336D02*
X5210797Y-15127813D01*
X5572701Y-15146860D02*
X5572701Y-14946860D01*
X5658416Y-15146860D02*
X5658416Y-15042098D01*
X5658416Y-15042098D02*
X5648892Y-15023051D01*
X5648892Y-15023051D02*
X5629844Y-15013527D01*
X5629844Y-15013527D02*
X5601273Y-15013527D01*
X5601273Y-15013527D02*
X5582225Y-15023051D01*
X5582225Y-15023051D02*
X5572701Y-15032574D01*
X5782225Y-15146860D02*
X5763177Y-15137336D01*
X5763177Y-15137336D02*
X5753654Y-15127813D01*
X5753654Y-15127813D02*
X5744130Y-15108765D01*
X5744130Y-15108765D02*
X5744130Y-15051622D01*
X5744130Y-15051622D02*
X5753654Y-15032574D01*
X5753654Y-15032574D02*
X5763177Y-15023051D01*
X5763177Y-15023051D02*
X5782225Y-15013527D01*
X5782225Y-15013527D02*
X5810797Y-15013527D01*
X5810797Y-15013527D02*
X5829844Y-15023051D01*
X5829844Y-15023051D02*
X5839368Y-15032574D01*
X5839368Y-15032574D02*
X5848892Y-15051622D01*
X5848892Y-15051622D02*
X5848892Y-15108765D01*
X5848892Y-15108765D02*
X5839368Y-15127813D01*
X5839368Y-15127813D02*
X5829844Y-15137336D01*
X5829844Y-15137336D02*
X5810797Y-15146860D01*
X5810797Y-15146860D02*
X5782225Y-15146860D01*
X5963177Y-15146860D02*
X5944130Y-15137336D01*
X5944130Y-15137336D02*
X5934606Y-15118289D01*
X5934606Y-15118289D02*
X5934606Y-14946860D01*
X6115558Y-15137336D02*
X6096511Y-15146860D01*
X6096511Y-15146860D02*
X6058416Y-15146860D01*
X6058416Y-15146860D02*
X6039368Y-15137336D01*
X6039368Y-15137336D02*
X6029844Y-15118289D01*
X6029844Y-15118289D02*
X6029844Y-15042098D01*
X6029844Y-15042098D02*
X6039368Y-15023051D01*
X6039368Y-15023051D02*
X6058416Y-15013527D01*
X6058416Y-15013527D02*
X6096511Y-15013527D01*
X6096511Y-15013527D02*
X6115558Y-15023051D01*
X6115558Y-15023051D02*
X6125082Y-15042098D01*
X6125082Y-15042098D02*
X6125082Y-15061146D01*
X6125082Y-15061146D02*
X6029844Y-15080194D01*
X6201273Y-15137336D02*
X6220320Y-15146860D01*
X6220320Y-15146860D02*
X6258416Y-15146860D01*
X6258416Y-15146860D02*
X6277463Y-15137336D01*
X6277463Y-15137336D02*
X6286987Y-15118289D01*
X6286987Y-15118289D02*
X6286987Y-15108765D01*
X6286987Y-15108765D02*
X6277463Y-15089717D01*
X6277463Y-15089717D02*
X6258416Y-15080194D01*
X6258416Y-15080194D02*
X6229844Y-15080194D01*
X6229844Y-15080194D02*
X6210797Y-15070670D01*
X6210797Y-15070670D02*
X6201273Y-15051622D01*
X6201273Y-15051622D02*
X6201273Y-15042098D01*
X6201273Y-15042098D02*
X6210797Y-15023051D01*
X6210797Y-15023051D02*
X6229844Y-15013527D01*
X6229844Y-15013527D02*
X6258416Y-15013527D01*
X6258416Y-15013527D02*
X6277463Y-15023051D01*
X6353654Y-15223051D02*
X6363178Y-15213527D01*
X6363178Y-15213527D02*
X6382225Y-15184955D01*
X6382225Y-15184955D02*
X6391749Y-15165908D01*
X6391749Y-15165908D02*
X6401273Y-15137336D01*
X6401273Y-15137336D02*
X6410797Y-15089717D01*
X6410797Y-15089717D02*
X6410797Y-15051622D01*
X6410797Y-15051622D02*
X6401273Y-15004003D01*
X6401273Y-15004003D02*
X6391749Y-14975432D01*
X6391749Y-14975432D02*
X6382225Y-14956384D01*
X6382225Y-14956384D02*
X6363178Y-14927813D01*
X6363178Y-14927813D02*
X6353654Y-14918289D01*
D12*
X1197638Y-15319376D02*
G75*
G02*
X1097638Y-15319376I-50000J0D01*
G01*
X1097638Y-15319376D02*
G75*
G02*
X1197638Y-15319376I50000J0D01*
G01*
D11*
X1563177Y-15410860D02*
X1448891Y-15410860D01*
X1506034Y-15410860D02*
X1506034Y-15210860D01*
X1506034Y-15210860D02*
X1486987Y-15239432D01*
X1486987Y-15239432D02*
X1467939Y-15258479D01*
X1467939Y-15258479D02*
X1448891Y-15268003D01*
X1648891Y-15391813D02*
X1658415Y-15401336D01*
X1658415Y-15401336D02*
X1648891Y-15410860D01*
X1648891Y-15410860D02*
X1639368Y-15401336D01*
X1639368Y-15401336D02*
X1648891Y-15391813D01*
X1648891Y-15391813D02*
X1648891Y-15410860D01*
X1782225Y-15210860D02*
X1801272Y-15210860D01*
X1801272Y-15210860D02*
X1820320Y-15220384D01*
X1820320Y-15220384D02*
X1829844Y-15229908D01*
X1829844Y-15229908D02*
X1839368Y-15248955D01*
X1839368Y-15248955D02*
X1848891Y-15287051D01*
X1848891Y-15287051D02*
X1848891Y-15334670D01*
X1848891Y-15334670D02*
X1839368Y-15372765D01*
X1839368Y-15372765D02*
X1829844Y-15391813D01*
X1829844Y-15391813D02*
X1820320Y-15401336D01*
X1820320Y-15401336D02*
X1801272Y-15410860D01*
X1801272Y-15410860D02*
X1782225Y-15410860D01*
X1782225Y-15410860D02*
X1763177Y-15401336D01*
X1763177Y-15401336D02*
X1753653Y-15391813D01*
X1753653Y-15391813D02*
X1744129Y-15372765D01*
X1744129Y-15372765D02*
X1734606Y-15334670D01*
X1734606Y-15334670D02*
X1734606Y-15287051D01*
X1734606Y-15287051D02*
X1744129Y-15248955D01*
X1744129Y-15248955D02*
X1753653Y-15229908D01*
X1753653Y-15229908D02*
X1763177Y-15220384D01*
X1763177Y-15220384D02*
X1782225Y-15210860D01*
X1972701Y-15210860D02*
X1991749Y-15210860D01*
X1991749Y-15210860D02*
X2010796Y-15220384D01*
X2010796Y-15220384D02*
X2020320Y-15229908D01*
X2020320Y-15229908D02*
X2029844Y-15248955D01*
X2029844Y-15248955D02*
X2039368Y-15287051D01*
X2039368Y-15287051D02*
X2039368Y-15334670D01*
X2039368Y-15334670D02*
X2029844Y-15372765D01*
X2029844Y-15372765D02*
X2020320Y-15391813D01*
X2020320Y-15391813D02*
X2010796Y-15401336D01*
X2010796Y-15401336D02*
X1991749Y-15410860D01*
X1991749Y-15410860D02*
X1972701Y-15410860D01*
X1972701Y-15410860D02*
X1953653Y-15401336D01*
X1953653Y-15401336D02*
X1944129Y-15391813D01*
X1944129Y-15391813D02*
X1934606Y-15372765D01*
X1934606Y-15372765D02*
X1925082Y-15334670D01*
X1925082Y-15334670D02*
X1925082Y-15287051D01*
X1925082Y-15287051D02*
X1934606Y-15248955D01*
X1934606Y-15248955D02*
X1944129Y-15229908D01*
X1944129Y-15229908D02*
X1953653Y-15220384D01*
X1953653Y-15220384D02*
X1972701Y-15210860D01*
X2163177Y-15210860D02*
X2182225Y-15210860D01*
X2182225Y-15210860D02*
X2201272Y-15220384D01*
X2201272Y-15220384D02*
X2210796Y-15229908D01*
X2210796Y-15229908D02*
X2220320Y-15248955D01*
X2220320Y-15248955D02*
X2229844Y-15287051D01*
X2229844Y-15287051D02*
X2229844Y-15334670D01*
X2229844Y-15334670D02*
X2220320Y-15372765D01*
X2220320Y-15372765D02*
X2210796Y-15391813D01*
X2210796Y-15391813D02*
X2201272Y-15401336D01*
X2201272Y-15401336D02*
X2182225Y-15410860D01*
X2182225Y-15410860D02*
X2163177Y-15410860D01*
X2163177Y-15410860D02*
X2144130Y-15401336D01*
X2144130Y-15401336D02*
X2134606Y-15391813D01*
X2134606Y-15391813D02*
X2125082Y-15372765D01*
X2125082Y-15372765D02*
X2115558Y-15334670D01*
X2115558Y-15334670D02*
X2115558Y-15287051D01*
X2115558Y-15287051D02*
X2125082Y-15248955D01*
X2125082Y-15248955D02*
X2134606Y-15229908D01*
X2134606Y-15229908D02*
X2144130Y-15220384D01*
X2144130Y-15220384D02*
X2163177Y-15210860D01*
X2315558Y-15410860D02*
X2315558Y-15277527D01*
X2315558Y-15296574D02*
X2325082Y-15287051D01*
X2325082Y-15287051D02*
X2344130Y-15277527D01*
X2344130Y-15277527D02*
X2372701Y-15277527D01*
X2372701Y-15277527D02*
X2391749Y-15287051D01*
X2391749Y-15287051D02*
X2401272Y-15306098D01*
X2401272Y-15306098D02*
X2401272Y-15410860D01*
X2401272Y-15306098D02*
X2410796Y-15287051D01*
X2410796Y-15287051D02*
X2429844Y-15277527D01*
X2429844Y-15277527D02*
X2458415Y-15277527D01*
X2458415Y-15277527D02*
X2477463Y-15287051D01*
X2477463Y-15287051D02*
X2486987Y-15306098D01*
X2486987Y-15306098D02*
X2486987Y-15410860D01*
X2582225Y-15410860D02*
X2582225Y-15277527D01*
X2582225Y-15296574D02*
X2591749Y-15287051D01*
X2591749Y-15287051D02*
X2610796Y-15277527D01*
X2610796Y-15277527D02*
X2639368Y-15277527D01*
X2639368Y-15277527D02*
X2658415Y-15287051D01*
X2658415Y-15287051D02*
X2667939Y-15306098D01*
X2667939Y-15306098D02*
X2667939Y-15410860D01*
X2667939Y-15306098D02*
X2677463Y-15287051D01*
X2677463Y-15287051D02*
X2696511Y-15277527D01*
X2696511Y-15277527D02*
X2725082Y-15277527D01*
X2725082Y-15277527D02*
X2744130Y-15287051D01*
X2744130Y-15287051D02*
X2753653Y-15306098D01*
X2753653Y-15306098D02*
X2753653Y-15410860D01*
X3144130Y-15201336D02*
X2972701Y-15458479D01*
X3401272Y-15210860D02*
X3420320Y-15210860D01*
X3420320Y-15210860D02*
X3439368Y-15220384D01*
X3439368Y-15220384D02*
X3448892Y-15229908D01*
X3448892Y-15229908D02*
X3458415Y-15248955D01*
X3458415Y-15248955D02*
X3467939Y-15287051D01*
X3467939Y-15287051D02*
X3467939Y-15334670D01*
X3467939Y-15334670D02*
X3458415Y-15372765D01*
X3458415Y-15372765D02*
X3448892Y-15391813D01*
X3448892Y-15391813D02*
X3439368Y-15401336D01*
X3439368Y-15401336D02*
X3420320Y-15410860D01*
X3420320Y-15410860D02*
X3401272Y-15410860D01*
X3401272Y-15410860D02*
X3382225Y-15401336D01*
X3382225Y-15401336D02*
X3372701Y-15391813D01*
X3372701Y-15391813D02*
X3363177Y-15372765D01*
X3363177Y-15372765D02*
X3353653Y-15334670D01*
X3353653Y-15334670D02*
X3353653Y-15287051D01*
X3353653Y-15287051D02*
X3363177Y-15248955D01*
X3363177Y-15248955D02*
X3372701Y-15229908D01*
X3372701Y-15229908D02*
X3382225Y-15220384D01*
X3382225Y-15220384D02*
X3401272Y-15210860D01*
X3553653Y-15391813D02*
X3563177Y-15401336D01*
X3563177Y-15401336D02*
X3553653Y-15410860D01*
X3553653Y-15410860D02*
X3544130Y-15401336D01*
X3544130Y-15401336D02*
X3553653Y-15391813D01*
X3553653Y-15391813D02*
X3553653Y-15410860D01*
X3686987Y-15210860D02*
X3706034Y-15210860D01*
X3706034Y-15210860D02*
X3725082Y-15220384D01*
X3725082Y-15220384D02*
X3734606Y-15229908D01*
X3734606Y-15229908D02*
X3744130Y-15248955D01*
X3744130Y-15248955D02*
X3753653Y-15287051D01*
X3753653Y-15287051D02*
X3753653Y-15334670D01*
X3753653Y-15334670D02*
X3744130Y-15372765D01*
X3744130Y-15372765D02*
X3734606Y-15391813D01*
X3734606Y-15391813D02*
X3725082Y-15401336D01*
X3725082Y-15401336D02*
X3706034Y-15410860D01*
X3706034Y-15410860D02*
X3686987Y-15410860D01*
X3686987Y-15410860D02*
X3667939Y-15401336D01*
X3667939Y-15401336D02*
X3658415Y-15391813D01*
X3658415Y-15391813D02*
X3648892Y-15372765D01*
X3648892Y-15372765D02*
X3639368Y-15334670D01*
X3639368Y-15334670D02*
X3639368Y-15287051D01*
X3639368Y-15287051D02*
X3648892Y-15248955D01*
X3648892Y-15248955D02*
X3658415Y-15229908D01*
X3658415Y-15229908D02*
X3667939Y-15220384D01*
X3667939Y-15220384D02*
X3686987Y-15210860D01*
X3820320Y-15210860D02*
X3944130Y-15210860D01*
X3944130Y-15210860D02*
X3877463Y-15287051D01*
X3877463Y-15287051D02*
X3906034Y-15287051D01*
X3906034Y-15287051D02*
X3925082Y-15296574D01*
X3925082Y-15296574D02*
X3934606Y-15306098D01*
X3934606Y-15306098D02*
X3944130Y-15325146D01*
X3944130Y-15325146D02*
X3944130Y-15372765D01*
X3944130Y-15372765D02*
X3934606Y-15391813D01*
X3934606Y-15391813D02*
X3925082Y-15401336D01*
X3925082Y-15401336D02*
X3906034Y-15410860D01*
X3906034Y-15410860D02*
X3848892Y-15410860D01*
X3848892Y-15410860D02*
X3829844Y-15401336D01*
X3829844Y-15401336D02*
X3820320Y-15391813D01*
X4039368Y-15410860D02*
X4077463Y-15410860D01*
X4077463Y-15410860D02*
X4096511Y-15401336D01*
X4096511Y-15401336D02*
X4106034Y-15391813D01*
X4106034Y-15391813D02*
X4125082Y-15363241D01*
X4125082Y-15363241D02*
X4134606Y-15325146D01*
X4134606Y-15325146D02*
X4134606Y-15248955D01*
X4134606Y-15248955D02*
X4125082Y-15229908D01*
X4125082Y-15229908D02*
X4115558Y-15220384D01*
X4115558Y-15220384D02*
X4096511Y-15210860D01*
X4096511Y-15210860D02*
X4058415Y-15210860D01*
X4058415Y-15210860D02*
X4039368Y-15220384D01*
X4039368Y-15220384D02*
X4029844Y-15229908D01*
X4029844Y-15229908D02*
X4020320Y-15248955D01*
X4020320Y-15248955D02*
X4020320Y-15296574D01*
X4020320Y-15296574D02*
X4029844Y-15315622D01*
X4029844Y-15315622D02*
X4039368Y-15325146D01*
X4039368Y-15325146D02*
X4058415Y-15334670D01*
X4058415Y-15334670D02*
X4096511Y-15334670D01*
X4096511Y-15334670D02*
X4115558Y-15325146D01*
X4115558Y-15325146D02*
X4125082Y-15315622D01*
X4125082Y-15315622D02*
X4134606Y-15296574D01*
X4306035Y-15277527D02*
X4306035Y-15410860D01*
X4258415Y-15201336D02*
X4210796Y-15344194D01*
X4210796Y-15344194D02*
X4334606Y-15344194D01*
X4401273Y-15210860D02*
X4401273Y-15248955D01*
X4477463Y-15210860D02*
X4477463Y-15248955D01*
X4772701Y-15487051D02*
X4763177Y-15477527D01*
X4763177Y-15477527D02*
X4744130Y-15448955D01*
X4744130Y-15448955D02*
X4734606Y-15429908D01*
X4734606Y-15429908D02*
X4725082Y-15401336D01*
X4725082Y-15401336D02*
X4715558Y-15353717D01*
X4715558Y-15353717D02*
X4715558Y-15315622D01*
X4715558Y-15315622D02*
X4725082Y-15268003D01*
X4725082Y-15268003D02*
X4734606Y-15239432D01*
X4734606Y-15239432D02*
X4744130Y-15220384D01*
X4744130Y-15220384D02*
X4763177Y-15191813D01*
X4763177Y-15191813D02*
X4772701Y-15182289D01*
X4953654Y-15410860D02*
X4839368Y-15410860D01*
X4896511Y-15410860D02*
X4896511Y-15210860D01*
X4896511Y-15210860D02*
X4877463Y-15239432D01*
X4877463Y-15239432D02*
X4858416Y-15258479D01*
X4858416Y-15258479D02*
X4839368Y-15268003D01*
X5125082Y-15277527D02*
X5125082Y-15410860D01*
X5077463Y-15201336D02*
X5029844Y-15344194D01*
X5029844Y-15344194D02*
X5153654Y-15344194D01*
X5258416Y-15296574D02*
X5239368Y-15287051D01*
X5239368Y-15287051D02*
X5229844Y-15277527D01*
X5229844Y-15277527D02*
X5220320Y-15258479D01*
X5220320Y-15258479D02*
X5220320Y-15248955D01*
X5220320Y-15248955D02*
X5229844Y-15229908D01*
X5229844Y-15229908D02*
X5239368Y-15220384D01*
X5239368Y-15220384D02*
X5258416Y-15210860D01*
X5258416Y-15210860D02*
X5296511Y-15210860D01*
X5296511Y-15210860D02*
X5315558Y-15220384D01*
X5315558Y-15220384D02*
X5325082Y-15229908D01*
X5325082Y-15229908D02*
X5334606Y-15248955D01*
X5334606Y-15248955D02*
X5334606Y-15258479D01*
X5334606Y-15258479D02*
X5325082Y-15277527D01*
X5325082Y-15277527D02*
X5315558Y-15287051D01*
X5315558Y-15287051D02*
X5296511Y-15296574D01*
X5296511Y-15296574D02*
X5258416Y-15296574D01*
X5258416Y-15296574D02*
X5239368Y-15306098D01*
X5239368Y-15306098D02*
X5229844Y-15315622D01*
X5229844Y-15315622D02*
X5220320Y-15334670D01*
X5220320Y-15334670D02*
X5220320Y-15372765D01*
X5220320Y-15372765D02*
X5229844Y-15391813D01*
X5229844Y-15391813D02*
X5239368Y-15401336D01*
X5239368Y-15401336D02*
X5258416Y-15410860D01*
X5258416Y-15410860D02*
X5296511Y-15410860D01*
X5296511Y-15410860D02*
X5315558Y-15401336D01*
X5315558Y-15401336D02*
X5325082Y-15391813D01*
X5325082Y-15391813D02*
X5334606Y-15372765D01*
X5334606Y-15372765D02*
X5334606Y-15334670D01*
X5334606Y-15334670D02*
X5325082Y-15315622D01*
X5325082Y-15315622D02*
X5315558Y-15306098D01*
X5315558Y-15306098D02*
X5296511Y-15296574D01*
X5572701Y-15410860D02*
X5572701Y-15210860D01*
X5658416Y-15410860D02*
X5658416Y-15306098D01*
X5658416Y-15306098D02*
X5648892Y-15287051D01*
X5648892Y-15287051D02*
X5629844Y-15277527D01*
X5629844Y-15277527D02*
X5601273Y-15277527D01*
X5601273Y-15277527D02*
X5582225Y-15287051D01*
X5582225Y-15287051D02*
X5572701Y-15296574D01*
X5782225Y-15410860D02*
X5763177Y-15401336D01*
X5763177Y-15401336D02*
X5753654Y-15391813D01*
X5753654Y-15391813D02*
X5744130Y-15372765D01*
X5744130Y-15372765D02*
X5744130Y-15315622D01*
X5744130Y-15315622D02*
X5753654Y-15296574D01*
X5753654Y-15296574D02*
X5763177Y-15287051D01*
X5763177Y-15287051D02*
X5782225Y-15277527D01*
X5782225Y-15277527D02*
X5810797Y-15277527D01*
X5810797Y-15277527D02*
X5829844Y-15287051D01*
X5829844Y-15287051D02*
X5839368Y-15296574D01*
X5839368Y-15296574D02*
X5848892Y-15315622D01*
X5848892Y-15315622D02*
X5848892Y-15372765D01*
X5848892Y-15372765D02*
X5839368Y-15391813D01*
X5839368Y-15391813D02*
X5829844Y-15401336D01*
X5829844Y-15401336D02*
X5810797Y-15410860D01*
X5810797Y-15410860D02*
X5782225Y-15410860D01*
X5963177Y-15410860D02*
X5944130Y-15401336D01*
X5944130Y-15401336D02*
X5934606Y-15382289D01*
X5934606Y-15382289D02*
X5934606Y-15210860D01*
X6115558Y-15401336D02*
X6096511Y-15410860D01*
X6096511Y-15410860D02*
X6058416Y-15410860D01*
X6058416Y-15410860D02*
X6039368Y-15401336D01*
X6039368Y-15401336D02*
X6029844Y-15382289D01*
X6029844Y-15382289D02*
X6029844Y-15306098D01*
X6029844Y-15306098D02*
X6039368Y-15287051D01*
X6039368Y-15287051D02*
X6058416Y-15277527D01*
X6058416Y-15277527D02*
X6096511Y-15277527D01*
X6096511Y-15277527D02*
X6115558Y-15287051D01*
X6115558Y-15287051D02*
X6125082Y-15306098D01*
X6125082Y-15306098D02*
X6125082Y-15325146D01*
X6125082Y-15325146D02*
X6029844Y-15344194D01*
X6201273Y-15401336D02*
X6220320Y-15410860D01*
X6220320Y-15410860D02*
X6258416Y-15410860D01*
X6258416Y-15410860D02*
X6277463Y-15401336D01*
X6277463Y-15401336D02*
X6286987Y-15382289D01*
X6286987Y-15382289D02*
X6286987Y-15372765D01*
X6286987Y-15372765D02*
X6277463Y-15353717D01*
X6277463Y-15353717D02*
X6258416Y-15344194D01*
X6258416Y-15344194D02*
X6229844Y-15344194D01*
X6229844Y-15344194D02*
X6210797Y-15334670D01*
X6210797Y-15334670D02*
X6201273Y-15315622D01*
X6201273Y-15315622D02*
X6201273Y-15306098D01*
X6201273Y-15306098D02*
X6210797Y-15287051D01*
X6210797Y-15287051D02*
X6229844Y-15277527D01*
X6229844Y-15277527D02*
X6258416Y-15277527D01*
X6258416Y-15277527D02*
X6277463Y-15287051D01*
X6353654Y-15487051D02*
X6363178Y-15477527D01*
X6363178Y-15477527D02*
X6382225Y-15448955D01*
X6382225Y-15448955D02*
X6391749Y-15429908D01*
X6391749Y-15429908D02*
X6401273Y-15401336D01*
X6401273Y-15401336D02*
X6410797Y-15353717D01*
X6410797Y-15353717D02*
X6410797Y-15315622D01*
X6410797Y-15315622D02*
X6401273Y-15268003D01*
X6401273Y-15268003D02*
X6391749Y-15239432D01*
X6391749Y-15239432D02*
X6382225Y-15220384D01*
X6382225Y-15220384D02*
X6363178Y-15191813D01*
X6363178Y-15191813D02*
X6353654Y-15182289D01*
D13*
X1142638Y-15528376D02*
X1142638Y-15638376D01*
X1087638Y-15583376D02*
X1197638Y-15583376D01*
D11*
X1563177Y-15674860D02*
X1448891Y-15674860D01*
X1506034Y-15674860D02*
X1506034Y-15474860D01*
X1506034Y-15474860D02*
X1486987Y-15503432D01*
X1486987Y-15503432D02*
X1467939Y-15522479D01*
X1467939Y-15522479D02*
X1448891Y-15532003D01*
X1648891Y-15655813D02*
X1658415Y-15665336D01*
X1658415Y-15665336D02*
X1648891Y-15674860D01*
X1648891Y-15674860D02*
X1639368Y-15665336D01*
X1639368Y-15665336D02*
X1648891Y-15655813D01*
X1648891Y-15655813D02*
X1648891Y-15674860D01*
X1848891Y-15674860D02*
X1734606Y-15674860D01*
X1791748Y-15674860D02*
X1791748Y-15474860D01*
X1791748Y-15474860D02*
X1772701Y-15503432D01*
X1772701Y-15503432D02*
X1753653Y-15522479D01*
X1753653Y-15522479D02*
X1734606Y-15532003D01*
X1972701Y-15474860D02*
X1991749Y-15474860D01*
X1991749Y-15474860D02*
X2010796Y-15484384D01*
X2010796Y-15484384D02*
X2020320Y-15493908D01*
X2020320Y-15493908D02*
X2029844Y-15512955D01*
X2029844Y-15512955D02*
X2039368Y-15551051D01*
X2039368Y-15551051D02*
X2039368Y-15598670D01*
X2039368Y-15598670D02*
X2029844Y-15636765D01*
X2029844Y-15636765D02*
X2020320Y-15655813D01*
X2020320Y-15655813D02*
X2010796Y-15665336D01*
X2010796Y-15665336D02*
X1991749Y-15674860D01*
X1991749Y-15674860D02*
X1972701Y-15674860D01*
X1972701Y-15674860D02*
X1953653Y-15665336D01*
X1953653Y-15665336D02*
X1944129Y-15655813D01*
X1944129Y-15655813D02*
X1934606Y-15636765D01*
X1934606Y-15636765D02*
X1925082Y-15598670D01*
X1925082Y-15598670D02*
X1925082Y-15551051D01*
X1925082Y-15551051D02*
X1934606Y-15512955D01*
X1934606Y-15512955D02*
X1944129Y-15493908D01*
X1944129Y-15493908D02*
X1953653Y-15484384D01*
X1953653Y-15484384D02*
X1972701Y-15474860D01*
X2163177Y-15474860D02*
X2182225Y-15474860D01*
X2182225Y-15474860D02*
X2201272Y-15484384D01*
X2201272Y-15484384D02*
X2210796Y-15493908D01*
X2210796Y-15493908D02*
X2220320Y-15512955D01*
X2220320Y-15512955D02*
X2229844Y-15551051D01*
X2229844Y-15551051D02*
X2229844Y-15598670D01*
X2229844Y-15598670D02*
X2220320Y-15636765D01*
X2220320Y-15636765D02*
X2210796Y-15655813D01*
X2210796Y-15655813D02*
X2201272Y-15665336D01*
X2201272Y-15665336D02*
X2182225Y-15674860D01*
X2182225Y-15674860D02*
X2163177Y-15674860D01*
X2163177Y-15674860D02*
X2144130Y-15665336D01*
X2144130Y-15665336D02*
X2134606Y-15655813D01*
X2134606Y-15655813D02*
X2125082Y-15636765D01*
X2125082Y-15636765D02*
X2115558Y-15598670D01*
X2115558Y-15598670D02*
X2115558Y-15551051D01*
X2115558Y-15551051D02*
X2125082Y-15512955D01*
X2125082Y-15512955D02*
X2134606Y-15493908D01*
X2134606Y-15493908D02*
X2144130Y-15484384D01*
X2144130Y-15484384D02*
X2163177Y-15474860D01*
X2315558Y-15674860D02*
X2315558Y-15541527D01*
X2315558Y-15560574D02*
X2325082Y-15551051D01*
X2325082Y-15551051D02*
X2344130Y-15541527D01*
X2344130Y-15541527D02*
X2372701Y-15541527D01*
X2372701Y-15541527D02*
X2391749Y-15551051D01*
X2391749Y-15551051D02*
X2401272Y-15570098D01*
X2401272Y-15570098D02*
X2401272Y-15674860D01*
X2401272Y-15570098D02*
X2410796Y-15551051D01*
X2410796Y-15551051D02*
X2429844Y-15541527D01*
X2429844Y-15541527D02*
X2458415Y-15541527D01*
X2458415Y-15541527D02*
X2477463Y-15551051D01*
X2477463Y-15551051D02*
X2486987Y-15570098D01*
X2486987Y-15570098D02*
X2486987Y-15674860D01*
X2582225Y-15674860D02*
X2582225Y-15541527D01*
X2582225Y-15560574D02*
X2591749Y-15551051D01*
X2591749Y-15551051D02*
X2610796Y-15541527D01*
X2610796Y-15541527D02*
X2639368Y-15541527D01*
X2639368Y-15541527D02*
X2658415Y-15551051D01*
X2658415Y-15551051D02*
X2667939Y-15570098D01*
X2667939Y-15570098D02*
X2667939Y-15674860D01*
X2667939Y-15570098D02*
X2677463Y-15551051D01*
X2677463Y-15551051D02*
X2696511Y-15541527D01*
X2696511Y-15541527D02*
X2725082Y-15541527D01*
X2725082Y-15541527D02*
X2744130Y-15551051D01*
X2744130Y-15551051D02*
X2753653Y-15570098D01*
X2753653Y-15570098D02*
X2753653Y-15674860D01*
X3144130Y-15465336D02*
X2972701Y-15722479D01*
X3401272Y-15474860D02*
X3420320Y-15474860D01*
X3420320Y-15474860D02*
X3439368Y-15484384D01*
X3439368Y-15484384D02*
X3448892Y-15493908D01*
X3448892Y-15493908D02*
X3458415Y-15512955D01*
X3458415Y-15512955D02*
X3467939Y-15551051D01*
X3467939Y-15551051D02*
X3467939Y-15598670D01*
X3467939Y-15598670D02*
X3458415Y-15636765D01*
X3458415Y-15636765D02*
X3448892Y-15655813D01*
X3448892Y-15655813D02*
X3439368Y-15665336D01*
X3439368Y-15665336D02*
X3420320Y-15674860D01*
X3420320Y-15674860D02*
X3401272Y-15674860D01*
X3401272Y-15674860D02*
X3382225Y-15665336D01*
X3382225Y-15665336D02*
X3372701Y-15655813D01*
X3372701Y-15655813D02*
X3363177Y-15636765D01*
X3363177Y-15636765D02*
X3353653Y-15598670D01*
X3353653Y-15598670D02*
X3353653Y-15551051D01*
X3353653Y-15551051D02*
X3363177Y-15512955D01*
X3363177Y-15512955D02*
X3372701Y-15493908D01*
X3372701Y-15493908D02*
X3382225Y-15484384D01*
X3382225Y-15484384D02*
X3401272Y-15474860D01*
X3553653Y-15655813D02*
X3563177Y-15665336D01*
X3563177Y-15665336D02*
X3553653Y-15674860D01*
X3553653Y-15674860D02*
X3544130Y-15665336D01*
X3544130Y-15665336D02*
X3553653Y-15655813D01*
X3553653Y-15655813D02*
X3553653Y-15674860D01*
X3686987Y-15474860D02*
X3706034Y-15474860D01*
X3706034Y-15474860D02*
X3725082Y-15484384D01*
X3725082Y-15484384D02*
X3734606Y-15493908D01*
X3734606Y-15493908D02*
X3744130Y-15512955D01*
X3744130Y-15512955D02*
X3753653Y-15551051D01*
X3753653Y-15551051D02*
X3753653Y-15598670D01*
X3753653Y-15598670D02*
X3744130Y-15636765D01*
X3744130Y-15636765D02*
X3734606Y-15655813D01*
X3734606Y-15655813D02*
X3725082Y-15665336D01*
X3725082Y-15665336D02*
X3706034Y-15674860D01*
X3706034Y-15674860D02*
X3686987Y-15674860D01*
X3686987Y-15674860D02*
X3667939Y-15665336D01*
X3667939Y-15665336D02*
X3658415Y-15655813D01*
X3658415Y-15655813D02*
X3648892Y-15636765D01*
X3648892Y-15636765D02*
X3639368Y-15598670D01*
X3639368Y-15598670D02*
X3639368Y-15551051D01*
X3639368Y-15551051D02*
X3648892Y-15512955D01*
X3648892Y-15512955D02*
X3658415Y-15493908D01*
X3658415Y-15493908D02*
X3667939Y-15484384D01*
X3667939Y-15484384D02*
X3686987Y-15474860D01*
X3925082Y-15541527D02*
X3925082Y-15674860D01*
X3877463Y-15465336D02*
X3829844Y-15608194D01*
X3829844Y-15608194D02*
X3953653Y-15608194D01*
X4010796Y-15474860D02*
X4134606Y-15474860D01*
X4134606Y-15474860D02*
X4067939Y-15551051D01*
X4067939Y-15551051D02*
X4096511Y-15551051D01*
X4096511Y-15551051D02*
X4115558Y-15560574D01*
X4115558Y-15560574D02*
X4125082Y-15570098D01*
X4125082Y-15570098D02*
X4134606Y-15589146D01*
X4134606Y-15589146D02*
X4134606Y-15636765D01*
X4134606Y-15636765D02*
X4125082Y-15655813D01*
X4125082Y-15655813D02*
X4115558Y-15665336D01*
X4115558Y-15665336D02*
X4096511Y-15674860D01*
X4096511Y-15674860D02*
X4039368Y-15674860D01*
X4039368Y-15674860D02*
X4020320Y-15665336D01*
X4020320Y-15665336D02*
X4010796Y-15655813D01*
X4201273Y-15474860D02*
X4325082Y-15474860D01*
X4325082Y-15474860D02*
X4258415Y-15551051D01*
X4258415Y-15551051D02*
X4286987Y-15551051D01*
X4286987Y-15551051D02*
X4306035Y-15560574D01*
X4306035Y-15560574D02*
X4315558Y-15570098D01*
X4315558Y-15570098D02*
X4325082Y-15589146D01*
X4325082Y-15589146D02*
X4325082Y-15636765D01*
X4325082Y-15636765D02*
X4315558Y-15655813D01*
X4315558Y-15655813D02*
X4306035Y-15665336D01*
X4306035Y-15665336D02*
X4286987Y-15674860D01*
X4286987Y-15674860D02*
X4229844Y-15674860D01*
X4229844Y-15674860D02*
X4210796Y-15665336D01*
X4210796Y-15665336D02*
X4201273Y-15655813D01*
X4401273Y-15474860D02*
X4401273Y-15512955D01*
X4477463Y-15474860D02*
X4477463Y-15512955D01*
X4772701Y-15751051D02*
X4763177Y-15741527D01*
X4763177Y-15741527D02*
X4744130Y-15712955D01*
X4744130Y-15712955D02*
X4734606Y-15693908D01*
X4734606Y-15693908D02*
X4725082Y-15665336D01*
X4725082Y-15665336D02*
X4715558Y-15617717D01*
X4715558Y-15617717D02*
X4715558Y-15579622D01*
X4715558Y-15579622D02*
X4725082Y-15532003D01*
X4725082Y-15532003D02*
X4734606Y-15503432D01*
X4734606Y-15503432D02*
X4744130Y-15484384D01*
X4744130Y-15484384D02*
X4763177Y-15455813D01*
X4763177Y-15455813D02*
X4772701Y-15446289D01*
X4934606Y-15474860D02*
X4896511Y-15474860D01*
X4896511Y-15474860D02*
X4877463Y-15484384D01*
X4877463Y-15484384D02*
X4867939Y-15493908D01*
X4867939Y-15493908D02*
X4848892Y-15522479D01*
X4848892Y-15522479D02*
X4839368Y-15560574D01*
X4839368Y-15560574D02*
X4839368Y-15636765D01*
X4839368Y-15636765D02*
X4848892Y-15655813D01*
X4848892Y-15655813D02*
X4858416Y-15665336D01*
X4858416Y-15665336D02*
X4877463Y-15674860D01*
X4877463Y-15674860D02*
X4915558Y-15674860D01*
X4915558Y-15674860D02*
X4934606Y-15665336D01*
X4934606Y-15665336D02*
X4944130Y-15655813D01*
X4944130Y-15655813D02*
X4953654Y-15636765D01*
X4953654Y-15636765D02*
X4953654Y-15589146D01*
X4953654Y-15589146D02*
X4944130Y-15570098D01*
X4944130Y-15570098D02*
X4934606Y-15560574D01*
X4934606Y-15560574D02*
X4915558Y-15551051D01*
X4915558Y-15551051D02*
X4877463Y-15551051D01*
X4877463Y-15551051D02*
X4858416Y-15560574D01*
X4858416Y-15560574D02*
X4848892Y-15570098D01*
X4848892Y-15570098D02*
X4839368Y-15589146D01*
X5125082Y-15541527D02*
X5125082Y-15674860D01*
X5077463Y-15465336D02*
X5029844Y-15608194D01*
X5029844Y-15608194D02*
X5153654Y-15608194D01*
X5382225Y-15674860D02*
X5382225Y-15474860D01*
X5467939Y-15674860D02*
X5467939Y-15570098D01*
X5467939Y-15570098D02*
X5458416Y-15551051D01*
X5458416Y-15551051D02*
X5439368Y-15541527D01*
X5439368Y-15541527D02*
X5410797Y-15541527D01*
X5410797Y-15541527D02*
X5391749Y-15551051D01*
X5391749Y-15551051D02*
X5382225Y-15560574D01*
X5591749Y-15674860D02*
X5572701Y-15665336D01*
X5572701Y-15665336D02*
X5563178Y-15655813D01*
X5563178Y-15655813D02*
X5553654Y-15636765D01*
X5553654Y-15636765D02*
X5553654Y-15579622D01*
X5553654Y-15579622D02*
X5563178Y-15560574D01*
X5563178Y-15560574D02*
X5572701Y-15551051D01*
X5572701Y-15551051D02*
X5591749Y-15541527D01*
X5591749Y-15541527D02*
X5620320Y-15541527D01*
X5620320Y-15541527D02*
X5639368Y-15551051D01*
X5639368Y-15551051D02*
X5648892Y-15560574D01*
X5648892Y-15560574D02*
X5658416Y-15579622D01*
X5658416Y-15579622D02*
X5658416Y-15636765D01*
X5658416Y-15636765D02*
X5648892Y-15655813D01*
X5648892Y-15655813D02*
X5639368Y-15665336D01*
X5639368Y-15665336D02*
X5620320Y-15674860D01*
X5620320Y-15674860D02*
X5591749Y-15674860D01*
X5772701Y-15674860D02*
X5753654Y-15665336D01*
X5753654Y-15665336D02*
X5744130Y-15646289D01*
X5744130Y-15646289D02*
X5744130Y-15474860D01*
X5925082Y-15665336D02*
X5906035Y-15674860D01*
X5906035Y-15674860D02*
X5867939Y-15674860D01*
X5867939Y-15674860D02*
X5848892Y-15665336D01*
X5848892Y-15665336D02*
X5839368Y-15646289D01*
X5839368Y-15646289D02*
X5839368Y-15570098D01*
X5839368Y-15570098D02*
X5848892Y-15551051D01*
X5848892Y-15551051D02*
X5867939Y-15541527D01*
X5867939Y-15541527D02*
X5906035Y-15541527D01*
X5906035Y-15541527D02*
X5925082Y-15551051D01*
X5925082Y-15551051D02*
X5934606Y-15570098D01*
X5934606Y-15570098D02*
X5934606Y-15589146D01*
X5934606Y-15589146D02*
X5839368Y-15608194D01*
X6010797Y-15665336D02*
X6029844Y-15674860D01*
X6029844Y-15674860D02*
X6067939Y-15674860D01*
X6067939Y-15674860D02*
X6086987Y-15665336D01*
X6086987Y-15665336D02*
X6096511Y-15646289D01*
X6096511Y-15646289D02*
X6096511Y-15636765D01*
X6096511Y-15636765D02*
X6086987Y-15617717D01*
X6086987Y-15617717D02*
X6067939Y-15608194D01*
X6067939Y-15608194D02*
X6039368Y-15608194D01*
X6039368Y-15608194D02*
X6020320Y-15598670D01*
X6020320Y-15598670D02*
X6010797Y-15579622D01*
X6010797Y-15579622D02*
X6010797Y-15570098D01*
X6010797Y-15570098D02*
X6020320Y-15551051D01*
X6020320Y-15551051D02*
X6039368Y-15541527D01*
X6039368Y-15541527D02*
X6067939Y-15541527D01*
X6067939Y-15541527D02*
X6086987Y-15551051D01*
X6163178Y-15751051D02*
X6172701Y-15741527D01*
X6172701Y-15741527D02*
X6191749Y-15712955D01*
X6191749Y-15712955D02*
X6201273Y-15693908D01*
X6201273Y-15693908D02*
X6210797Y-15665336D01*
X6210797Y-15665336D02*
X6220320Y-15617717D01*
X6220320Y-15617717D02*
X6220320Y-15579622D01*
X6220320Y-15579622D02*
X6210797Y-15532003D01*
X6210797Y-15532003D02*
X6201273Y-15503432D01*
X6201273Y-15503432D02*
X6191749Y-15484384D01*
X6191749Y-15484384D02*
X6172701Y-15455813D01*
X6172701Y-15455813D02*
X6163178Y-15446289D01*
X1168350Y-15918088D02*
X1168350Y-15776665D01*
X1026927Y-15776665D01*
X1026927Y-15918088D01*
X1168350Y-15918088D01*
X1439368Y-15738860D02*
X1563177Y-15738860D01*
X1563177Y-15738860D02*
X1496510Y-15815051D01*
X1496510Y-15815051D02*
X1525082Y-15815051D01*
X1525082Y-15815051D02*
X1544129Y-15824574D01*
X1544129Y-15824574D02*
X1553653Y-15834098D01*
X1553653Y-15834098D02*
X1563177Y-15853146D01*
X1563177Y-15853146D02*
X1563177Y-15900765D01*
X1563177Y-15900765D02*
X1553653Y-15919813D01*
X1553653Y-15919813D02*
X1544129Y-15929336D01*
X1544129Y-15929336D02*
X1525082Y-15938860D01*
X1525082Y-15938860D02*
X1467939Y-15938860D01*
X1467939Y-15938860D02*
X1448891Y-15929336D01*
X1448891Y-15929336D02*
X1439368Y-15919813D01*
X1648891Y-15919813D02*
X1658415Y-15929336D01*
X1658415Y-15929336D02*
X1648891Y-15938860D01*
X1648891Y-15938860D02*
X1639368Y-15929336D01*
X1639368Y-15929336D02*
X1648891Y-15919813D01*
X1648891Y-15919813D02*
X1648891Y-15938860D01*
X1734606Y-15757908D02*
X1744129Y-15748384D01*
X1744129Y-15748384D02*
X1763177Y-15738860D01*
X1763177Y-15738860D02*
X1810796Y-15738860D01*
X1810796Y-15738860D02*
X1829844Y-15748384D01*
X1829844Y-15748384D02*
X1839368Y-15757908D01*
X1839368Y-15757908D02*
X1848891Y-15776955D01*
X1848891Y-15776955D02*
X1848891Y-15796003D01*
X1848891Y-15796003D02*
X1839368Y-15824574D01*
X1839368Y-15824574D02*
X1725082Y-15938860D01*
X1725082Y-15938860D02*
X1848891Y-15938860D01*
X1972701Y-15738860D02*
X1991749Y-15738860D01*
X1991749Y-15738860D02*
X2010796Y-15748384D01*
X2010796Y-15748384D02*
X2020320Y-15757908D01*
X2020320Y-15757908D02*
X2029844Y-15776955D01*
X2029844Y-15776955D02*
X2039368Y-15815051D01*
X2039368Y-15815051D02*
X2039368Y-15862670D01*
X2039368Y-15862670D02*
X2029844Y-15900765D01*
X2029844Y-15900765D02*
X2020320Y-15919813D01*
X2020320Y-15919813D02*
X2010796Y-15929336D01*
X2010796Y-15929336D02*
X1991749Y-15938860D01*
X1991749Y-15938860D02*
X1972701Y-15938860D01*
X1972701Y-15938860D02*
X1953653Y-15929336D01*
X1953653Y-15929336D02*
X1944129Y-15919813D01*
X1944129Y-15919813D02*
X1934606Y-15900765D01*
X1934606Y-15900765D02*
X1925082Y-15862670D01*
X1925082Y-15862670D02*
X1925082Y-15815051D01*
X1925082Y-15815051D02*
X1934606Y-15776955D01*
X1934606Y-15776955D02*
X1944129Y-15757908D01*
X1944129Y-15757908D02*
X1953653Y-15748384D01*
X1953653Y-15748384D02*
X1972701Y-15738860D01*
X2163177Y-15738860D02*
X2182225Y-15738860D01*
X2182225Y-15738860D02*
X2201272Y-15748384D01*
X2201272Y-15748384D02*
X2210796Y-15757908D01*
X2210796Y-15757908D02*
X2220320Y-15776955D01*
X2220320Y-15776955D02*
X2229844Y-15815051D01*
X2229844Y-15815051D02*
X2229844Y-15862670D01*
X2229844Y-15862670D02*
X2220320Y-15900765D01*
X2220320Y-15900765D02*
X2210796Y-15919813D01*
X2210796Y-15919813D02*
X2201272Y-15929336D01*
X2201272Y-15929336D02*
X2182225Y-15938860D01*
X2182225Y-15938860D02*
X2163177Y-15938860D01*
X2163177Y-15938860D02*
X2144130Y-15929336D01*
X2144130Y-15929336D02*
X2134606Y-15919813D01*
X2134606Y-15919813D02*
X2125082Y-15900765D01*
X2125082Y-15900765D02*
X2115558Y-15862670D01*
X2115558Y-15862670D02*
X2115558Y-15815051D01*
X2115558Y-15815051D02*
X2125082Y-15776955D01*
X2125082Y-15776955D02*
X2134606Y-15757908D01*
X2134606Y-15757908D02*
X2144130Y-15748384D01*
X2144130Y-15748384D02*
X2163177Y-15738860D01*
X2315558Y-15938860D02*
X2315558Y-15805527D01*
X2315558Y-15824574D02*
X2325082Y-15815051D01*
X2325082Y-15815051D02*
X2344130Y-15805527D01*
X2344130Y-15805527D02*
X2372701Y-15805527D01*
X2372701Y-15805527D02*
X2391749Y-15815051D01*
X2391749Y-15815051D02*
X2401272Y-15834098D01*
X2401272Y-15834098D02*
X2401272Y-15938860D01*
X2401272Y-15834098D02*
X2410796Y-15815051D01*
X2410796Y-15815051D02*
X2429844Y-15805527D01*
X2429844Y-15805527D02*
X2458415Y-15805527D01*
X2458415Y-15805527D02*
X2477463Y-15815051D01*
X2477463Y-15815051D02*
X2486987Y-15834098D01*
X2486987Y-15834098D02*
X2486987Y-15938860D01*
X2582225Y-15938860D02*
X2582225Y-15805527D01*
X2582225Y-15824574D02*
X2591749Y-15815051D01*
X2591749Y-15815051D02*
X2610796Y-15805527D01*
X2610796Y-15805527D02*
X2639368Y-15805527D01*
X2639368Y-15805527D02*
X2658415Y-15815051D01*
X2658415Y-15815051D02*
X2667939Y-15834098D01*
X2667939Y-15834098D02*
X2667939Y-15938860D01*
X2667939Y-15834098D02*
X2677463Y-15815051D01*
X2677463Y-15815051D02*
X2696511Y-15805527D01*
X2696511Y-15805527D02*
X2725082Y-15805527D01*
X2725082Y-15805527D02*
X2744130Y-15815051D01*
X2744130Y-15815051D02*
X2753653Y-15834098D01*
X2753653Y-15834098D02*
X2753653Y-15938860D01*
X3144130Y-15729336D02*
X2972701Y-15986479D01*
X3401272Y-15738860D02*
X3420320Y-15738860D01*
X3420320Y-15738860D02*
X3439368Y-15748384D01*
X3439368Y-15748384D02*
X3448892Y-15757908D01*
X3448892Y-15757908D02*
X3458415Y-15776955D01*
X3458415Y-15776955D02*
X3467939Y-15815051D01*
X3467939Y-15815051D02*
X3467939Y-15862670D01*
X3467939Y-15862670D02*
X3458415Y-15900765D01*
X3458415Y-15900765D02*
X3448892Y-15919813D01*
X3448892Y-15919813D02*
X3439368Y-15929336D01*
X3439368Y-15929336D02*
X3420320Y-15938860D01*
X3420320Y-15938860D02*
X3401272Y-15938860D01*
X3401272Y-15938860D02*
X3382225Y-15929336D01*
X3382225Y-15929336D02*
X3372701Y-15919813D01*
X3372701Y-15919813D02*
X3363177Y-15900765D01*
X3363177Y-15900765D02*
X3353653Y-15862670D01*
X3353653Y-15862670D02*
X3353653Y-15815051D01*
X3353653Y-15815051D02*
X3363177Y-15776955D01*
X3363177Y-15776955D02*
X3372701Y-15757908D01*
X3372701Y-15757908D02*
X3382225Y-15748384D01*
X3382225Y-15748384D02*
X3401272Y-15738860D01*
X3553653Y-15919813D02*
X3563177Y-15929336D01*
X3563177Y-15929336D02*
X3553653Y-15938860D01*
X3553653Y-15938860D02*
X3544130Y-15929336D01*
X3544130Y-15929336D02*
X3553653Y-15919813D01*
X3553653Y-15919813D02*
X3553653Y-15938860D01*
X3753653Y-15938860D02*
X3639368Y-15938860D01*
X3696511Y-15938860D02*
X3696511Y-15738860D01*
X3696511Y-15738860D02*
X3677463Y-15767432D01*
X3677463Y-15767432D02*
X3658415Y-15786479D01*
X3658415Y-15786479D02*
X3639368Y-15796003D01*
X3829844Y-15757908D02*
X3839368Y-15748384D01*
X3839368Y-15748384D02*
X3858415Y-15738860D01*
X3858415Y-15738860D02*
X3906034Y-15738860D01*
X3906034Y-15738860D02*
X3925082Y-15748384D01*
X3925082Y-15748384D02*
X3934606Y-15757908D01*
X3934606Y-15757908D02*
X3944130Y-15776955D01*
X3944130Y-15776955D02*
X3944130Y-15796003D01*
X3944130Y-15796003D02*
X3934606Y-15824574D01*
X3934606Y-15824574D02*
X3820320Y-15938860D01*
X3820320Y-15938860D02*
X3944130Y-15938860D01*
X4115558Y-15738860D02*
X4077463Y-15738860D01*
X4077463Y-15738860D02*
X4058415Y-15748384D01*
X4058415Y-15748384D02*
X4048892Y-15757908D01*
X4048892Y-15757908D02*
X4029844Y-15786479D01*
X4029844Y-15786479D02*
X4020320Y-15824574D01*
X4020320Y-15824574D02*
X4020320Y-15900765D01*
X4020320Y-15900765D02*
X4029844Y-15919813D01*
X4029844Y-15919813D02*
X4039368Y-15929336D01*
X4039368Y-15929336D02*
X4058415Y-15938860D01*
X4058415Y-15938860D02*
X4096511Y-15938860D01*
X4096511Y-15938860D02*
X4115558Y-15929336D01*
X4115558Y-15929336D02*
X4125082Y-15919813D01*
X4125082Y-15919813D02*
X4134606Y-15900765D01*
X4134606Y-15900765D02*
X4134606Y-15853146D01*
X4134606Y-15853146D02*
X4125082Y-15834098D01*
X4125082Y-15834098D02*
X4115558Y-15824574D01*
X4115558Y-15824574D02*
X4096511Y-15815051D01*
X4096511Y-15815051D02*
X4058415Y-15815051D01*
X4058415Y-15815051D02*
X4039368Y-15824574D01*
X4039368Y-15824574D02*
X4029844Y-15834098D01*
X4029844Y-15834098D02*
X4020320Y-15853146D01*
X4258415Y-15738860D02*
X4277463Y-15738860D01*
X4277463Y-15738860D02*
X4296511Y-15748384D01*
X4296511Y-15748384D02*
X4306035Y-15757908D01*
X4306035Y-15757908D02*
X4315558Y-15776955D01*
X4315558Y-15776955D02*
X4325082Y-15815051D01*
X4325082Y-15815051D02*
X4325082Y-15862670D01*
X4325082Y-15862670D02*
X4315558Y-15900765D01*
X4315558Y-15900765D02*
X4306035Y-15919813D01*
X4306035Y-15919813D02*
X4296511Y-15929336D01*
X4296511Y-15929336D02*
X4277463Y-15938860D01*
X4277463Y-15938860D02*
X4258415Y-15938860D01*
X4258415Y-15938860D02*
X4239368Y-15929336D01*
X4239368Y-15929336D02*
X4229844Y-15919813D01*
X4229844Y-15919813D02*
X4220320Y-15900765D01*
X4220320Y-15900765D02*
X4210796Y-15862670D01*
X4210796Y-15862670D02*
X4210796Y-15815051D01*
X4210796Y-15815051D02*
X4220320Y-15776955D01*
X4220320Y-15776955D02*
X4229844Y-15757908D01*
X4229844Y-15757908D02*
X4239368Y-15748384D01*
X4239368Y-15748384D02*
X4258415Y-15738860D01*
X4401273Y-15738860D02*
X4401273Y-15776955D01*
X4477463Y-15738860D02*
X4477463Y-15776955D01*
X4772701Y-16015051D02*
X4763177Y-16005527D01*
X4763177Y-16005527D02*
X4744130Y-15976955D01*
X4744130Y-15976955D02*
X4734606Y-15957908D01*
X4734606Y-15957908D02*
X4725082Y-15929336D01*
X4725082Y-15929336D02*
X4715558Y-15881717D01*
X4715558Y-15881717D02*
X4715558Y-15843622D01*
X4715558Y-15843622D02*
X4725082Y-15796003D01*
X4725082Y-15796003D02*
X4734606Y-15767432D01*
X4734606Y-15767432D02*
X4744130Y-15748384D01*
X4744130Y-15748384D02*
X4763177Y-15719813D01*
X4763177Y-15719813D02*
X4772701Y-15710289D01*
X4877463Y-15824574D02*
X4858416Y-15815051D01*
X4858416Y-15815051D02*
X4848892Y-15805527D01*
X4848892Y-15805527D02*
X4839368Y-15786479D01*
X4839368Y-15786479D02*
X4839368Y-15776955D01*
X4839368Y-15776955D02*
X4848892Y-15757908D01*
X4848892Y-15757908D02*
X4858416Y-15748384D01*
X4858416Y-15748384D02*
X4877463Y-15738860D01*
X4877463Y-15738860D02*
X4915558Y-15738860D01*
X4915558Y-15738860D02*
X4934606Y-15748384D01*
X4934606Y-15748384D02*
X4944130Y-15757908D01*
X4944130Y-15757908D02*
X4953654Y-15776955D01*
X4953654Y-15776955D02*
X4953654Y-15786479D01*
X4953654Y-15786479D02*
X4944130Y-15805527D01*
X4944130Y-15805527D02*
X4934606Y-15815051D01*
X4934606Y-15815051D02*
X4915558Y-15824574D01*
X4915558Y-15824574D02*
X4877463Y-15824574D01*
X4877463Y-15824574D02*
X4858416Y-15834098D01*
X4858416Y-15834098D02*
X4848892Y-15843622D01*
X4848892Y-15843622D02*
X4839368Y-15862670D01*
X4839368Y-15862670D02*
X4839368Y-15900765D01*
X4839368Y-15900765D02*
X4848892Y-15919813D01*
X4848892Y-15919813D02*
X4858416Y-15929336D01*
X4858416Y-15929336D02*
X4877463Y-15938860D01*
X4877463Y-15938860D02*
X4915558Y-15938860D01*
X4915558Y-15938860D02*
X4934606Y-15929336D01*
X4934606Y-15929336D02*
X4944130Y-15919813D01*
X4944130Y-15919813D02*
X4953654Y-15900765D01*
X4953654Y-15900765D02*
X4953654Y-15862670D01*
X4953654Y-15862670D02*
X4944130Y-15843622D01*
X4944130Y-15843622D02*
X4934606Y-15834098D01*
X4934606Y-15834098D02*
X4915558Y-15824574D01*
X5191749Y-15938860D02*
X5191749Y-15738860D01*
X5277463Y-15938860D02*
X5277463Y-15834098D01*
X5277463Y-15834098D02*
X5267939Y-15815051D01*
X5267939Y-15815051D02*
X5248892Y-15805527D01*
X5248892Y-15805527D02*
X5220320Y-15805527D01*
X5220320Y-15805527D02*
X5201273Y-15815051D01*
X5201273Y-15815051D02*
X5191749Y-15824574D01*
X5401273Y-15938860D02*
X5382225Y-15929336D01*
X5382225Y-15929336D02*
X5372701Y-15919813D01*
X5372701Y-15919813D02*
X5363178Y-15900765D01*
X5363178Y-15900765D02*
X5363178Y-15843622D01*
X5363178Y-15843622D02*
X5372701Y-15824574D01*
X5372701Y-15824574D02*
X5382225Y-15815051D01*
X5382225Y-15815051D02*
X5401273Y-15805527D01*
X5401273Y-15805527D02*
X5429844Y-15805527D01*
X5429844Y-15805527D02*
X5448892Y-15815051D01*
X5448892Y-15815051D02*
X5458416Y-15824574D01*
X5458416Y-15824574D02*
X5467939Y-15843622D01*
X5467939Y-15843622D02*
X5467939Y-15900765D01*
X5467939Y-15900765D02*
X5458416Y-15919813D01*
X5458416Y-15919813D02*
X5448892Y-15929336D01*
X5448892Y-15929336D02*
X5429844Y-15938860D01*
X5429844Y-15938860D02*
X5401273Y-15938860D01*
X5582225Y-15938860D02*
X5563178Y-15929336D01*
X5563178Y-15929336D02*
X5553654Y-15910289D01*
X5553654Y-15910289D02*
X5553654Y-15738860D01*
X5734606Y-15929336D02*
X5715558Y-15938860D01*
X5715558Y-15938860D02*
X5677463Y-15938860D01*
X5677463Y-15938860D02*
X5658416Y-15929336D01*
X5658416Y-15929336D02*
X5648892Y-15910289D01*
X5648892Y-15910289D02*
X5648892Y-15834098D01*
X5648892Y-15834098D02*
X5658416Y-15815051D01*
X5658416Y-15815051D02*
X5677463Y-15805527D01*
X5677463Y-15805527D02*
X5715558Y-15805527D01*
X5715558Y-15805527D02*
X5734606Y-15815051D01*
X5734606Y-15815051D02*
X5744130Y-15834098D01*
X5744130Y-15834098D02*
X5744130Y-15853146D01*
X5744130Y-15853146D02*
X5648892Y-15872194D01*
X5820320Y-15929336D02*
X5839368Y-15938860D01*
X5839368Y-15938860D02*
X5877463Y-15938860D01*
X5877463Y-15938860D02*
X5896511Y-15929336D01*
X5896511Y-15929336D02*
X5906035Y-15910289D01*
X5906035Y-15910289D02*
X5906035Y-15900765D01*
X5906035Y-15900765D02*
X5896511Y-15881717D01*
X5896511Y-15881717D02*
X5877463Y-15872194D01*
X5877463Y-15872194D02*
X5848892Y-15872194D01*
X5848892Y-15872194D02*
X5829844Y-15862670D01*
X5829844Y-15862670D02*
X5820320Y-15843622D01*
X5820320Y-15843622D02*
X5820320Y-15834098D01*
X5820320Y-15834098D02*
X5829844Y-15815051D01*
X5829844Y-15815051D02*
X5848892Y-15805527D01*
X5848892Y-15805527D02*
X5877463Y-15805527D01*
X5877463Y-15805527D02*
X5896511Y-15815051D01*
X5972701Y-16015051D02*
X5982225Y-16005527D01*
X5982225Y-16005527D02*
X6001273Y-15976955D01*
X6001273Y-15976955D02*
X6010797Y-15957908D01*
X6010797Y-15957908D02*
X6020320Y-15929336D01*
X6020320Y-15929336D02*
X6029844Y-15881717D01*
X6029844Y-15881717D02*
X6029844Y-15843622D01*
X6029844Y-15843622D02*
X6020320Y-15796003D01*
X6020320Y-15796003D02*
X6010797Y-15767432D01*
X6010797Y-15767432D02*
X6001273Y-15748384D01*
X6001273Y-15748384D02*
X5982225Y-15719813D01*
X5982225Y-15719813D02*
X5972701Y-15710289D01*
M02*
